<svg xmlns="http://www.w3.org/2000/svg" width="1000" height="1000"><path fill="#00583A" d="m749 241 3 2 19 17 2 2a185 185 0 0 1 51 82c5 15 8 30 10 45 3 21 3 21 13 40l2 3 10 8 1 2 20 12c29 16 49 36 58 68 8 28 9 58-6 84l-10 16c-14 20-26 43-21 68 3 10 12 17 21 24 18 16 34 35 36 61 1 13-1 26-4 39l-1 4c-5 17-15 32-24 47-10 13-10 13-13 28v2l1 4 7 1c17 2 17 2 23 8 6 8 5 19 4 28-3 10-6 20-14 26l-2-1v-2c2-11 3-22-3-32l-1-1v3c-3 22-3 22-11 30-3 2-6 2-10 3h-2a869 869 0 0 1-56 7c-1-4-1-7 1-11v-15 3l-1 3-1 4c-1 5-3 11-7 15l-12 4h-4a370 370 0 0 1-37 7l-2-1-1 22H208v-11h-3c-4 0-4 0-7-2l-7-12 1 3 1 10-3 3c-14 3-27 0-39-8l-8-4c-5-3-7-9-10-14l-1-3c-4-6-6-14-8-21-3 11 0 24 6 34 2 4 4 7 9 8h3l-1 2c-12 1-23-1-33-9l-7-8-1-2c-7-9-10-22-9-33 2-9 7-14 14-20l4-5c-1-6-4-9-8-13l-17-11-25-19-2-2c-19-17-30-55-32-80-1-27 0-62 18-83 6-6 12-10 18-14 3-2 3-3 3-6 0-7-5-12-11-16a83 83 0 0 1-25-57c-2-37 6-76 29-105l2-2c8-9 21-13 32-16 6-1 9-3 14-6l2-1c3-1 3-2 4-5l1-3 2-3 2-3c3-6 2-12 2-19v-4c0-8 0-15-2-23-3-25 10-53 24-72l8-10 2-2c25-31 57-48 96-57 19-5 33-13 47-26 35-34 83-49 131-48 25 0 52 3 71 20l2-1c27-15 59-22 89-26h2c57-7 116 12 161 46Zm161 374 1 2Zm-1 2 1 2ZM789 964l1 2Zm-1 3-1 9h1l1-9h-1Zm-599 4 1 2Z"/><path fill="#FEE8DD" d="M566 373c3 3 4 7 6 11v2a971 971 0 0 1 4 12c4 10 6 21 7 32v9l5-11v-2l4-14 6 15 2 6c7 20 13 45 6 65l-4 4c-4 5-6 13-7 19l2-2a187 187 0 0 1 28-16l3-2 3-1 2-1 2 1a275 275 0 0 1-1 28 264 264 0 0 0 35 7 279 279 0 0 0 39 4c11 1 11 1 20-3 13-12 17-33 18-50v-8h1l1 23v4c0 10-1 18-5 28l-1 2-1 2h3l4-6 3-1 3-7 1-2 7-18h1c3 20 3 44-9 61l-12 14c-16 16-29 35-29 58 0 6 3 9 7 14 2 2 3 3 3 6 2 6 7 9 12 13l3 1 1 4h2c6 7 11 13 12 23-1 6-2 11-6 16-4 4-8 6-13 9l-5 5v2h-4v2c23-2 40-4 56-21 13-15 14-34 13-53a312 312 0 0 0-1-13v-3c0-3 0-3 2-5l9 2c9 1 15-1 22-6 10-8 14-17 17-29a2489 2489 0 0 1 3-12c3 2 4 5 5 9 4 11 5 22 4 34v3c0 10 0 21-4 31l-1 3c-5 12-11 23-19 33l-2 2-1 2h-2l-1 2-6 8-2 1a854 854 0 0 1-17 17l-4 3-10 8-2 2a253 253 0 0 1-56 31l-20 8-4 1c-6 3-13 5-20 6l-3 2-4 1-22 5a222 222 0 0 1-25 6l-19 3h-4a1552 1552 0 0 1-11 1 845 845 0 0 1-251-9l-3-1c-50-11-125-31-159-72l-3-4-15-18v-2h-2l-4-7-1-3c-5-8-10-17-13-27l-1-2c-4-13-4-13-2-20l7-7 2-2v4c-1 25 7 45 24 64 11 11 24 14 39 14h3l2-4h-2c-9-3-17-7-22-15-4-10-4-20 0-30 3-8 8-15 14-22 5-9 10-18 9-28-2-10-5-17-14-23-4-4-7-7-8-12-1-9-1-16 5-23 6-8 14-15 22-20l11-11 3-2v3a2602 2602 0 0 0 0 26c0 6 0 13 3 18h2l2-4c11-17 34-23 52-30l20-9h8l1-3 7-27h1v2l-1 23h2l9 3 5 1-5 3c-12 5-18 16-23 28-6 18-6 40 1 57 4 10 10 17 20 22l3 1c6 2 12 1 18-1 4-2 7-4 10-8l3-4 6-8 1-3c5-10 7-20 7-32v-6c0-14-4-29-13-40-4-4-8-7-14-8v-1a128 128 0 0 1 23-1h11c7 0 11 4 16 8a599 599 0 0 0 7 6l8 3-3-15h6c24 2 24 2 44-6-2 4-4 5-7 8l-1 3c31-11 57-31 73-60l1-2c19-33 24-68 26-105Z"/><path fill="#085544" d="M350 810a360 360 0 0 0 69 10c20 2 40 2 61 2h10a774 774 0 0 0 79-2 256 256 0 0 1-66 46c-43 22-109 54-157 40l-3-3v-8l-5 15-3 12c-7 23-13 52-7 76l3 1-1-30c0-9 0-19 3-27l3-17 4-17h4a280 280 0 0 0 160-40c18-9 34-19 49-31l2-1a714 714 0 0 0 7-7l2-1 1-1 3-4c2-4 4-5 8-6l11-1h15l21-3 3-1c5 0 9-1 13-3h5v3c-1 36 1 72 14 106l4 13v3a1708 1708 0 0 1 2 15c6 38 6 38 6 50h5a3570 3570 0 0 0-8-54l-4-17c-10-39-18-79-17-119l5-1 3-1c7-2 11-1 17 2l3 2 2 1 5 4v2l2 1 9 5a815593961 815593961 0 0 1 15 14 232 232 0 0 1 51 63c17 31 22 63 22 98l4 1H213c1-30 1-30 6-44l1-3a217 217 0 0 1 26-56l8-13 3-6h2l1-2 6-9 6-7 19-22 2-2c9-9 18-18 28-25l2-2c8-6 18-1 27 1Z"/><path fill="#020202" d="m749 241 3 2 19 17 2 2a185 185 0 0 1 51 82c5 15 8 30 10 45 3 21 3 21 13 40l2 3 10 8 1 2 20 12c29 16 49 36 58 68 8 28 9 58-6 84l-10 16c-14 20-26 43-21 68 3 10 12 17 21 24 18 16 34 35 36 61 1 13-1 26-4 39l-1 4c-5 17-15 32-24 47-10 13-10 13-13 28v2l1 4 7 1c17 2 17 2 23 8 6 8 5 19 4 28-3 10-6 20-14 26l-2-1v-2c2-11 3-22-3-32l-1-1v3c-3 22-3 22-11 30-3 2-6 2-10 3h-2a869 869 0 0 1-56 7c-1-4-1-7 1-11v-15 3l-1 3-1 4c-1 5-3 11-7 15l-12 4h-4a370 370 0 0 1-37 7l-2-1-1 22-8-1v-3c-1-19-2-38-7-56l-1-3a189 189 0 0 0-33-64 186 186 0 0 0-39-41l-4-3c-5-5-10-8-15-11v-2l-2-1-8-5c-8-4-12-3-20-2l-3 1h-2a553 553 0 0 0 23 141l1 2c5 32 5 32 5 43v4h-5v-3a1529 1529 0 0 0-15-84 117 117 0 0 1-6-22l-5-30v-2l-1-25a1658 1658 0 0 0 0-13v-2l1-9-3 1-26 5-4 1-18 1h-4l-7 1c-5 0-8 0-12 3l-6 8c-15 15-34 26-52 36l-2 1c-45 26-105 50-157 44h-3l-10-2a506 506 0 0 0-9 52v2l1 13v14l-1 3v7l-4-1c-5-19-1-43 3-62l1-3a467 467 0 0 1 12-39l1 7v4c7 2 13 2 20 2h2c13 0 27-2 40-5l2-1c55-13 112-39 155-76l5-4-25 1a810 810 0 0 1-198-12c-9-3-9-3-18-2l-2 1-2 2-3 2-3 2-22 20-3 3a228 228 0 0 0-23 26l-1 2-7 9-2 3h-2l-1 2a100 100 0 0 1-8 15l-1 2a728 728 0 0 0-11 21l-1 1c-7 13-12 26-16 40l-1 2c-3 12-4 24-4 36l-1 3h-5v-11h-3c-4 0-4 0-7-2l-7-12 1 3 1 10-3 3c-14 3-27 0-39-8l-8-4c-5-3-7-9-10-14l-1-3c-4-6-6-14-8-21-3 11 0 24 6 34 2 4 4 7 9 8h3l-1 2c-12 1-23-1-33-9l-7-8-1-2c-7-9-10-22-9-33 2-9 7-14 14-20l4-5c-1-6-4-9-8-13l-17-11-25-19-2-2c-19-17-30-55-32-80-1-27 0-62 18-83 6-6 12-10 18-14 3-2 3-3 3-6 0-7-5-12-11-16a83 83 0 0 1-25-57c-2-37 6-76 29-105l2-2c8-9 21-13 32-16 6-1 9-3 14-6l2-1c3-1 3-2 4-5l1-3 2-3 2-3c3-6 2-12 2-19v-4c0-8 0-15-2-23-3-25 10-53 24-72l8-10 2-2c25-31 57-48 96-57 19-5 33-13 47-26 35-34 83-49 131-48 51 1 51 1 67 17l-1 2-2-2c-20-16-61-12-85-9-27 3-52 11-76 24l-2 1-23 16-12 9-12 10-12 8-2 1-22 8c-36 11-67 28-90 58l-2 2c-15 18-28 43-27 66l2 13c2 20 1 39-11 56-8 9-16 12-27 14-16 4-26 10-35 24l-1 2c-4 7-8 14-10 22l-1 2c-9 32-11 66 3 97 4 7 10 12 16 18 6 5 10 11 11 18 0 6-2 9-6 13l-11 9c-16 12-19 35-22 54-4 34 5 72 26 100 9 10 19 17 31 23 24 15 24 15 27 25 1 5 0 8-2 12l-10 8c-3 3-5 4-6 8-2 13 2 24 9 34 5 6 11 11 19 13l-1-2c-6-12-10-23-6-37l3-7 3-10 4 2v6c-1 4 0 5 1 9v-2l1-8v-6l1-2v-2l2-1v3c0 19 6 35 15 51l1 3c3 4 6 6 12 8 7 1 17 1 24-1v-2l-1-2v-2c-2-7-2-14-2-22v-2c0-5 0-9 2-13h3l1 4c3 12 6 27 15 36l5 1 2 1h2v-3c2-15 6-30 12-44l1-3a252 252 0 0 1 30-54l22-28 6-8c11-13 22-25 37-33l3-3h2v-2h-2l-30-9-2-1a366 366 0 0 1-73-35l-15-9h-3l-6-4-2-2a580 580 0 0 1-8-6c-21-18-38-51-45-78v-4l-3 1-3 1-4 2c-6 2-12 2-18 2h-9v-4l2-2c12-9 14-26 17-40l3 1c1 13-3 26-11 37l-2 2h-2v2c17-4 30-8 40-23l6-15h1l-1 17c-3 19 1 38 12 54 8 12 17 19 30 24l-1-2-5-7-1-3c-4-8-3-19 0-28 3-10 8-18 14-26 7-10 10-19 9-31-2-8-6-13-12-18-4-3-7-6-8-12-1-12 0-22 8-31 5-6 11-10 17-14l16-13 2-1 2-7 1-4 1-3c5-23 13-44 23-65l1-3c9-17 20-34 32-49l1-2c17-20 17-20 28-24l-7 7a268 268 0 0 0-74 179v8c3 0 4-2 6-3 18-15 47-30 70-30v-3a63 63 0 0 1 5-17c19-53 19-53 34-68l5-1-5 9c-14 22-21 50-24 76l3-1h7l6 1v-3l4-14 1-2 14-32 3-8c4-7 7-14 12-20h2l-6 16c-9 21-13 43-16 65l2-1h2l3-1c17-5 38-1 56 0a9158 9158 0 0 0 19 1c10 2 10 2 20-1 21-21 35-51 38-81h2c1 28-8 57-24 80l-1 3 28-21 2-2c7-6 12-13 16-21l1-2c18-32 29-67 31-103l3-15c5 1 5 1 7 3 8 14 14 31 16 47l1 1v-6l-1-3v-6c0-7-3-12-6-18l-3-6-2-3-3-7c26 25 38 69 43 103 3-17 4-34 0-51v-11c3 1 4 2 5 4 2 6 4 10 3 16h2c23 68 23 68 15 93l-3 5h3a1607 1607 0 0 1 87 6c4-8 8-16 10-25l1-2c3-13 2-26 2-40v-9c0-4 0-6 2-9l6 21 1 4 4 32v12l9-30h1v3c0 6 1 11 3 17 6 16 6 37-1 52-5 11-14 20-24 28-11 9-22 26-23 41-1 9 1 16 6 24l8 7c25 19 25 19 27 33 1 10-1 18-7 26l-11 8c17-3 31-10 41-24 9-14 10-29 9-45a841 841 0 0 1 0-13l1-8c4-2 10-1 15 0 7 0 11-2 17-6 5-5 9-10 12-16l1-2c5-10 4-22 5-32h2v-3c1-9 6-15 11-21 7-8 13-16 12-27-1-7-3-13-7-18l1-2c7 7 11 14 11 24 0 8-2 13-7 18-3 4-3 7-3 12 1 11 8 20 16 27 6 4 11 6 18 6h6l-1-2c-6-11-8-23-10-36v-3l-1-16h1v2l9 35 1 3 5 9v2h2l4 7-1 3-6 2-5 1c-6 2-12 0-18-3-11-6-19-18-23-30l-1-8c-5 5-8 9-8 16 0 4 2 8 4 12 7 12 8 25 8 39v3c0 11 0 21-3 32l-1 2c-2 8-4 16-9 23l-1 2-19 25-2 2c-22 26-53 43-82 60l-4 3-8 3-3 1-3 1-3 2c-15 5-29 9-44 12l-3 1-2 1-3 1h-5c2 3 5 4 8 6 19 9 35 25 50 39l2 2 18 20 2 3 2 2 2 2c6 8 10 16 13 25l2 3 16 43 1 3 1 3v2l1 5h2v-8l1-3 1-8 5 1 1 10v17l6-1 2-1a1080 1080 0 0 0 17-3l3-1 14-1c4 0 4 0 7-2l2-7 1-3c3-13 4-26 2-39l4 1 2 4v2c2 6 2 10 2 16v19l-1 8 3-1 27-3h2a1561 1561 0 0 1 20-2c5-1 9-2 12-6 5-11 6-21 6-33 6 3 11 9 14 15l2 13c3-10 6-21 3-31-2-4-4-6-8-8h-8c-6-1-11-1-16-4-3-3-4-7-3-11 2-15 11-28 20-40s14-22 17-37l2-10c4-21 2-40-9-59l-8-10-2-3-16-14c-12-8-22-18-24-33-3-29 11-54 26-78 15-23 18-47 13-74-8-35-27-53-56-71a156 156 0 0 1-27-22c-8-9-12-20-15-31l-3-9c-3-6-3-13-4-19a188 188 0 0 0-50-108c-15-16-33-29-52-40l-2-1c-34-20-73-30-111-29h-3c-29 0-56 5-85 13l-3 1-18 6-5 1c8-9 21-12 32-15l3-1c18-6 37-11 56-13h2c57-7 116 12 161 46ZM566 373v3c-2 29-5 57-17 84l-1 2c-9 22-22 43-42 57l-2 1c-12 9-24 15-38 20 2-4 4-6 8-9l-1-2-2 2c-9 8-35 4-47 4l3 15-10-5-2-2-2-1-3-3-5-4c-6-3-16-2-23-2h-3l-17 1 5 3c8 4 12 9 16 17 4 10 6 20 6 31v6c0 16-5 33-16 44l-5 4-1 2c-5 3-10 5-16 6-7-1-14-5-20-9l-2-3-2-2c-7-9-11-20-11-32v-4c-1-20 5-36 16-53 4-4 10-7 16-9v-1h-2l-3-1h-2l-7-3h-2l1-25-4 9-1 3-1 4-1 3-2 11-2-1c-4 0-8 2-12 4l-29 12c-15 6-31 13-39 28h-2a45 45 0 0 1-3-22 2618 2618 0 0 1 0-25 420 420 0 0 0-21 18c-9 7-18 14-20 25-1 8-1 15 4 21l8 6c6 5 9 13 10 21 0 5 0 10-2 14l-1 2c-3 7-6 12-11 18-8 11-13 22-12 36 1 8 4 13 10 18 5 3 11 6 17 7l-2 4c-16 1-27-2-40-12a82 82 0 0 1-26-70l-2 2-4 5-4 7c0 7 3 14 5 20l1 3c4 11 10 21 16 31h2l1 2 5 9 3 2 2 3 2 3 5 5 6 5c8 8 16 13 25 18l3 2 25 13 3 1a514 514 0 0 0 168 44c49 6 99 4 148 2h4a469 469 0 0 0 114-19l9-3 4-1a82 82 0 0 0 19-6l2-1a267 267 0 0 1 17-7l4-2 2-1 7-3 22-12 3-2c12-7 24-16 34-25l2-2c8-7 16-14 22-22v-2l2-1c3-1 4-4 6-7l2-3 2-3 1-2c16-24 20-54 15-82l-7-19c-3 3-3 5-3 9-3 14-9 25-21 34-6 3-10 5-17 4l-4-1h-8l-1 4v13c3 18 1 36-9 52a56 56 0 0 1-37 23l-22 2v-2h4l1-2c1-4 3-5 6-7 8-4 13-8 16-17 1-8 0-15-5-22l-6-7h-2v-2c-1-3-3-3-6-5-6-4-9-8-11-15l-5-6c-3-4-4-7-4-13 1-23 15-40 30-56 18-20 22-38 21-63l-1-11c-3 3-3 5-4 9-2 7-5 13-9 19h-2l-2 3-2 3h-3l1-3a16996 16996 0 0 0 3-7l1-2v-2c2-5 2-9 2-14v-6a1065 1065 0 0 1-1-25h-1v3c-1 19-3 39-17 54-19 13-63 0-84-4l-11-3 1-16v-12l-2-1-11 5-6 3-21 14c5-17 5-17 10-21 5-6 3-20 3-28-1-21-8-41-15-60-3 3-3 6-4 10l-5 17-1-10c-1-14-5-27-10-40l-1-3-1-4-1-2-4-7Zm223 591 1 2Zm-1 3-1 9h1l1-9h-1Zm-599 4 1 2Z"/><path fill="#005739" d="m857 561 2 1v3c1 12 10 24 19 31 6 5 12 8 21 6l4-1h6l-2 3c-16 22-28 46-25 74 2 9 7 18 11 26l1 2c5 11 11 20 18 29l17 22 2 3c8 14 4 39 0 53-4 15-11 28-17 41-8 15-15 33-10 50l2 6c4 9 4 16 1 25-2 6-6 13-12 18l-8 3c-6 1-6 1-10 4l-4 1h-2l-3 1h-2l-3 1h-2l-6-1v-2l1-17v-4c0-9-1-17-4-26h-2l1 4c1 15 0 31-7 44-3 3-5 3-9 3l-28 4-3 1-3 1h-6v-11l-1-3v-5l-1-8-4-1-2 19h-2l-1-3c-6-20-13-40-22-59l-1-2a113 113 0 0 0-20-30c-10-13-21-24-33-34l-3-3c-11-9-22-16-35-23l-3-4 3-1a2985 2985 0 0 0 57-16c7-3 14-6 21-11l16-9c14-7 26-16 38-27l8-6 5-4 3-2 19-22 2-3c8-11 15-21 18-34l1-4a143 143 0 0 0 3-36c1-15-2-31-11-45-2-4-1-8 0-12l7-10Z"/><path fill="#FEE8DD" d="M350 810a360 360 0 0 0 69 10c20 2 40 2 61 2h10a774 774 0 0 0 79-2 256 256 0 0 1-66 46c-43 22-109 54-157 40l-3-3v-8l-5 15-3 12c-7 23-13 52-7 76l3 1-1-30c0-9 0-19 3-27l3-17 4-17h1a131 131 0 0 1-2 29c-1 9-2 18 3 26l6 4-1 2h-5l-2-1-7-1v5l4 2 1 26H213c1-30 1-30 6-44l1-3a217 217 0 0 1 26-56l8-13 3-6h2l1-2 6-9 6-7 19-22 2-2c9-9 18-18 28-25l2-2c8-6 18-1 27 1Z"/><path fill="#020302" d="M563 366c5 1 5 1 7 3 8 14 14 31 16 47l1 1v-6l-1-3v-6c0-7-3-12-6-18l-3-6-2-3-3-7c26 25 38 69 43 103 3-17 4-34 0-51v-11c3 1 4 2 5 4 2 6 4 10 3 16h2c23 68 23 68 15 93l-3 5h3a1566 1566 0 0 1 86 7c-1 3-2 4-5 6h-17c-16-1-31-3-47-6l-3-1a836 836 0 0 1-21-5v-6l1-10v-12c-19 9-19 9-36 20l-3 1c0-7 3-15 8-20 7-11 5-31 3-43-3-15-8-30-14-44l-1 3-7 24c-3-4-2-7-2-11-1-19-7-39-15-55v3c-2 28-5 55-17 82l-1 2c-7 16-16 31-27 44l-2 2c-12 14-32 26-50 32h-4l2-5 5-4c-11 9-34 5-48 5l1 3 1 11c-6 0-9-3-13-6a3133 3133 0 0 0-9-8c-6-3-16-2-23-2a451841636 451841636 0 0 0-15 2c10 4 15 12 18 21 4 10 5 18 5 28v6c0 13-4 25-10 36l-1 2c-3 4-3 4-6 5l-1 2-1 2-3 1-1 3c-6 4-13 7-21 5a41 41 0 0 1-23-18c-5-9-8-18-8-28v-4c-1-19 4-37 16-53 5-5 9-8 15-9l-2-1-10-3-2 1-1-7v-3l1-14-1 2a10985 10985 0 0 1-3 14l-1 3-1 3-2 5-5 1c-4 0-8 3-12 4l-26 11c-9 4-17 7-24 12l-2 2c-6 4-10 8-13 14l-4-3c-2-6-2-11-2-17v-3a2470 2470 0 0 1 0-24l-2 2-4 4-1 1-11 10c-9 6-19 14-21 25-1 8-1 15 4 21l8 6c6 5 9 13 10 21 0 5 0 10-2 14l-1 2c-3 7-6 12-11 18-8 11-13 22-12 36 1 7 4 13 9 17a80 80 0 0 0 12 6l5 2-2 5c-17 1-29-2-42-14a82 82 0 0 1-25-67c-4 3-7 6-8 11 0 7 3 14 5 21l1 3 11 22 2 3 1 2 1 4h2l5 7c5 7 10 13 16 18l2 2v2l2 1a47 47 0 0 1 10 7l5 5-4 1-7-5-2-1a497 497 0 0 1-8-7c-22-18-38-51-45-78v-4l-3 1-3 1-4 2c-6 2-12 2-18 2h-9v-4l2-2c12-9 14-26 17-40l3 1c1 13-3 26-11 37l-2 2h-2v2c17-4 30-8 40-23l6-15h1l-1 17c-3 19 1 38 12 54 8 12 17 19 30 24l-1-2-5-7-1-3c-4-8-3-19 0-28 3-10 8-18 14-26 7-10 10-19 9-31-2-8-6-13-12-18-4-3-7-6-8-12-1-12 0-22 8-31 5-6 11-10 17-14l16-13 2-1 2-7 1-4 1-3c5-23 13-44 23-65l1-3c9-17 20-34 32-49l1-2c17-20 17-20 28-24l-7 7a268 268 0 0 0-74 179v8c3 0 4-2 6-3 18-15 47-30 70-30v-3a63 63 0 0 1 5-17c19-53 19-53 34-68l5-1-5 9c-14 22-21 50-24 76l3-1h7l6 1v-3l4-14 1-2 14-32 3-8c4-7 7-14 12-20h2l-6 16c-9 21-13 43-16 65l2-1h2l3-1c17-5 38-1 56 0a9158 9158 0 0 0 19 1c10 2 10 2 20-1 21-21 35-51 38-81h2c1 28-8 57-24 80l-1 3 28-21 2-2c7-6 12-13 16-21l1-2c18-32 29-67 31-103l3-15Z"/><path fill="#FEE8DD" d="m671 809 3 2 2 1 5 4v2l2 1 9 5a815593961 815593961 0 0 1 15 14 232 232 0 0 1 50 61l1 2c17 31 22 63 22 98l4 1H670v-1h5a3570 3570 0 0 0-8-54l-4-17c-10-39-18-79-17-119l5-1 3-1c7-2 11-1 17 2Z"/><path fill="#FEE589" d="M430 208h2c12 0 23 0 34 2v1h-2a3240 3240 0 0 0-25 0c-13 0-25 0-38 3l-3 1a131 131 0 0 0-9 3 253 253 0 0 0-95 60c-10 8-22 12-34 17l-17 8-3 1-25 12-2 1a153 153 0 0 0-38 28c-19 17-34 42-35 67l-1 10c-1 27-9 54-28 73l-9 6c-22 15-39 35-50 59l-1 2c-9 24-3 55 6 77l10 21c11 22 11 22 10 31l-6 13c-20 31-23 71-15 107 6 26 6 26 21 47l5 3 9 5 2 1 18 12 3 2c14 12 20 26 24 44 6 23 16 42 36 55l3 2 2 1v1c-21 1-21 1-27-5a94 94 0 0 1-20-60l-2 16v10h-1v-5l-1-3v-3l-2-1 2-8-3-1a481 481 0 0 0-5 12c-4 12-2 24 2 35l4 8c-12-3-19-10-25-20-5-9-6-18-5-28 2-6 8-9 12-13 4-3 6-6 6-11-1-8-5-13-11-18a198 198 0 0 0-18-11l-3-2c-29-18-41-45-50-77-6-27-5-65 11-89 4-6 10-10 16-15 5-4 9-7 10-13 0-7-3-12-7-17l-6-6a83 83 0 0 1-24-60c-1-19 2-37 8-55l1-2c5-16 15-34 31-42 6-3 13-5 20-6 11-2 18-7 24-16 9-16 10-34 8-51-3-23 1-40 12-60l2-3a116 116 0 0 1 16-22c24-30 56-47 93-58 13-4 23-8 33-18l14-10 9-7c29-23 63-35 100-40h2l25-1Z"/><path fill="#085544" d="m644 809-1 13-28 5h-3l-14 1v2l-7 18-1 2c-2 5-5 8-8 12l-2-1 1-2c4-12 9-26 9-38l-6 16c-8 26-8 26-19 32-6 2-12 2-18 2v3c-1 18-7 30-20 42-11 9-25 14-39 13a88 88 0 0 1-18-4l-3-1-4 1-4 7c-6 12-15 19-28 24-10 3-23 3-33-2-4-2-8-5-11-9l-1-2h-3l-3 4c-6 10-15 17-26 21l-10-2c-5-4-6-8-7-14l2-23a2785 2785 0 0 0 2-21h2c15 2 15 2 31 2h3a322 322 0 0 0 127-42c18-9 34-19 49-31l2-1 5-5 2-2 2-1 1-1 3-4c2-4 4-5 8-6l11-1h15l21-3 3-1 18-3Z"/><path fill="#08443C" d="M823 722c0 4-2 6-5 8l-1 2-10 9c-26 24-46 62-48 98-1 9 0 19 1 28v2c2 12 8 22 14 32 7 14 13 26 17 41h-2l-2 19h-2l-1-3c-6-20-13-40-22-59l-1-2a113 113 0 0 0-20-30c-10-13-21-24-33-34l-3-3c-11-9-22-16-35-23l-3-4 3-1a2985 2985 0 0 0 57-16c7-3 14-6 21-11l16-9a239 239 0 0 0 43-31l16-13Z"/><path fill="#020202" d="M657 542c11 8 18 20 22 33l1 3c4 15 3 34-4 47-3 5-7 10-12 13l-2 1c-7 5-14 5-22 4l-9-5-3-2a66 66 0 0 1-22-45c-1-14 1-28 7-41l1-3c12-14 29-13 43-5Z"/><path fill="#08443C" d="M924 517c10 15 10 43 7 61-4 13-11 30-21 39l-4 7-1 3-1 3-2 3-9 24-1 3c-3 13-2 28 5 40 5 8 11 14 19 19 17 14 32 31 36 53 1 18-2 36-7 53l-2 6c-1 6-5 10-8 15l-4 5-2 3c-14 20-14 20-18 43l3 5c6 2 11 2 17 2 5 1 8 2 12 5 5 6 5 12 4 20 0 6-2 14-6 18v-2c-1-11-4-18-12-26l-3-2 1 2c1 11 0 24-7 33-3 3-6 4-10 4l-4 1h-2a572 572 0 0 0-11 1h-2l-13 1c3-3 6-4 10-5 7-2 10-4 14-10 5-9 7-17 6-27l-3-7c-6-13-4-28 1-41l12-26c10-20 15-37 15-60v-4c0-11-1-17-8-26l-2-2-8-11a187 187 0 0 1-27-44c-8-17-9-33-4-51 5-13 14-39 27-46 15-24 19-48 14-75l-1-7Z"/><path fill="#010201" d="m323 371 2 1-2 2a268 268 0 0 0-79 183v8c3 0 4-2 6-3 18-15 47-30 70-30v-3a63 63 0 0 1 5-17c19-53 19-53 34-68l5-1-5 9c-11 17-17 36-21 56l-1 3-1 16-2 4-2 1-1-7v-3l1-14-1 2a10985 10985 0 0 1-3 14l-1 3-1 3-2 5-5 1c-4 0-8 3-12 4l-26 11c-9 4-17 7-24 12l-2 2c-6 4-10 8-13 14l-4-3c-2-6-2-11-2-17v-3a2470 2470 0 0 1 0-24l-2 2-4 4-1 1-11 10c-9 6-19 14-21 25-1 8-1 15 4 21l8 6c6 5 9 13 10 21 0 5 0 10-2 14l-1 2c-3 7-6 12-11 18-8 11-13 22-12 36 1 7 4 13 9 17a80 80 0 0 0 12 6l5 2-2 5c-17 1-29-2-42-14a82 82 0 0 1-25-67c-4 3-7 6-8 11 0 7 3 14 5 21l1 3 11 22 2 3 1 2 1 4h2l5 7c5 7 10 13 16 18l2 2v2l2 1a47 47 0 0 1 10 7l5 5-4 1-7-5-2-1a497 497 0 0 1-8-7c-22-18-38-51-45-78v-4l-3 1-3 1-4 2c-6 2-12 2-18 2h-9v-4l2-2c12-9 14-26 17-40l3 1c1 13-3 26-11 37l-2 2h-2v2c17-4 30-8 40-23l6-15h1l-1 17c-3 19 1 38 12 54 8 12 17 19 30 24l-1-2-5-7-1-3c-4-8-3-19 0-28 3-10 8-18 14-26 7-10 10-19 9-31-2-8-6-13-12-18-4-3-7-6-8-12-1-12 0-22 8-31 5-6 11-10 17-14l16-13 2-1 2-7 1-4 1-3c5-23 13-44 23-65l1-3c9-17 20-34 32-49l1-2c8-9 16-17 26-24Z"/><path fill="#FEE589" d="m329 372-2 1c-27 22-46 77-52 111v2c-3 14-3 27 2 41 3 3 4 4 8 5l6-1 4-1h4l7-2h4l10-1v5l-4 1-31 10-3 1a104 104 0 0 0-36 22l-2 2c-12-37 15-97 31-130 6-12 37-72 54-66Z"/><path fill="#FCE388" d="m322 810-1 5-2 1-2 2-2 2a173 173 0 0 0-23 27l-10 13-1 2c-29 39-47 90-50 138h-18c0-15 1-29 6-44l1-3a217 217 0 0 1 26-56l8-13 3-6h2l1-2 6-9 6-7 19-22 2-2c9-9 18-18 28-25l1-1Z"/><path fill="#FDE489" d="m761 260 2 2c13 11 24 24 34 39l-1 2-2-2c-13-15-27-28-43-40l-2-1a272 272 0 0 0-175-48c-16 1-33 1-49 5l-14 2c5-3 12-4 18-6h2c13-4 26-7 40-9h2c67-11 138 11 188 56Z"/><path fill="#148752" d="M631 585c4 6 5 9 5 16l1 4 6 2h3l7-1v-4a4678 4678 0 0 1 1-15c4-4 8-3 13-3 4 1 5 2 8 6 4 10 3 18-1 28-3 7-7 11-14 14l-2 1h-3c-6 3-11 2-18 0-13-8-19-19-23-33-2-5-2-10 1-15 5-4 11-4 16 0Z"/><path fill="#D0BBC5" d="M846 591c3 2 4 5 5 9 2 6 4 12 2 19-8 13-22 23-37 27l-3 2 1 10c3 14-4 33-11 44l-10 13-2 3c-6 5-10 9-18 11l-2-1 1-2 7-11c1-4 3-7 6-10 10-16 11-36 8-54a153 153 0 0 1 0-10c0-3 0-3 2-5l9 2c9 1 15-1 22-6 10-8 14-17 17-29a2489 2489 0 0 1 3-12Z"/><path fill="#148752" d="M334 585c3 5 5 9 6 15 2 4 3 6 7 8 3 2 6 2 9 2 5-4 7-8 8-15l4-5h8c3 2 4 3 5 7 1 11-1 19-7 28-6 6-12 13-21 14-7 1-12-1-17-6a50 50 0 0 1-17-34c1-6 2-8 5-12 4-2 6-2 10-2Z"/><path fill="#000100" d="m590 819 2 1v2l-4 15-1 3-1 6c-2 11-7 20-16 27-6 4-12 4-19 4v4c0 14-7 26-17 36a62 62 0 0 1-42 18c-10 0-19-3-28-8l-1 2c-4 13-13 22-25 28-13 6-28 8-41 2-5-2-9-6-13-10l-1 2a57 57 0 0 1-37 24c-5 1-9 0-13-2l-1-4v-2h6c7 3 16 0 22-3 10-4 18-13 23-22l5 2 2 2c4 6 10 9 17 10 16 1 29-1 42-11 6-5 9-12 13-19l3-3 8 2c16 5 29 4 43-3s23-18 28-32l2-16 1-4h5c8 0 14-1 20-7 9-9 12-26 15-37l3-7Z"/><path fill="#49C197" d="M317 640c4 4 7 7 9 13v2h-2l-3-4c-8-8-18-15-30-16-8-1-15 0-22 5l-2 3-2 2c-9 11-12 23-11 37l4 12 1 2c3 7 12 9 19 11 8 2 16 2 23-3s7-5 11-13c1-10-1-18-6-27-4-4-10-6-16-6s-9 2-13 6c-3 5-4 9-3 15 1 5 3 8 7 11 6 0 9 0 14-3 3-4 3-7 3-12h-7l-2 6-4-1-2-5 4-6c3-2 5-3 9-2 4 2 7 4 9 9 1 6-1 10-4 15-4 4-7 6-13 6-5 0-8-2-12-5-5-6-7-13-6-21 2-7 4-11 10-15a26 26 0 0 1 35 11c4 9 5 18 2 27-3 7-9 13-16 16-8 3-19 6-28 3l-11-8-3-2-5-7-2-2c-5-11-5-24-1-35s12-22 23-27c15-6 31-2 43 8Z"/><path fill="#FDE489" d="M747 581c0 4-2 7-5 10-8 13-16 26-14 42 3 14 10 23 20 33s17 19 20 33l7 1c7-5 11-15 14-23l3-5c-1 17-7 30-19 42-9 7-21 12-32 13l-3-1 2-1c8-4 14-9 17-18 2-10 1-19-4-28-7-9-16-15-24-22-6-4-10-10-12-17-2-17 4-30 14-43a351 351 0 0 1 16-16Z"/><path fill="#D0BBC5" d="M233 534c0 4-1 4-3 7-10 11-21 26-20 41 1 10 4 18 9 26 5 9 5 19 3 28s-7 17-13 25c-6 9-11 23-9 34 1 5 4 9 8 12l10 4c5 2 5 2 6 4l1 2-2 2h-4v-2h-2c-9-3-17-7-22-15-4-10-4-20 0-30 3-8 8-15 14-22 5-9 10-18 9-28-2-10-5-17-14-23-4-4-7-7-8-12-1-9-1-16 5-23 7-9 15-16 24-22l8-8Z"/><path fill="#CDB9C2" d="m150 639 1 10c0 22 9 42 25 58 2 3 5 5 8 6 5 3 7 7 11 12 13 19 33 33 53 44l9 5-2 1-4-2-3-1-3-2-3-1c-46-22-46-22-59-38l-3-4-15-18v-2h-2l-4-7-1-3c-5-8-10-17-13-27l-1-2c-4-13-4-13-1-20l6-7 1-2Z"/><path fill="#FEE589" d="M156 614h2v2a1165 1165 0 0 0 2 13c3 20 11 38 23 54 4 6 6 10 7 17 1 5 4 8 7 12l2 3c-16-4-27-15-36-29-9-17-12-34-8-53v-14l1-5Z"/><path fill="#D0BBC5" d="M566 373c8 9 11 24 11 35-2 26-15 54-31 74l-2 3c-8 10-17 19-27 28l-2-1 2-2c6-6 11-12 16-20l1-2c11-17 20-36 25-56l1-2c5-19 5-38 6-57Z"/><path fill="#49C197" d="M709 641c5 2 10 6 14 11 1 10-3 16-8 24-3 3-5 5-10 6-5 0-9 0-13-3-4-6-6-10-5-17 1-4 4-6 7-8 4-2 7-1 11 1l4 4c0 4-1 5-3 8l-4 1v-6l-6-1-3 2c-1 5 0 7 3 11 4 2 9 1 14 0 4-3 5-5 6-9 1-8-2-12-5-18-2-2-3-3-6-3-9-1-16 0-23 5-5 5-8 10-9 17-1 8 2 16 7 22 7 7 15 11 25 11 9 0 17-8 23-14 4-5 6-9 7-15h3l1 3h-2v2c-3 12-10 21-20 27-9 3-18 2-26-2l-3-1-3-1c-7-4-13-8-16-16-2-8-2-17 2-25 8-13 22-23 38-16Z"/><path fill="#08443C" d="M862 514c5 4 6 11 7 17-1 11-7 19-14 26-6 7-9 14-11 23h-2v2c0 18-2 31-14 45l-9 7-2-1 2-2 2-3 2-3c5-8 4-16 5-25 0-26 0-26 9-36l4-3a61 61 0 0 0 21-44v-3Z"/><path fill="#CFBAC4" d="M654 885c2 3 3 4 3 7l1 3 1 2 12 28c10 24 21 49 21 75h-22v-1h5a3570 3570 0 0 0-8-54l-4-18-6-26-1-4-1-3-1-3v-6Z"/><path fill="#174B51" d="m644 809-1 13-28 5h-3l-14 1v2l-7 18-1 2c-2 5-5 8-8 12l-2-1 1-2c4-12 9-26 9-38l-1 2-1 2-1 2-2 3-9 1h-2l-14 1 3-3 3-4c3-4 6-7 11-8l11-1h12l2-1 21-2 3-1 18-3Z"/><path fill="#FDE589" d="M625 429c3 3 4 6 6 10l1 2 9 29c4 15 9 31 20 43l2 2c6 7 15 11 23 15l-8 1-3-1h-3l-36-2 1-2c12-25-2-60-9-85l-1-2-1-5-1-5Z"/><path fill="#75D5A9" d="m329 593 4 2 6 12c2 5 3 7 8 9l3 2h8c7-4 8-10 10-17l3-3h2c3 4 3 8 2 13-2 8-5 13-12 18-6 4-12 4-19 3-8-2-13-7-17-14-3-6-4-11-4-18 3-6 3-6 6-7ZM623 590c3 0 3 0 5 2l1 6c2 6 4 10 9 14h12l5-3 4-10c1-3 2-4 5-6l5 1c3 5 3 9 2 14-2 7-7 12-13 17-6 3-14 3-20 1-9-3-13-12-17-21-2-5-2-9-2-14l4-1Z"/><path fill="#CFBAC4" d="m671 809 3 2 2 1 5 4v2l2 1 9 5a815593961 815593961 0 0 1 16 14l13 13a15942 15942 0 0 0-14-6c-29-18-29-18-61-21v-15c17-5 17-5 25 0Z"/><path fill="#D0BBC5" d="m569 820-5 5-2 2c-3 3-6 5-11 5h-5a432 432 0 0 1-14-1c-28 0-55-3-83-7v-1h3a11855 11855 0 0 0 117-3Z"/><path fill="#CFBBC4" d="M746 478h1c3 18 4 38-7 54a1531 1531 0 0 0-10 13h-4v-2h-2l-10 1h-11c-12 0-23-2-34-4l-18-1-5-1 3-6h4l3 1h2l3 1 14 2a265 265 0 0 0 36 3c10 0 10 0 19-5 11-14 15-30 16-48v-8Z"/><path fill="#FDE489" d="M380 465c2 4 0 8 0 12a146 146 0 0 0-3 23c0 6 0 11 3 16 8 8 23 9 33 10v1h-2a1769 1769 0 0 0-15 0c-11 0-22 0-32 4 3-23 7-45 16-66Z"/><path fill="#08453C" d="M889 541h1v3a4184 4184 0 0 0 3 15c2 18 2 18 9 35v2c-6 2-11 2-17-1-10-5-19-15-23-26v-5l3 5c4 6 9 12 16 14h2c3-5 4-10 4-16v-2l1-18 1-6Z"/><path fill="#FAE288" d="M340 908h1l-1 18v2l-1 9c-1 9-2 18 3 26l6 4-1 2h-5l-2-1-7-1v5l4 2 1 26h-10l3-1-1-30c0-9 0-19 3-27l3-17 4-17Z"/><path fill="#FCE489" d="M507 462h1v19c-1 9-1 16 1 24l3-2 3-1 2 1c-11 11-23 20-36 29l-2-1 1-1c13-16 20-37 24-56l3-12Z"/><path fill="#FEE8DD" d="m624 441 2 1 2 8v2a1104 1104 0 0 1 6 40h-20l1-5 1-3 2-6c4-12 5-25 6-37Z"/><path fill="#FDE589" d="m124 616 2 1v28l16-10c4-4 4-4 6-4l5-11 2 1c-2 11-8 20-17 27-9 6-19 8-29 9v-2l5-5c8-9 9-22 10-34Z"/><path fill="#D0BBC5" d="M332 505h1c-1 29-1 29-9 37-11 7-25 9-37 11l-17 5-5-1a595 595 0 0 1 51-21l6-2 2 1 1-3 7-27Z"/><path fill="#FCE488" d="m595 405 7 9 2 3 1 3 2 3 6 12 2-9v-5c5 5 3 17 3 23 0 11-1 21-3 32h-1v-2c-3-23-9-43-18-65l-1-4Z"/><path fill="#D0BBC4" d="M473 529v3l-4 4-4 4c-4 4-9 5-14 6a63 63 0 0 1-16-2l-9-2-2-7h3c23 2 23 2 44-4l2-2Z"/><path fill="#100E0E" d="M524 750a6477 6477 0 0 0 15 0l2 4c-3 3-11 2-15 3h-2c-31 3-31 3-37 0l1-4c12-4 24-3 36-3Z"/><path fill="#D0BBC5" d="M762 503h1l1 8v2c2 12 0 20-8 29l-3 4-2 2-4 5-2-1 1-4 2-4 1-3 3-11 4-11 6-16Z"/><path fill="#FCE388" d="M360 449c0 4-2 7-4 10-7 15-18 36-13 53 2 5 3 10 8 14v2h-16l2-20 1-3c4-19 9-41 22-56Z"/><path fill="#D1BCC5" d="M592 412c4 6 7 13 7 20l-4 12-3 9-2 5-3 1-1-5 1-13c2-7 3-14 3-22l2-7Z"/><path fill="#FEFEFE" d="M360 548c4 0 6 0 9 2 6 7 11 15 11 25l-2 3h-5l-1-2c-4-11-4-11-11-21l-2-5 1-2Z"/><path fill="#070708" d="m148 677 4 7 5 10 6 13h2l5 7c5 7 10 13 16 18l2 2v2l2 1 7 5 3 2 5 5-4 1-7-5-2-1a497 497 0 0 1-8-7c-15-13-31-37-37-56l1-4Z"/><path fill="#75D4A9" d="m333 564 4 3h4l3 4-1 4-2 8c-4 0-6 0-9-2l-2-2-3-2-3-3c0-6 0-6 2-9l7-1Z"/><path fill="#D0BBC5" d="m624 441 3 3c4 15 2 24-5 38a1505 1505 0 0 0-5 10h-3l1-2a1139 1139 0 0 0 3-12c4-12 5-25 6-37Z"/><path fill="#FCE489" d="m189 948 6 8c5 7 10 12 16 17 2 2 2 2 2 5l-1 3c-4 0-8 0-11-2-6-9-12-20-12-31Z"/><path fill="#174B51" d="m384 948 5 5c0 3 0 3-2 5-10 9-21 17-34 16 1-3 2-3 5-4 11-5 19-12 26-22Z"/><path fill="#75D4A8" d="M622 561c5 2 7 4 10 8v8c-6 0-11-1-16-4-2-3-3-4-2-8 3-3 4-4 8-4Z"/><path fill="#174B51" d="M551 877h6c1 11-2 20-9 29-4 5-8 9-13 12l-2-1 2-1c10-11 15-24 16-39Z"/><path fill="#CFBBC4" d="M365 494v12c-2 7-2 14-3 22l-1 6h-6c0-6 0-11 2-16v-2l8-22Z"/><path fill="#F9E287" d="M569 368c4 1 5 3 7 7l2 3 1 3 2 3c3 6 5 10 5 16l1 3v22h-1v-4c-3-17-7-33-16-48l-1-5Z"/><path fill="#174B51" d="m464 927 5 1v7c-5 9-14 15-23 19l-3-1 2-1c9-7 14-14 19-25Z"/><path fill="#FCE388" d="M520 921c-17 9-32 10-50 4v-1h2c14 0 27 0 41-3h7Z"/><path fill="#FDE48A" d="m613 494 20 1-11 6-2 1-4 2-10 5 7-15Z"/><path fill="#FDE589" d="m384 940 10 5c9 7 17 9 28 11v1c-11 1-21 0-30-7l-3-3-2-1-3-4v-2Z"/><path fill="#D0BBC5" d="M372 533h13c18 0 18 0 25 6h-14l-3-1-7-1v-2l-14-1v-1Z"/><path fill="#FBE388" d="M732 524c-2 7-2 7-5 10h-11a6324 6324 0 0 1-18-2v-1h4c10-1 21-7 30-7Z"/><path fill="#D1BCC6" d="m526 772 1 4c-4 3-7 3-11 3h-6l-1-3 4-2 2-1c4-2 7-2 11-1Z"/><path fill="#08443B" d="m761 484 2 1c-4 23-4 23-9 32l-2 1v-13l2 1 3-8 1-3 3-11Z"/><path fill="#FCFDFC" d="M338 566c3 1 4 2 6 5l-2 5h-5l-2-4c0-3 1-4 3-6Z"/><path fill="#C6B2BB" d="m666 798 2 2-9 2h-3c-4 2-9 2-14 3 1-3 3-3 6-4l2-1h2c5-2 9-3 14-2Z"/><path fill="#005638" d="M410 535h8l3 1v7l-5-3-4-2-2-2v-1Z"/><path fill="#FDE489" d="M604 502h1c0 8 0 8-4 12l-2 1 5-13Z"/><path fill="#C3AFB8" d="m336 533 12 1c-3 3-5 3-9 4l-3-5Z"/><path fill="#FAE187" d="M119 434c3 5 3 9 2 14l-1 3v2h-1v-19Z"/><path fill="#1C1A1B" d="M148 677c3 3 5 8 6 13-3-1-4-2-5-4l-1-2-1-3 1-4Z"/><path fill="#110F0D" d="M337 913v9h-3c0-4 1-6 3-9Z"/><path fill="#FFF" d="m328 607 3 2v3h-5l2-5Z"/></svg>