<svg id="Assets" xmlns="http://www.w3.org/2000/svg" viewBox="0 0 800 800"><defs><style>.cls-1{fill:#589c1b;}.cls-1,.cls-10,.cls-11,.cls-12,.cls-14,.cls-15,.cls-16,.cls-17,.cls-18,.cls-19,.cls-2,.cls-20,.cls-21,.cls-3,.cls-4,.cls-5,.cls-6,.cls-7,.cls-8,.cls-9{fill-rule:evenodd;}.cls-2{fill:#93c236;}.cls-3{fill:#e0f6a5;}.cls-4{fill:#3d7b00;}.cls-5{fill:#e1f7a6;}.cls-6{fill:#2e6703;}.cls-7{fill:#ffd55c;}.cls-8{fill:#9ccb44;}.cls-9{fill:#d5f888;}.cls-10{fill:#cf7232;}.cls-11{fill:#390008;}.cls-12{fill:#770a0b;}.cls-13{fill:#a8170e;}.cls-14{fill:#ff3919;}.cls-15{fill:#ff7862;}.cls-16{fill:#fffff3;}.cls-17{fill:#c62211;}.cls-18{fill:#fffded;}.cls-19{fill:#e4cabb;}.cls-20{fill:#b0db6a;}.cls-21{fill:#3e7701;}</style></defs><g id="Forma_7389_copia" data-name="Forma 7389 copia"><path class="cls-1" d="M622.25,408.29c-10.45-17.9,1.09-46.83-2-69.84-10.9-80.4-76.45-74.48-90.12-67.75s-36.59,25.15-36.59,25.15c-57.56-40.35-129.46-40.35-187,0,0,0-22.92-18.41-36.59-25.15s-79.22-12.65-90.12,67.75c-3.12,23,8.42,51.94-2,69.84C159.2,440.07,108,439.83,108,506.77,108,610,219.12,667.44,298.36,717.7H501.64C580.88,667.44,692.05,610,692.05,506.77,692.05,439.83,640.8,440.07,622.25,408.29Z"/></g><g id="Forma_7396" data-name="Forma 7396"><path class="cls-2" d="M530.1,270.7c-13.67,6.74-36.59,25.15-36.59,25.15-57.56-40.35-129.46-40.35-187,0,0,0-22.92-18.41-36.59-25.15s-79.22-12.65-90.12,67.75c-3.12,23,8.42,51.94-2,69.84C159.2,440.07,108,439.83,108,506.77c0,32.85,11.27,61.06,29.17,85.88-7.44-21.37-12.56-45.09-10.87-67.72,3.12-41.82,42.42-27.39,63.69-21.65s37.13,19,18.3-12.57-40-37-40-37a131.88,131.88,0,0,0,19-32.82C202.56,383,202,325,241.44,307.72,345.2,262.19,361.38,446,361.38,446c35.48-23.7,75.84-2.1,75.84-2.1s3.71-34.1,25.75-76.82c40.54-78.62,139-34.23,139-34.23-.52-26.18-10.1-45.44-21.93-59.3C559.38,263.76,537.38,267.12,530.1,270.7Zm136.2,197c-13.21-12.93-31.89-27.1-42.69-4.89-24.86,51.1,9.31,37.92,31.85,34.22S679.51,480.59,666.3,467.66Z"/></g><g id="Forma_7394" data-name="Forma 7394"><path class="cls-3" d="M179.78,338.45c-1.88,13.83,1.54,29.8,2.3,44.23,3.11-6.35,7.37-17.89,11.93-38.64,8.45-38.48,28.31-76.94,96.48-60.29-6.83-4.9-14.6-10.1-20.59-13.05C256.23,264,190.68,258.05,179.78,338.45ZM530.1,270.7c-9.69,4.78-24,15.41-31.54,21.2,3.26.51,10.4,1.85,12.57,4,0,0,34.28-36.2,84.59-11.57C572,262,539.3,266.17,530.1,270.7ZM178.75,406.38c-.31.65-.64,1.29-1,1.91C159.2,440.07,108,439.83,108,506.77c0,28.65,8.57,53.76,22.63,76.17-9.93-25.91-18.62-59.7-11.79-88,7.57-31.35,24.06-21.7,31.17-20.95s25,2,11.52-9.78c-11.46-10-22.36-10.48-22.36-10.48S182.33,433.7,178.75,406.38ZM317.36,288.81a117.76,117.76,0,0,1,14.2,17.51s40.73-34,129.1-28.56C414,258.44,362.08,262.12,317.36,288.81Z"/></g><g id="Forma_7397" data-name="Forma 7397"><path class="cls-4" d="M622.25,519.16,564,558.46s-26.3,7.75-38.62-4.07-43.34-49-90.8-30.49c-14.72,5.75-37.19,7.51-54.21,2.71-28.91-8.14-52.2,5.84-63,25.75l-12.19,34.56-77.93-19-36.59-48.11s-46-20.93-54.89,24.39c-5.06,25.93,12.56,57.66,33.87,87,38.26,34.12,87.78,61.2,128.76,86.42H501.64c63.3-39,147-82.34,178.07-149.28C673.12,544.48,657.31,509.35,622.25,519.16Z"/></g><g id="Forma_7398" data-name="Forma 7398"><path class="cls-5" d="M450.91,488c-12.11-5.64-29.87-13-47.44-13.48s-36,7.83-52.57,18.13c-11.19,6.94-6.92,7.78.41,4.78s27.73-13.13,53-12.69,38.6,4.27,49,9.5S457.84,491.21,450.91,488Z"/></g><g id="Forma_7390" data-name="Forma 7390"><path class="cls-6" d="M307.17,366.7C241.26,317.42,175.76,423,211,490c27.32,52,105,41.34,105,41.34s22.9-5.53,34.55-41.34C350.53,490,373.07,416,307.17,366.7Z"/></g><g id="Forma_7390_copia_2" data-name="Forma 7390 copia 2"><path class="cls-6" d="M497.2,364.63c-69.5,49.89-45.74,124.86-45.74,124.86,12.3,36.26,36.45,41.85,36.45,41.85s81.95,10.84,110.77-41.85C635.79,421.62,566.71,314.73,497.2,364.63Z"/></g><g id="Forma_7390_copia" data-name="Forma 7390 copia"><path class="cls-7" d="M652.07,523.9c-25.94-21.3-61.22,8.92-92.83,30.49s-52.06,10-68.44-7.45-44.34-16.21-56.24-13.55c-28.08,6.27-32.23,6.27-60.31,0-11.9-2.66-39.86-3.92-56.24,13.55s-36.83,29-68.44,7.45-66.89-51.79-92.83-30.49S155,599.32,198.07,633.67,300,728.34,319.37,752.25c29.67,36.6,137.07,37.74,170.07,0,20.27-23.17,78.23-84.22,121.29-118.58S678,545.2,652.07,523.9Z"/></g><g id="Forma_7413" data-name="Forma 7413"><path class="cls-8" d="M512.48,563.17c-8.14-3.39-15.23-9.35-21.68-16.23-16.38-17.47-44.34-16.21-56.24-13.55-28.08,6.27-32.23,6.27-60.31,0-11.9-2.66-39.86-3.92-56.24,13.55-6.18,6.59-12.94,12.34-20.66,15.79-.14,16.32,8.28,46.42,59.28,81.79l40-6.78,33.88,2,21.69,5.42S514,612.82,512.48,563.17Z"/></g><g id="Forma_7414" data-name="Forma 7414"><path class="cls-9" d="M434.56,533.39c-28.08,6.27-32.23,6.27-60.31,0-11.9-2.66-39.86-3.92-56.24,13.55-2.11,2.25-4.29,4.4-6.55,6.4,11.16-4.55,27.86-10.47,39.07-10.47,18.2,0,45.57,15.29,108.42-4.06a69.81,69.81,0,0,1,14.75-3C459.1,530.36,442.9,531.53,434.56,533.39Z"/></g><g id="Forma_7415_copia" data-name="Forma 7415 copia"><path class="cls-10" d="M652.07,523.9c-15.54-12.76-34.44-7-53.88,4.26l3.06.49c32.07,4.8-15,57.26-20.33,63.69s-4.07,1.36-4.07,1.36c9.39-29.06-1.42-40.07-10.51-44.23l-2.88,2c19.2,6.73,9.95,40.66,5.94,49-4.49,9.34-16.26,16.94-16.26,16.94s1.15-1.76,2.71-12.87c5-24.86-6.33-36-15-40.73-1.17.38-2.32.72-3.45,1,14.8,7,18.5,32.27,9,51.25-10.59,21.06-51.7,44-80.63,29.13-22.1-11.33-48.37-13.65-59.56-14.11l-.07-.12s-1,0-2.71,0-2.71,0-2.71,0l-.08.12c-11.18.46-37.45,2.78-59.55,14.11-28.93,14.84-70-8.07-80.64-29.13-9.71-19.3-5.72-45.14,9.72-51.58-1.12-.32-2.26-.68-3.42-1.09-8.74,4.51-20.93,15.53-15.78,41.15,1.55,11.11,2.71,12.87,2.71,12.87s-11.78-7.6-16.26-16.94c-4.1-8.53-13.71-43.88,7.36-49.41l-3-2.13c-9.3,3.71-21.6,14.35-11.78,44.77,0,0,1.22,5.07-4.06-1.36s-52.4-58.89-20.33-63.69c1.67-.26,3.19-.51,4.61-.77-19.27-11.1-38-16.63-53.4-4-6.66,5.47-10,13.11-10.59,22A37.2,37.2,0,0,1,175,551c15.92,10,21.68,56,88.08,124.68,16.23,16.77,29.26,20.37,50.15,42.68,19.84,21.21,35.51,46.16,86,48.6l.08.19c1.38,0,2.73,0,4.07,0s2.68,0,4.06,0a1.87,1.87,0,0,0,.09-.19c50.45-2.44,66.12-27.39,86-48.6,20.89-22.31,33.92-25.91,50.14-42.68C610.06,607,615.82,561.05,631.74,551a37.26,37.26,0,0,1,31-4.56C662.21,537.32,658.86,529.48,652.07,523.9Z"/></g><g id="Forma_7417_copia" data-name="Forma 7417 copia"><path class="cls-11" d="M610.06,521.19c7.76-1.89,13.06,0,15.88,1.63-2.73,14.89-15.81,46-66.9,105-15.26,14.28-37.92,30.68-64.18,34.29-34.93,4.81-44.93-15.3-90.79-15.58l-.34.36-.34-.36c-45.86.28-55.86,20.39-90.8,15.58-26.25-3.61-48.92-20-64.18-34.29-50.66-58.53-63.95-89.62-66.83-104.65,2.63-1.68,8.14-4,16.49-2,0,0-41.4-20.79-58.95,21,0,0,19.56-24.87,39.43-18.08,8.61,40.63,71.7,118.36,71.7,118.36l.19-.1a166.29,166.29,0,0,0,28.95,28.56c41.22,31.54,54.51,54.55,73.18,71.15s50.82,14.23,50.82,14.23l.34-.29.34.29s32.14,2.37,50.82-14.23,31.95-39.61,73.18-71.15A166.56,166.56,0,0,0,557,642.38l.19.1S620,565.09,628.85,524.39C649,516.71,669,542.2,669,542.2,651.47,500.4,610.06,521.19,610.06,521.19Z"/></g><g id="Forma_7425" data-name="Forma 7425"><path class="cls-12" d="M487.41,677.72c-11.91-20.25-52.85-13.55-52.85-13.55s-25.79,4.3-37.27,1.35c-28-7.18-45-4.35-63.7,10.84s-7.45,34.56-7.45,34.56c6.69,10.94,26.86,29.78,40,35.91s47.26,10.27,71.83,6.1,32.56-19.87,44.72-32.52S499.32,698,487.41,677.72Z"/></g><g id="Forma_7426" data-name="Forma 7426"><path class="cls-13" d="M357.31,685.17c-20.6,13.49-24.1,33.44-2.71,47.43s53.09,16.75,55.56,15.59,13.59-45.64,0-67.76C410.16,680.43,377.91,671.68,357.31,685.17Zm78.6-9.48s7.92,28.31,6.78,42.68,4.06,18.3,4.06,18.3,27.91-8.1,32.53-34.56C485.07,669,435.91,675.69,435.91,675.69Z"/></g><g id="Forma_7427" data-name="Forma 7427"><path class="cls-14" d="M459.63,791.56c-3.87-5-21-29.25-23.72-51.5S438,688.4,423,665.52c-1.54-2.35-10.24-10.56-20.33-2.71,0,0,8.6,23.41,5.42,38.62s-11.44,47.73,12.2,95.55c0,0,5.76,6.8,8.13,0S433.88,780,433.88,780a124.5,124.5,0,0,0,14.23,12.19C455.85,797.8,463.5,796.52,459.63,791.56Z"/></g><g id="Forma_7428" data-name="Forma 7428"><path class="cls-15" d="M427.78,797.65c-1.85-3-5.92-16.61-8.52-25.63-1.65-2.95-2.18-7.67-2.32-8.25,0,0,1,3.49,2.32,8.25,1.23,2.18,3.06,3.39,5.81,1.24,6.47-5.06-4.54-44.14-6.1-50.14s-4.74,2.71-4.74,2.71a120.5,120.5,0,0,1,2-21c2.52-14.18-3.83-21.72-9-25.4,1.41,7.14,2.27,15.36.88,22-3.18,15.22-11.44,47.73,12.2,95.55,0,0,5.09,6,7.67,1.07A3.78,3.78,0,0,0,427.78,797.65Z"/></g><g id="Forma_7429" data-name="Forma 7429"><path class="cls-16" d="M423,761.74c-3.69-12.1-4.72-16.78-5.42-23.72-1-9.65-2.71,4.75-2.71,4.75.84,9.78,1.72,14.44,4.06,21.68S425.09,768.49,423,761.74Z"/></g><g id="Forma_7430" data-name="Forma 7430"><path class="cls-17" d="M435.91,740.06c-2.7-22.25,2.12-51.66-12.87-74.54-1.54-2.35-10.24-10.56-20.33-2.71a118.57,118.57,0,0,1,5.71,24.05c3.79-3.64,11.26-9.66,14.62-4.4,4.6,7.22,5.52,20.41,4.74,34.56-.71,12.9,3.5,50.09,30.72,73C453.19,782.84,438.41,760.59,435.91,740.06Z"/></g><g id="Forma_7419" data-name="Forma 7419"><path class="cls-18" d="M294.29,661.46s.78,21.07,7.46,36.59c5.12,11.9,9.92,4.12,10.84,1.35s2.45-29,6.1-33.2C318.69,666.2,305.63,668,294.29,661.46Z"/></g><g id="Forma_7420" data-name="Forma 7420"><path class="cls-19" d="M294.29,661.46a134.64,134.64,0,0,0,1.52,14.4,45.77,45.77,0,0,0,19.4,3.17c.88-5.87,2-11.14,3.48-12.83C318.69,666.2,305.63,668,294.29,661.46Z"/></g><g id="Forma_7419_copia" data-name="Forma 7419 copia"><path class="cls-18" d="M485.38,666.2c3.65,4.21,5.18,30.43,6.1,33.2s5.72,10.55,10.84-1.35c6.68-15.52,7.45-36.59,7.45-36.59C498.44,668,485.38,666.2,485.38,666.2Z"/></g><g id="Forma_7420_copia" data-name="Forma 7420 copia"><path class="cls-19" d="M485.38,666.2c1.47,1.69,2.59,7,3.47,12.83,7.32.59,14.35-1.26,19.41-3.17a136,136,0,0,0,1.51-14.4C498.44,668,485.38,666.2,485.38,666.2Z"/></g><g id="Forma_7405" data-name="Forma 7405"><path class="cls-20" d="M345.11,577.43c-6.83-16-16.73-15.55-23-12.19s-4.75,11.52-4.75,11.52c13.07-14.33,16.24,15.23,15.59,16.94s-7.46,1.35-7.46,1.35c1.26,6.47,10.47,6.64,13.56,5.42S350.64,590.36,345.11,577.43Z"/></g><g id="Forma_7404" data-name="Forma 7404"><path class="cls-21" d="M328.85,569.3s-16.53.47-10.16,17.62S339,591.66,339,591.66Z"/></g><g id="Forma_7403" data-name="Forma 7403"><path class="cls-11" d="M330.88,568c-11.32-3.42-14.23,10.84-14.23,10.84,1.62-3.54,7.46-4.75,7.46-4.75a17.72,17.72,0,0,0,.68,11.52c2.48,6.56,7.45,5.42,7.45,5.42-3.33,6.08-7.69,2.57-6.78,4.75.51,1.21,6,2.15,12.2-.68S342.21,571.37,330.88,568Z"/></g><g id="Forma_7405_copia" data-name="Forma 7405 copia"><path class="cls-20" d="M490.12,565.24c-6.3-3.36-16.2-3.81-23,12.19-5.52,12.93,3,21.82,6.1,23s12.3,1,13.55-5.42c0,0-6.8.35-7.45-1.35s2.51-31.27,15.58-16.94C494.86,576.76,496.42,568.6,490.12,565.24Z"/></g><g id="Forma_7404_copia" data-name="Forma 7404 copia"><path class="cls-21" d="M483.35,569.3l-10.17,22.36s14,12.41,20.33-4.74S483.35,569.3,483.35,569.3Z"/></g><g id="Forma_7403_copia" data-name="Forma 7403 copia"><path class="cls-11" d="M495.54,578.79s-2.9-14.26-14.23-10.84-13,24.27-6.77,27.1,11.68,1.89,12.19.68c.92-2.18-3.45,1.33-6.77-4.75,0,0,5,1.14,7.45-5.42a17.8,17.8,0,0,0,.68-11.52S493.93,575.25,495.54,578.79Z"/></g></svg>