<svg xmlns="http://www.w3.org/2000/svg" width="100" height="100"><g fill="#fef36c"><path d="M55.4 17.9h.3v.2c.4 1.1.9 2 1.6 2.8 1.4 1.8 2.2 4 2.7 6.2v.3l.2.6h.6l.2-1.6h.4l.4.8.1.2.2.2v.2l.3.4.3.7h.2l1 .4.5.2.2.1.9.4c1.6.7 1.6.7 1.9 1l.5.2.8.4v.2h.3l1 .6.2.1 1.6 1.2.2.2.3.1.2.2.1.1v.2h.2l.5.5.7.7 1 .9.2.2 1 1.1.1.2c.3.4.6.7.7 1.1h.2l.3.5.7 1c.8 1.1 1.4 2.2 2 3.3l.3.8a9.1 9.1 0 0 1 .4 1l.3.8c.5 1 .8 2.1 1.2 3.3l.6 1.9c.3 1 .5 1.8.6 2.8.2 1.1.5 2 1.2 2.9.5.5.7 1.2.9 1.8v.2q.2.2.2.5a14.2 14.2 0 0 0 .2.4c.3 1 .3 1.9.3 2.8v.3c0 2-.4 3.6-1.4 5.4l-.2.3a21 21 0 0 1-3.5 4.1 14.5 14.5 0 0 0-.4.4l-.5.3-.2.3a19.7 19.7 0 0 1-.5.3l-.3.2-.4.2v.2h-.2l-1.2.9c-.6.4-1.2.8-1.8 1a56 56 0 0 0-.6.4l-.4.3h-.2l-1.3.7-.4.1-1.8.7-.9.3-2 .5-1.3.4.9.4v.2h.2l1.3.8.3.2a24 24 0 0 1 4 3.5 14.4 14.4 0 0 0 .5.6l.5.7.8 1 .7 1.1a11 11 0 0 0 .2.5l1 1.9.1.3.7 1.9v.2c.6 2.1.7 4 .7 6.2h-58c0-2 0-2 .2-2.8V97l.5-1.6.1-.4.1-.3.2-.5c.3-1 .8-2 1.3-3.1l.1-.3 1.7-3 .1-.2h.2v-.2l.4-.6h.2v-.2l.4-.7.2-.2.2-.2h.2v-.2l.7-.8.6-.7h.2v-.2l.5-.3.2-.4h.2v-.2l.6-.6.2-.1.2-.2.3-.2.4-.2v-.2l.7-.4c.4-.2.4-.2.6-.5h-.4c-.7-.1-1.3-.4-2-.6l-.3-.1-3.5-1.4-1-.5a32.5 32.5 0 0 1-4.2-2.2 7.3 7.3 0 0 1-1-.5l-.3-.1-.2-.2v-.2h-.2l-1-.7-.1-.1-.4-.4v-.2h-.2a2 2 0 0 1-.6-.6v-.3h-.2l-.6-.7-.2-.2-.1-.4h-.2a279.2 279.2 0 0 1-.4-.8 65.1 65.1 0 0 0-.4-.6 12 12 0 0 1-.3-10.8l.1-.2a194.5 194.5 0 0 1 .6-1.3c.6-1.2 1-2.5 1.2-4l.3-1.3v-.3a10.4 10.4 0 0 1 .4-1.4l.3-.8c.2-.9.5-1.7.9-2.6l.1-.3.8-1.7v-.2l1-1.8.6-.7c.6-1 1.2-2 2-2.8a6.8 6.8 0 0 0 .3-.5h.2v-.2l.4-.5 1.4-1.6 1-.8a4 4 0 0 0 .4-.5c.2-.3.2-.3.5-.4a22.5 22.5 0 0 0 .5-.5 21 21 0 0 1 2.2-1.7 16.7 16.7 0 0 0 .7-.5l1.1-.6 1-.7 1.8-.9.4-.2h.3l.5-.3.2-.1.2-.1.4-.1v-.2c.2-2 1-4 2.3-5.7l.8-1.1.1-.2h.2v1.5l.1.5v-.2c.5-1 1.4-2 2.5-2.5.7-.3 1.5-.3 2.3-.4 4.5-.3 4.5-.3 8.4-2.2l.2-.1.2-.3h.3l.1 2.4a5 5 0 0 0 1.5-2.3v-.2z"/><path d="M35 81c1.9.4 3.7.7 5.7.8l1.3.2c2 .2 4 .2 6 .2h.7l7.8-.3H58l3.7-.4h.3l1.7-.4.8-.2 1-.2c.5-.2 1-.2 1.5.1l.4.3.3.1.5.4v.2h.2l.9.6.3.3.8.7a42.6 42.6 0 0 0 .4.4c1.2 1 2.3 2.1 3.2 3.4l.2.2 1.6 2.5v.2c1.8 3.1 2.3 6.3 2.3 9.8l.3.1H21.2c.1-2.1.1-2.1.4-3v-.4c.8-3 2.2-5.7 3.8-8.3l.2-.3.1-.2h.2v-.2l.8-1.1h.2v-.2c.1-.3.4-.5.6-.7a42.5 42.5 0 0 0 .4-.4c1.2-1.5 2.6-2.9 4.1-4l.3-.2.2-.2.2-.1c.7-.3 1.6.1 2.3.3"/></g><path fill="#fe5f00" d="M55.4 17.9h.3v.2c.4 1.1.9 2 1.6 2.8 1.4 1.8 2.2 4 2.7 6.2v.3l.2.6h.6l.2-1.6h.4l.4.8.1.2.2.2v.2l.3.4.3.7h.2l1 .4.5.2.2.1.9.4c1.6.7 1.6.7 1.9 1l.5.2.8.4v.2h.3l1 .6.2.1 1.6 1.2.2.2.3.1.2.2.1.1v.2h.2l.5.5.7.7 1 .9.2.2 1 1.1.1.2c.3.4.6.7.7 1.1h.2l.3.5.7 1c.8 1.1 1.4 2.2 2 3.3l.3.8a9.1 9.1 0 0 1 .4 1l.3.8c.5 1 .8 2.1 1.2 3.3l.6 1.9c.3 1 .5 1.8.6 2.8.2 1.1.5 2 1.2 2.9.5.5.7 1.2.9 1.8v.2q.2.2.2.5a14.2 14.2 0 0 0 .2.4c.3 1 .3 1.9.3 2.8v.3c0 2-.4 3.6-1.4 5.4l-.2.3a21 21 0 0 1-3.5 4.1 14.5 14.5 0 0 0-.4.4l-.5.3-.2.3a19.7 19.7 0 0 1-.5.3l-.3.2-.4.2v.2h-.2l-1.2.9c-.6.4-1.2.8-1.8 1a56 56 0 0 0-.6.4l-.4.3h-.2l-1.3.7-.4.1-1.8.7-.9.3-2 .5-1.3.4.9.4v.2h.2l1.3.8.3.2a24 24 0 0 1 4 3.5 14.4 14.4 0 0 0 .5.6l.5.7.8 1 .7 1.1a11 11 0 0 0 .2.5l1 1.9.1.3.7 1.9v.2c.6 2 .7 4 .7 6.2l-.8-.1v-.3c0-1.9-.2-3.8-.7-5.6v-.3c-.5-1.4-1-2.6-1.8-3.9l-.2-.4a11.1 11.1 0 0 0-1-1.4l-.4-.7c-.6-.9-1.3-1.6-2.1-2.4l-.2-.2-1.6-1.5-.4-.3a6 6 0 0 0-1.5-1.1v-.2h-.2L67 81c-.5-.3-.8-.4-1.4-.3l-.8.2-1.1.2-.6.2c-2 .7-4.6.6-6.8.8h-.2a122.9 122.9 0 0 1-8 .3h-.7a51.4 51.4 0 0 1-5.9-.4h-1.2c-2-.2-4-.6-5.9-1-1-.3-1-.3-2-.2l-.2.3H32a21.6 21.6 0 0 0-.5.5l-.2.1c-1.3 1.1-2.6 2.4-3.7 3.8l-.5.5-.3.5-.2.2-.7 1-.1.1h-.2v.2l-.6 1.1-.2.2-.4.8-.7 1.3-.2.3a18.8 18.8 0 0 0-2.3 8.2l-.5.1c0-1 0-1.8.2-2.7V97l.5-1.6.1-.4.1-.3.2-.5 1.3-3.1.1-.3 1.7-3 .1-.2h.2v-.2l.4-.6h.2v-.2l.4-.7.2-.2.2-.2h.2v-.2l.7-.8.6-.7h.2v-.2l.5-.3.2-.4h.2v-.2l.6-.6.2-.1.2-.2.3-.2.4-.2v-.2l.7-.4c.4-.2.4-.2.6-.5h-.4c-.7-.1-1.3-.4-2-.6l-.3-.1-3.5-1.4-1-.5a32.5 32.5 0 0 1-4.2-2.2 7.3 7.3 0 0 1-1-.5l-.3-.1-.2-.2v-.2h-.2l-1-.7-.1-.1-.4-.4v-.2h-.2a2 2 0 0 1-.6-.6v-.3h-.2l-.6-.7-.2-.2-.1-.4h-.2a279.2 279.2 0 0 1-.4-.8 65.1 65.1 0 0 0-.4-.6 12 12 0 0 1-.3-10.8l.1-.2a194.5 194.5 0 0 1 .6-1.3c.6-1.2 1-2.5 1.2-4l.3-1.3v-.3a10.4 10.4 0 0 1 .4-1.4l.3-.8c.2-.9.5-1.7.9-2.6l.1-.3.8-1.7v-.2l1-1.8.6-.7c.6-1 1.2-2 2-2.8a6.8 6.8 0 0 0 .3-.5h.2v-.2l.4-.5 1.4-1.6 1-.8a4 4 0 0 0 .4-.5c.2-.3.2-.3.5-.4a22.5 22.5 0 0 0 .5-.5 21 21 0 0 1 2.2-1.7 16.7 16.7 0 0 0 .7-.5l1.1-.6 1-.7 1.8-.9.4-.2h.3l.5-.3.2-.1.2-.1.4-.1v-.2c.2-2 1-4 2.3-5.7l.8-1.1.1-.2h.2v1.5l.1.5v-.2c.5-1 1.4-2 2.5-2.5.7-.3 1.5-.3 2.3-.4 4.5-.3 4.5-.3 8.4-2.2l.2-.1.2-.3h.3l.1 2.4a5 5 0 0 0 1.5-2.3v-.2zm7.8 12v.2l.2.6a44.9 44.9 0 0 0 .2.8c.7 2.7 1 6.1-.5 8.6-.3.6-.8 1-1.2 1.5.4.2 1 0 1.4-.1h.4c1.1-.3 1.7-.8 2.4-1.8l.1-.4.2.1-.1.6a59.9 59.9 0 0 0-.1.5c-.4 1.4-.7 2.4-2 3.2l-1.5.8c-.7.4-1.1.8-1.6 1.5-1.4 2.1-4.3 3.2-6.7 4l-1.3.5c-.8.3-1.6.3-2.5.3h-.4c-2.3 0-2.3 0-2.9-.6l-.6.1a8 8 0 0 1-4.3-.3h-.2c-1.2-.5-2.8-1.2-3.5-2.3l-.3-.1c-1-.4-1.8-1-2.3-2l-1-3-.2-.7-.2-.5v-.2c-.2-.4-.2-.7-.2-1.1.4.2.7.5 1 .9a15 15 0 0 0 1.5 1.3l.4.3a216.7 216.7 0 0 0 .8.6l.2.1.2.2.2.2.4.1A18.7 18.7 0 0 1 36 33.2v-.4l.1-2.4c-.4 0-.7.2-1 .4l-1 .5a16.8 16.8 0 0 0-2 1l-.9.6-.7.5a60.8 60.8 0 0 1-.6.4l-1.7 1.3-.8.7-1.4 1.3-.2.2a27 27 0 0 0-2 2.4 11.8 11.8 0 0 1-1 1 16.5 16.5 0 0 0-.4.6l-.2.3-.2.4-.3.1-.3.4-.4.8-.1.4h-.2l-.4.7a93.4 93.4 0 0 1-.3.6 29.6 29.6 0 0 0-1.5 3.2l-.4.8c-.5 1.2-.6 2.3-.7 3.5a9.1 9.1 0 0 1-1 3.6l-.1.3-.7 1.1a5 5 0 0 0-.4.9 13 13 0 0 1-.2.5c-.7 1.6-1 3-1 4.9v.2c0 2.5 1.1 4.6 2.3 6.7h.2v.2l.6.9.3.2.2.3.2.3.6.6.6.6a24.7 24.7 0 0 0 10.2 5.1c1.6.6 3.3 1 5 1.4l.5.1 1 .2.6.2 2.7.4h.2l1.5.2h.6c6.4.7 13.3.5 19.7-.2h.2l2.3-.5a26 26 0 0 1 .6-.1l2.2-.5a38.2 38.2 0 0 1 1.6-.3l.9-.4h.4l1.4-.5.5-.2.2-.1a26.2 26.2 0 0 1 .6-.3c.4 0 .8-.3 1.1-.4l.4-.2.2-.1.7-.3 2.2-1.2.3-.2 2.3-1.6a40.2 40.2 0 0 1 .5-.3l.2-.1.1-.2.7-.6.4-.4c1.7-1.7 3.5-3.7 4.2-6.2v-.3c.7-2.6.4-5.3-.7-7.6l-.1-.2c-.2-.5-.4-.8-.8-1.1-.4-.4-.5-.8-.7-1.4v-.3a37.8 37.8 0 0 1-.7-3.8l-.5-2.3a31.1 31.1 0 0 1-.2-.5l-.7-1.9-.3-.6v-.3a31.8 31.8 0 0 1-.4-.8c-.4-1-1-2.1-1.6-3.1l-.2-.3-1.3-1.9-.1-.2c-1.5-2-1.5-2-3.2-3.6l-.7-.7a26.3 26.3 0 0 0-4.2-3l-.3-.2a75.5 75.5 0 0 0-.5-.3l-.5-.3c-1.3-.8-2.8-1.6-4.3-1.9"/><path fill="#fe9c00" d="m50.2 23.8.2.1v.4c0 1 0 1.8.6 2.7 1 1.6 1.2 2.9 1.2 4.7.7-1.2 1.3-2.3 1.7-3.6l.3.1v.2c0 1.6.6 3 1 4.4l.2.3v.2c.5 1.4.1 2.8-.2 4.2l.3-.3 1.7-1.6.9-.9a3.5 3.5 0 0 1 .7-.5c.2.2.1.3.1.6v2.4a8 8 0 0 1-1.7 5.5c-1 1.5-2.2 3.4-2.2 5.3l.2-.1a181.3 181.3 0 0 1 .8-.5l.3-.2.2-.1.3-.2.6-.1-.5.8-.1.2-.2.2-.2.3a90.9 90.9 0 0 1-.4.6l-.1.2a1 1 0 0 1-.6.4h-.2l-.2.1-.5.2H54l-1.1.4c-.6.2-1 .2-1.6.2h-1.9a8.6 8.6 0 0 1-1-.1 220.7 220.7 0 0 1-.3-1.2v-.3l-.2-.3V47.6c.6 0 1 .2 1.5.5a6 6 0 0 0-2.3-3.6 132.9 132.9 0 0 0-.5-.4 6 6 0 0 1-2.5-4c0-1.1 0-2.1.2-3.2s.2-2.3.2-3.5l.9.7.2.2.2.2.2.2v-.2c-.6-1.6-.5-3.3.3-4.9.4-.8 1-1.5 1.6-2.1 1-1.1 1.8-2.3 2.2-3.7"/><path fill="#010100" d="M55.4 17.9h.3v.2c.4 1.1.9 2 1.6 2.8 1.4 1.8 2.2 4 2.7 6.2v.3l.2.6h.6l.2-1.6h.4l.4.8.1.2.2.2v.2l.3.4.3.7h.2l1 .4.5.2.2.1.9.4c1.6.7 1.6.7 1.9 1l.5.2.8.4v.2h.3l1 .6.2.1 1.6 1.2.2.2.3.1.2.2.1.1v.2h.2l.5.5.7.7 1 .9.2.2 1 1.1.1.2c.3.4.6.7.7 1.1h.2l.3.5.7 1c.8 1.1 1.4 2.2 2 3.3l.3.8a9.1 9.1 0 0 1 .4 1l.3.8c.5 1 .8 2.1 1.2 3.3l.6 1.9c.3 1 .5 1.8.6 2.8.2 1.1.5 2 1.2 2.9.5.5.7 1.2.9 1.8v.2q.2.2.2.5a14.2 14.2 0 0 0 .2.4c.3 1 .3 1.9.3 2.8v.3c0 2-.4 3.6-1.4 5.4l-.2.3a21 21 0 0 1-3.5 4.1 14.5 14.5 0 0 0-.4.4l-.5.3-.2.3a19.7 19.7 0 0 1-.5.3l-.3.2-.4.2v.2h-.2l-1.2.9c-.6.4-1.2.8-1.8 1a56 56 0 0 0-.6.4l-.4.3h-.2l-1.3.7-.4.1-1.8.7-.9.3-2 .5-1.3.4.9.4v.2h.2l1.3.8.3.2a24 24 0 0 1 4 3.5 14.4 14.4 0 0 0 .5.6l.5.7.8 1 .7 1.1a11 11 0 0 0 .2.5l1 1.9.1.3.7 1.9v.2c.6 2 .7 4 .7 6.2l-.8-.1v-.3c0-1.9-.2-3.8-.7-5.6v-.3c-.5-1.4-1-2.6-1.8-3.9l-.2-.4a11.1 11.1 0 0 0-1-1.4l-.4-.7c-.6-.9-1.3-1.6-2.1-2.4l-.2-.2-1.6-1.5-.4-.3a6 6 0 0 0-1.5-1.1v-.2h-.2L67 81c-.5-.3-.8-.4-1.4-.3l-.8.2-1.1.2-.6.2c-2 .7-4.6.6-6.8.8h-.2a122.9 122.9 0 0 1-8 .3h-.7a51.4 51.4 0 0 1-5.9-.4h-1.2c-2-.2-4-.6-5.9-1-1-.3-1-.3-2-.2l-.2.3H32a21.6 21.6 0 0 0-.5.5l-.2.1c-1.3 1.1-2.6 2.4-3.7 3.8l-.5.5-.3.5-.2.2-.7 1-.1.1h-.2v.2l-.6 1.1-.2.2-.4.8-.7 1.3-.2.3a18.8 18.8 0 0 0-2.3 8.2l-.5.1c0-1 0-1.8.2-2.7V97l.5-1.6.1-.4.1-.3.2-.5 1.3-3.1.1-.3 1.7-3 .1-.2h.2v-.2l.4-.6h.2v-.2l.4-.7.2-.2.2-.2h.2v-.2l.7-.8.6-.7h.2v-.2l.5-.3.2-.4h.2v-.2l.6-.6.2-.1.2-.2.3-.2.4-.2v-.2l.7-.4c.4-.2.4-.2.6-.5h-.4c-.7-.1-1.3-.4-2-.6l-.3-.1-3.5-1.4-1-.5a32.5 32.5 0 0 1-4.2-2.2 7.3 7.3 0 0 1-1-.5l-.3-.1-.2-.2v-.2h-.2l-1-.7-.1-.1-.4-.4v-.2h-.2a2 2 0 0 1-.6-.6v-.3h-.2l-.6-.7-.2-.2-.1-.4h-.2a279.2 279.2 0 0 1-.4-.8 65.1 65.1 0 0 0-.4-.6 12 12 0 0 1-.3-10.8l.1-.2a194.5 194.5 0 0 1 .6-1.3c.6-1.2 1-2.5 1.2-4l.3-1.3v-.3a10.4 10.4 0 0 1 .4-1.4l.3-.8c.2-.9.5-1.7.9-2.6l.1-.3.8-1.7v-.2l1-1.8.6-.7c.6-1 1.2-2 2-2.8a6.8 6.8 0 0 0 .3-.5h.2v-.2l.4-.5 1.4-1.6 1-.8a4 4 0 0 0 .4-.5c.2-.3.2-.3.5-.4a22.5 22.5 0 0 0 .5-.5 21 21 0 0 1 2.2-1.7 16.7 16.7 0 0 0 .7-.5l1.1-.6 1-.7 1.8-.9.4-.2h.3l.5-.3.2-.1.2-.1.4-.1v-.2c.2-2 1-4 2.3-5.7l.8-1.1.1-.2h.2v1.5l.1.5v-.2c.5-1 1.4-2 2.5-2.5.7-.3 1.5-.3 2.3-.4 4.5-.3 4.5-.3 8.4-2.2l.2-.1.2-.3h.3l.1 2.4a5 5 0 0 0 1.5-2.3v-.2zm-2.5 1.4a6 6 0 0 1-2.7 1.2h-.3c-2 .5-4 .8-6 .8-1.4 0-2.3.4-3.3 1.5a3 3 0 0 0-.7 2l-.2.5h-.2c-.3-.9-.2-1.9-.1-2.8-2.2 2.7-3 5.9-3 9.3v1.4c0 1.2.2 2.3.4 3.5v.2c.5 2 1.2 3.9 2.1 5.7l.1.2 1.1 1.8c-.4 0-.7-.2-1-.4l-.3-.2-.3-.2-.3-.2c-1.8-1.2-1.8-1.2-2.4-1.8l-.3-.1v-.2l-.2.1.4 1.3.2.5a6.7 6.7 0 0 0 2.4 3.6h.2v.2c.2.4.4.4.7.6l.5.3c1.4 1 3.3 2 5 2h1.1l2.4-.2-.4.3a17 17 0 0 0 2.8.2h.4a8 8 0 0 0 2.7-.4l.3-.1.5-.2a15.6 15.6 0 0 1 .7-.2c2.3-.8 5-2 6.1-4.3l.1-.3.8-.6h.2a27.5 27.5 0 0 1 1-.6c1.2-.6 1.8-1.1 2.2-2.4l.1-.3h-.2l-.2.2-.2.1c-.7.3-1.3.4-2 .4a4 4 0 0 0-2.2.7l-.2.2-.2.1c.2-.7.7-1.3 1.2-1.9 1.7-2 1.8-4.5 1.7-7-.2-1.8-.6-3.4-1.3-5a53.5 53.5 0 0 1-.2-.4v-.2a73.1 73.1 0 0 1-.2-.4c-.1-.4-.1-.4-.4-.6v.3c-.3 1.2-.6 2.2-1.5 3l-.3-.1v-.2c0-1.5-.2-3-.7-4.4v-.2a20.4 20.4 0 0 0-2.4-4.8 14 14 0 0 1-.9-1.7 306.2 306.2 0 0 0-.4.6l-1.4 1.8-.4.5H53l.1-2v-.3l.2-.7c-.2 0-.3.2-.4.3M63.2 30v.2l.2.6a44.9 44.9 0 0 0 .2.8c.7 2.7 1 6.1-.5 8.6-.3.6-.8 1-1.2 1.5.4.2 1 0 1.4-.1h.4c1.1-.3 1.7-.8 2.4-1.8l.1-.4.2.1-.1.6a59.9 59.9 0 0 0-.1.5c-.4 1.4-.7 2.4-2 3.2l-1.5.8c-.7.4-1.1.8-1.6 1.5-1.4 2.1-4.3 3.2-6.7 4l-1.3.5c-.8.3-1.6.3-2.5.3h-.4c-2.3 0-2.3 0-2.9-.6l-.6.1a8 8 0 0 1-4.3-.3h-.2c-1.2-.5-2.8-1.2-3.5-2.3l-.3-.1c-1-.4-1.8-1-2.3-2l-1-3-.2-.7-.2-.5v-.2c-.2-.4-.2-.7-.2-1.1.4.2.7.5 1 .9a15 15 0 0 0 1.5 1.3l.4.3a216.7 216.7 0 0 0 .8.6l.2.1.2.2.2.2.4.1A18.7 18.7 0 0 1 36 33.2v-.4l.1-2.4c-.4 0-.7.2-1 .4l-1 .5a16.8 16.8 0 0 0-2 1l-.9.6-.7.5a60.8 60.8 0 0 1-.6.4l-1.7 1.3-.8.7-1.4 1.3-.2.2a27 27 0 0 0-2 2.4 11.8 11.8 0 0 1-1 1 16.5 16.5 0 0 0-.4.6l-.2.3-.2.4-.3.1-.3.4-.4.8-.1.4h-.2l-.4.7a93.4 93.4 0 0 1-.3.6 29.6 29.6 0 0 0-1.5 3.2l-.4.8c-.5 1.2-.6 2.3-.7 3.5a9.1 9.1 0 0 1-1 3.6l-.1.3-.7 1.1a5 5 0 0 0-.4.9 13 13 0 0 1-.2.5c-.7 1.6-1 3-1 4.9v.2c0 2.5 1.1 4.6 2.3 6.7h.2v.2l.6.9.3.2.2.3.2.3.6.6.6.6a24.7 24.7 0 0 0 10.2 5.1c1.6.6 3.3 1 5 1.4l.5.1 1 .2.6.2 2.7.4h.2l1.5.2h.6c6.4.7 13.3.5 19.7-.2h.2l2.3-.5a26 26 0 0 1 .6-.1l2.2-.5a38.2 38.2 0 0 1 1.6-.3l.9-.4h.4l1.4-.5.5-.2.2-.1a26.2 26.2 0 0 1 .6-.3c.4 0 .8-.3 1.1-.4l.4-.2.2-.1.7-.3 2.2-1.2.3-.2 2.3-1.6a40.2 40.2 0 0 1 .5-.3l.2-.1.1-.2.7-.6.4-.4c1.7-1.7 3.5-3.7 4.2-6.2v-.3c.7-2.6.4-5.3-.7-7.6l-.1-.2c-.2-.5-.4-.8-.8-1.1-.4-.4-.5-.8-.7-1.4v-.3a37.8 37.8 0 0 1-.7-3.8l-.5-2.3a31.1 31.1 0 0 1-.2-.5l-.7-1.9-.3-.6v-.3a31.8 31.8 0 0 1-.4-.8c-.4-1-1-2.1-1.6-3.1l-.2-.3-1.3-1.9-.1-.2c-1.5-2-1.5-2-3.2-3.6l-.7-.7a26.3 26.3 0 0 0-4.2-3l-.3-.2a75.5 75.5 0 0 0-.5-.3l-.5-.3c-1.3-.8-2.8-1.6-4.3-1.9"/><path fill="#fe2600" d="M46.8 21.6a8.4 8.4 0 0 1-.8.5l-1.5 1-.3.2c-1 1-1.7 2.7-1.7 4.1l.1 1.1.1 2-.2.1-.5-1.8-.1.7c-.2.8-.4 1.5-.8 2.2A15 15 0 0 0 40 36v.4c-.3 2 .3 3.8 1.6 5.5l1.6 1.7c1 1 1.9 2 2.4 3.3l-1.2-.7c-.5-.3-1-.4-1.6-.4h-1l-.9.1h-.6v.2h.4a4 4 0 0 1 2.5 1.4c.5.7.9 1.5 1.2 2.3-.9-.1-1.7-.5-2.5-.9l-.3-.1c-1.7-1-3.8-2.4-4.5-4.3a5 5 0 0 1-.3-1.5c.7.2 1.2.5 1.8.9l.4.2.2.2 1 .4-.1-.2A22.2 22.2 0 0 1 36.8 28a14 14 0 0 1 2.5-5.4v.9a14.1 14.1 0 0 0 0 .6v.4c0 .3 0 .6.2.9l.3-.1.2-.9c0-.7.2-1 .7-1.6l.2-.2c.6-.8 1.6-.8 2.6-.9h3.3"/><path fill="#030201" d="M39 22.8c0 .4-.2.7-.5 1-1.5 2.4-2 5.2-2 8v1.4c0 1.2.2 2.3.4 3.5v.2c.6 2.8 1.8 5.5 3.3 7.8-.4 0-.7-.2-1.1-.4l-.3-.2-.3-.2-.3-.2-2.2-1.6-.5-.4.5 1.8.1.3c.4 1 .8 2 1.7 2.6l.9.9v.2h.2l.6.4c1.5 1 3.4 2 5.3 2h1l2.5-.1-.3.3c.9.2 1.7.2 2.6.2h.4a8 8 0 0 0 2.7-.4h.3l.5-.3a15.6 15.6 0 0 1 .7-.2 15 15 0 0 0 4.5-2.4l.3-.2c.5-.4.8-.8 1-1.4.5-.7.9-1 1.6-1.4l.7-.4.5-.2a3 3 0 0 0 1.6-1.7l.1-.4.1-.2-.1.1c-1.1.7-2.4.6-3.6.7l.4-.4h.7l.7-.2a3 3 0 0 0 2.1-1.3l.4-.7.3.1-.1.6a59.9 59.9 0 0 0-.1.5c-.5 2.3-.5 2.3-1.4 3l-2.2 1.1c-.7.4-1.1.8-1.5 1.4-1.4 2.3-4.4 3.3-6.8 4.1l-1.3.5c-.8.3-1.6.3-2.5.3h-.4c-2 0-2 0-2.6-.5h-1c-1.3.3-3 .2-4.2-.3h-.2c-1-.5-3-1.2-3.5-2.3l-.3-.1c-1.3-.5-2-1.4-2.6-2.5a10 10 0 0 1-.4-1.3l-.1-.3-.2-.6a117 117 0 0 0-.3-.9l-.1-.5-.1-.3c-.2-.8-.2-.8-.1-1.2.5.1.7.4 1 .7.5.6 1.1 1 1.7 1.5l.2.2a333.1 333.1 0 0 0 .8.6l.2.1.2.2.2.2.4.2-.2-.2c-2-3.2-3.1-6.7-3.1-10.4v-.4c0-1.8 0-1.8.2-2.4l-.4.2-1 .4-2.6 1.4-.9.6-.7.5a60.8 60.8 0 0 1-.6.4l-1.8 1.5-.7.5c-1.2 1-2.2 2-3.1 3.2l-.2.2a100 100 0 0 0-.3.4l-.8.9-.6.8-.6.7-.2.4-.2.3-.1.2a60.6 60.6 0 0 1-.2.4l-.2.3h-.2v.2l-.4.8c-.7 1.1-1.2 2.3-1.7 3.5a43.3 43.3 0 0 1-.2.5c-.6 1.3-.8 2.4-1 3.8a9.1 9.1 0 0 1-.9 3.6l-.1.3-.7 1.1a5 5 0 0 0-.4.9 13 13 0 0 1-.2.5c-.7 1.6-1 3-1 4.9v.2c0 2.1.8 4 1.8 5.8l.2.3.1.2.1.4h.2a13.7 13.7 0 0 1 .5.7 8 8 0 0 0 1.4 1.7 9.3 9.3 0 0 1 .6.6 24.7 24.7 0 0 0 10.2 5.1l2.8.9h.2l.5.2c.3 0 .6.1.9.4l-.3.2c-.8.5-1.6 1-2.3 1.7l-.6.4-1.2 1.2-.2.2-1.3 1.5-.5.5-.3.5-.2.2-.7 1-.1.1h-.2v.2l-.6 1.1-.2.2-.4.8-.7 1.3-.2.3a18.8 18.8 0 0 0-2.3 8.2l-.5.1c0-1 0-1.8.2-2.8V97l.5-1.6.1-.4.1-.3.2-.5c.3-1 .8-2 1.3-3.1l.1-.3 1.7-3 .1-.2h.2v-.2l.4-.6h.2v-.2l.4-.7.2-.2.2-.2h.2v-.2l.7-.8.6-.7h.2v-.2l.5-.3.2-.4h.2v-.2l.6-.6.2-.1.2-.2.3-.2.4-.2v-.2l.7-.4c.4-.2.4-.2.6-.5h-.4c-.7-.1-1.3-.4-2-.6l-.3-.1-3.5-1.4a24.8 24.8 0 0 0-1-.5 32.5 32.5 0 0 1-4.2-2.2 7.3 7.3 0 0 1-1-.5l-.3-.1-.2-.2v-.2h-.2l-1-.7-.1-.1-.4-.4v-.2h-.2a2 2 0 0 1-.6-.6v-.3h-.2l-.6-.7-.2-.2-.1-.4h-.2a279.2 279.2 0 0 1-.4-.8 65.1 65.1 0 0 0-.4-.6 12 12 0 0 1-.3-10.8l.1-.2a194.5 194.5 0 0 1 .6-1.3c.6-1.2 1-2.5 1.2-4a27.2 27.2 0 0 1 .3-1.3v-.3a10.4 10.4 0 0 1 .4-1.4l.3-.8c.2-.9.5-1.7.9-2.6l.1-.3a38.9 38.9 0 0 1 .8-1.7v-.2l1-1.8.6-.7c.6-1 1.2-2 2-2.8a6.8 6.8 0 0 0 .3-.5h.2v-.2l.4-.5 1.4-1.6 1-.8a4 4 0 0 0 .4-.5c.2-.3.2-.3.5-.4a22.5 22.5 0 0 0 .5-.5 21 21 0 0 1 2.2-1.7 16.7 16.7 0 0 0 .7-.5l1.1-.6 1-.7 1.8-.9.4-.2h.3l.5-.3.2-.1.2-.1.4-.1v-.2c0-.6.2-1.2.4-1.8v-.3a9 9 0 0 1 2.3-4"/><path fill="#916015" d="M37.3 53.8c.4.4.6.8.9 1.3l.1.2c.9 1.5.9 4 .4 5.7-.4 1.5-1.2 3-2.6 3.8-.6.3-1.2.4-1.9.2-1.2-.5-1.8-1.4-2.3-2.6-.8-2.2-.7-4.5.3-6.7.5-1 1.1-2 2.3-2.5 1-.3 2 0 2.8.6m27.9.1a6 6 0 0 1 .8.7l.2.2A7.6 7.6 0 0 1 68 60c0 1.3-.4 2.7-1.3 3.7-.6.5-1.2.9-2 .8-1.1-.1-2-.8-2.7-1.7a8 8 0 0 1-1.5-6c.3-1 .8-2.3 1.6-2.9h.2l.3-.2c.8-.4 1.8-.3 2.6.2"/><path fill="#fe2600" d="m55.5 20.5 1.1 1.2.2.2a52.3 52.3 0 0 1 .3.3 15.1 15.1 0 0 0 .3.4l.7 1.4.1.3c.9 2 1.2 4 1.3 6.1l.3.1c1-.9 1.3-2 1.5-3.3.4.2.6 1 .7 1.3l.2.4a18.3 18.3 0 0 1 .9 3v.3a12 12 0 0 1-.6 7.5l-.8 1-.3.4-.1.1a5.3 5.3 0 0 0-.9 1.5l1-.6c.5-.3 1.2-.3 1.9-.4a5 5 0 0 0 2-.5l.4-.2a31.3 31.3 0 0 1-.2.6l-.1.3c-.4 1-1.2 1.4-2 1.8-1.4.6-1.4.6-2.2 1.7a6.2 6.2 0 0 1-2.5 2.4l-.3.2-.2.1-.2-.1.1-.1c1-.9 1.7-1.7 2.4-2.8l.1-.2 1.1-1.8-.9.3-.2.1c-.6.2-1.3.5-1.6 1.2l-.2.3h-.3c.2-1.2.8-2.2 1.6-3.1 1.7-2.3 2.1-5.2 2.1-8v-.2c0-1.5-.2-3-.5-4.5l-.3.5-1 1.3a24 24 0 0 0-1.8 2.2l-.4-.2v-.3c.5-3.5-.2-6.2-1.7-9.3-1-2.3-1-2.3-1-2.9"/><path fill="#fc7b00" d="M54.2 71.5c.4.3.6.5.6 1 0 1-.2 1.7-.8 2.5l-.2.7c-.2.8-1 1.5-1.7 2l-.3.3c-.4.2-.9.2-1.4.1a6 6 0 0 1-1.3-1l-.2-.3c-.5-.5-.8-1-.9-1.6a5 5 0 0 0-.6-1.6 2 2 0 0 1-.3-1.3c.3-.5.7-.7 1.3-.9 1.8-.5 4-.7 5.8.1"/><path fill="#292711" d="M75.3 76.8v.2a171.7 171.7 0 0 1-1.4.7l-.4.2c-2.2 1.1-4.6 2-7 2.4l.8.4.3.1.2.1v.2h.2l1.3.8.3.2a24 24 0 0 1 4 3.5 14.4 14.4 0 0 0 .5.6l.5.7.8 1 .7 1.1a11 11 0 0 0 .2.5l1 1.9.1.3.7 1.9v.2c.6 2 .7 4 .7 6.2l-.8-.1v-.3c0-1.9-.2-3.8-.7-5.6v-.3a19 19 0 0 0-1.8-3.9l-.2-.4a11.1 11.1 0 0 0-1-1.4l-.4-.7c-.6-.9-1.3-1.6-2.1-2.4l-.2-.2-1.6-1.5-.4-.3a6 6 0 0 0-1.5-1.1v-.2h-.2L67 81c-.5-.3-.8-.4-1.4-.3l-.8.2-1.1.2-.6.2c-2 .7-4.6.6-6.8.8h-.2a122.9 122.9 0 0 1-8 .3h-.7a51.4 51.4 0 0 1-5.9-.4h-1.2c-2.5-.2-5-.7-7.3-1.4l.4-.3-.1-.2c.6 0 1.1.2 1.7.3l.6.1.6.2 2.7.4h.2l1.5.2h.6c6.4.7 13.3.5 19.7-.2h.2l2.3-.5a26 26 0 0 1 .6-.1l2.2-.5a38.2 38.2 0 0 1 1.6-.3l.9-.4h.4l1.4-.5.5-.2.2-.1a26.2 26.2 0 0 1 .6-.2l1.1-.5.4-.2.2-.1 1-.5.7-.2"/><path fill="#030301" d="M67 80.7c.6 0 .6 0 .8.2v.2h.2l1.3.8.3.2a24 24 0 0 1 4 3.5 14.4 14.4 0 0 0 .5.6l.5.7.8 1 .7 1.1a11 11 0 0 0 .2.5l1 1.9.1.3.7 1.9v.2c.6 2 .7 4 .7 6.2l-.8-.1v-.3c0-1.9-.2-3.8-.7-5.6v-.3a19 19 0 0 0-1.8-3.9l-.2-.4a11.1 11.1 0 0 0-1-1.4l-.4-.7c-.6-.9-1.3-1.6-2.1-2.4l-.2-.2-1.6-1.5-.5-.5C69 82 68 81.4 67.2 81l-.2-.1z"/><path fill="#fba31d" d="M38.6 58.7c0 1.8-.5 3.7-1.7 5-.7.6-1.3.9-2.2.9-.8-.2-1.4-.9-1.9-1.5a7.6 7.6 0 0 1-.9-4c.9.2.9.2 1.2.6l.2.2.2 1.1c.2.6.4 1 .9 1.4.4.2.8.3 1.3.2.7-.2 1.2-.6 1.6-1.3.2-.3.2-.3.2-.7l-.3-.6a1 1 0 0 1-.1-.8c.4-.4 1-.5 1.5-.5m28.5-.1v.2h.3c.4.8 0 2.3-.2 3.1-.3.8-.9 1.6-1.7 2-.7.1-1.2 0-1.8-.3-1.3-.7-2-1.8-2.4-3.1v-.7h1l.4.7c.3.6.8 1 1.4 1.3.6 0 1 0 1.5-.5a2.6 2.6 0 0 0 .5-.7 9.8 9.8 0 0 0-.1-.5 12.1 12.1 0 0 1 0-.6v-.3c0-.3 0-.5.2-.7.3-.2.6 0 .9.1"/><path fill="#030200" d="M54.2 71.5c.4.3.6.5.6 1 0 1-.2 1.7-.8 2.5l-.2.7c-.2.8-1 1.5-1.7 2l-.3.3c-.4.2-.9.2-1.4.1a6 6 0 0 1-1.3-1l-.2-.3c-.5-.5-.8-1-.9-1.6a5 5 0 0 0-.6-1.6 2 2 0 0 1-.3-1.3c.3-.5.7-.7 1.3-.9 1.8-.5 4-.7 5.8.1m-4.2.1a4 4 0 0 0-2.3.6c-.2 1.3.7 2.4 1.4 3.3.5.6 1.2 1.3 2 1.7.4 0 .5 0 .7-.4l.2-.1.3-.4 1-1.3.1-.2c.8-1.1.8-1.1 1-2.4-1.3-.8-3-.8-4.4-.8"/><path fill="#020200" d="M37.3 53.8c.4.4.6.8.9 1.3l.1.2c.9 1.5.9 4 .4 5.7-.4 1.5-1.2 3-2.6 3.8-.6.3-1.2.4-1.9.2-1.2-.5-1.8-1.4-2.3-2.6-.8-2.2-.7-4.5.3-6.7.5-1 1.1-2 2.3-2.5 1-.3 2 0 2.8.6M33 55.3C31.8 57 31.7 59 32 61a5 5 0 0 0 2 3.3c.5.3 1 .3 1.5.2 1-.3 1.6-1 2.1-1.9 1-1.9 1.3-4.1.7-6.2-.3-1-.8-1.8-1.7-2.3-1.5-.7-2.7 0-3.6 1.2m32.2-1.4a6 6 0 0 1 .8.7l.2.2A7.6 7.6 0 0 1 68 60c0 1.3-.4 2.7-1.3 3.7-.6.5-1.2.9-2 .8-1.1-.1-2-.8-2.7-1.7a8 8 0 0 1-1.5-6c.3-1 .8-2.3 1.6-2.9h.2l.3-.2c.8-.4 1.8-.3 2.6.2m-3.7 1.4c-.9 1.5-.7 3.3-.3 4.9a5.8 5.8 0 0 0 2.4 3.4c.6.3 1.2.4 2 .2.8-.3 1.3-1 1.6-2 .6-1.6.4-3.5-.3-5.1h-.2v-.2c-.2-.9-.8-1.6-1.5-2-1.4-.8-2.7-.4-3.7.8"/><path fill="#ff9e00" d="M53.6 72.5a1 1 0 0 1 .3.3c0 .7-.4 1.3-.7 1.9l-.1.2c-.2.5-.5.8-.8 1.2l-.2.3a1.4 1.4 0 0 1-.5.5h-.3c-.3-1-.4-2-.5-2.9v-.2c-.2-1.2-.2-1.2.1-1.6.8-.5 2 0 2.7.3"/><path fill="#fefefe" d="M37 55.1c.7.7 1 1.5.9 2.5 0 .3-.1.6-.4.8-.3.1-.5 0-.8 0l-.4-.5c-.4-.5-.7-.7-1.3-.8-.4-.1-.6-.2-.9-.6-.1-.4-.2-.8-.1-1.2.3-.4.5-.5 1-.6.8-.2 1.4-.1 2 .4m28.2 0c.8.3 1.3.8 1.6 1.6l-.1 1.2c-.3.2-.5.1-.8.1a8 8 0 0 1-.7-.3 15.7 15.7 0 0 0-1.8-.8c-.3-.1-.5-.2-.7-.5-.1-.4 0-.7.1-1 .6-.8 1.6-.8 2.4-.4"/><path fill="#fdb400" d="M39.3 22.5V24.4a6.4 6.4 0 0 0 .1.9l-.4-.2a20 20 0 0 0-2.3 9v1.6h-.1l-.2-1.7v-.3c-.2-4 .5-7.8 2.9-11.2"/><path fill="#252310" d="m63.1 29.6 2.6 1 .4.3a199.5 199.5 0 0 1 1.3.6h.2l.5.3.3.2c.2 0 .3.2.5.4l.4.2.2.2.2.1a28.6 28.6 0 0 1 2.4 1.6l.2.1 2.3 2 .3.2 1.8 2.2.2.2c1.5 2 2.7 4.3 3.6 6.8l.1.2c.2.6.2.6.1.9a618.1 618.1 0 0 1-.4-.9 32 32 0 0 1-.3-.8c-.4-1-1-2.1-1.6-3.1l-.2-.3-1.3-1.9-.1-.2c-1.4-1.9-1.4-1.9-3-3.5l-.8-.7a26.3 26.3 0 0 0-4.2-3l-.3-.2a75.5 75.5 0 0 0-.5-.3l-.5-.3c-1.2-.7-2.6-1.3-3.9-1.8l-.5-.2z"/><path fill="#fcb300" d="M35.3 41.5h.2v.2h.2l.7.6.3.3a10.1 10.1 0 0 1 .7.6l-.7-.3c.6 2.6 2 4 4.2 5.3 1.3.8 2.8 1.5 4.3 1.7v.1c-2 .1-4.5-1-6-2.3l-.5-.2v-.2c-.2-.4-.3-.4-.6-.5a9.5 9.5 0 0 1-.5-.4l-.2-.2c-.9-.9-1.2-2-1.6-3.1l-.1-.5a147.2 147.2 0 0 1-.4-1.1"/><path fill="#262410" d="m81.9 50.4.4.7v.3l.2.4v.3a54.7 54.7 0 0 1 .6 2c.4 1.7.4 1.7 1.3 3.2.7 1 1 2 1.2 3.2v.2l.1 1V63a402.3 402.3 0 0 1 0 1.1h.1c0 .8-.2 1.5-.4 2.2h-.2l.2-1c.3-2.3 0-4.6-1-6.7l-.1-.3a30 30 0 0 0-.3-.5l-.1-.2c-.1-.3-.3-.3-.5-.4-.4-.4-.4-.8-.5-1.3l-.1-.2c-.4-1.5-.6-3-.8-4.6a447.4 447.4 0 0 0-.1-.7"/><path fill="#fffdf2" d="M37.8 58.8c.4.3.4.3.5.6a5 5 0 0 1-.9 3.1l-.8.7-.3.2c-.6.4-1.6.3-2.3.1-.8-.4-1.3-1.1-1.7-2l-.1-1 .5-.3.3.3v.3c-.1.7.2 1.2.6 1.7.6.4 1.4.3 2.1.3h.2c.4 0 .6 0 .9-.4l.2-.3.2-.2c.4-.6.4-.6.6-1.3h-.3c-.5-.9-.5-.9-.4-1.4l.5-.3z"/><path fill="#292711" d="M34.3 89.4v1l-.1.3-.5 2.2-.1.8c-.4 2-.3 4.1-.3 6.2h-.5c-.2-.4-.2-.8-.2-1.3v-1.1c0-1.3.1-2.6.4-3.9v-.3l.5-1.7.1-.4.7-1.8"/><path fill="#fdb400" d="M53.2 19v1.4l-.2.7h-.1l-.1-.9h-.2a15.2 15.2 0 0 1-6.9 1.4l-3.9.3c.3-.3.6-.4 1-.5H44.2c4.7-.2 4.7-.2 8.8-2.2z"/><path fill="#262510" d="M65.4 89.7h.2l1 3.5a18.1 18.1 0 0 0 .1.6 11.5 11.5 0 0 1 .2 1.2v.2l.6 4.3v.4h-.7v-.2l-.4-3.9-.2-1.2c-.1-1.3-.4-2.6-.7-3.9l-.1-1"/><path fill="#21200e" d="m36.2 29.6-.1.8-.8.4a18.7 18.7 0 0 0-4 2.2l-.8.5a60.8 60.8 0 0 1-.6.4 17 17 0 0 0-1.5 1.2l-1.3 1 .7-1 .2-.1 1.6-1.4.2-.1c4.9-3.9 4.9-3.9 6.4-3.9"/><path fill="#2d2c13" d="M14.2 60.5h.2v.2c-.2.6-.2 1.3-.3 2v.2c0 2.6.6 4.7 1.8 7l.2.2.1.2a.6.6 0 0 1 .1.4h.2a13.7 13.7 0 0 1 .5.7 8 8 0 0 0 1.4 1.7l.6.6A8 8 0 0 0 21 75l-.4.1-.4-.2-.2-.2-.3-.2-.2-.2c-2.3-1.7-2.3-1.7-2.8-2.8l-.6-.8a12 12 0 0 1-2.2-8.3 11.7 11.7 0 0 1 .4-1.9"/><path fill="#ffa296" d="m73.8 64.6.2.1c0 .8 0 1.6-.2 2.4v.7c-.2 1.7-.2 1.7-.7 2.2-.2.1-.2.1-.4 0h-.2l.1-1.5v-.2l.2-.5.1-.6c.5-2.2.5-2.2.9-2.6"/><path fill="#fefefd" d="m66.6 60.8.3.1c0 .6 0 .9-.4 1.3l-.6.5-.5.3c-.3.3-.7.3-1.1.3-.8-.2-1.3-.7-1.7-1.3a2 2 0 0 1-.3-.8h.2l.3.4c.3.4.5.7 1 .9.4 0 .7-.2 1.1-.3l.5-.2c.4 0 .6-.1.8-.4l.3-.7z"/><path fill="#ffa296" d="M69.9 65.7c.3.3.2.4.2.7 0 .7 0 1.4-.2 2v.4c-.1.5-.2 1-.5 1.4l-.6.2c0-.5 0-1 .2-1.5v-.2l.2-.5.2-.7V67l.1-.2.4-1.1"/><path fill="#282711" d="m20.9 75.1.2.1.6.3.5.3c2 1.1 4.2 2.1 6.4 2.8l.7.2.5.2v.1c-.6 0-1.2-.2-1.8-.4h-.3l-1.5-.6a5.9 5.9 0 0 0-.7-.2l-1.7-.8-.4-.2c-2-1.1-2-1.1-2.6-1.7z"/><path fill="#ffa396" d="m31.8 66.5.4.1-.8 1.7-.2.3c-.6 1-1.1 2-1.9 2.9l-.1-.2a7.7 7.7 0 0 1 .3-.7v-.2a26 26 0 0 1 2.3-3.9"/><path fill="#fdb400" d="M55.4 19.1c.3.2.4.5.6.8a19.5 19.5 0 0 0 1 2l.4.8-1.1-1.2a251.7 251.7 0 0 0-.3-.4l-.2-.1-.4-.5-.2.2-.3.2-.3.2c-.3.2-.4.3-.7.3l1.1-1.5a3 3 0 0 0 .4-.8"/><path fill="#fee973" d="m32.7 60.2.3.3v.3c-.1.6.1 1 .4 1.4a14 14 0 0 0 .5.5v.3l.4.3.6.1v.2c-.8 0-1.3-.3-1.9-.9-.5-.5-.8-1.2-.9-1.9l.3-.5z"/><path fill="#fefdfc" d="m66.8 58.5.3.1c.2.5.2 1 0 1.6-.2.3-.3.4-.6.5-.5-.5-.5-.5-.5-.9v-.6c0-.3 0-.5.2-.7h.6"/><path fill="#2e2c13" d="m63.1 29.6 2.6 1 .4.3a199.5 199.5 0 0 1 1.3.6h.2l.5.3.3.2a2 2 0 0 1 .5.4l.9.5.3.5-1-.5-.2-.2a77.8 77.8 0 0 1-.8-.5l-4.5-2.1-.5-.2z"/><path fill="#2d2c13" d="M77.1 93.2h.2c.7 2.3 1 4.4 1.1 6.8l-.4-.1v-.3c-.1-3.1-.1-3.1-.9-6.1z"/><path fill="#8b4b0f" d="m49.2 71.8-.5.2c-.3.1-.3.2-.4.5 0 1.3.8 2.6 1.6 3.5l-.1.2c-.5-.5-1-1-1.3-1.6l-.2-.2c-.4-.7-.6-1.4-.6-2.2 1-.6 1-.6 1.5-.4"/><path fill="#ffa396" d="M77.3 64.3h.2v1.4c0 .9 0 1.8-.5 2.6h-.2a4 4 0 0 1 0-1.6v-.2a84.7 84.7 0 0 1 .2-.7v-.4l.3-1.1"/><path fill="#fefefd" d="M37.8 58.8c.4.3.4.3.5.6 0 .5 0 .6-.2 1l-.6.2c-.5-.9-.5-.9-.4-1.4l.5-.3z"/><path fill="#ffa296" d="M35.8 67h.2c0 .4-.2.7-.4 1l-.2.3-.1.3-.2.3a38.4 38.4 0 0 1-1.5 2.2l-.2.3-.2-.1 1.6-2.8.1-.3.9-1.2"/><path fill="#fff690" d="M51.3 73.4c.4 0 .4 0 .5.2v1.2c0 .6 0 1.2-.2 1.7l-.2.1c-.2-1-.3-2-.2-3.1z"/><path fill="#312f15" d="M73.4 86.5c1.6 1.2 2.7 3.6 3.4 5.3l.1.3c.2.4.2.7.2 1.1a10.3 10.3 0 0 1-.4-1c-.7-1.7-1.7-3.4-2.8-4.9-.5-.6-.5-.6-.5-.8"/><path fill="#fee973" d="M38.1 60.3c.2.4 0 .8-.2 1.2-.2.7-.6 1.3-1.3 1.7h-.2c0-.5.3-.8.6-1.1l1-1.5.1-.3"/><path fill="#ffe975" d="M62.3 61.2h.2l.3.4 1 1c.2 0 .2 0 .3.2.3.2.5.1.8.1h.5c-.2.3-.2.3-.5.4-.7 0-1.2-.2-1.7-.6-.5-.5-.8-.9-.9-1.5"/><path fill="#ffa296" d="M27.1 65.4h.2l-.5 1.1-.2.3-.2.3-.2.3-1.1 1.4-.1-.2a8.5 8.5 0 0 1 .4-.7v-.2l1.1-1.5.2-.3.1-.2.2-.2z"/><path fill="#393618" d="m20.9 75.1.2.1a122 122 0 0 0 2 1l.2.2.2.1c.2 0 .3.2.5.3l-.1.2.5.2-.2.1-.5-.2-.3-.2-.3-.2-.4-.2a16.9 16.9 0 0 1-1.9-1.2z"/><path fill="#282711" d="M17.2 52.3h.2a7 7 0 0 1-.9 3.8c-.1-.4 0-.5 0-.8.4-1 .5-2 .7-3"/><path fill="#ffe975" d="m66.6 60.8.3.1c0 .6 0 .9-.4 1.3l-.3.2-.2-.6c.1-.4.3-.7.6-1"/><path fill="#2d2b13" d="m66.5 80.5.5.1v.2h.2c1 .5 1.7 1.1 2.4 1.8-.4 0-.5-.1-.8-.3l-.7-.5v-.2h-.2a6 6 0 0 1-.9-.6l-.3-.1-.2-.2z"/><path fill="#292711" d="M29.3 34c0 .3-.1.4-.4.7a25.3 25.3 0 0 1-.3.2l-.2.2a28 28 0 0 1-1.3 1l.8-1 .1-.1c1-1 1-1 1.3-1"/><path fill="#86490f" d="m49.1 76.3 1 .8c.5.3.7.3 1.2.3a13.3 13.3 0 0 0 .6-.3l.2.1c-.7.6-.7.6-1.1.6a4 4 0 0 1-1.9-1.3z"/><path fill="#24220f" d="M73.4 86.5c.5.3.8.8 1.2 1.3l.1.2c.9 1.2.9 1.2.9 1.6h-.2a16 16 0 0 1-.5-.7c-.3-.7-.7-1.2-1.2-1.8l-.3-.6"/><path fill="#2d2b13" d="M75.3 76.8v.2l-.3.2h-.2a173.5 173.5 0 0 1-.5.3l-1 .5-.2.1-.2.1c-.2.1-.2.1-.4 0l-.2-.1 2.4-1.1.6-.2M63.1 29.6l2 .8.2.1.6.3v.3l-.3-.1-2-.9-.5-.2z"/><path fill="#fff585" d="m52.3 72.5.2.2-.3.1-.5.4-.1.1h-.3l-.2-.4c.4-.4.7-.4 1.2-.4"/><path fill="#3b3919" d="m20.9 75.1.2.1 1.5.8v.3l.2.1a3 3 0 0 1-1-.4l-.3-.2-.7-.6z"/><path fill="#312f15" d="M79.8 44.4c.3.4.4.9.6 1.4l.1.2.1.3.1.3v.5l-.4-.9a58.1 58.1 0 0 0-.2-.6l-.1-.2-.1-.3-.1-.7"/><path fill="#4b4820" d="M34.3 89.4c.2.3 0 .6 0 1l-.1.3-.1.3-.3-.3c0-.5.3-.9.5-1.3"/><path fill="#5a5626" d="M65.4 89.7h.2a32.4 32.4 0 0 1 .1.5v.3c.1.3 0 .4-.1.7l-.2-1.5"/><path fill="#2f2d14" d="M73.4 86.5c.5.3.8.7 1.1 1.2v.2c-.4-.1-.5-.4-.8-.7l-.2-.3-.1-.4"/><path fill="#262510" d="M66 30.9c.5.1.9.3 1.3.6h-.6l-.3-.1-.2-.2-.2-.1z"/><path fill="#f6eb69" d="M60.1 28.8h.4c0 .4-.1.6-.4.9z"/><path fill="#fb7a00" d="m51.9 77.1.2.1-.7.5-.4-.2a41.9 41.9 0 0 1 .4-.2l.3-.1z"/><path fill="#403d1b" d="m63.1 29.6.6.2.1.3-.7-.2z"/><path fill="#524e23" d="m20.9 75.1.8.4-.3.2-.6-.4z"/><path fill="#1f1d0d" d="M19 73.9c.4 0 .6.2.9.5l-.1.2a96.2 96.2 0 0 1-.4-.3l-.2-.2-.2-.1z"/></svg>