<svg id="Assets" xmlns="http://www.w3.org/2000/svg" viewBox="0 0 800 800"><defs><style>.cls-1{fill:#ff3528;}.cls-2{fill:#d11f13;}.cls-3{fill:#ffa19b;}.cls-4{fill:#ffcc4e;}.cls-5{fill:#ffdc8e;}.cls-6{fill:#f5b22b;}.cls-7{fill:#ffe3b1;}.cls-8{opacity:0.23;}.cls-9{fill:#ff015f;}.cls-10{fill:#ff8f2f;}.cls-11{fill:#e66602;}</style></defs><g id="Forma_34" data-name="Forma 34"><path class="cls-1" d="M552.17,173.1c.27-41.95-26.92-74.36-26.92-74.36C497.13,104.42,475,130.31,475,130.31c-42.48-55.39-89.15-69-92.05-68.74-63.81,39.9-64.86,144.22-64.86,144.22C441,175.14,588,250.23,588,250.23c14.51-26.11,17.37-62.62,17.37-62.62C581.64,177.35,552.17,173.1,552.17,173.1Z"/></g><g id="Forma_34_copia" data-name="Forma 34 copia"><path class="cls-2" d="M382.92,61.57c3-.29,41.46,24.7,78.63,92.35a66.12,66.12,0,0,1,13.52-23.65C432.73,75.56,385.82,61.29,382.92,61.57ZM522,171.88s13.71-.31,30.21.93c.15-41.8-26.92-74.07-26.92-74.07S535.91,127.3,522,171.88Zm46.82,69.58C581,246.69,588,250.23,588,250.23c14.51-26.11,17.37-62.62,17.37-62.62S590.64,218.08,568.78,241.46Z"/></g><g id="Forma_2880" data-name="Forma 2880"><path class="cls-3" d="M475,130.31c-12.52,13.58-16.06,32.61-16.06,32.61s26-44,66.19-64.09C495.36,105.12,475,130.31,475,130.31ZM318.06,205.79a245.5,245.5,0,0,1,33.57-5.87c-2-11,2.52-70.2,30.68-138C319.12,102.13,318.06,205.79,318.06,205.79Zm280-21.08c-22.05-8.17-45.93-11.61-45.93-11.61v-.18a164.72,164.72,0,0,0-30.23-1s30,3.29,83.39,16C605,187.68,602.41,186.44,598.1,184.71Z"/></g><g id="Forma_32_copia_3" data-name="Forma 32 copia 3"><path class="cls-4" d="M686.87,492.06c14.39-154.59-40-317.13-281.63-317.31h-.38c-241.58.18-296,162.72-281.63,317.31,0,0-99,135.45,91.7,216.45,89,37.79,131.41,54.39,186.68,54.39,60.68,0,100-15.36,193.56-54.39C786.42,628.73,686.87,492.06,686.87,492.06Z"/></g><g id="Forma_32_copia_6" data-name="Forma 32 copia 6"><path class="cls-5" d="M573.49,213.08c-41.77-24-96.83-38.28-168.25-38.33h-.38c-241.58.18-296,162.72-281.63,317.31,0,0-94.52,132.51,70.87,207.81-134.69-76.49-49-196.67-49-196.67-14.39-154.6,40.05-317.14,281.63-317.32h.39C486.72,185.93,534.9,195.85,573.49,213.08Z"/></g><g id="BEAK1_copia_3" data-name="BEAK1 copia 3"><path class="cls-6" d="M686.87,492.06c12.07-129.7-24.31-265-179-305.3C646.22,233,679,362.22,667.48,486.32c0,0,102.14,143.18-91.7,216.44-33.37,12.62-58.29,23.4-80.24,31.93,42.7-30.26,48.08-82.53,44-103.74-9.13-47.19-80.68-86.63-125.59-86.89h-.53c-44.91.26-116.46,39.7-125.59,86.89-5.61,29,6.52,116.22,107.79,125.57-2.72.07-5.48.1-8.32.1a3.41,3.41,0,0,0-3.24,0c-25.78,0-46.05-2.69-65.61-7.71,26.11,8.68,50.67,13.46,85,13.46a3.32,3.32,0,0,1,3.23,0c71.2,0,100.36-20.54,188.51-53.86C789,635.24,686.87,492.06,686.87,492.06Z"/></g><g id="Forma_2877" data-name="Forma 2877"><path class="cls-6" d="M321,178.19l0,0c-60.53,6.61-73.8,24.44-108.56,51.08,10.79,4.1,24.73,7.31,39.49,5.21,0,0-20.29,29.79-9.6,44.27,0,0,18.85-28.88,57.06-21.9,14.17,2.59,32.83,1.94,46.82-24.5C346.12,232.31,354.54,202.06,321,178.19Z"/></g><g id="Forma_2877_copia" data-name="Forma 2877 copia"><path class="cls-4" d="M359.14,177.4c-32.8-29.6-47-63.74-40.45-87.07,0,0-24.13,34.31-13.64,61.94,0,0-23.09-31.46-66.13-34.9,0,0-14.07,35.62,11,70.07,0,0-36.1,14.35-64.49,7.45,0,0,26.49,24.56,60.45,24.57,0,0-25,26.66-15.92,42.5,0,0,37.84-27.52,61.93-13.65,24.35,14,62.21,29.43,85.91-13.74C377.81,234.57,390.61,205.79,359.14,177.4Z"/></g><g id="Forma_2877_copia_3" data-name="Forma 2877 copia 3"><path class="cls-7" d="M259.81,181.4c-16.74-19.2-21-56.23-20.89-64,0,0-14.07,35.62,11,70.07C249.93,187.44,258.34,183.65,259.81,181.4Zm-74.37,13.49s26.49,24.56,60.45,24.57c0,0-25,26.66-15.92,42.5,0,0-3.24-19,35.22-50.75C233,211.52,210.38,208.79,185.44,194.89ZM318.69,90.33s-24.78,32.8-13.64,61.27c2.91,2.33,8.62,9,8.62,9C310,151,305.77,120.9,318.69,90.33Z"/></g><g id="CHICKENCHEEKS2" class="cls-8"><path class="cls-9" d="M218.46,553.43c-26.06-13-55.07-.86-62.11,24.06-6.4,22.63,7.28,45.61,27.69,54.86,20.2,9.16,44.63,4,56.18-15.16C253,596,243.85,566.11,218.46,553.43Z"/></g><g id="CHICKENCHEEKS2_copia" data-name="CHICKENCHEEKS2 copia" class="cls-8"><path class="cls-9" d="M642.62,577.49c-7-24.92-36-37.08-62.11-24.06C555.12,566.11,546,596,558.75,617.19c11.55,19.16,36,24.32,56.17,15.16C635.33,623.1,649,600.12,642.62,577.49Z"/></g><g id="BEAK1_copia_4" data-name="BEAK1 copia 4"><path class="cls-10" d="M520.25,618.45c-5.1-54.22-73.82-102.79-118.42-103.11h-.53c-44.58.32-112.59,48.88-116.87,103.11-2.23,28.23,13,128.61,118.67,128.83h.41C509.25,747.06,522.89,646.62,520.25,618.45Z"/></g><g id="BEAK1_copia_6" data-name="BEAK1 copia 6"><path class="cls-11" d="M520.25,618.45c-1.41-14.91-7.6-29.4-16.84-42.62a83.44,83.44,0,0,1,8,27.7c2.82,28.51-10.2,131-117,131.23H394c-41.07-.08-68.52-14.93-87-35.58,17.71,26.84,47.16,48,96.14,48.1h.41C509.25,747.06,522.89,646.62,520.25,618.45Z"/></g></svg>