<svg id="Assets" xmlns="http://www.w3.org/2000/svg" viewBox="0 0 800 800"><defs><style>.cls-1{fill:#747578;}.cls-2{fill:#7e828a;}.cls-3{fill:#585b64;}.cls-4{fill:#ede6dd;}.cls-5{fill:#e5d8ca;}.cls-6{fill:#fcf1dd;}.cls-7{fill:#e2dbd3;}.cls-8{fill:#fdbc4e;}.cls-9{fill:#fde888;}.cls-10{fill:#eba633;}.cls-11{fill:#efad43;}.cls-12{fill:#895220;}</style></defs><g id="Forma_6646" data-name="Forma 6646"><path class="cls-1" d="M318.06,723.64l-141.8-27.08S124.27,750,136,765.27s71.54-17.22,76.48-21c0,0-18.6,45.69-4.4,53.81s59.57-22,59.57-22l6.43-6.43s7.24,27,26.73,30.12,47.38-28.43,47.38-28.43Z"/></g><g id="Forma_6657" data-name="Forma 6657"><path class="cls-2" d="M136,765.27c2,2.55,5.28,3.76,9.46,4-7.6-20.88,43-59.83,43-59.83a43.74,43.74,0,0,0,5.18-9.55l-17.36-3.32S124.27,750,136,765.27Zm162.78-21.66c-5,4.92-14.57,20.81-21.9,33.63,3.66,8.25,11.17,20.52,23.93,22.55A24.63,24.63,0,0,0,313.3,798C292.77,793.57,307,735.48,298.77,743.61ZM222,740.9l-11.84,9.71c-4.5,12.83-13,41.24-2,47.48,3.56,2,9.08,1.67,15.35,0l-5.2.36c-24-3.93,15.91-56.85,15.91-56.85Z"/></g><g id="Forma_6656" data-name="Forma 6656"><path class="cls-3" d="M297,719.61,180.7,697.41l-7.59,2.49c-2,2.16-4.83,5.25-8,9-1.15,4.65-.93,9.76,5.77,9.37,12.12-.7,49.42-11.84,49.42-11.84l4.06,35.53s-19.2,17.93-9.48,24.71S264.25,746,264.25,746a193.66,193.66,0,0,0,8.28,25.22l1.54-1.53a60.83,60.83,0,0,0,8.59,17.75,7,7,0,0,0,4.94,1.87c12.53-.91,37.57-44.67,37.57-44.67Z"/></g><g id="Forma_6646-2" data-name="Forma 6646"><path class="cls-1" d="M624.68,696.56l-141.8,27.08-30.12,47.72s27.88,31.52,47.38,28.43,26.73-30.12,26.73-30.12l6.43,6.43s45.37,30.12,59.57,22-4.4-53.81-4.4-53.81c4.94,3.77,64.76,36.22,76.48,21S624.68,696.56,624.68,696.56Z"/></g><g id="Forma_6657-2" data-name="Forma 6657"><path class="cls-2" d="M487.64,798a24.63,24.63,0,0,0,12.5,1.81c12.75-2,20.26-14.3,23.93-22.55-7.34-12.82-16.9-28.71-21.9-33.63C493.91,735.48,508.16,793.57,487.64,798Zm137-101.42-17.36,3.32a43.21,43.21,0,0,0,5.18,9.55s50.58,39,43,59.83c4.19-.23,7.51-1.44,9.47-4C676.67,750,624.68,696.56,624.68,696.56ZM579,740.9l-12.18.68s39.89,52.92,15.9,56.85l-5.19-.36c6.27,1.69,11.79,2.06,15.35,0,10.91-6.24,2.46-34.65-2-47.48Z"/></g><g id="Forma_6656-2" data-name="Forma 6656"><path class="cls-3" d="M635.87,708.85c-3.21-3.7-6-6.79-8-9l-7.59-2.49L504,719.61l-28.2,25s25,43.76,37.57,44.67a7,7,0,0,0,4.94-1.87,60.83,60.83,0,0,0,8.59-17.75l1.53,1.53A192.81,192.81,0,0,0,536.69,746s39.69,27.42,49.41,20.64-9.48-24.71-9.48-24.71l4.06-35.53s37.3,11.14,49.41,11.84C636.8,718.61,637,713.5,635.87,708.85Z"/></g><g id="Forma_6642" data-name="Forma 6642"><path class="cls-4" d="M701.84,438.68c-3.66-22.92-18.77-71-68.36-112,0,0,11,2.29,12.86.34,0,0,18.44,2.67-19-35.2s-76.83-45.69-76.83-45.69S560,242.54,560,237c0,0,4.43-39.44-87.65-28.77,0,0,14.14-6.1,14.21-13.54s-6.48-9.64-18.61-8.8S420,195.68,398.61,217c0,0-15.51-21-35.2-30.46s-44.22-8.61-41.29,8.12c2.59,14.75,7.45,18.22,8.57,18.84l.23.12-.23-.12c-3-1.46-35.35-15.82-77.61,11.62-19.43,12.62,1.36,14.22,1.36,14.22l7.44,1s-57.8,27.11-85.28,52.8S150,323.83,160,324.63s16.11,1,16.93.68-52,45.31-67.69,86-20.5,72.4,6.43,50.76l7.78-6.09s-20.26,38.21-19.62,76.49S119,558.5,121.77,554.09c1.6-3.35,12.86-21.33,12.86-21.33s-2,37.91,5.42,74.12c5.54,27.09,12.52,9.48,12.52,9.48l6.43-7.79s7.48,40.51,14.21,56.52c0,0-22.68,28.44-18.27,40.95s48.94.36,51.1-2c0,0-18.66,43.07-4.4,51.78s50.09-11.51,50.09-11.51-3,35.81,15.57,42S318.06,748,318.06,748s19.4,50.42,80.89,50.42,94.76-46.7,94.76-46.7,25.52,38.17,43,34.52,21.66-42.64,21.66-42.64,32.47,22.65,44.67,14.21,4.4-52.79,4.4-52.79,31.93,13,42,3S635.85,656,635.85,656s10.71-35.73,9.14-48.05c0,0,2.89,13.71,9.13,10.83s16.72-29.69,9.82-79.2c0,0,7.22,8,14.55,6.1,0,0,17.46.09,1.69-90,0,0,11.25,10,16.92,10.83S705.5,461.61,701.84,438.68Z"/></g><g id="Forma_6655" data-name="Forma 6655"><path class="cls-5" d="M530.93,785.91s.63,1.35,5.76.34c17.5-3.44,21.66-42.64,21.66-42.64l.33.22c.92-6.48,3.23-26.22-1-38.47C557.67,705.36,548.4,780.74,530.93,785.91Zm69.38-96.79s6.26,65.08-4.4,69.72l-1.81.78c3.47.29,6.57-.18,8.92-1.8,11.14-7.71,5.6-45.41,4.56-51.85C606.66,702.13,604.45,694.55,600.31,689.12ZM432.83,793.45c30.59-9.27,50.16-29,57.55-37.58l3.66-4.14s9.57-14.36,10.83-21.32C504.87,730.41,470.51,772.61,432.83,793.45Zm269-354.77c-3.66-22.92-18.77-71-68.36-112,0,0,11,2.29,12.86.34,0,0,18.44,2.67-19-35.2s-76.83-45.69-76.83-45.69S560,242.54,560,237a19.65,19.65,0,0,0-3-11.14c-1.38-3.47-6.84-7.48-6.84-7.48s21.34,30.75-32.48,24.71c0,0,11.49,7.15,28.76,5.08,0,0,30.35,12.79,55.84,30.79,26,18.36,48.61,44.08,37.91,44.34l-13.88.34s20.84,22.91,46.37,63.28c20.53,32.48,26.92,67.71,23.48,79.34a7.75,7.75,0,0,0,.88.19C702.77,467.28,705.5,461.61,701.84,438.68ZM645.13,609.83s2.53-26.78-19.77-68.6c0,0,6.79,24.68,8.12,43.31s1.91,33.35-28.09,22.68c0,0,17.86,20.09,27.75,14.55,0,0,.9,18.91-7.78,32.49,0,0,29.31,43.19,22.29,55.18a10,10,0,0,0,1.73-1.37c10-10-13.53-52.12-13.53-52.12S645.55,623.57,645.13,609.83ZM673.41,439.7c.6-1.33,6-11-13.2-34.86-18.43-22.89-32.15-30.46-32.15-30.46s16.35,15.92,28.43,35.53,19.5,30.26.34,22.68-13.88-3-13.88-3,17.69,13.09,25.39,14.89c0,0,21.29,52.16,10.15,101.2,0,0,17.46.09,1.69-90C680.18,455.6,680.05,451.81,673.41,439.7Zm-17.93,68.7s8.58,77-5.42,109c0,0,2.1,2,4.06,1.36,6.29-2.08,16-27.74,10.51-73.79C663.27,536.34,659.92,517.37,655.48,508.4Z"/></g><g id="Forma_6653" data-name="Forma 6653"><path class="cls-6" d="M135,448.16c-4,1.11-8,4.27-11.66,8.08-1.88,3.63-20.08,39.87-19.47,76.19.48,29.17,9,29,14.28,25.35C98.48,551.36,135,448.16,135,448.16ZM176.6,325.65c-12.41,10.89-54,51-67.35,85.62C97.35,442.19,91.7,468,101.52,469c12.71-71.23,86.25-144.71,86.25-144.71C182.92,325.07,180.81,324.06,176.6,325.65Zm73.46-87.1c34-25.87,98.8-17.48,98.8-17.48-22.81-20.27-22.36-35.52-8.2-40.51-11.6-.52-20.36,3.73-18.54,14.11,2.59,14.75,7.45,18.22,8.57,18.84l.23.12-.23-.12c-3-1.46-35.35-15.82-77.61,11.62C239.85,233.72,245.26,237.2,250.06,238.55ZM144.79,519.9a50.89,50.89,0,0,0-10.18,13.29c-.19,4.25-1.52,39.71,5.44,73.69,3.69,18,8,16.26,10.5,13C144.64,606.47,144.79,519.9,144.79,519.9Zm10.68-196.28c35-47.7,120.63-80.55,120.63-80.55-5.05-3-7.57-4-14.56-2.71-23,11.43-64,33.11-84.94,52.8C154.37,314.1,150.7,321.22,155.47,323.62Zm58,371.25c-3.78,3.38-5.49,5.26-7.45,9.14,0,0-18.66,43.07-4.4,51.78,4.82,3,12.11,2.58,19.64.81C199.55,752.79,213.49,694.87,213.49,694.87Zm370.92-80.2c-2.71-15.81-16.52-9.07-28.43-6.44s-56.2-3.74-71.75-34.52c-9.68-19.16-13.85-33.81-21.18-48.64l-1.16-.77,6.77,51.11-1.35,47.72-7.78,39.93-12.19,38.58,3.13-.52c1.62-5.3,2.29-8.28,2.29-8.28s16.49-8.81,36.55-27.75,32.11-17.71,55.84-17.26S587.12,630.47,584.41,614.67ZM484.12,200.19a8.8,8.8,0,0,0,2.48-5.52c.07-7.44-6.48-9.64-18.61-8.8-11.61.81-48.22,9.52-68.71,31.14,4,2.32,7.46,3.27,10.5,6.77C423.21,207.8,488.58,170.83,484.12,200.19ZM314,730.41c2.11,13.5,4.06,17.6,4.06,17.6s18.69,48.58,77.54,50.37C339,782.08,314,730.41,314,730.41ZM209.43,587.25s-21.49,26.57-35.54,20.65-3.72-52.46-3.72-52.46C152.81,581.54,160,613,160,613l-.08.44c2.2,11.22,8,39.06,13.28,51.68,0,0-22.68,28.44-18.27,40.95,1.76,5,9.95,6.06,19.28,5.38C156.78,705.48,183,667.8,183,667.8c-11.67-19.32-10.83-47.72-10.83-47.72C200,612.69,209.43,587.25,209.43,587.25ZM261.2,700.63c-10.2,21.41-9.47,43.65-9.47,43.65s-3,35.81,15.57,42c6.41,2.12,14.44-1.77,22.21-7.78C248.92,793.65,261.2,700.63,261.2,700.63Z"/></g><g id="Forma_6648_copia" data-name="Forma 6648 copia"><path class="cls-7" d="M535,369c-55.51,0-58,31.34-135.87,31.48C321.26,400.3,318.75,369,263.24,369s-100.85,74.55-107.62,96.12c15.16,10,24.48,28.64,61.25,56.52,81.1,61.47,131.34-13.1,149.59-30.12S399,474.89,399,474.89l.17-.28.16.28s14.25-.44,32.49,16.59,68.49,91.59,149.59,30.12c36.77-27.88,46.09-46.55,61.26-56.52C635.84,443.51,590.63,369,535,369Z"/></g><g id="Forma_6649" data-name="Forma 6649"><path class="cls-8" d="M584.41,614.67c-2.71-15.81-16.52-9.07-28.43-6.44s-56.2-3.74-71.75-34.52-16.86-49.92-39.93-76.82c-14-16.29-23.87-26.4-45.35-26.4-18.84,0-44.74,26-63.63,75.47s-50.79,64.75-83.25,61.26-35.94,1-30.46,16.24c5.74,16,18.94,22.37,59.22,23.69,12.16.4,23.39,7.84,56.86,37.23C357.21,701.53,378,700.63,378,700.63s17,25.72,24.37,54.14,6.7,33.73,25.72-1.35,24.71-60.58,24.71-60.58,16.49-8.81,36.55-27.75,32.11-17.71,55.84-17.26S587.12,630.47,584.41,614.67Z"/></g><g id="Forma_6654" data-name="Forma 6654"><path class="cls-9" d="M374.58,527.35c.28-10.64-5.74-18.38-11.51-9.81s-13.84,63.65,24.37,128.94C387.44,646.48,373.3,575.42,374.58,527.35Z"/></g><g id="Forma_6652" data-name="Forma 6652"><path class="cls-10" d="M360.7,667.46l-23-25.72-27.75-11.51-31.14-.34-28.76.34-9.82-5.75s-13.74-12.74-20.3-9.48a13.85,13.85,0,0,0,1,5.76c5.85,18.2,19.62,25.07,59.9,26.39,12.16.4,24.54,7.79,56.86,37.23C354.28,699.5,377,700.29,377,700.29s1,.85,4.47,6.7l.6-1Z"/></g><g id="Forma_6650" data-name="Forma 6650"><path class="cls-11" d="M484.23,573.71c-14.76-31.16-16.86-49.92-39.93-76.82-14-16.29-23.87-26.4-45.35-26.4h-.24C405,487,422.87,552.38,415.19,753.08c-.58,15.08-3.93,19.61-8.4,18.48,3.8,11.75,7,8.11,21.26-18.14,19-35.07,24.71-60.58,24.71-60.58S516.18,641.15,484.23,573.71Z"/></g><g id="Forma_6651" data-name="Forma 6651"><path class="cls-12" d="M547.52,628.54c-14.31,2-28.33-5.18-45-3s-34.19,10.16-34.19,10.16c12.18-48.79-1.3-96.67-8.08-116q-.89-1.59-1.83-3.21c4.21,16.34,13.13,65.74,3.48,124.93C448.61,723,417.22,768.31,417.22,768.31s-6.44,9.71-7.44,3.05C405.65,743.9,381.2,692.29,355,653.58s-65.14-29.05-86-25.38a41.94,41.94,0,0,1-34.52-9.47c5.21,7.37,16.08,16.85,34.18,16.58S304.89,637.64,333,656c26.06,17.06,41.4,38,44.62,44.93,6.39,12.43,19.05,31.87,24.71,53.81,7.33,28.43,6.7,33.73,25.72-1.35s24.71-60.58,24.71-60.58l7.5-23.51c25.32-25.13,68.66-33.26,86.58-34.7s24.37-13.2,24.37-13.2A75,75,0,0,1,547.52,628.54Z"/></g><g id="Forma_6664" data-name="Forma 6664"><path class="cls-4" d="M461.22,379.79s-77-58.65-109.65,7.45c0,0-2.19,22.14,9.47,23s19.63-14.89,19.63-14.89-2.64,20.07,8.46,22.34,18.62-21.32,18.62-21.32-2.16,26.11,14.21,23,14.55-27.75,14.55-27.75,9,19.62,19.63,16.24S461.22,379.79,461.22,379.79Z"/></g></svg>