<svg xmlns="http://www.w3.org/2000/svg" width="1000" height="1000"><path fill="#282520" d="m629 166-2 1a4844 4844 0 0 0-28 11c-18 7-18 7-31 20l4 6 23 9a197 197 0 0 1 60 35c4 4 5 7 7 12-4 5-9 7-15 8l-3 1-11 3-2 1-29 7 3 1 17 5 4 1a227 227 0 0 1 26 12c19 8 19 8 22 11a210 210 0 0 0 13 6v2l3 1a48 48 0 0 1 12 6l16 12 2 2 3 1 2 2 1 1v2l2 1 5 4 7 7a198 198 0 0 1 23 24c3 4 6 7 7 11h2l3 5 7 11c8 10 14 21 19 32l4 8 4 10 3 8c5 10 8 21 12 33l6 19c3 9 5 18 6 28 2 11 5 20 12 29 5 5 7 12 9 18a192274744 192274744 0 0 1 4 11c3 9 3 19 3 28l-1 3a101 101 0 0 1-15 57 209 209 0 0 1-39 45l-5 3-2 3-5 3-3 2-4 2v2l-2 1-12 8a156 156 0 0 1-28 17l-2 1-13 6-2 1-45 15-16 5 8 3v2l2 1a57 57 0 0 1 16 9 241 241 0 0 1 58 58l7 11 2 5 10 19 1 3c8 16 12 34 14 51l1 9 1 23H208c0-20 0-20 2-27v-3a133 133 0 0 1 6-20l1-3 2-5c3-11 8-21 13-31l1-3 17-30 1-2h2l1-2 3-6h2v-2l4-7 2-2 2-2h2l1-2 6-8 6-7h2l1-2 4-3 2-4h2l1-2 5-5 2-2 2-2 3-2 4-2v-2l5-3 4-2 3-2-4-1-2-1a738 738 0 0 0-39-14l-3-1-12-6-16-7-2-1-14-7c-21-10-41-22-58-38l-2-2c-5-5-9-10-12-16v-2h-2a2792 2792 0 0 1-8-14c-15-28-18-60-10-91l12-28c7-14 12-28 14-43l3-14v-3l4-14 3-8c2-9 5-17 9-26l1-3a390 390 0 0 1 24-44 232 232 0 0 1 23-33h2v-2l4-5 14-16 9-8 5-5c2-3 2-3 5-4l5-5a210 210 0 0 1 29-22l11-6 10-7a105 105 0 0 1 22-11l3-1a579 579 0 0 0 24-10l4-1a166 166 0 0 1 30-9l7-2 4-1c17-4 35-5 53-6h9c9 0 13-2 20-7l5-4 3-2 14-9 2-1 13-7a129 129 0 0 0-20-2h-3l-40-2-3-1c-15-1-15-1-20-6-1-4-1-6 2-10l13-8 3-2c33-17 71-30 108-37l3-1a227 227 0 0 1 37-3h2l9 1Z"/><path fill="#282520" d="m335 806 7 2 18 4 3 1a407 407 0 0 0 57 7 510 510 0 0 0 67 2 983 983 0 0 0 182-14l5 3 2 1 5 4v2l2 1 9 5a815593961 815593961 0 0 1 15 14c38 33 70 82 73 134v27h8l-1-27h1c2 10 2 18 2 28H210l4-1v-2a109 109 0 0 1 6-44 217 217 0 0 1 26-56l8-13 3-6h2l1-2c1-4 4-8 7-11h2v-3l5-5 6-7a239 239 0 0 1 22-24c2-2 4-5 7-6l8-6 3-2 5-4c3-3 6-3 10-2Z"/><path fill="#030302" d="m629 166-2 1a4844 4844 0 0 0-28 11c-18 7-18 7-31 20l4 6 23 9a197 197 0 0 1 60 35c4 4 5 7 7 12-4 5-9 7-15 8l-3 1-11 3-2 1-29 7 3 1 17 5 4 1a227 227 0 0 1 26 12c19 8 19 8 22 11a210 210 0 0 0 13 6v2l3 1a48 48 0 0 1 12 6l16 12 2 2 3 1 2 2 1 1v2l2 1 5 4 7 7a198 198 0 0 1 23 24c3 4 6 7 7 11h2l3 5 7 11c8 10 14 21 19 32l4 8 4 10 3 8c5 10 8 21 12 33l6 19c3 9 5 18 6 28 2 11 5 20 12 29 5 5 7 12 9 18a192274744 192274744 0 0 1 4 11c3 9 3 19 3 28l-1 3a101 101 0 0 1-15 57 209 209 0 0 1-39 45l-5 3-2 3-5 3-3 2-4 2v2l-2 1-12 8a156 156 0 0 1-28 17l-2 1-13 6-2 1-45 15-16 5 8 3v2l2 1a57 57 0 0 1 16 9 241 241 0 0 1 58 58l7 11 2 5 10 19 1 3 7 19 1 2c5 20 6 40 6 61h-8v-3c-1-19-2-38-7-56l-1-3a189 189 0 0 0-33-64l-22-25-2-2c-10-10-21-21-34-28v-2l-2-1-8-5c-5-3-8-4-14-3l-8 2-11 2-6 2c-21 7-46 6-68 8h-2a1229 1229 0 0 1-158-2c-23-1-47-5-69-12h-8l-12 10c-5 4-5 4-8 4l-1 2c-1 3-3 5-6 7h-2l-1 2c-1 3-4 5-7 8l-17 20-2 2h-2v3l-5 5-4 6-1 2h-2l-1 2a100 100 0 0 1-8 15l-1 2a728 728 0 0 0-11 21l-1 1c-7 13-12 26-16 40l-1 2c-4 13-4 25-4 38l-6 1c0-9 0-18 2-27v-3a135 135 0 0 1 6-20l1-3 2-5c3-11 8-21 13-31l1-3 17-30 1-2h2l1-2 3-6h2v-2l4-7 2-2 2-2h2l1-2 6-8 6-7h2l1-2 4-3 2-4h2l1-2 5-5 2-2 2-2 3-2 4-2v-2l5-3 4-2 3-2-4-1-2-1a738 738 0 0 0-39-14l-3-1-12-6-17-8-2-1-10-4-6-5-5-3c-5-2-8-4-11-8l11 5a396 396 0 0 0 83 34l2 1h2l4 2 8 2 4 1 3 1 3 1a5196 5196 0 0 0 23 5h3a1022 1022 0 0 0 9 3l41 5h6c64 7 133 5 197-2h2l21-4 9-2a453 453 0 0 0 37-9l9-3 4-1a82 82 0 0 0 19-6l2-1a267 267 0 0 1 17-7l4-2 2-1 7-3 22-12 3-2c12-7 24-16 34-25l2-2c8-7 16-14 22-23l2-2c19-19 27-46 26-72v-2c0-19-3-41-16-56v-2l-2-1c-4-2-5-5-6-9l-1-5-1-2-7-39c-1-11-4-21-8-30l-2-6-6-15-6-15-5-11-1-2-9-16-2-3-13-19-1-2c-14-19-14-19-31-35l-7-7a243 243 0 0 0-57-39 237 237 0 0 0-44-20l-2-1-5-2a111 111 0 0 0-23-8h-3l-5-2c-8-1-14 2-21 4l-4 1a396 396 0 0 0-127 64c-9 7-17 14-23 25l-6 6 1-8v-3c5-33 26-59 48-82l2-1 14-13a2720 2720 0 0 0-40 5c-12 0-24 4-35 7l-4 1a222 222 0 0 0-26 10 233 233 0 0 0-48 23l-10 6-7 5a634 634 0 0 1-24 18l-8 7c-11 9-21 19-29 30l-4 4-6 7-2 3h-2v3l-4 4a205 205 0 0 0-16 24l-1 2h-2l-1 2-3 8a338 338 0 0 0-19 40c-6 13-8 24-9 38-1 13-4 24-10 36l-1 3-7 11c-12 20-16 40-16 63v2a107 107 0 0 0 12 47l9 15 1 5h2l5 7c5 7 10 13 17 19l7 7 3 2 3 5 2 2c-6 0-9-2-13-5l-2-2-15-13-2-2c-5-5-9-10-12-16v-2h-2a2792 2792 0 0 1-8-14c-15-28-18-60-10-91l12-28c7-14 12-28 14-43l3-14v-3l4-14 3-8c2-9 5-17 9-26l1-3a390 390 0 0 1 24-44 232 232 0 0 1 23-33h2v-2l4-5 14-16 9-8 5-5c2-3 2-3 5-4l5-5a210 210 0 0 1 29-22l11-6 10-7a105 105 0 0 1 22-11l3-1a579 579 0 0 0 24-10l4-1a166 166 0 0 1 30-9l7-2 4-1c17-4 35-5 53-6h9c9 0 13-2 20-7l5-4 3-2 14-9 2-1 13-7a129 129 0 0 0-20-2h-3l-40-2-3-1c-15-1-15-1-20-6-1-4-1-6 2-10l13-8 3-2c33-17 71-30 108-37l3-1a227 227 0 0 1 37-3h2l9 1Z"/><path fill="#FEC800" d="M599 171h5l-9 4c-12 4-24 8-31 19l-1 8c4 4 8 5 13 7l5 2 3 1 13 5 2 1c21 8 47 20 60 39l-1 5-33 9a1040 1040 0 0 0-86 22h-2c-42 16-82 35-114 65-1-4 0-5 1-8l1-2 1-2c24-46 67-78 111-103l3-1 3-2 6-5c-2-3-2-3-5-4h-8l-3-1h-11l-48-4h-4l-14-3 1-5c21-15 46-23 71-29l15-4 3-1a3793 3793 0 0 0 38-11l2-1 13-1Z"/><path fill="#020201" d="m624 287 10 4a238 238 0 0 1 24 10c13 6 13 6 16 9a210 210 0 0 0 13 6v2l3 1a48 48 0 0 1 12 6l16 12 2 2 3 1 2 2 1 1v2l2 1 5 4 7 7a198 198 0 0 1 23 24c3 4 6 7 7 11h2l3 5 7 11c8 10 14 21 19 32l4 8 4 10 3 8c5 10 8 21 12 33l6 19c3 9 5 18 6 28 2 11 5 20 12 29 5 5 7 12 9 18l1 2a208 208 0 0 1 3 9c3 9 3 19 2 28v3c0 20-3 36-13 54l-2 3a209 209 0 0 1-39 45l-5 3-2 3-5 3-3 2-4 2v2l-2 1-12 8a156 156 0 0 1-28 17l-2 1-13 6-2 1-45 15-16 5 8 3v2l2 1c5 1 9 4 13 7l3 2a241 241 0 0 1 58 58l7 11 2 5 10 19 1 3 7 19 1 2c5 20 6 40 6 61h-8v-3a224 224 0 0 0-8-59 189 189 0 0 0-33-64 192 192 0 0 0-24-27c-10-10-21-21-34-28v-2l-2-1-8-5c-5-3-8-4-14-3l-8 2-11 2-6 2c-21 7-46 6-68 8h-2a1229 1229 0 0 1-158-2c-23-1-47-5-69-12h-8l-12 10c-5 4-5 4-8 4l-1 2c-1 3-3 5-6 7h-2l-1 2c-1 3-4 5-7 8l-17 20-2 2h-2v3l-5 5a118 118 0 0 0-5 8h-2l-1 2a100 100 0 0 1-9 17l-7 13-1 2a2036 2036 0 0 0-4 7c-7 13-12 26-16 40l-1 2c-4 13-4 25-4 38l-6 1c0-9 0-18 2-27v-3a135 135 0 0 1 7-23l2-5c3-11 8-21 13-31l1-3 17-30 1-2h2l1-2 3-6h2v-2l4-7 2-2 2-2h2l1-2 6-8 6-7h2l1-2 4-3 2-4h2l1-2 5-5 2-2 2-2 3-2 4-2v-2l5-3 4-2 3-2-4-1-2-1a738 738 0 0 0-39-14l-3-1-12-6-17-8-2-1-10-4-6-5-5-3c-5-2-8-4-11-8l11 5a396 396 0 0 0 83 34l2 1h2l4 2a54 54 0 0 0 12 3l3 1 3 1a5196 5196 0 0 0 23 5h3l7 2 2 1 41 5h6c64 7 133 5 197-2h2l21-4 9-2a453 453 0 0 0 37-9l9-3 4-1a82 82 0 0 0 19-6l2-1a267 267 0 0 1 17-7l4-2 2-1 7-3 22-12 3-2c12-7 24-16 34-25l2-2c8-7 16-14 22-23l2-2c19-19 27-46 26-72v-2c0-19-3-41-16-56v-2l-2-1c-4-2-5-5-6-9a338 338 0 0 1-9-46c-1-11-4-21-8-30l-2-6-6-15-6-15-5-11-1-2-9-16-2-3-13-19-1-2c-14-19-14-19-31-35l-7-7a243 243 0 0 0-58-39 237 237 0 0 0-43-20l-2-1-5-2a109 109 0 0 0-23-8h-3l-8-3 4-3c12-3 21 2 32 6Z"/><path fill="#392D00" d="M363 540c7 2 11 5 15 11l2 4 1 3c8 18 7 44 1 62-3 9-10 17-18 21-11 4-21 0-31-4-6-3-9-7-11-13-5-22-5-53 7-73 9-11 21-14 34-11ZM657 547c11 7 14 17 17 30a481 481 0 0 1 2 12c2 13 3 27-5 38-6 8-14 11-23 12-8 0-14-3-20-7a61 61 0 0 1-16-35l-1-3c-2-12-3-27 3-38l5-6 1-1c11-10 25-9 37-2Z"/><path fill="#160F02" d="m629 166-2 1a4844 4844 0 0 0-28 11c-18 7-18 7-31 20l4 6 23 9a197 197 0 0 1 60 35c4 4 5 7 7 12-4 5-8 6-15 8l-3 1-40 10-3 1a2109 2109 0 0 1-24 7 410 410 0 0 0-138 67c-9 7-17 14-23 25l-6 6 1-8v-3c6-40 36-74 67-98l9-7-9-1v-1h2c12 1 20-6 29-13l14-9 2-1 13-7a129 129 0 0 0-20-2h-3l-40-2-3-1c-15-1-15-1-20-6-1-4-1-6 2-10l13-8 3-2c33-17 71-30 108-37l3-1a227 227 0 0 1 37-3h2l9 1Zm-49 8-3 1a1347 1347 0 0 0-52 15c-36 9-36 9-67 29l-2 1v3a160 160 0 0 0 34 5 769 769 0 0 0 46 2h2c5 1 7 1 11 4-1 4-5 5-8 8l-5 2-3 2a335 335 0 0 0-66 48c-18 15-38 38-45 61l1 3 1-1c33-35 95-64 141-72l15-4 47-11 31-8v-7c-21-23-50-34-78-44-13-5-13-5-17-9-1-4 0-6 2-9 9-12 25-17 39-21v-1l-24 3Z"/><path fill="#FAEAB2" d="m228 407 2 1-2 3c-20 33-32 68-39 105-5 27-14 49-26 73s-18 44-10 72c6 15 13 30 23 43l2 3c27 36 65 62 107 78-4 1-5 1-9-1l-3-1-21-9-2-1a382 382 0 0 1-38-19l19 12-2 1-5-2-3-2-3-2-3-1-18-11 3-1c-1-4-3-5-6-7l-10-9-3-4c-6-6-12-12-16-19v-2h-2c-15-26-23-48-23-78v-2c0-20 9-41 19-57a68 68 0 0 0 7-12c5-12 7-23 8-36a116 116 0 0 1 13-45c4-11 9-21 15-31l2-3 3-6h2l1-2c1-5 4-9 7-12l1-3 3-4 7-9Z"/><path fill="#FEC800" d="m537 710 2 1 5 2c-4 14-10 27-22 35-11 5-23 6-35 7-14 0-14 0-27 5l-2 5c-4-5-4-10-4-17v-2c0-6 0-12 4-16l3-2 2-3 11-8 4-5 7-2 3-1a520 520 0 0 1 9-2c13-3 27-2 40 3Z"/><path fill="#FEEEB5" d="m526 191-3 1c-16 7-16 7-28 18l1 4c8 5 18 6 27 8 22 6 22 6 30 11 0 4 0 6-3 9-5 6-12 10-19 14-27 18-54 39-72 67-5 9-11 15-20 21l-16 14c-1-4 0-5 1-8l1-2 1-2c24-46 67-78 111-103l3-1 3-2 6-5c-2-3-2-3-5-4h-8l-3-1h-11l-48-4h-4l-14-3 1-5c17-13 39-20 59-26l2-1h8Z"/><path fill="#FEC800" d="m320 595 13 1v3c2 12 2 12 8 21 5 3 9 5 14 4 5-3 8-5 10-10l3-16 17-1c1 14-2 25-11 36-6 6-11 9-19 10-9-1-19-4-27-9-9-10-8-26-8-39Z"/><path fill="#FFE177" d="M676 593c2 10 2 23-3 32-6 8-13 11-23 14-7 1-13-1-19-6-10-8-16-19-18-32 5-2 10-2 16-2l1 2c2 7 5 12 12 17 5 2 9 1 14-1 3-1 3-3 4-6l1-3 2-12 4-1 3-1 6-1Z"/><path fill="#010100" d="m557 701 3 1-1 7-5 3c-3 5-4 10-4 15l-4 8h-1l3-22h-2v4l-4 12-2 2c-6 12-16 20-29 24-12 3-24 4-35 5l-6 1a54 54 0 0 0 18 5l18 2c3 0 3 0 5 2-13 4-30 1-42-3l-2-1h-9l1 5-5-2c-5-7-4-18-2-26l2-7 1 7v7c0 5 0 9 2 13l1-1 2-2 2-1c9-5 20-5 29-6 15-1 29-3 40-14 6-7 9-17 13-26a316 316 0 0 0-11-4c-17-5-34-1-50 3h-5l-1 2-4 5-2 1-2 2-4 3-1 2-4 3-3 1c1-5 4-7 7-10l6-8c-1-3-2-4-5-6l1-4h4l2 3c9 1 17 0 26-2 14-2 26-3 40 1 7 2 7 2 14 1l2-2 3-3Z"/><path fill="#FEFEFE" d="M363 545c10 5 15 15 19 26 1 5 1 10-2 15-3 3-4 4-8 4-6-1-9-7-13-11l-10-9c-10-8-10-8-10-12s0-6 3-9c6-6 13-8 21-4Z"/><path d="M353 533c9-1 17 3 24 8 10 9 13 23 13 36l-1 26v3c-1 13-6 24-15 33-8 6-14 8-23 7-11-2-21-5-29-13-9-13-9-35-7-50 3-13 7-26 15-37l1-2c5-6 10-9 17-11h5Zm-17 12-3 2c-10 9-12 25-13 37l1 31v2c1 6 3 11 7 17 9 7 21 9 33 8 8-2 15-9 19-17 3-6 5-13 5-20v-3c2-20 2-39-10-56-3-3-7-5-11-6l-2-1c-10-2-18-1-26 6ZM659 542c11 8 15 20 18 33l1 3c4 16 6 34-2 49-6 8-14 13-24 15-10 1-18-1-26-7-8-9-13-20-17-31l-1-3c-4-13-3-24 0-37l1-3c2-9 8-17 16-23 11-5 24-2 34 4Zm-43 11c-9 14-7 31-4 46 3 14 9 28 21 36 7 4 12 4 20 3 7-2 14-5 19-11 7-13 6-27 3-41v-3c-3-19-3-19-15-34-15-10-32-11-44 4Z"/><path fill="#AE8104" d="M546 713h2v2l-1 8v3l-1 3v3l1 4-1 3h-2l-1 2c-4 10-11 21-21 25l-3 1v2h-14l-3-1h-3c-21-2-21-2-31-7v-1h2a6980 6980 0 0 0 27-4c11-1 22-3 31-11l2-2c9-7 14-19 16-30Z"/><path fill="#F8E8B1" d="M292 837a358 358 0 0 0-75 163h-7l4-1v-2a109 109 0 0 1 6-44 217 217 0 0 1 26-56l8-13 3-6h2l1-2c1-4 4-8 7-11h2v-3l3-4 9-8 11-13Z"/><path fill="#FEFEFE" d="M649 548c6 4 14 10 16 17v8c0 2 0 4-2 6l-7 1-5-5c-3-3-6-3-10-3-5-1-7-2-11-5-3-4-4-8-3-13 4-9 14-9 22-6Z"/><path fill="#FDC801" d="M676 593c2 10 2 23-3 32-6 8-13 11-23 14-7 1-13-1-19-6-10-8-16-19-18-32 5-2 10-2 16-2l1 2c2 7 5 12 12 17 5 2 9 1 14-1 3-1 3-3 4-6l1-3 2-12 4-1 3-1 6-1Zm-9 4-4 13c-1 5-3 8-7 11-5 2-8 2-13 2h-4l-4-3-1-2-3-4-6-12h-8c-1 7 2 11 6 17 6 8 13 12 23 14 7 0 13-1 19-6 4-4 9-9 9-16a434396698 434396698 0 0 1-2-14h-5Z"/><path fill="#FFE178" d="M326 597c2 1 4 2 5 5l2 7c1 6 2 11 6 16v2c8 2 15 3 23 0 7-4 9-12 11-19l5-1c3 4 3 7 2 12l-3 5-3 1-1 2c-2 5-7 7-12 9-8 2-18 2-26-2-10-6-10-6-12-12v-6l-1-12c0-3 0-3 2-5l2-2Z"/><path fill="#020201" d="M343 894v7l-1 3v3a251 251 0 0 0-6 30c-4 20-3 41-3 62h-5c-2-4-2-8-2-13v-11c0-13 1-26 4-39l1-3a467 467 0 0 1 12-39Z"/><path fill="#010101" d="m654 896 3 3v2l1 3 1 3 1 3a1144 1144 0 0 1 9 40l1 2c5 32 5 32 5 43v4h-7v-2a373 373 0 0 0-6-51c-1-13-4-26-7-38l-1-12Z"/><path fill="#FFEEB4" d="M507 709v3l-2 1c-8 3-17 8-25 14l-4 2c-9 5-13 12-17 21l-1 2-1 2c-2-4 1-12 2-16l8-10 3-2 8-7 2-2c8-6 17-10 27-8Z"/><path fill="#B08203" d="M519 706c9 0 17 3 25 7-4 14-10 27-23 35-5 2-9 4-15 4l8-5c8-4 12-9 15-16 2-6 2-12 0-17l-10-7v-1Z"/><path fill="#FDC800" d="M531 751c-2 7-8 10-14 13-7 3-13 3-20 3h-9v-2l-5-2c3-3 5-4 9-4 12-1 24-3 34-8h5Z"/><path fill="#FDFDFD" d="M618 570h7l4 1c2 3 1 6 1 9l-4 6-1 4-3 4-2 1c-3-5-4-9-4-16v-2l2-7ZM341 566l3 3c0 6-2 9-6 13l-1 2-4 4-5-1c0-7 0-13 5-19 3-3 5-3 8-2Z"/><path fill="#FFFEFD" d="M667 597h5c3 7 3 14 1 21l-5 4-5-5 1-8v-2c0-4 1-7 3-10Z"/><path fill="#FFFEFC" d="M374 607h4c3 4 3 7 2 12-2 4-4 6-8 8l-5 1c-1-4 1-7 3-11l3-9 1-1Z"/><path fill="#FFE279" d="m663 612 1 3c1 4 1 4 4 6 0 3-1 4-4 7-3 2-4 3-8 3l5-8-4 2c-5 1-10 2-15 1l-4-4h2c9 1 9 1 17-2l6-8Z"/><path fill="#FFFEFE" d="m629 618 9 5c6 4 12 2 19 1l4-1c-1 4-2 5-5 7-9 1-16-1-24-6-3-3-3-3-3-6Z"/><path fill="#FFFEFC" d="M617 602h8c2 4 2 7 2 11l-2 3c-3 0-5-1-7-3l-1-11Z"/><path fill="#FFFEFD" d="m329 617 5 6c5 8 12 9 21 11v2c-4 2-7 1-11 0-7-2-11-6-15-12v-7Z"/><path fill="#746D53" d="M199 745c6 2 10 5 14 9l10 7 8 6-15-7-3-1-16-10 3-1-1-3Z"/><path fill="#010100" d="M543 741c1 4 1 5-1 8l-1 2-1 2c-3 6-7 12-14 15l-7 1v-2l5-3c9-5 14-14 19-23Z"/><path fill="#1F1D16" d="m211 753 11 5 10 5 3 1 5 3v4l-4-1-3-1-6-5-5-3c-5-2-8-4-11-8Z"/><path fill="#FFFEFE" d="m326 597 4 3v8h-6l-2-2 1-7 3-2Z"/><path fill="#F1E2AC" d="m210 754 9 5 12 7-2 1-5-2-3-2-3-1-3-2-7-4 2-2Z"/><path fill="#DFD19F" d="M292 837c0 4-2 5-4 9l-3 3c-2 3-4 4-8 6l5-7 1-2 2-2 2-1 5-6Z"/><path d="m499 731 2 3-4 1h-10c4-4 6-4 12-4Z"/><path fill="#E7D9A5" d="m174 729 20 16c-4 0-7-3-10-5l-2-2-8-7v-2Z"/><path fill="#3F3B30" d="M161 715c5 2 7 6 10 10l4 4c-3 0-3 0-5-2l-3-2-2-3-4-7Z"/><path fill="#FFE176" d="m372 607 2 1-2 6-1 3-4 6 1-6v-3l4-7Z"/><path fill="#FCECB2" d="m499 728 2 2-1 3-1-1-11 1 3-4 8-1Z"/><path fill="#514D3A" d="m231 764 9 3v4l-9-3v-4Z"/><path fill="#0E0D0B" d="m654 896 2 1c1 7 1 7-1 11l-1-12Z"/><path fill="#DED09E" d="m228 407 2 1-2 4-2 2-4 3 6-10Z"/><path fill="#0A0908" d="M343 894v7l-1 3v2c-2-3-2-4-1-8l2-4Z"/><path fill="#887F62" d="m168 722 7 6-2 2-5-5v-3Z"/></svg>