<svg xmlns="http://www.w3.org/2000/svg" width="1000" height="1000"><path fill="#040304" d="M472 80c26 15 42 51 55 77l3 6a914 914 0 0 1 34 70l2-1c4-3 8-3 12-4l3-1 8-1h2c25-5 50-2 71 12l3 2 3 2 20 18c9 9 17 17 30 18 5-2 7-5 10-9l2-4 1-2 3-9h2c3 21 3 21-1 31l-1 2a33 33 0 0 1-21 21c3 3 7 4 11 6l3 1c12 3 22 2 33-1l4-1v6l-2 3-2 3-7 10 2-1c17-1 32 4 45 15 21 20 25 54 31 82s6 28 23 50l7 1c2-3 2-6 2-10v-5l4-1c8 16 14 32 8 50l-3 5c0 4 2 7 5 11 8 13 15 28 19 44l1 2c6 22 6 48-1 69l-1 2c-8 27-22 51-37 74s-25 45-30 72l1-3c6-16 18-25 35-32 16-6 36-8 53-1 8 3 16 7 22 13l2 1c10 10 17 26 18 39 1 12 0 23-4 35l-1 2a128 128 0 0 1-115 85h-2l-20-2c11 10 24 15 39 16-3 6-8 8-15 11l-13 3-4 1-21-1 15 6-4 3c-9 2-18 4-27 0l1 5v24H208c0-12 0-20 3-31h-3c-10 0-19-4-28-8l-3-1c-8-4-8-4-10-7v-5h3c15-2 15-2 28-10l-3 1c-19 1-33-3-48-16a98 98 0 0 1-29-63c0-12 3-24 11-34 12-10 26-11 41-10a65 65 0 0 1 53 36c3-11 3-20-3-30l-1-2-2-3c-8-8-20-11-31-13-16-3-27-8-38-19l-2-2c-18-16-28-43-33-65l-1-3a176 176 0 0 1-4-45c0-24 4-47 14-69h-3c-5-1-7-4-10-8-5-10-8-22-8-33h5l4 6 8 5c8 0 15-5 21-10 11-13 13-29 14-45 4-46 20-84 55-115l13-9-2-1h-2l-2-1c-9-3-12-9-16-16l-4-6-1-2-4-6c-2-2-2-2-2-5l1-2 2 1 3 1 3 1c11 4 23 2 35 0h3l10-3-2-1-6-4-3-1c-6-4-6-4-7-7v-5c3-3 7-4 11-5 24-8 42-27 58-46 30-33 62-49 106-54l-2-3c-2-3-2-4-2-8h6l2 1c8 4 14 3 22 1h5v-4l2-22v-3c10-85 10-85 22-105l3-1 3-4 1-2c3-2 5-1 8 0Z"/><path fill="#FCD4FE" d="M727 355c4 1 6 4 9 6l2 3 3 3 7 7c9 9 17 20 25 31l4 6c10 13 21 30 25 46l7 17a131 131 0 0 1 8 21l3 11 1 2 2 18 3 18 1 3c2 15 2 15 11 27 6 7 9 16 12 24l1 2c4 11 5 23 4 34v3c0 28-11 55-31 75l-5 6c-13 14-13 14-19 18l-4 3-10 8-2 2a224 224 0 0 1-46 26l-10 5-19 8-3 1-18 5-8 3-7 2h-3a342 342 0 0 1-26 6 679 679 0 0 1-317-5l-8-2a270 270 0 0 1-43-15l-24-9-2-1c-22-10-45-20-62-38l-2-2-3-3-2-2c-16-16-16-16-16-21h-2c-15-26-23-48-23-78v-2c0-20 9-41 19-57a68 68 0 0 0 7-12c5-12 7-23 8-36 1-15 5-27 11-41l1-3 4-8 3-7 13-24 1-2h2l1-2c1-5 4-9 7-12l1-3a1016 1016 0 0 1 15-18l1-2 5-6h19l4 1h17c16 0 31-2 47-4l-8 6c-10 7-24 17-28 29v2h2l14-1h3c14-1 27 5 40 10l13 4 2 1c24 8 49 16 73 7h4c-13 16-13 16-20 21l-1 4a138 138 0 0 0 102-38l2-2c11-10 18-21 24-34l4-6v19c9-2 14-12 19-20l11-23 2 1c15 10 31 18 49 19h2c17 1 35-3 49-13v-2l-2-1c-7-2-12-5-17-9v-2h4c16 0 45-12 58-8Z"/><path fill="#FCD4FE" d="m333 806 9 2 18 4 3 1a407 407 0 0 0 57 7 510 510 0 0 0 67 2 983 983 0 0 0 182-14l5 3 2 1 5 4v2l2 1 9 5a815593961 815593961 0 0 1 15 14 232 232 0 0 1 50 61l1 2c17 31 22 63 22 98h8v1H212l2-1v-2c-1-14 0-27 5-41l1-3a215 215 0 0 1 26-56l8-13 3-6h2l1-2c1-4 4-8 7-11h2v-3l5-5 4-5a228 228 0 0 1 46-44c3-2 5-3 9-2Z"/><path fill="#FE81F4" d="M432 226v2c-4 59-4 59 6 116 8 7 19 9 29 12l3 1 37 6h2c18 1 35-4 51-12l3-2c11-5 20-13 25-24l1-9v-11c-1-13-7-26-12-38a5319 5319 0 0 1-9-22l-2-7a70 70 0 0 1 37-11c31-1 54 12 76 32l9 9c6 7 15 13 25 13 5 0 8 0 12-4l5-7 4-6c1 12-2 18-9 27l2 2c-7 7-14 9-24 10l1 7c9 9 23 13 35 13l14-2h6a98 98 0 0 1-68 39l-29 1c1 5 1 5 4 9l2 1 5 3 2 1 2 1c-15 10-40 10-57 6-12-2-24-7-34-14l-6-1-1 4c-6 14-13 27-24 38h-1v-9l-1-11-1 3c-7 13-14 24-24 34l-1 1c-18 19-41 31-66 38l-2 1c-12 3-24 4-36 5l7-7 14-17v-3l-2 1h-2l-2 1-3 1-3 1-14 1-2 1c-20 0-39-8-56-14-25-9-25-9-50-13h-14c6-13 20-23 33-30l2-1c4-2 8-3 13-3v-3l-13 1-4 1h-4l-4 1-8 1-32 1h-2c-52 0-52 0-66-9l-3-4-2-3-2-3-2-3-5-8 6 1 22-1 2-1c5 0 9-2 14-3l5-1v-2h3l-15-15 8-4c22-9 38-24 53-41 20-24 43-43 73-53l2-1c14-4 28-3 43-3l-4-9h9l6-1 8-1Z"/><path fill="#F581F6" d="M750 337c18 0 33 4 47 17 18 18 21 46 27 71 7 34 7 34 27 62 4 1 8 2 12 1l5-8c5 8 5 19 4 28l-5 10c-2 3-2 3-1 7l1 2 1 2 2 3c19 33 32 69 22 107l-1 5-1 2c-7 27-22 51-37 75-15 25-28 50-30 80v2c-1 16 3 34 14 46 8 8 18 13 29 12 9-1 16-4 23-11 7-9 10-20 9-32-2-8-4-15-11-20s-13-6-21-5l-8 3-3 1c-3 5-3 11-2 17 2 4 4 7 8 9h5l3-1h2v-2h-2c-7 0-7 0-11-3l-2-11c2-4 4-6 8-8 6-2 12-2 18 1 7 4 10 8 12 15 2 10 1 20-4 29-5 7-10 11-19 14-10 1-18 0-27-6-10-8-15-19-17-32v-14c0-9 0-9 3-13l4-4 3-4c9-13 26-21 42-24 18-2 36 0 51 11 13 10 21 22 24 38 1 13 0 26-4 38l-1 4c-5 14-13 26-24 37l-2 3c-4 5-9 8-14 12l-2 1c-22 18-50 28-79 25l-21-6c3 6 6 11 11 15l2 2c9 6 19 8 30 10-3 4-7 4-11 6h-2c-13 4-25 2-38-1l-2-1c-3-1-6-2-8-5 1 6 6 11 11 15l9 4v1h-23l-2-11c-1-11-4-21-8-32l-1-2c-3-10-7-19-12-27l-1-2-17-25-2-2c-8-11-18-21-28-31l-2-1c-2-3-4-4-7-5l-2-2-9-7-2-1v-2l-2-1-8-4c-8-5-8-5-17-8v-2l2-1a8612 8612 0 0 0 26-7 205 205 0 0 0 52-19l24-14 5-2v-2l6-4a260 260 0 0 0 51-43l3-5 2-2c18-18 25-45 25-69 0-20-3-36-11-54l-1-4h-2l-3-5-3-5-5-11v-2l-4-17c-2-11-5-21-9-32l-5-18-5-14-4-10a171 171 0 0 0-11-24c-5-11-11-22-19-32l-1-5h-2l-3-5-8-11-5-6-28-30 2-2 9-7 3-2 3-3Z"/><path fill="#FE81F4" d="m229 393-1 1-2 2-2 2-2 5-4 4-2 3-1 2h-2v2l-3 6-4 6h-2l-1 3-5 11-8 15-1 3-4 9-1 3c-9 22-16 46-19 71-1 7-4 14-7 21l-1 3-10 20a133 133 0 0 0-8 23c-9 29-3 62 11 88a147 147 0 0 0 41 46c9 8 9 8 19 12l8 4 2 1a3592 3592 0 0 1 30 16l3 2a362 362 0 0 1 21 9l4 1 2 1 6 3 40 13-5 3c-11 7-19 14-28 23l-2 1a205 205 0 0 0-23 26h-2l-1 2-4 7-2 2a641 641 0 0 1-16 25l-5 8a177 177 0 0 0-18 41l-3 10-4 10c-11 1-19-1-29-6l-2-2 2-1c11-4 24-12 29-23l1-5-12 4c-9 5-18 5-27 3-18-5-31-18-40-33-8-16-14-36-10-53 3-8 7-14 14-19a64 64 0 0 1 79 23l2 3v8c-5 9-11 16-21 19-7 1-13 1-18-3-7-6-11-13-11-22 0-3 0-4 2-7 4-3 7-3 12-3 4 2 8 4 10 8v6l4-1v-8c-3-5-7-9-13-10-5-1-9-1-13 2-5 4-7 7-7 14 0 8 4 17 10 23 7 6 12 8 22 7 7-1 15-5 20-11 10-13 16-27 14-44-3-10-8-19-17-25-8-4-16-6-25-8-21-4-36-12-48-30-11-17-19-34-24-54v-2c-3-13-4-26-4-40v-2c0-13 1-25 4-38l1-3 12-37-7 3h-6c-6-6-9-14-10-22l3 2c6 3 12 3 19 1 12-5 19-15 24-27 4-12 5-24 6-36 2-33 11-60 31-87l2-3c26-34 26-34 37-30Z"/><path fill="#FEBEF9" d="M466 83c10 1 16 11 21 18l14 22 1 2c17 29 31 59 44 89l1 2 29 72 1 3 1 3 1 3c4 10 1 19-3 29-8 14-24 22-38 28-22 6-44 4-66 0h-3c-19-4-19-4-26-10-3-6-4-11-5-17v-3c-2-16-2-31-2-47v-3c0-56 6-114 21-168l1-3 2-7v-2c1-4 3-7 6-11Z"/><path fill="#FE81F4" d="M750 337c18 0 33 4 47 17 18 18 21 46 27 71 7 34 7 34 27 62 4 1 8 2 12 1l5-8c5 8 5 19 4 28l-5 10c-2 3-2 3-1 7l1 2 1 2 2 3c19 33 32 69 22 107l-1 5-1 2c-7 27-22 51-37 75-13 22-24 44-29 70h-2l-1 3-3 1c-8-5-12-14-14-24l-1-17v-3c0-11 0-11 4-15l2-2 14-13 2-2a1389 1389 0 0 0 7-7l3-5 2-2c18-18 25-45 25-69 0-20-3-36-11-54l-1-4h-2l-3-5-3-5-5-11v-2l-4-17c-2-11-5-21-9-32l-5-18-5-14-4-10a171 171 0 0 0-11-24c-5-11-11-22-19-32l-1-5h-2l-3-5-8-11-5-6-28-30 2-2 9-7 3-2 3-3Z"/><path fill="#C682FE" d="M432 226v82l-12-6-9-1-3 1c-17 0-29 7-41 19l-10 13c-9 13-21 23-37 26h-12l-14-1c-8-1-15-1-22 3l-2 1-3 3-5 7-8 12c-14-2-26-8-38-15l8-4 21-9 1-3h3l-15-15 8-4c22-9 38-24 53-41 20-24 43-43 73-53l2-1c14-4 28-3 43-3l-4-9h9l6-1 8-1Z"/><path fill="#C581FE" d="M603 227c31-1 54 12 76 32l9 9c6 7 15 13 25 13 5 0 8 0 12-4l5-7 4-6c1 12-2 18-9 27l2 2c-7 7-14 9-24 10l1 7c9 9 23 13 35 13l14-2h6a94 94 0 0 1-59 38c-10 1-21-4-29-10-9-8-13-17-18-28-2-5-4-9-8-13l-1-4c-5-2-9-4-14-3-4 3-7 6-9 10-7 10-16 15-27 18h-7l1-3 1-16v-3c-1-14-7-27-12-40a5319 5319 0 0 1-9-22l-2-7c13-7 22-10 37-11Z"/><path fill="#FE81F4" d="M411 301h2c7 0 12 2 18 6a857 857 0 0 0 4 19v2c0 10 0 10 5 18 10 6 21 8 32 11-14 15-33 18-52 19h-5a80 80 0 0 0-44 12c-5 5-8 12-10 19-3 7-7 12-14 15l-2 1 41 20h-7l-3-1-3-1-3-1-9-4c-25-9-25-9-51-13h-14c6-13 20-23 33-30l2-1c4-2 8-3 13-3v-3l-13 1-4 1h-4l-4 1-8 1-32 1h-2c-52 0-52 0-66-9l-3-4-2-3-2-3-2-3-5-8 6 1 22-1 2-1c5 0 9-2 14-4l6 1c-9 5-19 9-29 12 9 8 24 15 36 15l5-7c8-12 8-12 13-16l1-1c4-2 8-2 12-2h11c11 2 24 3 34-2l3-1c10-5 17-13 24-22 14-19 29-32 54-32Z"/><path fill="#C581FE" d="m777 758 2 1-2 3c-8 13-13 28-12 44v3c0 13 0 13 6 25l9 3c19 4 19 4 24 10 3 4 4 7 3 12-2 9-7 16-11 24l-2 3-1 2c-5 9-2 21 1 31 5 13 13 23 25 29 7 3 12 2 19 1l12 1c-3 4-7 4-11 6h-2c-13 4-25 2-38-1l-2-1c-3-1-6-2-8-5 1 6 6 11 11 15l9 4v1h-23l-2-11c-1-11-4-21-8-32l-1-2c-3-10-7-19-12-27l-1-2-17-25-2-2c-8-11-18-21-28-31l-2-1c-2-3-4-4-7-5l-2-2-9-7-2-1v-2l-2-1-8-4c-8-5-8-5-17-8v-2l2-1 24-6 2-1a205 205 0 0 0 52-19l24-14 5-2v-2l2-1Z"/><path fill="#C682FE" d="M481 359a1842 1842 0 0 0 10 2l24 3-8 7c-7 6-12 13-16 22-7 11-14 18-26 23l-13 1a4582 4582 0 0 0-20 0h-3c-6 1-11 3-16 7l-2 1-1 2-5 7c-9 11-9 11-15 11-4 0-6-1-10-3l-4-2-2-2-20-9-3-1-3-2-5-3 2-1 3-2 2-1c6-4 9-9 11-15 4-11 8-17 18-22 14-6 28-6 43-7 12-1 23-1 34-7l3-2 8-5c5-4 8-3 14-2Z"/><path fill="#C581FD" d="m189 742 13 8 8 4 9 5 17 9 8 4a338 338 0 0 0 23 11c19 8 39 16 59 21l-5 3c-11 7-19 14-28 23l-2 1a205 205 0 0 0-23 26h-2l-1 2-4 7-2 2a641 641 0 0 1-16 25l-5 8a177 177 0 0 0-18 41l-3 10-4 10c-11 1-19-1-29-6l-2-2 2-1c11-4 24-12 29-23l1-5-11 3 6-18 1-2 14-26 13-22c5-9 10-17 16-24 4-5 5-8 5-14-1-9-6-15-12-20l-15-10a97 97 0 0 1-42-48v-2Z"/><path fill="#49215C" d="M366 537c11 6 18 17 22 29 4 23 2 44-10 64-6 9-13 15-23 18-8 1-15-1-21-6a55 55 0 0 1-19-39c-1-17 0-40 11-54 11-12 24-20 40-12ZM657 538c15 11 21 27 24 44 2 16 1 35-9 48-6 8-12 13-21 14s-17-2-24-7a78 78 0 0 1-21-53c0-15 2-28 11-40 12-12 26-14 40-6Z"/><path fill="#FE81F4" d="M543 359v2a535861446 535861446 0 0 1 3 15l-17 17c-12 9-25 23-27 39l1 12 6-2c-12 12-32 18-48 23l-2 1c-12 3-24 4-36 5l7-7 14-17v-3l-2 1h-2l-2 1-3 1-3 1-14 1h-3c-9 0-16-1-24-3l2-2c5-4 10-8 13-13 5-6 10-12 17-14a119 119 0 0 1 13 0h8c16 0 16 0 31-7l2-1c6-5 10-12 14-18a96 96 0 0 1 17-22c7-6 12-7 21-8l14-2Z"/><path fill="#C581FE" d="M943 783c3 3 4 6 6 10l1 3c7 16 6 35 0 51l-1 4a106 106 0 0 1-27 41l-5 4c-9 1-16-2-23-8-5-4-8-9-11-14-4-5-9-7-14-9l-3-3 3-1c10-3 17-6 23-15 3-6 6-12 6-19 7 1 12 3 18 7 5 4 5 4 10 5l3-2c1-8-2-14-5-21-3-8-6-15-3-23 2-4 3-7 7-9 5-2 10-2 15-1Z"/><path fill="#FDECBB" d="m229 393-1 1-2 2-2 2-2 5-4 4-2 3-1 2h-2v2l-3 6-4 6h-2l-1 3-5 11-8 15-1 3-4 9-1 3a272 272 0 0 0-20 73h-2v2a58 58 0 0 1-36 39l7 6-5 26c-2 12-5 23-6 35v2c-5 39 3 77 26 109 13 17 28 26 49 33 14 4 28 9 36 23 4 11 2 21-1 32h-1v-3c0-15-1-26-12-37-8-8-19-10-30-12-21-4-36-12-48-30-11-17-19-34-24-54v-2c-3-13-4-26-4-40v-2c0-13 1-25 4-38l1-3 12-37-7 3h-6c-6-6-9-14-10-22l3 2c6 3 12 3 19 1 12-5 19-15 24-27 4-12 5-24 6-36 2-33 11-60 31-87l2-3c26-34 26-34 37-30Z"/><path fill="#C581FE" d="m198 831 3 2 3 2a62 62 0 0 1 16 18v8c-5 9-11 16-21 19-7 1-13 1-18-3-7-6-11-13-11-22 0-3 0-4 2-7 4-3 7-3 12-3 4 2 8 4 10 8v6l4-1v-8c-3-5-7-9-13-10-5-1-9-1-13 2-5 4-7 7-7 14 0 8 4 17 10 23 4 4 4 4 9 6v2c-7 0-13 1-19-4l-8-8c-2-2-3-3-6-3l-2 3 3 4 6 4c6 4 11 7 14 13 2 6 1 9-2 14-2 4-4 8-8 11a87 87 0 0 1-29-53c0-11 2-24 9-32 14-12 40-15 56-5Z"/><path fill="#FE82F4" d="m432 226-1 29-2-1-18-3h-2c-18-1-35 6-48 17-8 8-13 17-18 27l-2 3-1 2-5 6h-17c-17-1-30 5-42 17l-13 16-13 13-8-6-2-2-2-2-4-4 3-1c25-10 43-26 61-46 19-22 41-41 70-50l2-1c14-4 28-3 43-3l-4-9h9l6-1 8-1Z"/><path fill="#FE81F4" d="M932 773c9 7 9 7 10 11h-2c-8 0-8 0-15 3-4 5-5 9-4 15 1 7 4 13 6 19 3 5 4 10 3 16l-3 3c-4 0-7-2-10-4l-3-1-5-4c-3-2-6-3-10-3v-3c-3-16-3-16-12-27-6-4-10-5-17-5h-8l-1-2-1-2-1-2c-1-2-2-4-5-5l-7-1-3-1h-3c22-24 66-29 91-7Z"/><path fill="#C481FD" d="m861 609 1 1 10 7c5 3 8 7 10 12 2 8-2 15-6 22l-3 6c-21 31-21 31-28 67l4 4-2 3c-11 20-19 38-23 60h-2l-1 3-3 1c-8-5-12-14-14-24l-1-17v-3c0-11 0-11 4-15l2-2 14-13 2-2a1389 1389 0 0 0 7-7l3-5 2-2c17-17 25-43 25-66l-1-30Z"/><path fill="#DB96FD" d="M362 546c8 4 15 10 18 18 2 5 2 9 1 14l1 9v3l1 3 2 1c1 14-4 27-13 38-6 6-13 11-22 11-7 0-12-3-17-8a62 62 0 0 1-14-42l1-3c4 0 5 0 9 2 3 3 3 6 4 10 1 5 2 9 5 14l1 3c3 3 8 3 12 3 7-2 12-6 16-12 2-4 3-7 3-11l-2-3c-3-4-3-8-3-13l-4-1c-17-4-17-4-22-11-2-4-2-10 0-15 4-10 12-14 23-10Z"/><path fill="#FE81F4" d="M603 227c31-1 54 12 76 32l9 9c6 7 15 13 25 13 5 0 8 0 12-4l5-7 4-6c1 12-2 18-9 27l2 2-3 3-2 1c-5 4-9 4-14 3-15-2-24-13-34-23-15-17-34-31-58-32-16-1-30 2-42 13-8-16-8-16-8-20 13-7 22-10 37-11Z"/><path fill="#040404" d="m618 706 2 1v9c3 11 0 25-6 35-7 11-19 19-33 22-16 3-33 0-46-9l-2-5-7-1 3-4 14-4c12-2 22-6 33-11l2-1c16-8 29-18 40-32Z"/><path fill="#DC96FE" d="M655 551c7 5 14 11 15 20l1 5c0 4 1 9 3 12l4 1c1 18-3 32-15 45-5 5-10 6-17 5-9-1-16-7-22-13-7-9-12-19-13-30 3-2 4-3 8-3l7 4 1 6c2 7 4 12 10 16 7 2 12 1 17-2 6-4 9-8 10-14 1-5 0-9-3-13v-3l-3-1-8-5-3-2-3-2-3-2c-9-7-9-7-10-13-1-4 0-6 2-10 6-6 15-5 22-1Z"/><path fill="#C582FE" d="m568 347 1 2 1 3 1 3 2 4c0 6 0 10-3 16l-2 4-1 3-1 9c-1 6-3 10-8 15l-4 3v-9l-1-11-1 3c-8 16-18 28-30 40l-2 2c-4 4-8 8-14 10h-2l-2 1c-3-10 0-20 5-29a107 107 0 0 1 18-21l12-11 8-8-1-2-1-15 3-2 5-2 2-1 10-5 5-2Z"/><path fill="#FEEEBB" d="m436 258 2 2 6 5c12 9 12 22 13 36 2 10 5 20 10 29l1 5 3 3 4 4c5 8 12 11 21 14v1c-8 0-15-1-22-3h-4c-9-2-19-5-27-10-3-5-4-10-4-15l-1-4a327 327 0 0 1-2-67Z"/><path fill="#FEEDBB" d="M130 597h1l-3 22c-10 48-11 95 16 138 13 19 31 30 53 38 14 4 28 9 36 23 4 11 2 21-1 32h-1v-3c0-15-1-26-12-37-8-8-19-10-30-12-21-4-36-12-48-30-11-17-19-34-24-54v-2c-3-13-4-26-4-40v-2c0-20 2-58 17-73Z"/><path fill="#FEA8F8" d="M774 612c4 1 4 2 7 5 3 7 3 16 4 24l1 2c0 8 1 15-3 21-3-2-4-4-5-8l-1-5v-3l-1-5-1-11-1-6-5 7-1 3-2 2c-15 31-15 31-25 35-4 0-6-1-9-4l-4-7-1-2c-10-20-10-20-10-24-4 3-6 7-9 11a13207 13207 0 0 1-10 16l-2 2c-2 3-3 6-7 7v-7l2-3 1-3a3882 3882 0 0 1 4-7c13-23 13-23 17-26 4-1 6 0 10 2a2195 2195 0 0 0 11 19l1 3 5 9c9-9 15-22 21-33 8-13 8-13 13-14Z"/><path fill="#FB80F1" d="M711 793v4c-1 17-1 17 7 32l15 9a35 35 0 0 1 19 22 39 39 0 0 1 2 15l-2 4-1-2a1541 1541 0 0 0-8-9 259 259 0 0 0-37-37l-2-2-9-7-2-1v-2l-2-1-8-4c-8-5-8-5-17-8v-2l2-1 10-2 4-1a655 655 0 0 0 29-7Z"/><path fill="#FE81F4" d="m838 802 3 3 1 12c0 6 1 10 5 16 5 5 11 7 19 7s14-2 20-6c4-4 6-8 8-13h1c0 12-3 20-11 29-7 6-14 7-23 7-10-1-17-5-24-13-5-7-9-16-10-25v-10c3-3 6-7 11-7Z"/><path fill="#C581FE" d="M202 837c4 0 6 1 8 3 11 13 11 13 11 18-2 8-9 14-15 19-6 3-12 4-19 3-7-2-12-8-15-14-2-5-3-10-2-15l7-6c6-1 9 1 14 4 3 3 3 4 3 7v3l3 1 3 4 4-1c0-5 0-8-2-12s-3-7-2-12l2-2Z"/><path fill="#FEFEFE" d="M362 546c8 4 15 10 18 18 2 5 3 9 1 14-2 4-4 6-8 6a50 50 0 0 1-21-4c-5-2-10-4-13-9-2-6-2-11 1-17 4-9 12-11 22-8Z"/><path fill="#030103" d="M366 537c11 6 18 17 22 29 4 23 2 44-10 64-6 9-13 15-23 18-8 1-15-1-21-6a55 55 0 0 1-19-39c-1-17 0-40 11-54 11-12 24-20 40-12Zm-34 12a74 74 0 0 0-13 55c2 13 8 26 17 35 6 4 11 5 18 4 10-2 18-9 23-18 9-16 12-37 8-55-4-13-10-22-22-29-10-5-23-1-31 8Z"/><path fill="#FB80F1" d="m221 399 2 1-5 7-2 3-1 2h-2v2l-3 6-4 6h-2l-1 3-5 11-8 15-1 3-4 9-1 3c-7 18-13 36-17 55h-1c-1-42-1-42 5-59l1-2a125 125 0 0 1 49-65Z"/><path fill="#FDEDBB" d="M185 825v1h-4c-13 0-27 1-38 10-8 9-9 21-9 32a87 87 0 0 0 14 35c6 12 15 19 28 23l20 5c-5 3-12 3-18 2-17-3-29-14-39-28a83 83 0 0 1-15-57c3-9 7-16 15-21 16-7 30-5 46-2Z"/><path fill="#FEA8F8" d="M253 633c3 1 3 3 5 6l1 6 1 4 1 4c1 11 1 11 5 22h6c8-3 14-9 20-15l7-6 5 2a37 37 0 0 1-1 17c0 5-2 8-5 12l-3 1c-2-2-3-3-3-5v-8l-2 2c-13 10-13 10-22 11-4 0-6-1-9-3-6-8-6-18-7-28a2388 2388 0 0 0-2-14c-4 0-6 2-9 5l-1 2-22 21a17171 17171 0 0 1-14 14l-2-1 2-2 14-16 20-22 3-3c7-7 7-7 12-6Z"/><path fill="#020102" d="M657 538c15 11 21 27 24 44 2 16 1 35-9 48-6 8-12 13-21 14s-17-2-24-7a78 78 0 0 1-21-53c0-15 2-28 11-40 12-12 26-14 40-6Zm-38 12c-9 13-11 32-8 48 3 15 11 29 24 38 7 3 13 4 20 3 8-3 14-10 18-18 7-16 7-36 1-53-4-11-11-23-22-28-13-4-25 0-33 10Z"/><path fill="#FEFEFE" d="M655 551c7 5 13 11 16 21 0 5 0 8-3 13-2 2-2 2-5 2-9-1-16-7-23-13l-2-1c-4-3-7-6-7-11-1-4 0-6 2-10 6-6 15-5 22-1Z"/><path fill="#FDEDBB" d="M432 226v2l-16 4 2 2v6h-2c-14 0-27-1-40 4l-2 1a175 175 0 0 0-70 44l-8 9-10 10-7 9c-9 10-20 19-33 25l-3 1-1 3-8-7 8-4c22-9 38-24 53-41 20-24 43-43 73-53l2-1c14-4 28-3 43-3l-4-9h9l14-2Z"/><path fill="#B256AB" d="M575 290h2c4 13 5 22 0 35-6 10-16 19-26 23h-6l8-12c6-10 9-22 9-33l1-6 11-6 1-1Z"/><path fill="#FEEEBB" d="M247 357c-9 5-19 9-29 12 18 16 43 17 66 19l8 2v1c-65 1-65 1-81-9l-3-4-2-3-2-3-2-3-5-8 6 1 22-1 2-1c5 0 9-2 14-4l6 1Z"/><path fill="#FDEDBB" d="m344 390-3 2c-13 10-13 10-22 24l3 1c23 5 43 16 64 26h-7l-3-1-3-1-3-1-9-4c-25-9-25-9-51-13h-14a75 75 0 0 1 35-31c9-4 9-4 13-2Z"/><path fill="#FE81F4" d="m199 831 6 6-4 2c0 5 0 8 2 12s3 7 2 12l-2 2c-3 0-4-1-6-3l2-6c0-4-1-6-3-9-6-6-10-7-19-7-3 0-5 1-8 3l-1-1c-7-6-18-5-26-5l10-7 3-1c14-5 30-6 44 2Z"/><path fill="#FDEDBB" d="M440 202c4 1 7 3 10 7l1 8v10a1751 1751 0 0 0 1 44l-7-6-2-2c-4-4-7-6-8-12a118 118 0 0 1 2-16 533 533 0 0 1 3-33Z"/><path fill="#FDEEBC" d="m459 99 3 2a267 267 0 0 1-4 29l-3 12v5l-2 14-3 46-2-2-5-4-2-4v-7l1-4v-2l3-19 1-3 7-39v-2l6-22Z"/><path fill="#FB80F1" d="m281 790 15 4 30 10-5 3c-8 5-16 11-23 18l-4 2v-3c-2-10-6-19-11-29l-2-5Z"/><path fill="#B156AA" d="m553 231 3 6 1 3a4673 4673 0 0 1 14 34l1 3 1 3 1 3v4c-1 3-3 4-5 5l-3 2-4 1v-2c-4-21-9-41-16-61 4-2 4-2 7-1Z"/><path fill="#ECC8FF" d="M324 600h3l1 3c2 9 4 17 12 24 6 2 11 3 17 1 5-3 8-6 10-11s2-5 6-6l3-1c2 2 2 2 2 5 0 8-5 12-11 17-5 4-11 6-18 6-9-2-15-6-20-14-5-7-8-12-7-21l2-3Z"/><path fill="#0C0A0C" d="M343 894v7l-1 3v3a251 251 0 0 0-6 30c-4 20-3 41-3 62h-5c-2-4-2-8-2-13v-11c0-13 1-26 4-39l1-3a467 467 0 0 1 12-39Z"/><path fill="#FDEDBB" d="m507 442 2 1c-26 17-55 27-86 28l2-2 1-1 4-4 11-13 2-2h1v4l-1 3v4c31-5 31-5 61-16l3-2Z"/><path fill="#090809" d="M654 897h2a1188 1188 0 0 1 13 53l1 2c5 32 5 32 5 43v4h-7v-2a373 373 0 0 0-6-51c-1-13-4-26-7-39l-1-10Z"/><path fill="#FDFDFD" d="m588 743 4 3 2 3 5 10c-7 5-15 9-24 9l-1-3-2-3-1-3-4-6 2-1 7-3 2-1 3-1 2-1 5-3Z"/><path fill="#FEEEBB" d="M211 933h1v2l-1 4v3c0 4 1 5 3 8l3 2-4 10c-11 1-19-1-29-6l-2-2 2-1c10-4 22-10 27-20Z"/><path fill="#EDC9FF" d="M671 589h3l-1 6c0 3 1 3 3 5 0 9-4 17-10 24-3 3-6 6-10 7l-4-1v-6l5-4c5-6 8-12 9-20l2-4-3-1c1-4 2-6 6-6Z"/><path fill="#FDECBB" d="M603 227c14-1 31 2 44 8l3 3h-2c-26-6-51-8-75 3l-3 2h-3l-1-5c13-7 22-10 37-11Z"/><path fill="#ECC8FF" d="m620 599 4 2 3 7c3 8 8 13 17 17l3 4v2l-5 1c-5 0-10-2-14-6-6-6-11-15-11-24l3-3Z"/><path fill="#FDFDFD" d="M608 727c3 3 5 5 6 9-1 8-6 14-11 20l-5-7-6-8 13-10 3-4Z"/><path fill="#FEEDBB" d="M184 845c5 2 7 4 9 8l-11-1c-3 4-4 7-4 13l1 2 1 3 3 7c-6-3-9-7-12-13-1-4-2-9-1-13 4-5 7-7 14-6Z"/><path fill="#B256AB" d="M526 173c3 3 4 7 6 10l1 2 3 6 1 2 11 25 1 3c2 5 2 5 1 8l-5 1-1-2-14-42-2-4-1-3-1-6Z"/><path fill="#FCFCFC" d="m564 756 3 6 1 3 1 3c-17-1-17-1-23-4l-2-5 12-3 2-1 6 1Z"/><path fill="#B7A7BE" d="m379 580 2 1 1 12-9-1-2 7c-3-3-5-6-6-10v-5h7l7-4ZM327 565l6 1 2 5c-3 10-3 10-6 13l-5-1c-2-4-1-8 0-13l3-5Z"/><path fill="#FD81F4" d="M945 819c3 0 5 1 7 3 3 3 3 6 2 10l-3 12h-1l-1-3-4-22Z"/><path fill="#1B131F" d="m199 745 10 5c10 7 20 12 31 17l-2 3c-7-3-14-7-20-12l-12-4-4-5-3-2v-2Z"/><path fill="#B1A0B9" d="m618 572 5 1v11l-2 2-4-1c-2-3-2-4-2-8l3-5Z"/><path fill="#FFFEFE" d="M504 347h2l43 1c-7 6-16 5-25 4l-20-4v-1ZM436 255l7 8 28 22-2 1c-12-6-25-17-33-28v-3Z"/><path fill="#FEFDFE" d="m472 109 8 4c5 2 9 2 14 2l1-2 4 8c-9-1-20-4-27-10v-2Z"/><path fill="#F1D5FE" d="M373 592h8l1 3c-3 6-3 6-7 7h-2l-2-2 2-8Z"/><path fill="#FFFDFE" d="m516 154 2 2c-6 5-9 7-17 6s-8-1-11-4h2c8 0 15 0 23-3l1-1Z"/><path fill="#AD9BB5" d="M670 580c3 2 3 3 4 6v3l-3 1c-4 1-5 2-7 5-3-5-3-5-3-8l3-1c4-1 4-2 6-6Z"/><path fill="#B6A5BD" d="m327 565 6 1 2 6-3 4-7-3 2-8Z"/><path fill="#FE83F4" d="M184 851h3l3 1 4 1-1 2-2-1h-6c-3 3-4 7-4 11v7c-2-4-4-7-4-11 1-4 2-10 7-10Z"/><path fill="#FFFEFE" d="M507 232h17l4 1h3c3 0 3 0 5 2-3 2-7 1-10 1h-2c-6 0-11 0-16-2l-1-2ZM514 300h34l-3 3h-13l-18-2v-1Z"/><path fill="#FFECBD" d="M733 264h1v11c-2 3-5 4-8 5l-3-1 1-1c4-5 7-9 9-14Z"/><path fill="#FBEBBA" d="m466 83 3 1-5 15-4-4 2-4 1-3 3-5Z"/><path fill="#FEEDBC" d="M553 390h2l4 15-5 4v-9l-1-10Z"/><path fill="#FEFDFE" d="m574 287 2 1c-2 5-5 6-9 8l-10 2 8-5 9-6Z"/><path fill="#473454" d="m199 745 12 7-1 3c-4-1-7-4-10-7l-1-3Z"/><path fill="#FFFEFD" d="m438 315 18 12-1 2-7-4-2-2-2-1-1-1-5-4v-2Z"/><path fill="#332A33" d="M343 894c2 3 0 6 0 9l-1 4-1 3-3-3c0-5 3-9 5-13Z"/><path fill="#443944" d="M654 897h2l1 5 1 3c0 3 0 4-2 7l-2-15Z"/><path fill="#FFFEFC" d="M441 199c5 2 7 6 10 10l-10-7v-3Z"/><path fill="#FFF" d="m460 96 8 10c-3-1-6-3-8-6v-4Z"/><path fill="#E2DCE5" d="m325 573 6 1v3l-5-1-1-3Z"/><path fill="#F0E0B2" d="M426 226h6v2l-8 1 2-3Z"/></svg>