<svg id="Assets" xmlns="http://www.w3.org/2000/svg" viewBox="0 0 800 800"><defs><style>.cls-1{fill:#eee6e8;}.cls-2{fill:#e9bdc7;}.cls-3{fill:#c6909c;}.cls-4{fill:#ffaf00;}.cls-5{fill:#ff2e92;}.cls-6{fill:#0088a7;}.cls-7{fill:#e0c9cf;}.cls-8{fill:#fff;}.cls-9{fill:#fadee4;}.cls-10{fill:#5f494d;}.cls-11{fill:#ffc85b;}.cls-12{fill:#d30d67;}.cls-13{fill:#006a86;}.cls-14{fill:#33c4cf;}.cls-15{fill:#c3f5ff;}.cls-16{fill:#ffb077;}.cls-17{fill:#ffe5ba;}.cls-18{fill:#ff347d;}.cls-19{fill:#ff8abb;}.cls-20{fill:#36bdda;}.cls-21{fill:#ff8bc0;}</style></defs><g id="Forma_1309" data-name="Forma 1309"><path class="cls-1" d="M187.32,177.19c-62-52.93-71.82-69.37-82.6-61.2-9.48,7.19,4.24,27.08,5.81,47.17,2.22,28.19-13.42,131.77,48.6,156.11S243.47,277,245.37,255.2C245.37,255.2,249.33,230.12,187.32,177.19Z"/></g><g id="Forma_1309_copia" data-name="Forma 1309 copia"><path class="cls-2" d="M201.43,263.69s-.65-14.94-34-52.26c-35.25-39.4-41.22-57.28-48-48.72-4.52,5.68,3.13,17.6,2.16,30.34-1.42,18.78-.5,100.14,42,118.9C200.25,328.15,203.27,279.24,201.43,263.69Z"/></g><g id="Forma_1309_copia_3" data-name="Forma 1309 copia 3"><path class="cls-3" d="M201.43,263.69s-.65-14.94-34-52.26c-35.25-39.4-41.22-57.28-48-48.72a6.24,6.24,0,0,0-1.11,2.25c5.8,5.92,14.49,23.75,35.72,52.89,29.5,40.51,28.66,55.45,28.66,55.45.15,9.22-2.53,29.79-11.89,41.11C200.65,321.48,203.14,278.15,201.43,263.69Z"/></g><g id="Forma_1309-2" data-name="Forma 1309"><path class="cls-1" d="M682.67,163.16c1.57-20.09,15.29-40,5.81-47.17-10.77-8.17-20.59,8.27-82.6,61.2s-58,78-58,78c1.9,21.79,24.22,88.42,86.24,64.07S680.46,191.35,682.67,163.16Z"/></g><g id="Forma_1309_copia-2" data-name="Forma 1309 copia"><path class="cls-2" d="M673.86,162.71c-6.82-8.56-12.8,9.32-48.05,48.72-33.38,37.32-34,52.26-34,52.26-1.83,15.55,1.18,64.46,37.91,48.26,42.53-18.76,43.44-100.12,42-118.9C670.73,180.31,678.39,168.39,673.86,162.71Z"/></g><g id="Forma_1309_copia_3-2" data-name="Forma 1309 copia 3"><path class="cls-3" d="M675,165a6.26,6.26,0,0,0-1.12-2.25c-6.82-8.56-12.8,9.32-48.05,48.72-33.38,37.32-34,52.26-34,52.26-1.71,14.46.79,57.79,30.71,50.72-9.36-11.32-12-31.89-11.88-41.11,0,0-.85-14.94,28.66-55.45C660.48,188.71,669.17,170.88,675,165Z"/></g><g id="Forma_1334" data-name="Forma 1334"><path class="cls-4" d="M199.64,335.05s-17.15,41.3-69.67,73.07c-27.78,16.81-38.35,47.41-39,62,0,0,7.18-11.56,39.41-14.34s76.23-5.36,89.14-23.79S199.64,335.05,199.64,335.05Z"/></g><g id="Forma_1334_copia" data-name="Forma 1334 copia"><path class="cls-5" d="M193.29,340.29s-7.75,54.4-60.51,108.27c-27.91,28.49-31.1,68.14-27.41,85.65,0,0,5-16,42.51-29.12s89.07-29.7,98.78-55.58S193.29,340.29,193.29,340.29Z"/></g><g id="Forma_1334_copia_2" data-name="Forma 1334 copia 2"><path class="cls-6" d="M174.63,393.24s2.15,54.9-40.08,117.36c-22.33,33-18.35,72.61-11.57,89.17,0,0,2.06-16.6,36.59-36.26s82.28-45.19,87.19-72.39S174.63,393.24,174.63,393.24Z"/></g><g id="Forma_1334-2" data-name="Forma 1334"><path class="cls-4" d="M670,408.12c-52.52-31.77-69.67-73.07-69.67-73.07s-32.8,78.47-19.89,96.9,56.92,21,89.14,23.79S709,470.08,709,470.08C708.38,455.53,697.81,424.93,670,408.12Z"/></g><g id="Forma_1334_copia-2" data-name="Forma 1334 copia"><path class="cls-5" d="M667.22,448.56c-52.76-53.87-60.51-108.27-60.51-108.27s-63.08,83.35-53.37,109.22,61.28,42.43,98.78,55.58,42.51,29.12,42.51,29.12C698.32,516.7,695.13,477.05,667.22,448.56Z"/></g><g id="Forma_1334_copia_2-2" data-name="Forma 1334 copia 2"><path class="cls-6" d="M665.45,510.6c-42.23-62.46-40.08-117.36-40.08-117.36s-77,70.69-72.13,97.88,52.67,52.73,87.19,72.39S677,599.77,677,599.77C683.8,583.21,687.78,543.63,665.45,510.6Z"/></g><g id="Forma_21" data-name="Forma 21"><path class="cls-1" d="M635.66,533c-14.87-39.69-2.74-80.7-1.13-115.55.89-19.14,20-258.53-235.26-258.53,0,0-151.74-.23-207.88,103.12C153.56,331.61,158,406.7,163.66,430.27c8.4,35,19.54,57.28-.34,107.7-53.22,135,104.62,209.44,235.77,209.44C488.82,747.41,696.47,695.28,635.66,533Z"/></g><g id="Forma_21_copia_13" data-name="Forma 21 copia 13"><path class="cls-7" d="M635.66,533c-14.87-39.69-2.74-80.7-1.13-115.55.76-16.39,14.85-194.27-141.36-245C633.52,229.28,620.31,396.12,619.58,412c-1.61,34.85-13.74,75.86,1.13,115.56C681.52,689.84,473.86,742,384.14,742a371.47,371.47,0,0,1-116.25-18.86c40.83,16,87.5,24.3,131.2,24.3C488.82,747.41,696.47,695.28,635.66,533Z"/></g><g id="Forma_21_copia_12" data-name="Forma 21 copia 12"><path class="cls-8" d="M399.27,158.87S247.53,158.64,191.39,262C153.56,331.61,158,406.7,163.66,430.27c8.4,35,19.54,57.28-.34,107.7-28.74,72.88,4.07,128.12,61,163.52-46.54-35.41-70.53-86.71-44.67-152.3,19.89-50.42,8.74-72.7.34-107.71-5.65-23.56-10.09-98.65,27.73-168.28,56.14-103.34,207.88-103.11,207.88-103.11,60,0,104.87,13.24,138.35,33.73C519.14,177.07,469.63,158.87,399.27,158.87Z"/></g><g id="Rectángulo_1306" data-name="Rectángulo 1306"><path class="cls-2" d="M547.91,574.68C535,549.76,513,535.2,482.38,532.31c-58.24-6.06-109.7-7.35-167.51,0-30.43,3.33-52.68,17.85-65.43,42.51C237,600,233.93,631.38,248.9,668.06c11.84,29.69,36.5,54.44,58.86,69.65,22.75,15.61,43.5,20.16,55.72,23.18,26.1,5.65,38.51,5.47,65.45.68,12.87-2.24,34.9-8.74,58.8-25.11,23.53-16.1,49.08-40.72,61-68.94C563.85,632.25,560.4,599.88,547.91,574.68Z"/></g><g id="NOSE1_copia_2" data-name="NOSE1 copia 2"><path class="cls-2" d="M327,525.45c-14.09-.57-26.76,9.46-28.3,22.4s8.64,23.89,22.73,24.46,26.75-9.45,28.29-22.39S341.07,526,327,525.45Z"/></g><g id="NOSE1_copia_6" data-name="NOSE1 copia 6"><path class="cls-9" d="M327,525.45c-14.09-.57-26.76,9.46-28.3,22.4a21,21,0,0,0,7.89,19.08,20.86,20.86,0,0,1-4.49-15.69c1.54-12.93,14.21-23,28.29-22.39a25.17,25.17,0,0,1,14.84,5.39A24.36,24.36,0,0,0,327,525.45Z"/></g><g id="NOSE1_copia_4" data-name="NOSE1 copia 4"><path class="cls-10" d="M330.28,541.26c-8.71-.35-16.54,5.83-17.5,13.82a12.82,12.82,0,0,0,1.24,7.27A91.39,91.39,0,0,1,338.23,557q3.12-.27,6.07-.34c0-.09,0-.19,0-.29C345.29,548.37,339,541.61,330.28,541.26Z"/></g><g id="NOSE1_copia_5" data-name="NOSE1 copia 5"><path class="cls-2" d="M492.12,548.87c-1.54-12.94-14.2-23-28.29-22.39S439.57,538,441.11,550.94s14.2,23,28.29,22.4S493.66,561.81,492.12,548.87Z"/></g><g id="NOSE1_copia_7" data-name="NOSE1 copia 7"><path class="cls-9" d="M494.16,546.83c-1.54-12.94-14.21-23-28.29-22.39a24.39,24.39,0,0,0-18.24,8.78,25.12,25.12,0,0,1,14.84-5.38c14.09-.58,26.75,9.45,28.29,22.39a20.84,20.84,0,0,1-4.48,15.68A21.05,21.05,0,0,0,494.16,546.83Z"/></g><g id="NOSE1_copia_5-2" data-name="NOSE1 copia 5"><path class="cls-10" d="M480.07,554.06c-.95-8-8.79-14.17-17.5-13.81s-15,7.11-14.06,15.09c0,.1,0,.2.05.3q2.94.08,6.06.34a91.09,91.09,0,0,1,24.22,5.35A12.89,12.89,0,0,0,480.07,554.06Z"/></g><g id="Forma_1325" data-name="Forma 1325"><path class="cls-4" d="M583.43,262.89c-10.2-85-65.33-99.57-65.33-99.57S550.73,197,531,247.94s-97.2,52.68-97.2,52.68C471.71,339.83,593.63,347.87,583.43,262.89Z"/></g><g id="Forma_1330" data-name="Forma 1330"><path class="cls-11" d="M547.66,228.23s3,61-87.68,76.13c0,0,65.51,22.85,94.48-8.84S547.66,228.23,547.66,228.23Z"/></g><g id="Forma_1322" data-name="Forma 1322"><path class="cls-12" d="M372,144.63c-100.06,31.92-20,94.13-20,94.13s160.6,17.89,159.73-81.22C511.64,157.54,472,112.71,372,144.63Z"/></g><g id="Forma_1317" data-name="Forma 1317"><path class="cls-13" d="M488.19,142.25c-8-12.91-149.92-53.94-212.4,19s214.48,50.93,218.52,4.08A43.23,43.23,0,0,0,488.19,142.25Z"/></g><g id="Forma_1333" data-name="Forma 1333"><path class="cls-14" d="M416.72,44.57c-4.1-13.24-7.67-28.45-10.9-34.11s-10.13-8.1-14.49,8.9C387,36.2,381,51.21,377.54,63.47c-3.05,10.78-3.47,16.78,12.68,14.3,25-3.84,28.67-15.66,28.67-15.66S420.73,57.5,416.72,44.57Z"/></g><g id="Forma_1348" data-name="Forma 1348"><path class="cls-15" d="M390.53,30.6c-4.59,16.95-7.87,26.56-9.07,30.19a6.6,6.6,0,0,0,.43,6.06s1.33-3,2.63-5.93,8.31-26.74,9.09-30.55,3-12.66,5.51-18.26C399.12,12.11,396,10.51,390.53,30.6Z"/></g><g id="Forma_1332" data-name="Forma 1332"><path class="cls-16" d="M425.29,68.64c-1.08-15.65-6.76-16.28-6.76-16.28a27.47,27.47,0,0,1-9.59,8.9C402.83,64.42,388,69.62,379.28,71s-9.18,10.93-10.37,20.37c-1.23,9.77-1.72,17.68-4.3,25-2.64,7.47-4.42,15.68-.36,19.53,6.42,6.1,65.33-5.89,65.37-39.5C429.62,96.33,426.62,88,425.29,68.64Z"/></g><g id="Forma_1347" data-name="Forma 1347"><path class="cls-17" d="M406.1,66.07c-8.34,3.22-13.14,4.73-26,7.82-7,1.69-6,7.46-6.57,15-.93,12.56-3.54,27.05-6.09,32.1,0,0,9.6-2.61,12-32.21.09-5.31,1.89-8.76,6.05-10.41C395.23,74.52,418,68,418.64,59.12A60.2,60.2,0,0,1,406.1,66.07Z"/></g><g id="Forma_1331" data-name="Forma 1331"><path class="cls-18" d="M444.12,151.88c-4.62-10.82-10.41-28.71-10.49-43.09a23.73,23.73,0,0,0-3.88-13.31c-2.49,9-4.22,9.22-19.85,19.09-16.55,10.45-39,16-44,18.46-7.95,3.82-6.58,11.35-9.24,17.74-1.52,3.63-11.54,13.19-5.92,19.67,25.46,29.35,85.41,13.49,91.62,7.67S448.74,162.7,444.12,151.88Z"/></g><g id="Forma_1346" data-name="Forma 1346"><path class="cls-19" d="M372,134.34s37-1.35,49.32-23.57C421.29,110.77,400,127.61,372,134.34Z"/></g><g id="Forma_1316" data-name="Forma 1316"><path class="cls-6" d="M481.73,137.49C478.89,134.93,459,129,459,129s18.75,7.55,20.5,16.07c1.51,9.12-14.33,20.6-41.91,19.28-41.63-2-197.33-47.25-225.32,44.52-24.85,81.49,68.79,88.67,76.13,88.7,0,0,22.4-59.8,81.9-73.75S542.33,171,481.73,137.49Z"/></g><g id="Forma_1327_copia_2" data-name="Forma 1327 copia 2"><path class="cls-20" d="M351.57,162.64s-42.48-8.66-77.82,3.06c-35.5,11.76-54.1,30.51-57.1,55.73-3.86,32.48,18,49.8,28.89,49.8,0,0-13.65-34.35.34-55.57,23.55-35.75,58.7-39.14,112.83-40.11,44-.78,59.15,3.4,84.28-3.06C443,172.49,413.92,172.21,351.57,162.64Z"/></g><g id="Forma_1321" data-name="Forma 1321"><path class="cls-5" d="M502.46,150.06s-2.57,17-28.2,28.21c-42.06,18.39-190.55,15.61-209.69,111.81s124.54,102.37,143.08,51.66c0,0-32.66,2.72-35.35-23.45s28.47-31.91,69.33-35C506.31,278.38,609,214.66,502.46,150.06Z"/></g><g id="Forma_1327_copia_3" data-name="Forma 1327 copia 3"><path class="cls-21" d="M395.82,213.58s-54.24,13.68-75.51,32.32C292.19,270.55,279.32,291,287,322c5.63,22.71,39.83,31.2,52.34,32.42,0,0-24.44-23.88-20.73-46.7,5.64-34.69,16.05-52.71,84.28-79.86,38.8-12.45,77.89-20.82,90.74-44.18C463.91,200.5,433,203.82,395.82,213.58Z"/></g></svg>