<svg width="64" height="64" viewBox="0 0 64 64" fill="none" xmlns="http://www.w3.org/2000/svg">
  <defs>
    <radialGradient id="faerieGradient" cx="50%" cy="50%" r="50%">
      <stop offset="0%" style="stop-color:#34d399;stop-opacity:1" />
      <stop offset="100%" style="stop-color:#059669;stop-opacity:1" />
    </radialGradient>
  </defs>
  
  <!-- Faerie wings -->
  <path d="M20 25 C15 20, 8 22, 10 30 C12 35, 18 33, 20 30 Z" fill="url(#faerieGradient)" opacity="0.8"/>
  <path d="M44 25 C49 20, 56 22, 54 30 C52 35, 46 33, 44 30 Z" fill="url(#faerieGradient)" opacity="0.8"/>
  
  <!-- Faerie body -->
  <circle cx="32" cy="35" r="8" fill="url(#faerieGradient)"/>
  
  <!-- Magical sparkles -->
  <circle cx="15" cy="18" r="1.5" fill="#6ee7b7"/>
  <circle cx="48" cy="22" r="1" fill="#a7f3d0"/>
  <circle cx="25" cy="15" r="1" fill="#34d399"/>
  <circle cx="38" cy="12" r="1.5" fill="#6ee7b7"/>
  <circle cx="50" cy="45" r="1" fill="#a7f3d0"/>
  <circle cx="18" cy="48" r="1.5" fill="#34d399"/>
  
  <!-- Magic wand -->
  <line x1="32" y1="35" x2="40" y2="25" stroke="#34d399" stroke-width="2" stroke-linecap="round"/>
  <circle cx="40" cy="25" r="2" fill="#6ee7b7"/>
</svg>
