<svg version="1.1" xmlns="http://www.w3.org/2000/svg" xmlns:xlink="http://www.w3.org/1999/xlink" x="0px" y="0px" viewBox="0 0 500 500" style="enable-background:new 0 0 500 500;" xml:space="preserve">
<g id="BACKGROUND">
</g>
<g id="OBJECTS">
	<g>
		<g>
			
				<linearGradient id="SVGID_1_" gradientUnits="userSpaceOnUse" x1="68.8505" y1="618.9254" x2="97.2621" y2="618.9254" gradientTransform="matrix(0.8188 -0.5741 -0.5741 -0.8188 529.4986 687.4566)">
				<stop offset="0" style="stop-color:#FFEB75"></stop>
				<stop offset="1" style="stop-color:#FF751F"></stop>
			</linearGradient>
			<path style="fill:url(#SVGID_1_);" d="M252.527,126.215c-0.372-0.495-0.935-0.733-1.487-0.132
				c0.38-2.836-4.266-11.557-5.311-12.739c-0.328-0.37-1.937-2.762-2.673-0.528c-0.973-1.189-1.15-1.316-1.878-1.833
				c-0.565-0.401-2.511-1.048-1.404,0.316c-6.949-4.169-13.403,0.821-14.924,2.776c-0.232,0.299-0.005,0.737,0.372,0.706
				c0.169-0.014,0.336-0.048,0.501-0.117c-1.446,1.015-3.176,2.835-3.783,4.489c-0.422,1.153-0.778,2.905-0.773,4.13
				c0.003,0.728,0.261,2.621,1.142,2.784c-0.379,2.985,1.535,5.769,3.367,7.949c1.55,1.844,3.359,3.868,5.63,4.853
				c0.461,0.2,1.325,0.544,1.057-0.404c0.785,0.152,5.327,2.56,8.71,0.011c0.835-0.629,0.855-1.876,0.064-2.561
				c-1.906-1.649-5.529-3.662-5.887-3.9c0.371-0.065,1.853,0.163,1.81-0.427c-0.038-0.516-1.384-0.613-1.676-0.687
				c-1.677-0.426-3.531-0.881-4.988-1.769c1.037,0.443,1.114-0.66,0.634-1.166c-0.519-0.548-1.305-0.967-1.881-1.482
				c-0.736-0.659-3.057-3.02-1.997-4.115c0.18,0.246,0.647,1.275,1.083,0.947c0.26-0.196-0.011-1.532,0.097-1.932
				c0.692-2.568,4.099-4.573,6.466-5.236c-0.355,0.462-1.157,0.839-1.462,1.409c-0.144,0.269,0.088,0.589,0.388,0.531
				c1.617-0.31,4.75-1.624,8.014,2.802c-0.35,0.017-0.67-0.019-0.983,0.01c-0.399,0.037-0.536,0.552-0.214,0.79
				c0.47,0.347,1.125,0.615,1.521,0.904c1.592,1.162,3.511,3.42,3.736,5.474c0,0,1.412,5.904,2.135,11.051
				c1.833,13.061,8.408,15.472,8.408,15.472l1.002-1.618c0,0-3.069-2.763-4.644-7.275c-2.156-6.177,0.039-14.962,0.21-18.168
				C252.932,127.062,252.809,126.591,252.527,126.215z" data-index="0"></path>
		</g>
		<g>
			
				<linearGradient id="SVGID_00000015351811247841816830000007525523427449770113_" gradientUnits="userSpaceOnUse" x1="72.0463" y1="616.6054" x2="93.0711" y2="616.6054" gradientTransform="matrix(0.5151 -0.8572 -0.8572 -0.5151 727.096 527.9955)">
				<stop offset="0.4957" style="stop-color:#FF3A1F"></stop>
				<stop offset="1" style="stop-color:#FF7B56"></stop>
			</linearGradient>
			<path style="fill:url(#SVGID_00000015351811247841816830000007525523427449770113_);" d="M246.027,131.917
				c-0.4-0.223-0.852-0.215-1.045,0.358c-0.595-2.032-6.358-6.534-7.42-7.019c-0.333-0.152-2.14-1.286-1.966,0.446
				c-1.015-0.512-1.173-0.544-1.821-0.675c-0.503-0.102-2.013,0.046-0.855,0.636c-5.952-0.731-8.818,4.583-9.259,6.362
				c-0.067,0.272,0.218,0.5,0.464,0.366c0.11-0.06,0.213-0.133,0.304-0.229c-0.673,1.121-1.296,2.872-1.209,4.173
				c0.061,0.906,0.347,2.198,0.719,3.025c0.221,0.492,0.964,1.694,1.609,1.54c0.641,2.133,2.771,3.44,4.666,4.363
				c1.602,0.781,3.434,1.607,5.266,1.59c0.372-0.003,1.059-0.03,0.593-0.591c0.576-0.133,4.372,0.13,5.893-2.61
				c0.376-0.676,0.014-1.526-0.726-1.751c-1.784-0.543-4.84-0.815-5.153-0.868c0.231-0.156,1.302-0.447,1.096-0.833
				c-0.18-0.337-1.12,0.001-1.34,0.039c-1.262,0.215-2.653,0.465-3.905,0.303c0.834-0.012,0.555-0.781,0.078-0.979
				c-0.516-0.215-1.173-0.262-1.717-0.437c-0.696-0.224-2.975-1.123-2.587-2.183c0.196,0.113,0.82,0.668,1.016,0.315
				c0.117-0.211-0.468-1.033-0.515-1.336c-0.304-1.945,1.398-4.325,2.8-5.484c-0.102,0.419-0.531,0.915-0.566,1.392
				c-0.016,0.225,0.237,0.372,0.422,0.243c1.001-0.695,2.724-2.525,6.262-0.513c-0.231,0.116-0.459,0.188-0.662,0.302
				c-0.258,0.145-0.197,0.534,0.092,0.598c0.422,0.093,0.945,0.078,1.3,0.154c1.426,0.307,3.402,1.258,4.171,2.579
				c0,0,2.729,3.568,4.765,6.832c5.165,8.282,10.335,7.937,10.335,7.937l0.191-1.396c0,0-2.906-0.946-5.327-3.524
				c-3.314-3.53-4.47-10.13-5.317-12.35C246.555,132.368,246.33,132.086,246.027,131.917z" data-index="1"></path>
		</g>
		<g>
			
				<linearGradient id="SVGID_00000178167178552137956430000015473609798847369137_" gradientUnits="userSpaceOnUse" x1="244.5201" y1="93.8757" x2="278.6499" y2="93.8757" gradientTransform="matrix(-0.9676 -0.2525 0.2525 -0.9676 471.5805 288.222)">
				<stop offset="0.4957" style="stop-color:#FF3A1F"></stop>
				<stop offset="1" style="stop-color:#FF7B56"></stop>
			</linearGradient>
			<path style="fill:url(#SVGID_00000178167178552137956430000015473609798847369137_);" d="M253.667,148.154
				c-0.258-1.585,2.977-20.58-22.186-28.949c-1.351-0.675-4.238-2.331-2.382-4.037c1.54-1.415,5.909-0.105,7.512,0.649
				c6.011,2.825,11.597,7.579,14.712,13.514c1.633,3.111,2.986,6.829,3.628,10.292c0.583,3.141,0.179,6.244,0.245,9.394
				L253.667,148.154z" data-index="2"></path>
		</g>
		<g>
			
				<linearGradient id="SVGID_00000105399293684033964760000013526500068087127712_" gradientUnits="userSpaceOnUse" x1="232.8356" y1="87.0443" x2="260.2739" y2="87.0443" gradientTransform="matrix(-0.742 -0.6704 0.6704 -0.742 375.8043 363.3743)">
				<stop offset="0.4957" style="stop-color:#FF3A1F"></stop>
				<stop offset="1" style="stop-color:#FF7B56"></stop>
			</linearGradient>
			<path style="fill:url(#SVGID_00000105399293684033964760000013526500068087127712_);" d="M253.176,149.754
				c0.404-1.226,9.756-13.575-5.089-28.877c-0.713-0.983-2.158-3.235-0.202-3.763c1.623-0.438,4.253,2.117,5.118,3.249
				c3.24,4.244,5.461,9.707,5.482,15.095c0.011,2.825-0.403,5.978-1.229,8.687c-0.749,2.457-2.188,4.52-3.309,6.792L253.176,149.754
				z" data-index="3"></path>
		</g>
		<g>
			
				<linearGradient id="SVGID_00000090982801278762549970000002753135376021191816_" gradientUnits="userSpaceOnUse" x1="72.6576" y1="595.3995" x2="87.3615" y2="595.3995" gradientTransform="matrix(0.8218 -0.5698 -0.5698 -0.8218 521.1992 674.3608)">
				<stop offset="0" style="stop-color:#FF1F2A"></stop>
				<stop offset="0.2049" style="stop-color:#FF1D2D"></stop>
				<stop offset="0.3579" style="stop-color:#FE1837"></stop>
				<stop offset="0.4941" style="stop-color:#FD0F47"></stop>
				<stop offset="0.6198" style="stop-color:#FB025D"></stop>
				<stop offset="0.6328" style="stop-color:#FB0060"></stop>
			</linearGradient>
			<path style="fill:url(#SVGID_00000090982801278762549970000002753135376021191816_);" d="M253.065,135.991
				c-0.191-0.257-0.482-0.382-0.769-0.072c0.205-1.467-2.176-5.993-2.714-6.607c-0.169-0.193-0.995-1.435-1.382-0.281
				c-0.5-0.618-0.591-0.684-0.967-0.954c-0.291-0.209-1.296-0.549-0.728,0.16c-3.585-2.177-6.939,0.388-7.731,1.396
				c-0.121,0.154-0.004,0.382,0.191,0.367c0.087-0.007,0.174-0.024,0.259-0.059c-0.751,0.521-1.652,1.458-1.97,2.313
				c-0.222,0.595-0.41,1.501-0.411,2.135c-0.001,0.377,0.128,1.357,0.583,1.444c-0.205,1.544,0.778,2.99,1.721,4.123
				c0.797,0.958,1.728,2.011,2.901,2.527c0.238,0.105,0.684,0.285,0.548-0.206c0.406,0.081,2.75,1.339,4.508,0.029
				c0.434-0.323,0.447-0.969,0.04-1.325c-0.982-0.859-2.851-1.911-3.036-2.034c0.192-0.033,0.959,0.089,0.938-0.216
				c-0.018-0.267-0.715-0.321-0.865-0.36c-0.867-0.225-1.825-0.465-2.577-0.929c0.535,0.232,0.578-0.338,0.331-0.602
				c-0.267-0.285-0.673-0.504-0.969-0.772c-0.379-0.343-1.574-1.571-1.023-2.135c0.093,0.128,0.331,0.661,0.558,0.493
				c0.135-0.101-0.002-0.793,0.055-1c0.365-1.327,2.134-2.355,3.361-2.692c-0.185,0.238-0.601,0.431-0.761,0.725
				c-0.075,0.139,0.044,0.305,0.199,0.276c0.838-0.156,2.463-0.827,4.14,1.472c-0.181,0.008-0.347-0.012-0.509,0.003
				c-0.206,0.018-0.279,0.284-0.113,0.408c0.242,0.181,0.58,0.321,0.785,0.472c0.821,0.606,1.807,1.779,1.918,2.843
				c0,0,0.715,3.059,1.075,5.725c0.913,6.764,4.309,8.03,4.309,8.03l0.523-0.835c0,0-1.581-1.438-2.383-3.778
				c-1.099-3.203,0.061-7.743,0.159-9.402C253.273,136.43,253.21,136.186,253.065,135.991z" data-index="4"></path>
		</g>
		<g>
			
				<linearGradient id="SVGID_00000162323025928018406890000001152643613330413726_" gradientUnits="userSpaceOnUse" x1="234.2061" y1="459.067" x2="234.2061" y2="257.3729" gradientTransform="matrix(-1 0 0 1 503.5212 0)">
				<stop offset="0" style="stop-color:#FFEB75"></stop>
				<stop offset="1" style="stop-color:#FF751F"></stop>
			</linearGradient>
			<path style="fill: url(&quot;#SVGID_00000162323025928018406890000001152643613330413726_&quot;); opacity: 1;" d="M221.002,356.706
				c0.081,2.417,1.347,4.441,4.46,3.757c-7.579,8.219-12.282,46.543-11.587,52.67c0.218,1.919,0,13.183,7.367,7.685
				c0.445,5.987,0.726,6.789,1.896,10.077c0.907,2.551,5.68,8.986,5.202,2.139c12.878,28.927,44.72,27.443,53.972,24.602
				c1.413-0.434,1.669-2.348,0.393-3.095c-0.572-0.335-1.182-0.602-1.863-0.75c6.901-0.002,16.521-1.942,22.172-5.875
				c3.938-2.74,9.005-7.549,11.737-11.479c1.624-2.337,5.045-8.971,2.594-11.468c7.911-8.699,8.032-21.897,7.06-32.983
				c-0.822-9.376-2.069-19.911-7.126-28.155c-1.026-1.673-3.018-4.711-4.288-1.079c-2.17-2.247-11.298-20.14-27.84-19.574
				c-4.083,0.139-6.944,4.085-5.95,8.048c2.396,9.552,9.471,24.12,10.085,25.683c-1.332-0.623-5.563-4.68-6.748-2.695
				c-1.035,1.734,3.053,5.065,3.821,5.958c4.407,5.125,9.32,10.739,11.989,16.848c-2.324-3.742-5.043-0.389-4.645,2.308
				c0.431,2.918,2.006,6.023,2.692,8.96c0.879,3.759,3.007,16.52-2.841,17.645c-0.024-1.193,0.79-5.529-1.34-5.457
				c-1.273,0.043-3.403,4.927-4.643,5.964c-7.974,6.665-23.373,5.435-32.433,2.242c2.173-0.681,5.585-0.087,7.839-1.225
				c1.064-0.537,1.039-2.081-0.048-2.57c-5.869-2.638-18.839-5.462-19.35-26.943c1.156,0.73,2.101,1.564,3.168,2.172
				c1.359,0.775,2.954-0.563,2.457-2.046c-0.725-2.163-2.219-4.49-2.837-6.303c-2.486-7.287-3.56-18.816,0.328-25.892
				c0,0,8.727-22.056,17.963-40.143c23.437-45.898,7.812-68.358,7.812-68.358l-6.836,2.93c0,0,3.62,15.723-1.465,33.691
				c-6.962,24.597-33.689,47.777-41.43,57.649C221.604,353.087,220.941,354.871,221.002,356.706z" data-index="5"></path>
		</g>
		<g>
			
				<linearGradient id="SVGID_00000037686018224492688660000015108538549697915782_" gradientUnits="userSpaceOnUse" x1="324.8029" y1="298.7697" x2="236.8368" y2="298.7697" gradientTransform="matrix(-1 0 0 1 503.5212 0)">
				<stop offset="0" style="stop-color:#FF1F2A"></stop>
				<stop offset="0.2049" style="stop-color:#FF1D2D"></stop>
				<stop offset="0.3579" style="stop-color:#FE1837"></stop>
				<stop offset="0.4941" style="stop-color:#FD0F47"></stop>
				<stop offset="0.6198" style="stop-color:#FB025D"></stop>
				<stop offset="0.6328" style="stop-color:#FB0060"></stop>
			</linearGradient>
			<path style="fill: url(&quot;#SVGID_00000037686018224492688660000015108538549697915782_&quot;); opacity: 1;" d="M262.48,259.792
				c2.296,8.302,0.987,15.653-2.893,23.459c-2.149,4.324-5.312,8.721-8.935,11.926c-3.159,2.794-7.188,4.27-10.614,6.634
				c-1.191,0.822-0.749,2.687,0.685,2.885c0.919,0.127,1.863,0.197,2.638,0.555c-6.049,4.9-13.765,6.312-21.203,8.34
				c-3.489,0.951-11.468,1.796-14.323,3.891c-1.548,1.136-1.568,2.117-0.508,2.711c1.006,0.564,0.976,2.024-0.097,2.448
				c-4.353,1.719-11.984-0.095-15.117-1.465c-3.996-1.748-8.389-5.673-10.282-10.173c0,0-7.556,10.77,0.876,20.275
				c3.561,4.014,8.755,6.166,14.121,6.2c2.99,0.02,5.776-0.211,8.958-0.171c-0.107,0.13-0.195,0.272-0.271,0.421
				c-0.451,0.885,0.168,1.953,1.155,2.066c11.52,1.322,24.892-1.482,31.85-11.54c1.14,7.241,10.417-4.478,12.363-11.845
				c1.201,2.658,1.206,4.949,4.565,2.352c2.399-1.855,3.646-5.286,4.777-7.949c1.906-4.49,1.956-8.919,3-13.662
				c0.98-4.451,2.482-9.225,3.011-13.786c1.017-8.768-0.007-17.09-0.007-25.929L262.48,259.792z" data-index="6"></path>
		</g>
		<g>
			
				<linearGradient id="SVGID_00000158741919120912539580000006239542878033405616_" gradientUnits="userSpaceOnUse" x1="294.6866" y1="281.2356" x2="329.2674" y2="313.8819" gradientTransform="matrix(-1 0 0 1 503.5212 0)">
				<stop offset="0" style="stop-color:#FF1F2A"></stop>
				<stop offset="0.2049" style="stop-color:#FF1D2D"></stop>
				<stop offset="0.3579" style="stop-color:#FE1837"></stop>
				<stop offset="0.4941" style="stop-color:#FD0F47"></stop>
				<stop offset="0.6198" style="stop-color:#FB025D"></stop>
				<stop offset="0.6328" style="stop-color:#FB0060"></stop>
			</linearGradient>
			<path style="fill:url(#SVGID_00000158741919120912539580000006239542878033405616_);" d="M182.043,330.614
				c-5.371-7.812-7.403-18.737-8.04-24.113c-0.692-5.843-0.656-10.638,1.772-16.102c5.291-10.077,13.666-12.464,17.89-12.318
				c6.953,0.24,13.145,4.444,16.231,10.679c0.49,0.99,0.863,1.955,1.072,2.838c0.465,1.971,0.55,7.764-2.837,7.09
				c-1.314-0.262-6.068-5.182-14.715-1.565c-0.546,0.297-0.394,1.108,0.217,1.222c0.827,0.155,1.313,0.519,0.241,1.637
				c-1.221,1.274-9.877,6.22-11.83,11.103c-1.953,4.883-2.441,6.836-1.953,11.23C180.578,326.708,182.043,330.614,182.043,330.614z" data-index="7"></path>
		</g>
		<g>
			
				<linearGradient id="SVGID_00000065040044122995411080000015737867711109612213_" gradientUnits="userSpaceOnUse" x1="170.1901" y1="294.4455" x2="237.0674" y2="294.4455" gradientTransform="matrix(-1 0 0 1 503.5212 0)">
				<stop offset="0" style="stop-color:#FF1F2A"></stop>
				<stop offset="0.2049" style="stop-color:#FF1D2D"></stop>
				<stop offset="0.3579" style="stop-color:#FE1837"></stop>
				<stop offset="0.4941" style="stop-color:#FD0F47"></stop>
				<stop offset="0.6198" style="stop-color:#FB025D"></stop>
				<stop offset="0.6328" style="stop-color:#FB0060"></stop>
			</linearGradient>
			<path style="fill:url(#SVGID_00000065040044122995411080000015737867711109612213_);" d="M269.65,264.812
				c-1.746,6.312-0.751,11.9,2.199,17.835c1.634,3.287,4.038,6.63,6.793,9.067c2.402,2.124,5.465,3.246,8.069,5.044
				c0.906,0.625,0.57,2.043-0.52,2.194c-0.699,0.097-1.417,0.15-2.005,0.422c4.599,3.725,10.465,4.799,16.12,6.341
				c2.653,0.723,8.718,1.365,10.889,2.958c1.177,0.864,1.192,1.609,0.386,2.061c-0.765,0.429-0.742,1.539,0.074,1.861
				c3.309,1.307,9.111-0.072,11.492-1.114c3.038-1.329,6.378-4.313,7.817-7.734c0,0,5.745,8.188-0.666,15.415
				c-2.707,3.051-6.656,4.687-10.735,4.714c-2.273,0.015-4.391-0.16-6.811-0.13c0.081,0.099,0.148,0.207,0.206,0.32
				c0.343,0.673-0.128,1.485-0.878,1.571c-8.758,1.005-18.925-1.127-24.214-8.773c-0.866,5.505-7.919-3.404-9.399-9.005
				c-0.913,2.021-0.917,3.763-3.47,1.789c-1.824-1.41-2.772-4.019-3.632-6.043c-1.449-3.413-1.487-6.781-2.28-10.386
				c-0.745-3.384-1.887-7.013-2.289-10.481c-0.773-6.666,0.005-12.993,0.005-19.713L269.65,264.812z" data-index="8"></path>
		</g>
		<g>
			
				<linearGradient id="SVGID_00000001647762297845782550000010494912829141357963_" gradientUnits="userSpaceOnUse" x1="195.6461" y1="278.9057" x2="169.5291" y2="303.3299" gradientTransform="matrix(-1 0 0 1 503.5212 0)">
				<stop offset="0" style="stop-color:#FF1F2A"></stop>
				<stop offset="0.2049" style="stop-color:#FF1D2D"></stop>
				<stop offset="0.3579" style="stop-color:#FE1837"></stop>
				<stop offset="0.4941" style="stop-color:#FD0F47"></stop>
				<stop offset="0.6198" style="stop-color:#FB025D"></stop>
				<stop offset="0.6328" style="stop-color:#FB0060"></stop>
			</linearGradient>
			<path style="fill:url(#SVGID_00000001647762297845782550000010494912829141357963_);" d="M330.803,318.656
				c4.083-5.939,5.628-14.245,6.112-18.332c0.526-4.443,0.499-8.088-1.347-12.242c-4.023-7.661-10.39-9.476-13.601-9.365
				c-5.286,0.183-9.993,3.379-12.34,8.119c-0.372,0.753-0.656,1.487-0.815,2.157c-0.354,1.499-0.418,5.903,2.157,5.39
				c0.999-0.199,4.613-3.94,11.188-1.19c0.415,0.226,0.299,0.842-0.165,0.929c-0.628,0.118-0.998,0.395-0.183,1.244
				c0.929,0.968,7.509,4.729,8.994,8.441c1.485,3.712,1.856,5.197,1.485,8.538C331.917,315.686,330.803,318.656,330.803,318.656z" data-index="9"></path>
		</g>
		<g>
			
				<linearGradient id="SVGID_00000101786249135319013010000017721374548658355371_" gradientUnits="userSpaceOnUse" x1="240.1018" y1="281.759" x2="281.9999" y2="281.759" gradientTransform="matrix(-1 0 0 1 503.5212 0)">
				<stop offset="0.4957" style="stop-color:#FF3A1F"></stop>
				<stop offset="1" style="stop-color:#FF7B56"></stop>
			</linearGradient>
			<path style="fill:url(#SVGID_00000101786249135319013010000017721374548658355371_);" d="M261.173,260.663
				c-0.597,2.153,0.994,28.912-35.075,36.666c-1.971,0.729-6.215,2.581-3.907,5.221c1.915,2.19,8.155,1.041,10.488,0.243
				c8.741-2.994,17.188-8.722,22.396-16.456c2.731-4.055,5.166-8.991,6.58-13.683c1.283-4.256,1.195-8.609,1.765-12.954
				L261.173,260.663z" data-index="10"></path>
		</g>
		<g>
			
				<linearGradient id="SVGID_00000086656779069267032140000006071350992200055173_" gradientUnits="userSpaceOnUse" x1="243.3588" y1="273.2922" x2="277.4884" y2="273.2922" gradientTransform="matrix(-1 0 0 1 503.5212 0)">
				<stop offset="0.4957" style="stop-color:#FF3A1F"></stop>
				<stop offset="1" style="stop-color:#FF7B56"></stop>
			</linearGradient>
			<path style="fill:url(#SVGID_00000086656779069267032140000006071350992200055173_);" d="M258.464,259.923
				c-0.65,1.469-2.315,20.665-28.777,22.409c-1.478,0.312-4.69,1.186-3.324,3.305c1.133,1.758,5.691,1.593,7.433,1.269
				c6.529-1.215,13.135-4.406,17.647-9.362c2.366-2.598,4.614-5.854,6.11-9.043c1.357-2.893,1.749-5.997,2.609-9.028
				L258.464,259.923z" data-index="11"></path>
		</g>
		<g>
			
				<linearGradient id="SVGID_00000049925210079691222020000011737383841587963283_" gradientUnits="userSpaceOnUse" x1="190.5703" y1="281.4221" x2="232.4666" y2="281.4221" gradientTransform="matrix(-1 0.0075 0.0075 1 501.3119 -1.2262)">
				<stop offset="0.4957" style="stop-color:#FF3A1F"></stop>
				<stop offset="1" style="stop-color:#FF7B56"></stop>
			</linearGradient>
			<path style="fill: url(&quot;#SVGID_00000049925210079691222020000011737383841587963283_&quot;); opacity: 1;" d="M273.044,260.828
				c0.613,2.149-0.778,28.919,35.349,36.403c1.976,0.714,6.234,2.535,3.945,5.191c-1.899,2.205-8.147,1.103-10.486,0.321
				c-8.763-2.928-17.253-8.593-22.519-16.288c-2.761-4.034-5.233-8.952-6.682-13.633c-1.314-4.246-1.259-8.599-1.862-12.94
				L273.044,260.828z" data-index="12"></path>
		</g>
		<g>
			
				<linearGradient id="SVGID_00000075871741703532542660000008014921601677213314_" gradientUnits="userSpaceOnUse" x1="195.0814" y1="272.9557" x2="229.2097" y2="272.9557" gradientTransform="matrix(-1 0.0075 0.0075 1 501.3119 -1.2262)">
				<stop offset="0.4957" style="stop-color:#FF3A1F"></stop>
				<stop offset="1" style="stop-color:#FF7B56"></stop>
			</linearGradient>
			<path style="fill:url(#SVGID_00000075871741703532542660000008014921601677213314_);" d="M275.747,260.067
				c0.661,1.464,2.47,20.647,28.944,22.193c1.48,0.301,4.698,1.151,3.349,3.279c-1.12,1.766-5.679,1.636-7.423,1.324
				c-6.538-1.167-13.167-4.307-17.717-9.229c-2.385-2.581-4.657-5.819-6.177-8.997c-1.379-2.882-1.794-5.984-2.677-9.008
				L275.747,260.067z" data-index="13"></path>
		</g>
		<g>
			
				<linearGradient id="SVGID_00000030444600012334396180000003103561161678623117_" gradientUnits="userSpaceOnUse" x1="463.6772" y1="139.7673" x2="255.3227" y2="139.7673" gradientTransform="matrix(-1 0 0 1 503.5212 0)">
				<stop offset="0" style="stop-color:#FF6714"></stop>
				<stop offset="0.1593" style="stop-color:#FF6416"></stop>
				<stop offset="0.2783" style="stop-color:#FF5A1D"></stop>
				<stop offset="0.3842" style="stop-color:#FE4A29"></stop>
				<stop offset="0.4825" style="stop-color:#FD343A"></stop>
				<stop offset="0.5747" style="stop-color:#FC174F"></stop>
				<stop offset="0.6328" style="stop-color:#FB0060"></stop>
			</linearGradient>
			<path style="fill:url(#SVGID_00000030444600012334396180000003103561161678623117_);" d="M248.198,200.811
				c-0.47,6.126-5.168,13.13-8.907,18.359c-5.007,7.003-5.513-1.639-6.969-5.46c-4.096,2.658-6.854,7.825-10.768,10.798
				c-6.446,4.896-1.089-5.694-1.28-7.723c-2.41,1.412-3.627,4.553-5.483,6.598c-3.198,3.523-7.423,5.674-11.711,7.769
				c-2.304,1.126-5.077,2.983-4.605-0.613c0.347-2.637,2.869-4.765,2.745-7.566c-5.984,5.274-12.721,11.016-21.07,11.628
				c-0.913-2.938,4.269-5.449,3.326-7.896c-5.631,1.181-10.476,5.996-16.331,6.866c-7.731,1.148-0.158-6.288,1.053-8.518
				c-2.064-0.037-4.785,1.812-6.824,2.606c-3.052,1.19-6.319,2.33-9.468,3.216c-2.111,0.594-5.759,1.559-8.893,1.562
				c-1.918,0.001-2.428-2.356-0.7-3.225c8.555-4.302,11.287-11.381,11.287-11.381c-6.567,2.223-13.842,5.884-20.762,6.081
				c-8.486,0.242,4.009-6.521,5.68-9.06c-5.928,1.677-16.412,6.943-22.307,3.91c0.978-2.943,7.606-6.101,10.035-8.449
				c-1.966-1.006-4.704,0.448-6.785,0.867c-2.783,0.559-5.872,1.265-8.684,1.389c-2.634,0.116-11.637,0.089-13.001-2.152
				c2.675-1.806,7.076-2.675,10.268-3.688c-3.143-0.352-6.395,0.622-9.601,0.197c-4.059-0.538-9.227-2.544-11.942-5.113
				c-0.593-0.561-2.847-2.597-2.423-3.638c0.508-1.245,3.741-0.871,5.026-0.975c5.355-0.436,14.349-5.22,14.349-5.22
				c-5.723,0.149-12.121,0.48-17.784-0.202c-2.099-0.253-12.724-2.458-13.456-4.58c-0.941-2.728,19.359-3.966,22.507-5.942
				c-10.725-1.469-22.132,0.738-31.967-4.1c-4.416-2.172-8.602-5.246-1.159-6.379c4.322-0.658,9.049,0.214,13.223-1.109
				c-7.932-2.189-17.404-9.559-23.267-15.009c-3.385-3.146-8.177-9.119-7.707-14.403c0.117-1.31,1.664-2.115,2.875-1.506
				c4.793,2.411,8.59,6.704,13.576,8.077c-6.017-4.406-11.997-10.706-16.051-16.851c-2.11-3.199-7.711-15.369-1.707-18.185
				c3.644-1.709,13.06,7.68,15.176,9.786c5.101,5.076,18.401,10.769,18.401,10.769c-6.473-5.682-12.32-17.304-14.685-25.256
				c-1.78-5.987-6.058-17.756-3.424-24.077c5.994-5.8,16.9,14.459,18.681,19.153c-3.584-10.587-6.151-20.924-7.137-32.164
				c-0.537-6.124-0.46-20.966,7.409-24.548c6.807-3.098,8.543,8.44,9.753,12.886c9.911,41.753,17.351,47.401,24.53,54.435
				l57.45,55.27c0,0,32.528,30.367,73.254,14.107L248.198,200.811z" data-index="14"></path>
		</g>
		<g>
			
				<linearGradient id="SVGID_00000106130503953191989810000014095076544437849254_" gradientUnits="userSpaceOnUse" x1="46.3228" y1="139.7673" x2="254.6773" y2="139.7673" gradientTransform="matrix(-1 0 0 1 503.5212 0)">
				<stop offset="0" style="stop-color:#FF6714"></stop>
				<stop offset="0.1593" style="stop-color:#FF6416"></stop>
				<stop offset="0.2783" style="stop-color:#FF5A1D"></stop>
				<stop offset="0.3842" style="stop-color:#FE4A29"></stop>
				<stop offset="0.4825" style="stop-color:#FD343A"></stop>
				<stop offset="0.5747" style="stop-color:#FC174F"></stop>
				<stop offset="0.6328" style="stop-color:#FB0060"></stop>
			</linearGradient>
			<path style="fill: url(&quot;#SVGID_00000106130503953191989810000014095076544437849254_&quot;); opacity: 1;" d="M248.844,200.811
				c0.47,6.126,5.168,13.13,8.907,18.359c5.007,7.003,5.513-1.639,6.969-5.46c4.095,2.658,6.854,7.825,10.767,10.798
				c6.446,4.896,1.089-5.694,1.28-7.723c2.41,1.412,3.627,4.553,5.483,6.598c3.198,3.523,7.423,5.674,11.711,7.769
				c2.304,1.126,5.077,2.983,4.605-0.613c-0.347-2.637-2.869-4.765-2.745-7.566c5.984,5.274,12.721,11.016,21.07,11.628
				c0.913-2.938-4.269-5.449-3.325-7.896c5.631,1.181,10.475,5.996,16.331,6.866c7.731,1.148,0.158-6.288-1.053-8.518
				c2.064-0.037,4.785,1.812,6.824,2.606c3.052,1.19,6.319,2.33,9.468,3.216c2.111,0.594,5.759,1.559,8.893,1.562
				c1.918,0.001,2.428-2.356,0.7-3.225c-8.555-4.302-11.287-11.381-11.287-11.381c6.567,2.223,13.842,5.884,20.762,6.081
				c8.486,0.242-4.009-6.521-5.68-9.06c5.928,1.677,16.412,6.943,22.307,3.91c-0.978-2.943-7.606-6.101-10.035-8.449
				c1.966-1.006,4.704,0.448,6.785,0.867c2.783,0.559,5.872,1.265,8.684,1.389c2.634,0.116,11.637,0.089,13.001-2.152
				c-2.675-1.806-7.076-2.675-10.268-3.688c3.142-0.352,6.395,0.622,9.601,0.197c4.059-0.538,9.227-2.544,11.942-5.113
				c0.593-0.561,2.847-2.597,2.423-3.638c-0.508-1.245-3.741-0.871-5.026-0.975c-5.355-0.436-14.349-5.22-14.349-5.22
				c5.723,0.149,12.121,0.48,17.784-0.202c2.099-0.253,12.724-2.458,13.456-4.58c0.941-2.728-19.359-3.966-22.507-5.942
				c10.725-1.469,22.133,0.738,31.967-4.1c4.416-2.172,8.602-5.246,1.159-6.379c-4.322-0.658-9.049,0.214-13.223-1.109
				c7.932-2.189,17.404-9.559,23.267-15.009c3.385-3.146,8.177-9.119,7.707-14.403c-0.116-1.31-1.664-2.115-2.875-1.506
				c-4.793,2.411-8.59,6.704-13.576,8.077c6.017-4.406,11.997-10.706,16.051-16.851c2.11-3.199,7.711-15.369,1.707-18.185
				c-3.644-1.709-13.06,7.68-15.176,9.786c-5.101,5.076-18.401,10.769-18.401,10.769c6.473-5.682,12.32-17.304,14.685-25.256
				c1.78-5.987,6.058-17.756,3.424-24.077c-5.994-5.8-16.9,14.459-18.681,19.153c3.584-10.587,6.151-20.924,7.137-32.164
				c0.537-6.124,0.46-20.966-7.409-24.548c-6.807-3.098-8.543,8.44-9.753,12.886c-9.911,41.753-17.351,47.401-24.53,54.435
				l-57.45,55.27c0,0-32.528,30.367-73.254,14.107L248.844,200.811z" data-index="15"></path>
		</g>
		<g>
			
				<linearGradient id="SVGID_00000183947912075161190320000001865929034748530863_" gradientUnits="userSpaceOnUse" x1="252.0055" y1="148.1949" x2="95.294" y2="148.1949" gradientTransform="matrix(-1 0 0 1 503.5212 0)">
				<stop offset="0.4957" style="stop-color:#FF3A1F"></stop>
				<stop offset="1" style="stop-color:#FF7B56"></stop>
			</linearGradient>
			<path style="fill: url(&quot;#SVGID_00000183947912075161190320000001865929034748530863_&quot;); opacity: 1;" d="M251.516,192.92
				c0,0,4.971,6.794,7.523,9.176c1.62,1.513,9.575,7.89,9.279,2.063c3.305,1.1,6.38,3.374,9.579,4.947
				c1.203,0.592,2.974,1.724,4.388,1.238c1.906-0.655,0.726-2.245-0.074-3.721c3.953,2.19,8.201,4.169,12.67,5.476
				c1.501,0.439,5.644,2.106,6.441,0.176c0.547-1.326-1.25-4.114-2.117-5.094c0,0,11.678,2.514,16.356,2.59
				c5.552,0.091,3.861-3.125,0.879-5.755c3.399,1.238,7.561,2.607,11.167,2.828c1.664,0.102,4.798,0.443,3.964-1.604
				c-0.503-1.233-2.931-2.182-4.03-2.794c5.153,0.507,10.245,2.267,15.543,2.067c1.724-0.065,5.941-0.145,5.044-2.618
				c-0.542-1.494-3.772-2.506-5.038-3.332c4.733,1.656,12.649,3.419,17.577,2.102c2.877-0.769,2.939-2.602,0.273-3.768
				c-2.239-0.979-4.909-0.889-6.951-1.68c6.068-0.401,13.764,0.01,18.973-3.031c3.793-2.214,0.002-2.966-2.644-3.74
				c-3.145-0.92-6.223-0.704-9.34-1.289c0,0,13.51-4.349,16.839-6.884c4.732-3.604,0.245-5.501-3.716-6.354
				c2.873-0.862,8.425-1.676,10.138-4.208c3.023-4.47-3.995-3.641-7.044-4.062c6.869-4.023,12.559-7.935,17.833-13.823
				c1.413-1.578,4.839-4.815,3.091-7.314c-2.172-3.105-6.885-0.421-9.544-0.043c3.483-2.215,8.117-4.955,10.616-8.234
				c3.742-4.91-0.824-6.324-5.683-3.798c3.008-2.361,9.989-12.498,10.824-13.987c5.612-10.008,4.793-15.727-0.12-15.378
				c-3.379,0.24-10.477,3.568-12.209,5.917c0.841-3.344,9.63-25.653,1.873-25.787c-3.961-0.069-14.38,17.917-20.094,29.472
				c-2.659,5.378-5.572,10.63-8.786,15.719c-10.537,16.683-32.459,48.351-50.814,54.958c-25.182,9.065-58.897-1.764-58.897-1.764
				L251.516,192.92z" data-index="16"></path>
		</g>
		<g>
			
				<linearGradient id="SVGID_00000063611622685733580030000009413425808040909226_" gradientUnits="userSpaceOnUse" x1="116.5964" y1="150.2949" x2="248.3145" y2="150.2949" gradientTransform="matrix(-1 0 0 1 503.5212 0)">
				<stop offset="0" style="stop-color:#FFEB75"></stop>
				<stop offset="1" style="stop-color:#FF751F"></stop>
			</linearGradient>
			<path style="fill: url(&quot;#SVGID_00000063611622685733580030000009413425808040909226_&quot;); opacity: 1;" d="M255.207,181.539
				c1.16,4.101,14.555,16.561,15.158,8.403c3.014,2.433,5.967,4.625,9.795,6.007c3.818,1.378,5.77,0.572,3.863-3.135
				c3.559,1.495,6.398,4.153,10.243,5.302c1.104,0.33,3.465,1.153,4.438,0.184c1.27-1.263-1-2.767-1.236-4.144
				c2.135-0.183,4.411,1.034,6.502,1.474c2.698,0.568,5.516,0.961,8.256,1.202c2.694,0.237,5.656-0.118,3.166-3.16
				c-1.319-1.611-3.208-2.159-5.144-2.814c0,0,13.436-1.259,17.172-2.656c5.123-1.915-4.301-4.228-5.479-5.119
				c7.366-0.818,15.14,1.327,22.117-1.877c1.61-0.739,4.297-2.399,2.244-4.237c-1.026-0.919-3.613-0.944-4.836-1.281
				c5.969-2.577,12.727-1.973,17.946-6.277c6.391-5.27-7.047-4.107-9.591-4.651c0,0,18.022-6.04,22.115-12.182
				c1.042-1.564,1.741-3.576-0.16-4.797c-1.18-0.758-3.041-0.479-4.015-1.34c3.94-1.826,8.263-4.036,11.348-7.027
				c3.413-3.309-0.87-3.581-3.558-3.968c0.426-1.147,11.892-11.556,11.357-14.579c-1.073-6.06-13.871,2.774-15.712,4.367
				c0,0,15.362-29.683,1.156-22.193c-11.273,5.943-21.461,16.969-29.109,26.493c-4.998,6.224-8.067,13.307-13.572,19.184
				c-5.603,5.983-10.893,11.828-16.976,17.439c-11.827,10.908-39.677,24.611-55.049,8.742L255.207,181.539z" data-index="17"></path>
		</g>
		<g>
			
				<linearGradient id="SVGID_00000026141396368647003050000016909053872171174275_" gradientUnits="userSpaceOnUse" x1="257.9944" y1="148.1949" x2="414.706" y2="148.1949" gradientTransform="matrix(-1 0 0 1 503.5212 0)">
				<stop offset="0.4957" style="stop-color:#FF3A1F"></stop>
				<stop offset="1" style="stop-color:#FF7B56"></stop>
			</linearGradient>
			<path style="fill:url(#SVGID_00000026141396368647003050000016909053872171174275_);" d="M245.527,192.92
				c0,0-4.972,6.794-7.523,9.176c-1.62,1.513-9.575,7.89-9.279,2.063c-3.305,1.1-6.38,3.374-9.579,4.947
				c-1.203,0.592-2.975,1.724-4.388,1.238c-1.906-0.655-0.726-2.245,0.074-3.721c-3.954,2.19-8.201,4.169-12.67,5.476
				c-1.501,0.439-5.644,2.106-6.441,0.176c-0.547-1.326,1.25-4.114,2.117-5.094c0,0-11.678,2.514-16.356,2.59
				c-5.552,0.091-3.861-3.125-0.879-5.755c-3.399,1.238-7.561,2.607-11.167,2.828c-1.664,0.102-4.798,0.443-3.964-1.604
				c0.503-1.233,2.931-2.182,4.03-2.794c-5.153,0.507-10.245,2.267-15.543,2.067c-1.724-0.065-5.941-0.145-5.044-2.618
				c0.542-1.494,3.772-2.506,5.038-3.332c-4.733,1.656-12.649,3.419-17.577,2.102c-2.877-0.769-2.939-2.602-0.273-3.768
				c2.239-0.979,4.909-0.889,6.951-1.68c-6.068-0.401-13.764,0.01-18.973-3.031c-3.793-2.214-0.002-2.966,2.644-3.74
				c3.145-0.92,6.223-0.704,9.34-1.289c0,0-13.51-4.349-16.839-6.884c-4.732-3.604-0.245-5.501,3.716-6.354
				c-2.872-0.862-8.425-1.676-10.138-4.208c-3.023-4.47,3.995-3.641,7.044-4.062c-6.869-4.023-12.559-7.935-17.833-13.823
				c-1.413-1.578-4.839-4.815-3.091-7.314c2.172-3.105,6.885-0.421,9.544-0.043c-3.483-2.215-8.117-4.955-10.616-8.234
				c-3.742-4.91,0.824-6.324,5.683-3.798c-3.008-2.361-9.989-12.498-10.824-13.987c-5.612-10.008-4.793-15.727,0.12-15.378
				c3.379,0.24,10.477,3.568,12.209,5.917c-0.841-3.344-9.63-25.653-1.873-25.787c3.961-0.069,14.38,17.917,20.094,29.472
				c2.659,5.378,5.572,10.63,8.786,15.719c10.537,16.683,32.459,48.351,50.814,54.958c25.182,9.065,58.897-1.764,58.897-1.764
				L245.527,192.92z" data-index="18"></path>
		</g>
		<g>
			
				<linearGradient id="SVGID_00000085938961974777858370000001879260813210525341_" gradientUnits="userSpaceOnUse" x1="261.6855" y1="150.2949" x2="393.4036" y2="150.2949" gradientTransform="matrix(-1 0 0 1 503.5212 0)">
				<stop offset="0" style="stop-color:#FFEB75"></stop>
				<stop offset="1" style="stop-color:#FF751F"></stop>
			</linearGradient>
			<path style="fill:url(#SVGID_00000085938961974777858370000001879260813210525341_);" d="M241.836,181.539
				c-1.16,4.101-14.555,16.561-15.158,8.403c-3.014,2.433-5.967,4.625-9.795,6.007c-3.818,1.378-5.77,0.572-3.863-3.135
				c-3.559,1.495-6.398,4.153-10.243,5.302c-1.104,0.33-3.465,1.153-4.438,0.184c-1.269-1.263,1-2.767,1.236-4.144
				c-2.135-0.183-4.411,1.034-6.502,1.474c-2.698,0.568-5.516,0.961-8.256,1.202c-2.695,0.237-5.656-0.118-3.166-3.16
				c1.319-1.611,3.208-2.159,5.144-2.814c0,0-13.436-1.259-17.172-2.656c-5.123-1.915,4.3-4.228,5.479-5.119
				c-7.365-0.818-15.14,1.327-22.117-1.877c-1.61-0.739-4.297-2.399-2.244-4.237c1.026-0.919,3.613-0.944,4.836-1.281
				c-5.969-2.577-12.727-1.973-17.946-6.277c-6.391-5.27,7.047-4.107,9.591-4.651c0,0-18.022-6.04-22.115-12.182
				c-1.042-1.564-1.741-3.576,0.16-4.797c1.18-0.758,3.041-0.479,4.015-1.34c-3.94-1.826-8.263-4.036-11.348-7.027
				c-3.413-3.309,0.87-3.581,3.558-3.968c-0.426-1.147-11.892-11.556-11.356-14.579c1.074-6.06,13.871,2.774,15.712,4.367
				c0,0-15.362-29.683-1.156-22.193c11.273,5.943,21.461,16.969,29.109,26.493c4.998,6.224,8.067,13.307,13.572,19.184
				c5.604,5.983,10.893,11.828,16.976,17.439c11.826,10.908,39.677,24.611,55.049,8.742L241.836,181.539z" data-index="19"></path>
		</g>
		<g>
			
				<linearGradient id="SVGID_00000178926734726833114410000015533248882017312177_" gradientUnits="userSpaceOnUse" x1="242.4855" y1="174.3799" x2="242.4855" y2="273.0291" gradientTransform="matrix(-1 0 0 1 503.5212 0)">
				<stop offset="0" style="stop-color:#FF1F2A"></stop>
				<stop offset="0.2049" style="stop-color:#FF1D2D"></stop>
				<stop offset="0.3579" style="stop-color:#FE1837"></stop>
				<stop offset="0.4941" style="stop-color:#FD0F47"></stop>
				<stop offset="0.6198" style="stop-color:#FB025D"></stop>
				<stop offset="0.6328" style="stop-color:#FB0060"></stop>
			</linearGradient>
			<path style="fill: url(&quot;#SVGID_00000178926734726833114410000015533248882017312177_&quot;); opacity: 1;" d="M231.342,218.731
				c0.689-1.768,1.619-3.535,1.934-5.419c0.333-1.994,0.362-4.128,0.591-6.179c-0.196-1.441-0.391-2.876-0.589-4.295
				c-0.874-6.257-0.161-11.974,1.072-18.104c0.44-2.185,0.787-4.416,1.381-6.564c0.353-1.275,1.154-2.491,1.253-3.789l24.85,8.144
				c2.276,6.353,13.163,20.413,15.203,22.726c0.602,0.682,1.171,1.432,1.744,2.181c0.662,0.867-0.263,2.12-1.25,1.654
				c-0.322-0.152-0.551-0.136-0.66,0.158c-0.37,0.995,0.115,2.373,0.312,3.342c1.118,5.495,3.457,10.441,6.172,15.259
				c0.546,0.969-0.539,2.019-1.494,1.45c-0.509-0.302-1.003-0.615-1.472-0.928c-0.512,3.706,4.213,8.574,5.381,12.106
				c0.805,2.436,0.939,4.817,0.927,7.208c4.029,3.487,4.928,11.64,3.43,16.197c-0.336-1.537-0.097-3.043-0.769-4.538
				c-0.62-1.38-2.02-2.34-2.276-3.893c-0.557,1.722-0.592,5.453-0.042,7.116c-1.44-0.507-1.59-2.95-2.096-4.179
				c-1.119,1.735-0.091,5.171-0.246,7.225c-0.186,2.476-1.292,4.083-3.528,5.295c-0.124-1.102,0.579-2.132,0.726-3.22
				c0.134-0.99-0.03-2.057-0.293-3.001c-2.984-0.493-3.026,6.712-2.278,8.348c-2.258-0.676-2.356-3.195-3.193-4.967
				c0.102,2.965-2.084,1.774-3.052,0.086c-4.661,1.226-11.536,0.223-14.284-1.986c-0.243-0.196-0.491-0.415-0.74-0.643
				c-0.048,0.643-0.143,1.263-0.292,1.798c-0.566,2.034-3.53,4.183-3.411,0.745c-0.837,1.772-0.934,4.291-3.193,4.967
				c0.748-1.636,0.706-8.841-2.278-8.348c-0.263,0.945-0.426,2.012-0.293,3.001c0.147,1.088,0.849,2.117,0.726,3.22
				c-2.236-1.212-3.341-2.819-3.528-5.295c-0.155-2.053,0.873-5.489-0.246-7.225c-0.507,1.229-0.656,3.672-2.096,4.179
				c0.549-1.663,0.514-5.394-0.042-7.116c-0.256,1.554-1.656,2.513-2.276,3.893c-0.672,1.495-0.433,3.001-0.769,4.538
				c-1.605-4.883-0.458-13.893,4.342-16.868c-0.033-0.033-0.067-0.068-0.095-0.09c-0.692-0.542-1.199-1.427-1.832-1.979
				c-0.669,1.141-0.944,2.52-1.8,3.532c-0.17-2.808-0.068-5.313-0.867-8.053c-0.729-2.499-2.226-4.582-3.125-7.032
				c-0.008,0.128-0.015,0.256-0.019,0.383c-0.042,1.173-1.655,1.453-2.074,0.357c-0.514-1.346-0.907-2.761-1.144-4.393
				c-0.434-2.982-0.799-6.832-0.651-9.841c-0.007,0.006-0.014,0.013-0.02,0.019C232.245,220.681,230.931,219.784,231.342,218.731z" data-index="20"></path>
		</g>
		<g>
			
				<linearGradient id="SVGID_00000165226649488184778310000012392409138311726492_" gradientUnits="userSpaceOnUse" x1="227.3858" y1="188.7853" x2="275.9858" y2="188.7853" gradientTransform="matrix(-1 0 0 1 503.5212 0)">
				<stop offset="0.4957" style="stop-color:#FF3A1F"></stop>
				<stop offset="1" style="stop-color:#FF7B56"></stop>
			</linearGradient>
			<path style="fill:url(#SVGID_00000165226649488184778310000012392409138311726492_);" d="M258.188,193.86
				c-0.138-0.01-0.212,0.154-0.124,0.261c0.502,0.61,1.083,1.616,1.614,2.802c0.739,1.65-1.379,3.093-2.656,1.813l-0.06-0.06
				c-1.504-1.489-3.156-2.41-4.374-4.076c-0.082-0.112-0.255-0.078-0.275,0.06c-0.28,1.98-0.757,6.377-1.231,10.952
				c-0.391,3.785-5.772,4.193-6.706,0.504c-0.886-3.497-1.351-7.089-0.758-10.006c0.031-0.154-0.149-0.252-0.252-0.133
				c-1.967,2.281-6.511,6.169-11.269,7.531c-3.234,0.925-5.823-2.685-3.909-5.451c2.264-3.272,4.209-6.992,3.77-10.766
				c-0.015-0.127-0.165-0.176-0.268-0.1c-1.252,0.916-3.033-0.58-2.109-2.004c1.453-2.238,3.296-3.849,3.707-4.947l-0.07,0.018
				c-1.54,0.39-2.484-1.666-1.214-2.62c2.971-2.231,5.408-5.178,5.988-8.614c0.014-0.082,0.088-0.138,0.171-0.127l17.741,2.411
				c0.059,0.008,0.108,0.051,0.126,0.107c1.513,4.675,4.352,6.194,7.944,9.309c1.593,1.382,6.045,3.892,8.77,8.186
				c1.087,1.712-1.222,3.465-2.599,1.977c-0.203-0.22-5.624-2.885-5.624-2.885s4.714,3.917,10.919,8.271
				c0.869,0.61,0.945,1.922,0.105,2.572C271.838,201.709,259.286,193.942,258.188,193.86z" data-index="21"></path>
		</g>
		<g>
			
				<linearGradient id="SVGID_00000150104525120360869300000015336746248270109364_" gradientUnits="userSpaceOnUse" x1="224.7651" y1="166.7278" x2="266.8004" y2="166.7278" gradientTransform="matrix(-1 0 0 1 503.5212 0)">
				<stop offset="0" style="stop-color:#FFEB75"></stop>
				<stop offset="1" style="stop-color:#FF751F"></stop>
			</linearGradient>
			<path style="fill:url(#SVGID_00000150104525120360869300000015336746248270109364_);" d="M245.845,152.377
				c0.124-0.224,0.271-0.428,0.433-0.616c0.85-1.728,2.06-3.182,4.05-4.39c2.507-1.522,4.729-2.734,7.724-2.616
				c7.066,0.28,14.809,2.812,17.658,9.947c1.467,3.673,3.192,7.849,3.037,11.861l-6.276,5.602c-0.767,0.653-3.067,0.974-4.094,1.085
				c-1.531,0.166-3.322-0.136-4.797-0.501c-2.308-0.571-4.589-1.942-5.697-4.022c-0.125,0.411-0.211,0.848-0.236,1.339
				c-0.097,1.955,0.408,3.745,0.914,5.613c1.265,4.675,5.653,7.895,8.246,11.948c-2.521-0.665-5.378-1.949-6.911-4.11
				c0.127,1.532-0.702,4.677-2.241,4.575c-2.315-0.154-3.67-3.429-5.219-4.641c-0.498,1.548-2.538,5.385-4.422,5.252
				c-1.947-0.138-3.108-4.034-3.784-5.441c-1.11,0.864-2.172,1.889-3.305,2.761c-1.071,0.825-2.855,1.119-3.482-0.039
				C234.437,171.665,241.514,160.211,245.845,152.377z" data-index="22"></path>
		</g>
		<g>
			
				<linearGradient id="SVGID_00000019659029475146318270000010334594375575264418_" gradientUnits="userSpaceOnUse" x1="221.1778" y1="172.2113" x2="231.3181" y2="172.2113" gradientTransform="matrix(-1 0 0 1 503.5212 0)">
				<stop offset="0.4957" style="stop-color:#FF3A1F"></stop>
				<stop offset="1" style="stop-color:#FF7B56"></stop>
			</linearGradient>
			<path style="fill:url(#SVGID_00000019659029475146318270000010334594375575264418_);" d="M272.637,172.263
				c-1.359-3.32,0.803-5.283,1.944-6.072c1.736-1.202,3.853-0.55,4.54,1.047c0,0,3.716,7.21,3.166,11.614
				C282.288,178.852,278.95,172.831,272.637,172.263z" data-index="23"></path>
		</g>
		
			<linearGradient id="SVGID_00000013175509227671124760000009325107937771237818_" gradientUnits="userSpaceOnUse" x1="231.9778" y1="159.1938" x2="244.3005" y2="159.1938" gradientTransform="matrix(-1 0 0 1 503.5212 0)">
			<stop offset="0" style="stop-color:#FF1F2A"></stop>
			<stop offset="0.2049" style="stop-color:#FF1D2D"></stop>
			<stop offset="0.3579" style="stop-color:#FE1837"></stop>
			<stop offset="0.4941" style="stop-color:#FD0F47"></stop>
			<stop offset="0.6198" style="stop-color:#FB025D"></stop>
			<stop offset="0.6328" style="stop-color:#FB0060"></stop>
		</linearGradient>
		<path style="fill:url(#SVGID_00000013175509227671124760000009325107937771237818_);" d="M259.538,156.379
			c1.022-0.692,2.27-0.931,3.512-0.836c-0.374-0.209-0.768-0.384-1.188-0.506c-0.993-0.288-0.454-1.803,0.539-1.515
			c8.65,2.456,8.928,11.016,9.142,11.38c0,0-6.418-1.513-8.1-3.005c-1.333-1.182-1.678-3.091-0.249-4.314
			c0.157-0.134,0.331-0.24,0.515-0.325c-1.092-0.263-2.264-0.242-3.12,0.338C259.741,158.17,258.681,156.959,259.538,156.379z" data-index="24"></path>
		<g>
			
				<linearGradient id="SVGID_00000097496353833900390670000015474134485502411949_" gradientUnits="userSpaceOnUse" x1="188.6548" y1="122.1956" x2="201.6281" y2="165.6061" gradientTransform="matrix(-1 0 0 1 503.5212 0)">
				<stop offset="0" style="stop-color:#FFEB75"></stop>
				<stop offset="1" style="stop-color:#FF751F"></stop>
			</linearGradient>
			<path style="fill:url(#SVGID_00000097496353833900390670000015474134485502411949_);" d="M296.49,165.447
				c0,0,19.031-10.447,22.462-27.479c1.277-6.909,0.818-12.511-5.724-14.541c-7.389-2.294-9.707,5.063-10.958,12.409
				C301.025,143.15,296.49,165.447,296.49,165.447z" data-index="25"></path>
		</g>
		<g>
			
				<linearGradient id="SVGID_00000137098354262153869040000016629027425331516583_" gradientUnits="userSpaceOnUse" x1="216.223" y1="130.177" x2="208.8668" y2="157.3949" gradientTransform="matrix(-1 0 0 1 503.5212 0)">
				<stop offset="0" style="stop-color:#FFEB75"></stop>
				<stop offset="1" style="stop-color:#FF751F"></stop>
			</linearGradient>
			<path style="fill:url(#SVGID_00000137098354262153869040000016629027425331516583_);" d="M290.755,161.98
				c0,0,7.853-11.792,4.693-22.681c-1.348-4.382-3.306-7.484-7.704-6.683c-4.968,0.905-4.086,5.861-2.591,10.488
				C286.643,147.711,290.755,161.98,290.755,161.98z" data-index="26"></path>
		</g>
		<g>
			
				<linearGradient id="SVGID_00000104693513118159178060000017529028497020772533_" gradientUnits="userSpaceOnUse" x1="168.9138" y1="97.9518" x2="173.6538" y2="114.1676" gradientTransform="matrix(-0.9924 0.1234 0.1234 0.9924 488.7142 -19.1092)">
				<stop offset="0" style="stop-color:#FFEB75"></stop>
				<stop offset="1" style="stop-color:#FF751F"></stop>
			</linearGradient>
			<path style="fill:url(#SVGID_00000104693513118159178060000017529028497020772533_);" d="M330.023,114.262
				c0,0,4.923-4.358,4.798-9.618c-0.085-2.126-0.595-3.75-2.663-3.913c-2.336-0.184-2.529,2.144-2.407,4.398
				C329.872,107.373,330.023,114.262,330.023,114.262z" data-index="27"></path>
		</g>
		<g>
			
				<linearGradient id="SVGID_00000180339018018724905280000011219055136053890456_" gradientUnits="userSpaceOnUse" x1="162.3084" y1="110.6375" x2="170.3337" y2="138.0925" gradientTransform="matrix(-0.9405 -0.3397 -0.3397 0.9405 535.3529 61.7011)">
				<stop offset="0" style="stop-color:#FFEB75"></stop>
				<stop offset="1" style="stop-color:#FF751F"></stop>
			</linearGradient>
			<path style="fill:url(#SVGID_00000180339018018724905280000011219055136053890456_);" d="M328.614,131.325
				c0,0,10.773-2.8,14.62-10.835c1.504-3.273,1.98-6.116-1.017-7.948c-3.385-2.069-5.461,1.296-7.007,4.79
				C333.671,120.812,328.614,131.325,328.614,131.325z" data-index="28"></path>
		</g>
		<g>
			
				<linearGradient id="SVGID_00000084498392762838241180000005772192495508583095_" gradientUnits="userSpaceOnUse" x1="50.6548" y1="123.1956" x2="63.6281" y2="166.6061" gradientTransform="matrix(1 0 0 1 134.8796 0)">
				<stop offset="0" style="stop-color:#FFEB75"></stop>
				<stop offset="1" style="stop-color:#FF751F"></stop>
			</linearGradient>
			<path style="fill:url(#SVGID_00000084498392762838241180000005772192495508583095_);" d="M203.91,166.447
				c0,0-19.031-10.447-22.462-27.479c-1.277-6.909-0.818-12.511,5.724-14.541c7.39-2.294,9.706,5.063,10.958,12.409
				C199.376,144.15,203.91,166.447,203.91,166.447z" data-index="29"></path>
		</g>
		<g>
			
				<linearGradient id="SVGID_00000021102677927104642100000017764612148663505592_" gradientUnits="userSpaceOnUse" x1="391.3936" y1="88.2005" x2="389.4226" y2="55.0869" gradientTransform="matrix(-1 0 0 1 503.5212 0)">
				<stop offset="0.4957" style="stop-color:#FF3A1F"></stop>
				<stop offset="1" style="stop-color:#FF7B56"></stop>
			</linearGradient>
			<path style="fill:url(#SVGID_00000021102677927104642100000017764612148663505592_);" d="M120.226,92.656
				c0,0-15.806-14.882-14.861-32.23c0.494-7.008,2.342-12.317,9.185-12.644c7.729-0.369,8.128,7.334,7.499,14.759
				C121.422,69.933,120.226,92.656,120.226,92.656z" data-index="30"></path>
		</g>
		<g>
			
				<linearGradient id="SVGID_00000049935778498902956630000009862330363836353681_" gradientUnits="userSpaceOnUse" x1="78.223" y1="131.177" x2="70.8668" y2="158.3949" gradientTransform="matrix(1 0 0 1 134.8796 0)">
				<stop offset="0" style="stop-color:#FFEB75"></stop>
				<stop offset="1" style="stop-color:#FF751F"></stop>
			</linearGradient>
			<path style="fill:url(#SVGID_00000049935778498902956630000009862330363836353681_);" d="M209.645,162.98
				c0,0-7.853-11.792-4.693-22.681c1.348-4.382,3.306-7.484,7.704-6.683c4.968,0.905,4.086,5.861,2.59,10.488
				C213.758,148.711,209.645,162.98,209.645,162.98z" data-index="31"></path>
		</g>
		<g>
			
				<linearGradient id="SVGID_00000103946249703202499670000007728260811116329863_" gradientUnits="userSpaceOnUse" x1="381.3031" y1="94.8699" x2="365.9289" y2="70.8232" gradientTransform="matrix(-1 0 0 1 503.5212 0)">
				<stop offset="0.4957" style="stop-color:#FF3A1F"></stop>
				<stop offset="1" style="stop-color:#FF7B56"></stop>
			</linearGradient>
			<path style="fill:url(#SVGID_00000103946249703202499670000007728260811116329863_);" d="M124.576,96.868
				c0,0-2.723-13.904,4.376-22.745c2.928-3.529,5.926-5.641,9.68-3.212c4.239,2.743,1.522,6.981-1.635,10.679
				C133.852,85.273,124.576,96.868,124.576,96.868z" data-index="32"></path>
		</g>
		<g>
			
				<linearGradient id="SVGID_00000026127280868591421760000008841809458667762821_" gradientUnits="userSpaceOnUse" x1="384.6187" y1="316.5003" x2="382.6477" y2="283.3883" gradientTransform="matrix(0.0767 0.9971 0.9971 -0.0767 -135.4544 -5.7177)">
				<stop offset="0" style="stop-color:#FF1F2A"></stop>
				<stop offset="0.2049" style="stop-color:#FF1D2D"></stop>
				<stop offset="0.3579" style="stop-color:#FE1837"></stop>
				<stop offset="0.4941" style="stop-color:#FD0F47"></stop>
				<stop offset="0.6198" style="stop-color:#FB025D"></stop>
				<stop offset="0.6328" style="stop-color:#FB0060"></stop>
			</linearGradient>
			<path style="fill:url(#SVGID_00000026127280868591421760000008841809458667762821_);" d="M213.449,345.094
				c0,0-13.626,16.901-30.995,17.289c-7.026,0.044-12.46-1.391-13.311-8.188c-0.961-7.678,6.689-8.667,14.14-8.609
				C190.702,345.643,213.449,345.094,213.449,345.094z" data-index="33"></path>
		</g>
		<g>
			
				<linearGradient id="SVGID_00000129910390594562743160000000529704313531919000_" gradientUnits="userSpaceOnUse" x1="258.4577" y1="261.7016" x2="256.4868" y2="228.5898" gradientTransform="matrix(-0.4219 0.9067 0.9067 0.4219 -31.0995 -113.2948)">
				<stop offset="0.4957" style="stop-color:#FF3A1F"></stop>
				<stop offset="1" style="stop-color:#FF7B56"></stop>
			</linearGradient>
			<path style="fill:url(#SVGID_00000129910390594562743160000000529704313531919000_);" d="M104.598,225.998
				c0,0-20.161,8.053-35.491-0.123c-6.145-3.405-10.179-7.32-7.588-13.661c2.926-7.163,10.078-4.276,16.545-0.573
				C84.501,215.327,104.598,225.998,104.598,225.998z" data-index="34"></path>
		</g>
		<g>
			
				<linearGradient id="SVGID_00000082347144293471013420000004780267020454665895_" gradientUnits="userSpaceOnUse" x1="293.5762" y1="267.1584" x2="278.2029" y2="243.113" gradientTransform="matrix(0.7356 0.6775 0.6775 -0.7356 -282.4414 233.8587)">
				<stop offset="0.4957" style="stop-color:#FF3A1F"></stop>
				<stop offset="1" style="stop-color:#FF7B56"></stop>
			</linearGradient>
			<path style="fill:url(#SVGID_00000082347144293471013420000004780267020454665895_);" d="M114.132,233.168
				c0,0-7.416,12.072-18.627,13.766c-4.544,0.612-8.181,0.135-9.296-4.195c-1.26-4.89,3.61-6.166,8.438-6.747
				C99.454,235.413,114.132,233.168,114.132,233.168z" data-index="35"></path>
		</g>
		<g>
			
				<linearGradient id="SVGID_00000101808056927382221800000008930408121892228009_" gradientUnits="userSpaceOnUse" x1="396.7124" y1="247.8697" x2="381.338" y2="223.8224" gradientTransform="matrix(-0.2782 0.9605 0.9605 0.2782 53.0901 -107.63)">
				<stop offset="0" style="stop-color:#FF1F2A"></stop>
				<stop offset="0.2049" style="stop-color:#FF1D2D"></stop>
				<stop offset="0.3579" style="stop-color:#FE1837"></stop>
				<stop offset="0.4941" style="stop-color:#FD0F47"></stop>
				<stop offset="0.6198" style="stop-color:#FB025D"></stop>
				<stop offset="0.6328" style="stop-color:#FB0060"></stop>
			</linearGradient>
			<path style="fill:url(#SVGID_00000101808056927382221800000008930408121892228009_);" d="M183.379,340.661
				c0,0-14.112-1.252-20.63-10.531c-2.575-3.794-3.77-7.262-0.393-10.191c3.814-3.309,7.128,0.48,9.803,4.542
				C174.822,328.525,183.379,340.661,183.379,340.661z" data-index="36"></path>
		</g>
		<g>
			
				<linearGradient id="SVGID_00000101075286860471675150000002197251544664687269_" gradientUnits="userSpaceOnUse" x1="448.4709" y1="221.0935" x2="433.0968" y2="197.0468" gradientTransform="matrix(0.9815 0.1915 0.1915 -0.9815 -265.3067 483.9702)">
				<stop offset="0" style="stop-color:#FF1F2A"></stop>
				<stop offset="0.2049" style="stop-color:#FF1D2D"></stop>
				<stop offset="0.3579" style="stop-color:#FE1837"></stop>
				<stop offset="0.4941" style="stop-color:#FD0F47"></stop>
				<stop offset="0.6198" style="stop-color:#FB025D"></stop>
				<stop offset="0.6328" style="stop-color:#FB0060"></stop>
			</linearGradient>
			<path style="fill:url(#SVGID_00000101075286860471675150000002197251544664687269_);" d="M215.276,350.437
				c0,0,0.01,14.168-8.652,21.485c-3.549,2.903-6.897,4.402-10.116,1.299c-3.635-3.505-0.157-7.143,3.651-10.168
				C203.951,360.041,215.276,350.437,215.276,350.437z" data-index="37"></path>
		</g>
		<g>
			
				<linearGradient id="SVGID_00000164480158908415717260000005265713220075081885_" gradientUnits="userSpaceOnUse" x1="386.3799" y1="146.2207" x2="384.4088" y2="113.1073" gradientTransform="matrix(-0.5495 0.8355 0.8355 0.5495 166.7177 -260.3548)">
				<stop offset="0" style="stop-color:#FFEB75"></stop>
				<stop offset="1" style="stop-color:#FF751F"></stop>
			</linearGradient>
			<path style="fill:url(#SVGID_00000164480158908415717260000005265713220075081885_);" d="M84.741,138.496
				c0,0-21.119,5.028-35.094-5.294c-5.584-4.264-9.003-8.725-5.517-14.622c3.938-6.66,10.594-2.761,16.451,1.844
				C66.415,125.01,84.741,138.496,84.741,138.496z" data-index="38"></path>
		</g>
		<g>
			
				<linearGradient id="SVGID_00000097491624495148091250000003223102703110758573_" gradientUnits="userSpaceOnUse" x1="376.2894" y1="152.8901" x2="360.9153" y2="128.8435" gradientTransform="matrix(-0.5495 0.8355 0.8355 0.5495 166.7177 -260.3548)">
				<stop offset="0" style="stop-color:#FFEB75"></stop>
				<stop offset="1" style="stop-color:#FF751F"></stop>
			</linearGradient>
			<path style="fill:url(#SVGID_00000097491624495148091250000003223102703110758573_);" d="M90.652,137.176
				c0,0-13.113-5.365-16.599-16.154c-1.34-4.385-1.457-8.051,2.635-9.852c4.622-2.034,6.669,2.564,8.024,7.235
				C86.061,123.054,90.652,137.176,90.652,137.176z" data-index="39"></path>
		</g>
		<g>
			
				<linearGradient id="SVGID_00000036953044661971457530000017834595397581148046_" gradientUnits="userSpaceOnUse" x1="634.3936" y1="86.2005" x2="632.4226" y2="53.0869" gradientTransform="matrix(1 0 0 1 -247.3873 0)">
				<stop offset="0.4957" style="stop-color:#FF3A1F"></stop>
				<stop offset="1" style="stop-color:#FF7B56"></stop>
			</linearGradient>
			<path style="fill:url(#SVGID_00000036953044661971457530000017834595397581148046_);" d="M378.908,90.656
				c0,0,15.806-14.882,14.861-32.23c-0.495-7.008-2.342-12.317-9.185-12.644c-7.729-0.369-8.128,7.334-7.499,14.759
				C377.711,67.933,378.908,90.656,378.908,90.656z" data-index="40"></path>
		</g>
		<g>
			
				<linearGradient id="SVGID_00000121245635718309048270000000251990590293699745_" gradientUnits="userSpaceOnUse" x1="624.3031" y1="92.8699" x2="608.9289" y2="68.8232" gradientTransform="matrix(1 0 0 1 -247.3873 0)">
				<stop offset="0.4957" style="stop-color:#FF3A1F"></stop>
				<stop offset="1" style="stop-color:#FF7B56"></stop>
			</linearGradient>
			<path style="fill:url(#SVGID_00000121245635718309048270000000251990590293699745_);" d="M374.558,94.868
				c0,0,2.723-13.904-4.376-22.745c-2.928-3.529-5.926-5.641-9.68-3.212c-4.239,2.743-1.522,6.981,1.635,10.679
				C365.282,83.273,374.558,94.868,374.558,94.868z" data-index="41"></path>
		</g>
		<g>
			
				<linearGradient id="SVGID_00000088821990777549863350000016761620561485273266_" gradientUnits="userSpaceOnUse" x1="32.0977" y1="115.9718" x2="36.8377" y2="132.1877" gradientTransform="matrix(0.9924 0.1234 -0.1234 0.9924 149.6866 -19.1092)">
				<stop offset="0" style="stop-color:#FFEB75"></stop>
				<stop offset="1" style="stop-color:#FF751F"></stop>
			</linearGradient>
			<path style="fill:url(#SVGID_00000088821990777549863350000016761620561485273266_);" d="M170.378,115.262
				c0,0-4.923-4.358-4.798-9.618c0.085-2.126,0.595-3.75,2.663-3.913c2.336-0.184,2.529,2.144,2.407,4.398
				C170.529,108.373,170.378,115.262,170.378,115.262z" data-index="42"></path>
		</g>
		<g>
			
				<linearGradient id="SVGID_00000006671982191333143030000003145628899940709772_" gradientUnits="userSpaceOnUse" x1="32.1714" y1="64.6965" x2="40.1967" y2="92.1514" gradientTransform="matrix(0.9405 -0.3397 0.3397 0.9405 103.0479 61.7011)">
				<stop offset="0" style="stop-color:#FFEB75"></stop>
				<stop offset="1" style="stop-color:#FF751F"></stop>
			</linearGradient>
			<path style="fill:url(#SVGID_00000006671982191333143030000003145628899940709772_);" d="M171.787,132.325
				c0,0-10.773-2.8-14.62-10.835c-1.503-3.273-1.98-6.116,1.017-7.948c3.385-2.069,5.461,1.296,7.007,4.79
				C166.73,121.812,171.787,132.325,171.787,132.325z" data-index="43"></path>
		</g>
		<g>
			
				<linearGradient id="SVGID_00000140007401692232439390000015391273739578279817_" gradientUnits="userSpaceOnUse" x1="40.9283" y1="246.8707" x2="45.6685" y2="263.0872" gradientTransform="matrix(-0.3544 -0.9351 0.9351 -0.3544 -54.1251 362.807)">
				<stop offset="0" style="stop-color:#FFEB75"></stop>
				<stop offset="1" style="stop-color:#FF751F"></stop>
			</linearGradient>
			<path style="fill:url(#SVGID_00000140007401692232439390000015391273739578279817_);" d="M174.295,227.105
				c0,0-1.554,6.389-6.264,8.735c-1.919,0.918-3.594,1.226-4.703-0.527c-1.253-1.98,0.715-3.238,2.764-4.183
				C168.133,230.189,174.295,227.105,174.295,227.105z" data-index="44"></path>
		</g>
		<g>
			
				<linearGradient id="SVGID_00000093137680857763991450000016995938890012425394_" gradientUnits="userSpaceOnUse" x1="60.5696" y1="152.7213" x2="65.3098" y2="168.9378" gradientTransform="matrix(-0.3544 -0.9351 0.9351 -0.3544 -54.1251 362.807)">
				<stop offset="0.4957" style="stop-color:#FF3A1F"></stop>
				<stop offset="1" style="stop-color:#FF7B56"></stop>
			</linearGradient>
			<path style="fill:url(#SVGID_00000093137680857763991450000016995938890012425394_);" d="M79.295,242.105
				c0,0-1.554,6.389-6.264,8.735c-1.919,0.918-3.594,1.226-4.703-0.527c-1.253-1.98,0.715-3.238,2.764-4.183
				C73.133,245.189,79.295,242.105,79.295,242.105z" data-index="45"></path>
		</g>
		<g>
			
				<linearGradient id="SVGID_00000036245320833109389800000006538581667631108736_" gradientUnits="userSpaceOnUse" x1="8.6997" y1="292.404" x2="13.4398" y2="308.6205" gradientTransform="matrix(-0.3544 -0.9351 0.9351 -0.3544 -54.1251 362.807)">
				<stop offset="0.4957" style="stop-color:#FF3A1F"></stop>
				<stop offset="1" style="stop-color:#FF7B56"></stop>
			</linearGradient>
			<path style="fill:url(#SVGID_00000036245320833109389800000006538581667631108736_);" d="M228.295,241.105
				c0,0-1.554,6.389-6.264,8.735c-1.919,0.918-3.594,1.226-4.703-0.527c-1.253-1.98,0.715-3.238,2.764-4.183
				C222.133,244.189,228.295,241.105,228.295,241.105z" data-index="46"></path>
		</g>
		<g>
			
				<linearGradient id="SVGID_00000078738638849987861410000003109915624090248887_" gradientUnits="userSpaceOnUse" x1="-19.8809" y1="184.3188" x2="-11.8562" y2="211.7717" gradientTransform="matrix(-0.7397 -0.673 0.673 -0.7397 39.3717 365.1142)">
				<stop offset="0" style="stop-color:#FFEB75"></stop>
				<stop offset="1" style="stop-color:#FF751F"></stop>
			</linearGradient>
			<path style="fill:url(#SVGID_00000078738638849987861410000003109915624090248887_);" d="M188.724,217.889
				c0,0,2.556,10.834-2.752,17.988c-2.192,2.858-4.483,4.607-7.503,2.813c-3.411-2.026-1.405-5.435,0.963-8.433
				C181.79,227.271,188.724,217.889,188.724,217.889z" data-index="47"></path>
		</g>
		<g>
			
				<linearGradient id="SVGID_00000093895803885378053480000002079868983545346184_" gradientUnits="userSpaceOnUse" x1="36.5037" y1="71.643" x2="44.5286" y2="99.0968" gradientTransform="matrix(0.3773 -0.9261 0.9261 0.3773 -26.5765 240.5933)">
				<stop offset="0.4957" style="stop-color:#FF3A1F"></stop>
				<stop offset="1" style="stop-color:#FF7B56"></stop>
			</linearGradient>
			<path style="fill:url(#SVGID_00000093895803885378053480000002079868983545346184_);" d="M79.975,235.419
				c0,0-9.292,6.128-17.836,3.607c-3.438-1.075-5.868-2.624-5.223-6.076c0.729-3.9,4.619-3.189,8.249-1.998
				C68.78,232.138,79.975,235.419,79.975,235.419z" data-index="48"></path>
		</g>
		<g>
			
				<linearGradient id="SVGID_00000040557911439206206980000018283627354023206274_" gradientUnits="userSpaceOnUse" x1="-25.7188" y1="183.5458" x2="-17.6932" y2="211.0017" gradientTransform="matrix(0.7857 -0.6185 0.6185 0.7857 44.9269 162.9815)">
				<stop offset="0" style="stop-color:#FF1F2A"></stop>
				<stop offset="0.2049" style="stop-color:#FF1D2D"></stop>
				<stop offset="0.3579" style="stop-color:#FE1837"></stop>
				<stop offset="0.4941" style="stop-color:#FD0F47"></stop>
				<stop offset="0.6198" style="stop-color:#FB025D"></stop>
				<stop offset="0.6328" style="stop-color:#FB0060"></stop>
			</linearGradient>
			<path style="fill:url(#SVGID_00000040557911439206206980000018283627354023206274_);" d="M160.427,337.557
				c0,0-11.107,0.734-17.288-5.68c-2.458-2.634-3.804-5.181-1.537-7.864c2.561-3.03,5.592-0.489,8.159,2.341
				C152.317,329.171,160.427,337.557,160.427,337.557z" data-index="49"></path>
		</g>
		<g>
			
				<linearGradient id="SVGID_00000121961590496200747500000012773235391987141047_" gradientUnits="userSpaceOnUse" x1="417.144" y1="125.0967" x2="415.173" y2="91.9839" gradientTransform="matrix(0.9347 0.3555 -0.3555 0.9347 -12.6327 160.7256)">
				<stop offset="0" style="stop-color:#FFEB75"></stop>
				<stop offset="1" style="stop-color:#FF751F"></stop>
			</linearGradient>
			<path style="fill: url(&quot;#SVGID_00000121961590496200747500000012773235391987141047_&quot;); opacity: 1;" d="M323.647,427.233
				c0,0,20.064-8.291,25.348-24.842c2.029-6.726,2.189-12.345-4.09-15.083c-7.092-3.093-10.205,3.965-12.256,11.129
				C330.606,405.57,323.647,427.233,323.647,427.233z" data-index="50"></path>
		</g>
		<g>
			
				<linearGradient id="SVGID_00000026864577318134262000000001241862243689183398_" gradientUnits="userSpaceOnUse" x1="390.981" y1="83.9426" x2="375.6079" y2="59.8976" gradientTransform="matrix(0.7158 0.6984 -0.6984 0.7158 123.3979 -27.1116)">
				<stop offset="0" style="stop-color:#FF1F2A"></stop>
				<stop offset="0.2049" style="stop-color:#FF1D2D"></stop>
				<stop offset="0.3579" style="stop-color:#FE1837"></stop>
				<stop offset="0.4941" style="stop-color:#FD0F47"></stop>
				<stop offset="0.6198" style="stop-color:#FB025D"></stop>
				<stop offset="0.6328" style="stop-color:#FB0060"></stop>
			</linearGradient>
			<path style="fill:url(#SVGID_00000026864577318134262000000001241862243689183398_);" d="M341.553,305.819
				c0,0,11.659-8.05,12.752-19.335c0.369-4.57-0.302-8.176-4.685-9.059c-4.95-0.997-5.964,3.934-6.287,8.786
				C343.012,291.042,341.553,305.819,341.553,305.819z" data-index="51"></path>
		</g>
		<g>
			
				<linearGradient id="SVGID_00000067959275862565337870000005662962994886840732_" gradientUnits="userSpaceOnUse" x1="272.0374" y1="139.2598" x2="256.6635" y2="115.2133" gradientTransform="matrix(-0.0938 0.9956 -0.9956 -0.0938 494.1878 175.2534)">
				<stop offset="0" style="stop-color:#FFEB75"></stop>
				<stop offset="1" style="stop-color:#FF751F"></stop>
			</linearGradient>
			<path style="fill:url(#SVGID_00000067959275862565337870000005662962994886840732_);" d="M328.255,430.496
				c0,0,13.587,4.015,23.055-2.223c3.788-2.584,6.172-5.371,4.106-9.335c-2.334-4.478-6.807-2.17-10.785,0.627
				C340.67,422.349,328.255,430.496,328.255,430.496z" data-index="52"></path>
		</g>
		<g>
			
				<linearGradient id="SVGID_00000079455781808273681000000005841727410174872459_" gradientUnits="userSpaceOnUse" x1="-114.0875" y1="48.7899" x2="-106.0625" y2="76.2441" gradientTransform="matrix(-0.9886 -0.1505 -0.1505 0.9886 263.7124 203.8777)">
				<stop offset="0" style="stop-color:#FF1F2A"></stop>
				<stop offset="0.2049" style="stop-color:#FF1D2D"></stop>
				<stop offset="0.3579" style="stop-color:#FE1837"></stop>
				<stop offset="0.4941" style="stop-color:#FD0F47"></stop>
				<stop offset="0.6198" style="stop-color:#FB025D"></stop>
				<stop offset="0.6328" style="stop-color:#FB0060"></stop>
			</linearGradient>
			<path style="fill:url(#SVGID_00000079455781808273681000000005841727410174872459_);" d="M356.988,292.799
				c0,0,10.024-4.839,12.237-13.468c0.839-3.503,0.754-6.384-2.541-7.599c-3.722-1.372-5.106,2.332-5.943,6.06
				C359.907,281.504,356.988,292.799,356.988,292.799z" data-index="53"></path>
		</g>
		<g>
			
				<linearGradient id="SVGID_00000005234364342988238650000010504006328111498626_" gradientUnits="userSpaceOnUse" x1="-7.4511" y1="211.2552" x2="0.5734" y2="238.7075" gradientTransform="matrix(-0.7073 -0.707 0.707 -0.7073 67.9126 417.9886)">
				<stop offset="0.4957" style="stop-color:#FF3A1F"></stop>
				<stop offset="1" style="stop-color:#FF7B56"></stop>
			</linearGradient>
			<path style="fill:url(#SVGID_00000005234364342988238650000010504006328111498626_);" d="M234.267,250.095
				c0,0,2.044,10.941-3.593,17.839c-2.324,2.752-4.694,4.392-7.626,2.458c-3.312-2.184-1.148-5.494,1.358-8.378
				C226.901,259.142,234.267,250.095,234.267,250.095z" data-index="54"></path>
		</g>
		<g>
			
				<linearGradient id="SVGID_00000055697380342002392640000013206481471666396583_" gradientUnits="userSpaceOnUse" x1="341.3747" y1="76.3951" x2="339.4038" y2="43.2833" gradientTransform="matrix(0.4219 0.9067 -0.9067 0.4219 327.5401 -113.2948)">
				<stop offset="0.4957" style="stop-color:#FF3A1F"></stop>
				<stop offset="1" style="stop-color:#FF7B56"></stop>
			</linearGradient>
			<path style="fill:url(#SVGID_00000055697380342002392640000013206481471666396583_);" d="M394.843,222.998
				c0,0,20.161,8.053,35.491-0.123c6.146-3.405,10.179-7.32,7.589-13.661c-2.926-7.163-10.078-4.276-16.545-0.573
				C414.939,212.327,394.843,222.998,394.843,222.998z" data-index="55"></path>
		</g>
		<g>
			
				<linearGradient id="SVGID_00000001622354190667776320000000890942470667738511_" gradientUnits="userSpaceOnUse" x1="142.234" y1="131.848" x2="126.8607" y2="107.8027" gradientTransform="matrix(-0.7356 0.6775 -0.6775 -0.7356 578.882 233.8587)">
				<stop offset="0.4957" style="stop-color:#FF3A1F"></stop>
				<stop offset="1" style="stop-color:#FF7B56"></stop>
			</linearGradient>
			<path style="fill:url(#SVGID_00000001622354190667776320000000890942470667738511_);" d="M385.308,230.168
				c0,0,7.416,12.072,18.627,13.766c4.544,0.612,8.181,0.135,9.296-4.195c1.26-4.89-3.61-6.166-8.438-6.747
				C399.987,232.413,385.308,230.168,385.308,230.168z" data-index="56"></path>
		</g>
		<g>
			
				<linearGradient id="SVGID_00000079448542827220820680000000709709339223503237_" gradientUnits="userSpaceOnUse" x1="135.3172" y1="-36.0385" x2="140.0574" y2="-19.8221" gradientTransform="matrix(0.3544 -0.9351 -0.9351 -0.3544 350.5658 362.807)">
				<stop offset="0.4957" style="stop-color:#FF3A1F"></stop>
				<stop offset="1" style="stop-color:#FF7B56"></stop>
			</linearGradient>
			<path style="fill:url(#SVGID_00000079448542827220820680000000709709339223503237_);" d="M420.146,239.105
				c0,0,1.554,6.389,6.264,8.735c1.919,0.918,3.594,1.226,4.703-0.527c1.253-1.98-0.715-3.238-2.764-4.183
				C426.308,242.189,420.146,239.105,420.146,239.105z" data-index="57"></path>
		</g>
		<g>
			
				<linearGradient id="SVGID_00000132783353444755904440000017457157302868453557_" gradientUnits="userSpaceOnUse" x1="93.7248" y1="76.5266" x2="98.465" y2="92.7431" gradientTransform="matrix(0.3544 -0.9351 -0.9351 -0.3544 350.5658 362.807)">
				<stop offset="0.4957" style="stop-color:#FF3A1F"></stop>
				<stop offset="1" style="stop-color:#FF7B56"></stop>
			</linearGradient>
			<path style="fill:url(#SVGID_00000132783353444755904440000017457157302868453557_);" d="M300.146,238.105
				c0,0,1.554,6.389,6.264,8.735c1.919,0.918,3.594,1.226,4.703-0.527c1.253-1.98-0.715-3.238-2.764-4.183
				C306.308,241.189,300.146,238.105,300.146,238.105z" data-index="58"></path>
		</g>
		<g>
			
				<linearGradient id="SVGID_00000052811859408321034860000006883474292755383710_" gradientUnits="userSpaceOnUse" x1="-37.3087" y1="-117.484" x2="-29.2838" y2="-90.0302" gradientTransform="matrix(-0.3773 -0.9261 -0.9261 0.3773 323.0172 240.5933)">
				<stop offset="0.4957" style="stop-color:#FF3A1F"></stop>
				<stop offset="1" style="stop-color:#FF7B56"></stop>
			</linearGradient>
			<path style="fill:url(#SVGID_00000052811859408321034860000006883474292755383710_);" d="M419.465,232.419
				c0,0,9.292,6.128,17.836,3.607c3.438-1.075,5.868-2.624,5.223-6.076c-0.729-3.9-4.619-3.189-8.249-1.998
				C430.661,229.138,419.465,232.419,419.465,232.419z" data-index="59"></path>
		</g>
		<g>
			
				<linearGradient id="SVGID_00000028290222841875090470000010271580195722359217_" gradientUnits="userSpaceOnUse" x1="158.7432" y1="49.3729" x2="166.7677" y2="76.8252" gradientTransform="matrix(0.7073 -0.707 -0.707 -0.7073 228.528 417.9886)">
				<stop offset="0.4957" style="stop-color:#FF3A1F"></stop>
				<stop offset="1" style="stop-color:#FF7B56"></stop>
			</linearGradient>
			<path style="fill:url(#SVGID_00000028290222841875090470000010271580195722359217_);" d="M294.174,247.095
				c0,0-2.044,10.941,3.593,17.839c2.324,2.752,4.694,4.392,7.626,2.458c3.312-2.184,1.148-5.494-1.358-8.378
				C301.54,256.142,294.174,247.095,294.174,247.095z" data-index="60"></path>
		</g>
		<g>
			
				<linearGradient id="SVGID_00000122715791221420010330000002987649775606442394_" gradientUnits="userSpaceOnUse" x1="-45.2174" y1="88.4808" x2="-37.192" y2="115.9362" gradientTransform="matrix(0.5063 -0.8623 0.8623 0.5063 26.3359 75.6937)">
				<stop offset="0" style="stop-color:#FFEB75"></stop>
				<stop offset="1" style="stop-color:#FF751F"></stop>
			</linearGradient>
			<path style="fill:url(#SVGID_00000122715791221420010330000002987649775606442394_);" d="M105.666,164.861
				c0,0-10.075,4.731-18.169,1.01c-3.248-1.557-5.431-3.439-4.297-6.763c1.281-3.755,5.029-2.493,8.451-0.794
				C95.058,160.007,105.666,164.861,105.666,164.861z" data-index="61"></path>
		</g>
		<g>
			
				<linearGradient id="SVGID_00000067915823304578847600000016183989425601618351_" gradientUnits="userSpaceOnUse" x1="-66.7233" y1="122.8137" x2="-58.6987" y2="150.2666" gradientTransform="matrix(0.225 -0.9744 0.9744 0.225 -5.4112 108.093)">
				<stop offset="0" style="stop-color:#FFEB75"></stop>
				<stop offset="1" style="stop-color:#FF751F"></stop>
			</linearGradient>
			<path style="fill:url(#SVGID_00000067915823304578847600000016183989425601618351_);" d="M125.594,198.113
				c0,0-8.198,7.53-17.034,6.402c-3.565-0.513-6.211-1.656-6.124-5.167c0.098-3.966,4.052-3.884,7.826-3.286
				C114.019,196.656,125.594,198.113,125.594,198.113z" data-index="62"></path>
		</g>
		<g>
			
				<linearGradient id="SVGID_00000008124341675174790870000003166264797447616433_" gradientUnits="userSpaceOnUse" x1="527.3364" y1="-66.28" x2="525.3654" y2="-99.3934" gradientTransform="matrix(0.5495 0.8355 -0.8355 0.5495 75.3433 -260.3548)">
				<stop offset="0" style="stop-color:#FFEB75"></stop>
				<stop offset="1" style="stop-color:#FF751F"></stop>
			</linearGradient>
			<path style="fill:url(#SVGID_00000008124341675174790870000003166264797447616433_);" d="M412.32,139.496
				c0,0,21.119,5.028,35.094-5.294c5.584-4.264,9.003-8.725,5.517-14.622c-3.938-6.66-10.594-2.761-16.451,1.844
				C430.646,126.01,412.32,139.496,412.32,139.496z" data-index="63"></path>
		</g>
		<g>
			
				<linearGradient id="SVGID_00000146500543571751991730000003715845065534327960_" gradientUnits="userSpaceOnUse" x1="517.2458" y1="-59.6107" x2="501.8718" y2="-83.6573" gradientTransform="matrix(0.5495 0.8355 -0.8355 0.5495 75.3433 -260.3548)">
				<stop offset="0" style="stop-color:#FFEB75"></stop>
				<stop offset="1" style="stop-color:#FF751F"></stop>
			</linearGradient>
			<path style="fill:url(#SVGID_00000146500543571751991730000003715845065534327960_);" d="M406.409,138.176
				c0,0,13.113-5.365,16.599-16.154c1.34-4.385,1.457-8.051-2.635-9.852c-4.622-2.034-6.669,2.564-8.024,7.235
				C411,124.054,406.409,138.176,406.409,138.176z" data-index="64"></path>
		</g>
		<g>
			
				<linearGradient id="SVGID_00000087407212296432701740000006895767226916541579_" gradientUnits="userSpaceOnUse" x1="130.3642" y1="8.0686" x2="135.1044" y2="24.2851" gradientTransform="matrix(0.3544 -0.9351 -0.9351 -0.3544 296.1861 362.807)">
				<stop offset="0" style="stop-color:#FFEB75"></stop>
				<stop offset="1" style="stop-color:#FF751F"></stop>
			</linearGradient>
			<path style="fill:url(#SVGID_00000087407212296432701740000006895767226916541579_);" d="M322.766,228.105
				c0,0,1.554,6.389,6.264,8.735c1.919,0.918,3.594,1.226,4.703-0.527c1.253-1.98-0.715-3.238-2.764-4.183
				C328.928,231.189,322.766,228.105,322.766,228.105z" data-index="65"></path>
		</g>
		<g>
			
				<linearGradient id="SVGID_00000025440134242998841010000010652967235104208014_" gradientUnits="userSpaceOnUse" x1="168.0536" y1="11.9788" x2="176.0783" y2="39.4317" gradientTransform="matrix(0.7397 -0.673 -0.673 -0.7397 202.6893 365.1142)">
				<stop offset="0" style="stop-color:#FFEB75"></stop>
				<stop offset="1" style="stop-color:#FF751F"></stop>
			</linearGradient>
			<path style="fill:url(#SVGID_00000025440134242998841010000010652967235104208014_);" d="M308.337,218.889
				c0,0-2.556,10.834,2.752,17.988c2.192,2.858,4.483,4.607,7.503,2.813c3.411-2.026,1.405-5.435-0.963-8.433
				C315.271,228.271,308.337,218.889,308.337,218.889z" data-index="66"></path>
		</g>
		<g>
			
				<linearGradient id="SVGID_00000175298040614287626390000004281786970994758571_" gradientUnits="userSpaceOnUse" x1="-175.1991" y1="-130.9211" x2="-167.1737" y2="-103.4657" gradientTransform="matrix(-0.5063 -0.8623 -0.8623 0.5063 215.7251 75.6937)">
				<stop offset="0" style="stop-color:#FFEB75"></stop>
				<stop offset="1" style="stop-color:#FF751F"></stop>
			</linearGradient>
			<path style="fill:url(#SVGID_00000175298040614287626390000004281786970994758571_);" d="M391.395,165.861
				c0,0,10.076,4.731,18.169,1.01c3.248-1.557,5.431-3.439,4.297-6.763c-1.281-3.755-5.029-2.493-8.451-0.794
				C402.003,161.007,391.395,165.861,391.395,165.861z" data-index="67"></path>
		</g>
		<g>
			
				<linearGradient id="SVGID_00000178927834581377844930000001657178299226423222_" gradientUnits="userSpaceOnUse" x1="-125.068" y1="-125.4134" x2="-117.0434" y2="-97.9605" gradientTransform="matrix(-0.225 -0.9744 -0.9744 0.225 247.4722 108.093)">
				<stop offset="0" style="stop-color:#FFEB75"></stop>
				<stop offset="1" style="stop-color:#FF751F"></stop>
			</linearGradient>
			<path style="fill:url(#SVGID_00000178927834581377844930000001657178299226423222_);" d="M371.467,199.113
				c0,0,8.198,7.53,17.034,6.402c3.565-0.513,6.211-1.656,6.124-5.167c-0.098-3.966-4.052-3.884-7.826-3.286
				C383.042,197.656,371.467,199.113,371.467,199.113z" data-index="68"></path>
		</g>
	</g>
</g>
</svg>