<svg width="64" height="64" viewBox="0 0 64 64" fill="none" xmlns="http://www.w3.org/2000/svg">
  <defs>
    <linearGradient id="unicornGradient" x1="0%" y1="0%" x2="100%" y2="100%">
      <stop offset="0%" style="stop-color:#c084fc;stop-opacity:1" />
      <stop offset="50%" style="stop-color:#a855f7;stop-opacity:1" />
      <stop offset="100%" style="stop-color:#9333ea;stop-opacity:1" />
    </linearGradient>
    <linearGradient id="hornGradient" x1="0%" y1="0%" x2="100%" y2="100%">
      <stop offset="0%" style="stop-color:#fbbf24;stop-opacity:1" />
      <stop offset="50%" style="stop-color:#f59e0b;stop-opacity:1" />
      <stop offset="100%" style="stop-color:#d97706;stop-opacity:1" />
    </linearGradient>
    <linearGradient id="rainbowGradient" x1="0%" y1="0%" x2="100%" y2="0%">
      <stop offset="0%" style="stop-color:#ef4444;stop-opacity:1" />
      <stop offset="16%" style="stop-color:#f97316;stop-opacity:1" />
      <stop offset="33%" style="stop-color:#eab308;stop-opacity:1" />
      <stop offset="50%" style="stop-color:#22c55e;stop-opacity:1" />
      <stop offset="66%" style="stop-color:#3b82f6;stop-opacity:1" />
      <stop offset="83%" style="stop-color:#8b5cf6;stop-opacity:1" />
      <stop offset="100%" style="stop-color:#ec4899;stop-opacity:1" />
    </linearGradient>
  </defs>
  
  <!-- Unicorn head -->
  <ellipse cx="32" cy="38" rx="12" ry="10" fill="url(#unicornGradient)"/>
  
  <!-- Unicorn horn -->
  <path d="M32 28 L30 10 L34 10 Z" fill="url(#hornGradient)"/>
  <path d="M30 10 Q32 8, 34 10" fill="none" stroke="#f59e0b" stroke-width="1"/>
  <path d="M30.5 15 Q32 13, 33.5 15" fill="none" stroke="#f59e0b" stroke-width="0.8"/>
  <path d="M30.5 20 Q32 18, 33.5 20" fill="none" stroke="#f59e0b" stroke-width="0.8"/>
  
  <!-- Mane -->
  <path d="M20 30 Q15 25, 18 35 Q20 40, 25 38 Q22 35, 20 30 Z" fill="url(#rainbowGradient)" opacity="0.8"/>
  <path d="M44 30 Q49 25, 46 35 Q44 40, 39 38 Q42 35, 44 30 Z" fill="url(#rainbowGradient)" opacity="0.8"/>
  
  <!-- Eyes -->
  <circle cx="28" cy="36" r="2" fill="#1f2937"/>
  <circle cx="36" cy="36" r="2" fill="#1f2937"/>
  <circle cx="28.5" cy="35.5" r="0.8" fill="#ffffff"/>
  <circle cx="36.5" cy="35.5" r="0.8" fill="#ffffff"/>
  
  <!-- Nostrils -->
  <ellipse cx="30" cy="42" rx="1" ry="0.5" fill="#7c3aed"/>
  <ellipse cx="34" cy="42" rx="1" ry="0.5" fill="#7c3aed"/>
  
  <!-- Magical sparkles -->
  <circle cx="18" cy="20" r="1" fill="#fbbf24"/>
  <circle cx="46" cy="18" r="1.5" fill="#ec4899"/>
  <circle cx="12" cy="35" r="1" fill="#22c55e"/>
  <circle cx="52" cy="40" r="1" fill="#3b82f6"/>
  <circle cx="25" cy="12" r="1" fill="#8b5cf6"/>
  <circle cx="40" cy="8" r="1.5" fill="#ef4444"/>
  
  <!-- Magic aura -->
  <circle cx="32" cy="32" r="20" fill="none" stroke="url(#rainbowGradient)" stroke-width="1" opacity="0.3"/>
</svg>
