<svg xmlns="http://www.w3.org/2000/svg" width="1000" height="1000"><path d="m418 502 10 8 2 2c20 19 30 46 31 73 0 23-7 49-23 66l-2 2a76 76 0 0 1-50 20c-18 0-32-7-47-17-12-8-24-11-39-11l2 1 15 11c31 27 66 41 108 38 25-2 48-11 72-19l19-6 2-1c19-7 39-12 59-15h2l24-1h5c15-1 29 2 44 7l2 1c15 6 28 15 35 29 3 9 2 15-1 24-7 13-16 22-27 31l-2 1c-10 8-20 14-31 20l-3 1c-37 20-78 29-120 32h-2c-78 6-173-4-236-54l-3-2a83 83 0 0 1-29-53c-1-13 3-25 12-35 6-7 13-11 21-14l-3-1-2-1-7-2c-15-6-29-15-36-31-6-14-6-29 0-44 13-33 44-56 75-69 39-17 88-19 123 9Z"/><path fill="#FEFEFE" d="M659 468c32-1 59 10 83 31l3 2c22 21 36 55 37 85 1 23-3 43-19 62a76 76 0 0 1-53 22c-24 0-44-6-66-15l-4-2-4-1c-9-4-18-7-28-9l-2-1h-12a8992 8992 0 0 1-14 0c-20-1-38-2-54-17-8-8-10-19-10-30 0-33 21-61 43-84 26-25 63-42 100-43ZM421 510a94 94 0 0 1 29 64c4 24-1 50-16 70a66 66 0 0 1-40 22c-18 1-31-2-47-11a120 120 0 0 0-49-15l-10-1c-22-3-44-9-59-27-8-12-9-24-8-38l7-19 1-2c5-10 12-18 20-26l3-2c23-24 53-36 86-40h3c30-3 57 5 80 25Z"/><path fill="#FE95D1" d="M299 653c6 4 10 9 15 14l5 5-1 2c-1 11 2 18 8 26 24 26 73 33 106 34h19c49 0 103-12 141-47 6-7 11-15 11-25v-4c19 0 34 5 51 14l3 2c10 6 18 13 22 24 1 6-1 11-4 17l-3-3-1-3c-4-11-11-19-21-24-10-4-20-6-31-3-4 3-6 5-8 10l-1 11c-1 11-5 19-12 27l-2 2c-29 31-80 39-120 41-57 2-125-8-170-45-5-4-8-9-8-15l2-11c3-7 4-13 1-20-6-6-14-8-22-8-10 0-24 3-31 10l-5 6-2 2c-1-13 1-24 10-34 16-15 30-17 48-5Z"/><path fill="#FEFEFE" d="M293 682c3 3 4 5 4 10l-3 9c-3 8-3 15 0 22 15 27 55 38 82 46 24 6 49 10 73 10h16a255 255 0 0 0 50-4c34-6 72-18 94-47 7-9 8-18 9-30l1-8c4-4 9-3 14-3 9 1 18 5 25 12 6 8 8 16 7 26-4 14-27 25-39 32-44 23-94 34-144 34h-2a3865 3865 0 0 1-20 0c-26 0-52-1-78-6l-2-1c-46-8-98-23-126-63-6-8-12-17-12-27 2-6 6-9 11-12 12-5 28-8 40 0Z"/><path fill="#FEFEFE" d="M595 659c1 10-2 15-8 23-34 36-87 46-135 47-38 1-90-5-121-32-7-6-10-12-11-22 4 0 7 2 10 5 12 9 25 16 39 20l2 1c22 6 50 5 73 0h2c20-5 39-12 57-19 62-24 62-24 92-23Z"/><path d="m383 558 12 11 2 2c13 12 25 29 26 46-1 6-3 10-7 14-3 1-5 0-8-1l-6-5c-29-21-67-28-101-34h-2l-5-1c-4-1-7-4-9-8 0-3 1-4 3-6 8-5 18-6 28-7-4-5-9-7-15-10-14-6-14-6-17-11v-6c24-24 77-1 99 16ZM717 563c6 5 11 13 11 21l-1 6c-3 3-7 3-11 3l-8-4c-16-9-32-13-50-12l3 2c36 18 36 18 43 33 0 2 0 3-2 5-9 1-15-2-23-5l-7-4-2-1-22-8-3-1c-25-8-53-11-78-3l-8 1c2-14 13-24 24-33 40-28 95-32 134 0Z"/><path d="M659 468c32-1 59 10 83 31l3 2c22 21 36 55 37 85 1 23-3 43-19 62a76 76 0 0 1-53 22c-24 0-44-6-66-15l-4-2-4-1c-9-4-18-7-28-9l-2-1h-12a8992 8992 0 0 1-14 0c-20-1-38-2-54-17-8-8-10-19-10-30 0-33 21-61 43-84 26-25 63-42 100-43Zm-107 58c-16 18-33 43-32 68 2 12 7 24 17 32 9 7 20 10 31 11h3a1507 1507 0 0 0 37 2h2c6 1 12 2 17 5l5 2 4 1 3 1 21 7c25 8 51 12 76 1 11-6 19-12 25-23l1-2c11-20 11-46 5-68-6-18-13-34-25-48l-2-3c-8-9-18-16-28-23l-2-2c-50-35-123-1-158 39Z"/><path fill="#B4B4B4" d="M706 485h-6c-20 0-37 4-56 10l-3 1a225 225 0 0 0-63 34c-8 5-16 12-24 19l-3 2a99 99 0 0 0-27 53c-4-4-4-8-4-13 1-28 21-53 39-73l2-3c35-37 99-54 145-30ZM421 510c10 11 25 30 26 46v3l-4-3-1-2c-3-7-7-12-12-17l-2-2a84 84 0 0 0-51-25h-3c-25-4-48-5-73 3l-2 1a170 170 0 0 0-64 32l-2 2-1 1c5-15 25-31 38-40l3-2c19-12 43-19 65-22h3c30-3 57 5 80 25Z"/><path fill="#FDFDFD" d="M704 564c2 2 3 3 3 6s0 3-2 5c-4 0-7-2-11-3-13-6-25-8-40-8l-8-2v-4c16-10 43-5 58 6Z"/><path fill="#FCFCFC" d="M372 565a86 86 0 0 1 30 29l2 2 2 3v8h-5l-8-9c-7-11-15-22-27-29l-2-1v-2l8-1Z"/><path fill="#FDFDFD" d="M341 546c3 2 4 3 5 7v2c-2 2-2 2-6 2-3 0-5 0-7-2-3-3-3-3-3-7 4-2 7-3 11-2Z"/><path fill="#FAFAFA" d="m631 557 1 1v5l-1 2v2h-7v-2l-3-1-1-3c3-4 6-4 11-4Z"/></svg>