<svg xmlns="http://www.w3.org/2000/svg" width="1000" height="1000"><path fill="#FEC9B0" d="M850 582c4 7 5 13 6 20l1 3a267 267 0 0 1 3 35c0 3 0 6-2 9-5 5-12 8-17 11l-7 3-3 2-15 9a1249 1249 0 0 1-56 32c-17 10-17 10-24 10-5-2-7-5-9-10l-1-2c-5-11-12-26-11-39 3-9 16-14 23-19a4234694330 4234694330 0 0 1 68-41l2-1a2606 2606 0 0 1 37-21l5-1ZM340 693c6 3 11 8 16 13l2 3c7 6 13 14 14 23 0 12-9 21-16 28l-5 5-19 17-3 2c-7 5-14 10-22 13l-3-1 1-2h-2l-10-3-1-1-6-2-3-1-26-10-2-1c-8-3-14-7-20-13 2-8 6-12 12-17l2-1 28-19a1501 1501 0 0 0 46-29l3-2c5-2 8-4 14-2Z"/><path fill="#010000" d="M850 582c4 7 5 13 6 20l1 3a267 267 0 0 1 3 35c0 3 0 6-2 9-5 5-12 8-17 11l-7 3-3 2-15 9a1249 1249 0 0 1-56 32c-17 10-17 10-24 10-5-2-7-5-9-10l-1-2c-5-11-12-26-11-39 3-9 16-14 23-19a4234694330 4234694330 0 0 1 68-41l2-1a2606 2606 0 0 1 37-21l5-1Zm-15 11a1876 1876 0 0 1-7 4l-15 9-6 4-3 2a2649 2649 0 0 0-49 31l-2 2-23 15-3 1-2 2-3 2c0 6 1 10 3 15v3a184 184 0 0 0 8 19l6 8c7 0 11-3 17-7l2-1a1594 1594 0 0 0 35-21l8-5 2-1a1396 1396 0 0 0 14-8l2-1 12-7 3-2 6-3c8-4 8-4 13-12 3-10 1-21 0-31l-1-4c0-10 0-10-4-19-6-1-9 1-13 5Z"/><path fill="#010101" d="M340 693c6 3 11 8 16 13l2 3c7 6 13 14 14 23 0 12-9 21-16 28l-5 5-19 17-3 2c-7 5-14 10-22 13l-3-1 1-2h-2l-10-3-1-1-6-2-3-1-26-10-2-1c-8-3-14-7-20-13 2-8 6-12 12-17l2-1 28-19a1501 1501 0 0 0 46-29l3-2c5-2 8-4 14-2Zm-17 6-2 1a275 275 0 0 0-37 26 3380 3380 0 0 1-25 17c-12 8-12 8-19 19 2 5 5 6 9 8l3 1 1-2c7-12 19-23 32-28 10-1 16 4 24 9 10 9 10 9 12 17-2 6-6 8-11 12l-13 6 2-2c11-7 11-7 18-17-1-5-4-7-8-11l-2-2c-4-5-10-9-17-11-6 1-9 3-13 7l-2 1a520 520 0 0 0-12 11l-3 2c-3 4-3 6-4 10a762 762 0 0 0 39 16c8 3 8 3 16 2l7-4 2-2c12-8 22-18 32-28l3-3c9-9 9-9 13-20-1-15-19-28-28-37-6-4-12-2-17 2Z"/><path fill="#B78974" d="m848 588 3 8v3l1 3v3c4 33 4 33 0 40-3 4-8 7-12 9a365 365 0 0 0-10 6l-2 1-5 2-2-1 2-2-2 1c-26 11-26 11-35 10-5-3-6-7-8-13v-18h1l1 3c1 13 1 13 7 24 10 1 18-4 25-9l3-1 10-6 14-9 3-3c0-9-5-18-10-25l-4-1c-4 0-7 2-10 4l-2 1-5 2v-2l5-3 3-2 4-1v-2c4-2 7-2 11-2 4 2 5 3 7 6h2l1-8c-2-4-3-5-7-7l-5-1h-4c14-11 14-11 20-10Z"/><path fill="#010100" d="M832 610c4 3 7 6 9 11l1 2c2 4 3 8 3 13l1 3c-2 4-6 6-9 8l-8 5-3 1-12 6 12-9 4-3 2-1 10-6c-1-10-4-17-9-26l-5-1c-4 0-7 2-10 4l-2 1-5 2v-2l6-4 3-1c4-3 7-3 12-3Z"/><path fill="#B78974" d="m321 763 3 5c-2 7-7 11-13 16l-2 1c-2 2-3 3-3 6l-12-3v-2l2-1 16-8 1-1 7-6 1-7Z"/><path fill="#020202" d="M778 640h1l1 3c1 13 1 13 7 24l10-1 7-1c-5 4-9 7-16 6-4 0-5-2-7-5-4-8-3-17-3-26Z"/><path fill="#B78974" d="M246 754v6c1 3 2 5 5 7l2 1-1 3a2102 2102 0 0 1-8-4l-3-2v-6l5-5Z"/><path fill="#030202" d="m800 624 2 1-21 14c0-3 0-3 2-5 5-4 11-8 17-10Z"/><path fill="#B88A75" d="M810 618v3l-6 4-2-1 8-6Z"/></svg>