<svg xmlns="http://www.w3.org/2000/svg" width="1000" height="1000"><path fill="#FEBFA1" d="M710 650c11 10 14 24 16 37v3c5 25 5 52 0 77v3l-2 7v2c-1 4-3 7-7 10h-2v2c-2 9-13 16-20 20a309 309 0 0 1-160 32c-20 0-41 0-61-2h-2l-66-7-3-1c-64-9-64-9-77-23l-5-9-5-8c-3-7-3-14-3-22v-3c0-28 1-74 22-96 6-5 11-6 19-5l16 2 28 3h2a721 721 0 0 0 55 1 1543 1543 0 0 0 170-10 433 433 0 0 0 67-13l2-1c5-1 11-2 16 1Z"/><path d="M710 650c11 10 14 24 16 37v3c5 25 5 52 0 77v3l-2 7v2c-1 4-3 7-7 10h-2v2c-2 9-13 16-20 20a309 309 0 0 1-160 32c-20 0-41 0-61-2h-2l-66-7-3-1c-64-9-64-9-77-23l-5-9-5-8c-3-7-3-14-3-22v-3c0-28 1-74 22-96 6-5 11-6 19-5l16 2 28 3h2a721 721 0 0 0 55 1 1543 1543 0 0 0 170-10 433 433 0 0 0 67-13l2-1c5-1 11-2 16 1Zm-74 69c-32 2-62 10-92 21a90 90 0 0 1-34 6c-17 1-34-5-49-9a585 585 0 0 0-52-13c-28-5-60-8-86 6-4 4-2 22-2 28 0 14 2 27 8 40l2 5c2 4 4 5 8 8 33 14 75 16 111 20h2a712 712 0 0 0 156 0h4a320 320 0 0 0 38-9c33-9 33-9 58-30 5-11 6-24 8-36l1-8c1-6 1-6-1-12l-7-4-2-1c-22-10-46-13-71-12Z"/><path fill="#FFFEFE" d="M653 748c3 2 6 3 8 6l2 2c4 6 6 11 5 18-6 17-18 27-34 35-19 9-40 14-62 14h-12c-14 0-27 0-40-3l-3-1c-16-3-41-9-52-24-2-3-2-6-1-10 3-6 8-8 15-10a94 94 0 0 1 28-2h17c19-1 36-1 55-7l2-1 23-11a214 214 0 0 1 11-6c12-5 26-4 38 0Z"/><path fill="#A04CA4" d="M705 654c9 8 10 22 11 33v2l1 28a8445 8445 0 0 0 0 17l-3-2-4-2-1-1c-21-12-43-14-66-14h-3l-42 3-3 1a307 307 0 0 0-60 15l-3 1c-26 8-52-1-78-7-42-9-86-20-128-4l-3 1c3-18 6-34 16-49 4-3 10-1 15 0l8 1c9 3 19 4 28 5l6 1 1 5c1 5 1 8 5 11 25 16 64 13 92 14l1 7h2l2 3c5 6 13 7 20 8 12 0 24-1 34-8 2-2 3-3 3-6v-6h4a2389 2389 0 0 0 63-8h2c16-2 16-2 28-11 5-8 5-16 4-25l-1-3 3-1a6780 6780 0 0 0 46-9Z"/><path fill="#D69373" d="M643 719a148 148 0 0 1 68 14l2 1 4 4-1 15-1 4a506 506 0 0 1-6 33l-2-1 1-19c0-11-1-19-7-28l-2-5-9-2-3-1a1092 1092 0 0 0-16-2c-39-7-78 0-115 13-36 12-66 9-102-4-32-11-72-22-105-7-10 6-18 12-22 23l-1 11v2l2 22c-9-11-7-29-7-42a435 435 0 0 0 0-12v-4l3-5 13-5h2c24-7 50-4 73 1l3 1c18 3 36 8 53 13 14 4 29 8 44 7h2c13 0 26-4 38-9 29-11 59-17 91-18Z"/><path fill="#FEFEFE" d="M653 665c1 18 1 18-4 24-4 3-7 5-12 6l-3 1a3172 3172 0 0 1-9 1c-16 4-31 7-47 7h-2c-23 1-23 1-31-3-3-4-4-8-5-13v-2l-2-7 28-3a1303 1303 0 0 0 87-11ZM528 680l-2 8v2l-5 13-6 2-2 1-19 1h-4a1495 1495 0 0 1-16 0c-55 1-55 1-72-13-3-4-3-7-4-11h38a1479 1479 0 0 0 92-3Z"/><path fill="#FFFEFE" d="M405 747c9 5 14 11 17 21v2h-2v3c0 4-1 5-4 8-7 4-15 3-23 1-10-3-19-9-25-19-1-4-2-8-1-13 8-14 26-10 38-3Z"/><path fill="#A08DA0" d="m528 680-3 13h-3l-2-2c-3-3-5-3-9-3a361821588 361821588 0 0 1-98 0h-3l-9 1-1 2-2-8h38a1479 1479 0 0 0 92-3Z"/><path fill="#A18EA1" d="M653 665v9c0 4 0 8-2 12l-2-2c-3-4-7-6-12-7h-22c-35-1-35-1-68 7l-4 5h-2l-3-10 28-3a1303 1303 0 0 0 87-11Z"/><path fill="#4A114D" d="m537 705 1 1c5 3 9 4 15 4 0 7 0 7-3 11-8 5-17 5-26 5h-2c-8 0-15-1-22-5l-3-8 5-1 3-1h7v3c0 3 0 3 2 5 5 4 12 4 18 3l6-4c1-4 0-8-2-12l1-1Z"/><path fill="#9F4CA3" d="M530 679h4v11l3 14-3 2v2l1 2v3l-1 4c-3 2-7 2-11 2l-7-3 2-8 3-1c4-2 6-4 8-8 2-6 1-13 1-20Z"/></svg>