<svg id="Assets" xmlns="http://www.w3.org/2000/svg" viewBox="0 0 800 800"><defs><style>.cls-1{fill:#006287;}.cls-2{fill:#009cb1;}.cls-3{fill:#00c1dc;}.cls-4{fill:#e15daa;}.cls-5{fill:#a1337b;}.cls-6{fill:#871c53;}.cls-7{fill:#dc65a9;}.cls-8{fill:#ffde42;}.cls-9{fill:#f7bf24;}.cls-10{fill:#7080dc;}.cls-11{fill:#4d66bf;}.cls-12{fill:#fbc7e7;}.cls-13{fill:#dea7cb;}.cls-14{fill:#dd5ca9;}.cls-15{fill:#871f56;}.cls-16{fill:#ff8350;}.cls-17{fill:#e34538;}.cls-18{fill:#ff5f9e;}.cls-19{fill:#f5497e;}.cls-20{fill:#ffa1a9;}.cls-21{fill:#ff7f8d;}.cls-22{fill:#c04a94;}</style></defs><g id="Forma_2031" data-name="Forma 2031"><path class="cls-1" d="M100,232.7s46.37,35,89,37.13l2.88-9.73S155.7,222.91,100,232.7ZM59.61,353.45s60.89,6.77,84.34-22.71C144,330.74,94.66,324,59.61,353.45Zm538.85-79.3s-18.74-1-9,15.5l9.73,15.86s12,14.45,46.85,18C646,323.53,627.44,280.65,598.46,274.15Z"/></g><g id="Forma_2030" data-name="Forma 2030"><path class="cls-2" d="M58.53,416.16s54-26.19,82.9-72.44l-6.49-9S92.27,341.59,58.53,416.16ZM69,287.13s69.44.8,116.42-25.59l-6.12-9.37S125.63,237.46,69,287.13Zm129.76-151c6,9.1,36.4,35.32,36.4,35.32l17.3-1.44C232.34,137.74,198.74,136.11,198.74,136.11ZM268.66,170l14.42.36c9.27-29.83-4.33-55.87-4.33-55.87C273.72,128,268.66,170,268.66,170ZM663,351.29s-13.34,58.34-11.53,76c0,0,12.59-6.85,19.82-31a89.41,89.41,0,0,0,1.45-45ZM551.6,159.54l14.06.72c8.81-29.53-5-54.43-5-54.43ZM705.51,366.42c-18.63-24.92-28.84-11.17-28.84-11.17L716.32,409S724.13,391.34,705.51,366.42ZM580.8,282.08l-4,2.17S599.77,359.74,636.3,387C636.3,387,631.9,317.94,580.8,282.08Z"/></g><g id="Forma_2029" data-name="Forma 2029"><path class="cls-3" d="M69,334.35s56.37-13.89,111-67.77l-10.82-7.92S109.29,265,69,334.35ZM83,457.61S139.89,396,146.84,338C146.84,338,95.39,347.06,83,457.61ZM553.76,160.26s9.15-29.2,6.49-54.79c0,0-24.57,16-23.07,60.55ZM672.35,345.52l-7.49,6.58c0-1.88,0-3.72-.08-5.5l-2.89,2.88S623,390.43,651.08,427.34c.25-1.31,11.47-38,13.48-67.82,3.25,12.2,14.56,39.34,52.12,49.44C716.68,409,699.8,374.49,672.35,345.52ZM198.74,136.11s6,46.3,44.33,48.66l-4.32-14.06S227.45,154.24,198.74,136.11ZM579.49,306.43c-8.44-10.31-23.42-27.21-41.59-41.65l-9,11.54s16.13,35.32,52,39.28a255,255,0,0,1,2.41,47.22c-2.15,44.13,18.38,58.39,18.38,58.39s21.19-91.41-28.47-142.73A254.62,254.62,0,0,1,579.49,306.43ZM256.77,173.23,269.38,175c6.37-17.39,9.37-60.92,9.37-60.92C250,140.4,256.77,173.23,256.77,173.23Z"/></g><g id="Forma_1961" data-name="Forma 1961"><path class="cls-4" d="M677,174.09a121.13,121.13,0,0,0-10,29.81l6.26,6.41s14-10.79,20.25-31.87C705,139.64,684.56,158.64,677,174.09Z"/></g><g id="Forma_1962" data-name="Forma 1962"><path class="cls-5" d="M670.42,206.92l1.35,1.08c4-6.18,6.72-17.41,6.72-17.41C673.78,196.24,670.42,206.92,670.42,206.92Z"/></g><g id="Forma_1961-2" data-name="Forma 1961"><path class="cls-4" d="M650.41,176.3c-9.39-14.44-32-30.86-15.93,6.29,8.74,20.18,23.95,29.22,23.95,29.22l5.47-7.1A120.79,120.79,0,0,0,650.41,176.3Z"/></g><g id="Forma_1962-2" data-name="Forma 1962"><path class="cls-5" d="M650.87,192.86s4.08,10.82,8.77,16.49l1.22-1.24S656.24,197.91,650.87,192.86Z"/></g><g id="Forma_1961-3" data-name="Forma 1961"><path class="cls-4" d="M661.43,221.41s-14.63,10-22.09,30.66c-13.74,38.09,7.82,20.28,16.29,5.29a121.12,121.12,0,0,0,11.7-29.2Z"/></g><g id="Forma_1962-3" data-name="Forma 1962"><path class="cls-5" d="M662.79,223.8c-4.33,5.94-7.73,17-7.73,17,5.05-5.38,9-15.84,9-15.84Z"/></g><g id="Forma_1961-4" data-name="Forma 1961"><path class="cls-4" d="M622.41,207c-40.35,3.3-15.2,15.53,2,17a120.63,120.63,0,0,0,31.41-1.47l3.7-8.17S644.33,205.18,622.41,207Z"/></g><g id="Forma_1962-4" data-name="Forma 1962"><path class="cls-5" d="M639.2,216.6c7,2.36,18.15,1.63,18.15,1.63l.52-1.66C650.66,215.1,639.2,216.6,639.2,216.6Z"/></g><g id="Forma_1961-5" data-name="Forma 1961"><path class="cls-4" d="M711,209c-21.63-3.77-37.52,3.93-37.52,3.93l2.95,8.43a121.24,121.24,0,0,0,31.1,4.31C724.7,225.76,750.81,215.94,711,209Z"/></g><g id="Forma_1962-5" data-name="Forma 1962"><path class="cls-5" d="M674.85,215.28l.37,1.69s11,1.74,18.2,0C693.42,217,682.15,214.48,674.85,215.28Z"/></g><g id="Forma_1961-6" data-name="Forma 1961"><path class="cls-4" d="M698,247.9c-10.14-19.53-25.94-27.5-25.94-27.5l-4.94,7.49a121.79,121.79,0,0,0,15.46,27.41C693,269.06,716.67,283.87,698,247.9Z"/></g><g id="Forma_1962-6" data-name="Forma 1962"><path class="cls-5" d="M671,223l-1.13,1.32s5.33,9.86,11,14.53C680.94,238.8,676.11,228.28,671,223Z"/></g><g id="Forma_1959" data-name="Forma 1959"><path class="cls-6" d="M667.25,181c-6.3-30.86-12.63-13.77-12.4,2.29s3.73,21.55,5.37,23.49c2.47,2.92,7.42.1,7.42.1S670.94,199.1,667.25,181Z"/></g><g id="Forma_1961-7" data-name="Forma 1961"><path class="cls-7" d="M661.76,184.41c-.19,7.3,2.19,22.6,2.19,22.6l2.13-.23C665.7,198.88,661.76,184.41,661.76,184.41Z"/></g><g id="Forma_1959-2" data-name="Forma 1959"><path class="cls-6" d="M677.6,247.82c-1.38-16-5.28-21.26-7.06-23.08-2.69-2.74-7.45.43-7.45.43s-2.76,8.05,2.23,25.84C673.85,281.4,679,263.86,677.6,247.82Z"/></g><g id="Forma_1961-8" data-name="Forma 1961"><path class="cls-7" d="M666.79,224.81l-2.13.39c1,7.86,5.93,22,5.93,22C670.26,239.93,666.79,224.81,666.79,224.81Z"/></g><g id="Forma_1959-3" data-name="Forma 1959"><path class="cls-6" d="M638,195.09c-29.07-12.12-18.49,2.71-5.07,11.55s19.92,9,22.44,8.76c3.81-.41,4.25-6.08,4.25-6.08S655,202.19,638,195.09Z"/></g><g id="Forma_1961-9" data-name="Forma 1961"><path class="cls-7" d="M637.67,201.54c5.93,4.26,19.92,10.89,19.92,10.89l1-1.9C651.85,206.41,637.67,201.54,637.67,201.54Z"/></g><g id="Forma_1959-4" data-name="Forma 1959"><path class="cls-6" d="M691.83,192.82c-15.62,9.8-19,17.59-19,17.59s1.38,5.52,5.2,5.29c2.53-.15,8.91-1.4,20.7-12.32S718.51,176.08,691.83,192.82Z"/></g><g id="Forma_1961-10" data-name="Forma 1961"><path class="cls-7" d="M674,211.44l1.3,1.71s12.71-8.84,17.86-14C693.17,199.13,680,206.27,674,211.44Z"/></g><g id="Forma_1959-5" data-name="Forma 1959"><path class="cls-6" d="M698,225.71c-13.79-8.28-20.29-8.18-22.79-7.8-3.79.58-4,6.29-4,6.29s4.93,7,22.24,13.32C723,248.41,711.75,234,698,225.71Z"/></g><g id="Forma_1961-11" data-name="Forma 1961"><path class="cls-7" d="M673,221l-.91,1.95c6.92,3.84,21.29,8.1,21.29,8.1C687.3,227,673,221,673,221Z"/></g><g id="Forma_1959-6" data-name="Forma 1959"><path class="cls-6" d="M656.78,218.39c-2.53-.13-9,.39-22,9.93s-22.78,24.91,5.69,11.27c16.66-8,20.9-15.35,20.9-15.35S660.62,218.59,656.78,218.39Z"/></g><g id="Forma_1961-12" data-name="Forma 1961"><path class="cls-7" d="M659.21,221.24s-13.66,7.36-19.37,11.93c0,0,13.94-5.62,20.47-10.09Z"/></g><g id="Elipse_1951" data-name="Elipse 1951"><path class="cls-8" d="M676.7,213.48a10.58,10.58,0,1,0-9.36,11.68A10.6,10.6,0,0,0,676.7,213.48Z"/></g><g id="Elipse_1952_copia_4" data-name="Elipse 1952 copia 4"><path class="cls-9" d="M658.83,211a1.57,1.57,0,1,0,1.38,1.39A1.4,1.4,0,0,0,658.83,211Zm0,4.9a1,1,0,1,0,1.08.5A.84.84,0,0,0,658.79,215.87Zm3.3-6a1.26,1.26,0,1,0-1.9.52A1.4,1.4,0,0,0,662.09,209.9Zm.64,1.55a1,1,0,1,0,.4,1.13A.87.87,0,0,0,662.73,211.45Zm3.33-2.48a.87.87,0,0,0-1.12-.43.77.77,0,1,0,1.12.43Z"/></g><g id="Forma_2047" data-name="Forma 2047"><path class="cls-10" d="M528.17,165.66c-.43-13-14.77-22-14.77-22S518,119,477.71,106.55s-60.17,16.84-59.83,18.39c0,0-28.49-14.06-38.93,0a23.25,23.25,0,0,0-1.08,27s-7.67,41.79,53.35,42.17c0,0,54.19,25.84,87.58-8.65A24.19,24.19,0,0,0,528.17,165.66Z"/></g><g id="Forma_2048" data-name="Forma 2048"><path class="cls-11" d="M499.7,130.7c-15.95-10.42-46.51-2.76-55-.32a47.47,47.47,0,0,0-5.18.74,47.35,47.35,0,0,0-4.76-.41c-6.4-3.37-27.49-12.39-40.63,6.84a18.57,18.57,0,0,0,0,22s-5-34.12,29.54-27.79c-12,2.94-24.61,13.18-17.67,45-.45-2.19-7-36.15,22.88-43.78.8.21,1.61.44,2.45.7-7,3.09-13.58,9-11.25,20.49,4.6,22.52,25.23,17.3,25.23,17.3s-20.12-2.32-19.82-19.46c.14-7.91,4.36-13.12,8.87-16.44,6.43,24.17,26.56,10.87,30.21,8.22a26.44,26.44,0,0,1-4.12,20.47c1.66-1.94,5-1.8,5-1.8s11-20.43-3.59-27.81c11.74,2.84,25.81,8.11,25.57,17-.4,15.2-19.1,17.3-19.1,17.3s20.91,1.56,23.43-18c2-15.24-18.74-18.78-34.16-19.25,8.21-1.94,29.5-5.8,40.29,3.39,13.53,11.52-.36,35.68-.36,35.68S518.36,142.89,499.7,130.7Zm-62.33.89-.75.19-.18-.11Zm-.77.2c-.39.1-.79.22-1.19.34A3.51,3.51,0,0,1,436.6,131.79Zm24.07,2.53a28,28,0,0,1,3.83,9.29c-21.66,10.74-28.73-4.33-30.12-8.12a33.22,33.22,0,0,1,8.39-4.38l5,.6-1.39.07A140.58,140.58,0,0,1,460.67,134.32ZM406,176.72l0,.12Z"/></g><g id="Forma_2043" data-name="Forma 2043"><path class="cls-12" d="M714.16,285s11.65-21-12.62-40.73-49.38-6.49-49.38-6.49-30.44-2.66-44.69,33.88S637,314.16,637,314.16c1.68,53.51,35.33,40.37,35.33,40.37s50.37,35,65.59-4S714.16,285,714.16,285Z"/></g><g id="Forma_2044" data-name="Forma 2044"><path class="cls-13" d="M614,282.44l-7.21-2.52c14,39.13,45.41,24.15,45.41,24.15C622,312.61,614,282.44,614,282.44Zm121.46,47.22C734,305.09,710.06,298,706.07,297a20.51,20.51,0,0,0,8.45-12.39s-3.89,6.24-17.88,11.2c10.83-6.74,14-21.9-10.24-29.23-7.51-2.27-12.85-1.45-16.63,1.05,3.86-14.16-22.44-27.64-24.82-28.08s-5.62,8.88-6.12,10.09c27.73.94,30.21,13.64,30.11,18.59-7.47,5.8-8.23,18.64-8.06,25.52.92-10.57,9.62-31.63,28.77-19.6,18.41,11.58,5.6,20.71.05,23.77a130,130,0,0,1-25.64,3.63s20.58,4.33,35.65-1.28l2,.55c5.84,7.62,19.08,28-3.77,30.64-28.2,3.27-36.77-33.52-36.77-33.52h0c-.07-.67-.2-2.17-.25-4.18a13.21,13.21,0,0,0,.16,4.14c-24.62-10.1-21.85-30.22-21.85-30.22L632,268.75c.37,27.55,25.59,33.52,25.59,33.52,2.29,9.27,9.06,23,19.28,30.7,1.76,5.52,2.44,13.66-4.5,20.84,0,0,14-6.3,8.83-18.07a24.9,24.9,0,0,0,21.44,1.13c19.79-7.66,5.51-28.32-.72-36C733.15,309.82,735.42,329.66,735.42,329.66Z"/></g><g id="Forma_2039" data-name="Forma 2039"><path class="cls-14" d="M640.2,217a2.49,2.49,0,0,1-.29.61,3.14,3.14,0,0,1,.29-.61c2.34-7-2.68-57-46.43-71.48,0,0-19.26-1.62-30.27,15.14,0,0-36.82-24.37-44.7,27.39s26.67,79.66,26.67,79.66,45.44,45,92.27,7.2C671.54,247.57,645.14,208.45,640.2,217Z"/></g><g id="Forma_2040" data-name="Forma 2040"><path class="cls-15" d="M535,159.9s-8.09,9.53-2.16,32.8l5,7.57S529.63,180.27,535,159.9Zm109.21,68.48c5,48.63-43.61,60.55-43.61,60.55C660.89,275.75,644.23,228.38,644.23,228.38Zm-86.14,46.13s29.44-27.72,52.62-20.9c0,0,11.37-20,28.48-35,0,0-7.51,3.66-16.79,14.14a84.12,84.12,0,0,0-13.18-7.37c3.3-2.73,13-12.27,6.54-25.88-6.94-14.66-23.71-8.71-26.87-7.43a32.6,32.6,0,0,0-6.42-18.2c1-.15,2-.26,3-.32a53.61,53.61,0,0,1,42,16.81c1.53,4,9.37,27.28-12.13,38,0,0,32.53-9,12.9-37.16a60.93,60.93,0,0,1,10.89,16.61s-15-49.56-55.87-39.64c-29.12,7.06-31.57,33.64-31.72,40.29-2.9-16.44-1.15-33.93,11.9-47.86,0,0-45.27,33.59,9.76,98.61A83.34,83.34,0,0,0,558.09,274.51Zm30.8-82.25c3-.37,17.69-1.59,22.9,9.81,4.82,10.54-.84,20.21-2.9,23.2A75.1,75.1,0,0,0,582,218.91C583.76,215.35,589.41,204.5,588.89,192.26Zm-37.13,17.12c1.19-4.47,9.32-31.9,30.58-35.45.9,2.94,7,24.64-.38,45a70.07,70.07,0,0,0-26.72,3.83A103.41,103.41,0,0,1,551.76,209.38Zm3.64,13.82A159.27,159.27,0,0,1,622.23,233a106.8,106.8,0,0,0-11.52,15.94s-17-5.17-37.33,10.21A155.06,155.06,0,0,1,555.4,223.2Z"/></g><g id="Forma_2035" data-name="Forma 2035"><path class="cls-16" d="M299.66,188.37c-5.51-28.8-44-18.74-44-18.74s-67.92-4.61-86.15,29.19c0,0-24.49,10.51-2.16,80.74,0,0,.86,23.78,25.23,23.07S267,279,274.79,264.06C274.79,264.06,311.83,252,299.66,188.37Z"/></g><g id="Forma_2036" data-name="Forma 2036"><path class="cls-17" d="M177.57,232.68c7-28.4,26.58-55.12,26.58-55.12-18.66,10.6-25.82,50.36-26.6,55.05a198.55,198.55,0,0,1-7.65-33.79c0,.75,0,1.48,0,2.21-.6,1.55-19.17,50.12,4,87.54-.48-1.63-16.88-45-4-87.53-.3,69.45,32.81,71,32.81,71C190.56,264.57,182.6,248.11,177.57,232.68Zm84.6-50.8c8.44,47.55-13,92.63-13,92.63C280.12,236.25,262.17,181.88,262.17,181.88Zm-5.4-11.17a151,151,0,0,1-3.53,22.36c-61.3,3.07-75.41,39.63-75.41,39.63,6.78-7.89,16.53-14.68,26.8-20.29-10.91,27.78,9.61,71.84,9.61,71.84-8.13-24.93-9.26-67.06-9.36-72,21.65-11.8,45.48-18.38,48.35-19.14-4.27,19-13.57,46.84-33.59,71.28C219.64,264.42,257.51,250.58,256.77,170.71Z"/></g><g id="Forma_2025" data-name="Forma 2025"><path class="cls-18" d="M193.33,285.33s7.49-37.64-27-14.78c0,0-55.26-36.48-59.11,29.55-1.46,25.1,16.58,42.54,16.58,42.54s-9.67,22.87,6.49,35.68S180,371,180,350.57C180,350.57,228.21,317,193.33,285.33Z"/></g><g id="Forma_2027" data-name="Forma 2027"><path class="cls-19" d="M176.07,286.93c.27-2.12.32-3.4.32-3.4-.21.84-.46,1.68-.73,2.52-4.79-10.23-10.08-15.5-10.08-15.5a60.62,60.62,0,0,1,4.58,8.87c-6.83-6.5-27.82-23.33-45.67-4.55,0,0,22.41-12.73,46,5.29A91,91,0,0,1,174,290.62c-6.8,16.11-21,28.78-25.22,32.3a86,86,0,0,1,.09-26.18,55.13,55.13,0,0,1,20.33-11.05s-46.77-3.38-42.89,55.14c0,0,2.5-25.58,21-42.75-11.7,25.91,2.73,39.93,7,43.36a197.91,197.91,0,0,1-28.78,1.2c34.1,10.61,47.31-.31,51.89-6.78-.24,1.54-4.54,26.62-26.3,37.05,0,0,21.14-1.87,28.62-34,0,5.82-.14,9.45-.14,9.45C186.87,320.67,182,300,176.07,286.93ZM155,341.36a55,55,0,0,1-6.07-17.66c16.85-2.83,23.41-18.89,25.94-29.83,3.24,13.24,4.42,27.4,4.79,38C175.8,337.2,165.53,340,155,341.36Zm22.57-5.6a15.9,15.9,0,0,0,2.09-3.9c0,1,.07,2,.09,2.93Z"/></g><g id="Forma_2021" data-name="Forma 2021"><path class="cls-20" d="M547.28,229.46s14.41-21.87-30.28-51.54S441,167.47,441,167.47s-53.46-.33-35.68,62c0,0,28,71.73,102.72,58.75S547.28,229.46,547.28,229.46Z"/></g><g id="Forma_2023" data-name="Forma 2023"><path class="cls-21" d="M439.87,272.71c88.44,32,98-22.34,98-22.34C511.92,289,439.87,272.71,439.87,272.71Zm82.84-30.1a34.74,34.74,0,0,0,4.74-27.21c2.13,7.53-6.91,23.71-9.88,28.75-16.05,4.31-32.74,4.56-48.16,2.82a121.93,121.93,0,0,1-20.73-29.52c1.45-1,13.22-9.15,33.53-12.37,2.2,1.63,24.8,19.14,15,42.4,0,0,24.27-22.14-14.92-42.41,14-2.21,32-2.1,53.48,4.21,0,0-41.7-29.12-81.11,2.81-6-25.28,9.39-40.66,9.39-40.66-19.84,9.53-18.18,33.91-16.83,42.82-11.85-26.65-5.88-45.7-5.88-45.7-21.33,40.15,12.41,68.8,25.86,78.16a213.4,213.4,0,0,1-60.1-17.25c90.71,55.63,139.12,1.44,139.12,1.44A88.17,88.17,0,0,1,522.71,242.61ZM448.46,217a15.88,15.88,0,0,1,2.06-1.33c-.62.57-1.24,1.16-1.85,1.77C448.59,217.28,448.53,217.14,448.46,217Z"/></g><g id="Forma_1961-13" data-name="Forma 1961"><path class="cls-4" d="M247.76,243.88a142,142,0,0,0-15.5,33.52l6.49,8.29s17.73-10.8,27.75-34.6C285,207.26,258.6,226.81,247.76,243.88Z"/></g><g id="Forma_1962-7" data-name="Forma 1962"><path class="cls-5" d="M235.86,281.36l1.45,1.44c5.43-6.7,10.09-19.46,10.09-19.46C241.16,269.33,235.86,281.36,235.86,281.36Z"/></g><g id="Forma_1961-14" data-name="Forma 1961"><path class="cls-4" d="M216.45,243C207.34,225,183,202.86,197,248.32c7.6,24.69,24.21,37.22,24.21,37.22l7.3-7.6A142.18,142.18,0,0,0,216.45,243Z"/></g><g id="Forma_1962-8" data-name="Forma 1962"><path class="cls-5" d="M214.85,262.44s3.37,13.15,8.12,20.37l1.58-1.28S220.47,269,214.85,262.44Z"/></g><g id="Forma_1961-15" data-name="Forma 1961"><path class="cls-4" d="M223.5,297.13s-18.37,9.77-29.75,33c-20.95,42.71,6.53,24.69,18.35,8.27a141.79,141.79,0,0,0,17.42-32.58Z"/></g><g id="Forma_1962-9" data-name="Forma 1962"><path class="cls-5" d="M224.78,300.09C219,306.48,213.57,319,213.57,319c6.58-5.62,12.57-17.34,12.57-17.34Z"/></g><g id="Forma_1961-16" data-name="Forma 1961"><path class="cls-4" d="M179.79,275.25c-47.55-1.34-19.75,16.18.1,20.12a142.29,142.29,0,0,0,36.87,2.33l5.37-9.07S205.62,276,179.79,275.25Z"/></g><g id="Forma_1962-10" data-name="Forma 1962"><path class="cls-5" d="M198.16,288.65c7.85,3.66,21,4.24,21,4.24L220,291C211.74,288.38,198.16,288.65,198.16,288.65Z"/></g><g id="Forma_1961-17" data-name="Forma 1961"><path class="cls-4" d="M283,289c-24.78-7.18-44.33-.24-44.33-.24L241,299a142.41,142.41,0,0,0,35.77,9C296.83,310.37,328.58,302.25,283,289Z"/></g><g id="Forma_1962-11" data-name="Forma 1962"><path class="cls-5" d="M240,291.7l.22,2s12.67,3.46,21.24,2.39C261.42,296.11,248.59,291.71,240,291.7Z"/></g><g id="Forma_1961-18" data-name="Forma 1961"><path class="cls-4" d="M262.79,332.78c-9.32-24.12-26.74-35.46-26.74-35.46l-6.73,8.11a142.44,142.44,0,0,0,14.52,34C254.19,356.84,280,377.19,262.79,332.78Z"/></g><g id="Forma_1962-12" data-name="Forma 1962"><path class="cls-5" d="M234.52,300.17l-1.48,1.4s5,12.2,11,18.38C244.05,320,239.76,307,234.52,300.17Z"/></g><g id="Forma_1959-7" data-name="Forma 1959"><path class="cls-6" d="M235.5,250.73c-3.38-36.86-13-17.71-14.77,1.08s1.58,25.64,3.24,28.11c2.51,3.74,8.65,1.08,8.65,1.08S237.49,272.3,235.5,250.73Z"/></g><g id="Forma_1961-19" data-name="Forma 1961"><path class="cls-7" d="M228.65,254c-1.16,8.49-.36,26.67-.36,26.67h2.53C231.39,271.37,228.65,254,228.65,254Z"/></g><g id="Forma_1959-8" data-name="Forma 1959"><path class="cls-6" d="M233.71,302.2c-2.79-3.56-8.76-.46-8.76-.46s-4.25,9-.72,30.46c6,36.59,14.29,16.77,14.75-2.14S235.55,304.54,233.71,302.2Z"/></g><g id="Forma_1961-20" data-name="Forma 1961"><path class="cls-7" d="M229.32,301.79l-2.53.18c.09,9.31,4.08,26.5,4.08,26.5C231.43,319.89,229.32,301.79,229.32,301.79Z"/></g><g id="Forma_1959-9" data-name="Forma 1959"><path class="cls-6" d="M199.48,263.38c-32.39-17.91-21.94.78-7.41,12.83s22.11,13.1,25.08,13.11c4.5,0,5.76-6.55,5.76-6.55S218.44,273.86,199.48,263.38Z"/></g><g id="Forma_1961-21" data-name="Forma 1961"><path class="cls-7" d="M198.32,270.86c6.37,5.74,21.86,15.29,21.86,15.29l1.41-2.09C214.24,278.38,198.32,270.86,198.32,270.86Z"/></g><g id="Forma_1959-10" data-name="Forma 1959"><path class="cls-6" d="M262.68,267.66c-19.5,9.43-24.45,18.09-24.45,18.09s.9,6.63,5.39,6.86c3,.14,10.59-.49,25.76-11.73S296,251.55,262.68,267.66Z"/></g><g id="Forma_1961-22" data-name="Forma 1961"><path class="cls-7" d="M239.47,287.11l1.31,2.16s16-8.69,22.66-14.07C263.44,275.2,247.12,281.84,239.47,287.11Z"/></g><g id="Forma_1959-11" data-name="Forma 1959"><path class="cls-6" d="M265.6,306.85c-15-11.44-22.65-12.16-25.62-12-4.49.19-5.44,6.84-5.44,6.84s4.86,8.75,24.25,18.42C291.92,336.59,280.65,318.3,265.6,306.85Z"/></g><g id="Forma_1961-23" data-name="Forma 1961"><path class="cls-7" d="M237.11,298.14l-1.32,2.16c7.59,5.37,23.82,12.2,23.82,12.2C253,307,237.11,298.14,237.11,298.14Z"/></g><g id="Forma_1959-12" data-name="Forma 1959"><path class="cls-6" d="M218.47,293c-2.95-.48-10.61-.71-27,8.76s-29.81,26.15,5.19,13.89c20.49-7.18,26.39-15.23,26.39-15.23S222.92,293.74,218.47,293Z"/></g><g id="Forma_1961-24" data-name="Forma 1961"><path class="cls-7" d="M220.93,296.64s-16.9,6.84-24.15,11.44c0,0,17-4.76,25.2-9.14Z"/></g><g id="Elipse_1951-2" data-name="Elipse 1951"><path class="cls-8" d="M229.92,277.4a12.44,12.44,0,1,0,12.43,12.43A12.44,12.44,0,0,0,229.92,277.4Z"/></g><g id="Elipse_1952_copia_4-2" data-name="Elipse 1952 copia 4"><path class="cls-9" d="M225.91,281.48a1.85,1.85,0,1,0-.16,2.3A1.65,1.65,0,0,0,225.91,281.48Zm-4.78,8.84a1.12,1.12,0,0,0,.75,2.06,1.12,1.12,0,0,0-.75-2.06Zm.68-5.71a1.85,1.85,0,1,0,1.44,1.8A1.64,1.64,0,0,0,221.81,284.61Zm4.49,1.06a1.12,1.12,0,1,0,.33,1.37A1,1,0,0,0,226.3,285.67Zm3-3.11a.9.9,0,1,0,.35,1.72,1,1,0,0,0,.9-1.08A1,1,0,0,0,229.26,282.56Z"/></g><g id="Forma_2019" data-name="Forma 2019"><path class="cls-14" d="M408.87,198.1c18-2.72,24.33-15.62,10.09-18A109.71,109.71,0,0,0,392.29,179s11.92-6.29,19.82-12.61,7-18.75-5-14.78a188.78,188.78,0,0,0-20.91,8.29S394,150.33,397,140.79s-2.2-19.62-14.42-6.48-14.78,16.58-14.78,16.58,4.46-8.08,4.33-22.71-12.48-21.87-18.39-2.88-6.12,26-6.12,26,.33-10.52-5.41-25.95-27.39-19.88-14.78,21.26c0,0-7.73-11.27-17.3-16.22s-22.29-.18-1.08,25.95a31.23,31.23,0,0,0-20.18-5.76c-11.83.87-14.39,15.5,23.79,29.91,0,0-20.95-2.25-32.8,4s-10.42,18,26,15.13c0,0-17.52,6.53-23.07,18S290,233.4,312.27,219c0,0-11.77,11.16-11.53,24.87s16.58,4.74,28.84-15.5c0,0-4.5,11.58-2.53,23.79s11,18.6,16.58,2.16,5.77-27,5.77-27,1,22.27,10.81,30.27,16.49,4.6,14.42-6.48-4.33-18.75-4.33-18.75,8.06,10.42,15.86,13.7,17.69,2.46,12.26-9S388,221.89,388,221.89a48.52,48.52,0,0,0,15.85,4.69c8.3.74,13.87-9.14,3.25-17.3-8.18-6.28-22.34-11-28.43-12.85-1.87-.49-2.93-.85-2.93-.85s1.11.3,2.93.85A78.08,78.08,0,0,0,408.87,198.1Z"/></g><g id="Forma_2017" data-name="Forma 2017"><path class="cls-22" d="M394.09,194.14c10.65-2.38,3.63-17.44-16.22-11.54A75,75,0,0,0,390.13,175c6.25-4.77,8-19.91-15.14-6.13a28.5,28.5,0,0,0,5.77-10.82c1.61-6.24-2-20.05-18.39,4.69,0,0,2.46-3.63,2.17-14.78s-10-17.58-16.58,13.7c0,0-3.87-23.9-11.9-22.35s-.72,20.91-.72,20.91-10.78-15.24-19.46-9.37c-3.32,2.24,6.49,16.94,6.49,16.94s-15.93-9.6-18.38-.36c-1.79,6.72,21.26,16.22,21.26,16.22a33,33,0,0,0-23.07,2.88c-12.3,6.25,3.39,12.24,17.3,9.73,0,0-15.68,7-14.77,14.06s13.32,4,20.54-2.16A24.62,24.62,0,0,0,317.32,223c-1.34,9.49,8.74,9.45,18.74-7.57,0,0-3.46,7.62-1.08,18.39s13.36.94,14.06-17.31c0,0,.6,10,6.85,18S371,238,362.37,215c0,0,3.14,7.73,14.78,13.7s4.19-14-2.88-18.38c0,0,12.63,7.24,20.18,1.08s-26.67-16.94-26.67-16.94S383.45,196.52,394.09,194.14Z"/></g><g id="Elipse_1951-3" data-name="Elipse 1951"><path class="cls-8" d="M348.14,175.76a12.44,12.44,0,1,0,12.43,12.43A12.43,12.43,0,0,0,348.14,175.76Z"/></g><g id="Elipse_1952_copia_4-3" data-name="Elipse 1952 copia 4"><path class="cls-9" d="M344.13,179.83a1.85,1.85,0,1,0-.16,2.31A1.65,1.65,0,0,0,344.13,179.83Zm-4.77,8.84a1.13,1.13,0,0,0,.74,2.07,1.13,1.13,0,0,0-.74-2.07ZM340,183a1.85,1.85,0,1,0,1.44,1.81A1.65,1.65,0,0,0,340,183Zm7.45-2.05a.9.9,0,1,0,1.25.65A1,1,0,0,0,347.48,180.91Zm-3,3.12a1.12,1.12,0,1,0,.33,1.36A1,1,0,0,0,344.52,184Z"/></g></svg>