<svg xmlns="http://www.w3.org/2000/svg" id="Assets" viewBox="0 0 800 800"><defs><style>.cls-3{fill:#005ea9}</style></defs><path d="M174 527c-21-16-20-142-20-142l-25 1-5 15 1 28 3 40 7 39 6 22 15 11 34 13 49 9 64 5 23-3 6-8c-20 7-137-14-158-30Z" style="opacity:.28;fill:#005ea9"/><path d="m669 386-26-1s2 126-19 142-138 37-158 30l6 8 23 3 64-5 49-9 33-13 15-11 7-22 7-39 3-40v-28Z" style="opacity:.23;fill:#005ea9"/><path d="M445 480c-17-41-60-74-92 0-22 50-24 70-24 70s6 8 15-10l30-61c12-27 41-26 52 2 10 27 19 42 28 59s15 10 15 10-2-20-24-70Z" class="cls-3"/><path d="m660 382-264-18-173 4-99 25 3 64 8 53 10 25 16 9 49 14 73 8 38-1 12-11 11-18 8-26 11-28 12-22 15-7 19-2 19 11 12 24 10 29 12 32 10 14 12 5 32 1 54-6 47-10 28-10 10-7 13-30 4-43 3-40v-25l-15-14z" style="fill:#c3dbe1;opacity:.37"/><path d="M231 375h-74l37 178 71 13-34-191z" style="opacity:.78;fill:#fff"/><path d="M293 376h-52l31 188 47 2-26-190z" style="opacity:.18;fill:#fff"/><path d="M678 370c-6-3-54-7-60-7s-7 2-7 2c-46-10-155-13-201-13h-20c-46 0-155 3-201 13 0 0 0-2-7-2s-54 4-60 7c0 0-5 26-2 29s20 3 27 2l13-12s170-14 187-12c6 0 8 7 14 7h78c6 0 8-7 14-7 17-2 187 12 187 12l13 12c7 1 25 2 27-2s-2-29-2-29Z" class="cls-3"/><path d="M678 370c-6-3-54-7-60-7s-7 2-7 2c-46-10-155-13-201-13h-20c-46 0-155 3-201 13 0 0 0-2-7-2s-54 4-60 7c0 0-5 26-2 29a4 4 0 0 0 2 2c-1-8 3-28 3-28 6-3 54-6 60-7s7 2 7 2c45-10 155-12 200-13s4 0 11 0h10c46 1 155 3 201 13 0 0 0-2 6-2l58 6v-2Z" style="fill:#9bcbe6"/><path d="M337 535s26-67 40-78c0 0-21 10-40 78ZM195 375l173-14s-112 2-173 14Zm190 76a48 48 0 0 1 27 0c-11-9-27 0-27 0Zm-190-76a9 9 0 0 0-1 1Zm414 0 1 1a9 9 0 0 0-1-1Zm0 0c-60-12-173-14-173-14l173 14Zm-188 82c16 17 38 73 38 73-21-64-38-73-38-73Z" style="fill:#4ab0ec"/><path d="M677 397h-5c4 18-4 90-12 120s-43 32-70 38c-26 6-93 13-114 6-14-5-34-85-47-100-10-11-34-24-58 0-15 13-33 95-48 100-20 7-88 0-114-6-27-6-62-9-70-38s-15-102-12-120h-5s-3 108 21 140c12 15 148 44 179 30s32-91 60-108c19-10 29-3 35 0 28 17 30 95 61 108s167-15 178-30c24-32 21-140 21-140Z" style="fill:#005fab"/></svg>