<svg id="Assets" xmlns="http://www.w3.org/2000/svg" viewBox="0 0 800 800"><defs><style>.cls-1{opacity:0.88;}.cls-2{fill:#002831;}.cls-3{fill:#0b3f47;}.cls-4{opacity:0.56;}.cls-5{opacity:0.64;}.cls-6{fill:#fff;}</style></defs><g id="Forma_561_copia" data-name="Forma 561 copia" class="cls-1"><path class="cls-2" d="M271.76,394.81c-41.6-1.36-80.59.23-91.47,21.64S179,530,250,533.79c60.26,3.18,80.18-18.33,80.18-18.33s24.4-19.48,25.69-80.31C356.56,400.23,313.35,396.18,271.76,394.81Zm348,21.64c-10.88-21.41-49.87-23-91.47-21.64s-84.8,5.42-84.06,40.34c1.28,60.83,25.68,80.31,25.68,80.31S489.78,537,550,533.79C621,530,630.58,437.86,619.71,416.45Z"/></g><g id="Forma_561" data-name="Forma 561"><path class="cls-2" d="M651.62,385.28c-59.18-16.48-138.43-10.93-163.46-6.6-24.43,4.22-85.38,6.84-88.34,7-2.95-.12-63.55-2.74-88-7-25-4.33-104.28-9.88-163.46,6.6,0,0-7.9,11.3-1.56,27.87,0,0,10.43-.57,11.29,22.73s8.65,74.83,36.58,95.34,81.77,31,131.56,8.07,48.35-89.9,48.65-101.21c0,0,12-5.83,24.92-5.86s25.28,5.86,25.28,5.86c.3,11.31-1.13,78.24,48.65,101.21s103.63,12.44,131.56-8.07,35.73-72,36.58-95.34,11.29-22.73,11.29-22.73C659.52,396.58,651.62,385.28,651.62,385.28ZM355.83,435.15c-1.29,60.83-25.69,80.31-25.69,80.31S310.22,537,250,533.79C179,530,169.42,437.86,180.29,416.45s49.87-23,91.47-21.64S356.56,400.23,355.83,435.15ZM550,533.79c-60.26,3.18-80.18-18.33-80.18-18.33s-24.4-19.48-25.68-80.31c-.74-34.92,42.47-39,84.06-40.34s80.59.23,91.47,21.64S621,530,550,533.79Z"/></g><g id="Forma_561_copia_4" data-name="Forma 561 copia 4"><path class="cls-3" d="M343.7,409.55c7.77,5.82,12.37,14,12.12,25.6-1.28,60.83-25.68,80.31-25.68,80.31S310.22,537,250,533.79a69.76,69.76,0,0,1-28.6-7.47c9.68,6.71,21.54,11.11,35.93,11.87,60.26,3.18,80.18-18.34,80.18-18.34s24.4-19.47,25.69-80.3C363.47,424.67,355.81,415.4,343.7,409.55Zm309.45-21.4a18.24,18.24,0,0,0-1.53-2.87c-59.18-16.48-138.43-10.93-163.46-6.6-24.43,4.22-85.38,6.84-88.34,7-2.95-.12-63.55-2.74-88-7-25-4.33-104.28-9.88-163.46,6.6,0,0-7.9,11.3-1.56,27.87,0,0,10.43-.57,11.29,22.73s8.65,74.83,36.58,95.34A86.4,86.4,0,0,0,205,537.68c-1-.67-2-1.36-3-2.06-27.93-20.51-35.73-72-36.58-95.34s-11.29-22.73-11.29-22.73c-6.34-16.57,1.56-27.87,1.56-27.87,59.18-16.48,138.43-10.93,163.46-6.6,24.43,4.22,85,6.83,88,7,3-.13,63.91-2.74,88.34-7C519.71,378.89,594.7,373.56,653.15,388.15ZM432.43,442.48a66.71,66.71,0,0,0-7.3-2.76c.23,14.68.83,74.78,45.51,98C431.51,510.91,432.71,452.93,432.43,442.48Zm179.38-35.35a27.44,27.44,0,0,1,7.9,9.32C630.58,437.86,621,530,550,533.79c-36,1.9-57.63-5-69.18-10.9,8.1,5.81,30.59,17.72,76.51,15.3,70.93-3.75,80.54-95.94,69.67-117.34C624,414.84,618.72,410.39,611.81,407.13Z"/></g><g id="Forma_562" data-name="Forma 562" class="cls-4"><path class="cls-2" d="M188.86,446.15c7.47,59.39,29.89,74.26,51.76,78.47,0,0-23-55.37,4.28-85.44s46.71-33,46.71-33S181.38,386.76,188.86,446.15Zm268.94,0c7.48,59.39,29.89,74.26,51.76,78.47,0,0-23-55.37,4.28-85.44s46.71-33,46.71-33S450.32,386.76,457.8,446.15Z"/></g><g id="Forma_563" data-name="Forma 563" class="cls-5"><path class="cls-6" d="M482.09,411.73c-13.72-2.11-17.76,6-22.68,18.82-4.8,12.54,1.65,23.1,11.57,21.63,10.57-1.56,20.54-20.83,20.54-20.83S498.81,414.31,482.09,411.73Z"/></g><g id="Forma_563-2" data-name="Forma 563" class="cls-5"><path class="cls-6" d="M210.42,411.73c-13.71-2.11-17.76,6-22.67,18.82-4.81,12.54,1.64,23.1,11.56,21.63,10.58-1.56,20.55-20.83,20.55-20.83S227.14,414.31,210.42,411.73Z"/></g></svg>