<svg id="Assets" xmlns="http://www.w3.org/2000/svg" viewBox="0 0 800 800"><defs><style>.cls-1{fill:#3e3e40;}.cls-2{fill:#353537;}.cls-3{fill:#57595b;}</style></defs><g id="Forma_1599" data-name="Forma 1599"><path class="cls-1" d="M441.33,395.51S365,370.27,268.8,299.81c-114-83.56-101.69-75.85-114.18-63.72s.36,20.42-10.11,24-22.06,2.73-20.63,16c6,5.39,57.36,50.39,176.45,108.84,56,27.49,137.07,43.44,137.07,43.44S435.49,400.11,441.33,395.51Z"/></g><g id="Forma_1602" data-name="Forma 1602"><path class="cls-2" d="M180.41,295.5c63.26,60,252.05,123.75,252.05,123.75l2.26-12C374.91,394.18,180.41,295.5,180.41,295.5Z"/></g><g id="Forma_1601" data-name="Forma 1601"><path class="cls-3" d="M151,288.21S269.14,390.39,426.22,416.73c0,0-172.61-68.44-242.07-117.45C133.2,263.33,151,288.21,151,288.21Zm74-4.85C150.7,232,176.45,257.6,176.45,257.6c27.92,28,120.33,85.17,120.33,85.17-38.63-15.63-87.41-41.3-94.13-45.56,82.82,56.87,230,109.06,230,109.06l12.19-3.44C402.78,386.47,296.42,332.74,225,283.36Zm-22.36,13.85-.64-.44A7,7,0,0,0,202.65,297.21Z"/></g><g id="Forma_1595" data-name="Forma 1595"><path class="cls-1" d="M696.87,496.45c-15.65-1.13-76.06-28.93-76.06-28.93L589,499c26.74,13.17,96.88,40.45,102.12,35S693,520.57,695.79,515,712.51,497.57,696.87,496.45Z"/></g><g id="Forma_1597" data-name="Forma 1597"><path class="cls-2" d="M675.8,506.44c-5-3.25-55.24-14.28-77.84-27.49l-1.07,7.85s56.26,30.42,78.19,30S680.82,509.7,675.8,506.44Z"/></g><g id="Forma_1598" data-name="Forma 1598"><path class="cls-3" d="M586.53,461.45l-10.35,5.36s72.65,34.42,97.48,35S638,488.25,586.53,461.45Z"/></g><g id="Forma_1595_copia" data-name="Forma 1595 copia"><path class="cls-2" d="M620.81,467.52l-2.23,2.22c-3.06,11.8-7.37,25.73-12.82,36.85,7.49,3.25,15.94,6.73,24.55,10.11,6.19-9.26,13.65-22.36,18.08-37.06C633.3,473.27,620.81,467.52,620.81,467.52Z"/></g><g id="Forma_1592_copia" data-name="Forma 1592 copia"><path class="cls-1" d="M613.67,384.33C595.74,361.77,570.41,358,523,357.55c-49.08,0-73.11,4.12-90.7,26.78-21.66,27.93-30.74,160.33,82.84,170.42,0,0,2.32.7,7.86.49,5.54.21,7.86-.49,7.86-.49C644.42,544.66,635.67,412,613.67,384.33Z"/></g><g id="Forma_1594" data-name="Forma 1594"><path class="cls-2" d="M604.09,424.13s-14.38,59.5-38.81,78.46-48.1,27.68-96.69,11c-25.23-8.67-11.08,9.66-1,14.78,15.69,8,62.45,31.62,113.46-12.89S618.51,383.41,604.09,424.13Z"/></g><g id="Forma_1593" data-name="Forma 1593"><path class="cls-3" d="M561.54,377.9s-62.51-5.2-94.62,9.29-33.94,38.26-30,49.63,10.86.68,28.92-11.07,67.48-25.61,90.69-27.5S599.67,383.32,561.54,377.9Z"/></g></svg>