<svg id="Assets" xmlns="http://www.w3.org/2000/svg" viewBox="0 0 800 800"><defs><style>.cls-1{fill:#494949;}.cls-2{fill:#9d9b9b;}.cls-3{fill:#fff;}.cls-4{opacity:0.79;}.cls-5{fill:#c4c4c4;}.cls-6{opacity:0.52;}.cls-7{fill:#262626;}.cls-8{fill:#3b3b3b;}.cls-9{fill:#545454;}.cls-10{fill:#dfa24a;}.cls-11{fill:#edc578;}.cls-12{fill:#f9d99c;}.cls-13{fill:#a68030;}.cls-14{fill:#725006;}.cls-15{fill:#352200;}</style></defs><g id="Forma_561" data-name="Forma 561"><path class="cls-1" d="M651.62,385.28c-59.18-16.48-138.43-10.93-163.46-6.6-24.43,4.22-85.38,6.84-88.34,7-2.95-.12-63.55-2.74-88-7-25-4.33-104.28-9.88-163.46,6.6,0,0-7.9,11.3-1.56,27.87,0,0,10.43-.57,11.29,22.73s8.65,74.83,36.58,95.34,81.77,31,131.56,8.07,48.35-89.9,48.65-101.21c0,0,12-5.83,24.92-5.86s25.28,5.86,25.28,5.86c.3,11.31-1.13,78.24,48.65,101.21s103.63,12.44,131.56-8.07,35.73-72,36.58-95.34,11.29-22.73,11.29-22.73C659.52,396.58,651.62,385.28,651.62,385.28Zm-295.8,49.87c-1.28,60.83-25.68,80.3-25.68,80.3S310.22,537,250,533.79C179,530,169.42,437.86,180.29,416.45s49.87-23,91.47-21.64S356.56,400.23,355.82,435.15ZM550,533.79c-60.26,3.18-80.18-18.34-80.18-18.34s-24.4-19.47-25.68-80.3c-.74-34.92,42.47-39,84.06-40.34s80.59.23,91.47,21.64S621,530,550,533.79Z"/></g><g id="Forma_561_copia_4" data-name="Forma 561 copia 4"><path class="cls-2" d="M653.15,388.15a18.24,18.24,0,0,0-1.53-2.87c-59.18-16.48-138.43-10.93-163.46-6.6-24.43,4.22-85.38,6.84-88.34,7-2.95-.12-63.55-2.74-88-7-25-4.33-104.28-9.88-163.46,6.6,0,0-7.9,11.3-1.56,27.87,0,0,10.43-.57,11.29,22.73s8.65,74.83,36.58,95.34A86.4,86.4,0,0,0,205,537.68c-1-.67-2-1.36-3-2.06-27.93-20.51-35.73-72-36.58-95.34s-11.29-22.73-11.29-22.73c-6.34-16.57,1.56-27.87,1.56-27.87,59.18-16.48,138.43-10.93,163.46-6.6,24.43,4.22,85,6.83,88,7,3-.13,63.91-2.74,88.34-7C519.71,378.89,594.7,373.56,653.15,388.15ZM343.7,409.55c7.77,5.82,12.37,14,12.12,25.6-1.28,60.83-25.68,80.3-25.68,80.3S310.22,537,250,533.79a69.76,69.76,0,0,1-28.6-7.47c9.68,6.71,21.54,11.11,35.93,11.87,60.26,3.18,80.18-18.34,80.18-18.34s24.41-19.47,25.69-80.3C363.47,424.67,355.81,415.4,343.7,409.55Zm88.73,32.93a66.71,66.71,0,0,0-7.3-2.76c.23,14.68.83,74.78,45.51,98C431.51,510.91,432.71,452.93,432.43,442.48Zm179.38-35.35a27.44,27.44,0,0,1,7.9,9.32C630.58,437.86,621,530,550,533.79c-36,1.9-57.63-5-69.18-10.9,8.1,5.81,30.59,17.72,76.51,15.3,70.93-3.75,80.54-95.94,69.67-117.34C624,414.84,618.72,410.39,611.81,407.13Z"/></g><g id="Forma_563" data-name="Forma 563"><path class="cls-3" d="M210.42,411.73c-13.71-2.11-17.76,6-22.67,18.82-4.81,12.54,1.64,23.1,11.56,21.63,10.58-1.56,20.55-20.83,20.55-20.83S227.14,414.31,210.42,411.73Z"/></g><g id="Forma_561_copia" data-name="Forma 561 copia" class="cls-4"><path class="cls-5" d="M271.76,394.81c-41.6-1.36-80.59.23-91.47,21.64S179,530,250,533.79c60.26,3.18,80.18-18.34,80.18-18.34s24.4-19.47,25.68-80.3C356.56,400.23,313.35,396.18,271.76,394.81Zm348,21.64c-10.88-21.41-49.87-23-91.47-21.64s-84.8,5.42-84.06,40.34c1.28,60.83,25.68,80.3,25.68,80.3S489.78,537,550,533.79C621,530,630.58,437.86,619.71,416.45Z"/></g><g id="Forma_562" data-name="Forma 562" class="cls-6"><path class="cls-3" d="M188.86,446.15c7.47,59.39,29.89,74.26,51.76,78.47,0,0-23-55.37,4.28-85.44s46.71-33,46.71-33S181.38,386.76,188.86,446.15Zm268.94,0c7.48,59.39,29.89,74.26,51.76,78.47,0,0-23-55.37,4.28-85.44s46.71-33,46.71-33S450.32,386.76,457.8,446.15Z"/></g><g id="Forma_563-2" data-name="Forma 563"><path class="cls-3" d="M482.09,411.73c-13.72-2.11-17.76,6-22.68,18.82-4.8,12.54,1.65,23.1,11.57,21.63,10.57-1.56,20.54-20.83,20.54-20.83S498.81,414.31,482.09,411.73Z"/></g><g id="Forma_2127" data-name="Forma 2127"><path class="cls-7" d="M535.63,594.77s-10.11,11.85-34.94-4.51c-37.65-24.81-62.35-18.94-62.35-18.94l-40.91,17.86-40.9-17.86s-24.7-5.87-62.36,18.94c-24.82,16.36-34.93,4.51-34.93,4.51s5.63,20.2,23.67,19.41c0,0-1.27,6-4.5,7.24,0,0,14.37,11.71,36.4,9.28a41,41,0,0,0,30.6.72c22.51-8,44.8-.46,52-18.88,7.21,18.42,29.51,10.89,52,18.88a41.06,41.06,0,0,0,30.6-.72c22,2.43,36.42-9.28,36.42-9.28-3.23-1.23-4.5-7.24-4.5-7.24C530,615,535.63,594.77,535.63,594.77Zm-138.21,7.78h0l0-.08,0,.07Z"/></g><g id="Forma_2129" data-name="Forma 2129"><path class="cls-8" d="M394,585.55s-30.85-24.84-56.91-10.2c0,0-13.7,2.31-33.26,13.38-18.35,10.38-27.36,14.84-35.5,13.73,0,0,13.11,9.47,34.38-3.52,0,0-5.42,6-14.39,16.85,0,0,16.43-8.7,32.55-11.38,0,0,4.84,0,11-.25-6.63,4.76-10.77,6.92-14.87,6.92,0,0,9.28,5,21.83-5.29,0,0-1.82,2.7-4.94,7.61-7.65,3.66-15.95,6.51-22.53,6,0,0,22.62,3.26,44.4-8a125.24,125.24,0,0,1,13.87-6.18c-5.41,4.64-15.75,12.62-23.46,13.06A52.79,52.79,0,0,0,374,609.17c14.46-10.2,18.22-6.58,22.38-20,0,0-1.22-.74-3.29-1.71C393.42,586.83,393.72,586.2,394,585.55Zm132.5,16.91c-8.14,1.11-17.15-3.35-35.5-13.73-19.56-11.07-33.26-13.38-33.26-13.38-26.06-14.64-56.91,10.2-56.91,10.2.25.55.51,1.09.76,1.6a42.47,42.47,0,0,0-3.89,2c1.55,5,3,7.64,5,9.51,4.17,8,9.55,6.88,23.37,16.62,15.1,10.64,32.29,10.5,32.29,10.5-5.73-.34-12.72-4.25-18.64-8.44a45.4,45.4,0,0,0,8.21.92c-5.55-.32-12.47-4.54-17.92-8.62-1.33-1.16-2.27-2-2.73-2.47,1.77,1.49,6.4,2.85,11.23,3.92l.56.29A77.27,77.27,0,0,0,466,619.29a101.21,101.21,0,0,1,10,6.11c-1.3-2.09-2.49-4-3.54-5.63a68,68,0,0,0,11.14-.37,33.94,33.94,0,0,1-12.65-2c-1.81-2.8-3.06-4.69-3.62-5.54l.4.08c14.15,11.07,24.53,5.52,24.53,5.52-6,0-12.13-4-24.13-13.14,3.53.09,5.92.08,5.92.08,16.12,2.68,32.55,11.38,32.55,11.38-9-10.8-14.39-16.85-14.39-16.85C513.4,611.93,526.52,602.46,526.52,602.46ZM427,606.86a3.18,3.18,0,0,0,.26.25Z"/></g><g id="Forma_2130_copia_3" data-name="Forma 2130 copia 3"><path class="cls-9" d="M367.8,580.7s-12.68,4.57-28.28,11.82c-8.87,4.13-14.59,4.71-17.77,4.52,5,.82,16.63,2.19,26.79-1.15,1.86-.61,3.73-1.26,5.57-1.93A154.28,154.28,0,0,1,331,608.65s14-2.15,24.9-10.22a161.06,161.06,0,0,1,25.33-14.83c-1.33.28-2.56.47-3.74.64Zm-50.89,16.43s11.33-10.38,23.36-17.21a40.22,40.22,0,0,0,8.67-6.31l.27-.1-.19,0c4.5-4.53,5.54-8.86,9.13-14.47a166.88,166.88,0,0,1-17.7,14.88c-6.31.16-12,.7-21.84,7.39C305.45,590.26,289,596.67,289,596.67s16.22-.93,29.61-9c3.67-2.2,7.46-4.2,11.07-6A66.91,66.91,0,0,0,316.91,597.13Zm4.84-.09c-2-.33-3.19-.62-3.19-.62A9.43,9.43,0,0,0,321.75,597Zm139.05-15.3c3.61,1.77,7.4,3.77,11.07,6,13.39,8,29.61,9,29.61,9s-16.46-6.41-29.62-15.34c-9.87-6.69-15.52-7.23-21.84-7.39a166.88,166.88,0,0,1-17.7-14.88c3.6,5.61,4.63,9.94,9.14,14.47l-.2,0,.27.1a40.22,40.22,0,0,0,8.67,6.31c12,6.83,23.37,17.21,23.37,17.21A67.12,67.12,0,0,0,460.8,581.74Zm11.11,14.68s-1.2.29-3.19.62A9.34,9.34,0,0,0,471.91,596.42Zm-21-3.9c-15.6-7.25-28.28-11.82-28.28-11.82l-9.7,3.54c-1.19-.17-2.42-.36-3.75-.64a160.56,160.56,0,0,1,25.33,14.83c10.93,8.07,24.91,10.22,24.91,10.22A154.1,154.1,0,0,1,436.36,594c1.85.67,3.71,1.32,5.57,1.93,10.16,3.34,21.82,2,26.79,1.15C465.54,597.23,459.82,596.65,451,592.52Z"/></g><g id="Elipse_1572_copia_2" data-name="Elipse 1572 copia 2"><path class="cls-10" d="M457.84,528.19a34.39,34.39,0,0,0-11.91-12.08,81.78,81.78,0,0,0-9.12-30.82c-11-20.52-26.87-26.83-38.44-26.83S371,464.76,360,485.29a81.61,81.61,0,0,0-9,30.72,34.08,34.08,0,0,0-12.22,12.54c-14.09,23.93-2.56,57.8,21.65,57.61a25.53,25.53,0,0,0,13.28-3.87,37.56,37.56,0,0,0,49.7,0,25.59,25.59,0,0,0,13.67,3.86C461.33,586,472.31,551.94,457.84,528.19Z"/></g><g id="Elipse_1574" data-name="Elipse 1574"><path class="cls-11" d="M362.72,527.59c-2.56,11-.79,27.73,6.33,28,7.33,1.94,7.27-7.8,9.83-19.09,1.85-10.78,2.54-21.25-.7-25.21C372.79,506.94,364,517.91,362.72,527.59Zm-6.19-10.68s-16.73,10.78-17.33,31.32c1-3,14.87-23.48,23.15-22.81,4.5-13,5.49-40.49,27.07-58.54C389.42,466.88,364.28,477.07,356.53,516.91Z"/></g><g id="Elipse_2127" data-name="Elipse 2127"><path class="cls-12" d="M377.33,536c-4.18-.75-8.5,3.81-9.64,10.18s1.32,12.15,5.5,12.9,8.5-3.81,9.65-10.18S381.51,536.73,377.33,536Z"/></g><g id="Forma_1574" data-name="Forma 1574"><path class="cls-13" d="M421.44,570.61l.08.26,0,0c-17.67,20.4-42.61,5.42-46.21,3.08h0s-17.69-16.12-28.22-3.67c0,0,16.79-4.48,25.09,7.67a26.83,26.83,0,0,0,3.74,6.82,42.83,42.83,0,0,0,47.34,0,10.16,10.16,0,0,0,2.42-4.78c2.45-4.78,10.34-15.87,28.43-8.25C454.06,571.71,444.43,554.33,421.44,570.61Z"/></g><g id="Forma_2123_copia" data-name="Forma 2123 copia"><path class="cls-14" d="M358.16,571.89c-12.94-2.12-13.45,6.06-6.08,9.47s16,3.09,20,.22l3.37,2.72A23.14,23.14,0,0,0,358.16,571.89Zm82.58,0a23.14,23.14,0,0,0-17.32,12.41l3.37-2.72c4,2.87,12.66,3.2,20-.22S453.68,569.77,440.74,571.89Z"/></g><g id="Elipse_2124_copia" data-name="Elipse 2124 copia"><path class="cls-15" d="M361,572.31c-4.83-1.12-9.14-.36-9.61,1.69s3,4.63,7.89,5.75,9.14.36,9.61-1.69S365.86,573.44,361,572.31ZM447.5,574c-.48-2-4.79-2.81-9.62-1.69s-8.37,3.7-7.89,5.75,4.78,2.81,9.61,1.69S448,576.05,447.5,574Z"/></g></svg>