<svg xmlns="http://www.w3.org/2000/svg" id="Assets" viewBox="0 0 800 800"><defs><style>.cls-2{fill:#002831}.cls-5{opacity:.64}.cls-6{fill:#fff}</style></defs><path id="Forma_561_copia" d="M272 395c-42-2-81 0-92 21s-1 114 70 118c60 3 80-19 80-19s25-19 26-80c1-35-43-39-84-40Zm348 21c-11-21-50-23-92-21s-85 5-84 40c2 61 26 80 26 80s20 22 80 19c71-4 81-96 70-118Z" class="cls-2" data-name="Forma 561 copia" style="opacity:.88"/><path id="Forma_561" d="M652 385c-60-16-139-11-164-6-24 4-85 7-88 7s-64-3-88-7c-25-5-104-10-164 6 0 0-8 12-1 28 0 0 10 0 11 23s9 75 37 95 81 31 131 8 49-90 49-101c0 0 12-6 25-6s25 6 25 6c0 11-1 78 49 101s103 13 131-8 36-72 37-95 11-23 11-23c7-16-1-28-1-28Zm-296 50c-1 61-26 80-26 80s-20 22-80 19c-71-4-81-96-70-118s50-23 92-21 85 5 84 40Zm194 99c-60 3-80-19-80-19s-25-19-26-80c-1-35 43-39 84-40s81 0 92 21 1 114-70 118Z" class="cls-2" data-name="Forma 561"/><path id="Forma_561_copia_4" d="M344 410c7 5 12 14 12 25-1 61-26 80-26 80s-20 22-80 19a70 70 0 0 1-29-8c10 7 22 11 36 12 61 3 81-18 81-18s24-20 25-80c0-15-7-25-19-30Zm309-22a18 18 0 0 0-1-3c-60-16-139-11-164-6-24 4-85 7-88 7s-64-3-88-7c-25-5-104-10-164 6 0 0-8 12-1 28 0 0 10 0 11 23s9 75 37 95a86 86 0 0 0 10 7l-3-2c-28-21-36-72-37-96s-11-22-11-22c-6-17 2-28 2-28 59-17 138-11 163-7s85 7 88 7 64-3 88-7c25-4 100-9 158 5Zm-221 54a67 67 0 0 0-7-2c0 14 1 75 46 98-39-27-38-85-39-96Zm180-35a27 27 0 0 1 8 9c11 22 1 114-70 118-36 2-58-5-69-11 8 6 30 18 76 15 71-4 81-96 70-117-3-6-8-11-15-14Z" data-name="Forma 561 copia 4" style="fill:#0b3f47"/><path id="Forma_562" d="M189 446c7 60 30 74 52 79 0 0-23-56 4-86s47-33 47-33-111-19-103 40Zm269 0c7 60 30 74 52 79 0 0-23-56 4-86s47-33 47-33-111-19-103 40Z" class="cls-2" data-name="Forma 562" style="opacity:.56"/><g id="Forma_563" class="cls-5" data-name="Forma 563"><path d="M482 412c-14-2-18 6-23 19-4 12 2 23 12 21 11-1 21-21 21-21s7-17-10-19Z" class="cls-6"/></g><g id="Forma_563-2" class="cls-5" data-name="Forma 563"><path d="M210 412c-13-2-17 6-22 19-5 12 1 23 11 21 11-1 21-21 21-21s7-17-10-19Z" class="cls-6"/></g></svg>