<svg xmlns="http://www.w3.org/2000/svg" width="1000" height="1000"><path fill="#353535" d="M845 414c3 0 6 0 9 2 12 18 7 51 6 72v3c-4 51-9 122-50 157-41 34-95 36-146 39h-3a932 932 0 0 1-89 0c-25-1-25-1-35-10l-2-2c-8-7-13-15-16-25-1-4-3-4-6-6l-1-2h-10l-1 3-7 16-1 3c-4 8-7 15-15 20h-2l-3 1a383 383 0 0 1-30 7h-2a1106 1106 0 0 1-84 3h-4c-19 0-39 0-58-2h-4l-49-7-3-1c-12-2-23-5-34-9l-2-1a96 96 0 0 1-57-52l-6-15c-40-88-40-88-32-118 2-4 4-7 8-9l18-3 13-1c78-14 171 12 304 72l3 2c17 11 32 23 46 37l5 4 2-2 2-3 2-3 7-8 15-15c3-4 6-7 11-10l7-6 21-16 5-4c18-15 39-27 59-39l2-1a484 484 0 0 1 52-26 618 618 0 0 1 138-44h4l13-1Zm-30 33c-3 3-4 7-5 11a3564 3564 0 0 1-5 12l-9 21a3345 3345 0 0 0-20 47l-2 2a41797 41797 0 0 1-38 89l-2 3-1 5c10 0 10 0 18-5l4-9a137 137 0 0 1 5-15l9-23 5-11c33-80 33-80 48-112l7-17-14 2Zm20 13-1 3a3759 3759 0 0 1-35 88l-22 51-1 2a5024 5024 0 0 1-6 17l-2 3-1 5 18-6 2-1c11-5 15-11 19-22l2-8 1-3a1167 1167 0 0 0 24-105v-4c2-6 3-13 3-20h-1Zm-122 24c-14 7-19 24-25 38l-6 12-4 10-14 28-1 2a60363 60363 0 0 1-19 40l-1 2a4969 4969 0 0 0-10 22l-2 3-3 9 22-2 1-2 6-16 1-2 3-6 7-13 1-3 11-22 1-4 7-14c13-29 28-57 42-86-6-2-11 1-17 4Zm-569 29c-5 10-1 26 2 36l4 9 7-9c11-14 23-28 38-37l2-1v-1l-31-1h-3c-10 0-10 0-19 4Zm514 2-4 2-3 2-3 2-3 2a1001 1001 0 0 0-56 39c-22 13-22 13-37 33a57 57 0 0 0 1 21c3 16 3 16 11 30l9 2h2l8 1h2l12 1 1-4 19-44 1-2c13-29 26-57 42-84l-2-1Zm-375 10-9 8-22 23-9 9a382 382 0 0 0-35 41l-2 2a1120 1120 0 0 1-12 12l-2 3-2 4 4 6 2 2 2 2 2 2 5 5 7-10 2-3 3-3a769 769 0 0 1 80-103l2-2c-9-3-9-3-16 2Zm69 11-1 2a743 743 0 0 1-43 61l-11 15-29 38-3 6 20 2a907 907 0 0 0 29-42 3225 3225 0 0 0 34-52l1-2 16-24-9-3-2-1h-2Zm23 7-12 18-26 40-1 3-36 50-2 3-1 2-1 2c19 2 38 2 58 2h3c52 3 52 3 100-12l5-9 2-1c1-15 0-28-4-42l-2-7c-1-4-2-6-6-8l-3-3-3-2-2-1c-14-10-30-18-45-26l-4-2-20-7Z"/><path fill="#010101" d="M845 414c3 0 6 0 9 2 12 18 7 51 6 72v3c-4 51-9 122-50 157-41 34-95 36-146 39h-3a932 932 0 0 1-89 0c-25-1-25-1-35-10l-2-2c-8-7-13-15-16-25-1-4-3-4-6-6l-1-2h-10l-1 3-7 16-1 3c-4 8-7 15-15 20h-2l-3 1a383 383 0 0 1-30 7h-2a1106 1106 0 0 1-84 3h-4c-19 0-39 0-58-2h-4l-49-7-3-1c-12-2-23-5-34-9l-2-1a96 96 0 0 1-57-52l-6-15c-40-88-40-88-32-118 2-4 4-7 8-9l18-3 13-1c78-14 171 12 304 72l3 2c17 11 32 23 46 37l5 4 2-2 2-3 2-3 7-8 15-15c3-4 6-7 11-10l7-6 21-16 5-4c18-15 39-27 59-39l2-1a484 484 0 0 1 52-26 618 618 0 0 1 138-44h4l13-1Zm-241 98-2 1a549 549 0 0 0-89 74l-2 2c-3 4-5 7-6 12-3-1-5-1-7-4l-2-2-2-1-22-19-2-2c-17-12-34-24-53-34l-3-1c-55-30-119-44-181-52h-2a329 329 0 0 0-104 1c-7 0-7 0-11 4-10 31 13 78 26 106l1 3c13 29 28 50 55 66l2 1 2 1 3 2a238221190 238221190 0 0 1 10 4l3 1a265 265 0 0 0 39 7l14 2c45 8 92 5 137 3h2c24-1 47-2 65-21 6-7 11-15 15-25 1-3 2-5 5-7h12l13 2 3 3 1 2c7 13 15 29 30 33a127 127 0 0 0 31 5 336 336 0 0 0 74-2c22-2 44-4 65-10h2c19-5 37-9 53-21l2-1 20-17 2-2c34-31 40-94 42-137a543 543 0 0 0 0-38v-3c0-9-1-18-7-25l-1-2c-25-18-205 73-233 91Z"/><path fill="#FEFEFE" d="m815 447-7 18-1 2-2 5-6 14-1 3a1955 1955 0 0 0-30 67l-23 54-1 3a3912 3912 0 0 0-7 16c-3 7-3 7-6 9l-7 1-3 1a266 266 0 0 1-15 2 803 803 0 0 1-56 6l3-12 1-2 2-3a645 645 0 0 0 16-34 2722 2722 0 0 1 33-68l1-2a449 449 0 0 0 14-32c5-11 9-18 20-22a176 176 0 0 1 14-6l13-4 2-1c40-15 40-15 46-15Z"/><path d="M838 438c3 2 4 3 5 7a171 171 0 0 1-6 57c-4 21-8 42-14 63v3l-9 28-1 3c-4 15-12 23-26 30-9 4-18 7-28 9l-3 1c-36 8-72 12-108 16l-4 1c-20 2-39 3-59 1l-4-1c-19-2-19-2-25-6l-2-3-2-2c-6-10-4-25-4-37v-12c0-6 2-11 6-15l2-2 2-2 2-2c3-4 7-7 12-10l2-2a810 810 0 0 1 101-65c42-23 86-41 132-53l3-1 17-3v-2c3-2 7-1 11-1Zm-42 15a24553 24553 0 0 1-19 6l-2 1a497 497 0 0 0-58 24c-10 4-15 8-20 17a3801 3801 0 0 0-9 21l-6 12-4 10-14 28-1 2a60363 60363 0 0 1-19 40l-1 2a4969 4969 0 0 0-10 22l-2 3-3 9a157 157 0 0 0 34-3h4l47-6h2a416 416 0 0 0 20-4c9-1 9-1 16-6l4-8a114 114 0 0 1 5-15l9-23 6-14 47-109 7-17c-12 0-22 4-33 8Zm39 7-1 3a3759 3759 0 0 1-35 88l-22 51-1 2a5024 5024 0 0 1-6 17l-2 3-1 5 18-6 2-1c11-5 15-11 19-22l2-8 1-3a1167 1167 0 0 0 24-105v-4c2-6 3-13 3-20h-1Zm-177 55-4 2-3 2-3 2-3 2a1001 1001 0 0 0-56 39c-22 13-22 13-37 33a57 57 0 0 0 1 21c3 16 3 16 11 30l9 2h2l8 1h2l12 1 1-4 19-44 1-2c13-29 26-57 42-84l-2-1Z"/><path fill="#FEFEFE" d="M304 524h3a962 962 0 0 1 45 11c-1 3-1 5-3 7l-2 2-1 3-3 4-2 3-9 12a1631 1631 0 0 1-60 84c-5 7-5 7-10 8l-9-2-8-1-36-9-3-1 4-9 2-3 1-2 4-6 2-2 7-11 31-42 1-2c11-13 21-26 33-38l2-2c4-4 6-5 11-4ZM287 520c-3 6-8 10-13 14l-21 22-9 9-20 24-21 23-13 14c-17-16-36-45-40-68l3-5 2-3a1561 1561 0 0 1 6-6c36-44 75-35 126-24ZM702 491l2 1-1 2a1254 1254 0 0 0-38 78l-1 2a60402 60402 0 0 1-28 60l-1 2a8725 8725 0 0 0-7 14h-31l4-15 2-3 1-3 2-4a1087 1087 0 0 1 47-99c6-14 17-19 30-26l8-4 11-5Z"/><path fill="#1C1C1C" d="M849 417a43 43 0 0 1 4 18c6 56-1 147-37 193l-3 4-2 3c-30 35-85 41-128 45l-62 1c3-3 4-2 7-3h10l16-2c24-2 47-4 70-10h2c19-5 37-9 53-21l2-1a189 189 0 0 0 22-19c34-30 39-94 41-136a543 543 0 0 0 0-38v-3c0-9-1-18-7-25l-2-3c5-2 9-3 14-3Z"/><path fill="#FEFEFE" d="M829 445h7c2 2 1 3 1 5 0 6-1 10-3 15l-1 3-13 32a38965 38965 0 0 0-42 103l-1 3a2209 2209 0 0 1-6 15l-2 3-1 3c-1 2-2 3-5 4l-5 1h-3l-6 1 7-19 1-3 3-6 7-16 1-3 11-27 31-72 1-3a5057 5057 0 0 1 18-39ZM364 540c4 0 7 1 11 3a498 498 0 0 1-37 59 774 774 0 0 1-42 59h-9l-2-1 11-18 7-9 1-2a2824 2824 0 0 0 43-65l1-2 16-24Z"/><path fill="#B2B2B2" d="M174 483a1419 1419 0 0 0 39 1v1h-3c-33 2-33 2-66 7l-3 1c-7 2-13 5-17 12s1 20 3 28v2a298 298 0 0 0 50 115c-8-3-12-10-16-17l-2-3-4-7-1-2c-18-31-48-90-39-127l2-5 4-1h3l3-1h2l9-2 3-1 33-1ZM604 512l2 1-1 1a520 520 0 0 0-86 76l-1 2-10 10h-1c-1-4-1-6 1-9a224 224 0 0 1 10-11 203 203 0 0 1 35-34c16-13 33-25 51-36Z"/><path fill="#1C1C1C" d="m404 532 10 3 2 1 3 2 3 1c21 11 41 24 59 38l2 1 22 18-1-3 2-4 2-2 1-1h3l5-4-5 8c-3 4-5 7-6 11l-4 1-3-3a320 320 0 0 0-95-66v-1Z"/><path fill="#1D1D1D" d="M504 633h3l8 2v1h-4l-10 1h-2c-3 1-3 2-5 5v2c-3 11-11 23-20 29l-12 6-3-1 2-1c14-10 23-23 29-39l5-5h9Z"/><path fill="#3C3C3C" d="m143 512 2 1-1 3-1 13v8c-3-5-3-10-3-15v-3l1-6 2-1Z"/></svg>