<svg xmlns="http://www.w3.org/2000/svg" width="1000" height="1000"><path fill="#202020" d="m699 473 8 7 2 2c26 24 41 57 42 93 1 31-13 60-34 82-10 10-22 17-35 23l-3 1a122 122 0 0 1-81 3 131 131 0 0 1-51-27c-19-17-35-40-42-65-1-5-4-7-8-10-7-4-16-3-24-1-6 2-12 5-17 10l-1 4c-6 34-22 68-51 90l-15 8-2 1c-17 9-34 13-52 14h-3c-27 1-56-11-76-29a129 129 0 0 1-22-28 133 133 0 0 1 15-154l2-2c4-6 10-10 16-15l3-2a116 116 0 0 1 151 11l2 2c19 18 29 45 34 70l2-2 8-4 2-1c8-3 16-3 24 0l6 5v-2c2-21 5-39 16-58l2-3c4-8 10-14 16-20l2-2c42-46 120-37 164-1Z"/><path fill="#212121" d="m385 491 13 11 2 2c19 20 24 47 23 74-1 28-14 56-34 76a88 88 0 0 1-68 22c-13-2-25-8-35-17l-3-2a92 92 0 0 1-27-49l-1-2-1-23v-3c0-11 1-21 4-32l1-3c9-26 26-49 51-60l8-3 4-1c22-7 44-3 63 10ZM614 471a69 69 0 0 1 18 4c29 8 55 24 71 51 7 14 15 29 15 45v4c1 22-5 43-20 60a74 74 0 0 1-52 23c-28 1-52-11-72-30-22-23-34-51-34-82 0-10 2-19 5-29h2l1-6h2l1-3 6-9 1-2c12-15 30-23 49-26h7Z"/><path fill="#202020" d="M413 486a120 120 0 0 1 39 81v4c1 37-12 69-37 96a113 113 0 0 1-115 31l-4-1c-27-10-49-31-62-57-14-30-16-65-6-97 7-17 16-32 29-46l3-3c5-6 11-11 18-15l2-1c43-26 94-23 133 8Zm-95-4-3 1c-12 4-21 12-30 20l-2 2c-17 15-28 42-29 64-1 32 4 61 26 85 15 15 33 22 54 22 23 0 42-11 59-26a117 117 0 0 0 25-114c-7-22-21-40-42-50-19-10-38-10-58-4Z"/><path d="m699 473 8 7 2 2c26 24 41 57 42 93 1 31-13 60-34 82-10 10-22 17-35 23l-3 1a122 122 0 0 1-81 3 131 131 0 0 1-51-27c-19-17-35-40-42-65-1-5-4-7-8-10-7-4-16-3-24-1-6 2-12 5-17 10l-1 4c-6 34-22 68-51 90l-15 8-2 1c-17 9-34 13-52 14h-3c-27 1-56-11-76-29a129 129 0 0 1-22-28 133 133 0 0 1 15-154l2-2c4-6 10-10 16-15l3-2a116 116 0 0 1 151 11l2 2c19 18 29 45 34 70l2-2 8-4 2-1c8-3 16-3 24 0l6 5v-2c2-21 5-39 16-58l2-3c4-8 10-14 16-20l2-2c42-46 120-37 164-1Zm-157 0-2 2a99 99 0 0 0-33 78v2c0 11 1 21 4 32l1 2c6 20 17 37 31 52l2 3a129 129 0 0 0 68 36 118 118 0 0 0 98-27c20-16 32-42 34-68a125 125 0 0 0-37-97l-2-2c-21-23-55-37-86-38-29-1-56 6-78 25Zm-281 20-4 3a127 127 0 0 0 0 176c21 21 48 30 78 30 10 0 19-1 29-4l2-1c15-4 28-12 40-22l2-2c26-22 41-54 44-88 2-34-8-65-30-90-18-19-43-33-70-35h-6c-31-1-62 11-85 33Z"/><path d="m626 468 7-1a115 115 0 0 1 58 33c19 17 32 46 33 72s-5 49-22 68a81 81 0 0 1-55 26h-2c-26 1-52-10-70-27l-2-1c-23-22-38-52-39-85a87 87 0 0 1 26-66l2-2c17-16 42-21 64-17Zm-64 23c-5 6-11 13-12 20h-2l-1 6h-2l-1 3-4 15c-2 13 0 28 3 40l1 4c5 15 13 29 23 41l2 2c16 19 41 34 66 36 20 1 40-2 56-16l7-7 2-2c15-16 19-38 18-60-1-28-17-54-37-73-32-30-85-41-119-9Z"/><path fill="#FEFEFE" d="M408 516a74 74 0 0 1 15 47v2h-2a71415 71415 0 0 0-94 29h-3l-17 6h-5c5-9 12-15 21-22l12-9a1359 1359 0 0 1 70-51l3-2ZM657 484c14 6 24 16 35 27-1 4-3 4-6 7a408 408 0 0 0-40 35l-10 8-12 11a265 265 0 0 1-26 22l-3-1c-1-6 2-11 6-16l1-3a1542 1542 0 0 1 42-70l2-3 11-17Z"/><path d="M395 493a100 100 0 0 1 33 79v1c0 29-9 54-27 76l-1 2a93 93 0 0 1-56 32 79 79 0 0 1-65-21l-2-2c-21-19-28-47-30-74-1-20 5-39 13-56l1-3c12-22 32-40 55-48 27-9 56-4 79 14Zm-77-11-3 1c-12 4-21 12-30 20l-2 2c-17 15-28 42-29 64-1 32 4 61 26 85 15 15 33 22 54 22 23 0 42-11 59-26a117 117 0 0 0 25-114c-7-22-21-40-42-50-19-10-38-10-58-4Z"/><path fill="#444" d="m385 491 13 11 2 2 2 4-7-4c-17-9-35-13-54-9a101 101 0 0 0-14 5 82 82 0 0 0-40 27c-13 17-25 36-27 57v35c-10-15-8-44-5-61l3-10 1-3c9-26 26-49 51-60l8-3 4-1c22-7 44-3 63 10Z"/><path fill="#FEFEFE" d="m700 525 4 3 1 2 1 2 1 3 2 2c8 19 8 19 7 27l-10 5-4 1-3 1a276277 276277 0 0 1-76 23l-3-3 14-14 8-6a359 359 0 0 1 21-18l31-24 3-3 3-1ZM423 575c1 15-3 31-10 44a905 905 0 0 1-96-9v-4l4-1a2865 2865 0 0 0 83-25l2-1 3-1h2l5-2 7-1Z"/><path fill="#444" d="M615 471c3 0 4 0 7 2l-8 2c-17 2-33 10-44 24-9 14-15 30-16 47v3c-1 32 13 63 35 86l13 11-2 1-6-4-2-1c-27-18-44-44-51-75-3-17-1-34 4-50h2l1-6h2l1-3 6-9 1-2c12-15 30-23 49-26h8Z"/><path fill="#151515" d="m403 618 10 1c-11 24-29 43-54 53-18 6-39 7-57-2l8-1c27 0 51-5 71-24 8-8 15-17 22-27Z"/><path fill="#202020" d="m500 564-1-4h2l2 21-6-4c-8-3-18-3-27 0l-10 6-4 1a425 425 0 0 1 0-12c-1-6-1-6 2-10 15-8 27-6 42 2Z"/><path fill="#151515" d="M717 562c4 24 0 48-15 68-8 11-19 20-32 24l-3-1 2-2a96 96 0 0 0 42-76v-6c1-3 3-7 6-7Z"/></svg>