<svg xmlns="http://www.w3.org/2000/svg" id="Assets" viewBox="0 0 800 800"><defs><style>.cls-3{fill:#7e7e7e}.cls-4{fill:#c1bcae}.cls-5{fill:#676464}.cls-8{fill:#fff}</style></defs><g style="opacity:.48"><circle id="Elipse_510_copia_2_Trazado_de_recorte" cx="523.1" cy="450.7" r="80.6" data-name="Elipse 510 copia 2 Trazado de recorte" style="fill:#a6dde9"/></g><path id="Elipse_510_copia_7" d="M523 349a102 102 0 0 0-101 95v18a102 102 0 1 0 101-113Zm0 182a81 81 0 1 1 81-80 81 81 0 0 1-81 80Z" class="cls-3" data-name="Elipse 510 copia 7"/><path id="Forma_1617_copia_4" d="M619 429v9c4 0 18 1 18 12s-14 12-18 13v8s28 2 28-22-28-20-28-20Z" class="cls-3" data-name="Forma 1617 copia 4"/><path id="Rectángulo_1617_copia" d="M643 443h-2a15 15 0 0 0-15 15v23a15 15 0 0 0 15 15h2a15 15 0 0 0 16-15v-23a15 15 0 0 0-16-15Zm8 35a8 8 0 0 1-16 0v-15a8 8 0 0 1 16 0Z" class="cls-3" data-name="Rectángulo 1617 copia"/><path id="Elipse_1619" d="m635 447-1 1a1 1 0 0 0 1 1l1-1a1 1 0 0 0-1-1Z" class="cls-4" data-name="Elipse 1619"/><path id="Forma_1619" d="M630 451s-3 1-2 6v25a4137 4137 0 0 0 2-25c-1 0-1-3 1-5 2-1 0-3-1-1Z" class="cls-4" data-name="Forma 1619"/><path id="Rectángulo_1617_copia-2" d="M645 475h-1a15 15 0 0 0-16 16v22a15 15 0 0 0 16 16h1a15 15 0 0 0 16-16v-22a15 15 0 0 0-16-16Zm7 35a8 8 0 0 1-17 0v-15a8 8 0 1 1 17 0Z" class="cls-3" data-name="Rectángulo 1617 copia"/><path id="Forma_1634" d="M635 457v11l5-3-1-11s-3-1-4 3Zm11-14v12a6 6 0 0 1 4 3c2-4 4-8 3-10 0 0-1-4-7-5Z" class="cls-5" data-name="Forma 1634"/><path id="Forma_1627" d="M640 479c-1 1 1 1 1 1 3-2 9-2 9-2-5-3-10 1-10 1Z" class="cls-4" data-name="Forma 1627"/><path id="Rectángulo_1617_copia-3" d="M645 540h-1a15 15 0 0 0-16 15v23a15 15 0 0 0 16 15h1a15 15 0 0 0 16-15v-23a15 15 0 0 0-16-15Zm7 35a8 8 0 0 1-17 0v-15a8 8 0 0 1 17 0Z" class="cls-3" data-name="Rectángulo 1617 copia"/><path id="Forma_1627-2" d="M640 544c-1 1 1 1 1 1 3-3 9-2 9-2-5-3-10 1-10 1Z" class="cls-4" data-name="Forma 1627"/><path id="Rectángulo_1617_copia-4" d="M643 508h-2a15 15 0 0 0-15 15v23a15 15 0 0 0 15 15h2a15 15 0 0 0 16-15v-23a15 15 0 0 0-16-15Zm8 35a8 8 0 1 1-16 0v-15a8 8 0 1 1 16 0Z" class="cls-3" data-name="Rectángulo 1617 copia"/><path id="Forma_1633" d="M659 521a21 21 0 0 1-8 6l1 9 7-4a93 93 0 0 0 0-11Zm-24 5c1-1 2 2 6 2 0 0-1-7 3-10a9 9 0 0 0-9 8Z" class="cls-5" data-name="Forma 1633"/><path id="Forma_1619-2" d="M628 489v9s5 3 7 3l1-6-8-6Zm12-5c7 3 6 12 6 12a10 10 0 0 0 6-2c-1-10-12-10-12-10Zm18 31v-25a4132 4132 0 0 0-2 25s0 3-2 5c-1 1 1 2 2 1 0 0 2-1 2-6Z" class="cls-5" data-name="Forma 1619"/><path id="Forma_1619_copia" d="M628 553v10s5 3 7 2l1-5s-7-4-8-7Zm12-5c7 3 6 12 6 13a10 10 0 0 0 6-3c-1-10-12-10-12-10Zm18 31v-25a4137 4137 0 0 0-2 25s0 3-2 5c-1 1 1 3 2 1 0 0 2-1 2-6Z" class="cls-5" data-name="Forma 1619 copia"/><path id="Elipse_1619-2" d="m635 512-1 1a1 1 0 0 0 1 1l1-1a1 1 0 0 0-1-1Z" class="cls-4" data-name="Elipse 1619"/><path id="Forma_1619-3" d="M630 516s-3 1-2 6v25c0 2 2 2 2-1l-1-24s0-3 2-5c2-1 0-3-1-1Z" class="cls-4" data-name="Forma 1619"/><circle id="Elipse_510_copia_2_Trazado_de_recorte-2" cx="523.1" cy="450.7" r="80.6" data-name="Elipse 510 copia 2 Trazado de recorte" style="fill:none"/><path id="Elipse_510_copia_4" d="M429 429c7-16 18-34 32-46a251 251 0 0 1 38-27 102 102 0 0 0-70 73Zm126-71-1 1c33 11 59 58 59 95 0 41-30 81-66 91 29-2 73-37 74-90 1-77-66-97-66-97Z" class="cls-4" data-name="Elipse 510 copia 4"/><path id="Forma_510_Trazado_de_recorte" d="M592 435c-6-21-23-18-34-13-44 19-55 52-55 52s-9 32 9 46c63 34 86-64 80-85Z" class="cls-8" data-name="Forma 510 Trazado de recorte" style="opacity:.08"/><path id="Forma_511" d="M489 392c-16 14-20 25-15 34s30-4 34-23-7-21-19-11Z" class="cls-8" data-name="Forma 511"/></svg>