<svg xmlns="http://www.w3.org/2000/svg" id="Assets" viewBox="0 0 800 800"><defs><style>.cls-1{fill:#3e3e40}.cls-2{fill:#353537}.cls-3{fill:#57595b}</style></defs><path id="Forma_1599" d="M441 396s-76-26-172-96c-114-84-102-76-114-64s0 21-10 24-23 3-21 16c6 5 57 50 176 109 56 27 137 43 137 43s-2-28 4-32Z" class="cls-1" data-name="Forma 1599"/><path id="Forma_1602" d="M180 296c64 60 252 123 252 123l3-12c-60-13-255-111-255-111Z" class="cls-2" data-name="Forma 1602"/><path id="Forma_1601" d="M151 288s118 102 275 129c0 0-172-69-242-118-51-36-33-11-33-11Zm74-5c-74-51-49-25-49-25 28 28 121 85 121 85-39-16-88-42-94-46 82 57 230 109 230 109l12-3c-42-17-149-70-220-120Zm-22 14h-1a7 7 0 0 0 1 0Z" class="cls-3" data-name="Forma 1601"/><path id="Forma_1595" d="M697 496c-16-1-76-28-76-28l-32 31c27 13 97 40 102 35s2-13 5-19 17-17 1-19Z" class="cls-1" data-name="Forma 1595"/><path id="Forma_1597" d="M676 506c-5-3-55-14-78-27l-1 8s56 30 78 30 6-7 1-11Z" class="cls-2" data-name="Forma 1597"/><path id="Forma_1598" d="m587 461-11 6s73 34 98 35-36-14-87-41Z" class="cls-3" data-name="Forma 1598"/><path id="Forma_1595_copia" d="m621 468-2 2c-3 12-8 25-13 37l24 10c6-10 14-23 18-37l-27-12Z" class="cls-2" data-name="Forma 1595 copia"/><path id="Forma_1592_copia" d="M614 384c-18-22-44-26-91-26-49 0-73 4-91 26-21 28-30 161 83 171h16c113-10 105-143 83-171Z" class="cls-1" data-name="Forma 1592 copia"/><path id="Forma_1594" d="M604 424s-14 60-39 79-48 27-96 11c-26-9-11 9-1 14 15 8 62 32 113-13s38-132 23-91Z" class="cls-2" data-name="Forma 1594"/><path id="Forma_1593" d="M562 378s-63-5-95 9-34 38-30 50 11 0 29-11 67-26 91-28 43-15 5-20Z" class="cls-3" data-name="Forma 1593"/></svg>