<svg id="Assets" xmlns="http://www.w3.org/2000/svg" viewBox="0 0 800 800"><defs><style>.cls-1{opacity:0.48;}.cls-2{fill:#a6dde9;}.cls-3{fill:#7e7e7e;}.cls-4{fill:#c1bcae;}.cls-5{fill:#676464;}.cls-6{fill:none;}.cls-7{opacity:0.08;}.cls-8{fill:#fff;}</style></defs><g id="Elipse_510_copia_2_Trazado_de_recorte" data-name="Elipse 510 copia 2 Trazado de recorte" class="cls-1"><circle class="cls-2" cx="523.12" cy="450.69" r="80.61"/></g><g id="Elipse_510_copia_7" data-name="Elipse 510 copia 7"><path class="cls-3" d="M523.12,349a101.71,101.71,0,0,0-101.51,95.36c-.56,6.6.47,16.14.37,17.16A101.71,101.71,0,1,0,523.12,349Zm0,182.32a80.62,80.62,0,1,1,80.61-80.61A80.61,80.61,0,0,1,523.12,531.3Z"/></g><g id="Forma_1617_copia_4" data-name="Forma 1617 copia 4"><path class="cls-3" d="M619,429.44l-.07,8.42c4.53.06,18,1.53,18,11.84s-13.65,12.51-18.22,12.94l-.07,8.52s28.18,1.53,28.18-22S619,429.44,619,429.44Z"/></g><g id="Rectángulo_1617_copia" data-name="Rectángulo 1617 copia"><path class="cls-3" d="M643.1,443h-1.65A15.48,15.48,0,0,0,626,458.46v22.4a15.49,15.49,0,0,0,15.48,15.49h1.65a15.49,15.49,0,0,0,15.48-15.49v-22.4A15.48,15.48,0,0,0,643.1,443Zm8.23,35.25a8.24,8.24,0,0,1-16.47,0V462.74a8.24,8.24,0,0,1,16.47,0Z"/></g><g id="Elipse_1619" data-name="Elipse 1619"><path class="cls-4" d="M634.68,447.28c-.72.13-1.22.68-1.11,1.22a1.19,1.19,0,0,0,1.48.72c.71-.14,1.21-.68,1.11-1.22A1.2,1.2,0,0,0,634.68,447.28Z"/></g><g id="Forma_1619" data-name="Forma 1619"><path class="cls-4" d="M629.59,451.21s-2.12,1-2,5.93v25c.24,1.61,2.12,1.59,2-.66,0-3.64-.33-24.71-.33-24.71s0-3,2-4.61C632.63,451.07,630.92,449.33,629.59,451.21Z"/></g><g id="Rectángulo_1617_copia-2" data-name="Rectángulo 1617 copia"><path class="cls-3" d="M645.25,475.18H643.6a15.48,15.48,0,0,0-15.48,15.48v22.41a15.48,15.48,0,0,0,15.48,15.48h1.65a15.48,15.48,0,0,0,15.48-15.48V490.66A15.48,15.48,0,0,0,645.25,475.18Zm6.59,35.25a8.24,8.24,0,0,1-16.48,0V495a8.24,8.24,0,1,1,16.48,0Z"/></g><g id="Forma_1634" data-name="Forma 1634"><path class="cls-5" d="M635.12,456.88l-.37,11s3.77-1.37,5.49-3.29l-1.47-11S636.29,453.4,635.12,456.88Zm11-13.9s.85,7.4,0,12.07a5.74,5.74,0,0,1,3.66,2.93c1.86-3.68,3.8-7.67,3.66-10.24C653.41,447.74,651.63,443.93,646.09,443Z"/></g><g id="Forma_1627" data-name="Forma 1627"><path class="cls-4" d="M639.51,478.84c-.34.93,1.83,1.46,1.83,1.46,2.76-2.71,8.78-1.83,8.78-1.83C645.28,475.2,639.51,478.84,639.51,478.84Z"/></g><g id="Rectángulo_1617_copia-3" data-name="Rectángulo 1617 copia"><path class="cls-3" d="M645.25,540H643.6a15.48,15.48,0,0,0-15.48,15.49v22.4a15.48,15.48,0,0,0,15.48,15.48h1.65a15.48,15.48,0,0,0,15.48-15.48v-22.4A15.48,15.48,0,0,0,645.25,540Zm6.59,35.25a8.24,8.24,0,0,1-16.48,0V559.72a8.24,8.24,0,0,1,16.48,0Z"/></g><g id="Forma_1627-2" data-name="Forma 1627"><path class="cls-4" d="M639.51,543.61c-.34.93,1.83,1.47,1.83,1.47,2.76-2.72,8.78-1.83,8.78-1.83C645.28,540,639.51,543.61,639.51,543.61Z"/></g><g id="Rectángulo_1617_copia-4" data-name="Rectángulo 1617 copia"><path class="cls-3" d="M643.1,507.75h-1.65A15.48,15.48,0,0,0,626,523.23v22.4a15.48,15.48,0,0,0,15.48,15.49h1.65a15.48,15.48,0,0,0,15.48-15.49v-22.4A15.48,15.48,0,0,0,643.1,507.75ZM651.33,543a8.24,8.24,0,1,1-16.47,0V527.52a8.24,8.24,0,1,1,16.47,0Z"/></g><g id="Forma_1633" data-name="Forma 1633"><path class="cls-5" d="M658.53,521.29a21.21,21.21,0,0,1-7.31,5.85l.36,8.79c2.19,0,6.95-3.66,6.95-3.66A92.79,92.79,0,0,0,658.53,521.29Zm-23.41,4.76c.91-.62,2.3,1.89,6.22,2.19,0,0-1.71-7,2.19-10.24A8.59,8.59,0,0,0,635.12,526.05Z"/></g><g id="Forma_1619-2" data-name="Forma 1619"><path class="cls-5" d="M628.16,488.72v9.52s4.88,3,7,2.56c.53-1.44.36-5.49.36-5.49S629.2,491.49,628.16,488.72Zm12.08-5.12c7.24,3.31,5.79,12.19,5.85,12.81a9.87,9.87,0,0,0,5.49-2.57C651.06,483.55,640.24,483.6,640.24,483.6Zm17.86,31v-25c-.24-1.61-2.11-1.6-2,.66,0,3.64.33,24.7.33,24.7s0,3-2,4.62c-1.39,1.12.32,2.87,1.64,1C656.12,520.54,658.25,519.56,658.1,514.61Z"/></g><g id="Forma_1619_copia" data-name="Forma 1619 copia"><path class="cls-5" d="M628.16,553.13v9.51s4.88,3,7,2.56c.53-1.43.36-5.49.36-5.49S629.2,555.89,628.16,553.13ZM640.24,548c7.24,3.31,5.79,12.2,5.85,12.81a9.89,9.89,0,0,0,5.49-2.56C651.06,548,640.24,548,640.24,548Zm17.86,31V554c-.24-1.61-2.11-1.59-2,.66,0,3.64.33,24.71.33,24.71s0,3-2,4.61c-1.39,1.13.32,2.87,1.64,1C656.12,585,658.25,584,658.1,579Z"/></g><g id="Elipse_1619-2" data-name="Elipse 1619"><path class="cls-4" d="M634.68,512.05c-.72.14-1.22.68-1.11,1.22a1.19,1.19,0,0,0,1.48.72c.71-.13,1.21-.68,1.11-1.22A1.2,1.2,0,0,0,634.68,512.05Z"/></g><g id="Forma_1619-3" data-name="Forma 1619"><path class="cls-4" d="M629.59,516s-2.12,1-2,5.93v25c.24,1.61,2.12,1.59,2-.66,0-3.64-.33-24.7-.33-24.7s0-3,2-4.62C632.63,515.85,630.92,514.1,629.59,516Z"/></g><g id="Elipse_510_copia_2_Trazado_de_recorte-2" data-name="Elipse 510 copia 2 Trazado de recorte"><circle class="cls-6" cx="523.12" cy="450.69" r="80.61"/></g><g id="Elipse_510_copia_4" data-name="Elipse 510 copia 4"><path class="cls-4" d="M428.73,428.7c7.29-15.69,17.84-33.52,31.86-45.37a251.36,251.36,0,0,1,38.82-27.46A101.87,101.87,0,0,0,428.73,428.7Zm125.84-70.47-.21.46c32.69,10.9,58.51,58.68,58.8,95.63.32,40.89-30.14,80.23-66.29,90.71,28.75-1.7,73.19-37.29,74-90C622,378.33,554.57,358.23,554.57,358.23Z"/></g><g id="Forma_510_Trazado_de_recorte" data-name="Forma 510 Trazado de recorte" class="cls-7"><path class="cls-8" d="M592.15,435.48c-5.94-21.06-22.79-18.47-33.79-13.65-44.51,19.54-55.16,52.52-55.16,52.52s-9.4,32,8.5,46C575.31,553.71,598,456.34,592.15,435.48Z"/></g><g id="Forma_511" data-name="Forma 511"><path class="cls-8" d="M489.22,391.77c-16,13.8-20.62,25.29-15.37,33.75s30.1-3.3,33.75-22.9S500.91,381.67,489.22,391.77Z"/></g></svg>