<svg xmlns="http://www.w3.org/2000/svg" id="Assets" viewBox="0 0 800 800"><defs><linearGradient id="linear-gradient" x1="139.54" x2="659.82" y1="442.98" y2="442.98" gradientUnits="userSpaceOnUse"><stop offset=".01" stop-color="#6100e9"/><stop offset=".06" stop-color="#0cffb7"/><stop offset=".09" stop-color="#e7b9d1"/><stop offset=".15" stop-color="#f3bf00"/><stop offset=".27" stop-color="#f10085"/><stop offset=".32" stop-color="#ca037b"/><stop offset=".36" stop-color="#a90672"/><stop offset=".41" stop-color="#91086b"/><stop offset=".45" stop-color="#820a67"/><stop offset=".49" stop-color="#7d0a66"/><stop offset=".54" stop-color="#800a67"/><stop offset=".59" stop-color="#8a096a"/><stop offset=".63" stop-color="#9b076e"/><stop offset=".67" stop-color="#b30574"/><stop offset=".71" stop-color="#d1037d"/><stop offset=".74" stop-color="#f10085"/><stop offset=".83" stop-color="#f3bf00"/><stop offset=".9" stop-color="#e7b9d1"/><stop offset=".94" stop-color="#0cffb7"/><stop offset=".99" stop-color="#6100e9"/></linearGradient><style>.cls-3{fill:#fff}.cls-7{fill:#f4f4f4}</style></defs><path d="M186.64 500.9c-19.87-15.44-18.46-134-18.46-134l-23.87.95-4.45 14 .63 27.05 2.87 37.23 6.36 36.6 6.05 21.32 14.32 10.18 31.5 11.77 46.14 8.59 60.46 4.77 21.64-2.54 6.05-8c-18.96 7.43-129.38-12.49-149.24-27.92Z" style="opacity:.28;fill:#00a996"/><path d="m653.46 367.88-23.87-.95s1.41 118.53-18.45 134-130.29 35.35-149.25 28l6.05 8 21.64 2.54 60.42-4.84 46.18-8.63 31.5-11.78L642 504.08l6-21.32 6.37-36.6 2.86-37.23.64-27.05Z" style="opacity:.23;fill:#00a996"/><path d="M442.8 456.35c-16.18-38-57.32-69.6-87.51 0C334.63 504 333 522.54 333 522.54s5.57 7.72 14-8.91S363.1 482 375 456c11.69-25.43 39.28-24.53 49.32 1.59 9.71 25.25 18.31 39.37 26.73 56s14 8.91 14 8.91-1.93-18.39-22.25-66.15Z" class="cls-3"/><path d="m645.82 364.38-249.16-17.5-163.57 4.45-93.55 23.23 2.55 60.79 7.63 49.64 9.55 23.55 15.27 8.91L221 530.17l68.42 7.96 35.64-1.27 11.46-10.19 10.18-16.86 7.95-24.5 10.5-27.05 10.83-20.05 14.31-7.32 18.14-1.59 17.82 10.5 11.78 22.91 9.22 27.37 11.14 29.91 9.55 13.37 11.45 4.77 30.24.95 50.91-6.36 43.92-9.55 26.72-8.91 9.55-6.36 12.09-28.32 3.5-40.42 3.19-38.5.32-23.55-14.01-12.73z" style="opacity:.96;fill:url(#linear-gradient)"/><path d="M240.13 357.36h-69.69l34.84 168.26 66.9 12.12-32.05-180.38z" style="opacity:.48;fill:#fff"/><path d="m299.12 358.18-48.84.44 28.95 177.33 44.22 1.79-24.33-179.56z" style="opacity:.2;fill:#fff"/><path d="M662.37 352.61c-6.09-2.79-50.86-6.2-57-6.37s-6.36 1.59-6.36 1.59c-43-9.16-146.27-11.58-189.36-12.2v-.21s-3.54 0-9.71.09-9.71-.09-9.71-.09v.21c-43.09.62-146.38 3-189.36 12.2 0 0-.26-1.75-6.36-1.59s-50.87 3.58-57 6.37c0 0-4.39 24.3-2.23 27.68s19.48 2.8 25.46 1.91c1.47-1.3 13-11.77 13-11.77s160.27-13 176-11.14c6.12 0 8 7 13.68 7 4.12 0 25-.34 36.44-.52 11.42.18 32.32.49 36.44.52 5.72 0 7.56-7 13.68-7 15.7-1.89 176 11.14 176 11.14s11.58 10.47 13 11.77c6 .89 23.3 1.48 25.46-1.91s-2.07-27.68-2.07-27.68Z" class="cls-7"/><path d="M662.37 352.61c-6.09-2.79-50.86-6.2-57-6.37s-6.36 1.59-6.36 1.59c-43-9.16-146.27-11.58-189.36-12.2v-.21s-3.54 0-9.71.09-9.71-.09-9.71-.09v.21c-43.09.62-146.38 3-189.36 12.2 0 0-.26-1.75-6.36-1.59s-50.87 3.58-57 6.37c0 0-4.39 24.3-2.23 27.68a3.9 3.9 0 0 0 2 1.32c-.73-6.66 2.73-25.82 2.73-25.82 6.09-2.79 50.85-6.2 57-6.36s6.49 1.57 6.49 1.57c43-9.17 146.26-11.59 189.36-12.21v-.2s3.53 0 9.71.08 9.7-.08 9.7-.08v.2c43.09.62 146.38 3 189.35 12.21 0 0 .26-1.76 6.37-1.59 5.62.15 44.07 3.06 54.84 5.69l-.46-2.49Z" class="cls-3"/><path d="M342.5 509.21s24.09-62.83 37.87-73.82c0 0-19.68 9.19-37.87 73.82ZM208.8 358.44c14.66-2.44 141.75-13 163-13.75-.02 0-106.02 1.86-163 13.75Zm178.89 71.85a45.76 45.76 0 0 1 25.14 0c-9.63-8.44-25.14 0-25.14 0ZM208.8 358.44a8 8 0 0 0-1.22.26Zm390.24 0 1.22.26a8 8 0 0 0-1.26-.26Zm0 0c-57-11.89-163-13.75-163-13.75 21.24.79 148.34 11.31 162.96 13.75ZM421.74 436c11.67 15.76 32.71 68.41 32.71 68.41C434 443.9 421.74 436 421.74 436Z" class="cls-3"/><path d="M661.73 378.7h-5.09c3.51 16.65-3.94 85-11.14 112.65s-40.38 30.49-65.87 36.28c-24.83 5.64-88.54 12-107.87 5.09-13.49-4.82-32.08-80.29-44.55-94.19-9.17-10.22-31.62-22.18-55 0-13.57 12.84-31.06 89.37-44.55 94.19-19.33 6.9-83.05.55-107.88-5.09-25.49-5.79-58.68-8.61-65.87-36.28s-14.65-96-11.14-112.65h-5.09s-2.74 102 20.05 131.74c10.79 14.1 139.19 41.18 168.33 28.64s30.91-86.51 57.28-101.83c17.57-10.2 27.5-3.19 32.78 0 26.08 15.82 28.14 89.29 57.28 101.83s157.54-14.54 168.34-28.64c22.73-29.77 19.99-131.74 19.99-131.74Z" class="cls-7"/></svg>