<svg id="Assets" xmlns="http://www.w3.org/2000/svg" xmlns:xlink="http://www.w3.org/1999/xlink" viewBox="0 0 800 800"><defs><style>.cls-1,.cls-2{fill:#00a996;}.cls-1{opacity:0.28;}.cls-2{opacity:0.23;}.cls-3,.cls-5,.cls-6{fill:#fff;}.cls-4{opacity:0.96;fill:url(#linear-gradient);}.cls-5{opacity:0.48;}.cls-6{opacity:0.2;}.cls-7{fill:#f4f4f4;}</style><linearGradient id="linear-gradient" x1="139.54" y1="442.98" x2="659.82" y2="442.98" gradientUnits="userSpaceOnUse"><stop offset="0.01" stop-color="#6100e9"/><stop offset="0.06" stop-color="#0cffb7"/><stop offset="0.09" stop-color="#e7b9d1"/><stop offset="0.15" stop-color="#f3bf00"/><stop offset="0.27" stop-color="#f10085"/><stop offset="0.32" stop-color="#ca037b"/><stop offset="0.36" stop-color="#a90672"/><stop offset="0.41" stop-color="#91086b"/><stop offset="0.45" stop-color="#820a67"/><stop offset="0.49" stop-color="#7d0a66"/><stop offset="0.54" stop-color="#800a67"/><stop offset="0.59" stop-color="#8a096a"/><stop offset="0.63" stop-color="#9b076e"/><stop offset="0.67" stop-color="#b30574"/><stop offset="0.71" stop-color="#d1037d"/><stop offset="0.74" stop-color="#f10085"/><stop offset="0.83" stop-color="#f3bf00"/><stop offset="0.9" stop-color="#e7b9d1"/><stop offset="0.94" stop-color="#0cffb7"/><stop offset="0.99" stop-color="#6100e9"/></linearGradient></defs><path class="cls-1" d="M186.64,500.9c-19.87-15.44-18.46-134-18.46-134l-23.87.95-4.45,14,.63,27.05,2.87,37.23,6.36,36.6,6.05,21.32,14.32,10.18L201.59,526l46.14,8.59,60.46,4.77,21.64-2.54,6.05-8C316.92,536.25,206.5,516.33,186.64,500.9Z"/><path class="cls-2" d="M653.46,367.88l-23.87-.95s1.41,118.53-18.45,134-130.29,35.35-149.25,28l6.05,8,21.64,2.54L550,534.63,596.18,526l31.5-11.78L642,504.08l6-21.32,6.37-36.6,2.86-37.23.64-27.05Z"/><path class="cls-3" d="M442.8,456.35c-16.18-38-57.32-69.6-87.51,0C334.63,504,333,522.54,333,522.54s5.57,7.72,14-8.91S363.1,482,375,456c11.69-25.43,39.28-24.53,49.32,1.59,9.71,25.25,18.31,39.37,26.73,56s14,8.91,14,8.91S463.12,504.11,442.8,456.35Z"/><polygon class="cls-4" points="645.82 364.38 396.66 346.88 233.09 351.33 139.54 374.56 142.09 435.35 149.72 484.99 159.27 508.54 174.54 517.45 221 530.17 289.42 538.13 325.06 536.86 336.52 526.67 346.7 509.81 354.65 485.31 365.15 458.26 375.98 438.21 390.29 430.89 408.43 429.3 426.25 439.8 438.03 462.71 447.25 490.08 458.39 519.99 467.94 533.36 479.39 538.13 509.63 539.08 560.54 532.72 604.46 523.17 631.18 514.26 640.73 507.9 652.82 479.58 656.32 439.16 659.51 400.66 659.83 377.11 645.82 364.38"/><polygon class="cls-5" points="240.13 357.36 170.44 357.36 205.28 525.62 272.18 537.74 240.13 357.36"/><polygon class="cls-6" points="299.12 358.18 250.28 358.62 279.23 535.95 323.45 537.74 299.12 358.18"/><path class="cls-7" d="M662.37,352.61c-6.09-2.79-50.86-6.2-57-6.37s-6.36,1.59-6.36,1.59c-43-9.16-146.27-11.58-189.36-12.2l0-.21s-3.54,0-9.71.09-9.71-.09-9.71-.09l0,.21c-43.09.62-146.38,3-189.36,12.2,0,0-.26-1.75-6.36-1.59s-50.87,3.58-57,6.37c0,0-4.39,24.3-2.23,27.68s19.48,2.8,25.46,1.91c1.47-1.3,13-11.77,13-11.77s160.27-13,176-11.14c6.12,0,8,7,13.68,7,4.12,0,25-.34,36.44-.52,11.42.18,32.32.49,36.44.52,5.72,0,7.56-7,13.68-7,15.7-1.89,176,11.14,176,11.14s11.58,10.47,13,11.77c6,.89,23.3,1.48,25.46-1.91S662.37,352.61,662.37,352.61Z"/><path class="cls-3" d="M662.37,352.61c-6.09-2.79-50.86-6.2-57-6.37s-6.36,1.59-6.36,1.59c-43-9.16-146.27-11.58-189.36-12.2l0-.21s-3.54,0-9.71.09-9.71-.09-9.71-.09l0,.21c-43.09.62-146.38,3-189.36,12.2,0,0-.26-1.75-6.36-1.59s-50.87,3.58-57,6.37c0,0-4.39,24.3-2.23,27.68a3.9,3.9,0,0,0,2,1.32c-.73-6.66,2.73-25.82,2.73-25.82,6.09-2.79,50.85-6.2,57-6.36S203.5,351,203.5,351c43-9.17,146.26-11.59,189.36-12.21l0-.2s3.53,0,9.71.08,9.7-.08,9.7-.08v.2c43.09.62,146.38,3,189.35,12.21,0,0,.26-1.76,6.37-1.59,5.62.15,44.07,3.06,54.84,5.69C662.54,353.56,662.37,352.61,662.37,352.61Z"/><path class="cls-3" d="M342.5,509.21s24.09-62.83,37.87-73.82C380.37,435.39,360.69,444.58,342.5,509.21ZM208.8,358.44c14.66-2.44,141.75-13,163-13.75C371.78,344.69,265.78,346.55,208.8,358.44Zm178.89,71.85a45.76,45.76,0,0,1,25.14,0C403.2,421.85,387.69,430.29,387.69,430.29ZM208.8,358.44a8,8,0,0,0-1.22.26Zm390.24,0,1.22.26A8,8,0,0,0,599,358.44Zm0,0c-57-11.89-163-13.75-163-13.75C457.28,345.48,584.38,356,599,358.44ZM421.74,436c11.67,15.76,32.71,68.41,32.71,68.41C434,443.9,421.74,436,421.74,436Z"/><path class="cls-7" d="M661.73,378.7h-5.09c3.51,16.65-3.94,85-11.14,112.65s-40.38,30.49-65.87,36.28c-24.83,5.64-88.54,12-107.87,5.09-13.49-4.82-32.08-80.29-44.55-94.19-9.17-10.22-31.62-22.18-55,0-13.57,12.84-31.06,89.37-44.55,94.19-19.33,6.9-83.05.55-107.88-5.09-25.49-5.79-58.68-8.61-65.87-36.28s-14.65-96-11.14-112.65h-5.09s-2.74,102,20.05,131.74c10.79,14.1,139.19,41.18,168.33,28.64s30.91-86.51,57.28-101.83c17.57-10.2,27.5-3.19,32.78,0,26.08,15.82,28.14,89.29,57.28,101.83s157.54-14.54,168.34-28.64C664.47,480.67,661.73,378.7,661.73,378.7Z"/></svg>