<svg id="Assets" xmlns="http://www.w3.org/2000/svg" viewBox="0 0 800 800"><defs><style>.cls-1,.cls-2,.cls-3{fill:#005ea9;}.cls-1{opacity:0.28;}.cls-2{opacity:0.23;}.cls-4{fill:#c3dbe1;opacity:0.37;}.cls-5,.cls-6{fill:#fff;}.cls-5{opacity:0.78;}.cls-6{opacity:0.18;}.cls-7{fill:#9bcbe6;}.cls-8{fill:#4ab0ec;}.cls-9{fill:#005fab;}</style></defs><path class="cls-1" d="M173.94,526.9C152.9,510.55,154.39,385,154.39,385l-25.29,1-4.72,14.84.68,28.65,3,39.45,6.74,38.77,6.41,22.59,15.17,10.79,33.38,12.47,48.88,9.11,64.06,5.05L325.66,565l6.4-8.43C312,564.36,195,543.25,173.94,526.9Z"/><path class="cls-2" d="M668.54,386l-25.29-1s1.49,125.59-19.55,141.94-138,37.46-158.12,29.67L472,565l22.93,2.69L559,562.64l48.88-9.11,33.38-12.47,15.17-10.79,6.41-22.59,6.74-38.77,3-39.45.68-28.65Z"/><path class="cls-3" d="M445.35,479.7c-17.14-40.29-60.73-73.73-92.72,0-21.89,50.45-23.6,70.13-23.6,70.13s5.91,8.18,14.83-9.44,17-33.56,29.67-61c12.39-26.93,41.62-26,52.26,1.69,10.29,26.75,19.39,41.71,28.32,59.34S469,549.83,469,549.83,466.87,530.31,445.35,479.7Z"/><polygon class="cls-4" points="660.45 382.26 396.46 363.72 223.17 368.44 124.05 393.05 126.74 457.45 134.83 510.04 144.95 534.99 161.13 544.43 210.35 557.92 282.84 566.35 320.6 565 332.74 554.21 343.53 536.34 351.96 510.38 363.08 481.72 374.55 460.48 389.72 452.73 408.93 451.04 427.81 462.17 440.29 486.44 450.07 515.44 461.87 547.13 471.98 561.29 484.12 566.35 516.15 567.36 570.09 560.61 616.62 550.5 644.94 541.06 655.05 534.32 667.86 504.31 671.57 461.49 674.94 420.7 675.28 395.75 660.45 382.26"/><polygon class="cls-5" points="230.62 374.82 156.78 374.82 193.7 553.09 264.57 565.93 230.62 374.82"/><polygon class="cls-6" points="293.12 375.69 241.37 376.16 272.05 564.04 318.9 565.93 293.12 375.69"/><path class="cls-3" d="M678,369.79c-6.46-3-53.89-6.57-60.35-6.74s-6.74,1.68-6.74,1.68c-45.53-9.71-155-12.27-200.62-12.93v-.22s-3.74,0-10.28.09-10.28-.09-10.28-.09v.22c-45.65.66-155.09,3.22-200.62,12.93,0,0-.27-1.86-6.74-1.68s-53.89,3.78-60.35,6.74c0,0-4.65,25.75-2.36,29.33s20.64,3,27,2c1.56-1.37,13.83-12.47,13.83-12.47s169.8-13.81,186.44-11.8c6.49.06,8.43,7.46,14.5,7.42,4.36,0,26.5-.37,38.6-.56,12.1.19,34.24.53,38.6.56,6.07,0,8-7.36,14.5-7.42,16.64-2,186.44,11.8,186.44,11.8s12.27,11.1,13.83,12.47c6.33.95,24.68,1.56,27-2S678,369.79,678,369.79Z"/><path class="cls-7" d="M678,369.79c-6.46-3-53.89-6.57-60.35-6.74s-6.74,1.68-6.74,1.68c-45.53-9.71-155-12.27-200.62-12.93v-.22s-3.74,0-10.28.09-10.28-.09-10.28-.09v.22c-45.65.66-155.09,3.22-200.62,12.93,0,0-.27-1.86-6.74-1.68s-53.89,3.78-60.35,6.74c0,0-4.65,25.75-2.36,29.33a4.13,4.13,0,0,0,2.17,1.4c-.78-7.06,2.89-27.36,2.89-27.36,6.46-3,53.88-6.57,60.35-6.74s6.74,1.68,6.74,1.68c45.53-9.71,155-12.27,200.62-12.93l0-.22s3.75,0,10.29.09S413,355,413,355l0,.22c45.66.66,155.09,3.22,200.62,12.93,0,0,.28-1.86,6.75-1.68,5.95.16,46.69,3.24,58.11,6C678.16,370.8,678,369.79,678,369.79Z"/><path class="cls-8" d="M337.12,535s25.53-66.57,40.12-78.22C377.24,456.77,356.39,466.51,337.12,535ZM195.46,375.25c15.54-2.59,150.19-13.74,172.68-14.56C368.14,360.69,255.83,362.65,195.46,375.25ZM385,451.38a48.44,48.44,0,0,1,26.63,0C401.43,442.43,385,451.38,385,451.38ZM195.46,375.25a8.52,8.52,0,0,0-1.29.27Zm413.46,0,1.29.27A8.52,8.52,0,0,0,608.92,375.25Zm0,0c-60.37-12.6-172.68-14.56-172.68-14.56C458.73,361.51,593.39,372.66,608.92,375.25Zm-187.85,82.2c15.76,17,38.1,72.48,38.1,72.48C437.52,465.8,421.07,457.45,421.07,457.45Z"/><path class="cls-9" d="M677.3,397.43h-5.39c3.72,17.64-4.18,90-11.8,119.35s-42.78,32.3-69.79,38.44c-26.31,6-93.81,12.71-114.29,5.39-14.3-5.1-34-85.06-47.2-99.79-9.72-10.82-33.5-23.5-58.33,0-14.37,13.6-32.91,94.69-47.2,99.79-20.48,7.32-88,.59-114.29-5.39-27-6.14-62.17-9.12-69.79-38.44s-15.52-101.71-11.8-119.35H122s-2.9,108,21.24,139.58C154.7,552,290.74,580.64,321.61,567.36s32.75-91.66,60.69-107.89c18.61-10.81,29.14-3.39,34.73,0,27.63,16.75,29.81,94.6,60.68,107.89S644.63,552,656.06,537C680.21,505.47,677.3,397.43,677.3,397.43Z"/></svg>