<svg xmlns="http://www.w3.org/2000/svg" id="Assets" viewBox="0 0 800 800"><defs><style>.cls-4{opacity:.68}.cls-5{fill:#0d0434}.cls-6{opacity:.59}.cls-7{fill:#c49bf0}.cls-8{opacity:.84}.cls-9{fill:#e0c5fc}.cls-10{opacity:.66}.cls-11{fill:#170b17}</style></defs><path id="Forma_5332_copia_2" d="M621 386c-36-33-78-17-86-13s-11 4-18 2-23-12-45-6c-43 12-53 55-53 55-5-2-14-4-19-4-6 0-14 2-19 4 0 0-10-43-53-55-22-6-39 3-45 6s-10 2-18-2-50-20-86 13-32 98 11 137 62 47 74 47 45-6 91-65c15-19 19-50 29-52 16-3 18-3 32 0 10 2 14 33 29 52 46 59 78 65 90 65s31-9 74-47 48-103 12-137Zm-261 54c-4 76-77 108-77 108s-16 13-37-1c-54-36-80-102-54-139s65-18 69-15 9 10 21 2 24-10 37-8c23 4 42 25 41 53Zm194 107c-21 14-37 1-37 1s-73-32-77-108c-1-28 18-49 41-53 13-2 25 1 37 8s17 0 21-2 43-21 69 15 0 103-54 139Z" data-name="Forma 5332 copia 2" style="fill:#ff2437"/><path id="Forma_5332_copia_5" d="M381 424c-2-10-10-28-25-40 17 16 23 42 23 42l2-2ZM226 532c-40-38-56-92-34-124 26-36 65-18 69-15s9 10 21 2 24-10 37-8a48 48 0 0 1 23 11 48 48 0 0 0-27-14c-13-2-25 1-36 8s-17 0-21-2-43-21-69 15c-23 33-5 89 37 127Zm214-92c-1-28 18-49 41-53 13-2 25 1 37 8s16 0 21-2c3-2 33-17 58 4-25-25-58-10-62-7-4 2-9 10-20 2a51 51 0 0 0-37-8c-24 4-43 25-41 53 2 40 23 68 43 85-19-17-38-44-40-82Zm-26 9c-14-3-17-2-33 1-10 2-14 33-29 52-47 59-78 65-91 65s-30-9-73-46l2 2c44 38 62 47 74 47s45-6 91-65c15-19 19-50 29-52 16-3 18-3 32 0a32 32 0 0 1 3 1 9 9 0 0 0-5-5Zm207-62-2-3c35 34 30 98-13 136s-61 47-74 47c-9 0-29-3-56-28 29 28 50 31 60 31 12 0 30-9 74-47s47-103 11-137Z" data-name="Forma 5332 copia 5" style="fill:#720111"/><path id="Forma_5335" d="M316 529s47-22 49-93c0 0-2 56-49 93Zm-157-86s8-53 54-71c0 0-51 13-54 71Zm267-20s14-38 52-52c0 0-45 9-52 52Zm-47 5v9s1-7 6-9 17-3 22-3c0 0-9-4-28 3Zm243 0s13 46-32 93c0 0 55-41 32-93Z" data-name="Forma 5335" style="fill:#ff98ac"/><g id="Forma_5332_copia" class="cls-4" data-name="Forma 5332 copia"><path d="M319 387c-13-2-25 1-37 8s-16 0-21-2-43-21-69 15 0 103 54 139c21 14 37 1 37 1s73-32 77-108c1-28-18-49-41-53Z" class="cls-5"/></g><g id="Forma_5336" class="cls-6" data-name="Forma 5336"><path d="M292 390c-8 31-26 101-25 130 0 0-10-53 8-122-7 1-10-4-13-5-3-2-18-9-36-7-8 16-27 59-28 110a153 153 0 0 0 25 33c3-20 7-56 14-74 0 0 0 56 4 89l5 3c21 14 37 1 37 1l5-2c2-32 10-105 34-158l-3-1a51 51 0 0 0-27 3Zm49 7c-6 18-16 60-15 107 0 0 12-60 26-95a48 48 0 0 0-11-12Z" class="cls-7"/></g><g id="Elipse_5336" class="cls-8" data-name="Elipse 5336"><path d="M226 394a19 19 0 0 0-12 6 14 14 0 0 0-4 10c-1 5 6 10 14 9 7 0 14-7 16-13 1-6-5-13-14-12Z" class="cls-9"/></g><g id="Forma_5332_copia_3" class="cls-10" data-name="Forma 5332 copia 3"><path d="M263 394a14 14 0 0 0-2-1c-4-3-43-21-69 15s0 103 54 139a44 44 0 0 0 4 3v-1c-54-36-80-102-54-139 23-33 58-21 67-16Zm56-7c-13-2-25 1-37 8-6 4-10 4-13 3 4 2 9 5 17-1 11-7 23-9 36-7a49 49 0 0 1 16 5 48 48 0 0 0-19-8Z" class="cls-11"/></g><g id="Forma_5332_copia-2" class="cls-4" data-name="Forma 5332 copia"><path d="M608 408c-26-36-65-18-69-15s-9 10-21 2-24-10-37-8c-23 4-42 25-41 53 4 76 77 108 77 108s16 13 37-1c54-36 80-102 54-139Z" class="cls-5"/></g><g id="Forma_5336-2" class="cls-6" data-name="Forma 5336"><path d="M545 390c-9 35-25 100-24 129 0 0-11-52 6-121-2 0-5 0-9-3-12-7-24-10-37-8a48 48 0 0 0-9 3c-8 19-20 51-23 89a126 126 0 0 0 27 40c3-21 7-52 13-69 0 0 0 49 3 83a136 136 0 0 0 25 15 29 29 0 0 0 10 5 30 30 0 0 0 10-5l5-2c3-33 11-104 33-159-12-3-23 0-30 3Zm51 6c-6 22-15 61-14 106 0 0 12-57 26-94a58 58 0 0 0-12-12Z" class="cls-7"/></g><g id="Elipse_5336-2" class="cls-8" data-name="Elipse 5336"><path d="M479 394a19 19 0 0 0-12 6 14 14 0 0 0-4 10c0 5 6 10 14 9 8 0 15-7 16-13s-4-13-14-12Z" class="cls-9"/></g><g id="Forma_5332_copia_3-2" class="cls-10" data-name="Forma 5332 copia 3"><path d="M518 395c-12-7-24-10-37-8a48 48 0 0 0-19 8 49 49 0 0 1 16-5c13-2 25 0 36 7 8 6 13 3 17 1-3 1-7 1-13-3Zm90 13c-26-36-65-18-69-15a14 14 0 0 0-2 1c9-5 44-17 67 16 26 37 0 103-54 139v1a44 44 0 0 0 4-3c54-36 80-102 54-139Z" class="cls-11"/></g></svg>