<svg xmlns="http://www.w3.org/2000/svg" id="Assets" viewBox="0 0 800 800"><defs><style>.cls-3{fill:#fff}</style></defs><path id="Forma_561" d="M652 385c-60-16-139-11-164-6-24 4-85 7-88 7s-64-3-88-7c-25-5-104-10-164 6 0 0-8 12-1 28 0 0 10 0 11 23s9 75 37 95 81 31 131 8 49-90 49-101c0 0 12-6 25-6s25 6 25 6c0 11-1 78 49 101s103 13 131-8 36-72 37-95 11-23 11-23c7-16-1-28-1-28Zm-296 50c-1 61-26 80-26 80s-20 22-80 19c-71-4-81-96-70-118s50-23 92-21 85 5 84 40Zm194 99c-60 3-80-19-80-19s-25-19-26-80c-1-35 43-39 84-40s81 0 92 21 1 114-70 118Z" data-name="Forma 561" style="fill:#494949"/><path id="Forma_561_copia_4" d="M653 388a18 18 0 0 0-1-3c-60-16-139-11-164-6-24 4-85 7-88 7s-64-3-88-7c-25-5-104-10-164 6 0 0-8 12-1 28 0 0 10 0 11 23s9 75 37 95a86 86 0 0 0 10 7l-3-2c-28-21-36-72-37-96s-11-22-11-22c-6-17 2-28 2-28 59-17 138-11 163-7s85 7 88 7 64-3 88-7c25-4 100-9 158 5Zm-309 22c7 5 12 14 12 25-1 61-26 80-26 80s-20 22-80 19a70 70 0 0 1-29-8c10 7 22 11 36 12 61 3 81-18 81-18s24-20 25-80c0-15-7-25-19-30Zm88 32a67 67 0 0 0-7-2c0 14 1 75 46 98-39-27-38-85-39-96Zm180-35a27 27 0 0 1 8 9c11 22 1 114-70 118-36 2-58-5-69-11 8 6 30 18 76 15 71-4 81-96 70-117-3-6-8-11-15-14Z" data-name="Forma 561 copia 4" style="fill:#9d9b9b"/><path id="Forma_563" d="M210 412c-13-2-17 6-22 19-5 12 1 23 11 21 11-1 21-21 21-21s7-17-10-19Z" class="cls-3" data-name="Forma 563"/><g style="opacity:.79"><path id="Forma_561_copia" d="M272 395c-42-2-81 0-92 21s-1 114 70 118c60 3 80-19 80-19s25-19 26-80c1-35-43-39-84-40Zm348 21c-11-21-50-23-92-21s-85 5-84 40c2 61 26 80 26 80s20 22 80 19c71-4 81-96 70-118Z" data-name="Forma 561 copia" style="fill:#c4c4c4"/></g><path id="Forma_562" d="M189 446c7 60 30 74 52 79 0 0-23-56 4-86s47-33 47-33-111-19-103 40Zm269 0c7 60 30 74 52 79 0 0-23-56 4-86s47-33 47-33-111-19-103 40Z" class="cls-3" data-name="Forma 562" style="opacity:.52"/><path id="Forma_563-2" d="M482 412c-14-2-18 6-23 19-4 12 2 23 12 21 11-1 21-21 21-21s7-17-10-19Z" class="cls-3" data-name="Forma 563"/><path id="Forma_2127" d="M536 595s-10 12-35-5c-38-25-63-19-63-19l-41 18-40-18s-25-6-63 19c-25 17-35 5-35 5s6 20 24 19c0 0-1 6-5 7 0 0 15 12 37 10a41 41 0 0 0 30 0c23-8 45 0 52-18 8 18 30 10 52 18a41 41 0 0 0 31 0c22 2 36-10 36-10-3-1-4-7-4-7 18 1 24-19 24-19Zm-139 8v-1 1Z" data-name="Forma 2127" style="fill:#262626"/><path id="Forma_2129" d="M394 586s-31-25-57-11c0 0-14 3-33 14-19 10-28 15-36 13 0 0 13 10 35-3l-15 17s17-9 33-12h11c-7 5-11 7-15 7 0 0 9 5 22-5l-5 7c-8 4-16 7-23 6 0 0 23 4 45-8a125 125 0 0 1 14-6c-6 5-16 13-24 13a53 53 0 0 0 28-9c14-10 18-6 22-20l-3-2 1-1Zm133 16c-9 2-18-3-36-13-20-11-33-14-33-14-26-14-57 11-57 11l1 1a42 42 0 0 0-4 2c1 5 3 8 5 10 4 8 9 7 23 16 15 11 32 11 32 11-5-1-12-4-18-9a45 45 0 0 0 8 1 39 39 0 0 1-21-11c2 2 7 3 12 4a77 77 0 0 0 27 8 101 101 0 0 1 10 6l-4-5a68 68 0 0 0 12-1 34 34 0 0 1-13-2l-4-5h1c14 11 24 5 24 5-6 0-12-4-24-13h6c16 3 33 12 33 12l-15-17c21 13 35 3 35 3Zm-100 5Z" data-name="Forma 2129" style="fill:#3b3b3b"/><path id="Forma_2130_copia_3" d="m368 581-28 12c-9 4-15 4-18 4a60 60 0 0 0 32-3 154 154 0 0 1-23 15s14-3 25-11a161 161 0 0 1 25-14h-4Zm-51 16s11-10 23-17a40 40 0 0 0 9-6c5-5 6-9 9-15a167 167 0 0 1-18 15c-6 0-12 1-21 7-14 9-30 16-30 16s16-1 30-9c3-3 7-5 11-6a67 67 0 0 0-13 15Zm5 0-3-1a9 9 0 0 0 3 1Zm139-15 11 6c13 8 29 9 29 9s-16-7-29-16c-10-6-16-7-22-7a167 167 0 0 1-18-15l9 15h1a40 40 0 0 0 8 6c12 7 24 17 24 17a67 67 0 0 0-13-15Zm11 14-3 1a9 9 0 0 0 3-1Zm-21-3c-16-8-28-12-28-12l-10 3h-4a161 161 0 0 1 26 14c10 8 24 11 24 11a154 154 0 0 1-23-15l6 2c10 3 22 2 27 1-3 0-9 0-18-4Z" data-name="Forma 2130 copia 3" style="fill:#545454"/><path id="Elipse_1572_copia_2" d="M458 528a34 34 0 0 0-12-12 82 82 0 0 0-9-31c-11-20-27-27-39-27s-27 7-38 27a82 82 0 0 0-9 31 34 34 0 0 0-12 13c-14 23-3 57 21 57a26 26 0 0 0 14-4 38 38 0 0 0 49 0 26 26 0 0 0 14 4c24 0 35-34 21-58Z" data-name="Elipse 1572 copia 2" style="fill:#dfa24a"/><path id="Elipse_1574" d="M363 528c-3 11-1 27 6 28 7 2 7-8 10-19 2-11 2-22-1-26-5-4-14 7-15 17Zm-6-11s-17 11-18 31c1-3 15-23 23-23 5-13 6-40 27-58 0 0-25 10-32 50Z" data-name="Elipse 1574" style="fill:#edc578"/><path id="Elipse_2127" d="M377 536c-4-1-8 4-9 10s1 12 5 13 9-4 10-10-1-12-6-13Z" data-name="Elipse 2127" style="fill:#f9d99c"/><path id="Forma_1574" d="M421 571h1c-18 20-43 5-47 3s-17-16-28-4c0 0 17-4 25 8a27 27 0 0 0 4 7 43 43 0 0 0 47 0 10 10 0 0 0 3-5c2-5 10-16 28-8 0 0-10-18-33-1Z" data-name="Forma 1574" style="fill:#a68030"/><path id="Forma_2123_copia" d="M358 572c-13-2-13 6-6 9s16 3 20 1l3 2a23 23 0 0 0-17-12Zm83 0a23 23 0 0 0-18 12l4-2c4 2 12 3 20-1s7-11-6-9Z" data-name="Forma 2123 copia" style="fill:#725006"/><path id="Elipse_2124_copia" d="M361 572c-5-1-9 0-10 2s3 5 8 6 9 0 10-2-3-5-8-6Zm87 2c-1-2-5-3-10-2s-8 4-8 6 5 3 10 2 8-4 8-6Z" data-name="Elipse 2124 copia" style="fill:#352200"/></svg>