<svg xmlns="http://www.w3.org/2000/svg" id="Assets" viewBox="0 0 800 800"><defs><style>.cls-1{fill:#20122d}.cls-2{fill:#594564}</style></defs><path id="Forma_1937" d="M154 285s-36 40-44 171c1 22-20 39-29 51-8 12-19 23-1 34 0 0-34 41-4 67s97 9 107-53c15-86-23-188 24-273s-43-21-53 3Z" class="cls-1" data-name="Forma 1937"/><path id="Forma_1937_copia_2" d="M154 286s-36 40-44 171c1 22-20 39-29 51-8 12-19 23-1 34 0 0-34 41-4 67 10 8 20 12 30 11-7-1-13-5-20-11-30-25 4-66 4-66-18-11-7-22 1-35 9-11 30-28 29-50 8-131 44-171 44-171 5-13 29-37 43-44-4-13-46 25-53 43Z" class="cls-2" data-name="Forma 1937 copia 2"/><path id="Forma_1940" d="M771 519s16-22-17-35-38-26-43-53-6-102-40-176a47 47 0 0 0-17-19c4-9 22-43-52-67s-168-17-194-39c0 0 2-129-165-104 0 0 20-12 33-15s-37-26-142 5S17 133 28 195c14 75 139 126 235 108s159-54 197-63 113 23 113 23-7 23 14 44 54 41 63 83 15 143 11 185 37 47 55 46 33-19 23-41c0 0 7 7 18-4 8-8-4-20-4-20s34-9 18-37Z" data-name="Forma 1940" style="fill:#402b4c"/><path id="Forma_1942" d="M320 229c65-17 88-62 89-99h-1s1-81-81-102c28 20 53 69 49 94-7 44-33 66-76 81-23 8-141 25-170-65 0 0 8 136 190 91Zm451 290c-6-4-13-8-23-11-21-6-25-32-25-32 2 4 4 12 19 20 11 6 22 6 33 13 0-8-3-18-21-25-33-13-38-26-43-53s-6-102-40-176a48 48 0 0 0-16-19h-1c2-5 10-20-1-36-4 18-11 34-14 17-3-25-16-25-16-25 12 23-12 46-12 46 2-59-64-70-35-47s17 50 17 50-83-55-206-7-236 44-302-24 50-172 5-153c-31 12-51 46-62 67-5 24-4 49 0 71 14 75 139 126 235 108s159-54 197-63c36-8 105 19 112 22a135 135 0 0 1 24-4l9 24c9 28 11-11 7-25a59 59 0 0 0 11-3c3 5 8 15 10 30 4 23 11-14 1-35l2-1 4-2c3 8 21 30 30 57 13 43 28 115 23 167-5 49-12 81-6 108 9 42 30 31 39 30s13-16-1-34-10-31-10-31 16 13 25 18 12 8 14 11c0 0 5-6-8-22-9-12-11-20-14-29a167 167 0 0 0 22 3c12 1 15 10 15 14a26 26 0 0 0 3 6c4-6 5-14-1-25Z" class="cls-1" data-name="Forma 1942"/><path id="Forma_1942-2" d="M146 62c32-23 13-23 13-23s-70 32-60 89 15 42 13 19 1-62 34-85Zm180 111s-114 37-103-59c0 0-18 20-11 43 4 13 12 29 33 34-22-3-67-14-73-50-7-47 55-50 55-50s-24-2-46 3c7-9 18-17 35-23 80-30 99 55 99 55 12-33-16-96-97-79s-78 79-78 79c4 21 12 33 21 39 30 27 85 28 95 28 16 0 39-5 70-20ZM130 39c45-36-10-3-10-3S7 105 79 196c0 0 18 19 11-4s-45-86 40-153Zm529 299c-39-39-63-49-68-55 5 7 30 41 61 67 34 29 26 79 28 95 1-8 20-65-21-107Zm-68-55v-1a4 4 0 0 0 0 1Zm-218-64c-84 34-126 26-126 26s4 21 121-14c92-27 63-30 132-39 0 0-43-8-127 27Zm123-51c13 5 52 14 92 47 0 0-23-46-92-47Z" class="cls-2" data-name="Forma 1942"/><path id="Forma_1943" d="M93 85c30-48 72-67 72-67S96 33 77 86s1 107 30 131c0 0-44-84-14-132Zm88-52s-97 27-67 139c0 0-11-84 67-139Zm-75 154c-1-8-17-45-2-101 0 0-27 37 2 101Zm32-42c0-3-6-44 51-100 0 0-75 40-51 100Zm122-54s-18-4-31 11-16 40 7 63c0 0-25-45 24-74ZM116 438c0-2 14-91 35-134l-5-1s-28 58-30 135Z" data-name="Forma 1943" style="fill:#9a89a2"/></svg>