<svg xmlns="http://www.w3.org/2000/svg" id="Assets" viewBox="0 0 800 800"><defs><style>.cls-1{fill:#ad9dba}.cls-2{fill:#ebe7fa}.cls-3{fill:#cabcd5}</style></defs><path id="Forma_2430" d="M766 430c24 17 28 39 28 39-7-52-55-86-57-89 32 28 50 19 50 19s-9 2-29-11-22-38-22-38a180 180 0 0 0-27-43c5 7 20 24 38 36 22 15 25 27 25 27 0-13-1-34-23-48s-33-36-37-40c16 4 43 29 43 29-7-18-26-36-43-48a381 381 0 0 1-34-27c6 5 31 3 31 3-14-5-37-12-47-39s-50-48-50-48c8 1 20 7 20 7-15-38-46-38-59-40 17-5 40-5 40-5-47-27-84 9-84 9 6-22 34-38 34-38-42-5-67 33-67 33-6-20-4-31-4-31-21 17-25 39-25 39-1-12-8-17-10-27s6-23 6-23c-20 14-24 36-24 36-9-17 1-40 1-40-28 11-40 43-40 43-3-16 6-37 7-41-21 16-22 36-22 36 1-25-16-31-16-31 6 6 1 33 1 33-10-40-44-35-44-35 14 5 24 20 24 20-31-34-106-9-106-9 12-2 26 8 26 8-59-22-97 40-97 40 14-6 34 12 34 12-26-10-46 4-46 4 13-5 37 7 37 7-21-2-36 13-50 24s-34 9-34 9c9 6 42 3 42 3-10 5-37 13-53 14s-32 19-32 19c19-12 53-5 53-5-38 5-58 23-58 23 13-6 57-1 57-1-59 10-78 36-78 36 15-7 30 2 30 2-62 14-69 74-70 76 19-32 58-30 58-30-45 22-60 66-60 66 4-7 17-9 17-9-24 32-12 73-12 73-2-23 15-50 17-55a3 3 0 0 1 1 0h-1c-1 2-4 10-8 36-5 32 10 60 10 60-5-14-3-31-3-31s7 28 12 38 13 9 15 33c4 34 17 44 17 44-7-9-9-33-9-36 0 0 7 37 25 41s26 11 26 11c-3-7-15-16-15-16s22 1 24 22 16 27 16 27c-3-5-5-9 0-25s5-24 5-50-2-29-3-32c0-21 3-26 9-36 11-18 15-21 15-21l-16-7a23 23 0 0 1-5-2l5 2c13 4 28-3 28-3 9-5 10-13 10-13-5 4-22 8-22 8 15-6 22-21 22-21l-8 3c7-9 12-25 12-25l-17 12 17-29-17 11 16-28-16 9a180 180 0 0 1 14-25l-14 10 15-27-15 5c4-6 21-20 21-20l-19 7c12-13 28-25 28-25l-23 7s6-8 15-11l15-6c-3 0-17-10-17-10 17 4 36-1 36-1-5-1-12-12-12-12 11 4 33 2 33 2-4-3-7-19-7-19 13 18 41 20 41 20l-16-16a31 31 0 0 1-3-3l3 3c12 13 35 16 35 16-5-5-9-18-9-19 10 16 31 17 31 17-7-5-7-21-7-21 9 10 25 21 25 21-4-4-4-18-4-18 8 16 28 21 28 21-5-5-10-20-10-20 8 16 27 25 27 25-4-5-9-20-9-21 14 24 29 26 29 26-6-4-12-23-12-23 12 16 26 21 26 21-3-3-7-19-7-19 10 18 20 19 20 19-6-7-5-20-5-20 9 18 20 23 20 23-4-6-4-23-4-23 2 17 15 26 15 26 0-12 11-26 11-26v19c4-7 18-15 18-15-9 8-8 15-8 15s5-7 11-7c13-1 21-7 21-7-8 8-10 13-10 13 16-12 36-15 36-15-21 5-30 19-30 19 4-4 21-7 31-9s20-9 20-9a129 129 0 0 1-11 14l30-11c-7 3-17 13-18 13l43-2-26 6c11 0 32 8 32 8-5-1-16 1-16 1 12 6 27 22 27 22-3-3-12-7-12-7l15 20c-4-3-6-2-6-2 4 4 7 13 7 13-5-5-8-4-8-4 5 7 9 21 9 21-5-2-11-9-11-9l8 24a24 24 0 0 1-8-11l7 24-7-8c0 10 6 23 6 24l-6-6c1 7 2 17 4 21l-6-6c0 11 5 23 5 23l-5-4s-5 16 10 29 36 9 36 9c-1 3 2 47 17 84s9 50 9 50c9-16 9-35 9-35 8 18 1 49 1 49 4-6 10-10 17-34s28-22 28-22c-8 10-18 26-27 41 7-9 27-19 46-43 27-32 25-91 25-91 17 26 15 63 15 63 18-48-27-108-27-108Z" class="cls-1" data-name="Forma 2430"/><path id="Forma_2433" d="m71 559 1 1Zm668-128c25 24 33 68 33 68 7-58-29-84-29-84-25-24-46-79-46-79 19 26 34 37 34 37a91 91 0 0 1-15-24c-14-28-60-69-60-69 18 15 44 15 44 15-14-4-47-32-47-32 26 16 35 1 35 1s-28 1-38-29a97 97 0 0 0-25-41 34 34 0 0 1 5 4 170 170 0 0 0 42 27c-5-2-11-13-28-32-24-30-55-24-58-23 1-17 5-21 5-21-30-4-49 35-51 37-4-35 24-70 24-70s-12 0-31 28c-17 25-13 74-12 86l1 2-1-2c-1-8-5-35-16-56-13-25-20-68-20-68-7 18-5 39-1 72s-4 53-4 53c0-14-8-39-18-64s-12-60-12-60c-7 13-5 55-4 85s-9 48-9 48c0-10-2-13-14-60s-4-76-4-76c-23 23-25 73-25 73-10-60-40-82-40-82 10 15 19 63 19 63-19-67-86-60-86-60 70 39 61 120 61 120-27-103-112-105-112-105 20 3 53 43 53 43-33-31-80-17-80-17 23 5 62 51 62 51a72 72 0 0 0-61-13l-47 14c39 0 72 27 72 27-29-14-79-11-83-10 20-1 58 13 75 20a63 63 0 0 1 9 4l-9-4c-31-11-90-10-90-10 29 1 71 30 71 30-29-12-88-8-88-8 17 0 88 22 74 19s-35 6-55 1-44 5-44 5c15-3 48 13 48 13-27-10-74-4-74-4 10-1 43 15 43 15-33-1-55 21-55 21 33-13 74-2 74-2-44-7-81 14-81 14 24-12 88 1 88 1-34 2-88 29-91 34a34 34 0 0 1 26-5c-52 27-43 81-43 85 2-43 36-58 36-58-28 21-24 51-32 79s14 50 14 50c-4-19 24-37 24-37-9 12-18 23-15 45 3 19 12 39 14 43-1-3-5-13-5-34-1-25 21-32 21-32-10 12-6 54-6 54 1 21 32 31 32 31-7-8-14-25-14-25-8-20 4-26 4-26 0 10 5 15 15 32a147 147 0 0 1 13 33c3-16-4-47-7-69v-16c-6-7-12-24 4-23 19 2 33-15 33-15l-16-7a23 23 0 0 1-5-2l5 2c13 4 28-3 28-3 9-5 10-13 10-13-5 4-22 8-22 8 15-6 22-21 22-21l-8 3c7-9 12-25 12-25l-17 12 17-29-17 11 16-28-16 9a180 180 0 0 1 14-25l-14 10 15-27-15 5c4-6 21-20 21-20l-19 7c12-13 28-25 28-25l-23 7s6-8 15-11l15-6c-3 0-17-10-17-10 17 4 36-1 36-1-5-1-12-12-12-12 11 4 33 2 33 2-4-3-7-19-7-19 13 18 41 20 41 20l-16-16a32 32 0 0 1-3-3l3 3c12 13 35 16 35 16-5-5-9-18-9-19 10 16 31 17 31 17-7-5-7-21-7-21 9 10 25 21 25 21-4-4-4-18-4-18 8 16 28 21 28 21-5-5-10-20-10-20 8 16 27 25 27 25-4-5-9-20-9-21 14 24 29 26 29 26-6-4-12-23-12-23 12 16 26 21 26 21-3-3-7-19-7-19 10 18 20 19 20 19-6-7-5-20-5-20 9 18 20 23 20 23-4-6-4-23-4-23 2 17 15 26 15 26 0-12 11-26 11-26v19c4-7 18-15 18-15-9 8-8 15-8 15s5-7 11-7c13-1 21-7 21-7-8 8-10 13-10 13 16-12 36-15 36-15-21 5-30 19-30 19 4-4 21-7 31-9s20-9 20-9a129 129 0 0 1-11 14l30-11c-7 3-17 13-18 13l43-2-26 6c11 0 32 8 32 8-5-1-16 1-16 1 12 6 27 22 27 22-3-3-12-7-12-7l15 20c-4-3-6-2-6-2 4 4 7 13 7 13-5-5-8-4-8-4 5 7 9 21 9 21-5-2-11-9-11-9l8 24a24 24 0 0 1-8-11l7 24-7-8c0 10 6 23 6 24l-6-6c1 7 2 17 4 21l-6-6v2c7 10 14 21 22 29 23 23 31 21 31 21-12-13-15-50-15-50 5 18 22 46 44 76s25 74 25 74 21-49-1-81-29-69-29-69c13 24 25 37 25 37 50 67 44 95 44 95 21-62-12-97-12-97-26-29-37-64-37-64 2 5 10 15 35 39Z" class="cls-2" data-name="Forma 2433"/><path id="Forma_2434_copia" d="m183 433-8 3a48 48 0 0 0 5-7c-19 10-43 15-66 26-30 15-20 46-20 46 1-24 24-32 24-32-15 8-9 41 1 66s8 69 8 69 9-12 4-53c-2-16-1-25 1-31l-4-10c-6-3-19-28 0-26s33-15 33-15l-16-7a23 23 0 0 1-5-2l5 2c13 4 28-3 28-3 9-5 10-13 10-13-5 4-22 8-22 8 15-6 22-21 22-21Zm-82 80a50 50 0 0 0 2 38c8 18 15 23 18 30-2-6-4-19-9-29-7-14-11-39-11-39Zm-18 34c-5-18-2-35 0-43 1-2-21 34-2 64a31 31 0 0 1 5 11c-1-13 2-15-3-32Zm38 38a15 15 0 0 0 0-4v4Zm102-317-62-30c-26-14-44-8-57-2 2-1 27-2 43 8s57 24 76 24ZM79 495s-24 22-9 60c0 0-4-46 9-60Zm139-211a225 225 0 0 1-50-14c-46-19-77-8-77-8 12-3 32-3 70 14a199 199 0 0 0 59 16l6-2c-3 0-6-4-8-6Zm-85-4c-27-8-66 18-66 18s48-15 68-7c13 5 40 12 58 15l14-5-13-7c-19-4-45-9-61-14Zm40 65-38 7c-34 7-38 6-53 17 7-3 22-8 42-8 0 0-25 6-51 28s-26 37-26 37 24-39 62-47c0 0-26 11-44 34s-22 39-22 39 38-56 79-66c0 0-13 7-26 24 0 0 16-14 32-19l47-14 9-16-14 10 15-27-15 5a31 31 0 0 1 3-4ZM39 490s12-37 57-57c32-14 63-26 82-42l7-12c-19 10-61 35-89 47-38 17-57 44-57 64Zm138-172 1-1a160 160 0 0 1-37 0c-33-5-69 14-72 14 0 0 45-9 62-8l50 4 14-12-14 2-4 1ZM58 501s25-41 56-53a219 219 0 0 0 67-43l3-6c-14 11-39 25-68 37-50 21-56 56-58 65Zm453-291s25-19 44-39 38-29 38-29c-59 13-82 68-82 68Zm102 166a22 22 0 0 1-4-6l1 5Zm-2-221c-17 1-44 15-43 14 18-2 40-13 43-14Zm24 88-55 29c16 0 52-15 67-24 11-7 27-9 34-8l-2-3c-11-4-25-5-44 6Zm28 102c39 6 73 27 84 34a48 48 0 0 1-4-7c-20-16-56-28-56-28-12-3-24 1-24 1Zm76 111s-4-15-20-38-38-35-38-35c33 8 54 48 54 48s0-16-23-38-44-28-44-28c17 0 30 5 36 8-13-11-16-10-47-17a1107 1107 0 0 1-38-7 28 28 0 0 0-2-2l-6-1c5 7 9 20 9 20-5-2-11-9-11-9l7 21c18 9 37 14 48 18 14 5 28 18 28 18a96 96 0 0 0-23-24c36 10 70 66 70 66ZM236 165c1 0-29-13-48-15 3 2 28 13 48 15ZM102 340s-57 16-72 37c2-1 46-29 99-37 0 0-13-3-27 0Zm134-235s22 5 81 59c0 0-32-56-81-59Zm64 100s-25-54-93-67a131 131 0 0 1 44 29c21 20 49 38 49 38Zm53-27s-18-57-63-78l-25-10s65 38 87 88Zm144-10c51-54 71-59 71-59-44 3-72 59-72 59Zm46-74-23 10c-40 21-55 78-55 78 20-49 78-88 78-88Zm135 462a99 99 0 0 0-5 15l2 5a141 141 0 0 0 11-21 56 56 0 0 0 1-38s-3 25-9 39Zm19-290s-28-11-69 8a181 181 0 0 1-50 15l20-1-26 6a54 54 0 0 1 12 2 160 160 0 0 0 51-16c33-17 51-17 62-14Zm-36 61c15-1 55 9 55 9-2-1-34-20-64-15-16 2-31 1-42-1l5 5a61 61 0 0 0-9-6h-2l9 12c17 0 38-3 48-4Zm57-25s-35-26-59-18c-16 6-44 12-60 16l5 2c-5-1-16 1-16 1a60 60 0 0 1 12 9c15-2 44-11 58-17 17-8 60 7 60 7Zm-163-12h2-2Zm70-71c-2 1-59 8-76 30a260 260 0 0 1-23 25l7-1a56 56 0 0 0-7 2l-14 13 13-4a161 161 0 0 0 29-26c16-18 53-36 71-39Zm-76 21c12-16 61-37 61-37-39 2-61 37-61 37Zm126-19-2-3-38 2c-35 6-84 58-84 58s36-20 64-40c19-14 47-17 60-17Zm18 210c-26-13-65-38-81-49l3 9c17 18 46 31 77 47 40 20 50 56 50 56 1-20-16-47-49-63Zm-18 9c-28-12-51-27-63-38l1 3a194 194 0 0 0 63 47c28 12 50 53 50 53-2-9-7-44-51-65Zm1 19c-24-14-51-17-68-34a83 83 0 0 0 4 17l-5-4s-5 16 10 29 36 9 36 9a236 236 0 0 0 14 79 102 102 0 0 1 4-15c9-26 15-59 2-67 0 0 20 8 20 32 0 0 10-30-17-46Zm39 100c14-38-8-60-8-60 11 14 8 60 8 60Zm-12-51c3 8 5 25 1 43s-2 19-3 32a33 33 0 0 1 4-10c17-30-2-67-2-65ZM160 216c-42-6-53 0-53 0s47-1 76 18c20 13 44 26 59 33l-2-6c-19-15-53-41-80-45Zm173 58-22-34c-11-20-38-57-67-66 0 0 35 24 43 45 5 13 11 32 21 49a309 309 0 0 1-36-45c-23-37-73-36-73-36s47 8 68 43c10 16 17 26 24 34a19 19 0 0 1 0-2c10 16 31 17 31 17-6-5-7-21-7-21 5 6 12 12 18 16Zm7 5Zm-82-43s-25-36-69-37c0 0 55 20 69 37Zm-6 35-11-9a40 40 0 0 0 11 9Zm-53-147c4 0 85 1 109 70 13 37 16 59 31 83-3-5-3-16-3-16 6 11 16 17 22 19-9-15-27-50-38-85-14-46-71-81-121-71Zm58 121c-19-22-84-30-85-30 20 3 62 21 80 39a184 184 0 0 0 17 15l-4-4a32 32 0 0 1-3-3l3 3c8 9 22 13 30 15-11-9-27-22-38-35Zm247-47c21-69 93-69 97-70-45-10-95 25-108 72-7 29-20 57-29 75a100 100 0 0 0 1 14c2-5 10-10 15-13 10-23 13-44 24-78Zm-6 87c17-8 25-20 42-51 20-35 61-42 61-42s-45-2-65 35a307 307 0 0 1-32 46c9-17 15-37 19-49 7-22 38-46 38-46-26 9-50 47-60 66l-24 43c2-2 5-5 9-5 13-2 21-7 21-7a49 49 0 0 0-9 10Zm28-163c-32 15-55 53-63 102-5 26-13 46-21 58a42 42 0 0 0 6 9c20-28 24-65 30-99 7-36 48-70 48-70Zm-87 148a36 36 0 0 0 0 4c5-17 8-38 9-63 2-49 32-83 32-83-27 20-41 70-45 107a161 161 0 0 1-3 19c2-26 0-53 0-76 0-41 8-70 8-70a40 40 0 0 0-1 4l-1-1c-3 7-9 25-12 67-1 26-7 53-13 75-8-23-15-52-17-79-4-58-16-71-16-71s9 30 9 71c1 22-1 50 1 75a146 146 0 0 1-4-18c-5-38-20-87-50-107 0 0 33 34 35 82 1 34 7 59 15 77 8 8 15 9 15 9-6-4-12-23-12-23 12 16 26 21 26 21-3-3-7-19-7-19 10 18 20 19 20 19-6-7-5-20-5-20a64 64 0 0 0 12 17l4-11v-6Zm-84-50c-9-49-36-87-71-103 0 0 45 34 53 71 6 28 10 58 24 83a74 74 0 0 0 20 16l-7-15a158 158 0 0 1-19-52Zm83 69a27 27 0 0 0 5 4 23 23 0 0 1-3-8l-2 4Z" class="cls-3" data-name="Forma 2434 copia"/><path id="Elipse_2874_copia_2" d="M531 641s2-23-27-43c0 0 19 7 26 22 0-1 2-16-36-30-8-3-18-6-28-7-13 8-35 14-60 14-34 0-62-10-69-24a86 86 0 0 0-48 20c-24 21-26 27-35 34 0 0 15-3 23-12-1 7-4 15 2 39a47 47 0 0 1 7-11c4 12 4 23 17 36 0-10-5-25-1-34 0 0 3 27 18 37 0-6-2-19 0-28a44 44 0 0 0 20 30c0-5-3-9 0-17 0 0 3 9 19 17-1-4-6-14-4-22 2 3 5 14 17 25v-17a77 77 0 0 0 13 20 103 103 0 0 1 1-12 97 97 0 0 0 10 15s1-10 4-16c0 0 5 9 2 18 4-5 9-10 7-22 0 0 2 16 0 22 1-2 8-6 7-17a122 122 0 0 0 5 14c0-2-2-15 1-22 2 3 2 11 5 19 0 0 4-6 8-20 0 0 1 15-2 22 1-2 8-6 9-16 1 2 6 6 4 12 0 0 9-14 9-20 0 0 9 11 5 20 0 0 10-9 13-18a32 32 0 0 1-5 17c2-1 18-11 21-22 0 0 0 12-6 19 1-1 20-14 20-29 0 0 0 20-5 26 2-1 15-17 15-34 0 0 1 22-3 28 0 0 14-8 12-29l6 15s-2-6-2-17 0-14-6-21c1 0 10 6 11 19Z" class="cls-1" data-name="Elipse 2874 copia 2"/><path id="Elipse_2874_copia_3" d="m519 654-1 1a8 8 0 0 0 1-1Zm-15-45c-14-12-29-21-38-26-13 8-35 14-60 14-32 0-59-9-68-22-11 4-40 13-52 29 0 0 23-14 35-17 0 0-31 21-35 46 0 0 13-23 27-31 0 0-25 31-16 56 0 0 1-27 17-42-1 2-5 36 0 49 0 0-2-36 15-52 0 10-1 36 5 52 0-3-1-36 11-49-1 13-6 39 3 52 0-7-2-26 5-36 1 4 4 28 12 40 0-5 1-31 8-42 0 14 4 39 10 51 0 0-2-26 3-37-1 2 4 29 8 40l8-32c-1 4 3 15 4 26 2-8 5-18 5-27 0 0 6 13 4 27l6-27s7 6 7 19l5-23s7 9 5 27c0 0 7-25 6-29 0 0 7 18 5 29 0 0 13-25 6-57 0 0 14 45 10 59 0 0 11-22 5-51 0 0 13 37 7 51 0 0 16-21 10-46a8 8 0 0 1-1-2l1 2c2 6 11 29 6 39 2-4 14-21 9-36 0 0 7 21 4 31 0 0 10-20 4-31 0 0 10 11 9 20 1-5 4-27-15-44Z" class="cls-2" data-name="Elipse 2874 copia 3"/><path id="Elipse_2874_copia_5" d="m386 631 7-31c0 11 0 23 2 31l6-34-13-1c-2 10-4 24-2 35Zm-10-1 8-35-7-1c-1 16-6 24-1 36Zm40-33h-11c-2 8-3 20-2 29l2 20 4-38 8 35s3-7 1-19l-1-27Zm-66-12a38 38 0 0 1-10-7l-2 1c-7 1-44 10-54 20 5-3 29-10 44-16-14 7-34 17-39 28 0 0 18-12 36-18-2 2-11 14-10 28 4-9 11-22 22-27a56 56 0 0 0 13-9Zm68 11c3 11 6 22 6 28 1-1 0-16-1-28h-5Zm-60-7-6-3c-9 8-25 23-22 41 1 0 8-25 28-38Zm19 5-6-1c-6 8-14 21-9 35 1-5 6-27 15-34Zm-17-4c-7 7-18 19-16 32 7-10 13-22 21-31l-5-1Zm118 5s15 17 14 26c0-3 8-16-14-26Zm-18-9-2 1c7 9 24 32 22 39 0 0 10-20-20-40Zm6-3h-1c31 10 40 27 40 27 0-18-26-25-39-27Zm-27 57a8 8 0 0 1-2 2s2 0 2-2Zm-7-45-7 1a383 383 0 0 0 14 44c1-4 3-13-3-30a154 154 0 0 1-4-15Zm20-5a102 102 0 0 1-12 3c5 11 10 24 10 30 0 11 2 16 2 16s6-17 1-31c0 0 14 15 13 23 1-4 6-14-4-27a101 101 0 0 1-10-14Zm14 41a5 5 0 0 0 0 1 5 5 0 0 0 0-1Z" class="cls-3" data-name="Elipse 2874 copia 5"/></svg>