<svg id="Assets" xmlns="http://www.w3.org/2000/svg" viewBox="0 0 800 800"><defs><style>.cls-1{fill:#20122d;}.cls-2{fill:#594564;}.cls-3{fill:#402b4c;}.cls-4{fill:#9a89a2;}</style></defs><g id="Forma_1937" data-name="Forma 1937"><path class="cls-1" d="M153.69,284.86s-35.53,40.54-43.23,171.49c.09,21.58-20.93,38.51-29,50.32-8.74,12.7-19.36,23.18-1.06,34.36,0,0-33.95,41.18-4.26,66.62s96.48,9.29,107.11-52.8c14.68-85.72-23.33-187.72,24.13-272.82S164.3,260.55,153.69,284.86Z"/></g><g id="Forma_1937_copia_2" data-name="Forma 1937 copia 2"><path class="cls-2" d="M153.69,285.93s-35.53,40.53-43.23,171.49c.09,21.58-20.93,38.51-29,50.31-8.74,12.7-19.36,23.19-1.06,34.37,0,0-33.95,41.17-4.26,66.61,10,8.59,20.2,12.49,29.53,11.5-6.41-1.55-13-5.17-19.61-10.79-29.69-25.44,4.26-66.61,4.26-66.61-18.3-11.18-7.68-21.67,1.06-34.37,8.12-11.8,29.15-28.74,29.05-50.32,7.7-130.95,43.23-171.49,43.23-171.49,5.64-12.92,29.41-37,43.31-43.85C202.94,229.88,161.39,268.27,153.69,285.93Z"/></g><g id="Forma_1940" data-name="Forma 1940"><path class="cls-3" d="M770.56,519.42S787.1,497.27,753.9,484s-38.26-26.39-43.22-53.15-5.35-101.53-40-175.74A47.19,47.19,0,0,0,654.34,236c3.21-9,22-43.13-52.44-66.61S434,152.28,408.09,129.67c0,0,1.47-128.74-164.76-103.46,0,0,19.36-12.17,32.95-14.88s-37.43-26.5-142.43,4.25S17.05,133.48,28.26,195.22c13.54,74.58,139,125.63,234.56,108.07s159.65-54.69,197.35-63.07,112.68,22.32,112.68,22.32-7.22,23.07,13.81,44.29,54.11,41.13,63.7,83.27S665.28,532.81,661,575.4s36.56,46.19,55,45.71,33.31-18.68,22.68-40.75c0,0,7.78,7.12,18.42-4.25,7.92-8.47-4.25-19.84-4.25-19.84S787.33,546.64,770.56,519.42Z"/></g><g id="Forma_1942" data-name="Forma 1942"><path class="cls-1" d="M320.22,228.53c64.55-16.14,87.81-61.61,88.7-98.18-.28-.22-.57-.45-.83-.68,0,0,.92-80.85-81.43-101.82,28.13,19.73,53.65,68.67,49.54,94.38-7.07,44.26-32.75,66.1-76.18,81.14-22.66,7.85-141.5,24.82-170.42-65.55C129.6,137.82,137.77,274.15,320.22,228.53ZM770.56,519.42l0,0c-5.41-4.52-12.67-8.46-22.36-11.29-21-6.13-25.51-32.24-25.51-32.24,2.4,3.7,3.93,12.46,19.49,20.2,11.06,5.49,21.59,6,32.37,12.6.75-7.49-2.54-17.39-20.68-24.65-33.2-13.28-38.26-26.39-43.22-53.15s-5.35-101.53-40-175.74a47.69,47.69,0,0,0-16-18.95h0l-.28-.18c1.95-5.47,9.63-20.19-1.28-36.17-4.55,18-11.38,34.51-13.6,16.68-3.05-24.38-16.66-24.09-16.66-24.09,12.65,23-11.69,45.35-11.69,45.35,1.37-59.14-64.52-69.42-34.72-46.42s16.3,50,16.3,50-82.34-55.62-206.21-7.08S151,278.37,85.31,210.1,135,37.69,89.56,56.68c-30.2,12.62-50.91,46-61.42,67-4.93,24.62-3.85,49.69.12,71.57,13.54,74.58,139,125.63,234.56,108.07s159.65-54.69,197.35-63.07c35.7-7.93,104.76,19.15,112,22.06a135.08,135.08,0,0,1,23.89-4.12c2.07,3.71,5,10.65,9,23.51,8.79,28.46,10.8-10.6,6.77-25A59,59,0,0,0,623,254c3,5.27,7.64,15.21,10.12,30.19,3.79,23,10.95-14.6,1.24-35.42l1.24-.72c1.5-.87,2.91-1.69,4.26-2.45,3.58,8.55,20.92,30.25,29.75,57.73,13.72,42.63,27.95,114.31,23,166.88-4.57,48.79-11.25,81-5.67,107.36,9,42.51,30.15,31,38.62,30.47s13-16.45-.36-33.66-9.92-31.53-9.92-31.53,15.67,13.39,24.8,17.71,12.28,8.32,13.47,11.34c0,0,5.8-5.61-7.44-22.32-9.38-11.83-11.14-19.41-14.18-29.06A167.26,167.26,0,0,0,753.55,524c12.6,1.28,15.68,10.4,15.94,13.82a26.24,26.24,0,0,0,2.4,5.84C775.84,538,777.09,530,770.56,519.42Z"/></g><g id="Forma_1942-2" data-name="Forma 1942"><path class="cls-2" d="M145.54,62C178.24,38.78,159,39.32,159,39.32S88.52,71,98.77,127.9s15.48,41.68,13.46,19.49S112.84,85.21,145.54,62ZM325.89,172.9s-114.33,37-103.11-58.82c0,0-17.52,20.15-10.63,42.88,3.84,12.65,11.7,29.41,32.94,34.39-22.11-3.39-67.43-14.62-73-50C164.74,94.35,227,91.05,227,91.05s-23.91-2-46.24,2.58C188,85,199.07,77.09,215.69,70.86c80.68-30.25,98.86,55.62,98.86,55.62,12.41-33.25-15.28-96-96.73-79.36s-77.6,79-77.6,79c3.34,21.34,12.24,32.54,21.16,38.4,29.74,27,84.76,28.23,94.33,28.22C272.13,193.43,294.69,188.22,325.89,172.9ZM129.74,39.06c45.3-35.78-10.17-2.62-10.17-2.62s-113,68.89-40.44,159.72c0,0,17.91,18.86,11-4.34S44.68,106.25,129.74,39.06ZM658.59,338C619.67,299,596,288.64,591.26,283.37c4.43,6.19,29.37,40.19,60.6,66.33,34.48,28.87,26.59,78.84,28.34,95.67C680.75,437.17,700.1,379.65,658.59,338Zm-67.33-54.64c-.46-.64-.7-1-.7-1A4.32,4.32,0,0,0,591.26,283.37Zm-218.6-64.76c-84.08,34.83-125.43,26.57-125.43,26.57S251,265.8,367.7,231.36c92.35-27.25,63.78-30.11,132.16-39.68C499.86,191.68,456.73,183.77,372.66,218.61ZM496,168.29c12.69,4.38,52,13.92,91.77,46.77C587.73,215.06,565.09,168.68,496,168.29Z"/></g><g id="Forma_1943" data-name="Forma 1943"><path class="cls-4" d="M93.1,85c30-47.64,72.28-66.61,72.28-66.61S95.7,32.65,76.8,86.09s1.12,107.28,30.12,131.1C106.92,217.19,63.09,132.67,93.1,85Zm87.52-52.09s-96.55,27-67,138.9C113.65,171.84,102.55,87.75,180.62,32.94ZM106.21,187.07c-1-8.38-16.88-44.67-2.48-100.62C103.73,86.45,76.82,123.15,106.21,187.07Zm31.53-42.16c.59-2.63-5.25-44.35,51.73-100.27C189.47,44.64,113.6,85,137.74,144.91ZM260,91.41S241.74,86.55,229.16,102s-16,39.59,6.38,63.06C235.54,165.1,210.55,119.52,260,91.41ZM115.78,438.28c.42-2.13,14.44-91.64,35.43-134.28l-5-1.42S117.52,361.2,115.78,438.28Z"/></g></svg>