<svg id="Assets" xmlns="http://www.w3.org/2000/svg" viewBox="0 0 800 800"><defs><style>.cls-1{fill:#ad9dba;}.cls-2{fill:#ebe7fa;}.cls-3{fill:#cabcd5;}</style></defs><g id="Forma_2430" data-name="Forma 2430"><path class="cls-1" d="M765.55,429.93C790,447.05,794,468.6,794,468.6c-6.79-51.83-54.69-85.73-56.59-88.59,31.59,28,49.92,18.63,49.92,18.63s-8.89,2.53-29.53-10.19-22.15-38.32-22.15-38.32c-4.88-14.69-21-35.58-26.74-42.78-1.35-1.62-2.09-2.57-2.09-2.57s.78.94,2.09,2.57c5.32,6.4,20.31,23.46,38,35.4,22.14,14.95,24.61,27.07,24.61,27.07.16-12.65-.09-33.86-22.85-48.16s-32.9-35.47-36.92-39.38c15.88,3.6,43.59,28.48,43.59,28.48-7.62-17.79-26.58-35.82-43.59-47.46a380.69,380.69,0,0,1-34.1-27.07c6.39,5,30.94,3.16,30.94,3.16-13.2-5-36.84-12.57-46.76-39.37s-50.27-48.51-50.27-48.51c8.55,1.51,20.39,7,20.39,7-15.14-37.87-46-37.56-58.71-39.72,17-5.19,40.08-4.58,40.08-4.58-47.26-27.57-84,9.14-84,9.14,6.07-21.88,33.75-38.31,33.75-38.31-42-5.15-67.5,32.69-67.5,32.69-5.88-19.36-3.86-30.94-3.86-30.94-20.65,17.43-25,39-25,39-.62-12-7.77-16.93-9.85-27.07s6-23.2,6-23.2c-19.49,14-23.9,36.56-23.9,36.56-8.92-16.81,1.4-39.73,1.4-39.73C412,83.28,400.3,114.6,400.3,114.6c-3.43-15.58,6-37.07,7-40.78-21.05,16.26-22.15,35.85-22.15,35.85.58-24.65-15.82-30.58-15.82-30.58,5.8,5.65.7,32.69.7,32.69-9.69-40.21-43.59-34.45-43.59-34.45C339.6,82.44,350,97,350,97c-31.48-33.79-106.16-9.49-106.16-9.49,12.24-1.6,26.36,8.79,26.36,8.79C210.57,73.79,172.85,136,172.85,136c14-5.84,34.1,12,34.1,12-26.35-9.82-46.06,3.52-46.06,3.52,13.41-4.89,36.92,7,36.92,7-20.75-1.6-35.84,13.22-49.57,24.26s-34.1,9.14-34.1,9.14c8.59,6.24,42.18,3.16,42.18,3.16-10.41,5.05-37.78,12.5-53.08,14.06s-32.69,19-32.69,19c19.29-11.74,53.08-4.93,53.08-4.93C85.86,228.2,66,246.07,66,246.07c12.9-6.36,56.6-1.4,56.6-1.4-58.18,10.49-78,36.21-78,36.21,15.58-6.45,30.59,2.46,30.59,2.46-61.71,13.43-68.94,73.54-70,75.58,19.22-32.34,57.65-29.53,57.65-29.53C18,351.12,2.7,395.13,2.7,395.13,7.11,388.29,19.92,386,19.92,386c-24.12,32.44-11.6,73.47-11.6,73.47-1.85-23.3,14.36-50.84,16.89-55a3.49,3.49,0,0,1,.34-.55s-.13.2-.34.55c-1,1.89-4.24,9.51-8.1,35.66-4.69,31.79,10.2,59.41,10.2,59.41-5-13.35-3.17-30.24-3.17-30.24s6.69,27.95,12.31,37.62,12.32,9.21,14.76,32.69c3.35,34.35,16.88,44.65,16.88,44.65-7-9.1-9.14-33.3-9.14-35.86,0,0,7.09,36.51,25.31,40.78s25.31,10.9,25.31,10.9c-2.15-7.55-14.77-16.52-14.77-16.52s22.1,1.24,23.91,22.14,15.82,27.42,15.82,27.42c-2.95-4.75-4.29-9.06,0-25s5.75-24.08,5.62-49.92-2.64-29.38-3.51-32c0-21.16,3.22-26.59,9.14-36.21,11-17.94,15.11-21.44,15.11-21.44l-15.6-6.35a23.42,23.42,0,0,1-5.14-2.09l5.14,2.09c12.87,3.59,27.56-3.14,27.56-3.14,9.13-5.19,9.84-13,9.84-13-4.45,3.76-22.15,7.74-22.15,7.74,15.65-6.15,22.85-20.74,22.85-20.74L175,435.56c7.4-8.93,12.3-24.61,12.3-24.61L170.39,422.9l16.52-28.47L170,405.32c6.33-11.31,15.82-28.47,15.82-28.47L170,386a179.56,179.56,0,0,1,14.42-25.31L170,371.22c8.44-15,15.12-27.07,15.12-27.07l-15.47,4.57c3.94-5.93,21.1-19.33,21.1-19.33-3.51.3-18.29,7-18.29,7,11.2-13.45,27.07-25.31,27.07-25.31-8.39,1.45-19.93,6.44-22.85,7.38,0,0,6.4-8.75,15.12-11.95,6.24-2.29,15.12-5.63,15.12-5.63-3.12.28-16.88-9.49-16.88-9.49,16.86,4.06,35.51-1.05,35.51-1.05-4.52-1.64-11.25-11.95-11.25-11.95,10.34,3.7,32.69,1.4,32.69,1.4-4.23-3-6.68-18.63-6.68-18.63,12.82,17.49,40.78,19.69,40.78,19.69-4.39-2.83-12.26-11.44-16.37-16.19a31.12,31.12,0,0,1-2.28-2.71c-.16-.2-.27-.35-.33-.44l.33.44c.44.55,1.24,1.5,2.28,2.71,12.28,13.05,35,16.19,35,16.19-5.08-4.72-9.08-18.15-9.14-19,10.62,16.05,30.94,17.58,30.94,17.58-6.05-5.8-7-21.09-7-21.09,9.25,10.14,25.31,20.39,25.31,20.39-3.47-4.1-3.87-17.58-3.87-17.58,8.51,16.33,27.77,20.74,27.77,20.74-4.92-4.52-9.35-19.68-9.84-20.39,8.29,16,27.42,25,27.42,25-4-4.12-8.95-19.62-9.14-20.39,14.32,23.77,28.48,26,28.48,26-5.2-4.51-11.25-23.56-11.25-23.56,11.38,16.18,26,21.45,26,21.45-3.1-2.78-7.73-19.34-7.73-19.34,10.69,18.69,20.74,19,20.74,19-6-7.11-5.63-20-5.63-20,9.24,18.54,20.39,23.55,20.39,23.55-4.66-6.59-4.57-23.55-4.57-23.55,2,17.14,15.47,26.36,15.47,26.36-.33-12.15,10.9-26,10.9-26-1.46,7.84-.35,19.33-.35,19.33,4.07-7.3,18.28-15.82,18.28-15.82-8.8,8-7.74,15.12-7.74,15.12s4.87-6.5,10.9-7c13.06-1.15,21.09-6.68,21.09-6.68-8.21,7.57-10.19,13-10.19,13,16.1-12.08,35.86-15.12,35.86-15.12-20.64,4.89-30.24,19-30.24,19,4.37-3.77,21.26-7.13,30.94-9.14s20.74-9.14,20.74-9.14A129,129,0,0,1,543,288.26C552.75,285.38,572.9,277,572.9,277c-6.46,3.47-16.93,12.67-17.93,13.36,9-1.78,42.54-2.11,42.54-2.11-6.54.86-22.28,5.07-25.66,5.62,11.14-.27,32.34,7.74,32.34,7.74-5.56-1.08-16.17,1.76-16.17,1.76,11.48,5.27,26.72,21.79,26.72,21.79-3.15-2.9-11.25-7.38-11.25-7.38,4.32,5.52,14.76,20.39,14.76,20.39-4.2-2.78-6.68-2.46-6.68-2.46,4.67,3.87,7.74,13.36,7.74,13.36-5.72-4.8-8.79-4.22-8.79-4.22,5.43,6.91,9.84,20.74,9.84,20.74-5.09-1.9-11.25-8.79-11.25-8.79,1.9,7.3,8.09,24.26,8.09,24.26a24.29,24.29,0,0,1-7.74-10.9c1.21,8.71,6.68,23.9,6.68,23.9-5.22-5-6.48-7.78-6.68-8.43-.33,10.29,5.28,23.49,5.63,24.25-4.58-4-5.63-6-5.63-6,.26,7.21,1.83,16.94,3.17,20.74-4.06-3.26-5.1-4.21-5.28-5.28.06,10.65,4.57,22.5,4.57,22.5-3.64-1.76-4.57-3.51-4.57-3.51s-5.8,15.95,9.85,28.82,35.5,9.15,35.5,9.15c-.59,2.27,2.42,47.06,16.88,84s9.14,49.22,9.14,49.22c9.57-15.32,9.49-34.45,9.49-34.45,7.41,17.93.7,48.51.7,48.51,4.38-5.82,10.14-9.24,17.23-33.39s27.77-21.8,27.77-21.8c-7.82,10-17.6,25.18-26.72,40.43,7.3-9.13,26.66-19.22,46.06-42.89,26.37-32.18,24.6-91.05,24.6-91.05C795.31,500.59,793,537.86,793,537.86,811.29,489.51,765.55,429.93,765.55,429.93Z"/></g><g id="Forma_2433" data-name="Forma 2433"><path class="cls-2" d="M71.27,559c.21.45.33.68.33.68ZM738.83,431.34c24.95,24.09,32.7,67.49,32.7,67.49,7.55-57.7-28.13-84-28.13-84-25.23-23.5-46-78.4-46-78.4,19,25.08,33.4,36.56,33.4,36.56a90.83,90.83,0,0,1-15.12-24.26c-13.54-27.47-59.76-68.9-59.76-68.9,18.42,15.16,43.94,15.12,43.94,15.12-14.15-3.88-46.4-32.34-46.4-32.34,25.13,16.76,34.45,1.75,34.45,1.75s-27.58.84-37.62-29.53c-6.52-19.74-15.11-31-20.33-36.54-1.54-1.36-3.09-2.77-4.63-4.23a33.84,33.84,0,0,1,4.63,4.23,170.39,170.39,0,0,0,41.78,27.05c-5.23-2.64-11.1-13-27.42-32.34-24.78-29.77-55.34-23.8-58.71-22.5,1.12-17.41,5.27-21.09,5.27-21.09-30.14-4.35-48.44,34.34-50.62,36.56-4-35.27,23.9-70,23.9-70s-12.15-.17-31.28,28.13c-16.89,25-12.73,74.3-11.52,85.55.19,1.5.27,2.33.27,2.33s-.11-.83-.27-2.33c-1-7.87-5-34.18-15.9-55.32-13-25.16-20.39-68.2-20.39-68.2-7,17.43-4.89,39.15-1.41,71.71S480.45,231,480.45,231c-.14-14-8.56-39-18.63-64s-12.31-60.47-12.31-60.47c-6.14,13.34-4.65,55.65-3.87,85.07s-8.43,48.17-8.43,48.17c.12-10.08-2-12.5-14.42-59.77s-3.51-75.58-3.51-75.58c-23.44,23-25.31,72.42-25.31,72.42-10.4-59.36-40.08-82.26-40.08-82.26,10.34,15,19,63.63,19,63.63C353.53,91.37,287.1,98.43,287.1,98.43c70,38.54,61.17,119.87,61.17,119.87-27.35-103.16-112.5-105.11-112.5-105.11,19.81,2.8,53.09,42.89,53.09,42.89-33-31.45-79.8-17.58-79.8-17.58,22.71,5.12,61.52,51.68,61.52,51.68a72.43,72.43,0,0,0-60.82-13c-17.64,4.41-46.41,14.06-46.41,14.06,38.84-.08,72.07,27.07,72.07,27.07-28.92-14.59-79.12-11.65-83-10.19,19.47-1.46,58,13.34,75,20.35a62.57,62.57,0,0,1,8.35,3.55s-3.17-1.41-8.35-3.55c-31.81-11.13-90.78-10.16-90.78-10.16,29,.37,71.36,29.88,71.36,29.88-28.52-12.32-87.53-8.43-87.53-8.43,16.54.68,87.14,22,73.47,19.33s-34.91,5.74-54.84,1.06-43.94,4.57-43.94,4.57C110.45,262,143,278.06,143,278.06c-26.69-9.88-74.18-4.21-74.18-4.21,9.92-.76,43.59,15.11,43.59,15.11-33.47-1.1-55.19,21.45-55.19,21.45C89.8,296.94,131,308.3,131,308.3,87.23,300.9,50.16,322,50.16,322c23.62-11.8,87.53,1.4,87.53,1.4-33.22,1.4-87.37,29.06-90.34,33.4A33.61,33.61,0,0,1,73,352.24c-51.52,26.89-42.78,80.29-42.88,85.19C32.49,393.84,66,378.61,66,378.61c-28,21.57-24.3,51.28-31.64,79.44S48.4,507.62,48.4,507.62C44,488.62,72,471.41,72,471.41c-8.76,11.91-17.92,22.94-14.76,44.3C60,534.89,69.39,555.05,71.27,559c-1.23-2.69-5.51-13.5-5.64-34.47-.16-24.52,21.09-31.29,21.09-31.29C77,505,81.44,546.64,81.44,546.64c.8,21.66,31.29,31.64,31.29,31.64-6.61-8-14.06-25-14.06-25-8.15-20.32,4.57-26.71,4.57-26.71-.65,10.88,5.05,15.42,14.41,32.69a147.17,147.17,0,0,1,13,33c3.12-16.7-3.67-47.07-7-69.6-1.07-7.16-.53-12.14.69-15.62-6-7.35-12.64-24.43,3.53-23.05,19.27,1.65,33-15.47,33-15.47l-15.58-6.34a23.32,23.32,0,0,1-5.16-2.1l5.16,2.1c12.86,3.57,27.54-3.15,27.54-3.15,9.13-5.19,9.84-13,9.84-13-4.45,3.76-22.15,7.74-22.15,7.74,15.65-6.15,22.85-20.74,22.85-20.74L175,435.56c7.4-8.93,12.3-24.61,12.3-24.61L170.39,422.9l16.52-28.47L170,405.32c6.33-11.31,15.82-28.47,15.82-28.47L170,386a179.56,179.56,0,0,1,14.42-25.31L170,371.22c8.44-15,15.12-27.07,15.12-27.07l-15.47,4.57c3.94-5.93,21.1-19.33,21.1-19.33-3.51.3-18.29,7-18.29,7,11.2-13.45,27.07-25.31,27.07-25.31-8.39,1.45-19.93,6.44-22.85,7.38,0,0,6.4-8.75,15.12-11.95,6.24-2.29,15.12-5.63,15.12-5.63-3.12.28-16.88-9.49-16.88-9.49,16.86,4.06,35.51-1.05,35.51-1.05-4.52-1.64-11.25-11.95-11.25-11.95,10.34,3.7,32.69,1.4,32.69,1.4-4.23-3-6.68-18.63-6.68-18.63,12.82,17.49,40.78,19.69,40.78,19.69-4.36-2.8-12.14-11.3-16.27-16.08a32.34,32.34,0,0,1-2.39-2.84c.44.56,1.29,1.57,2.39,2.84,12.31,13,34.9,16.08,34.9,16.08-5.08-4.72-9.08-18.15-9.14-19,10.62,16.05,30.94,17.58,30.94,17.58-6.05-5.8-7-21.09-7-21.09,9.25,10.14,25.31,20.39,25.31,20.39-3.47-4.1-3.87-17.58-3.87-17.58,8.51,16.33,27.77,20.74,27.77,20.74-4.92-4.52-9.35-19.68-9.84-20.39,8.29,16,27.42,25,27.42,25-4-4.12-8.95-19.62-9.14-20.39,14.32,23.77,28.48,26,28.48,26-5.2-4.51-11.25-23.56-11.25-23.56,11.38,16.18,26,21.45,26,21.45-3.1-2.78-7.73-19.34-7.73-19.34,10.69,18.69,20.74,19,20.74,19-6-7.11-5.63-20-5.63-20,9.24,18.54,20.39,23.55,20.39,23.55-4.66-6.59-4.57-23.55-4.57-23.55,2,17.14,15.47,26.36,15.47,26.36-.33-12.15,10.9-26,10.9-26-1.46,7.84-.35,19.33-.35,19.33,4.07-7.3,18.28-15.82,18.28-15.82-8.8,8-7.74,15.12-7.74,15.12s4.87-6.5,10.9-7c13.06-1.15,21.09-6.68,21.09-6.68-8.21,7.57-10.19,13-10.19,13,16.1-12.08,35.86-15.12,35.86-15.12-20.64,4.89-30.24,19-30.24,19,4.37-3.77,21.26-7.13,30.94-9.14s20.74-9.14,20.74-9.14A129,129,0,0,1,543,288.26C552.75,285.38,572.9,277,572.9,277c-6.46,3.47-16.93,12.67-17.93,13.36,9-1.78,42.54-2.11,42.54-2.11-6.54.86-22.28,5.07-25.66,5.62,11.14-.27,32.34,7.74,32.34,7.74-5.56-1.08-16.17,1.76-16.17,1.76,11.48,5.27,26.72,21.79,26.72,21.79-3.15-2.9-11.25-7.38-11.25-7.38,4.32,5.52,14.76,20.39,14.76,20.39-4.2-2.78-6.68-2.46-6.68-2.46,4.67,3.87,7.74,13.36,7.74,13.36-5.72-4.8-8.79-4.22-8.79-4.22,5.43,6.91,9.84,20.74,9.84,20.74-5.09-1.9-11.25-8.79-11.25-8.79,1.9,7.3,8.09,24.26,8.09,24.26a24.29,24.29,0,0,1-7.74-10.9c1.21,8.71,6.68,23.9,6.68,23.9-5.22-5-6.48-7.78-6.68-8.43-.33,10.29,5.28,23.49,5.63,24.25-4.58-4-5.63-6-5.63-6,.26,7.21,1.83,16.94,3.17,20.74-4.06-3.26-5.1-4.21-5.28-5.28,0,.55,0,1.09,0,1.63,6.33,10,13.92,20.55,22.1,29,22.23,22.83,30.23,21.09,30.23,21.09-11.65-13.15-15.11-49.57-15.11-49.57,5.66,17.95,21.94,45.18,44.64,75.59s25,73.47,25,73.47,20.51-48.84-1.4-80.86-28.48-68.9-28.48-68.9c12.42,24.06,24.26,37.26,24.26,37.26,50.8,66.57,43.94,94.57,43.94,94.57,21.41-62.07-11.95-96.32-11.95-96.32-25.87-29.33-36.56-64-36.56-64C705.72,396.74,713.89,407.25,738.83,431.34Z"/></g><g id="Forma_2434_copia" data-name="Forma 2434 copia"><path class="cls-3" d="M183.39,433.1,175,435.56a47.74,47.74,0,0,0,4.51-6.67c-18.84,10.48-42.76,14.64-65.68,26.35-29.68,15.16-19.34,45.7-19.34,45.7C94.54,476.62,118,468.6,118,468.6c-14.7,8.1-8.51,41.59,1.4,66.79S127.15,604,127.15,604s8.47-11.66,3.86-53.44c-1.68-15.3-.77-24.63,1.07-30.3-2.28-5.53-4.24-9.12-4.58-10.13-5.73-3.09-18.92-27.66.35-26s33-15.47,33-15.47l-15.58-6.34a23.32,23.32,0,0,1-5.16-2.1l5.16,2.1c12.86,3.57,27.54-3.15,27.54-3.15,9.13-5.19,9.84-13,9.84-13-4.45,3.76-22.15,7.74-22.15,7.74C176.19,447.69,183.39,433.1,183.39,433.1Zm-81.91,79.44a50,50,0,0,0,1.76,38.67c8.26,17.61,15.26,23.25,17.32,30.28-1.1-6.28-3.81-19.16-8.88-29.57C104.69,537.57,101.48,512.54,101.48,512.54Zm-18.63,34.1c-5-17.59-2.3-34.58.35-42.53.7-2.1-20.88,34.32-2.11,64.33A31.18,31.18,0,0,1,85.66,579C85.17,566.15,87.88,564.23,82.85,546.64Zm38.32,38.67a14.74,14.74,0,0,0-.61-3.82C121,583.87,121.17,585.31,121.17,585.31Zm101.6-317.79s-36-16-62.23-29.18-43.23-7.92-56.95-2.81c2.86-.53,27.16-1.11,43.59,8.08S204.19,268.15,222.77,267.52ZM78.75,495.2s-24,21.37-8.71,59.34C70,554.54,66.49,509.14,78.75,495.2ZM218.09,283.57a225.36,225.36,0,0,1-50.17-13.94c-45.79-18.67-77-8.09-77-8.09,12-2.43,31.65-2.53,69.6,14.42a199.46,199.46,0,0,0,59.28,15.64c3.56-.63,5.76-1.23,5.76-1.23C223.26,289.53,220.37,286.41,218.09,283.57Zm-85-3.4c-27.19-8.46-66.44,17.58-66.44,17.58s48.52-15,67.85-7c13.63,5.62,40.31,12.52,58.11,15.52C198.8,304,207,300.91,207,300.91c-2.06.19-8.76-4-13.07-6.88C175.17,290.49,149.13,285.16,133.12,280.17Zm40.17,64.37c-10.59,2.3-23.79,5-38.06,7.7-34.59,6.46-38.25,5.35-53.08,16.52,6.63-3,22.09-7.68,41.48-7.73,0,0-24.78,6.45-50.27,28.12s-26,37.27-26,37.27S71.07,386.88,108.87,379c0,0-26.25,11.43-43.6,34.45s-21.79,38.67-21.79,38.67,38-56.12,78.39-66.44c0,0-13.14,7.59-26,23.9,0,0,16-13.15,31.64-18.28,10.62-3.47,29.14-7.82,47.29-14.79,4.89-9,9.66-15.79,9.66-15.79L170,371.22c8.44-15,15.12-27.07,15.12-27.07l-15.47,4.57A30.5,30.5,0,0,1,173.29,344.54ZM39.26,490s12.15-36.59,56.6-56.59c32.63-14.69,62.7-26.73,81.9-42l7.06-12.74c-18.38,10.77-60.55,35-89.31,47.7C57.81,443.09,38.77,469.6,39.26,490ZM176.71,318.49s.37-.5,1-1.29a159.65,159.65,0,0,1-36.54-.47c-33.34-4.6-69.45,13.89-71.72,14.77,0,0,44.9-9.85,61.87-8.44,10.81.9,32.15,3.25,50.09,3.73,5.05-5,10-9.19,13.46-12-3.87.72-8.55,1.47-13.79,2.07C179.12,317.61,177.56,318.22,176.71,318.49ZM57.54,500.59s25.16-40.49,56.25-53.08a218.84,218.84,0,0,0,67.28-43l3.05-5.24c-14.22,11-39,24.89-68.58,37C66,456.55,59.76,491.52,57.54,500.59ZM511.09,209.51s25.19-18.14,43.64-38.67,38.65-28.47,38.65-28.47C533.7,155.34,511.09,209.51,511.09,209.51ZM612.57,376.14a22.25,22.25,0,0,1-3.11-6c.21,1.46.53,3.09.92,4.81Zm-1.74-221.47c-17.06,1.31-44.14,15-42.7,14.77C585.87,167,607.54,155.79,610.83,154.67Zm24,87.89c-23.22,13.14-55.17,29.18-55.17,29.18,16.47.63,52.45-14.71,67-23.91,11.47-7.24,27.26-8.41,34.7-8.33l-2.65-2.32C667.7,233.38,654,231.69,634.83,242.56Zm27.75,101.95c39.46,6.42,73.34,27.08,84.43,34.37a48.33,48.33,0,0,1-4.43-6.58c-19.32-16.74-56-28.5-56-28.5C674.52,341,662.58,344.51,662.58,344.51Zm76,111.79s-4-15.65-19.33-38.67-38.65-34.45-38.65-34.45c33.51,7.92,54.55,47.45,54.55,47.45s-.46-15.59-23.07-37.26-44.57-28.12-44.57-28.12c17.19.05,30.91,4.73,36.78,7.73-13.15-11.17-16.4-10.06-47.06-16.52-14.89-3.14-28.47-6.38-38.51-8.88.35.92.54,1.5.54,1.5a28.12,28.12,0,0,0-2.75-2.05l-5.46-1.39c5.16,7.12,9.26,20,9.26,20-5.09-1.9-11.25-8.79-11.25-8.79,1.39,5.32,5.06,15.79,6.94,21.06,17.93,8.67,37.46,13.69,48.08,17.61,13.9,5.13,28.06,18.28,28.06,18.28-11.42-16.31-23.07-23.9-23.07-23.9C704.93,400.18,738.63,456.3,738.63,456.3ZM235.77,165.22c1.63.2-28.91-13.46-48.16-14.77C191.33,151.57,215.76,162.75,235.77,165.22ZM102.19,339.58s-57,16.18-72.42,37.62C31.9,376,76.09,348,129.25,340.29,129.25,340.29,115.79,336.74,102.19,339.58ZM236.12,105.1s22.12,4.66,80.51,58.71C316.63,163.81,285.16,108.26,236.12,105.1Zm64,100.19s-25.51-54.17-92.81-67.14a130.71,130.71,0,0,1,43.59,28.48C271.7,187.15,300.11,205.29,300.11,205.29Zm52.38-27.77s-17.57-56.31-62.58-78L264.6,90S330,128.29,352.49,177.52Zm144-9.49c51.78-54,71.38-58.71,71.38-58.71C524.35,112.48,496.44,168,496.44,168Zm46.13-73.82-22.44,9.49c-39.91,21.73-55.48,78-55.48,78C484.59,132.51,542.57,94.21,542.57,94.21ZM678.16,556.14a99.43,99.43,0,0,0-4.82,14.57c.62,1.83,1.18,3.6,1.68,5.28a141.4,141.4,0,0,0,10.62-20.56,55.79,55.79,0,0,0,1.56-38.67S684.36,541.79,678.16,556.14Zm18.39-290.38s-27.66-10.58-68.26,8.09A180.75,180.75,0,0,1,578,288.7c10.16-.35,19.54-.44,19.54-.44-6.54.86-22.28,5.07-25.66,5.62a54,54,0,0,1,12.46,1.68,160.41,160.41,0,0,0,50.52-15.39C668.48,263.23,685.93,263.33,696.55,265.76ZM660.7,327.28c15-1.41,54.86,8.44,54.86,8.44-2-.88-34-19.37-63.58-14.77-15.83,2.47-31.32,1-42.3-.93,3.07,3,5.06,5.15,5.06,5.15a60.59,60.59,0,0,0-8.47-5.78l-1.84-.37c2.4,3.14,5.91,8,8.79,12.06C629.69,330.84,650.5,328.24,660.7,327.28ZM718.06,302s-34.8-26-58.91-17.58c-16.23,5.7-44.09,11.85-60.56,15.26,3.38,1.13,5.6,2,5.6,2-5.56-1.08-16.17,1.76-16.17,1.76a60.27,60.27,0,0,1,12.17,8.11c15-2.05,43.91-10.14,57.71-16.55C675,287,718.06,302,718.06,302ZM555.17,290.22l.18.08c.38-.07.8-.14,1.26-.2-.52,0-.93,0-1.23-.05Zm69.69-70.86c-1.46.25-58.4,7.5-75.43,29.53a259.62,259.62,0,0,1-23,25.31c3.91-1,6.39-1.41,6.39-1.41a55.51,55.51,0,0,0-7.21,2.22c-5.14,5-9.93,9.37-13.66,12.68,3.95-1.18,8.53-2.27,12.86-3.22A161.08,161.08,0,0,0,554.11,258C569.55,240.32,606.57,222.09,624.86,219.36ZM548.81,240.1c11.88-16.5,60.78-36.91,60.78-36.91C570.88,204.5,548.81,240.1,548.81,240.1ZM675,220.55c-.75-.74-1.49-1.51-2.21-2.31-7-.71-18.72-.71-37.3,2.17-35.66,5.53-84.16,58-84.16,58s35.86-20,63.9-40.43C634.25,224.13,662,221.16,675,220.55ZM692.5,430.63c-26-13-64.46-37.94-80.18-48.35,1.07,3.65,2.18,7,2.93,9.22,16.6,17.31,45.42,30.17,76.94,46.17,39.4,20,50.18,56.59,50.18,56.59C742.81,473.82,725.92,447.31,692.5,430.63Zm-17.77,9.85c-27.49-12.71-50.28-27.4-62.54-38.57.34,1.08.67,2.1,1,3a193.59,193.59,0,0,0,63.11,46.81c27.56,12.58,49.87,53.08,49.87,53.08C724.19,495.74,718.64,460.77,674.73,440.48Zm1.56,19c-24.78-14.27-50.88-17.33-68.52-34.31a83.27,83.27,0,0,0,4.15,16.73c-3.64-1.76-4.57-3.51-4.57-3.51s-5.8,15.95,9.85,28.82,35.5,9.15,35.5,9.15c-.37,1.44.72,20.19,5.31,43.17,1.74,2.84,3.29,7.74,3.69,16.18,1.65,6.35,3.57,12.79,5.8,19.08a101.73,101.73,0,0,1,3.8-15.16c8.79-25.2,14.28-58.69,1.25-66.79,0,0,20.8,8,20.88,32.34C693.43,505.16,702.6,474.62,676.29,459.46Zm38.79,99.3c13.52-38-7.72-59.34-7.72-59.34C718.23,513.36,715.08,558.76,715.08,558.76Zm-11.67-50.43c2.35,7.95,4.77,24.94.31,42.53s-2.06,19.51-2.49,32.34a32.94,32.94,0,0,1,4-10.54C721.92,542.65,702.79,506.22,703.41,508.33ZM159.84,216.19c-42-5.77-52.73,0-52.73,0s46.65-1.08,75.58,17.58c20.37,13.14,44.4,26.12,58.92,33.7-.67-2.82-1.09-5.2-1.22-6C221.44,245.58,187.27,220,159.84,216.19Zm172.91,57.72c-6.31-9.35-15-23-21.4-34.16-11.12-19.41-38.25-56.94-67.84-65.74,0,0,35.1,24.17,43.24,45.35,4.87,12.68,11.42,32,21,49A309.08,309.08,0,0,1,272,222.52c-22.8-36.33-72.77-35.15-72.77-35.15s46.3,7.57,68.2,42.88C276.87,245.5,284,256.12,291.18,264a18.67,18.67,0,0,1-.57-2.1c10.62,16.05,30.94,17.58,30.94,17.58-6.05-5.8-7-21.09-7-21.09C319.8,264.16,327.28,270,332.75,273.91Zm7,4.83.05,0-.15-.2Zm-82.21-42.86S232.68,200.28,189,199C189,199,244.17,219.39,257.57,235.88Zm-5.77,35.57c-2.4-2.2-6.17-5.56-10.94-9.58A40.16,40.16,0,0,0,251.8,271.45ZM198.51,123.74c4.28.65,85.48,1.47,109.68,70.31,12.87,36.6,15.92,58.69,30.66,83.16-2.56-5.19-2.89-16-2.89-16,5.6,10.75,15.87,16.33,22.22,18.9-8.77-15.25-27.38-49.66-38-84.64C305.85,148.54,249.08,114.08,198.51,123.74Zm58.36,120.93c-19.22-22-83.43-29.28-85.08-29.53,20.63,2.73,62.38,21,79.8,38.67a184,184,0,0,0,17,15.25c-1.42-1.56-2.73-3-3.79-4.26a32.34,32.34,0,0,1-2.39-2.84c.44.56,1.29,1.57,2.39,2.84,8.64,9.1,22.35,13.35,29.75,15.07C283.7,271.06,268.24,257.71,256.87,244.67Zm247.05-46.41c21.46-68.83,93.46-69.66,97.25-70.3-44.84-9.66-95.17,24.79-107.84,71.71-7.8,28.85-20.38,57.31-28.92,75a100.18,100.18,0,0,0,.22,14.69c2.85-5.1,10.65-10.8,15.08-13.77C490.3,253.3,493.44,231.91,503.92,198.26Zm-5.56,87c16.51-8.52,25.1-20.54,41.72-50.77,19.42-35.31,60.47-42.89,60.47-42.89s-44.31-1.17-64.52,35.16a307,307,0,0,1-31.69,45.8c8.47-17,14.27-36.28,18.6-49,7.21-21.18,38.33-45.35,38.33-45.35C535,187,511,224.55,501.12,244c-7.92,15.59-19.9,36.2-24.4,42.88,1.91-2,5.38-4.91,9.35-5.26,13.06-1.15,21.09-6.68,21.09-6.68A48.94,48.94,0,0,0,498.36,285.24Zm27.38-163.61c-31.72,15.55-54.93,53.83-63,102.3-4.36,26.28-13.24,45.66-20.47,57.9a41.7,41.7,0,0,0,6.1,8.94c19.66-27.72,23.35-64.4,29.95-98.83C485.33,155.6,525.74,121.63,525.74,121.63Zm-87.13,148a35.9,35.9,0,0,0,.85,4.59c4.64-16.74,8-37.83,9-63.65,1.88-48.3,31.17-82.26,31.17-82.26-26.55,19.88-40.54,69.31-44.88,106.87a161.14,161.14,0,0,1-3.24,18.42c2.1-25.79.15-52.93.43-75.73.51-41.07,8.42-70.3,8.42-70.3a2.08,2.08,0,0,0-.21.27,40.34,40.34,0,0,0-1.16,4.3c-.21-.4-.41-.79-.6-1.19-3.22,6.67-9.52,24.77-12.06,67.28-1.52,25.48-7.5,52.48-13.74,74.79-7.51-23.08-15-51.91-16.84-79-3.93-58.25-15.82-70.66-15.82-70.66s8.91,29.23,9.49,70.31c.32,22.79-1.88,49.94.49,75.72A146.06,146.06,0,0,1,386.23,231c-4.9-37.56-20.67-87-50.62-106.87,0,0,33,34,35.16,82.26,1.45,33.15,7.24,58.49,14.91,76.85,8.56,7.91,15,8.93,15,8.93-5.2-4.51-11.25-23.56-11.25-23.56,11.38,16.18,26,21.45,26,21.45-3.1-2.78-7.73-19.34-7.73-19.34,10.69,18.69,20.74,19,20.74,19-6-7.11-5.63-20-5.63-20a64,64,0,0,0,12.49,17.62q1.91-5.14,3.61-11C438.6,272.44,438.61,269.63,438.61,269.63Zm-84-49.92c-9-48.47-35.23-86.75-71-102.3,0,0,45.58,34,53.44,70.31,6.12,28.31,10,58.14,23.53,83.26a73.79,73.79,0,0,0,20.76,15.52c-2.43-2.52-5.24-9.31-7.1-14.37A158.27,158.27,0,0,1,354.59,219.71Zm83,69.6a27.19,27.19,0,0,0,5.63,3.87,22.58,22.58,0,0,1-3-7.85C439.25,286.79,438.37,288.12,437.55,289.31Z"/></g><g id="Elipse_2874_copia_2" data-name="Elipse 2874 copia 2"><path class="cls-1" d="M531.07,640.51s2.23-22.26-27.07-42.89c0,0,18.59,7.36,26,22.5-.4-1.06,1.74-15.69-35.85-29.88-7.69-3.15-18-6.42-28.63-7.27-12.44,8.37-34.48,13.94-59.61,13.94-33.78,0-62-10.06-68.76-23.48a85.61,85.61,0,0,0-48.3,20c-23.95,20.24-25.4,27-34.46,33.75,0,0,14.25-3,22.5-12.31-.54,7.37-3.51,14.77,2.46,39.38a46.94,46.94,0,0,1,7-11.25c3.65,12,4,23.48,16.52,35.5-.3-9.87-4.64-24.87-1.06-33.75,0,0,2.9,26.92,18.63,36.92-.4-5.85-2.46-18.21,0-27.42a44.07,44.07,0,0,0,19.69,30.23c-.24-5.06-3.36-9.58-.35-17.93,0,0,3.41,9.86,19.33,17.58-1-4.26-5.81-14.16-3.86-21.8,1.6,2.52,4.53,13.92,16.87,24.26,0-2.26-1.15-11.3.35-16.88a77.3,77.3,0,0,0,12.66,20.39,102.61,102.61,0,0,1,1.05-12.3,97,97,0,0,0,9.85,15.47s1.05-10,3.86-16.17c0,0,5.42,8.93,2.46,18.28,3.54-5.37,8.24-10,7-22.85,0,0,1.85,16.19-.71,22.14,1.55-2,8.62-5.27,7.74-16.52a121.64,121.64,0,0,0,4.21,13.71c0-2.08-1.61-15.05,1.76-21.79,1.56,3.11,1.27,10.6,4.22,18.63,0,0,4.84-6.14,8.09-19.69,0,0,1.32,15.43-2.11,21.8,1.4-2,8.21-5.65,9.84-16.17.55,1.86,5.78,6.25,3.87,12.3,0,0,8.48-13.57,8.79-20,0,0,8.58,11.16,5.27,19.69,0,0,9.95-8.23,12.3-17.93a32.26,32.26,0,0,1-4.57,17.58c1.81-1.72,18.19-11.13,21.45-21.8,0,0-.61,11.62-6,18.63.38-.83,19.49-14.06,19.69-29.53,0,0,.25,20.11-4.92,26.72,1.26-1.59,14.61-17.47,14.76-34.45,0,0,1,22.27-3.51,28.12,0,0,14.06-8,12.3-28.82,0,0,1.38,5.23,6.68,15.11,0,0-2.09-6.07-2.46-16.87s-.12-14.49-5.63-21.45C520.52,621.87,530.09,628.35,531.07,640.51Z"/></g><g id="Elipse_2874_copia_3" data-name="Elipse 2874 copia 3"><path class="cls-2" d="M518.56,653.59c-.06.4-.11.73-.15,1A8.29,8.29,0,0,0,518.56,653.59Zm-14.91-44.72c-13.27-11.6-28.59-20.83-38-26-12.4,8.43-34.52,14-59.75,14-32.17,0-59.29-9.12-67.65-21.58-11.42,3.26-40.47,12.78-52.58,28.26,0,0,23.57-13.73,35.51-16.17,0,0-31.23,20.33-35.51,45.35,0,0,13.31-23.15,27.07-30.93,0,0-25,31.49-16.17,56.59,0,0,1.74-27.73,17.93-42.53-1.26,2.42-5.56,36.22-.7,49.57,0,0-1.71-36.39,15.11-52.74-.26,10.76-.82,35.93,4.92,52.74-.32-3.32-1.09-36.14,10.9-49.92-.8,13.36-5.24,39.06,3.17,52,0-6.05-2.18-25.08,5.27-35.85.95,4.5,3.67,28.16,11.95,40.78,0-5.57.48-31.92,7.73-42.54-.26,13.65,4.57,39.5,10.2,50.62,0,0-1.94-25.88,2.81-36.21-.8,1.93,3.85,28.28,8.44,39.73,0,0,6.48-29.48,7.38-31.64-.23,3.37,3.25,14.18,4.22,25.31,1.84-7.72,5.33-17.84,5.27-27.07,0,0,6.3,13.34,3.52,27.07,0,0,5.81-21.16,6-27.07,0,0,7.45,6.83,7.74,19.69.26-1.8,4.31-22.85,4.57-23.56s7.47,8.94,5.27,27.07c0,0,6.89-25.19,6-28.47,0,0,6.86,17.89,4.92,28.82,0,0,12.83-24.7,5.62-57,0,0,14.32,44.73,10.2,58.71,0,0,11-22.07,5.27-51,0,0,12.75,37.42,6.68,50.62,0,0,15.8-20.81,9.61-45.69a8,8,0,0,1-.47-1.77c.17.59.33,1.18.47,1.77,2.18,6.55,11,28.78,6.56,39.36,1.62-3.84,13.68-20.79,8.79-36.56,0,0,7.28,21,4.22,31.29,0,0,9.69-20.3,4.22-31.29,0,0,9.35,11.16,8.23,20.82C519.52,647.67,523.17,625.94,503.65,608.87Z"/></g><g id="Elipse_2874_copia_5" data-name="Elipse 2874 copia 5"><path class="cls-3" d="M386.36,631c1.91-8.15,4.73-20.85,7-31.19-.52,10.75-.38,22.83,1.83,31.38,1.51-7,3.92-21.7,5.91-34.38-4.47-.12-8.83-.43-13-.89C385.79,605.93,383.81,619.62,386.36,631Zm-10.22-.84s4.53-22.72,7.65-34.78c-2.22-.31-4.4-.67-6.52-1.07C376.45,610.05,370.92,617.65,376.14,630.19Zm40.36-33.61q-5.17.33-10.58.33h-1.39c-1.33,8.51-2.72,20.42-1.82,28.84,1.56,14.51,2.06,20,2.06,20l4.17-37.35,8.23,34.24s3.18-6.67,1.08-18.3C417.09,618,416.66,606,416.5,596.58ZM349.8,585.1a37.58,37.58,0,0,1-9.39-7.09l-2.06.82c-7.83,1.66-44.19,9.83-54.42,20.54,5.39-3.41,29.09-10.77,44.49-16.28-14.6,6.59-34,17-39.15,27.54,0,0,17.48-11.49,35.38-17.72-2.07,1.62-10.68,13.76-9.41,27.68,4.12-8.31,11-21.53,22-26.92A56.1,56.1,0,0,0,349.8,585.1ZM418,596.48c2.83,10.12,5.78,21.44,6.33,27.48.24-1-.07-15.69-.86-28C421.68,596.18,419.85,596.34,418,596.48Zm-60.27-7.64c-2.12-.84-4.1-1.74-6-2.68-9.16,7.38-24.36,22.64-21.27,40.82C330.5,627,338.42,602.12,357.73,588.84Zm19.06,5.41c-2.14-.41-4.22-.87-6.24-1.36-5.73,7.69-13.43,21.37-8.79,35C363,622.54,368.36,601.28,376.79,594.25ZM360,589.7c-6.77,7.53-18.27,19.47-15.52,32.07,6.55-10.14,12.61-22.1,20.52-30.4C363.27,590.84,361.6,590.29,360,589.7Zm117.81,5.49s14.87,17.28,14.56,25.6C492.37,618.25,500.42,605,477.81,595.19Zm-18.16-8.82-1.42.69c6.45,8.46,23.68,31.88,22.2,38.88C480.43,625.94,490,606.43,459.65,586.37Zm6.43-3.78c-.34.24-.7.48-1.06.71,31,9.57,40.38,27.05,40.38,27.05C504.85,592.21,479.43,585.08,466.08,582.59Zm-27.36,56.94a8.27,8.27,0,0,1-1.24,2.31S438.73,642.23,438.72,639.53ZM432,594.81c-2.22.37-4.48.7-6.8,1,2.7,9.08,5.87,19.08,9,27.19,3.62,9.45,4.59,14.19,4.6,16.55,1.44-3.72,3-12.39-2.54-29.17A154,154,0,0,1,432,594.81Zm20-5.15a102.39,102.39,0,0,1-12.13,3.58c4.72,10.51,10.13,23.81,10.26,30,.24,10.95,1.5,15.71,1.5,15.71s6.59-16.75,1.11-30.86c0,0,13.95,14.87,13.24,23,.88-3.95,5.63-14.53-4.27-26.67A100.82,100.82,0,0,1,452,589.66Zm14,41.36a5.26,5.26,0,0,0-.13.84A4.6,4.6,0,0,0,465.93,631Z"/></g></svg>