<svg xmlns="http://www.w3.org/2000/svg" width="1000" height="1000"><path fill="#010000" d="M233 147c19 12 34 29 46 47l1 2c13 19 23 39 30 60l7-1 12 3c4 4 7 8 7 14l-4 11 2 1c6 5 11 10 13 18 0 6-1 10-5 15l-2 2c-3 3-6 4-10 5l1 3c2 8 1 14-2 21-4 5-9 7-15 9h-10l-6-1a677 677 0 0 0-23 238v2c5 33 10 68 27 97v10c-7 3-16 0-22-2l-3-1c-27-8-54-19-77-36l-6-3c-5-2-9-6-11-12-13-35 10-93 17-128l2-8c11-49 24-97 42-143l-3 1c-35 9-69 7-104-1-13-3-25-3-38-4-20 0-40-3-56-19-2-3-1-6-1-10v-3c0-24 14-46 30-63l4-5 10-9 2-2c12-10 24-15 40-14a92 92 0 0 1 32 10c8 4 15 10 20 17v-3c-1-87-1-87 26-115 8-8 18-8 27-3Zm-24 82-3 1-5 1a117 117 0 0 0 14 47c4 10 8 17 18 22 9 3 19 1 28 0 19-4 19-4 29 1l2-1-2-2c-15-13-26-28-38-43l-2-3-4-5c-9-12-9-12-21-20-6 0-11 0-16 2ZM771 144c15 8 21 27 25 43s6 33 7 50v29l1-2c12-14 30-22 49-25 15-1 28 2 40 12a274 274 0 0 1 13 12l11 13 1 2a114 114 0 0 1 23 44v14l-1 9c-16 15-35 19-55 19-14 1-26 1-39 4l-3 1-6 1c-33 7-65 7-98-2l1 2a885 885 0 0 1 22 67c52 176 52 176 38 211-4 7-8 10-15 13l-9 5c-24 16-59 36-89 36h-2l-4-1-1-7 3-6c4-7 7-15 9-22l1-2a397 397 0 0 0 16-76 470 470 0 0 0-2-122c-4-35-11-69-19-103l-1-2-2-7-3 1c-10 1-17 0-25-6-4-6-7-11-6-18l2-9-2-1c-7-2-11-6-14-13-2-7 0-12 4-18l10-9-1-2c-3-5-3-9-2-15 2-4 4-6 8-9 6-2 10-2 16 0l1-2 3-8 1-2c14-36 40-83 78-100 5-2 11-2 16 1Zm-29 93-13 19a308 308 0 0 1-38 43l2-1c10-4 20-2 30 0 12 2 23 3 34-4 15-14 24-45 25-65l-7-2-3-1c-13-3-20 1-30 11Z"/><path fill="#FECC30" d="M293 351c2 4 0 7-1 11l-1 4-1 3c-12 40-19 82-23 124v3l-1 37v4c0 20 0 39 3 58v2c5 35 13 69 27 101-33-7-87-22-107-51-5-14 0-33 3-48l1-7 14-70v-4a2134 2134 0 0 1 10-40v-4c2-6 3-10 8-14l3-4 1-2 2-3 1-3 18-29 43-68ZM689 349l10 13 4 6 1 2a583 583 0 0 0 25 41 1784 1784 0 0 0 36 58v2l2 7 1 3 20 96 1 3a739 739 0 0 1 5 34c3 25 3 25-2 34-6 7-14 11-21 15l-3 1c-25 15-52 27-81 32l1-2c12-30 20-60 25-92v-2c3-22 4-44 4-67v-4a433 433 0 0 0-4-62 676 676 0 0 0-24-118ZM157 255l5 5v3l4 4c5 6 8 10 7 18v2c0 7-1 11-6 16l-9 7-4 4c-1 5 1 8 4 12 2 3 2 6 2 9-4 3-9 4-14 4l-2 1-14-1a505 505 0 0 0-25-3l-23-1h-3c-13 0-24 3-34 11-4-7 0-19 3-26 10-29 31-55 57-71 17-8 36-4 52 6ZM889 255c10 7 18 15 25 25l1 2c13 17 25 38 24 60l-2 2-2-2c-10-8-22-9-34-9h-3c-7 0-14 0-21 2-40 7-40 7-54-2 0-5 1-7 4-11l3-7c-1-5-5-7-9-10-5-4-9-8-11-14-1-8-1-15 4-22a169 169 0 0 1 8-10l-1-2c21-17 47-19 68-2ZM235 157l8 7 2 2a847 847 0 0 1 8 8c13 12 23 27 32 41l1 2a268 268 0 0 1 5 9c4 7 5 13 7 20v3l3 17v3c1 7 0 10-4 15l-2 3c-2 2-3 5-3 8-14-11-24-26-34-40-14-21-14-21-34-33-12 0-24 4-35 8 1-24 3-56 21-74 8-8 16-5 25 1ZM768 150c14 9 18 27 22 42 3 12 4 24 4 36l-4-1c-18-7-18-7-37-5-13 8-21 21-29 33l-26 32-1 1-6 5-1-3-5-8c-4-5-4-9-3-16 5-45 31-83 67-111 6-4 12-8 19-5Z"/><path fill="#8F4900" d="M199 232v3c2 23 9 50 26 67 8 5 16 5 24 5h3c7 0 13 0 19-2 7-1 13 0 20 2l4 1-3-6a40 40 0 0 1 13 7l4 4-42 18-3 1-27 9-3 1c-23 7-23 7-31 4-9-8-9-24-10-36l-1-7a368 368 0 0 1-3-66l4-2 3-2 3-1ZM784 230l10 5c0 27-1 53-4 79l-1 2c-2 21-2 21-7 27-4 3-8 2-13 2l-10-2-2-1c-18-4-34-11-50-17l-3-1-30-13 10-8 3-2 2-1 2 1-3 5 9-2c6-2 11-1 18 0l19 1h3c9 0 16-1 23-8 15-18 23-44 24-67Z"/><path fill="#FEE8A3" d="m127 245-9 5-3 1-3 1c2 2 8 2 11 3l4 3 1 2-3 1c-21 10-21 10-36 26v2l3 1a4835 4835 0 0 1 14 3l1 4c-1 4-4 5-7 7l-12 9v1h3l3 1h4l7 4-3 4-2 1h-2l-3 1-15 7-16 4c-7 2-13 5-19 10-4-7 0-19 3-26 10-29 31-55 57-71 7-3 14-5 22-4ZM856 243c15-1 26 5 37 15 8 6 15 14 21 22l1 2c13 17 25 38 24 60l-2 2-2-2c-7-5-13-7-21-9l-18-6-17-7v-4c3-2 6-3 10-3l3-1h3c-1-4-4-5-7-7l-3-2-3-2-6-4c1-5 1-5 3-7l8-2h2l5-1c-2-4-3-7-7-10l-2-2c-6-5-12-8-19-11l-11-6 2-4 7-2c4 0 4 0 7-2l-3-1-3-1-3-2-6-3Z"/><path fill="#8F4900" d="M157 255c10 3 17 11 23 19l1 1a189 189 0 0 1 1 11v3l6 36v3c2 9 4 17 11 23 8 5 19 2 28 0h3l29-9 2-1 27-10 3-1 2 1c-16 11-36 18-55 22h-2a143 143 0 0 1-35 3 211 211 0 0 1-69-13l-15-4v-1l17 1 13-1h2c4-1 7-1 10-3 0-5-1-7-4-11l-3-7c2-6 6-8 10-11 5-4 8-7 10-13 1-8 1-15-4-22l-4-5-6-9-1-2ZM823 254l2 1-5 7-1 2-2 2c-6 8-7 15-6 25 2 8 8 12 15 17l4 4c1 5-1 8-4 12-2 3-2 6-2 9l12 3h30l-8 3-2 1-3 1h-2a202 202 0 0 1-113 8c-16-4-34-10-48-20l2-1 8 3c20 8 40 15 61 19l3 1c7 1 15 1 21-3 9-8 10-21 12-32v-4a272 272 0 0 0 4-30c0-6 1-9 4-13l4-3 3-3 11-9Z"/><path fill="#FEE8A5" d="M264 515h1v4c1 61 6 122 31 179-23-5-47-12-68-24l-1-2h2c11 3 11 3 22-1 6-5 8-10 8-18v-9a2292 2292 0 0 0 1-27v-3l1-38v-3l3-58ZM718 513h1c4 69 4 69 4 97v16a1867 1867 0 0 1 0 18v3c1 8 2 14 7 20l2 2 1 1c7 4 16 1 23 0-9 10-28 14-40 18l-4 2-25 6 1-2c24-58 29-118 30-181Z"/><path fill="#8F4A00" d="M299 334c2 3 0 6-1 9l-1 2c-1 5-3 8-7 11l-5 8-4 6-1 2a583 583 0 0 1-24 39 2034 2034 0 0 1-34 54 254213628 254213628 0 0 1 23-90c2-8 2-8 6-11l9-2 12-7 2-1a154 154 0 0 0 22-18l3-2ZM683 332l10 8a151 151 0 0 0 33 21c5 1 8 3 11 7l4 14a1049 1049 0 0 0 14 52l1 4a2056 2056 0 0 1 4 13l1 3 1 3-1 6a253 253 0 0 1-25-39 1098 1098 0 0 0-45-72l-3-3-3-7v-3l-2-7Z"/><path fill="#FECC2F" d="M97 340c14 2 27 6 40 10a185 185 0 0 0 143-9l2 1c-13 10-27 18-43 23l-4 1c-27 8-55 8-83 2l-3-1-12-3-27-6c-27-5-27-5-32-10l2-7c5-3 12-1 17-1ZM901 338c4 4 4 4 4 7-3 5-10 6-15 8l-22 4-4 1a786 786 0 0 1-42 9l-2 1-5 1c-23 4-49 1-71-6l-2-1c-15-5-28-12-41-22l2-1 4 2 2 1 3 1a164 164 0 0 0 66 16c26 1 50-6 75-13 38-11 38-11 48-8Z"/><path fill="#FEE8A5" d="M768 150c14 8 18 26 22 41l1 12-5-8c-5-13-5-13-16-21-17-2-34 7-48 17l-4 4-6 5-2 2-6 4c7-19 34-46 52-56 4-1 8-2 12 0ZM235 157l8 7 2 2a847 847 0 0 1 8 8c10 10 18 21 26 32l-1 2-2-2-3-3-2-1-6-5-4-3a67 67 0 0 0-42-18c-5 0-9 1-12 4-6 8-10 16-14 25h-1c0-16 6-37 18-49 8-8 16-5 25 1Z"/><path fill="#010000" d="M783 230h1c1 16-4 31-10 45l-1 2c-5 11-12 23-24 28l-15 1h-3c-7 0-13 0-19-2-8-1-13 0-20 2h-4c2-5 3-7 8-10 8-3 18-1 27 1 10 1 21 3 31-2 15-10 21-35 25-52l4-13Z"/><path fill="#8F4900" d="M687 233v10l-1 3a177 177 0 0 0-3 21c-1 7 0 10 4 15l2 3 3 5c-1 5-3 7-7 10l-4 3-1 2c-5 4-5 4-8 9v3c-3-2-4-4-5-8-3-24 10-55 20-76Z"/><path fill="#8F4A00" d="M295 235c14 16 21 51 21 72 0 5-1 8-4 12h-1v-3c-1-5-3-6-6-9a601107480 601107480 0 0 1-14-14c1-4 2-6 5-9 4-5 5-8 5-14a448 448 0 0 0-6-35Z"/><path fill="#8F4900" d="m82 340-2 2-1 5c2 3 5 4 8 5l2 1 32 7a223471233 223471233 0 0 0 20 4v1h-5l-3-1-7-1a111 111 0 0 0-16 0h-7c-21-1-39-3-56-15 11-7 22-8 35-8ZM901 338c13-1 23 2 35 7-10 11-26 14-40 15a1028 1028 0 0 1-46 3h-8l8-3 3-1h3l3-1 17-4c14-2 14-2 27-7l1-4-3-5Z"/><path fill="#AF2F71" d="m336 290 4 4v4h2c2 5 2 10 0 16l-3 3c-5 0-9 0-13-3-4-5-5-10-4-17 0-3 1-5 4-7s7-1 10 0ZM659 290c3 5 3 11 1 16-1 4-3 6-6 8-3 1-6 2-10 1-3-3-4-5-4-9v-5l1-5h2v-2l4-6c4-2 9-1 12 2ZM320 322l5 3c2 5 3 11 1 16-1 4-3 7-6 9-4 0-6 0-9-3-3-5-3-10-1-16 4-9 4-9 10-9ZM667 320c5 5 7 10 7 17 0 3 0 5-2 8-3 3-5 3-9 3-4-4-7-8-7-14 0-5 1-8 3-12 3-2 4-3 8-2Z"/><path fill="#541334" d="m315 319 7 1 1 3h-3c-4 0-4 0-6 2-4 6-5 12-4 19l8 7c-6 2-12 3-18 1l-2-1a757 757 0 0 1 3-11c2-8 5-13 12-18l2-3ZM669 318l4 5 3 2c5 7 7 16 9 24-6 3-11 3-18 1l-2-1 3-2c3-2 5-4 5-7 1-7-1-12-4-17-2-2-2-2-6-2h-3l1-3h8Z"/><path fill="#AC2E70" d="m323 260 7 4c2 5 3 10 1 16l-1 2-7 1c-4-3-6-6-7-11 0-6 0-6 3-9l4-1v-2ZM660 258v2l2 1 4 3c2 4 0 8-1 12l-5 5-7-1c-2-5-2-10-1-15 2-4 4-7 8-7Z"/><path fill="#551335" d="M663 287c3 3 3 4 4 8a211 211 0 0 1-1 18l-5 3-2 2c-3 2-5 1-9 1l-5-4h2c6-2 6-2 11-6 2-5 3-10 2-16l-5-5h-6l3-3 11 2Z"/><path fill="#541234" d="M333 288v1l-3 1c-4 1-5 2-7 5-1 6 0 12 3 17 3 4 7 4 12 5-3 3-5 4-10 4-4 0-5-2-8-5l-3-2-1-11v-3l1-8c5-5 9-5 16-4Z"/><path fill="#FEDDED" d="m337 294 4 4c1 5 1 9-2 13l-4 1c-4-2-5-3-7-7-1-4-1-7 1-10 3-2 5-1 8-1ZM652 292l3 3c1 5 0 7-2 11l-4 4-5-1c-3-4-3-8-2-13 3-4 5-5 10-4Z"/><path fill="#541234" d="M323 260v2l-2 1c-3 2-3 2-4 5 0 5 1 9 4 13l6 1 2 1-5 3-3 1-5 1-5-26c5-2 7-2 12-2ZM660 258c5 0 7 0 12 2l-5 26c-4 0-5-1-8-3l-5-2 5-1 4-3c3-5 4-9 2-14l-5-3v-2Z"/><path fill="#FDDCEC" d="M321 329c3 0 3 0 5 2 1 5 0 9-3 13l-2 2-4-1c-2-6-3-10 0-15l4-1ZM662 327c3 0 3 0 5 2 1 6 1 9-2 15-3 0-4-1-6-3-2-4-2-7-2-12 2-2 2-2 5-2Z"/><path fill="#FEDDED" d="M323 265h5c2 2 2 2 2 5 0 4 0 5-3 8l-4-3v-10ZM658 263h2c1 5 1 8-2 13l-5-4v-7c2-2 2-2 5-2Z"/></svg>