<svg id="Assets" xmlns="http://www.w3.org/2000/svg" viewBox="0 0 800 800"><defs><style>.cls-1{fill:#0070ec;}.cls-2{fill:#0064f1;}.cls-3{fill:#12429b;}.cls-4{fill:#73a8ff;}.cls-5{fill:#0056e8;}.cls-6{fill:#5291f1;}.cls-7{fill:#fdd600;}.cls-8{fill:#d9b600;}.cls-9{fill:#fff3ba;}.cls-10{fill:#ff3d3f;}.cls-11{fill:#ff8081;}.cls-12{fill:#009f2a;}.cls-13{fill:#00740b;}.cls-14{fill:#00bf4b;}</style></defs><g id="Forma_2220" data-name="Forma 2220"><path class="cls-1" d="M662.92,304.45s1.64-41.21-26.26-101.57c-34.77-75.25-69.89-80.32-69.89-80.32,21.14,44.71,76.07,195.79,76.07,195.79C666.34,318.61,662.92,304.45,662.92,304.45Z"/></g><g id="Forma_2221" data-name="Forma 2221"><path class="cls-2" d="M372.91,55.36s-37.9,5.76-85.35-6.18S188.63,35.89,154.33,60s15,39.13,37.08,40.16,48.74-6.26,77.62-17S349.91,62.91,370.21,65,390.42,52.32,372.91,55.36ZM657.13,5.93C607-11.85,528,14.67,496.48,28.72s-70.67,20.85-70.67,20.85c-5.13.07-57.5,16.91.39,11.2S571,90.42,630.1,72.36,707.27,23.71,657.13,5.93Z"/></g><g id="Forma_2228" data-name="Forma 2228"><path class="cls-3" d="M286.11,48.82c-5.27,2.53-11.2,5.57-17.85,9.25-42.56,23.52-96.16,27-96.16,27,16,10.17,57.92,4,88-7.34C281.67,69.65,312,60.61,328.29,55.9a250.71,250.71,0,0,1-40.73-6.72Zm204.58-8.9C453.63,53.5,427,58.07,427,58.07l-2.12,2.83,1.35-.13c17.36-1.71,37.34.27,58.38,3.4C510,40.61,578,10.18,578,10.18,565.24,12.12,527.75,26.34,490.69,39.92Z"/></g><g id="Forma_2227" data-name="Forma 2227"><path class="cls-4" d="M611.18,72.36S673.41,62.94,683,31.42C683,31.42,662.65,59.83,611.18,72.36Zm-463,1.15c3.59,27.85,61.4,22.79,61.4,22.79C154.79,97,148.16,73.51,148.16,73.51Zm129-3.09c-35.54,13-44.32,15.58-55.61,18.15s6.12.77,76.85-19.3c26.51-7.53,41.79-11,50.59-12.52a254.89,254.89,0,0,1-27.09-1.46C309.5,59.19,293.57,64.43,277.14,70.42ZM426.59,55c14.21-2.8,69.89-22.79,69.89-22.79-29.17,10.41-71.82,19.7-71.82,19.7C423.66,52.47,426.59,55,426.59,55Z"/></g><g id="Forma_2222" data-name="Forma 2222"><path class="cls-5" d="M428.13,59.61s-.62-13.08-8.11-16.22c-13.73-5.75-29.72-2.88-36.68.39-6.06,2.85-5.8,11.58-5.8,11.58-18.24,22.29,42.58,20.45,49.82,14.29S428.13,59.61,428.13,59.61Z"/></g><g id="Forma_2226" data-name="Forma 2226"><path class="cls-3" d="M416.93,53.82a74.56,74.56,0,0,1,11.19,5.56c-.13-1.74-1.19-13.09-8.1-16-.44-.18-.88-.36-1.32-.52,2,2.85,4.42,7.09,4.8,11A24.62,24.62,0,0,0,416.93,53.82Z"/></g><g id="Forma_2225" data-name="Forma 2225"><path class="cls-6" d="M393.38,52.66S386,51.81,379.86,55a18.29,18.29,0,0,1,4.08-11.47l-.6.27c-6.06,2.85-5.8,11.58-5.8,11.58a14.85,14.85,0,0,0-3.19,5.83C376.27,59.21,382.38,53.87,393.38,52.66Z"/></g><g id="Elipse_2224" data-name="Elipse 2224"><path class="cls-3" d="M402.75,55.61c-14.13-.35-25.59,3.52-25.59,8.64s11.46,9.55,25.59,9.9,25.6-3.51,25.6-8.63S416.89,56,402.75,55.61Z"/></g><g id="Forma_2222-2" data-name="Forma 2222"><path class="cls-5" d="M419.07,72.94s-.11-8.47-4.88-10.67c-8.74-4-19.15-2.54-23.72-.58-4,1.7-4,7.36-4,7.36-12.3,14,27.07,14.18,31.88,10.36S419.07,72.94,419.07,72.94Z"/></g><g id="Forma_2226-2" data-name="Forma 2226"><path class="cls-3" d="M412,68.94a48,48,0,0,1,7.11,3.85c0-1.13-.47-8.49-4.88-10.52l-.84-.37c1.21,1.89,2.7,4.68,2.86,7.19A15.84,15.84,0,0,0,412,68.94Z"/></g><g id="Forma_2219" data-name="Forma 2219"><path class="cls-7" d="M143.52,312.17s7.82,8.87,17,4.25c.13-2.42,65.65-186.52,65.65-186.52S149,160.22,143.52,312.17Zm496.23-26.26c4.52-41.08-.92-113.57-65.65-164.9S400.33,66.56,400.33,66.56c-32,116.83-.78,218.58-.78,218.58L639.37,296C647,287.88,639.75,285.91,639.75,285.91Z"/></g><g id="Forma_2237" data-name="Forma 2237"><path class="cls-8" d="M545.14,268.53l2.54,0A13.62,13.62,0,0,0,545.14,268.53ZM594.64,140a181.41,181.41,0,0,0-20.54-19,175.22,175.22,0,0,0-18.8-12.93c28.56,25.69,73.91,80.52,76,170.88C631.25,277.16,642.66,208.62,594.64,140Zm-47,128.47c14.36.58,79.9,9.12,83.58,11.25l-.39-3.86S576.21,268.21,547.68,268.48Z"/></g><g id="Forma_2235" data-name="Forma 2235"><path class="cls-9" d="M507.3,269.3s-66.25-10.5-88.82-8.49c1.46-3,2.13-149.19-9.27-188.07,0,0,4.71,146.62,1.93,193.09C411.14,265.83,465.41,266,507.3,269.3ZM155.49,287.45c-2.91,2.92-5.79,10.82-5.79,10.82,2.08-5.56,9.65-8.11,9.65-8.11-.7-59.73,23.56-116.24,23.56-116.24C156.85,221.52,155.42,285.54,155.49,287.45Z"/></g><g id="Forma_2214" data-name="Forma 2214"><path class="cls-10" d="M401.87,67s-6.15-4.9-9.65,1.54c0,0-121.19,7.33-180.35,67.58,0,0-46.59,34.87-47.5,156.4,0,0-7.42,18.79,35.53,10.43s170-17.19,187.68-16.6,12.8-5.24,14.29-11.59S399.86,82.85,401.87,67Z"/></g><g id="Forma_2215" data-name="Forma 2215"><path class="cls-11" d="M173.49,282.76c-1,1.22,3-97,50.19-157.4q-2.46,2-4.83,4.1c-20.71,25.53-51.31,77-50.61,158,0,0,12.13-2.79,17-3.47C185.25,284,178.77,282.13,173.49,282.76ZM392.22,68.49s-1.12.07-3.2.25c-.65,21.89-3.94,145.85,3.58,190.91,0,0,1.25-166.63,4.15-194.47C395.18,65.28,393.52,66.11,392.22,68.49ZM288,120.24c-50.53,43.45-57.54,149.84-57.54,149.84-13.33,2.2-42.86,13.13-42.86,13.13,37.79-10.37,185.36-16.61,185.36-16.61-18.13-2.48-90.75-2.7-90.75-2.7C276,246.53,288,120.24,288,120.24Z"/></g><g id="Forma_2216" data-name="Forma 2216"><path class="cls-12" d="M659.45,343.84c-10.08-40.93-11.59-47.5-11.59-47.5s-110.37-21.63-247.53-21.63-244.45,22-244.45,22-15.4,43.88-13.9,73.37,22.11,56.82,64.49,47.89,117.81-39,200.81-39c97.4,0,177.53,48.38,216.25,40.55C652.36,413.69,669.53,384.76,659.45,343.84Z"/></g><g id="Forma_2236_copia_2" data-name="Forma 2236 copia 2"><path class="cls-13" d="M207.55,352.88c20.48,6.6,44.66-3.46,60.85-6.92,31.62-6.76,76.25-17.52,139.59-20,44.62,0,77.66,5.76,112.46,15.21,16.07,4.37,60,17.92,73,15.07,29-6.37,33.15-35.67,25-59.61a45.92,45.92,0,0,0-2.28-5.55l-4.07-.6a47.11,47.11,0,0,1,5.36,15.78c4.51,28.93-15.08,46.69-33.74,44.87-22.38-2.19-42.28-9.28-62.45-14.2-56-13.67-68.34-15.11-113.31-15.26-93,.24-182,35.66-199.31,27.35-26.74-12.83-18.79-42-10.93-59.31l-4,.59C185.18,309.58,176,342.71,207.55,352.88Zm19-26c17.92,5.38,40-2.81,54.61-5.62,28.37-5.45,68.24-14.1,124.32-16.13,39.48,0,68.82,4.62,100,12.22,14.44,3.53,54.22,14.55,65.71,12.22,23.05-4.66,26.81-24.29,21-42l-3.17-.42c.24.76.46,1.53.66,2.32,5.69,23.05-10.72,37.41-27.46,35.93-20.06-1.78-38.06-7.52-56.15-11.49-49.88-11-60.84-12.1-100.57-12.22-82,.19-162.83,28.71-177.69,22-17.77-8-16.45-23.7-11.23-36.73l-3.56.48C206.78,302.3,204.69,320.36,226.54,326.92Zm412.06-19a62.83,62.83,0,0,0-7.37-14.51l-4.74-.77a70.33,70.33,0,0,1,11.72,27.25c7.12,36.42-13.41,59.11-34.37,56.77-25.11-2.81-47.64-11.87-70.28-18.15-62.45-17.31-76.16-19.12-125.9-19.31C305,339.5,203.84,384.56,185.23,374c-32.23-18.36-14.28-62.14-4-81.74l-4.45.74c-11.12,21.9-31.14,71.58,6.94,86,22.43,8.5,50.1-4.45,68.36-8.89,35.51-8.62,85.42-22.28,155.62-25.48,49.42,0,86.15,7.29,125.12,19.31,18.09,5.57,67.88,23,82.26,19.3C647,375.05,649.35,337.82,638.6,307.92Z"/></g><g id="Forma_2216_copia_3" data-name="Forma 2216 copia 3"><path class="cls-14" d="M662,353.17c-2.4,24.84-17.29,41.6-38.48,45.89-38.72,7.83-118.85-40.55-216.25-40.55-83,0-158.43,30.08-200.81,39-41.09,8.66-61.71-16.75-64.3-45.18a96.67,96.67,0,0,0-.19,12c1.5,29.49,22.11,56.81,64.49,47.89s117.81-39,200.81-39c97.4,0,177.53,48.38,216.25,40.55C648.67,408.65,664.93,386,662,353.17Z"/></g><g id="Forma_2216_copia_2" data-name="Forma 2216 copia 2"><path class="cls-13" d="M662,359c-2.4,24.84-17.29,41.61-38.48,45.89-38.72,7.83-118.85-40.55-216.25-40.55-83,0-158.43,30.08-200.81,39-41.09,8.65-61.71-16.76-64.3-45.19a96.7,96.7,0,0,0-.19,12c1.5,29.5,22.11,56.82,64.49,47.89s117.81-39,200.81-39c97.4,0,177.53,48.38,216.25,40.55C648.67,414.44,664.93,391.8,662,359Z"/></g></svg>