<svg id="Assets" xmlns="http://www.w3.org/2000/svg" viewBox="0 0 800 800"><defs><style>.cls-1{fill:#39024d;}.cls-2{fill:#60037c;}.cls-3{fill:#8824a2;}.cls-4{fill:#c78b00;}.cls-5{fill:#e36926;}.cls-6{fill:#ff975b;}.cls-7{fill:#c64600;}.cls-8{fill:#ffcd49;}</style></defs><g id="Forma_2650" data-name="Forma 2650"><path class="cls-1" d="M792.67,226.35c-7.07-10-88.83-29.9-161.6,46.41,0,0,29.47,34.8,91.23,8S799.73,236.4,792.67,226.35Z"/></g><g id="Forma_2640" data-name="Forma 2640"><path class="cls-2" d="M793.38,226c-1-2.15-1.75-3.46-4.58-4.54a23.43,23.43,0,0,0-3.86-2.48c-16.77-8.88-75.79-26-111-10,0,0-32.8-11.16-57.6-8.89,0,0-78.05-42.84-185.93-5.13L224,195.43s-33.51-.89-74.81,18.45c0,0-57.86-6.9-96-1.42,0,0-52.39-15.9-47.2,9.74s55.92,60.32,82.27,70.94,178.42,84.73,344.36,41.78c0,0,22.37-2.58,40.31-3.6S566.53,318.9,609,292c40.33-25.51,94.86-66.78,159-61.94,9.15,2,37.56,11.7-43.06,45.31-17.73,7.4-27,9.91-51.39,15.34,15.13.76,28.52-1.18,48.72-9.94C784.07,254,798.58,237.37,793.38,226Z"/></g><g id="Forma_2651" data-name="Forma 2651"><path class="cls-1" d="M61.83,211.45l-2.09.21-.23,0-1.81.2-.39.05-1.64.2-.46.06c-.67.08-1.34.17-2,.27h0c-.24-.07-2.25-.67-5.31-1.42,1.41,20.16,20.55,89.55,213.29,115.38C261.16,326.41,65.91,290.43,61.83,211.45Zm450.17,54s29.94-5.58,60.91-28.6a406.22,406.22,0,0,0,43.11-37l-.2-.1h0l-.23-.12,0,0-.25-.13,0,0-.71-.35h0l-.41-.2h0c-1.51-.73-3.79-1.79-6.76-3-7,6.77-20.56,19.76-35.12,32.09C534,260.32,512,265.45,512,265.45Zm162.74-56.88-.79.34h-.08l-.06,0,0,0-.09,0h0l-.13,0h0l-.18-.06h0c-1.87-.6-7.55-2.4-15.14-4.22l-.08.08s-15.8,6.47-61,46.42c-36.75,32.52-136.41,55.51-136.41,55.51s79.16,2.32,143.34-45.83C642.23,232,674.61,209.88,675,209.7,674.94,209.65,674.87,209.22,674.74,208.57Zm-91-20.74a240.78,240.78,0,0,0-51.89-8.17c-41.12,6.1-100.88,15-101.42,15.23L224,195.43h-2c-.3.38-.59.75-.87,1.14,0,0,14.42,21.87,50.16,28.18l11.52,8.59s-3.65,6.55,4.87,8.93,55.08,14.59,68.06.84C355.77,243.12,609.11,235.55,583.73,187.83ZM179,228.39c-7.24-10-12.59-16.3-16.54-20.16h0l-1.74.69-.57.22-1.19.48-.68.28-1.1.46-.71.3-1.09.46-.72.31-1.11.49-.7.3-1.21.55-.6.27-1.82.84h-.11l-1.08-.13h0l-.34,0c4.62,3,12.48,9.29,23.7,22.38,19.28,22.48,65.38,41,108.72,39.4C280,275.48,205.48,265.06,179,228.39Z"/></g><g id="Forma_2652" data-name="Forma 2652"><path class="cls-3" d="M27,226.2s-8.56-6.45-4.57,3.85c.36.21,4.47,13.95,34,35.35,29.29,21.07,84,49.8,179.22,72.53a823.93,823.93,0,0,1-93.52-32.83C93.76,284.68,41.14,255.51,27,226.2Zm403.53,93c-37.27,9.89-127.89,21.59-127.77,21.53-.11.14,85.76-1.4,127.35-14.26,41.28-12.76,94.32-15.31,94.37-15.33S467.78,309.34,430.54,319.18ZM729,213.1c-23.08,1.8-58.1,12.37-101.71,49.08a434.33,434.33,0,0,1,51.27-26.47c28.55-12.41,63.27-23.08,85.16-17.21C763.55,218.41,752.24,211.37,729,213.1Z"/></g><g id="Forma_2642" data-name="Forma 2642"><path class="cls-2" d="M607,67.84c-1.73-9.94-50.81-48.39-70-53.89S480.67,2.18,460.38,1.39s-77.54,18.55-95.17,23.87-28.52,31.35-28.52,31.35C326,61.18,292.47,100,279.82,117.31s-15.73,37.88-15.73,37.88,21.57,35.16,23,36.16,140.7,4.23,140.7,4.23l114.15-29,0-15.36c-6-14.94-19.11-27.95-27.62-34.68s-22.2-14.23-22.2-14.23c-9.91-11.67-9.45-50.66-9.35-52.47,1.2-7.71,17.38-15,17.38-15,20,1.62,66.46,24.66,74.6,29.93S581.53,86,581.53,86c-6.68,13.63,8.33,25.73,17.33,24.63s-5-8-5.76-15.59S608.68,77.77,607,67.84Z"/></g><g id="Forma_2647" data-name="Forma 2647"><path class="cls-1" d="M500.44,107.15c-4.7-2.85-8.34-4.85-8.34-4.85a28.37,28.37,0,0,1-4.82-9.88c-11.85-4.65-28.94-12.49-37.08-21.68C455.3,77,473,98,500.44,107.15ZM449,69.27c.38.49.79,1,1.22,1.47C449.64,70.06,449.23,69.55,449,69.27ZM338.62,52.55c-1.27,2.47-1.93,4.06-1.93,4.06A16.75,16.75,0,0,0,334.21,58,23,23,0,0,1,337,57c7.76-2.34,36.6-8,47.3-13.32,0,0-17.13,4.19-32.79,6.52C346.62,50.88,342.38,51.65,338.62,52.55ZM495.41,128.6c-39.64-12.45-64.15-37.95-64.15-37.95s7.55,27.23,25.15,40.78,42.42,28.12,44.54,40.75c4.93-.83,37.16-11.76,37.16-11.76S534.7,141,495.41,128.6Z"/></g><g id="Forma_2644" data-name="Forma 2644"><path class="cls-4" d="M333.45,162.14s-8.73,26.6-12.19,65.1c1.69-.32,14.24,2,14.24,2s5-41.47,11.52-66.75Z"/></g><g id="Forma_2641" data-name="Forma 2641"><path class="cls-5" d="M570.9,182.88s-1.59-18.63-15.64-24.3c0,0-7.74-13-15.42-11.35,0,0,3.46,8.61-13.39,12.64,0,0-163.62,36.35-253.64-5.18a22.48,22.48,0,0,1-8.32-9.08s-17.28.28-17.47,10.7c0,0-15.11,16-12.49,27.55,0,0-10.92,8.2-5.39,11.34s126.18,65.35,330.43,5.51C559.57,200.71,583.59,193.57,570.9,182.88Z"/></g><g id="Forma_2649" data-name="Forma 2649"><path class="cls-6" d="M260.56,146c-5.11.77-13.41,3.13-13.54,10.33,0,0-15.11,16-12.49,27.55,0,0-10.92,8.2-5.39,11.34l.39.22c4-8.15,7.39-5.4,7.39-5.4,26.55,13,37.06,9.39,37.06,9.39C252,194.73,242,185.15,242,185.15a36.47,36.47,0,0,1-.07-7.45c16.17,11.05,31.44,8.1,31.44,8.1C256.57,183.25,245,174,244,173.81c.6-4.64,4.15-10.37,6.65-14.26s.63-6.16.63-6.16C266.48,163.53,284.07,166,284.07,166,266.18,159.51,261.58,151.1,260.56,146Zm128.32,37.88s.22,23.79-2.62,36.46C386.86,218.73,394.22,207.44,388.88,183.86Zm-53.46,2.91-5.46-3.2c.08-3.09.07-6.44,0-10.08,0,0-7.92,28-7.52,44.4-.06-.63,2-3,4-9.29l3.9.86L327,206.78a76.08,76.08,0,0,0,2.1-10.7l3.34-.23-3.1-1.83c.27-2.47.47-5.18.59-8.17Z"/></g><g id="Forma_2648" data-name="Forma 2648"><path class="cls-7" d="M338.19,220.16s12.58-5.11,7.49-43.76Zm-31.65-48.62c-.74,1.24-7.74,22.84-8.24,25.28s.25,21.39.25,21.39l11.65,1.95L320.27,169l-7.14-1.3S307.29,170.31,306.54,171.54ZM570.9,182.88s-1.59-18.63-15.64-24.3a39.56,39.56,0,0,0-3.07-4.29c-5.86,7.3-30,20.13-125,26.65,0,0,67.77,5.19,113.24-12,0,0,11.31,3.92,11.8,7.45,0,0-13.86,10.64-50.68,17.83,0,0,41-3.42,52.57-8.75,0,0,7.94,1.32,6.25,4.54,0,0-37.78,24.12-160.13,32.07,1.48,0,17.23,1.59,39.41,2.1,35.89-3.38,76-10.61,119.9-23.48C559.57,200.71,583.59,193.57,570.9,182.88Zm-185-8.1-7.93-.32c4.64,10.9-.27,52.18-.27,52.18l7.58-.33C393.4,178.5,385.85,174.78,385.85,174.78Z"/></g><g id="Forma_2643_copia" data-name="Forma 2643 copia"><path class="cls-4" d="M364.5,162A324.92,324.92,0,0,0,325,157.51s-22.24-3.32-29,14.89c-7.81,21-22.62,53.29,9.7,57.9s70.44,11.12,73.69-6.47S387.87,166,364.5,162Zm1.29,56.44c-2.35,14.06-29,8.85-51.68,5.17s-12.12-29.47-6.56-46.29c4.81-14.55,20.39-11.89,20.39-11.89a198.23,198.23,0,0,1,27.7,3.62C372,172.28,368.13,204.42,365.79,218.48Z"/></g><g id="Forma_2644_copia" data-name="Forma 2644 copia"><path class="cls-8" d="M306.48,220.91c2.18,2.63,5.56,4.52,10.55,5.33l4.25.7c.07-.7.13-1.39.2-2.08l-7.37-1.21A19.59,19.59,0,0,1,306.48,220.91Zm68.2-53.34A17.28,17.28,0,0,0,364.5,162,324.92,324.92,0,0,0,325,157.51s-22.24-3.32-29,14.89c-6.51,17.52-17.86,42.81-2.81,53.45-10.47-11.75-.3-34.64,5.73-50.86,6.76-18.21,29-14.88,29-14.88a322.22,322.22,0,0,1,39.54,4.53A17.47,17.47,0,0,1,374.68,167.57Zm-12.14,5.67c8.14,9.85,5.18,33.66,3.25,45.24-1.61,9.64-14.66,10.22-30,8.45-.15,1.18-.25,1.94-.28,2.2,16.69,2.2,31.48,2.24,33.19-8.06C370.84,208.29,374.23,180.58,362.54,173.24Z"/></g></svg>