<svg id="Assets" xmlns="http://www.w3.org/2000/svg" viewBox="0 0 800 800"><defs><style>.cls-1{fill:#f4c400;}.cls-2{fill:#f0ac01;}.cls-3{fill:#eb9300;}.cls-4{opacity:0.62;}.cls-5{fill:#e49500;}.cls-6{fill:#ffe266;}.cls-7{fill:#ffd525;}.cls-8{fill:#ffefa6;}.cls-9{fill:#d99a0f;}.cls-10{fill:#875200;}.cls-11{fill:#d88202;}.cls-12{fill:#cf6c02;}.cls-13{fill:#965001;}</style></defs><g id="Forma_6325_copia" data-name="Forma 6325 copia"><path class="cls-1" d="M644.15,230.49c4.7-40.16-.22-99.09-19.41-115.45C564.61,50.41,511.05,52.26,511.05,52.26c-3.16-8.91-12.48-16.88-12.48-16.88-55.13-22.09-95.87-21.22-101.69-21-5.54-.25-44.45-1.12-98.52,21,0,0-9.15,8-12.24,16.88,0,0-52.54-1.85-111.52,62.78-18.82,16.36-23.65,75.29-19,115.45,0,0-23.47,17-10.88,45.91S173,331.2,193,333.11c26.2,2.49,41.8-13,104-18.91,58.89-5.56,83.19-4.22,97.59-4.06H397c15-.16,42.76-1.51,102.92,4.06,63.45,5.89,79.35,21.4,106.06,18.91,20.41-1.91,36.38-27.78,49.22-56.71S644.15,230.49,644.15,230.49Z"/></g><g id="Forma_6346" data-name="Forma 6346"><path class="cls-2" d="M619.24,125c-36.36-48.13-93.77-61.38-93.77-61.38-3.65,1.76-11.5,68.61-12.81,71.5S496,248.39,490.4,259.86s124.11,52.61,124.11,52.61,12.18-6.14,20.24-34.4S641.12,150.91,619.24,125Z"/></g><g id="Forma_6347" data-name="Forma 6347"><path class="cls-3" d="M619.24,125a151.09,151.09,0,0,0-17.54-19.39c20.86,60.87,21.08,91.4,14.84,136.08-7,49.86-24.29,29-24.29,29s-46.55-24.83-100.63-14.29a25.55,25.55,0,0,1-1.22,3.5c-.77,1.59,1.07,3.76,4.82,6.32l5.76,3.45c30.19,16.39,113.53,42.84,113.53,42.84s12.18-6.14,20.24-34.4S641.12,150.91,619.24,125Z"/></g><g id="Forma_6345" data-name="Forma 6345"><path class="cls-3" d="M511.05,52.26c-2.14-6-7.1-11.64-10.09-14.63-11.16,38.24-5,175.23-20,214.81-17.83,47,18.21,3.37,18.21,3.37,15.78-62.08,31.6-142.48,32.36-200.64C518.73,52,511.05,52.26,511.05,52.26Z"/></g><g id="Forma_6340" data-name="Forma 6340" class="cls-4"><path class="cls-5" d="M323.79,240.3C242.16,245,203.27,277.37,183.48,274c-18.41-3.11-28.26-62.95-29.53-71.22a266.12,266.12,0,0,0,1.61,27.69s-.28.21-.76.6c14.34,158.75,173.71,33.49,173.71,33.49Z"/></g><g id="Forma_6338_copia" data-name="Forma 6338 copia"><path class="cls-6" d="M393.27,273.35c-117.55,7.26-220,34.08-216.53,33.73,0,0,6,20.13,29.68,17.53,8.24-.9,9.07,4,9,6.59,17.46-4.09,38.18-12.89,81.62-17,58.89-5.56,83.19-4.22,97.59-4.06H397c15-.16,42.76-1.51,102.92,4.06,50.58,4.69,70.94,15.5,90.66,18.43,1-2,1.63-3.3,1.63-3.3s24,7.29,29.68-14.16C621.93,315.17,510.81,266.08,393.27,273.35Z"/></g><g id="Forma_6326" data-name="Forma 6326"><path class="cls-7" d="M274.55,66.26s-68.05,23.87-89.72,64.09S170,231.22,170.67,240.3c.62,1.5,6.15,11.16,6.74,9.44s3.14-30.45,16.19-54.64,18.91-29.56,19.56-31c0,0,5.77,21.15,16.87,24.29,5.83.66,19.77-6.11,29.68-16.19s14.84-41.82,14.84-41.82,1.78,33.19,18.88,69.47C293.43,199.82,276.84,108.09,274.55,66.26Z"/></g><g id="Forma_6328" data-name="Forma 6328"><path class="cls-8" d="M255,92.57c-31.36,23.65-39.12,52.62-39.12,52.62,4.39,7.69,25,18.21,25,18.21,8.19-21.31,28.33-53.29,28.33-53.29C265.68,102.54,255,92.57,255,92.57Z"/></g><g id="Forma_6328_copia" data-name="Forma 6328 copia"><path class="cls-6" d="M274.55,66.26s-68.05,23.87-89.72,64.09S170,231.22,170.67,240.3c.62,1.5,6.15,11.16,6.74,9.44.2-.58.63-4.21,1.59-9.69.91-29.39,4.66-83.67,18.65-103,17.52-24.16,48.91-50.22,77.74-59.53C275,73.51,274.74,69.71,274.55,66.26Z"/></g><g id="Forma_6343" data-name="Forma 6343"><path class="cls-9" d="M499.17,173.52c-4.87,4.95-147.68,0-168-14.84s-31-74.2-31-74.2c-5.78,29.8,19.42,144.33,22.26,167.28s165,3,165.26,2C492.65,235,499.92,174.84,499.17,173.52Z"/></g><g id="Forma_6342" data-name="Forma 6342"><path class="cls-7" d="M489.72,51.42c-69.18-21.45-163.89-11.05-174,0-3.82,4.18-5.33,12-7.42,29s7.25,68.59,22.26,78.92c33.83,23.28,142.72,28.28,156.5,21.59S517.2,60,489.72,51.42Z"/></g><g id="Forma_6341" data-name="Forma 6341"><path class="cls-8" d="M306.25,35.91a43.19,43.19,0,0,0,2,20.45s11.18-5,31.34-13.25C359.33,35.52,403,24.2,431,22.42,408.85,14.78,334.35,20.44,306.25,35.91Z"/></g><g id="Forma_6338" data-name="Forma 6338"><path class="cls-8" d="M304.9,120.9c-4.45-37.05-6.06-68.6-6.13-85.69l-.41.17S291,41.84,287.21,49.63c1.15,15.08,2.58,37.91,11.62,94.88,10.38,65.45,18.89,105.23,18.89,105.23s6.39,2.76,6.74,0S311.36,174.66,304.9,120.9Z"/></g><g id="Forma_6344" data-name="Forma 6344"><path class="cls-10" d="M511.05,52.26c-2.8-7.89-10.42-15-12.13-16.57,1.15,28.5,2.79,124-20,224.84l8.1.68s23-140.73,24.89-208.95Z"/></g><g id="Forma_6332" data-name="Forma 6332"><path class="cls-5" d="M643.52,239c-3.17,21.83-16.46,51.5-22.26,60.71s-12.14.67-12.14.67S554.17,241,395.29,241s-194.87,45.09-202.36,53.29-12.14.67-12.14.67c-15-26.51-24.29-56.66-24.29-56.66-14.46,20.16,10.41,57.59,14.17,64.08s16.53,22.44,32.38,18.22c27.26-7.28,84.08-27.66,192.24-27.66s202.36,32.38,202.36,32.38c8.29,2.76,20.91,4.35,40.47-31C660.74,253.36,643.52,239,643.52,239Z"/></g><g id="Forma_6335" data-name="Forma 6335"><path class="cls-11" d="M395.29,241c-2.09,0-4.15,0-6.21,0-7.41,1.06-14.15,2.18-19.42,3.34-3,5.46-1.48,25.39,0,40.48,0,0-18.29,2.26-52,12a737.3,737.3,0,0,1,77.59-3.88,628.33,628.33,0,0,1,86.4,6.28c4.12-18.12,14-36.6,20.55-47.57C473.53,245.3,438.2,241,395.29,241Z"/></g><g id="Forma_6334" data-name="Forma 6334"><path class="cls-12" d="M198.32,303.7c6.47-22.89,33.46-32.79,62.12-47.18-47.64,13.87-62.93,32.72-67.51,37.74-7.49,8.19-12.14.67-12.14.67-15-26.51-24.29-56.66-24.29-56.66-14.46,20.16,10.41,57.59,14.17,64.08s16.53,22.44,32.38,18.22c16.73-4.47,44.59-13.87,88.62-20.46C250.27,301.56,191.06,329.42,198.32,303.7Zm431.59-21.3a146.31,146.31,0,0,1-8.65,17.26c-5.8,9.2-12.14.67-12.14.67s-35.92-38.78-133.61-53.65c-8.29.5-15.47,1.26-17.49,2.38-5.56,3.11-10.79,41.15-10.79,41.15s-21.94-.86-42.58,2.78c104.17,1.77,193,32.3,193,32.3,8.29,2.76,20.91,4.35,40.47-31q1.74-3.15,3.17-6.09Q635.25,285.16,629.91,282.4Z"/></g><g id="Forma_6333" data-name="Forma 6333"><path class="cls-13" d="M163.72,290.4c-3.26-10.69-6.34-23.46-5.19-31.22,0,0,12.08,27.95,21.08,33.64-14.3-26-23.11-54.55-23.11-54.55C146.16,252.69,155.94,276,163.72,290.4ZM643.52,239c-3.17,21.83-16.46,51.5-22.26,60.71s-12.14.67-12.14.67-14.67-15.84-50.76-31.16c33,18.05,46.64,30.87,48.06,37.23,1.38,6.19.24,13-10.19,18.41l1.42.48c8.29,2.76,20.91,4.35,40.47-31C660.74,253.36,643.52,239,643.52,239Z"/></g></svg>