<svg xmlns="http://www.w3.org/2000/svg" id="Assets" viewBox="0 0 800 800"><defs><style>.cls-3{fill:#eb9300}.cls-5{fill:#e49500}.cls-6{fill:#ffe266}.cls-7{fill:#ffd525}.cls-8{fill:#ffefa6}</style></defs><path id="Forma_6325_copia" d="M644 230c5-40 0-99-19-115-60-65-114-63-114-63-3-9-12-17-12-17-56-22-96-21-102-21s-45-1-99 21c0 0-9 8-12 17 0 0-52-2-111 63-19 16-24 75-19 115 0 0-24 17-11 46s28 55 48 57c26 3 42-13 104-19 59-5 83-4 98-4h2c15 0 43-1 103 4 63 6 79 22 106 19 20-2 36-28 49-57s-11-46-11-46Z" data-name="Forma 6325 copia" style="fill:#f4c400"/><path id="Forma_6346" d="M619 125c-36-48-94-61-94-61-3 1-11 68-12 71s-17 113-23 125 125 52 125 52 12-6 20-34 6-127-16-153Z" data-name="Forma 6346" style="fill:#f0ac01"/><path id="Forma_6347" d="M619 125a151 151 0 0 0-17-19c21 60 21 91 15 136-7 50-25 29-25 29s-46-25-100-15a26 26 0 0 1-2 4c0 1 1 4 5 6l6 4c30 16 114 43 114 43s12-7 20-35 6-127-16-153Z" class="cls-3" data-name="Forma 6347"/><path id="Forma_6345" d="M511 52c-2-6-7-11-10-14-11 38-5 175-20 214-18 47 18 4 18 4 16-62 32-143 33-201-13-3-21-3-21-3Z" class="cls-3" data-name="Forma 6345"/><path id="Forma_6340" d="M324 240c-82 5-121 37-141 34-18-3-28-63-29-71a266 266 0 0 0 2 27s-1 1-1 1c14 159 174 34 174 34Z" class="cls-5" data-name="Forma 6340" style="opacity:.62"/><path id="Forma_6338_copia" d="M393 273c-117 8-220 34-216 34 0 0 6 20 29 18 9-1 9 4 9 6 18-4 39-13 82-17 59-5 83-4 98-4h2c15 0 43-1 103 4 51 5 71 16 91 19l1-4s24 8 30-14c0 0-111-49-229-42Z" class="cls-6" data-name="Forma 6338 copia"/><path id="Forma_6326" d="M275 66s-68 24-90 64-15 101-14 110c0 2 6 11 6 10s4-31 17-55 19-29 19-31c0 0 6 21 17 24 6 1 20-6 30-16s15-42 15-42 1 34 18 70c0 0-16-92-18-134Z" class="cls-7" data-name="Forma 6326"/><path id="Forma_6328" d="M255 93c-31 23-39 52-39 52 4 8 25 18 25 18 8-21 28-53 28-53-3-7-14-17-14-17Z" class="cls-8" data-name="Forma 6328"/><path id="Forma_6328_copia" d="M275 66s-68 24-90 64-15 101-14 110c0 2 6 11 6 10l2-10c1-29 5-84 19-103 17-24 49-50 77-59V66Z" class="cls-6" data-name="Forma 6328 copia"/><path id="Forma_6343" d="M499 174c-5 4-148 0-168-15s-31-75-31-75c-6 30 20 145 22 168s165 3 166 2c5-19 12-79 11-80Z" data-name="Forma 6343" style="fill:#d99a0f"/><path id="Forma_6342" d="M490 51c-69-21-164-11-174 0-4 5-6 12-8 29s8 69 23 79c33 24 142 29 156 22s30-121 3-130Z" class="cls-7" data-name="Forma 6342"/><path id="Forma_6341" d="M306 36a43 43 0 0 0 2 20s11-5 32-13c19-7 63-19 91-21-22-7-97-2-125 14Z" class="cls-8" data-name="Forma 6341"/><path id="Forma_6338" d="M305 121c-5-37-6-69-6-86h-1s-7 7-11 15a2217 2217 0 0 0 31 200s6 3 6 0-13-75-19-129Z" class="cls-8" data-name="Forma 6338"/><path id="Forma_6344" d="M511 52c-3-8-10-15-12-16 1 28 3 124-20 225h8s23-141 25-209Z" data-name="Forma 6344" style="fill:#875200"/><path id="Forma_6332" d="M644 239c-4 22-17 52-23 61s-12 0-12 0-55-59-214-59-195 45-202 53-12 1-12 1c-15-27-24-57-24-57-15 20 10 58 14 64s16 23 32 19c27-8 84-28 192-28s203 32 203 32c8 3 21 5 40-31 23-41 6-55 6-55Z" class="cls-5" data-name="Forma 6332"/><path id="Forma_6335" d="M395 241h-6l-19 3c-3 6-2 26 0 41 0 0-19 2-52 12a737 737 0 0 1 77-4 628 628 0 0 1 87 6c4-18 14-36 20-47-28-7-64-11-107-11Z" data-name="Forma 6335" style="fill:#d88202"/><path id="Forma_6334" d="M198 304c7-23 34-33 62-47-47 13-62 32-67 37-8 8-12 1-12 1-15-27-24-57-24-57-15 20 10 58 14 64s16 23 32 19c17-5 45-14 89-21-42 2-101 29-94 4Zm432-22a146 146 0 0 1-9 18c-6 9-12 0-12 0s-36-38-133-53l-18 2c-6 3-11 41-11 41s-22-1-42 3c104 2 193 32 193 32 8 3 21 5 40-31l3-6-11-6Z" data-name="Forma 6334" style="fill:#cf6c02"/><path id="Forma_6333" d="M164 290c-4-10-7-23-5-31 0 0 12 28 21 34-15-26-23-55-23-55-11 15-1 38 7 52Zm480-51c-4 22-17 52-23 61s-12 0-12 0-15-15-51-31c33 18 47 31 48 37 2 7 1 13-10 19h2c8 3 21 5 40-31 23-41 6-55 6-55Z" data-name="Forma 6333" style="fill:#965001"/></svg>