<svg xmlns="http://www.w3.org/2000/svg" id="Assets" viewBox="0 0 800 800"><defs><style>.cls-1{fill:#b48e65}.cls-2{opacity:.6}.cls-3{fill:#895b4c}.cls-8{fill:#a58064}.cls-9{fill:#f3ca97}</style></defs><path id="Forma_6431" d="M99 193s-31-13-38 17c0 0-34 3-23 36 0 0-23 14-11 36 0 0-31 16-9 43 0 0-4 19 9 29 0 0 1 24 20 22 0 0 9 25 46 7 6-13 46-148 6-190Z" class="cls-1" data-name="Forma 6431"/><g id="Forma_6433" class="cls-2" data-name="Forma 6433"><path d="M92 245s-25 1-20 26c0 0-28 7-20 33 0 0-22 14-4 39 0 0-16 4-19-20 0 0-7 14 2 28 0 0-3 4-2 12 2 6 7 14 18 13 0 0 9 25 46 7 2-4 8-22 13-46-1-22-5-52-14-92Z" class="cls-3"/></g><path id="Forma_6431-2" d="M774 282c12-22-11-36-11-36 11-33-23-36-23-36-7-30-37-17-37-17-40 42-1 177 5 190 37 18 46-7 46-7 19 2 20-22 20-22 14-10 9-29 9-29 22-27-9-43-9-43Z" class="cls-1" data-name="Forma 6431"/><g id="Forma_6433-2" class="cls-2" data-name="Forma 6433"><path d="M772 323c-3 24-19 20-19 20 18-25-4-39-4-39 8-26-20-33-20-33 5-25-20-26-20-26-9 40-13 70-14 92 5 24 11 42 13 46 37 18 46-7 46-7 11 1 16-7 18-13 1-8-2-12-2-12 9-14 2-28 2-28Z" class="cls-3"/></g><path id="Forma_6418_copia_2" d="M743 699s-16-16-4-78c17-117-28-284-43-317l-24-117c-2-32-12-104-56-124a657 657 0 0 0-437 0c-44 20-54 92-56 124L99 304c-15 33-60 200-43 317 12 62-4 78-4 78s-19 12-16 31 58 53 81 10 30-119 31-122l26-222 40-122a226 226 0 0 1 366 0c3 4 39 119 40 122l27 222c1 3 7 79 31 122s78 9 81-10-16-31-16-31Z" data-name="Forma 6418 copia 2" style="fill:#ff3239"/><path id="Forma_6420" d="M61 696c22-30-4-90 0-159 3-40 16-109 20-179-18 67-38 178-25 263 12 62-4 78-4 78a36 36 0 0 0-5 3c8 0 14 12 27 14 14 2 16-2 16-2-12 0-29-18-29-18ZM179 63c-25 12-39 40-47 68l24-11c7-2 9-16 13-25s7-25 56-38c38-11 96-23 144-31-72 3-142 15-190 37Z" data-name="Forma 6420" style="fill:#ff9498"/><path id="Forma_6421" d="M124 275c-5 0-13 1-20 4l-5 25-12 35a16 16 0 0 0 8 6s-6 28 19 31c0 4 1 40 40 42 0 0 30-80 25-85s-38-57-55-58Zm619 424s-16-16-4-78c17-117-28-284-43-317l-24-117c-2-32-12-104-56-124-45-21-110-33-178-36 39 9 126 30 165 44 25 10 40 70 40 70s-21 191-19 196c2 4 15 193 21 273l2 8c1 3 7 75 29 119 13-9 27-24 16-46 0 0 12-23 1-35 0 0 8-25-7-38 0 0 17-24-4-44 0 0 17-26 0-51 0 0 14-22-3-41 0 0 11-18-3-36a42 42 0 0 0 4-32c2 2 18-7 28-17 0 0 20 59 24 122 5 94-17 154 0 177a63 63 0 0 1-21 23s19-5 26-11 16 11 19 19l3-6c-3-14-16-22-16-22Z" data-name="Forma 6421" style="fill:#b90b11"/><path id="Forma_6424" d="m200 363-48-9s-24 32-12 56c0 0-12 19-6 36a43 43 0 0 0-4 39s-17 19-5 39c0 0-18 23-4 50 0 0-16 23-1 47 0 0-12 19-2 35 0 0-15 14-5 34 0 0-17 15-7 35 0 0-11 3-10 12 0 0-22-7-31 2 0 0-14-6-19-4l-8-13s1-8 5-14c0 0-6-7-14-1-10 8-6 17-6 17s-21 5-11 32 55 26 55 26a31 31 0 0 0 23 9c15-1 23-9 23-9s34 5 38-34c0 0 29-12 17-44 0 0 26-21 13-56 0 0 20-13 9-46 0 0 15-14 2-44 0 0 19-19 2-51 0 0 17-22-2-53 0 0 14-13 9-42 0 0 11-14-1-49Zm572 360s4-18-19-15l3 16s-6 6-4 10c0 0-14-2-23 5 0 0-9-8-28-1 0 0-2-8-14-12 0 0 12-18-2-33 0 0 11-20-4-36 0 0 9-20-3-40 0 0 14-20-5-41 0 0 12-26-4-52 0 0 14-15-4-41 0 0 9-19-4-37 0 0 11-16-5-36 0 0 13-24-8-56 0 0-53 3-53 7s-13 42-1 56c0 0-7 26 9 35 0 0-18 24-3 57 0 0-16 22 2 50 0 0-13 26 3 45 0 0-13 28 9 46 0 0-15 32 13 56 0 0-13 29 18 44 0 0 2 34 35 32 0 0 26 22 50 0 0 0 54 0 55-38 1-19-13-21-13-21Z" data-name="Forma 6424" style="fill:#cca479"/><path id="Forma_6426" d="M703 752a40 40 0 0 0-1-14h-1s-2-8-14-12c0 0 12-18-2-33 0 0 11-20-4-36 0 0 9-20-3-40 0 0 14-20-5-41 0 0 12-26-4-52 0 0 14-15-4-41 0 0 9-19-4-37 0 0 11-16-5-36 0 0 13-24-8-56 0 0-53 3-53 7 0 2-4 15-5 29 9 5 26 9 55 2a22 22 0 0 1 1 19s11 24 1 41c0 0 12 18 6 30 0 0 11 23 1 39 6 10 14 32 3 54 0 0 9 29 1 42 0 0 7 24 2 34 0 0-9-2-13 2 0 0 22 5 24 36 0 0-11-3-15 2 0 0 21 8 22 34 0 0 21 14 25 27ZM200 363l-45-8c-5 6-16 24-5 50 5 15 27 9 27 9s3 28-4 40c1 0 10 32 4 51 0 0 17 26-2 52 0 0 11 32 1 49 0 0 4 25-11 41 0 0 13 39-9 55 0 0 6 24-14 38 0 0-3 27-32 26 0 0-20 15-39 4 0 0-17 7-42-3 0 0 15 16 37 11 0 0 15 14 42 7a28 28 0 0 0 5-3s34 5 38-34c0 0 29-12 17-44 0 0 26-21 13-56 0 0 20-13 9-46 0 0 15-14 2-44 0 0 19-19 2-51 0 0 17-22-2-53 0 0 14-13 9-42 0 0 11-14-1-49Zm526 408c-22 12-46-3-46-3 1 8-3 12-7 14a43 43 0 0 0 7 0 46 46 0 0 0 14 8c14-1 28-6 33-12 14 5 38-10 38-10-13 7-39 3-39 3Z" class="cls-8" data-name="Forma 6426"/><path id="Forma_6425" d="M155 512s-9-3-16 1c0 0-3-20 15-30 0 0-7-5-14-1 0 0-5-18 9-30 0 0-13-20-10-41-2 4-10 21-5 35a43 43 0 0 0-4 39s-17 19-5 39c0 0-18 23-4 50 0 0-16 23-1 47 0 0-12 19-2 35 0 0-15 14-5 35 0 0-17 15-7 34 0 0-11 4-10 12 0 0-22-7-31 3 0 0-14-7-19-5l-8-13s1-8 5-14c0 0-6-7-14-1-10 8-6 17-6 17s-21 5-11 32a33 33 0 0 0 12 15c-4-7-11-19-8-28 0 0 5 6 13 3 0 0 12 18 40 5a31 31 0 0 0 27-3 67 67 0 0 1 9 4c3-6 2-17 16-26 0 0-4-25 16-36 0 0-4-5-10-2 0 0-3-25 21-36 0 0-4-4-13-1 0 0-11-14 2-30 0 0-18-20 0-46 0 0-16-41 18-63Zm-15-105h-1l1 2v-2Zm632 316s4-18-19-15l3 16s-6 6-4 10c0 0-14-2-23 5 0 0-8-8-26-2a69 69 0 0 1 3 15s16-4 23 1c0 0 19-6 29-2 4 0 19-16 20-4 1 6-1 14-3 20a32 32 0 0 0 10-23c1-19-13-21-13-21Zm-113 19c-20-12-17-39-17-39-23-26-11-57-11-57-15-23-7-45-7-45-12-28-2-43-2-43-14-30 0-53 0-53-10-29 2-55 2-55-9-11-5-35-5-35 17 3 28-4 28-4 4-8 2-11 0-21-17 9-44 2-57-2-2 11-1 23 4 29 0 0-7 26 9 35 0 0-18 24-3 57 0 0-16 22 2 50 0 0-13 26 3 45 0 0-13 28 9 47 0 0-15 31 13 55 0 0-13 29 18 44 0 0 2 28 27 32-15-16-13-40-13-40Z" class="cls-9" data-name="Forma 6425"/><path id="Forma_6429" d="M703 225s13-41-25-53c0 0-5-42-56-43 0 0-21-23-46-11 0 0-20-28-49-9 0 0-22-23-46-4 0 0-26-27-50-10 0 0-26-31-61-2 0 0-30-13-53 11 0 0-22-18-46 6 0 0-30-17-52 7 0 0-28-17-51 13 0 0-51 2-47 41 0 0-45 13-27 55 0 0-20 31 0 54 0 0-10 39 17 47 0 0-2 30 27 27 0 0 22 26 52 13 0 0 33 16 51-15 0 0 25 18 47-3 0 0 24 13 46-7 0 0 25 12 48-3 0 0 11 13 33-1 0 0 21 17 49 3 2 1 16 18 46 7 0 0 17 15 46 3 0 0 23 33 54 14 0 0 31 10 50-11 0 0 24 0 25-25 0 0 29-14 18-49 0 0 23-29 0-55Z" data-name="Forma 6429" style="fill:#cca278"/><path id="Forma_6430" d="M576 118s-20-28-49-9c0 0-22-23-46-4 0 0-26-27-50-10 0 0-26-31-61-2 0 0-30-13-53 11 0 0-22-18-46 6 0 0-30-17-52 7 0 0-28-17-51 13 0 0-51 2-47 41 0 0-45 13-27 55 0 0-20 31 0 54 0 0-10 39 17 47 0 0-2 30 27 27l2 2-3-3c-21-4-21-28-21-28-21-22-5-38-5-41-12-8-9-25-9-25 7 14 25 8 25 8-5-29 19-40 19-40-15 46 21 75 26 75-13-12-4-30-4-30-11-16 5-30 5-32-7-34 24-35 24-35-10-6-4-22-4-22s-9-19 0-32 28-4 28-4c12-17 40-5 40-5 18-19 42 7 42 7 15-21 39-10 39-10 22-25 46-14 46-14 18-21 52-2 52-2 27-14 50 6 50 6 35-16 44 8 44 8 21-16 44 3 44 3 12-10 32-13 42-14-7-5-25-17-44-8Z" class="cls-9" data-name="Forma 6430"/><path id="Forma_6431-3" d="M697 261c-8 9-21 6-25 6 4-27-19-47-24-49 13 30-10 57-10 57 0 22-23 31-23 31-31 36-62 8-62 8-38 18-52-3-52-3-31 13-55-6-55-6-23 12-42-2-44-3-21 14-42 7-50 5-25 20-54 3-54 3-34 23-51 3-54 3-45 33-63-10-63-10-26 0-22-27-22-27-22-26-7-58-7-58-27 25-17 61-17 61-18 11-2 39-2 39-7 21 15 31 15 31 11 24 42 10 42 10 27 13 49-18 49-18 23 17 49-1 49-1 27 14 46-5 46-5 26 11 48-4 48-4 17 12 35 1 35 1 20 13 43 2 43 2 22 16 49 7 49 7 20 13 44 1 47 2 19 27 51 15 51 15 21 15 45-12 45-12 19 9 28-21 28-21 19-17 9-41 9-41 7-8 8-23 8-23Z" class="cls-8" data-name="Forma 6431"/></svg>