<svg xmlns="http://www.w3.org/2000/svg" id="Assets" viewBox="0 0 800 800"><defs><style>.cls-1{opacity:.18}.cls-2{fill:#391474}.cls-3{fill:#ff2437}.cls-4{fill:#d6051e}.cls-5{opacity:.61}.cls-6{fill:#ff6977}.cls-7{opacity:.22}.cls-8{fill:#fff7f7}</style></defs><g id="Forma_5377_copia" class="cls-1" data-name="Forma 5377 copia"><path d="M265 199c-28-31-55-4-55-4s-13-36-52-20-16 80 32 111c56-8 103-57 75-87Z" class="cls-2"/></g><path id="Forma_5377_copia_2" d="M233 165c-32-36-64-4-64-4s-16-43-60-24-19 94 36 129c66-9 121-65 88-101Z" class="cls-3" data-name="Forma 5377 copia 2"/><path id="Forma_5379" d="M231 167c-13-14-25-17-36-16 19 8 50 28 12 69-41 44-90 9-103 3a140 140 0 0 0 42 42c64-9 117-63 85-98Z" class="cls-4" data-name="Forma 5379"/><g id="Forma_5381" class="cls-5" data-name="Forma 5381"><path d="M162 159s-14-26-49-8c-37 19 0 70 36 47 27-17 13-39 13-39Z" class="cls-6"/></g><g id="Forma_5381_copia" class="cls-7" data-name="Forma 5381 copia"><path d="M173 254c62-26 63-60 63-60-20 33-27 38-63 60Z" class="cls-6"/></g><path id="Forma_5378" d="M142 145s-20-9-34 3c-10 9-11 25-11 25s1 3 3 0 13-26 40-26c4 0 2-2 2-2Z" class="cls-8" data-name="Forma 5378"/><g id="Forma_5377_copia-2" class="cls-1" data-name="Forma 5377 copia"><path d="M293 87c-19-21-38-2-38-2s-9-25-35-14-11 55 21 76c39-5 71-38 52-60Z" class="cls-2"/></g><path id="Forma_5377_copia_2-2" d="M272 64c-23-25-45-3-45-3s-11-29-41-16-13 64 25 89c45-6 83-45 61-70Z" class="cls-3" data-name="Forma 5377 copia 2"/><path id="Forma_5379-2" d="M270 66c-9-10-18-12-25-12 17 5 26 24-2 45-19 14-52 10-61 5a97 97 0 0 0 29 29c44-6 81-43 59-67Z" class="cls-4" data-name="Forma 5379"/><g id="Forma_5381-2" class="cls-5" data-name="Forma 5381"><path d="M213 57s-6-12-22-4c-17 9 0 32 16 22 13-8 6-18 6-18Z" class="cls-6"/></g><path id="Forma_5381_copia-2" d="M230 125c43-17 44-41 44-41-12 18-23 26-44 41Z" class="cls-6" data-name="Forma 5381 copia" style="opacity:.66"/><path id="Forma_5378-2" d="M209 50s-14-6-24 2c-7 6-7 17-7 17s0 3 2 0 8-17 27-17c3 0 2-2 2-2Z" class="cls-8" data-name="Forma 5378"/><g id="Forma_5377_copia-3" class="cls-1" data-name="Forma 5377 copia"><path d="M603 91c-21-19-38 2-38 2s-12-24-36-10-5 56 30 74c38-10 66-47 44-66Z" class="cls-2"/></g><path id="Forma_5377_copia_2-3" d="M594 55c-26-21-45 3-45 3s-14-28-43-11-5 65 36 85c44-11 77-55 52-77Z" class="cls-3" data-name="Forma 5377 copia 2"/><path id="Forma_5379-3" d="M593 57c-10-8-20-10-27-8 14 4 23 23 7 47s-54 13-63 10a97 97 0 0 0 32 25c43-11 75-53 51-74Z" class="cls-4" data-name="Forma 5379"/><g id="Forma_5381-3" class="cls-5" data-name="Forma 5381"><path d="M540 58s-12-18-32-3c-20 16 6 52 28 36 18-14 4-33 4-33Z" class="cls-6"/></g><g id="Forma_5381_copia-3" class="cls-7" data-name="Forma 5381 copia"><path d="M598 76c-9 18-19 27-38 45 40-22 38-45 38-45Z" class="cls-6"/></g><path id="Forma_5378-3" d="M505 90s-4-28 6-37c0 0-20 9-6 37Zm14-42s-4 2-2 4 5 1 5-1 1-3-3-3Z" class="cls-8" data-name="Forma 5378"/><g id="Forma_5377_copia-4" class="cls-1" data-name="Forma 5377 copia"><path d="M458 183c-30-27-54 2-54 2s-16-34-52-15-8 79 41 104c54-13 95-64 65-91Z" class="cls-2"/></g><path id="Forma_5377_copia_2-4" d="M454 121c-37-34-67 2-67 2s-20-42-65-18-10 99 52 130c66-16 117-80 80-114Z" class="cls-3" data-name="Forma 5377 copia 2"/><path id="Forma_5379-4" d="M452 123c-15-13-28-15-39-13 20 7 34 36 8 72-26 35-81 18-95 13a146 146 0 0 0 48 39c65-16 115-78 78-111Z" class="cls-4" data-name="Forma 5379"/><path id="Forma_5381-4" d="M370 122s-18-28-47-3c-30 27 16 82 44 51 21-23 3-48 3-48Z" class="cls-6" data-name="Forma 5381"/><g id="Forma_5381_copia-4" class="cls-7" data-name="Forma 5381 copia"><path d="M460 151c-15 28-30 41-59 68 62-33 59-68 59-68Z" class="cls-6"/></g><path id="Forma_5378-4" d="M335 111s-18 4-22 26a35 35 0 0 0 7 27s2 2 2-2c0-1-5-30 12-48 2-2 1-3 1-3Z" class="cls-8" data-name="Forma 5378"/><g id="Forma_5377_copia-5" class="cls-1" data-name="Forma 5377 copia"><path d="M660 220c-33-15-46 17-46 17s-23-25-48 1 15 71 64 79c43-26 64-82 30-97Z" class="cls-2"/></g><path id="Forma_5377_copia_2-5" d="M694 164c-43-24-64 18-64 18s-29-37-67-3 13 98 79 115c61-31 96-105 52-130Z" class="cls-3" data-name="Forma 5377 copia 2"/><path id="Forma_5379-5" d="M693 167c-17-9-31-8-41-4 21 2 41 28 24 68-17 41-74 36-89 34a145 145 0 0 0 55 27c60-30 94-101 51-125Z" class="cls-4" data-name="Forma 5379"/><g id="Forma_5381-5" class="cls-5" data-name="Forma 5381"><path d="M614 184s-25-23-47 8c-24 33 34 76 54 40 15-28-7-48-7-48Z" class="cls-6"/></g><g id="Forma_5381_copia-5" class="cls-7" data-name="Forma 5381 copia"><path d="M707 193c-8 30-19 46-42 79 52-46 42-79 42-79Z" class="cls-6"/></g><path id="Elipse_5417" d="M590 182c-8-1-19 7-20 16-2 7 4 11 9 11 6 0 12-4 16-10 4-7 3-15-5-17Z" data-name="Elipse 5417" style="fill:#ff7a85"/><path id="Forma_5378-5" d="M576 182s-16 8-15 30a35 35 0 0 0 13 25s3 1 1-3c0-1-11-28 1-49 2-2 0-3 0-3Z" class="cls-8" data-name="Forma 5378"/></svg>