<svg xmlns="http://www.w3.org/2000/svg" width="1000" height="1000"><path fill="#FEB300" d="M515 101h2a630 630 0 0 1 66 2 452 452 0 0 1 160 40c12 6 23 13 33 21l2 1c11 10 22 23 24 38 1 14-2 26-11 37-9 10-19 19-31 26l-2 1c-64 39-147 48-220 49h-3c-76 1-157-8-226-38l-3-1-23-13v2c1 53 1 53-5 73l-4 1c-7-24-10-50-14-75v-3a1301 1301 0 0 1-4-20l-13 4-8 1-1-4 3-12v-2l2-5h-11l-9 1h-19a3600 3600 0 0 1-30 0l-1-4c7-3 13-7 21-9l3-1a484 484 0 0 1 41-13l5-2-2-2a489 489 0 0 1-19-30l-2-5 1-2 4-1a79 79 0 0 1 9 6 889 889 0 0 1 17 12l5 3v-3a832 832 0 0 1 12-65l5-1 4 10v1l2 7a5206 5206 0 0 0 5 25l3-2c55-32 120-42 183-47h2l47-1Zm-82 34-4 1c-33 4-70 11-97 32l-3 2c-6 6-10 12-10 20l7 2v9l-2 2c0 4 1 5 4 8 42 40 124 42 178 42h3c53 0 131-3 172-42 5-5 7-10 9-16-2-11-9-19-17-25-44-31-106-38-159-38h-18c-21 0-42 0-63 3Z"/><path d="M515 101h2a630 630 0 0 1 66 2 452 452 0 0 1 160 40c12 6 23 13 33 21l2 1c11 10 22 23 24 38 1 14-2 26-11 37-9 10-19 19-31 26l-2 1c-64 39-147 48-220 49h-3c-85 2-186-8-258-56v-10l12 6c73 41 168 49 250 47h4a399 399 0 0 0 114-23l2-1 13-6 2-1a270 270 0 0 0 77-54c12-14 12-14 16-32-2-12-10-20-19-27a108 108 0 0 0-8-5v-2l-3-1-8-3c-47-23-102-31-153-36h-2c-20-2-41-2-61-2h-3c-78 0-173 8-238 55v-8c4-4 8-6 13-9l2-1c54-31 118-41 179-45h2l47-1Z"/><path fill="#FFE688" d="m265 108 5 1 7 27v3c3 10 3 10 2 14l-3 2-3 2v7l3-1 3 21h5l3 1 4 1v5h4c8 1 16 2 24 5v-6l7 2 2 6-3 5-6 2-1 3-5 2v2l-6 2v2l-8 4c4 15 14 21 27 28 9 6 17 9 27 12 4 2 7 3 10 7v3c-7 3-15 0-22-2h-3c-23-6-43-16-61-30l-1 11 2 1-1 10 2 1 4 2v7a2633 2633 0 0 1 0 20c1 17-1 33-5 49l-4 1c-7-24-10-50-14-75v-3a1301 1301 0 0 1-4-20l-13 4-8 1-1-4 3-12v-2l2-5h-11l-9 1h-19a3600 3600 0 0 1-30 0l-1-4c7-3 13-7 21-9l3-1a484 484 0 0 1 41-13l5-2-2-2a489 489 0 0 1-19-30l-2-5 1-2 4-1 7 5 2 1a889 889 0 0 1 17 12l5 3v-3a818 818 0 0 1 12-63l1-3Z"/><path fill="#010000" d="M683 168c8 8 13 15 14 26-1 9-5 16-11 23-35 32-91 39-137 43h-3c-67 6-161 4-216-39-5-4-9-8-12-14l1-3 4-1 1 2a50 50 0 0 0 19 16c48 27 109 31 163 31h3c53 0 131-3 172-42 4-4 7-9 8-15-2-10-8-18-16-24-44-31-106-38-159-38h-18c-21 0-42 0-63 3l-4 1a206 206 0 0 0-100 34c-6 6-9 13-10 22h-4c-1-7 1-12 5-18a96 96 0 0 1 10-10c32-30 93-36 135-39h2c67-5 163-4 216 42Z"/><path fill="#735303" d="M740 153c7 0 12 4 18 8l4 2c14 9 27 21 32 38 2 10-2 20-7 29-24 37-83 54-124 63-35 7-72 10-108 10v-1h2a501 501 0 0 0 100-22l2-1 13-6 2-1a270 270 0 0 0 77-54c12-14 12-14 16-32-2-12-10-20-19-27a113 113 0 0 0-8-5v-1Z"/><path fill="#FEEA8D" d="m265 108 5 1 7 27v3c3 10 3 10 2 14l-3 2-3 2v7l3-1 3 21h5l3 1 4 1v5h4c8 1 16 2 24 5v-6l7 2 2 6-3 5-6 2-1 3-5 2v2l-6 2v2l-8 4 3 7 1 3-1 2-5-5-2-2c-6-6-6-6-6-9l3-4 4-1 4-4 7-1v-2l2-1 9-4 4-1v-2l-2 1h-9a2159 2159 0 0 1-23 0c-1-7-1-7 1-10l-2 2c-3 2-5 2-9 2v-2l-1-3-1-3c-1-3-1-3-7-4l-1-56-3 47c0 10-1 17-7 25l-10-8-2-2a1877 1877 0 0 1-22-20l2 2 3 3 3 3 2 4 3 1 5 5c2 4 2 4 6 7 2 3 1 6 1 10v2l-1 5-3 1a1261 1261 0 0 0-30 8c23-4 23-4 34-4l3 12-7 9-3 4 1 1 2-2 3-3 2-3c4-3 6-4 10-4 3 0 3 0 5 2l3 12 1 3v10l-11-9-2-2c-5 0-9 2-13 4l-8 1-1-4 3-12v-2l2-5h-11l-9 1h-19a3600 3600 0 0 1-30 0l-1-4c7-3 13-7 21-9l3-1a484 484 0 0 1 41-13l5-2-2-2a489 489 0 0 1-19-30l-2-5 1-2 4-1 7 5 2 1a889 889 0 0 1 17 12l5 3v-3a818 818 0 0 1 12-63l1-3Z"/><path fill="#FEFCF5" d="M267 120a1602162786 1602162786 0 0 1 2 16v43h2c3 1 4 2 6 5l1 7 11-4-1 6v4l34-1v2c-6 3-13 5-20 6l-4 1-14 3 2 5-2 2c0 5 4 8 7 12l4 3 1 2 5 6 2 2 1 3-8-6c-6-6-10-9-18-11-4 6-5 11-4 18v3l1 29 1 48h-1l-4-44v-4a6484 6484 0 0 1-2-23v-3l-1-3v-2l-1-3v-5l-4-10c-4-1-6 0-9 1l-12 12-1-3 4-5c4-5 4-5 6-11l-1-3v-3l-1-3a9099 9099 0 0 0-58 5l3-1h2a497906064 497906064 0 0 0 18-4c26-5 26-5 34-5 1-10 1-10-2-18l-9-9-4-4-10-11 1-2a299 299 0 0 1 30 29l4 2c5-8 6-16 6-25a1594 1594 0 0 1 1-15l1-12 1-22Z"/><path fill="#FEF092" d="m241 201 1 4v3l-4 1a13937 13937 0 0 0-23 7c23-4 23-4 34-4l3 12-7 9-3 4 1 1 2-2 3-3 2-3c4-3 6-4 10-4 3 0 3 0 5 2l3 12 1 3v10l-11-9-2-2c-5 0-9 2-13 4l-8 1-1-4 3-12v-2l2-5h-11l-9 1a165 165 0 0 1-28 0 13074 13074 0 0 0-21 0l-1-4c15-8 32-14 48-19l4-1c7-2 13-2 20 0Z"/><path fill="#FFDD8B" d="m300 230 3 2a1780 1780 0 0 0 8 6c13 10 26 17 42 22 4 2 7 3 10 7v3c-7 3-15 0-22-2h-3c-22-6-42-16-60-29l3-7h5l3 3a393 393 0 0 0 16 9l-4-9-1-5Z"/><path fill="#FEF79F" d="M243 212h6l3 12-7 9-3 4 1 1 2-2 3-3 2-3c4-3 6-4 10-4 3 0 3 0 5 2l3 12 1 3v10l-11-9-2-2c-5 0-9 2-13 4l-8 1-1-4a39 39 0 0 1 3-14l2-5-32 1 4-1v-3c7-2 14-2 22-2v2h4l-1-2h8l-1-7Z"/><path fill="#FFCB66" d="M274 163h2l3 21h5l3 1 4 1v5h4c8 1 16 2 24 5v-6l7 2 2 6-3 5-6 2-1 3-5 2v2l-6 2v2l-8 4 3 7 1 3-1 2-5-5-2-2c-6-6-6-6-6-9l3-4 4-1 4-4 7-1v-2l2-1 9-4 4-1v-2l-2 1h-9a2159 2159 0 0 1-23 0c-1-7-1-7 1-10l-2 2c-3 2-5 2-9 2l-1-2v-3l-1-3-1-2-3-1v-15l2-2Z"/><path fill="#FFE98A" d="M258 244a788 788 0 0 1 6 4l2 2 2 1c3 4 3 8 3 13l1 3a1045 1045 0 0 1 2 64h2v-5l4 4-2 9-4 1c-7-22-9-46-13-68v-4l-2-9v-5l-1-3v-7Z"/><path fill="#FFEB8F" d="m265 108 5 1 7 27v3c3 11 3 11 2 14l-3 2-4 4v20h-3l-1-56-3 47c0 10-1 17-7 25-5-2-7-5-10-9l10 1c2-3 2-7 2-11l1-2a4435 4435 0 0 0 3-28l-2-1 1-4 1-18-2 1v-6l1-4 2-6Z"/><path fill="#FFE989" d="m263 122 2 1c0 8 0 15-2 22l1 1-2 28-1 3v3l-1 3-2 5c-8-1-8-1-10-3l2-3c3-6 3-12 4-19l2-11v-2a278 278 0 0 1 7-28Z"/><path fill="#FFECC5" d="m313 202-2 2h-4v2l-3 1c-4 1-4 1-6 4l-4 2h-2l-2 1 4 9 2 2 4 4 3 7 2 3v5c-5-1-9-3-13-7l-2-1-2-2-7-1-2 5-4-2-1-5 4-6c8 2 13 6 18 11l8 7-12-14-2-2-3-3-4-5 2-7-1-4a203 203 0 0 1 19-6h10Z"/><path fill="#FFB71C" d="m321 199 1 4-3 2-1 3-5 2v2l-6 2v2l-8 4 3 7 1 3-1 2-5-5-2-2c-6-6-6-6-6-9l3-4 4-1 4-4 7-1v-2l2-1 6-3 6-1Z"/><path fill="#FFE27E" d="M243 212h6l3 12c-1 3-4 4-7 6l-2 2-1 2h-3l-1 5-3-1 1-4v-3l3-7-32 1 4-1v-3c7-2 14-2 22-2v2h4l-1-2h8l-1-7Z"/><path fill="#FEB924" d="M278 160h1l3 24h6c9 0 18 2 27 6v3h4v3h-2l-8-2h-3l-6-1h-2l-3-1-4-1-1-5h-5l-3-1-4-1v-6l-2-8v-6l2-4Z"/><path fill="#FEE080" d="m233 181 3 1 2 6h2l2 5 4-1 1-2 2 2v8l-1 2v5h-6l-1-5-9-2 7-4-2-2-2-3-2-3-2-5h2v-2Z"/><path fill="#FEE985" d="m258 244 8 6v8l1 2 1 9 1 5-2 5-3 1-3-11-1-3v-4l-1-4-1-14Z"/><path fill="#FEF79E" d="m273 234 3 2v13l2 1v13l-1 17v6l-2 6-2-58Z"/><path fill="#FFF599" d="M266 251c4 2 4 2 5 5v9l1 3v10l1 7 1 26h-1c-2-10-4-21-4-31l-3-1 2-6-1-1v-6l-2-9 1-6Zm-3 28 4 2h-4v-2Z"/><path fill="#565537" d="M255 230c5 2 8 5 11 10l1 11c-6-3-14-9-16-16v-2l4-3Z"/><path fill="#FFC85B" d="m315 200 1 4-15 10c-4 1-4 1-6 4l-1 5c-5-4-5-4-5-8 1-2 2-3 5-4h2l4-4 7-1v-2l2-1 6-3Z"/><path fill="#F8DD92" d="m288 189 1 2 2 3a145 145 0 0 0 18 1l10 1v-6l7 2 2 6-3 5h-3l-2-5h2v-2l-2 1h-9a2159 2159 0 0 1-23 0l-1-7 1-1Z"/><path fill="#FFF191" d="M277 272h1v23l2 8v12h-2l1 3-1 6 2 3-1 3-2-3-1 4h-2v-14h1v-3a7109 7109 0 0 1 1-25v-2l1-15Z"/><path fill="#D7B56A" d="M260 168h1v11l-1 2v2l-2 5c-8-1-8-1-10-3l4-8h2l1-2 5-7Z"/><path fill="#FFD58A" d="M263 226c4 4 5 8 5 14l1 3v10l-2-1-1-5c-1-8-4-11-9-16l-2 1-5 2 1-4c4-3 7-5 12-4Z"/><path fill="#FFDCA1" d="M265 164c0 22 0 22-7 31-5-2-7-5-10-9l10 1 1-6a271819413 271819413 0 0 1 1-10v-2c1-2 2-5 5-5Z"/><path fill="#FEF9AA" d="M269 133c3 3 3 7 3 11v8a3122 3122 0 0 1 0 27h-3v-46Z"/><path fill="#FFF8A4" d="M266 111h2l-2 42v9l-4 4 2-20-2-1 1-4 1-18-2 1v-3l3-1 1-9Z"/><path fill="#FFF396" d="m224 166 3 3 2 1 5 5v2l3 1 5 6 2 3 2 2-2 5-3-1-1-5h-2l-1-3-4-4v2h-3v-4h2l-2-5-4-1-2-7Z"/><path fill="#FFCB66" d="M291 186v5h4l5 1h2c5 1 9 1 13 3v1l-24-1c-2-2-2-2-2-5v-3l-2 2c-3 2-5 2-9 2v-3l13-2Z"/><path fill="#FFEED3" d="M287 187h2l-1 6v4h24v1l-12 2h-3l-16 1c1-5 2-10 6-14Z"/><path fill="#FFDE83" d="M237 200v2h-2l-5 3c-3 3-5 2-9 2l-8 2-2-1v-2h2v-2l8-3h2c5-2 9-2 14-1Z"/><path fill="#FEB821" d="M291 184c9 0 16 3 24 6l-1 2-22-2-1-6Z"/><path fill="#FCF3E0" d="m278 220 7 7-7-1c-4 7-5 12-5 20v10h-1v-34l6-2Z"/><path fill="#A2A289" d="M243 212h6l3 12c-1 3-2 3-5 4l-2-5-1-3-1-8Z"/><path fill="#FFFDD8" d="M274 275h1l1 49h-1a4859 4859 0 0 1-3-40h1l1-9Z"/><path fill="#FEBD34" d="m321 199 1 4-5 3-2-1-1 3-7 5-2 1-9 3 2 10-4-3v-6c3-5 8-6 13-9l7-5h2v-4l5-1Z"/><path fill="#FFF9A6" d="M243 212v5h-2l-20 1-11-1v-1a10816 10816 0 0 1 23-3l4-1h6Z"/><path fill="#FFDB7F" d="M210 206v2h-2l-1 3-7 3h-2l-10 2 1-4 4-2h2l2-1 3-1 10-2Z"/><path fill="#FFDDA2" d="m313 202-2 2h-4v2l-3 1c-4 1-4 1-6 4l-4 2c-3 0-4 1-6 3l-1-3c5-6 17-14 26-11Z"/><path fill="#FFD77C" d="M279 272h3l1 9v3a26737 26737 0 0 1 0 19h-1v-2l-1-3v-2l-2-5v-19Z"/><path fill="#FFE9C7" d="m249 193 3 3 2 2 3 2v5l-9 1v-7l1-6Z"/><path fill="#9F9F85" d="m246 190 3 2-1 15h-6c0-6 1-11 4-17Z"/><path fill="#FFEAC1" d="M269 179c4 1 6 2 8 5l1 7h5l-2 3h-2v-2l-4-1c-3-1-4-1-6-4v-8Z"/><path fill="#FDB826" d="m276 237 7 5v11l-7-4v-12Z"/><path fill="#F2D49A" d="m273 234 3 2v13l2 1-1 9-4-2v-23Z"/><path fill="#FFF395" d="M263 146h1v7l-1 4c0 6-2 11-6 16l-1 2-2 2h-1l1-12 4 1c3-7 4-13 5-20Z"/><path fill="#FFE989" d="m207 220-1 4c-5 2-11 2-16 0l-3-2v-1l7-1 3-1 10 1Z"/><path fill="#FFD87D" d="M261 128h2c1 6 1 12-2 17v4l-5 1 5-22Z"/><path fill="#FFE5AB" d="M292 222c5 4 8 8 11 14l2 3v5c-5-1-7-2-11-5l-1-2c5 0 7 3 11 6l-2-2-5-8c-1-4-1-4-3-5l-2-6Z"/><path fill="#FFE58B" d="m252 237 2 1 1 3-7 3-2 1c-6 2-6 2-9 1h2l1-2 5-5 3-1 4-1Z"/><path fill="#FFE48A" d="M263 281h4v2l2 5c1 5 2 8-1 12h-2l-1-8-1-3-1-8Z"/><path fill="#FFF2DC" d="M264 171h1v10l-1 14-4 3-3-3 1-2c5-7 6-13 6-22Z"/><path fill="#4A4829" d="M260 168h1c0 3 1 6-1 9l-4 4-2 3-4-1 2-6h2l1-2 5-7Z"/><path fill="#FFE68D" d="m240 170 4 2 3 2 5 4-1 3c-6 0-6 0-9-3l-2-3-2-2 2-3Z"/><path fill="#FFFAA9" d="M242 205v3l-13 3h-4l-4 1-3 1-6-1 12-3 7-3 11-1Z"/><path fill="#FFFAAC" d="m267 252 4 4v12l1 18c-3-3-2-4-3-8v-4l-1-3v-4l-1-15Z"/><path fill="#FEDEA7" d="M271 158h1v21h-3v-17l2-4Z"/><path fill="#FFDC71" d="m220 219 2 2 3-1 1 3c-3 2-7 1-11 2h-8l4-1v-3l4-1 3-1h2Z"/><path fill="#FFFEE0" d="M210 215v2l-8 2h-3l-15 1c4-3 8-3 12-4l3-1h3l2-1 6 1Z"/><path fill="#FFC141" d="M275 163h1l3 21 11 1c-4 2-7 3-12 3-2-2-2-6-2-9v-2l-1-14Z"/><path fill="#FEE0AE" d="M260 221c3 1 5 3 7 6 2 4 1 10 1 15h-1v-2c0-7 0-7-4-13h-9l6-6Z"/><path fill="#FFE376" d="M281 306h1c1 7 1 13-1 20l-2 1-2-4 1-3v-2l1-6h2v-6Z"/><path fill="#FFE2B2" d="m286 191 2 6h24v1l-10 1h-13l-3-1v-7Z"/><path fill="#3B3923" d="M279 153v7l-6 5h-1v-8c4-4 4-4 7-4Z"/><path fill="#FFCE70" d="m303 206 2 1c-3 4-6 6-11 8h-2v6l-3-3 1-5 6-2 4-4 3-1Z"/><path fill="#D3A845" d="m291 187 1 3 23 1v2h4v3h-2l-8-2h-3l-6-1h-2l-3-1-4-1v-4Z"/><path fill="#FFDE7B" d="M273 137h3l3 12-3-1-3 1v-12Z"/><path fill="#FFE78E" d="m271 119 2 1 2 6 1 4-1 5h-2v-2l-1-2-2-1v-8l1-3Z"/><path fill="#FFF8A4" d="M276 306h1v11l1 3v2l2 5-1 3-2-3-1 4h-2v-14h1l1-11Z"/><path fill="#FFE8AB" d="M194 224v1h-18l-1-2c7-2 12-2 19 1Z"/><path fill="#FDE285" d="m258 244 7 5-2 7-2 1v-2h-2l-1-11Z"/><path fill="#383721" d="m256 235 4 1 1 9c-3-1-5-3-7-6l2-4Z"/><path fill="#FFC95D" d="m258 228 5 1c2 3 2 6 2 10l-8-8 1-3Z"/><path fill="#FFE1B0" d="m249 212 5 1 2 6-4 4a480 480 0 0 1-2-6l-1-5Z"/><path fill="#FFE4B8" d="m300 205-12 6v2l-3-1-1-4c13-5 13-5 16-3Z"/><path fill="#FFEB90" d="M224 166c6 4 9 8 11 15h-2v2h-3v-4h2l-2-5-4-1-2-7Z"/><path fill="#FFD893" d="m288 189 1 2 2 3a145 145 0 0 0 9 1h3v2h-15l-1-7 1-1Z"/><path fill="#FFC44B" d="m305 209 2 1-2 1-10 7-1 5-2-1v-7l5-3 3-2 5-1Z"/><path fill="#FFD585" d="M230 163c8 4 8 4 9 8h-7l-3-6 1-2Z"/><path fill="#5B5A3C" d="m277 250 4 2v10l-4-2v-10Z"/><path fill="#7D7C5C" d="m243 216 6 2v7l-3 1-3-10Z"/><path fill="#FFE7A6" d="M280 297h2l1 15-4-1 1-14Z"/><path fill="#FFEA92" d="m239 234 2 1-4 9h2v2l-4 1-1-5v-3l2-1 2 1 1-5Z"/><path fill="#FFEABE" d="m289 218 5 7v3l2 1 3 4v3c-5-4-8-9-10-15v-3Z"/><path fill="#FFD27F" d="M198 211v3l-10 2 1-4c3-2 5-2 9-1Z"/><path fill="#848363" d="m263 238 3 2 1 6v5l-5-3 1-10Z"/><path fill="#FEEC87" d="m245 221 2 6-5 7c-1-4 0-6 1-10l-1 2h-3c1-3 2-5 6-5Z"/><path fill="#FBEEDA" d="M243 211h15v7h-3l-2-5-10-1v-1Z"/><path fill="#FFC67F" d="M206 223c-3 2-4 2-7 2h-3l-6-2c6-2 10-2 16 0Z"/><path fill="#FFEC92" d="m218 156 5 1v7l-2-1c-2-2-2-2-5-2l2-5Z"/><path fill="#FFEFD0" d="m281 223 4 4-7-1-4 8h-1c0-4 0-6 2-9l6-2Z"/><path fill="#FFD381" d="M260 175h1v8c0 3-1 5-3 7h-6l-4-4 10 1 2-7v-5Z"/><path fill="#FFFCCA" d="m223 163 13 11-2 3-1-2-8-8-2-4Z"/><path fill="#FFE57C" d="m266 271 3 3-2 5-3 1-2-7h4v-2Z"/><path fill="#FFC759" d="m276 237 3 2v11l-3-1v-12Z"/><path fill="#F6F0E0" d="M322 196v2c-7 3-7 3-12 3l2-4 10-1Z"/><path fill="#FFCB77" d="m179 218-4 4-3 3-3-1 1-4c3-2 5-2 9-2Z"/><path fill="#FFD581" d="M236 219h8l-2 4h-13v-1l8-1-1-2Z"/><path fill="#FED996" d="m249 193 2 1 1 8-4 2 1-11Z"/><path fill="#99987C" d="m274 247 4 3v5l-1 2v2l-3-2v-10Z"/><path fill="#FFD484" d="M290 186c-1 3-3 3-5 4l-1 1h-6v-3l4-1 2-1h6Z"/><path fill="#FFC34B" d="M259 177v7l-6 2c3-9 3-9 6-9Z"/><path fill="#FFF8A6" d="m231 173 3 2v2l3 1 5 6-1 2c-5-3-7-6-10-11v-2Z"/><path fill="#FFE4AA" d="M283 230h3v2l-3 1-3 1-1 4h-2c1-8 1-8 6-8Z"/><path fill="#FFDA75" d="m266 301 5 2v7h-4l-1-9Z"/><path fill="#757454" d="M261 168v7l-4 3 1-9 3-1Z"/><path fill="#AFAF9A" d="M265 164v7l-4 3 1-9 3-1Z"/><path fill="#FFD97C" d="M256 151h4l-1 8h-3v-8Z"/><path fill="#6B694A" d="m321 199 1 4-5 3-1-6 5-1Z"/><path fill="#FFF2DA" d="M269 179h2l1 7v4c-2-2-3-2-3-5v-6Z"/><path fill="#FFD68D" d="m299 209-3 3-2 1c-3 0-4 1-6 3l-1-3c4-3 7-5 12-4Z"/><path fill="#FFDB7C" d="m246 174 5 3v4l-5-2v-5Z"/><path fill="#FFE384" d="m255 167 3 4-4 6h-1v-4l1-3 1-3Z"/><path fill="#B0B09C" d="m266 241 3 2v10l-2-1-1-6v-5Z"/><path fill="#FFD070" d="m320 190 6 2 1 4-7-3v-3Z"/><path fill="#7D7C5B" d="M273 156h2l1 7-4 2v-8l1-1Z"/><path fill="#FFD882" d="m272 323 2 1v8h-2l-2-8 2-1Z"/><path fill="#FFD885" d="M278 316c2 3 3 6 3 10l-2 1c-2-3-2-4-2-8l1-3Z"/><path fill="#FFFCC4" d="M198 218v1l-14 1c5-3 8-3 14-2Z"/><path fill="#FDCE72" d="m315 200 1 4-9 2v-2l2-1 6-3Z"/><path fill="#686747" d="M244 194h2l1 6-4 2 1-8Z"/><path fill="#FFDA85" d="M261 258h2v2h2l-1 4-3 2v-8Z"/><path fill="#FFEB70" d="m241 242 5 2c-3 2-5 3-9 3l2-1 2-4Z"/><path fill="#7E7D5C" d="m255 230 3 1-3 4h-2l-1 2-1-4 4-3Z"/><path fill="#FFE06C" d="M205 207v2h-3l-1 3-3 1-1-4 8-2Z"/><path fill="#FFE9C7" d="M293 207c-4 3-4 3-7 3l-1 2-1-4c3-2 5-2 9-1Z"/><path fill="#B0B09C" d="M271 158h1v7l-3 2v-7l2-2Z"/><path fill="#FFD171" d="M273 125c2 3 3 5 3 8l-1 2h-2v-10Z"/><path fill="#FFD67A" d="m258 244 5 5v2h-3v-2h-2v-5Z"/><path fill="#AEAD93" d="m253 228 4 1c-2 3-4 4-7 5l3-6Z"/><path fill="#FFF48F" d="m173 220 9 1v1l-10 3 2-1-1-4Z"/><path fill="#B8B7A5" d="M243 212h6l1 4-7-1v-3Z"/><path fill="#FFD961" d="m251 238 4 1v2c-3 2-4 2-8 2v-2l4-1v-2Z"/><path fill="#FFD986" d="M243 223c1 4 1 5-1 8l-1-3-3-1h2l2-1 1-3Z"/><path fill="#FFF7E8" d="m263 191 1 4-4 3-2-2 5-5Z"/><path fill="#FFE26D" d="m223 167 4 4v2l-2 2-4-7 2-1Z"/><path fill="#FFD584" d="M268 109h2l1 9-2-1-1-8Z"/><path fill="#FFDD7E" d="m268 311 4 1v4l-4-1v-4Z"/><path fill="#FFD472" d="m265 295 4 1-1 4h-2l-1-5Z"/><path fill="#FFE797" d="M281 265c2 3 2 5 2 9l-3-3v-5l1-1Z"/><path fill="#1B180E" d="M254 238h5v5l-4-2-1-3Z"/><path fill="#FFFEDE" d="m245 232 2 3-6 5 4-8Z"/><path fill="#FFCB6D" d="M263 281h4v5l-3 1-1-6Z"/><path fill="#FFF7A6" d="M177 217h3v2l5 1v1h-7l-1-4Z"/><path fill="#FFE3B7" d="M253 191h6l-1 4-5-4Z"/><path fill="#E4C990" d="m248 186 10 4h-6l-4-4Z"/></svg>