<svg id="Assets" xmlns="http://www.w3.org/2000/svg" viewBox="0 0 800 800"><defs><style>.cls-1{fill:#4c4c4c;}.cls-2{fill:#272727;}.cls-3{fill:#141414;}.cls-4{fill:#817f7f;}.cls-5{fill:#ff241e;}.cls-6{fill:#ff8583;}.cls-7{fill:#282828;}.cls-8{fill:#3c3c3c;}.cls-9{fill:#060606;}.cls-10{fill:#929292;}</style></defs><g id="Forma_2183" data-name="Forma 2183"><path class="cls-1" d="M573.89,209.79,225,198.61S143.3,195.3,109.6,233.13s87.13,92.07,87.13,92.07,120.87,32.88,204.2,32.88,164.8-14.64,207.16-33.87S801.89,205.83,573.89,209.79Z"/></g><g id="Forma_2188" data-name="Forma 2188"><path class="cls-2" d="M317.74,285.08c-33.06,21.39-90.21,36.35-114,41.95,12.19,3.14,39.24,9.82,71.82,16.19,45.1-18.33,99.42-43,99.42-43S321,283.56,317.74,285.08Zm-87.67-86.31-5.06-.16S143.3,195.3,109.6,233.13c-16.9,19,5.05,42.06,31.14,60.37l88.88-39Zm343.82,11L549.42,209,446.31,294.62S392.16,332,352.55,355.2a461.7,461.7,0,0,0,48.38,2.88c83.33,0,164.8-14.64,207.16-33.87S801.89,205.83,573.89,209.79Z"/></g><g id="Forma_2186" data-name="Forma 2186"><path class="cls-3" d="M628.47,228.86s64.35,4.2,23.35,38.8c-60.33,50.89-216.69,69-216.69,69,202.65-13.63,240.76-68,247.27-89.11S628.47,228.86,628.47,228.86Zm-485,7.89c27.27-12.16,74.64-12.5,74.64-12.5l-4-16.77s-79.41,1.06-96.34,33.21c-8.87,16.85,29.59,44.07,29.59,44.07S116.19,248.91,143.47,236.75Z"/></g><g id="Forma_2183_copia" data-name="Forma 2183 copia"><path class="cls-4" d="M400.6,348.55c-150.51,0-288.16-42.42-296.52-104.94-13.4,64.94,161.53,114.47,296.85,114.47,171.61,0,282.45-54,295.09-109C674.14,309.51,551.12,348.55,400.6,348.55Z"/></g><g id="Forma_2184" data-name="Forma 2184"><path class="cls-1" d="M605.13,18.41C595,17.6,544.19,0,401.59,0S196.41,11.51,196.41,11.51s-43.88,4.57-40.78,22.69c2.9,16.93,53.43,115.37,56.23,181.5,59.61,57.95,369.26,12.17,369.26,12.17s4.52-91.8,42.09-165.39C644.78,19.26,607.38,23.34,605.13,18.41Z"/></g><g id="Forma_2192" data-name="Forma 2192"><path class="cls-3" d="M223.7,52.61C173.94,47,159.47,37,155.74,30.14a10.19,10.19,0,0,0-.11,4.06c2.9,16.93,53.43,115.37,56.23,181.5,5.83,5.67,14,10.34,24.14,14.16l40,8.86c0-42-22.43-125.65-32.55-159.15C234.8,51,223.7,52.61,223.7,52.61ZM629.43,34.74c-13.25,9.07-64.64,31.12-251.19,31,0,0-6.8-1.71-9.86,23.68-2.78,23-6.88,106.09-3.81,155.59,102.86-.35,216.55-17.16,216.55-17.16s4.52-91.8,42.09-165.39C629.55,50.06,630.84,41.14,629.43,34.74Z"/></g><g id="Forma_2193" data-name="Forma 2193"><path class="cls-5" d="M581.45,217.35c-18,13.47-94.5,16.3-194.66,17.75S211.2,209.79,211.2,209.79c1.81,10.27,1.65,44.06,1.65,44.06s-9,9.27,10.85,20.06,85.83,35.76,166.71,36.49S512.67,298.77,542.32,289s39.13-25,39.13-25C579.87,255.19,581.45,217.35,581.45,217.35Z"/></g><g id="Forma_2197" data-name="Forma 2197"><path class="cls-6" d="M371.43,309.79c-1.63-14.42-5.13-46.27-7.61-74.83a587.07,587.07,0,0,1-88.56-9.28c1.12,15.11,2.73,50.6-5.07,66.29A439.14,439.14,0,0,0,371.43,309.79Z"/></g><g id="Forma_2188-2" data-name="Forma 2188"><path class="cls-7" d="M605.13,18.41S544.19,0,401.59,0,196.41,11.51,196.41,11.51s-34.9,3.63-40.25,17.27c3,6.06,13.4,12.15,39.59,15.94,68,9.84,205.84,14.8,205.84,14.8s197.55,2.9,227.68-25.46C627.13,24.55,605.13,18.41,605.13,18.41Z"/></g><g id="Forma_2196" data-name="Forma 2196"><path class="cls-8" d="M533.16,6.3C421.73,26.69,219.75,47,219.75,47,266.29,51.81,398,58.2,398,58.2c67.27-23.34,155.95-40.59,181.74-45.36C568.29,10.77,552.87,8.42,533.16,6.3Z"/></g><g id="Forma_2191" data-name="Forma 2191"><path class="cls-9" d="M480.83,4.6c-195.53-5.69-271,4.94-296.26,17.1s29.92,17.76,29.92,17.76c-7.46-10.8,4.12-17.34,69.05-27S480.83,4.6,480.83,4.6ZM585.07,20.72s7,3.78,3.29,6.57c-7.83,5.9-32,18.41-167.37,25.32,0,0,110.53-.42,154.54-9.54S616.35,25.82,585.07,20.72Z"/></g><g id="Forma_2188_copia_2" data-name="Forma 2188 copia 2"><path class="cls-10" d="M628.21,31C594.82,58.41,401.59,55.57,401.59,55.57s-137.87-5-205.84-14.8c-23.56-3.41-34.38-8.68-38.46-14.12a10.9,10.9,0,0,0-1.13,2.13c.1.2.21.41.33.61l.15.25.27.44.19.27.35.46.17.22c.17.21.36.42.56.64s.15.15.23.23l.44.45.27.25.55.49.22.18c.26.22.53.43.81.64l.31.22.64.45.36.24.79.5.25.15c.35.21.72.42,1.11.62l.38.21.87.44.44.22,1.1.51.26.11c.46.21.94.41,1.43.61l.47.18,1.13.44.52.19,1.46.51.24.09,1.79.57.55.17,1.42.41.62.17c.61.17,1.23.34,1.87.5l.19,0c.7.18,1.43.36,2.17.53l.67.16,1.71.38.72.15,2.34.48.12,0,2.59.48.78.13,2,.35.82.13c.95.15,1.9.3,2.89.44,68,9.84,205.84,14.8,205.84,14.8h3.54l3.93,0h5.68c44.66.06,189.12-1.63,214.53-25.54A19.16,19.16,0,0,0,628.21,31Z"/></g></svg>