<svg xmlns="http://www.w3.org/2000/svg" width="1000" height="1000"><path fill="#FED300" d="M826 435a124 124 0 0 1 29 29c14 16 14 16 15 23h2c17-4 42-2 57 7 4 2 5 5 7 9 4 23-14 53-27 71l-13 16h-2l1 2c19 55 19 55 10 73-4 6-10 11-17 13-22 2-49-14-66-26l-3-2c-2-2-2-2-5-2l-5 4c-20 16-50 33-77 31-5-1-8-3-11-7-5-8-3-17-1-26a285 285 0 0 1 20-52l-2-2c-14-14-32-35-31-56 0-4 1-6 3-8 16-13 37-14 56-14v-2l5-17 1-3c20-54 20-54 37-63 7-2 11-1 17 2Z"/><path d="M826 435a124 124 0 0 1 29 29c14 16 14 16 15 23h2c17-4 42-2 57 7 4 2 5 5 7 9 4 23-14 53-27 71l-13 16h-2l1 2c19 55 19 55 10 73-4 6-10 11-17 13-22 2-49-14-66-26l-3-2c-2-2-2-2-5-2l-5 4c-20 16-50 33-77 31-5-1-8-3-11-7-5-8-3-17-1-26a285 285 0 0 1 20-52l-2-2c-14-14-32-35-31-56 0-4 1-6 3-8 16-13 37-14 56-14v-2l5-17 1-3c20-54 20-54 37-63 7-2 11-1 17 2Zm-28 20a328 328 0 0 0-12 23l-20 46-2-3-2 1-16 3c-17 4-17 4-32 12-2 7 0 13 3 19 6 11 14 20 22 30l2 2 2 2 1 7-2 5a210 210 0 0 0-9 27c-6 15-6 15-7 32v2c0 3 0 6 2 9 7 3 18 1 25-1l8-3 2-1a280 280 0 0 0 44-23l3-2 8-2v3c35 19 35 19 73 21 3-3 6-6 7-11-1-16-5-31-9-46-4-14-4-14-2-21l3-3c20-17 35-48 39-73 0-4 0-5-2-8-8-5-17-6-26-7l-4-1-16-2c-10-1-16-2-22-10l-6-7-19-23-2-2c-5-6-9-9-17-11-8 1-13 9-17 16Z"/><path fill="#D98300" d="M912 497c11 2 11 2 16 6 4 19-12 45-21 60-13 19-13 19-20 23-1 6-1 11 1 16v3l5 16c3 11 6 23 4 35-3 5-5 7-10 9h-13l-1-2 2-1h2l2-1 3-3c1-3 0-6-2-9l-1-2a302 302 0 0 0-3-9l-8-14-4-6-1-2a338 338 0 0 1-17-30l-3-8-2-1-4-3v-3l-3-1-1-3a256 256 0 0 1 27-22l44-31 2-1 2-1 4-3 3-1v-9l-3-1v-1Z"/><path fill="#FEF14F" d="M819 470h1a4202 4202 0 0 1 2 20c6 46 6 46-6 63l-5 5-8-1-16-4h-3a2674 2674 0 0 0-45-7v-2a20575 20575 0 0 1 22 1c13 1 26 1 38-6l2-1c8-5 12-14 14-23l4-34v-11Z"/><path fill="#020200" d="m733 545 4 1a1417 1417 0 0 0 55 7c6 1 11 2 16 5-11 7-30 2-42-1a487 487 0 0 1-32-9l-1-3Z"/><path fill="#010100" d="M813 590c0 4 0 4-3 6l-2 2-2 2-3 4-2 2-5 6-15 15-1 1c-18 18-18 18-26 21l1-6 2-2 2-2 3-2 2-3a1297 1297 0 0 1 41-38l8-6Z"/><path fill="#020100" d="M911 512v2l-6 4-18 13-38 29-2 1-11 7-3-1a256 256 0 0 1 27-22l41-29 2-1c5-3 5-3 8-3Z"/><path fill="#010100" d="M842 575a61 61 0 0 1 10 13l14 21 1 2c13 21 13 21 14 29a556597332 556597332 0 0 0-35-53l-1-3-3-9ZM817 442c7 7 6 26 7 35a1350 1350 0 0 0 3 37l-3-4-2-11v-3a1852 1852 0 0 1-3-25l-1-9v-8l-1-12Z"/><path fill="#D88300" d="m789 652 2 1c-19 11-39 22-61 20l-2-2h2c19-4 39-9 57-18l2-1Z"/></svg>