<svg xmlns="http://www.w3.org/2000/svg" id="Assets" viewBox="0 0 800 800"><defs><style>.cls-1{fill:#39024d}.cls-2{fill:#60037c}.cls-4{fill:#c78b00}</style></defs><path id="Forma_2650" d="M793 226c-7-10-89-30-162 47 0 0 30 35 91 8s78-45 71-55Z" class="cls-1" data-name="Forma 2650"/><path id="Forma_2640" d="M793 226c-1-2-1-3-4-5a23 23 0 0 0-4-2c-17-9-76-26-111-10 0 0-33-11-58-9 0 0-78-43-186-5H224s-34 0-75 19c0 0-58-7-96-2 0 0-52-15-47 10s56 61 82 71 179 85 345 42l40-4c18-1 94-12 136-39 40-26 95-67 159-62 9 2 38 12-43 45-18 8-27 10-51 16 15 0 28-1 48-10 62-27 77-44 71-55Z" class="cls-2" data-name="Forma 2640"/><path id="Forma_2651" d="m62 211-2 1h-7l-5-1c1 20 20 90 213 115 0 0-195-36-199-115Zm450 54s30-5 61-28a406 406 0 0 0 43-37l-1-1v1-1h-1l-7-3c-7 7-20 20-35 32-38 32-60 37-60 37Zm163-56h-2c-1-1-7-3-15-4s-16 6-61 46c-37 33-136 56-136 56s79 2 143-46c38-29 71-51 71-51v-1Zm-91-21a241 241 0 0 0-52-8l-102 15H222l-1 2s15 21 50 28l12 8s-4 7 5 9 55 15 68 1c0 0 253-7 228-55Zm-405 40c-7-10-13-16-17-20l-1 1h-1l-1 1h-2l-1 1h-1l-1 1h-1l-1 1h-1l-2 1h-1c4 3 12 9 23 22 20 23 66 41 109 40 0-1-75-11-101-48Z" class="cls-1" data-name="Forma 2651"/><path id="Forma_2652" d="M27 226s-9-6-5 4c1 0 5 14 34 35 30 21 84 50 180 73a824 824 0 0 1-94-33c-48-20-101-49-115-79Zm404 93c-38 10-128 22-128 22s86-2 127-15c41-12 94-15 94-15s-56-2-93 8Zm298-106c-23 2-58 12-102 49a434 434 0 0 1 52-26c28-13 63-23 85-17 0-1-12-8-35-6Z" data-name="Forma 2652" style="fill:#8824a2"/><path id="Forma_2642" d="M607 68c-2-10-51-49-70-54S481 2 460 1s-77 19-95 24-28 32-28 32c-11 4-45 43-57 60s-16 38-16 38l23 36 141 5 114-29v-16c-6-15-19-28-28-34l-22-15c-10-11-9-50-9-52 1-8 17-15 17-15 20 1 67 24 75 30s7 21 7 21c-7 14 8 26 17 25s-5-8-6-16 16-17 14-27Z" class="cls-2" data-name="Forma 2642"/><path id="Forma_2647" d="m500 107-8-5a28 28 0 0 1-5-10c-12-4-29-12-37-21 5 6 23 27 50 36Zm-51-38 1 2-1-2ZM339 53l-2 4a17 17 0 0 0-3 1 23 23 0 0 1 3-1c8-2 37-8 47-13l-32 6-13 3Zm156 76c-39-13-64-38-64-38s8 27 25 40 43 29 45 41l37-12s-3-19-43-31Z" class="cls-1" data-name="Forma 2647"/><path id="Forma_2644" d="M333 162s-8 27-12 65l14 2c1 0 6-41 12-67Z" class="cls-4" data-name="Forma 2644"/><path id="Forma_2641" d="M571 183s-2-19-16-24c0 0-7-13-15-12 0 0 3 9-14 13 0 0-163 36-253-5a22 22 0 0 1-9-9s-17 0-17 10c0 0-15 16-12 28 0 0-11 8-6 11s126 66 331 6c0 0 24-7 11-18Z" data-name="Forma 2641" style="fill:#e36926"/><path id="Forma_2649" d="M261 146c-6 1-14 3-14 10 0 0-15 16-12 28 0 0-11 8-6 11h1c4-8 7-5 7-5 26 13 37 9 37 9-22-4-32-14-32-14a36 36 0 0 1 0-7c16 11 31 8 31 8-16-3-28-12-29-12 1-5 4-11 7-14s0-7 0-7c15 11 33 13 33 13-18-6-22-15-23-20Zm128 38s0 24-3 36c1-1 8-13 3-36Zm-54 3-5-3v-10s-8 28-8 44l4-9h4l-3-2a76 76 0 0 0 2-11h3l-3-2 1-8Z" data-name="Forma 2649" style="fill:#ff975b"/><path id="Forma_2648" d="M338 220s13-5 8-44Zm-31-48-9 25c-1 3 1 21 1 21l11 2 10-51-7-1-6 4Zm264 11s-2-19-16-24a40 40 0 0 0-3-5c-6 8-30 20-125 27 0 0 68 5 113-12 0 0 12 4 12 7 0 0-14 11-50 18 0 0 41-3 52-9 0 0 8 2 6 5 0 0-37 24-160 32 2 0 17 2 40 2 36-3 76-10 120-23 0 0 24-7 11-18Zm-185-8-8-1c5 11 0 53 0 53l7-1c8-47 1-51 1-51Z" data-name="Forma 2648" style="fill:#c64600"/><path id="Forma_2643_copia" d="M365 162a325 325 0 0 0-40-4s-22-4-29 14c-8 21-23 54 10 58s70 11 73-6 9-58-14-62Zm1 56c-3 14-29 9-52 6s-12-30-6-47c4-14 20-12 20-12a198 198 0 0 1 28 4c16 3 12 35 10 49Z" class="cls-4" data-name="Forma 2643 copia"/><path id="Forma_2644_copia" d="M306 221c3 3 6 4 11 5l4 1v-2l-7-1a20 20 0 0 1-8-3Zm69-53a17 17 0 0 0-10-6 325 325 0 0 0-40-4s-22-4-29 14-18 43-3 54c-10-12 0-35 6-51 7-18 29-15 29-15a322 322 0 0 1 39 5 17 17 0 0 1 8 3Zm-12 5c8 10 5 34 3 45-2 10-15 11-30 9v2c16 2 31 2 33-8 2-13 5-40-6-48Z" data-name="Forma 2644 copia" style="fill:#ffcd49"/></svg>