<svg xmlns="http://www.w3.org/2000/svg" id="Assets" viewBox="0 0 800 800"><defs><style>.cls-1{fill:#4c4c4c}.cls-3{fill:#141414}</style></defs><path id="Forma_2183" d="m574 210-349-11s-82-4-115 34 87 92 87 92 121 33 204 33 165-15 207-34 194-118-34-114Z" class="cls-1" data-name="Forma 2183"/><path id="Forma_2188" d="M318 285c-33 21-90 36-114 42 12 3 39 10 72 16 45-18 99-43 99-43s-54-16-57-15Zm-88-86h-5s-82-4-115 34c-17 19 5 42 31 60l89-38Zm344 11-25-1-103 86s-54 37-93 60a462 462 0 0 0 48 3c83 0 165-15 207-34s194-118-34-114Z" data-name="Forma 2188" style="fill:#272727"/><path id="Forma_2186" d="M628 229s65 4 24 39c-61 51-217 69-217 69 203-14 241-68 247-89s-54-19-54-19Zm-485 8c28-12 75-13 75-13l-4-17s-79 2-96 34c-9 17 29 44 29 44s-31-36-4-48Z" class="cls-3" data-name="Forma 2186"/><path id="Forma_2183_copia" d="M401 349c-151 0-289-43-297-105-13 65 162 114 297 114 172 0 282-54 295-109-22 61-145 100-295 100Z" data-name="Forma 2183 copia" style="fill:#817f7f"/><path id="Forma_2184" d="M605 18c-10 0-61-18-203-18S196 12 196 12s-43 4-40 22c3 17 53 116 56 182 59 58 369 12 369 12s5-92 42-166c22-43-16-39-18-44Z" class="cls-1" data-name="Forma 2184"/><path id="Forma_2192" d="M224 53c-50-6-65-16-68-23a10 10 0 0 0 0 4c3 17 53 116 56 182 6 5 14 10 24 14l40 9c0-42-22-126-33-159-8-29-19-27-19-27Zm405-18c-13 9-64 31-251 31 0 0-7-2-10 23-2 23-7 107-3 156 102 0 216-17 216-17s5-92 42-166c7-12 8-21 6-27Z" class="cls-3" data-name="Forma 2192"/><path id="Forma_2193" d="M581 217c-18 14-94 17-194 18s-176-25-176-25c2 10 2 44 2 44s-9 9 11 20 86 36 166 36 123-11 152-21 39-25 39-25v-47Z" data-name="Forma 2193" style="fill:#ff241e"/><path id="Forma_2197" d="m371 310-7-75a587 587 0 0 1-89-9c1 15 3 50-5 66a439 439 0 0 0 101 18Z" data-name="Forma 2197" style="fill:#ff8583"/><path id="Forma_2188-2" d="M605 18S544 0 402 0 196 12 196 12s-34 3-40 17c3 6 14 12 40 16 68 10 206 15 206 15s197 2 227-26c-2-9-24-16-24-16Z" data-name="Forma 2188" style="fill:#282828"/><path id="Forma_2196" d="M533 6C422 27 220 47 220 47c46 5 178 11 178 11 67-23 156-40 182-45l-47-7Z" data-name="Forma 2196" style="fill:#3c3c3c"/><path id="Forma_2191" d="M481 5c-196-6-271 5-296 17s29 17 29 17c-7-10 5-17 70-27s197-7 197-7Zm104 16s7 3 3 6c-7 6-32 19-167 26 0 0 111-1 155-10s40-17 9-22Z" data-name="Forma 2191" style="fill:#060606"/><path id="Forma_2188_copia_2" d="M628 31c-33 27-226 25-226 25s-138-5-206-15c-24-4-35-9-39-14a11 11 0 0 0-1 2l1 1v1h1v1c0 1 0 0 0 0h1v1h1l1 1 1 1h1l1 1h1v1h2v1h2l1 1h1l1 1h3l1 1h3l2 1h2l1 1h3l2 1h4l3 1c68 9 206 14 206 14h13c44 1 189-1 214-25a19 19 0 0 0-1-3Z" data-name="Forma 2188 copia 2" style="fill:#929292"/></svg>