<svg xmlns="http://www.w3.org/2000/svg" id="Assets" viewBox="0 0 800 800"><defs><style>.cls-1{fill:#d19b77}.cls-2{fill:#e2ba97}.cls-7{fill:#e9c2a1}.cls-11{fill:#f4d9bd}.cls-12{fill:#9d755a}.cls-13{fill:#b43029}.cls-14{fill:#ff746c}.cls-15{fill:#5a1c16}.cls-16{fill:#f6c288}.cls-17{opacity:.59}.cls-18{fill:#7b4427}.cls-19{fill:#f4f6e1}</style></defs><path id="Forma_6794" d="M407 47c-36 0-44 36-44 36l89 2s-9-38-45-38Z" class="cls-1" data-name="Forma 6794"/><path id="Forma_6796" d="M407 47c-36 0-44 36-44 36h29c4-27 20-33 28-34a45 45 0 0 0-13-2Z" class="cls-2" data-name="Forma 6796"/><path id="Forma_6795" d="M446 72c-9-2-22-3-39-3-18 0-31 1-40 3a49 49 0 0 0-4 11l89 2a58 58 0 0 0-6-13Z" data-name="Forma 6795" style="fill:#a67255"/><path id="Forma_6789_copia" d="M631 270c-23-20-16-79-67-136-69-78-259-78-328 0-51 57-44 116-67 136s-71 26-64 52 126 46 163 51a1035 1035 0 0 0 264 0c38-5 156-26 163-51s-40-32-64-52Z" class="cls-1" data-name="Forma 6789 copia"/><path id="Forma_6801" d="M631 270c-23-20-16-79-67-136-18-21-45-36-76-46 15 15 37 43 59 92 0 0 16 69 34 81 17 12 80 66 61 90 27-9 50-19 53-29 7-26-40-32-64-52Z" data-name="Forma 6801" style="fill:#a57154"/><path id="Forma_6791" d="M603 337c-11 6-100 17-202 20s-254-24-249-36c18-37 97-64 97-64s8-49 16-72c51-85 136-103 183-106-79-12-169 6-212 55-51 57-44 116-67 136s-71 26-64 52 125 46 163 51c36 5 70 7 102 8 256-25 233-44 233-44Z" class="cls-2" data-name="Forma 6791"/><path id="Forma_6802" d="M682 318c0-6-40-32-51-35 0 0 44 28 37 32l-22 10s-45-51-80-63a696 696 0 0 1 71 12l-6-4c-17-15-17-51-38-93a129 129 0 0 0-18-3s-16-55-72-75c0 0 34 27 54 72 0 0-100-9-155 21 0 0-118-41-188-7l-6 38-25 23a53 53 0 0 1-17 26c29-3 109-16 139-6 0 0-98 8-127 90l23 5c6-14 30-53 77-69 58-18 101-8 101-8s-2 13 7 13l25 2 4 82h18a69 69 0 0 0 0-23c-2-15-7-47-6-58 8-2 24 4 26-15 0 0 65-12 100 0 0 0 60 38 82 67l24-7a30 30 0 0 0-9-12c2 0 31-9 32-15Z" data-name="Forma 6802" style="fill:#83543d"/><path id="Forma_6792" d="M312 99c2-2 10-11-3-5a128 128 0 0 0-22 13c-37 28-42 53-43 55 30-44 66-61 68-63Zm33 260c-15 0-85-1-124-13 0 0-20-2-10 2 0 0 56 17 136 14 0 0 13-2-2-3Zm-177-79s-51 18-51 37c0 10 40 21 40 21s-30-14-32-21c-3-12 43-37 43-37Z" data-name="Forma 6792" style="fill:#f4f5e3"/><path id="Forma_6842" d="M420 280c-5-16-34-2-34-2s-9 62-5 86a48 48 0 0 0 4 16c3 8 29 6 37 2a47 47 0 0 0 5-18c0-15-2-67-7-84Z" class="cls-1" data-name="Forma 6842"/><path id="Forma_6845" d="M421 347s0 15-7 17c-9 2-28 3-24-25l8-65a72 72 0 0 0-12 4s-9 62-5 86v2c5 12 40 9 42 3s0-29-2-22Z" class="cls-7" data-name="Forma 6845"/><path id="Forma_6844" d="M390 363c-5-9 1-75 1-75l1-12-6 2s-9 62-5 86c20 12 34 4 34 4-11 0-22-2-25-5Z" data-name="Forma 6844" style="fill:#f6f4e0"/><path id="Forma_6846" d="m406 289-4 63s10-6 10-65c0 0-8 1-6 2Z" class="cls-7" data-name="Forma 6846"/><path id="Forma_6843" d="M420 280c-4-11-20-7-29-4l-7 11v7c5-2 16-4 16-1-2 47 2 58 2 58l4-61 11 3c1 22 7 50 10 72v-1c0-15-2-67-7-84Z" data-name="Forma 6843" style="fill:#b17f5f"/><path id="Forma_6814" d="M594 178c-98-32-188 15-190 15-71-36-187-7-187-7l-2 22 395 14c-4-14-9-28-16-44Z" data-name="Forma 6814" style="fill:#7c422f"/><path id="Forma_6809" d="M626 226c-8-23-1-30-32-37-131-34-226 12-226 12 18 2 95 61 95 61 148-24 180 15 180 15 18-8-17-51-17-51Z" class="cls-2" data-name="Forma 6809"/><path id="Forma_6811" d="M606 192a96 96 0 0 0-12-3c-81-21-149-11-189-1l9 3s91-24 192 1Zm-130 38 2 9c69-11 131 5 131 5-44-25-133-14-133-14Zm125-16c-94-32-165-6-165-6l-5 9c73-24 170-3 170-3Z" class="cls-11" data-name="Forma 6811"/><path id="Forma_6810" d="M505 248c-9-10-25-18-25-18 65-5 117 8 117 8-65-26-133-16-133-16-7-8-21-15-21-15 71-14 141 1 141 1-88-27-141-7-156-6 2-3-4-11-11-17-31 7-49 16-49 16 18 2 95 61 95 61 77-12 122-8 148-1-47-23-106-13-106-13Z" class="cls-12" data-name="Forma 6810"/><path id="Forma_6803" d="M370 193c-107-32-168-8-177-4s-14 32-14 32-7 6-15 29 1 23 1 23c39-39 312-14 312-14s-42-46-107-66Z" class="cls-2" data-name="Forma 6803"/><path id="Forma_6804" d="M204 200c63-27 155-7 202 7a232 232 0 0 0-36-14c-107-32-168-8-177-4s-14 32-14 32-7 6-15 29 1 23 1 23a36 36 0 0 1 10-7c1-7 2-17 6-26 8-17 31-21 35-24-9 0-27 4-27 4 11-19 15-20 15-20Z" class="cls-11" data-name="Forma 6804"/><path id="Forma_6805" d="M210 250s63-12 95 4l23-2s-62-24-118-2Zm28-14c3-1 92-14 163 17l9-10s-96-35-172-7Zm57-38c13 0 40 8 40 8-52-9-110 6-110 6 127-14 216 35 216 35l23 3c-82-57-169-52-169-52Z" class="cls-11" data-name="Forma 6805"/><path id="Forma_6806" d="M212 250c-17 2-53 9-47 23 18-17 80-22 145-22-15-3-50-9-98-1Zm29-39s126-5 195 39l7-3s-90-57-202-36Zm1 25s56-11 139 10l11-3s-94-18-150-7Z" class="cls-12" data-name="Forma 6806"/><path id="Forma_6815" d="M380 247s-79-7-131 19c-79 40-85 66-87 79s28 16 28 16 5 0 8-6c0 0 16-48 73-66s110-8 110-8Z" class="cls-13" data-name="Forma 6815"/><path id="Forma_6816" d="M226 284c32-22 78-33 106-37-26 2-58 7-83 19-79 40-85 66-87 79s28 16 28 16 5 0 8-6c0 0 7-20 26-38-21-11-41 28-41 28l-11-3s6-25 54-58Z" class="cls-14" data-name="Forma 6816"/><path id="Forma_6817" d="M252 272s-25 8-41 28c0 0 24-18 45-24Zm129-1c-17-2-64-5-93 4 0 0-8-10-17-18a149 149 0 0 0-21 9l19 17s-16-1-41 18-39 41-40 50a25 25 0 0 0 0 10h2s5 0 8-6c0 0 16-48 73-66s110-8 110-8Z" class="cls-15" data-name="Forma 6817"/><path id="Forma_6818" d="M254 261a113 113 0 0 0-12 4c-2 1-2 6-2 6l5-3c6 3 18 16 18 16 1 4-2 9-2 9a8 8 0 0 0 6 0 41 41 0 0 0 10-3c2-3 2-11 2-11-8-8-19-16-25-18Z" class="cls-16" data-name="Forma 6818"/><g id="Forma_6820" class="cls-17" data-name="Forma 6820"><path d="M277 279c-4 0-8 3-8 3-7-8-20-15-20-15a8 8 0 0 0-1 3c7 5 15 14 15 14 1 4-1 9-2 9a8 8 0 0 0 6 0 41 41 0 0 0 10-3v-11Z" class="cls-18"/></g><path id="Forma_6819" d="M268 283c-4-4-16-16-22-18h-5v6l4-3c6 3 18 16 18 16 1 4-2 9-2 9a8 8 0 0 0 4 1c3-3 5-9 3-11Z" class="cls-19" data-name="Forma 6819"/><path id="Forma_6815-2" d="M640 345c-2-13-8-39-87-79-52-26-131-19-131-19l-1 34s53-9 110 8 73 66 73 66c4 6 8 6 8 6s30-2 28-16Z" class="cls-13" data-name="Forma 6815"/><path id="Forma_6816-2" d="M640 345c-2-13-8-39-87-79-25-12-57-17-83-19 28 4 75 15 107 37 47 33 54 59 54 59l-11 2s-21-38-42-28c20 18 26 38 26 38 4 6 8 6 8 6s30-2 28-16Z" class="cls-15" data-name="Forma 6816" style="opacity:.6"/><path id="Forma_6817-2" d="m551 272-4 4c20 6 44 24 44 24-16-20-40-28-40-28Z" class="cls-15" data-name="Forma 6817"/><path id="Forma_6817_copia" d="M615 351c-1-9-16-31-41-50s-41-18-41-18l-5-3c-35-14-90-11-107-9v10s53-9 110 8 73 66 73 66c4 6 8 6 8 6h2a25 25 0 0 0 1-10Z" class="cls-14" data-name="Forma 6817 copia"/><path id="Forma_6840" d="m434 247 1 33 20-1a44 44 0 0 0 3-10c1-7 0-16-2-23l-22 1Zm119 19h-1c-7 3-15 10-17 17a70 70 0 0 0 3 9l8 3v-9c1-2 12-12 18-14l-11-6Z" class="cls-15" data-name="Forma 6840"/><path id="Forma_6818-2" d="M560 264a113 113 0 0 0-12-4c-6 3-17 11-24 19 0 0 0 8 2 11a41 41 0 0 0 9 3 8 8 0 0 0 6 0s-3-5-2-9c0 0 12-13 18-16l5 3s1-5-2-7Z" class="cls-16" data-name="Forma 6818"/><g id="Forma_6820-2" class="cls-17" data-name="Forma 6820"><path d="M554 270a8 8 0 0 0-1-3s-13 7-20 15c0 0-4-3-8-2 0 2-1 7 1 10a41 41 0 0 0 9 3 8 8 0 0 0 6 0s-3-5-2-9c0 0 8-9 15-14Z" class="cls-18"/></g><path id="Forma_6819-2" d="M561 265h-4c-6 2-18 14-22 18-3 2 0 8 2 11a8 8 0 0 0 4-1s-3-5-2-9c0 0 12-13 18-16l5 3s1-4-1-6Z" class="cls-19" data-name="Forma 6819"/><path id="Forma_6823" d="M446 239c-3-7-62-9-81-2 0 0-6 13-6 37a69 69 0 0 0 4 12c23 0 38-4 77 2 0 0 6-7 8-13s1-29-2-36Z" class="cls-16" data-name="Forma 6823"/><path id="Forma_6825" d="M365 270s-2-18 2-31c0 0 11-4 45-6-18-1-38 0-47 4 0 0-6 13-6 37a83 83 0 0 0 3 8c12 2 45-8 52-8-4 0-26-5-49-4Zm49 4v1Z" data-name="Forma 6825" style="fill:#f6f7e5"/><path id="Forma_6824" d="M360 275a62 62 0 0 0 3 11c23 0 38-4 77 2a43 43 0 0 0 6-9c-40-10-77-5-86-4Z" data-name="Forma 6824" style="fill:#8b5737"/><path id="Forma_6828" d="M434 243c-4-3-50-5-53 0l-1 20s42 0 57 4c0 0 2-21-3-24Z" data-name="Forma 6828" style="fill:#f7f8e7"/><path id="Forma_6826" d="M432 244c-35-6-57 0-57 0-4 5-3 21-3 21 41-6 62 0 62 0 1-8-2-21-2-21Z" class="cls-13" data-name="Forma 6826"/><path id="Forma_6829" d="M432 244c-35-6-57 0-57 0-4 5-3 21-3 21l13-2c-1-4-1-11 1-13 0 0 25-2 47 1l-1-7Z" data-name="Forma 6829" style="fill:#802620"/><path id="Forma_6827" d="M432 244c-35-6-57 0-57 0-4 5-3 21-3 21l5-1c0-4 0-15 3-18 0 0 20-4 49 0a45 45 0 0 1 2 18l3 1c1-8-2-21-2-21Z" class="cls-18" data-name="Forma 6827"/></svg>