<svg xmlns="http://www.w3.org/2000/svg" id="Assets" viewBox="0 0 800 800"><defs><style>.cls-3{fill:#12429b}.cls-5{fill:#0056e8}.cls-13{fill:#00740b}</style></defs><path id="Forma_2220" d="M663 304s2-41-26-101c-35-75-70-80-70-80 21 44 76 195 76 195 23 1 20-14 20-14Z" data-name="Forma 2220" style="fill:#0070ec"/><path id="Forma_2221" d="M373 55s-38 6-85-6-99-13-134 11 15 39 37 40 49-6 78-17 81-20 101-18 20-13 3-10ZM657 6c-50-18-129 9-161 23s-70 21-70 21c-5 0-58 16 0 11s145 29 204 11 77-48 27-66Z" data-name="Forma 2221" style="fill:#0064f1"/><path id="Forma_2228" d="m286 49-18 9c-42 24-96 27-96 27 16 10 58 4 88-7l68-22a251 251 0 0 1-40-7Zm205-9c-37 14-64 18-64 18l-2 3h1c18-2 38 0 59 3 25-23 93-54 93-54-13 2-50 16-87 30Z" class="cls-3" data-name="Forma 2228"/><path id="Forma_2227" d="M611 72s62-9 72-41c0 0-20 29-72 41Zm-463 2c4 27 62 22 62 22-55 1-62-22-62-22Zm129-4-55 19c-11 3 6 0 76-20 27-7 42-11 51-12a255 255 0 0 1-27-2l-45 15Zm150-15c14-3 69-23 69-23-29 11-71 20-71 20l2 3Z" data-name="Forma 2227" style="fill:#73a8ff"/><path id="Forma_2222" d="M428 60s0-13-8-17c-14-5-30-2-37 1-6 3-5 11-5 11-19 23 42 21 49 15s1-10 1-10Z" class="cls-5" data-name="Forma 2222"/><path id="Forma_2226" d="M417 54a75 75 0 0 1 11 5c0-1-1-13-8-16h-1c2 3 4 7 4 11a25 25 0 0 0-6 0Z" class="cls-3" data-name="Forma 2226"/><path id="Forma_2225" d="M393 53s-7-1-13 2a18 18 0 0 1 4-11h-1c-6 3-5 11-5 11a15 15 0 0 0-4 6c2-2 8-7 19-8Z" data-name="Forma 2225" style="fill:#5291f1"/><path id="Elipse_2224" d="M403 56c-14-1-26 3-26 8s12 10 26 10 25-3 25-8-11-10-25-10Z" class="cls-3" data-name="Elipse 2224"/><path id="Forma_2222-2" d="M419 73s0-9-5-11c-9-4-19-2-24 0-4 1-4 7-4 7-12 14 28 14 32 10s1-6 1-6Z" class="cls-5" data-name="Forma 2222"/><path id="Forma_2226-2" d="M412 69a48 48 0 0 1 7 4c0-1 0-9-5-11h-1c2 2 3 5 3 7a16 16 0 0 0-4 0Z" class="cls-3" data-name="Forma 2226"/><path id="Forma_2219" d="M144 312s7 9 17 4l65-186s-77 30-82 182Zm496-26c4-41-1-114-66-165S400 67 400 67c-32 116 0 218 0 218l239 11c8-8 1-10 1-10Z" data-name="Forma 2219" style="fill:#fdd600"/><path id="Forma_2237" d="M545 269h3a14 14 0 0 0-3 0Zm50-129a181 181 0 0 0-21-19 175 175 0 0 0-19-13c29 26 74 81 76 171 0-2 12-70-36-139Zm-47 128c14 1 80 10 83 12v-4s-55-8-83-8Z" data-name="Forma 2237" style="fill:#d9b600"/><path id="Forma_2235" d="M507 269s-66-10-89-8c2-3 3-149-9-188 0 0 5 146 2 193 0 0 54 0 96 3Zm-352 18-5 11c2-5 9-8 9-8 0-60 24-116 24-116-26 48-28 112-28 113Z" data-name="Forma 2235" style="fill:#fff3ba"/><path id="Forma_2214" d="M402 67s-6-5-10 2c0 0-121 7-180 67 0 0-47 35-48 157 0 0-7 18 36 10s170-17 188-17 12-5 14-11-2-192 0-208Z" data-name="Forma 2214" style="fill:#ff3d3f"/><path id="Forma_2215" d="M173 283c-1 1 3-97 51-158l-5 4c-21 26-51 77-51 158l17-3s-6-2-12-1ZM392 68l-3 1c-1 22-4 146 4 191 0 0 1-167 4-195-2 0-3 1-5 3Zm-104 52c-51 44-58 150-58 150-13 2-42 13-42 13 37-10 185-16 185-16-18-3-91-3-91-3-6-17 6-144 6-144Z" data-name="Forma 2215" style="fill:#ff8081"/><path id="Forma_2216" d="m659 344-11-48s-111-21-248-21-244 22-244 22-16 44-14 73 22 57 64 48 118-39 201-39c98 0 178 48 217 41 28-6 46-35 35-76Z" data-name="Forma 2216" style="fill:#009f2a"/><path id="Forma_2236_copia_2" d="M208 353c20 6 44-4 60-7 32-7 77-18 140-20 45 0 78 6 112 15 17 5 60 18 73 15 29-6 34-35 25-59a46 46 0 0 0-2-6l-4-1a47 47 0 0 1 5 16c5 29-15 47-33 45-23-2-43-9-63-14-56-14-68-15-113-15-93 0-182 35-199 27-27-13-19-42-11-59h-4c-9 20-18 53 14 63Zm19-26c17 5 40-3 54-6 29-5 68-14 124-16 40 0 69 5 100 12 15 4 55 15 66 13 23-5 27-25 21-42l-3-1 1 2c5 24-11 38-28 36-20-1-38-7-56-11-50-11-61-12-100-12-82 0-163 28-178 22-18-8-17-24-11-37h-4c-6 15-8 33 14 40Zm412-19a63 63 0 0 0-8-15h-4a70 70 0 0 1 11 27c7 36-13 59-34 57-25-3-48-12-70-19-63-17-77-19-126-19-103 1-204 46-223 35-32-18-14-62-4-82l-4 1c-11 22-31 72 7 86 22 9 50-4 68-9 36-9 85-22 156-25 49 0 86 7 125 19 18 6 68 23 82 19 32-8 34-45 24-75Z" class="cls-13" data-name="Forma 2236 copia 2"/><path id="Forma_2216_copia_3" d="M662 353c-2 25-17 42-38 46-39 8-119-40-217-40-83 0-158 30-201 39-41 8-61-17-64-46a97 97 0 0 0 0 12c1 30 22 57 64 48s118-39 201-39c98 0 178 49 217 41 25-5 41-28 38-61Z" data-name="Forma 2216 copia 3" style="fill:#00bf4b"/><path id="Forma_2216_copia_2" d="M662 359c-2 25-17 42-38 46-39 8-119-41-217-41-83 0-158 30-201 39-41 9-61-16-64-45a97 97 0 0 0 0 12c1 30 22 57 64 48s118-39 201-39c98 0 178 48 217 41 25-6 41-28 38-61Z" class="cls-13" data-name="Forma 2216 copia 2"/></svg>