<svg id="Assets" xmlns="http://www.w3.org/2000/svg" viewBox="0 0 800 800"><defs><style>.cls-1{fill:#d19b77;}.cls-2{fill:#e2ba97;}.cls-3{fill:#a67255;}.cls-4{fill:#a57154;}.cls-5{fill:#83543d;}.cls-6{fill:#f4f5e3;}.cls-7{fill:#e9c2a1;}.cls-8{fill:#f6f4e0;}.cls-9{fill:#b17f5f;}.cls-10{fill:#7c422f;}.cls-11{fill:#f4d9bd;}.cls-12{fill:#9d755a;}.cls-13{fill:#b43029;}.cls-14{fill:#ff746c;}.cls-15{fill:#5a1c16;}.cls-16{fill:#f6c288;}.cls-17{opacity:0.59;}.cls-18{fill:#7b4427;}.cls-19{fill:#f4f6e1;}.cls-20{opacity:0.6;}.cls-21{fill:#f6f7e5;}.cls-22{fill:#8b5737;}.cls-23{fill:#f7f8e7;}.cls-24{fill:#802620;}</style></defs><g id="Forma_6794" data-name="Forma 6794"><path class="cls-1" d="M406.8,47.12c-36.24,0-43.8,35.51-43.8,35.51l88.6,2.66S443,47.12,406.8,47.12Z"/></g><g id="Forma_6796" data-name="Forma 6796"><path class="cls-2" d="M406.8,47.12c-36.24,0-43.8,35.51-43.8,35.51l28.51.86C396.31,56.09,412.08,50.22,420,49A44.8,44.8,0,0,0,406.8,47.12Z"/></g><g id="Forma_6795" data-name="Forma 6795"><path class="cls-3" d="M446.21,71.75c-9.28-1.84-21.91-3-39.07-3-18.13,0-30.95,1.22-40,3A48.85,48.85,0,0,0,363,82.63l88.6,2.66A58.06,58.06,0,0,0,446.21,71.75Z"/></g><g id="Forma_6789_copia" data-name="Forma 6789 copia"><path class="cls-1" d="M631.47,270.14c-23.3-19.68-16.35-79.07-67-136.07-69.64-78.31-259.24-78.31-328.88,0-50.68,57-43.73,116.39-67,136.07s-70.82,25.57-63.39,51.43,125.3,46.63,163,51.44a1035.16,1035.16,0,0,0,263.82,0c37.65-4.81,155.51-25.57,163-51.44S654.78,289.81,631.47,270.14Z"/></g><g id="Forma_6801" data-name="Forma 6801"><path class="cls-4" d="M631.47,270.14c-23.3-19.68-16.35-79.07-67-136.07-18.6-20.91-45.74-36.23-76.87-46,15.34,14.83,37.7,42.64,59.28,92.11,0,0,16.1,68.65,33.85,81,16.77,11.63,80.42,65.65,60.77,89.39,27.82-8.24,50.28-18.17,53.39-29C702.29,295.71,654.78,289.81,631.47,270.14Z"/></g><g id="Forma_6791" data-name="Forma 6791"><path class="cls-2" d="M602.93,336.84c-11,6.09-100.35,17.58-202.1,20.58s-254.32-24.57-248.56-36.51c17.55-37.16,96.24-64.38,96.24-64.38s8.57-48.76,16.92-71.68C315.69,99.77,401.47,82,447.82,79,369.23,66.82,279,85.19,235.56,134.07c-50.68,57-43.73,116.39-67,136.07s-70.82,25.57-63.39,51.43,125.3,46.63,163,51.44c36,4.6,69.92,7.06,101.59,8C625.52,356,602.93,336.84,602.93,336.84Z"/></g><g id="Forma_6802" data-name="Forma 6802"><path class="cls-5" d="M681.58,318.26c.47-6.16-39.44-32.63-50.77-35.18,0,0,44.62,27.87,36.84,32.19s-21.91,9.62-21.91,9.62-45.13-50.95-80-62.39A696.32,696.32,0,0,1,636.53,274c-1.78-1.22-3.48-2.49-5.06-3.82-17.4-14.7-17.93-51.56-38.21-93a128.72,128.72,0,0,0-17.87-3.22s-16.76-54.64-72-74.67c0,0,33.64,26.8,53.77,71.68,0,0-100-9.08-155,20.91,0,0-117.82-40.51-188.5-7l-5.31,37.83s-12.81,11.62-25.83,23.64c-3.61,10.28-7.7,18.5-14,23.82-.82.69-1.67,1.36-2.55,2,28.74-3.05,108.65-15.93,138.61-6.34,0,0-97.77,8.24-126.12,90.18,7.33,1.84,14.79,3.56,22.17,5.16,6.87-13.89,30.11-53.55,77.4-68.79,57.77-18.61,101.22-8,101.22-8s-2,12.63,6.3,12.27,25.56,2,25.56,2l3.77,82.66q9.11-.13,17.9-.41a68.91,68.91,0,0,0,.23-22.52c-2.28-15.17-6.72-47.64-6.31-58.41,8.76-2.43,24.73,4.19,25.89-15.26,0,0,65.63-11.74,100.55.66,0,0,60,37.47,82,67,8.41-2.36,16.44-4.86,23.75-7.5a30,30,0,0,0-8.49-11.71C652.37,333.41,681.12,324.41,681.58,318.26Z"/></g><g id="Forma_6792" data-name="Forma 6792"><path class="cls-6" d="M311.89,98.9c2.32-1.84,10.35-10.8-3.32-4.65a127.74,127.74,0,0,0-21.9,12.28c-36.23,28.4-42.06,53.7-42.48,55.75C274.4,118.15,309.57,100.73,311.89,98.9Zm33.19,260.51c-15.11-.16-84.85-1.87-124.45-13.28,0,0-19.53-2.38-10,1.66,0,0,56.24,17.34,136.4,14.27C347.07,362.06,360.19,359.57,345.08,359.41Zm-176.88-79s-51.09,17.48-51.44,36.51c-.08,10.38,40.48,21.24,40.48,21.24s-29.77-13.86-31.86-21.24C122,305.08,168.2,280.42,168.2,280.42Z"/></g><g id="Forma_6842" data-name="Forma 6842"><path class="cls-1" d="M420.08,280.42c-5.26-16.3-34.52-2-34.52-2s-8.47,61.33-5,85.29a47.58,47.58,0,0,0,4,16.26c3.74,8.35,29.88,6.11,37.83,2a47,47,0,0,0,4.31-17.92C427.18,349,425.34,296.73,420.08,280.42Z"/></g><g id="Forma_6845" data-name="Forma 6845"><path class="cls-7" d="M421.41,347.13s-.42,15.21-7,16.92c-8.92,2.33-28.52,3.05-24.89-25.55,3.23-25.56,5.33-46.69,8.55-64.57a72.2,72.2,0,0,0-12.54,4.5s-8.47,61.33-5,85.29c0,0,0,1,.24,2.73,5.18,11.37,39.93,8.48,41.9,2.25S423.08,340,421.41,347.13Z"/></g><g id="Forma_6844" data-name="Forma 6844"><path class="cls-8" d="M389.55,362.72c-4.28-8.31,1.32-74.66,1.32-74.66.28-4.68.65-8.75,1-12.22-3.74,1.34-6.31,2.59-6.31,2.59s-8.47,61.33-5,85.29c0,0,0,.09,0,.25,20.69,12.49,34.83,4.06,34.83,4.06C404.46,368.11,392.86,365.53,389.55,362.72Z"/></g><g id="Forma_6846" data-name="Forma 6846"><path class="cls-7" d="M406.14,288.72l-4,63s9.92-5.47,9.95-64.38C412.11,287.39,404,288,406.14,288.72Z"/></g><g id="Forma_6843" data-name="Forma 6843"><path class="cls-9" d="M420.08,280.42c-3.77-11.68-19.86-7.64-28.68-4.41-1.67,2.53-4.47,6.82-6.9,10.69-.26,2.08-.54,4.49-.85,7.16,5.85-1.63,16.32-3.91,16.18-.49-1.8,46.54,2.33,57.41,2.33,57.41l4-60.4s5.91,1.55,10.62,2.32c1.55,22.26,7.48,50,9.89,72.68,0-.44.05-.88.06-1.33C427.18,349,425.34,296.73,420.08,280.42Z"/></g><g id="Forma_6814" data-name="Forma 6814"><path class="cls-10" d="M593.73,178.08c-97.43-31.74-187.63,14.55-189.25,15.4-71.93-36-187.17-7-187.17-7l-2,21.9,394.6,13.32C606,208.46,601.22,193.61,593.73,178.08Z"/></g><g id="Forma_6809" data-name="Forma 6809"><path class="cls-2" d="M625.5,226c-7.6-22.67-.6-30.05-31.2-36.84-130.95-33.74-226.66,12-226.66,12,17.94,1.71,95.58,60.4,95.58,60.4,147.94-23.29,179.54,15.59,179.54,15.59C661.49,269.31,625.5,226,625.5,226Z"/></g><g id="Forma_6811" data-name="Forma 6811"><path class="cls-11" d="M605.71,192.31a95.71,95.71,0,0,0-11.41-3.15c-81.72-21-149.71-11.18-189.29-.77l9.43,3.09S504.63,167.16,605.71,192.31Zm-130.21,38,2.65,8.63c69.26-10.61,130.76,4.65,130.76,4.65C564.62,218.75,475.5,230.31,475.5,230.31Zm125.11-15.93c-93.39-31.92-164.27-6.63-164.27-6.63l-5.64,9.62C503.92,192.61,600.61,214.38,600.61,214.38Z"/></g><g id="Forma_6810" data-name="Forma 6810"><path class="cls-12" d="M505,247.9c-8.94-9.89-24.55-17.59-24.55-17.59C544.57,225.23,597,238,597,238,532,211.8,463.55,221.68,463.55,221.68c-7-7.48-20.57-14.93-20.57-14.93,70.62-13.94,140.71,1.33,140.71,1.33C495.58,181.41,443,200.7,428,201.77c2.37-3.21-3.84-10.42-10.69-16.37-31.46,7-49.71,15.71-49.71,15.71,17.94,1.71,95.58,60.4,95.58,60.4,76.43-12,121.81-7.47,147.82-.25C564.2,237.93,505,247.9,505,247.9Z"/></g><g id="Forma_6803" data-name="Forma 6803"><path class="cls-2" d="M370,193.14c-106.66-32-168.16-7.71-176.55-3.65s-14.27,31.86-14.27,31.86-6.93,5.36-15.27,28.21,1,23.23,1,23.23c39-38.48,312-14.27,312-14.27S435.1,212.67,370,193.14Z"/></g><g id="Forma_6804" data-name="Forma 6804"><path class="cls-11" d="M204,199.78c63.24-27.24,155.11-6.35,202,7.64A232.12,232.12,0,0,0,370,193.14c-106.66-32-168.16-7.71-176.55-3.65s-14.27,31.86-14.27,31.86-6.93,5.36-15.27,28.21,1,23.23,1,23.23A36.4,36.4,0,0,1,175.42,266c.3-6.81,1.6-16.93,6.05-26.41,7.66-16.3,30.91-21,34.84-23.89-9.7.45-26.88,4.65-26.88,4.65C199.88,201.28,204,199.78,204,199.78Z"/></g><g id="Forma_6805" data-name="Forma 6805"><path class="cls-11" d="M210.34,249.89s62.85-12.07,94.91,4l22.57-2.32S266.42,227.84,210.34,249.89Zm27.55-14.27c3.29-.73,92.59-13.85,163.6,17.26l8.63-10S314.14,207.56,237.89,235.62Zm57.41-37.17c12.82,0,39.49,8,39.49,8-52-9.27-110.18,5.64-110.18,5.64,127-14.43,216,35.18,216,35.18l23.23,3C382.22,193,295.3,198.45,295.3,198.45Z"/></g><g id="Forma_6806" data-name="Forma 6806"><path class="cls-12" d="M211.67,249.56c-16.87,2.47-53.08,9.33-46.51,23C182.77,255.73,245.44,251,310,251,295.4,247.85,260.24,242.46,211.67,249.56Zm28.87-38.16s126-5.28,195.8,38.82l7-3.31S353.4,189.94,240.54,211.4Zm1.33,24.22s55.86-10.23,139.05,10.29l11.28-3.32S297.76,224.53,241.87,235.62Z"/></g><g id="Forma_6815" data-name="Forma 6815"><path class="cls-13" d="M380.25,247.24s-79-7.07-131.08,18.91c-79,39.45-85.32,66.21-87.28,79.32s28.21,15.26,28.21,15.26,4.53.15,8-6c0,0,16.16-48,73-65.38s110.18-8,110.18-8Z"/></g><g id="Forma_6816" data-name="Forma 6816"><path class="cls-14" d="M225.61,284.07c32-22.34,78.81-32.62,106.21-37-25.83,1.64-57.41,6.47-82.65,19.06-79,39.45-85.32,66.21-87.28,79.32s28.21,15.26,28.21,15.26,4.53.15,8-6c0,0,6.56-19.46,26-38.08-20.84-10.16-41.25,28.46-41.25,28.46l-11.29-2.66S178,317.38,225.61,284.07Z"/></g><g id="Forma_6817" data-name="Forma 6817"><path class="cls-15" d="M251.82,272.46s-24.33,8-40.81,27.87c0,0,23.89-18,44.8-23.89Zm129.12-1.56c-16.6-1.42-64.13-4.44-92.94,4.55,0,0-8.29-10.68-16.73-18a149,149,0,0,0-21,8.22l18.84,17.78s-16.27-1.12-41.15,17.92-39.32,40.75-40.16,50.11a25.36,25.36,0,0,0,.66,9.14c1,.11,1.67.15,1.67.15s4.53.15,8-6c0,0,16.16-48,73-65.38s110.18-8,110.18-8Z"/></g><g id="Forma_6818" data-name="Forma 6818"><path class="cls-16" d="M254.15,260.51a112.72,112.72,0,0,0-12,4c-2.62,1.17-1.66,6.31-1.66,6.31,1.59-1.12,4.32-2.66,4.32-2.66,6.42,2.61,18.58,16.27,18.58,16.27.57,3.32-2,8.62-2,8.62a8,8,0,0,0,6,.34,40.83,40.83,0,0,0,9.29-3.65c2-2.82,2-10.62,2-10.62C271.26,271.07,259.93,263.19,254.15,260.51Z"/></g><g id="Forma_6820" data-name="Forma 6820" class="cls-17"><path class="cls-18" d="M277.48,279.48c-4.18-.07-8.07,2.93-8.07,2.93-7.52-8.71-20.24-15.26-20.24-15.26a7.76,7.76,0,0,0-.83,3c6.55,4.63,15.1,14.24,15.1,14.24.55,3.19-1.8,8.22-2,8.6l.06.05a8,8,0,0,0,5.9.31,40.83,40.83,0,0,0,9.29-3.65C278.31,287.4,277.73,281.52,277.48,279.48Z"/></g><g id="Forma_6819" data-name="Forma 6819"><path class="cls-19" d="M267.75,282.75c-4.05-4.22-15.95-15.33-22.23-17.92-1.71-.71-3.06.11-4.11.23-1.61,1.75-.87,5.74-.87,5.74,1.59-1.12,4.32-2.66,4.32-2.66,6.42,2.61,18.58,16.27,18.58,16.27.57,3.32-2,8.62-2,8.62a8.19,8.19,0,0,0,4,.73C267.6,290.86,270.21,285.31,267.75,282.75Z"/></g><g id="Forma_6815-2" data-name="Forma 6815"><path class="cls-13" d="M640.43,345.47c-1.95-13.11-8.23-39.87-87.28-79.32-52.07-26-131.08-18.91-131.08-18.91l-1,34.18s53.33-9.42,110.18,8,73,65.38,73,65.38c3.44,6.12,8,6,8,6S642.39,358.58,640.43,345.47Z"/></g><g id="Forma_6816-2" data-name="Forma 6816" class="cls-20"><path class="cls-15" d="M640.43,345.47c-1.95-13.11-8.23-39.87-87.28-79.32-25.24-12.59-56.81-17.42-82.65-19.06,27.4,4.36,74.26,14.64,106.22,37,47.65,33.31,54.09,58.41,54.09,58.41l-11.28,2.66s-20.42-38.62-41.26-28.46c19.43,18.62,26,38.08,26,38.08,3.44,6.12,8,6,8,6S642.39,358.58,640.43,345.47Z"/></g><g id="Forma_6817-2" data-name="Forma 6817"><path class="cls-15" d="M550.5,272.46l-4,4c20.9,5.93,44.8,23.89,44.8,23.89C574.84,280.42,550.5,272.46,550.5,272.46Z"/></g><g id="Forma_6817_copia" data-name="Forma 6817 copia"><path class="cls-14" d="M614.55,351.44c-.83-9.36-15.28-31.06-40.16-50.11s-41.15-17.92-41.15-17.92l-5.31-3.65c-35-14-89.95-10.28-106.55-8.86l-.31,10.52s53.33-9.42,110.18,8,73,65.38,73,65.38c3.44,6.12,8,6,8,6s.61,0,1.66-.15A25.36,25.36,0,0,0,614.55,351.44Z"/></g><g id="Forma_6840" data-name="Forma 6840"><path class="cls-15" d="M434.18,246.57c.47,11.13.91,26.73,1.08,33.19,5.43-.45,12.23-.82,20-.88a43.88,43.88,0,0,0,2.28-9.41c1.52-7.11,0-16.7-1.34-23C447.53,246.26,440,246.38,434.18,246.57Zm119,19.58c-.35-.18-.72-.35-1.08-.52-6.9,3.48-14.93,10.69-16.84,17.78a69.74,69.74,0,0,0,2.46,8.14q4.11,1.5,7.91,3.21c-.32-2.85-.75-8,.25-9,1.31-1.37,12.21-11.49,17.95-14.11Q558.71,268.93,553.15,266.15Z"/></g><g id="Forma_6818-2" data-name="Forma 6818"><path class="cls-16" d="M560.12,264.49a113.43,113.43,0,0,0-11.94-4c-5.79,2.68-17.12,10.56-24.56,18.59,0,0,0,7.8,2,10.62a40.83,40.83,0,0,0,9.29,3.65,8.06,8.06,0,0,0,6-.34s-2.57-5.3-2-8.62c0,0,12.16-13.66,18.59-16.27,0,0,2.72,1.54,4.31,2.66C561.78,270.8,562.74,265.66,560.12,264.49Z"/></g><g id="Forma_6820-2" data-name="Forma 6820" class="cls-17"><path class="cls-18" d="M554,270.17a7.6,7.6,0,0,0-.83-3s-12.71,6.55-20.24,15.26c0,0-3.89-3-8.06-2.93-.26,2-.83,7.92.76,10.24a40.83,40.83,0,0,0,9.29,3.65,8.07,8.07,0,0,0,5.91-.31l.05-.05c-.18-.38-2.53-5.41-2-8.6C538.88,284.41,547.43,274.8,554,270.17Z"/></g><g id="Forma_6819-2" data-name="Forma 6819"><path class="cls-19" d="M560.91,265.06c-1-.12-2.39-.94-4.11-.23-6.28,2.59-18.18,13.7-22.23,17.92-2.46,2.56.15,8.11,2.27,11a8.21,8.21,0,0,0,4-.73s-2.57-5.3-2-8.62c0,0,12.16-13.66,18.59-16.27,0,0,2.72,1.54,4.31,2.66C561.78,270.8,562.53,266.81,560.91,265.06Z"/></g><g id="Forma_6823" data-name="Forma 6823"><path class="cls-16" d="M445.8,238.94c-3.26-7.23-62.28-9.39-81.22-1.78,0,0-5.39,13.05-5.35,36.64a68.7,68.7,0,0,0,4.25,12.1c22.23.21,37.59-3.71,76.64,2.49,0,0,6.13-6.92,7.42-13.17S449.06,246.16,445.8,238.94Z"/></g><g id="Forma_6825" data-name="Forma 6825"><path class="cls-21" d="M365,269.53s-1.52-17.87,2.48-30.95c0,0,10.68-4,44.73-6.06-17.82-.59-38,.75-47.66,4.64,0,0-5.39,13.05-5.35,36.64a83.19,83.19,0,0,0,2.53,8.12c11.86,2.1,45.63-8.24,51.88-7.48C410.48,273.89,388.28,269.37,365,269.53Zm48.61,4.91.42.07Z"/></g><g id="Forma_6824" data-name="Forma 6824"><path class="cls-22" d="M359.61,275.25a62.27,62.27,0,0,0,3.87,10.65c22.23.21,37.59-3.71,76.64,2.49a42.83,42.83,0,0,0,6.27-9.66C406.3,269.37,368.67,273.92,359.61,275.25Z"/></g><g id="Forma_6828" data-name="Forma 6828"><path class="cls-23" d="M434.41,242.64c-4.56-2.88-50.28-4.85-53.57.7l-.37,19.8s41.67-.26,56.77,4.26C437.24,267.4,439.08,245.58,434.41,242.64Z"/></g><g id="Forma_6826" data-name="Forma 6826"><path class="cls-13" d="M432,244c-34.51-6-56.73-.35-56.73-.35-4.46,4.95-3,21-3,21,41-5.43,61.45.38,61.45.38C435.38,256.56,432,244,432,244Z"/></g><g id="Forma_6829" data-name="Forma 6829"><path class="cls-24" d="M432,244c-34.51-6-56.73-.35-56.73-.35-4.46,4.95-3,21-3,21,4.34-.58,8.43-1,12.28-1.36-.18-4.23-.17-11.11,1.63-12.86,0,0,25-2.88,47.24.79C432.85,247.12,432,244,432,244Z"/></g><g id="Forma_6827" data-name="Forma 6827"><path class="cls-18" d="M432,244c-34.51-6-56.73-.35-56.73-.35-4.46,4.95-3,21-3,21,1.71-.23,3.36-.43,5-.62-.15-4-.31-15.14,2.45-17.9,0,0,20.27-4,49.14-.36a44.7,44.7,0,0,1,1.89,18.6c2,.38,3,.66,3,.66C435.38,256.56,432,244,432,244Z"/></g></svg>