<svg xmlns="http://www.w3.org/2000/svg" id="Assets" viewBox="0 0 800 800"><defs><style>.cls-4{fill:#e15daa}.cls-5{fill:#a1337b}.cls-6{fill:#871c53}.cls-7{fill:#dc65a9}.cls-8{fill:#ffde42}.cls-9{fill:#f7bf24}.cls-14{fill:#dd5ca9}</style></defs><path id="Forma_2031" d="M100 233s46 35 89 37l3-10s-36-37-92-27ZM60 353s61 7 84-22c0 0-49-7-84 22Zm538-79s-18-1-9 16l10 16s12 14 47 18c0 0-19-43-48-50Z" data-name="Forma 2031" style="fill:#006287"/><path id="Forma_2030" d="M59 416s54-26 82-72l-6-9s-43 7-76 81Zm10-129s69 1 116-25l-6-10s-53-15-110 35Zm130-151c6 9 36 35 36 35l17-1c-20-32-53-34-53-34Zm70 34h14c9-29-4-56-4-56-5 14-10 56-10 56Zm394 181s-13 59-12 76c0 0 13-7 20-31a89 89 0 0 0 2-45ZM552 160h14c8-29-5-54-5-54Zm154 206c-19-24-29-11-29-11l39 54s8-18-10-43Zm-125-84-4 2s23 76 59 103c0 0-4-69-55-105Z" data-name="Forma 2030" style="fill:#009cb1"/><path id="Forma_2029" d="M69 334s56-14 111-67l-11-8s-60 6-100 75Zm14 124s57-62 64-120c0 0-52 9-64 120Zm471-298s9-29 6-55c0 0-24 16-23 61Zm118 186-7 6v-5l-3 2s-39 41-11 78c0-1 12-38 14-67 3 12 14 39 52 49 0 0-17-35-45-63ZM199 136s6 46 44 49l-4-14s-12-17-40-35Zm380 170c-8-10-23-27-41-41l-9 11s16 36 52 40a255 255 0 0 1 2 47c-2 44 19 58 19 58s21-91-29-143a255 255 0 0 1 6 28ZM257 173l12 2c7-17 10-61 10-61-29 26-22 59-22 59Z" data-name="Forma 2029" style="fill:#00c1dc"/><path id="Forma_1961" d="M677 174a121 121 0 0 0-10 30l6 6s14-10 21-32c11-38-9-19-17-4Z" class="cls-4" data-name="Forma 1961"/><path id="Forma_1962" d="m670 207 2 1c4-6 6-17 6-17-4 5-8 16-8 16Z" class="cls-5" data-name="Forma 1962"/><path id="Forma_1961-2" d="M650 176c-9-14-32-31-16 7 9 20 24 29 24 29l6-7a121 121 0 0 0-14-29Z" class="cls-4" data-name="Forma 1961"/><path id="Forma_1962-2" d="M651 193s4 11 9 16l1-1s-5-10-10-15Z" class="cls-5" data-name="Forma 1962"/><path id="Forma_1961-3" d="M661 221s-14 10-22 31c-13 38 8 20 17 5a121 121 0 0 0 11-29Z" class="cls-4" data-name="Forma 1961"/><path id="Forma_1962-3" d="M663 224c-5 6-8 17-8 17 5-6 9-16 9-16Z" class="cls-5" data-name="Forma 1962"/><path id="Forma_1961-4" d="M622 207c-40 3-15 16 2 17a121 121 0 0 0 32-1l4-9s-16-9-38-7Z" class="cls-4" data-name="Forma 1961"/><path id="Forma_1962-4" d="M639 217c7 2 18 1 18 1l1-1c-7-2-19 0-19 0Z" class="cls-5" data-name="Forma 1962"/><path id="Forma_1961-5" d="M711 209c-22-4-38 4-38 4l3 8a121 121 0 0 0 32 5c17 0 43-10 3-17Z" class="cls-4" data-name="Forma 1961"/><path id="Forma_1962-5" d="M675 215v2s11 2 18 0c0 0-11-3-18-2Z" class="cls-5" data-name="Forma 1962"/><path id="Forma_1961-6" d="M698 248c-10-20-26-28-26-28l-5 8a122 122 0 0 0 16 27c10 14 34 29 15-7Z" class="cls-4" data-name="Forma 1961"/><path id="Forma_1962-6" d="m671 223-1 1s5 10 11 15c0 0-5-11-10-16Z" class="cls-5" data-name="Forma 1962"/><path id="Forma_1959" d="M667 181c-6-31-12-14-12 2s4 22 5 24c3 3 8 0 8 0s3-8-1-26Z" class="cls-6" data-name="Forma 1959"/><path id="Forma_1961-7" d="m662 184 2 23h2c0-8-4-23-4-23Z" class="cls-7" data-name="Forma 1961"/><path id="Forma_1959-2" d="M678 248c-2-16-6-21-7-23-3-3-8 0-8 0s-3 8 2 26c9 30 14 13 13-3Z" class="cls-6" data-name="Forma 1959"/><path id="Forma_1961-8" d="M667 225h-2c1 8 6 22 6 22l-4-22Z" class="cls-7" data-name="Forma 1961"/><path id="Forma_1959-3" d="M638 195c-29-12-18 3-5 12s20 9 22 8c4 0 5-6 5-6s-5-7-22-14Z" class="cls-6" data-name="Forma 1959"/><path id="Forma_1961-9" d="m638 202 20 10 1-1c-7-5-21-9-21-9Z" class="cls-7" data-name="Forma 1961"/><path id="Forma_1959-4" d="M692 193c-16 10-19 17-19 17s1 6 5 6c3 0 9-2 21-13s20-27-7-10Z" class="cls-6" data-name="Forma 1959"/><path id="Forma_1961-10" d="m674 211 1 2 18-14s-13 7-19 12Z" class="cls-7" data-name="Forma 1961"/><path id="Forma_1959-5" d="M698 226c-14-9-20-8-23-8-4 0-4 6-4 6s5 7 22 14c30 10 19-4 5-12Z" class="cls-6" data-name="Forma 1959"/><path id="Forma_1961-11" d="m673 221-1 2c7 4 21 8 21 8l-20-10Z" class="cls-7" data-name="Forma 1961"/><path id="Forma_1959-6" d="M657 218c-3 0-9 1-22 10s-23 25 5 12c17-8 21-16 21-16s0-5-4-6Z" class="cls-6" data-name="Forma 1959"/><path id="Forma_1961-12" d="m659 221-19 12s14-5 20-10Z" class="cls-7" data-name="Forma 1961"/><path id="Elipse_1951" d="M677 213a11 11 0 1 0-10 12 11 11 0 0 0 10-12Z" class="cls-8" data-name="Elipse 1951"/><path id="Elipse_1952_copia_4" d="M659 211a2 2 0 1 0 1 1 1 1 0 0 0-1-1Zm0 5a1 1 0 1 0 1 0 1 1 0 0 0-1 0Zm3-6a1 1 0 1 0-2 0 1 1 0 0 0 2 0Zm1 1a1 1 0 1 0 0 2 1 1 0 0 0 0-2Zm3-2a1 1 0 0 0-1 0 1 1 0 1 0 1 0Z" class="cls-9" data-name="Elipse 1952 copia 4"/><path id="Forma_2047" d="M528 166c0-13-15-22-15-22s5-25-35-37-60 16-60 18c0 0-29-14-39 0a23 23 0 0 0-1 27s-8 42 53 42c0 0 54 26 88-9a24 24 0 0 0 9-19Z" data-name="Forma 2047" style="fill:#7080dc"/><path id="Forma_2048" d="M500 131c-16-11-47-3-55-1a47 47 0 0 0-5 1 47 47 0 0 0-5 0c-7-4-28-13-41 7a19 19 0 0 0 0 22s-5-35 30-28c-12 3-25 13-18 45 0-2-7-36 23-44l2 1c-7 3-13 9-11 20 5 23 25 17 25 17s-20-2-20-19c1-8 5-13 9-16 7 24 27 10 31 8a26 26 0 0 1-5 20c2-2 5-2 5-2s11-20-3-27c12 2 26 8 25 17 0 15-19 17-19 17s21 2 24-18c2-15-19-19-34-19 8-2 29-6 40 3 13 12 0 36 0 36s20-28 2-40Zm-63 1h-1Zm0 0h-2a4 4 0 0 1 2 0Zm24 2a28 28 0 0 1 4 10c-22 10-29-5-31-9a33 33 0 0 1 9-4l5 1h-2a141 141 0 0 1 15 2Zm-55 43Z" data-name="Forma 2048" style="fill:#4d66bf"/><path id="Forma_2043" d="M714 285s12-21-12-41-50-6-50-6-30-3-45 34 30 42 30 42c2 54 35 41 35 41s51 35 66-4-24-66-24-66Z" data-name="Forma 2043" style="fill:#fbc7e7"/><path id="Forma_2044" d="m614 282-7-2c14 39 45 24 45 24-30 9-38-22-38-22Zm121 48c-1-25-25-32-29-33a21 21 0 0 0 9-12s-4 6-18 11c10-7 14-22-11-29-7-3-12-2-16 1 4-15-23-28-25-28s-6 8-6 10c28 1 30 13 30 18-8 6-8 19-8 26 1-11 10-32 29-20 18 12 5 21 0 24a130 130 0 0 1-26 4s21 4 36-2l2 1c6 7 19 28-4 30-28 4-37-33-37-33v-4a13 13 0 0 0 0 4c-25-10-22-30-22-30l-7 1c0 27 26 33 26 33 2 10 9 23 19 31 2 5 2 14-5 21 0 0 14-6 9-18a25 25 0 0 0 22 1c19-8 5-28-1-36 31 9 33 29 33 29Z" data-name="Forma 2044" style="fill:#dea7cb"/><path id="Forma_2039" d="M640 217a2 2 0 0 1 0 1 3 3 0 0 1 0-1c3-7-2-57-46-71 0 0-19-2-30 15 0 0-37-25-45 27s26 80 26 80 46 45 93 7c34-27 7-67 2-58Z" class="cls-14" data-name="Forma 2039"/><path id="Forma_2040" d="M535 160s-8 9-2 33l5 7s-8-20-3-40Zm109 68c5 49-43 61-43 61 60-13 43-61 43-61Zm-86 47s30-28 53-21c0 0 11-20 28-35 0 0-7 3-17 14a84 84 0 0 0-13-8c4-2 13-12 7-26-7-14-24-8-27-7a33 33 0 0 0-7-18h3a54 54 0 0 1 42 16c2 4 10 28-12 38 0 0 33-9 13-37a61 61 0 0 1 11 17s-15-50-56-40c-29 7-31 34-31 40-3-16-2-33 11-47 0 0-45 33 10 98a83 83 0 0 0-15 16Zm31-83c3 0 18-1 23 10s-1 20-3 23a75 75 0 0 0-27-6c2-4 7-14 7-27Zm-37 17c1-4 9-32 30-35 1 3 7 25 0 45a70 70 0 0 0-27 4 103 103 0 0 1-3-14Zm3 14a159 159 0 0 1 67 10 107 107 0 0 0-11 16s-17-5-38 10a155 155 0 0 1-18-36Z" data-name="Forma 2040" style="fill:#871f56"/><path id="Forma_2035" d="M300 188c-6-28-44-18-44-18s-68-5-86 29c0 0-25 10-3 81 0 0 1 23 26 23s74-24 82-39c0 0 37-12 25-76Z" data-name="Forma 2035" style="fill:#ff8350"/><path id="Forma_2036" d="M178 233c7-29 26-55 26-55-19 10-26 50-26 55a199 199 0 0 1-8-34v2c-1 2-19 50 4 88-1-2-17-45-4-88 0 69 33 71 33 71-12-7-20-24-25-39Zm84-51c9 47-13 93-13 93 31-39 13-93 13-93Zm-5-11a151 151 0 0 1-4 22c-61 3-75 40-75 40 7-8 16-15 27-21-11 28 9 72 9 72-8-25-9-67-9-72 22-12 45-18 48-19-4 19-13 47-33 71 0 0 38-13 37-93Z" data-name="Forma 2036" style="fill:#e34538"/><path id="Forma_2025" d="M193 285s8-37-27-14c0 0-55-37-59 29-1 25 17 43 17 43s-10 23 6 35 50-7 50-27c0 0 48-34 13-66Z" data-name="Forma 2025" style="fill:#ff5f9e"/><path id="Forma_2027" d="M176 287v-3 2c-5-10-10-15-10-15a61 61 0 0 1 4 8c-7-6-28-23-46-4 0 0 23-13 46 5a91 91 0 0 1 4 11c-7 16-21 28-25 32a86 86 0 0 1 0-26 55 55 0 0 1 20-11s-47-4-43 55c0 0 3-26 21-43-11 26 3 40 7 43a198 198 0 0 1-28 2c34 10 47-1 51-7 0 1-4 26-26 37 0 0 21-2 29-34v9c7-27 2-48-4-61Zm-21 54a55 55 0 0 1-6-17c17-3 23-19 26-30 3 13 4 27 5 38-4 5-14 8-25 9Zm23-5a16 16 0 0 0 2-4v3Z" data-name="Forma 2027" style="fill:#f5497e"/><path id="Forma_2021" d="M547 229s15-21-30-51-76-11-76-11-53 0-36 62c0 0 28 72 103 59s39-59 39-59Z" data-name="Forma 2021" style="fill:#ffa1a9"/><path id="Forma_2023" d="M440 273c88 32 98-23 98-23-26 39-98 23-98 23Zm83-30a35 35 0 0 0 4-28c3 8-6 24-9 29-16 4-33 5-49 3a122 122 0 0 1-20-30c1-1 13-9 33-12 2 2 25 19 15 42 0 0 24-22-15-42 14-2 32-2 54 4 0 0-42-29-81 3-6-25 9-41 9-41-20 10-18 34-17 43-12-26-6-45-6-45-21 40 13 68 26 78a213 213 0 0 1-60-18c91 56 139 2 139 2a88 88 0 0 1-23 12Zm-75-26a16 16 0 0 1 3-1l-2 1h-1Z" data-name="Forma 2023" style="fill:#ff7f8d"/><path id="Forma_1961-13" d="M248 244a142 142 0 0 0-16 33l7 9s17-11 28-35c18-44-8-24-19-7Z" class="cls-4" data-name="Forma 1961"/><path id="Forma_1962-7" d="m236 281 1 2c6-7 10-20 10-20-6 6-11 18-11 18Z" class="cls-5" data-name="Forma 1962"/><path id="Forma_1961-14" d="M216 243c-9-18-33-40-19 5 8 25 24 38 24 38l8-8a142 142 0 0 0-13-35Z" class="cls-4" data-name="Forma 1961"/><path id="Forma_1962-8" d="M215 262s3 14 8 21l2-1s-5-13-10-20Z" class="cls-5" data-name="Forma 1962"/><path id="Forma_1961-15" d="M224 297s-19 10-30 33c-21 43 6 25 18 8a142 142 0 0 0 18-32Z" class="cls-4" data-name="Forma 1961"/><path id="Forma_1962-9" d="M225 300c-6 6-11 19-11 19 6-6 12-17 12-17Z" class="cls-5" data-name="Forma 1962"/><path id="Forma_1961-16" d="M180 275c-48-1-20 16 0 20a142 142 0 0 0 37 3l5-9s-16-13-42-14Z" class="cls-4" data-name="Forma 1961"/><path id="Forma_1962-10" d="M198 289c8 3 21 4 21 4l1-2c-8-3-22-2-22-2Z" class="cls-5" data-name="Forma 1962"/><path id="Forma_1961-17" d="M283 289c-25-7-44 0-44 0l2 10a142 142 0 0 0 36 9c20 2 52-6 6-19Z" class="cls-4" data-name="Forma 1961"/><path id="Forma_1962-11" d="M240 292v2s13 3 21 2c0 0-12-4-21-4Z" class="cls-5" data-name="Forma 1962"/><path id="Forma_1961-18" d="M263 333c-10-24-27-36-27-36l-7 8a142 142 0 0 0 15 34c10 18 36 38 19-6Z" class="cls-4" data-name="Forma 1961"/><path id="Forma_1962-12" d="m235 300-2 2s5 12 11 18c0 0-4-13-9-20Z" class="cls-5" data-name="Forma 1962"/><path id="Forma_1959-7" d="M236 251c-4-37-13-18-15 1s1 25 3 28c2 4 9 1 9 1s4-9 3-30Z" class="cls-6" data-name="Forma 1959"/><path id="Forma_1961-19" d="M229 254c-2 8-1 27-1 27h3l-2-27Z" class="cls-7" data-name="Forma 1961"/><path id="Forma_1959-8" d="M234 302c-3-3-9 0-9 0s-4 9-1 30c6 37 15 17 15-2s-3-25-5-28Z" class="cls-6" data-name="Forma 1959"/><path id="Forma_1961-20" d="M229 302h-2c0 9 4 26 4 26l-2-26Z" class="cls-7" data-name="Forma 1961"/><path id="Forma_1959-9" d="M199 263c-32-18-21 1-7 13s22 13 25 13c5 0 6-6 6-6s-5-9-24-20Z" class="cls-6" data-name="Forma 1959"/><path id="Forma_1961-21" d="M198 271c7 6 22 15 22 15l2-2c-8-6-24-13-24-13Z" class="cls-7" data-name="Forma 1961"/><path id="Forma_1959-10" d="M263 268c-20 9-25 18-25 18s1 6 6 7c3 0 10-1 25-12s27-29-6-13Z" class="cls-6" data-name="Forma 1959"/><path id="Forma_1961-22" d="m239 287 2 2s16-8 22-14l-24 12Z" class="cls-7" data-name="Forma 1961"/><path id="Forma_1959-11" d="M266 307c-15-12-23-12-26-12-5 0-5 7-5 7s4 8 24 18c33 17 22-2 7-13Z" class="cls-6" data-name="Forma 1959"/><path id="Forma_1961-23" d="m237 298-1 2c7 6 24 13 24 13-7-6-23-15-23-15Z" class="cls-7" data-name="Forma 1961"/><path id="Forma_1959-12" d="M218 293c-2 0-10-1-27 9s-29 26 6 14c20-8 26-16 26-16s0-6-5-7Z" class="cls-6" data-name="Forma 1959"/><path id="Forma_1961-24" d="M221 297s-17 6-24 11c0 0 17-5 25-9Z" class="cls-7" data-name="Forma 1961"/><path id="Elipse_1951-2" d="M230 277a12 12 0 1 0 12 13 12 12 0 0 0-12-13Z" class="cls-8" data-name="Elipse 1951"/><path id="Elipse_1952_copia_4-2" d="M226 281a2 2 0 1 0 0 3 2 2 0 0 0 0-3Zm-5 9a1 1 0 0 0 1 2 1 1 0 0 0-1-2Zm1-5a2 2 0 1 0 1 1 2 2 0 0 0-1-1Zm4 1a1 1 0 1 0 1 1 1 1 0 0 0-1-1Zm3-3a1 1 0 1 0 1 1 1 1 0 0 0 1-1 1 1 0 0 0-2 0Z" class="cls-9" data-name="Elipse 1952 copia 4"/><path id="Forma_2019" d="M409 198c18-3 24-16 10-18a110 110 0 0 0-27-1s12-6 20-13 7-18-5-14a189 189 0 0 0-21 8s8-10 11-19-2-20-14-7l-15 17s4-8 4-23-12-22-18-3-6 26-6 26 0-10-6-26-27-20-15 22c0 0-7-12-17-17s-22 0-1 26a31 31 0 0 0-20-5c-12 0-15 15 24 29 0 0-21-2-33 4s-11 18 26 16c0 0-18 6-23 18s7 15 29 1c0 0-12 11-11 25s16 5 29-16c0 0-5 12-3 24s11 19 17 2 5-27 5-27 1 23 11 31 17 4 15-7l-5-19s8 11 16 14 18 3 12-9-10-15-10-15a49 49 0 0 0 16 5c8 0 14-10 3-18-8-6-22-11-28-13h-3 3a78 78 0 0 0 30 2Z" class="cls-14" data-name="Forma 2019"/><path id="Forma_2017" d="M394 194c11-2 4-17-16-11a75 75 0 0 0 12-8c6-5 8-20-15-6a29 29 0 0 0 6-11c1-6-2-20-19 5 0 0 3-4 3-15s-10-18-17 14c0 0-4-24-12-23s-1 21-1 21-10-15-19-9c-3 2 6 17 6 17s-16-10-18-1c-2 7 21 17 21 17a33 33 0 0 0-23 3c-12 6 4 12 17 9 0 0-15 7-14 14s13 4 20-2a25 25 0 0 0-8 15c-1 9 9 9 19-8 0 0-3 8-1 19s13 1 14-17c0 0 1 10 7 18s15 3 6-20c0 0 4 8 15 14s4-14-3-19c0 0 13 8 20 1s-26-17-26-17 15 3 26 0Z" data-name="Forma 2017" style="fill:#c04a94"/><path id="Elipse_1951-3" d="M348 176a12 12 0 1 0 13 12 12 12 0 0 0-13-12Z" class="cls-8" data-name="Elipse 1951"/><path id="Elipse_1952_copia_4-3" d="M344 180a2 2 0 1 0 0 2 2 2 0 0 0 0-2Zm-5 9a1 1 0 0 0 1 2 1 1 0 0 0-1-2Zm1-6a2 2 0 1 0 1 2 2 2 0 0 0-1-2Zm7-2a1 1 0 1 0 2 1 1 1 0 0 0-2-1Zm-3 3a1 1 0 1 0 1 1 1 1 0 0 0 0-1Z" class="cls-9" data-name="Elipse 1952 copia 4"/></svg>