<svg xmlns="http://www.w3.org/2000/svg" id="Assets" viewBox="0 0 800 800"><defs><style>.cls-1{fill:#35a13f}.cls-3{fill:#3fcb4d}.cls-4{opacity:.65}.cls-5{fill:#fff}.cls-6{opacity:.7}.cls-11{opacity:.55}</style></defs><g id="b"><path id="c" d="M647 256c-7-64-49-131-64-143s-9-18-5-22 27-15-2-35c-44-29-92-33-109-31s-81 1-122-2-82 18-113 38-12 25-6 29 6 12 0 20-26 28-44 64-26 66-18 96c30 112 491 49 483-14Z" class="cls-1"/><path id="d" d="M295 107c20-1 6-5 6-5-32-8-54-31-66-42l-3 1c-31 21-12 25-6 29s6 12 0 20l-10 13c5 2 11 2 18-5 14-14 41-10 61-11Zm76-68c2 6 13 7 27 2 42-14 107-10 130-7-26-9-50-10-61-9-14 2-66 1-105-1a33 33 0 0 1 9 15Zm276 217c-7-64-49-131-64-143s-9-18-5-22c4-2 16-9 11-21-39 40-102 41-85 43a83 83 0 0 0 37-8c2 2 15 3 9 8-47 40-72 29-61 34s49-12 53-14 10-10 20 4 21 67-11 89-235 37-291 40-11 16-13 19 275 7 354 8c30-11 48-24 46-37Z" style="fill:#2f9038"/><path id="e" d="M270 51c20-15 65-23 88-27l-13-1a188 188 0 0 0-129 53c12 15 72 22 72 22-51-21-52-20-18-47Zm-44 60c-7 9-27 29-44 63-12 24-19 45-21 64 7 3 21 0 21 0 0-1 7 8 14-13s26-79 40-101c7-12 0-15-10-13Z" class="cls-3"/></g><g id="f" class="cls-4"><path d="m379 201 5-1v-13l-5-1-1-6-11-1-1-6-5-1v-5l-6-2-1-5s-6-1-5-2v-12l5-1 1-5h4l1-7h6v-8h-12v-6h-11v-6a113 113 0 0 1-12-2l-1-11 5-1 2-13h-7v5h-5v-5l-5-1-1-6 4-1a27 27 0 0 0 1-4l5-1 1-6 5-1 1-7h-6v5l-5 1-2 6h-5V53a51 51 0 0 1-6 0l-1 13-5-1v-6h-6v6l-5-1-1-12-7 1v5h-5v13l5 1v12l6 2 1 5 5 2 1 11 5 1 1 7h6v6h5l1 7 6 3c0-1 0-1 0 0v10l6 1-1 18s-4-2-5 1v7s-12-3-12-1a28 28 0 0 1 0 6s-38-1-41-2a113 113 0 0 0-1-12s-7-3-6-1l1 13 5 2s2 17 0 17h-5l-1 12-4 1-1 6h-6v6l-17-1v6l-7 1v5h12v-6l12 1v-5h17l1-18h6l-1 24h-16v6l22 1 1-6h4l1-5 6-1v-5h17l1-5h35v-5h6l1-6h6l1 6h10v6l7 1-1 5h-11v-5l-12-1v7h12v7h11l1-5 5-1 1-7-5-1v-4Zm-56-97-16-1-1-11-5-1-1-7-5-1V71a30 30 0 0 1 5 0v-5h6l1 6 4 1 1 12 5 1 1 6 5 1s1 12 0 11Zm6 13h-5v-5h5Zm48 82h-4l-2-6-5-1a51 51 0 0 0 1-6h10v13Z" class="cls-5"/></g><g id="g" class="cls-6"><path d="M578 107v1Zm0-15a49 49 0 0 0-8 0v10h4c-1-5 1-8 4-10Zm27 74v-9l8-1-13-22-10 1v-7h-8v-6h-10v8h7l1 5-15 1v-6h-10v7h-8v10s9-1 8 0v7l10-1v-7h14v4l-7 2v8h10v-7l7-1 1-9h13l1 6-8 1s1 8 0 8h-7v7l-9 1v7h-8v10s18 0 18-2v-7l8-1v-7s8 2 7 0Zm25 26-3-1v-6l-7-17v3h-9v7l-8 1v8s10 2 10 0v-7h5v12l-9 1 1 9h6v7l10-2v-7h7v-1l-3-7Z" class="cls-5"/></g><g id="h" class="cls-6"><path d="m228 108-2 2a1 1 0 0 1 0 1h1l1-2Zm2-4h7v-6h8v-9h-17v2c3 3 4 8 2 13Zm-26 61h-8v-15a250 250 0 0 0-13 22h5l1 13c0 2-5 0-6 0v9h7v7l9 1v-7h6l1-8-9-1v-12h6v7h9v-8l-8-1v-7Zm-24 14h2v-5l-2 5Zm79-46v-7h-10v5l-15-1 1-4h7v-8h-9v5h-8v7h-14l-12 15h3v6l8 1v8c-1 2 7 0 7 0v7l8 2v7c0 2 17 1 17 1v-10h-8v-7l-8-1v-7h-7v-7l-8-1 1-6h13l1 9 7 1v7h9v-8l-7-2v-4h14v7l10 1a66 66 0 0 0 0-7h8v-9h-8Z" class="cls-5"/></g><g id="i" class="cls-4"><path d="M573 217v-6l-17 1v-6h-6l-1-6-4-1-1-12h-5c-2 0 0-17 0-17l5-2 1-13c1-2-6 1-6 1a110 110 0 0 0-1 12l-41 2a28 28 0 0 1 0-6c0-2-12 1-12 1l-1-7c-1-3-5-1-5-1v-18l6-1v-10c0-1 0-1 0 0l6-3 1-7h5v-6h6l1-7 5-1 1-11 5-2 1-5 6-2V72l5-1V58h-5l-1-5-6-1-1 12-5 1v-6h-6v6l-5 1-1-13a51 51 0 0 1-6 0v18h-5l-2-6-5-1v-5h-6l1 7 5 1 1 6 5 1a27 27 0 0 0 1 5h4l-1 6-5 1v5h-5v-5h-7l2 13 5 1-1 11a113 113 0 0 1-12 2v6h-11v6h-12v8h6l1 7h4l1 5 5 1v12l-5 2-1 5-6 2v5l-5 1-1 6-12 1v6c1 1-5 1-5 1v13l5 1v4l-5 1 1 7 5 1 1 5h11v-7h12v-7l-12 1v5l-11 1-1-5 7-2v-6h10l1-6h6l1 6h6v5h35l1 5h17v5l6 1 1 5h4l1 6 22-1v-6h-16l-1-24h6l1 18h17v5l12-1v6h12v-5l-7-1ZM486 93l5-1 1-6 5-1 1-12 4-1 1-6h6v5a30 30 0 0 1 5 0v12l-5 1-1 7-5 1-1 11s-15 0-16 1V93Zm-1 19v5h-5v-5h5Zm-47 81-2 6h-4v-13s10-1 10 0a49 49 0 0 0 1 6l-5 1Z" class="cls-5"/></g><path id="j" d="M645 245h-4l-1-8h-8v-7l-8 1-1 8-6 2-1 8-7 1c-2 0-1-8-1-8h-8v-7l-8 1v8l-8 2-1 7-7 1v-8h-8v-7h-8l-1 9-8 1v7h-7v-7h-9l1-8h-9l-1 8-7 1v8h-8v-7h-8v-8h-9v8l-7 1-1 7-8 1v-9h-8v-8a85 85 0 0 0-8 0c-2 1-1 8-1 8l-8 1v8h-8v-8l-7-1v-8l-10 1v8h-7v7h-8v-7l-8-1v-8h-9c-2 0 0 7 0 8h-8v7l-7 1v-8l-9-1v-7l-8-1v8h-8v8l-8-1v-8l-9-1 1-8-9 1v7l-8-1v8h-8v-8l-8-1v-8h-9v8h-7l-1 7h-7v-9h-8v-8h-9v7h-8v8h-7l-1-8-7-1-1-8h-9v7c0 2-7 0-7 0v7h-8l-1-8s-6-2-8-1 0-8 0-8h-8l-1 8h-7l-1 7-7-1v-7l-8-2-2-7h-6v7h-7l-1 10h7l1 7h8l1-6 6 1v6h8l1-6 6 1 1 7h9l2-6 6 1 1 6h7l1-6a47 47 0 0 1 7 0v7l8 1 2-7 7 1v7c0 2 5 0 8 1s1-7 1-7h7l1 7 8 1v-6h8v7c0 3 8 0 8 0l1-7h6l2 9h7v-8l8 1v8h9l1-8h7v9l8-1 2-7 6 1v8c0 4 8 0 8 0l1-8h7v8c0 2 8 0 8 0l1-7 8 1a31 31 0 0 1 0 6h8v-7h7v7h9l1-7c1-1 7 1 7 1a44 44 0 0 0 0 6l8-1v-5h8l1 5h8v-5h7l1 5 8-1v-4l7-1v5h9v-5l8 1a14 14 0 0 0 0 3l9-1 1-3h6a12 12 0 0 1 0 3h9v-3h7l1 2h8l1-3 6-1v4h9l1-5h7v4h9v-4h7v3h9v-5h8v3l9-1v-4l6-1 1 4h9v-5h7v4l10-1v-6h6v5l9-1 1-6c0-2 6-1 6-1l1 5h4v-6Zm-476 0v-6l7-1 1 8-8-1Zm40 3h-8v-7h8Zm32 3h-6v-7l6-1Zm34 2h-8v-7h8Zm32 3h-7v-8h7Zm25 2v-9l7 1 1 7Zm39 0-7 1 1-8h7l-1 7Zm33 1h-7v-7l7 1Zm33 1h-7v-7h8l-1 7Zm33 0h-8v-7h8Zm32 0-7-1v-6l7-1Zm32-2h-7v-7h8Zm34-2h-8l1-7 7-1Zm25-4v-7l7-1v7Zm39-5-7 1v-8l7-1Z" class="cls-6" style="fill:#ffea00"/><g id="k"><path id="l" d="M663 274c-3-17 5-26-21-23-29 4-82 15-233 15s-242-11-250-13-20-1-21 17-10 40 4 82c9 26 18 5 49 14s296 32 449-2c27-6 20-12 22-21s8-35 1-69Z" class="cls-3"/><path id="m" d="M663 274v-1c-5-6-14-10-25-8-19 4-83 9-106 10s-37 3-39 17 0 30-1 43 1 39-27 41c-108 7-262-14-262-14s-10-33-7-52c4-21-14-15-14-15s0 21-7 68a58 58 0 0 1 16 3c32 9 296 32 449-2 27-6 20-12 22-21s8-35 1-69Z" class="cls-1"/><path id="n" d="M409 266c-151 0-242-11-250-13s-20-1-21 17c-1 13-6 28-3 51 1-11 5-35 9-46 5-13 2-18 20-12 17 5 204 24 277 2l-32 1Z" style="fill:#70f37f"/><path id="o" d="M193 297c0-2-2-6-6-6a126 126 0 0 1-20-2c-6-1-8 1-9 7s-5 33-2 53 8 20 8 20 18 5 23 5a9 9 0 0 0 8-7c-9-29-2-69-2-70Z" style="fill:#7d3d26"/><path id="p" d="M193 297c0-2-2-5-6-6a24 24 0 0 1 0 8c-1 10-5 52 3 74a10 10 0 0 0 5-6c-9-29-2-69-2-70Z" style="fill:#572215"/><g id="q" class="cls-11"><path d="M217 343Zm61-23v-5h-6v4l-9-1v-3h5v-5h-6v4h-5v4l-13-1v-2h4l1-5h4l1-4h4l1-4h5v-4h5v-5h-10l-1 3h-4l-1 4h-4l-1 5h-4l-1 4h-3a58 58 0 0 1 1-8h5v-4h4l1-5h-6v3h-4a67 67 0 0 1 1-7h4l1-5-4-1v-4h-5v4a15 15 0 0 1-5 0v5l3 1v7h-4v-5h-4l-1 5 4 1v4h4l-1 8h-3v-4l-4-1v-4h-4v-4l-4-1 1-4h-9v4h3v5l4 1v4h4l-1 4 5 1v4h4v4l-12-2v-3l-4-1v-4h-5v5l4 1v2h-7v-4l-5-1v5h-3v5h3v4l5 1v-5l6 1v2l-3 1v6h5v-5h3l1-3h7a33 33 0 0 0 0 3c0 2-4 0-4 0v4h-5v4h-3v4h-4v6h8v-4h4v-4h5v-5h4v-3h3v12h-4v3h-3v6h5v-4h3l1 8c0 2-3 0-4 0v5h5v5h5v-4h4l1-5-6-1v-7h3a21 21 0 0 1 0 4h6v-5h-5v-4h-5v-13h4v4l5 1v5c0 2 4 0 4 0v4l5 1v4l11 1v-6h-5v-4l-5-1v-4h-5v-5h-5l1-4h8l1 5 4 1v4h6v-5l-5-1v-2h9v4l5 1a40 40 0 0 0 0-5h5v-5Z" class="cls-5"/></g><g id="r" class="cls-11"><path d="M596 342c0 1 0 1 0 0Zm17-28-1-4h-4v4l-8 1v-3l4-1v-5h-5v4l-4 1v4l-12 1v-4h5v-4l4-1-1-4h4v-4l4-1v-5h4v-4h-10l1 4-4 1v4h-4v5h-3l-1 5h-3l-1-8h5v-5h3l-1-5h-4v4h-3l-1-7 3-1s1-5 0-5a15 15 0 0 1-4 0v-4l-6 1 1 3-5 1 1 5h4a67 67 0 0 1 1 8h-4v-4h-5v5h5v4h5a62 62 0 0 1 0 8h-3l-1-4h-4l-1-4h-4l-1-5h-4l-1-3h-10v6h5v3h5l1 4h4l1 5h4l1 4h4v3h-13v-4h-5v-3h-5v5h4l1 3h-10v-3h-5v4h-5v6h5v4l5-1v-4h9v3h-4v5h5v-4l5-1v-5h8l1 4-5 1v4h-4v4l-5 1v4h-5v6l10-1v-4l5-1v-4s5 1 5 0v-5l5-1v-3h3v12h-5v4l-5 1v5h6a21 21 0 0 1 0-5h3v8h-5v5h4v5l6-1v-4h4v-6h-4l1-8h4v4h5v-5h-4v-4h-4v-12h3v4h5v4h4v4h4v4h9v-5h-5v-5h-3v-4h-4v-3s-5 1-5 0a33 33 0 0 0 0-4h7l1 3 4 1v4h5v-6l-4-1v-2h6v4l5-1v-4h3v-5Z" class="cls-5"/></g><g id="s" class="cls-6"><path d="m452 321-1-5h-5v5h-9l1-4h4v-6h-6l-1 5-4-1v5h-14a15 15 0 0 0 0-3h5v-5l5-1v-4l5 1v-5h4v-5h5l1-6-11-1v5h-5v4a25 25 0 0 1-5 0v5h-5v5h-5v-8l5-1v-4h5v-7h-5l-1 5h-4v-8h5v-6h-5v-5h-6v5h-5a41 41 0 0 1 0 5h5v9h-4v-5h-6v6h5v5h5l1 9a36 36 0 0 1-4 0l-1-5h-5v-5h-5v-5h-5v-5h-11v5h4v5h6v5l5 1v4l6 1v4l5 1v4h-15v-5l-5-1v-4h-6v5l5 1v4h-9v-5h-6v4h-4v6h5v5h6v-4h9v3l-4 1-1 5h6v-4l5-1v-4h9v4h-5v5h-5v5h-4v5h-5l1 5h10a35 35 0 0 0 0-4h5v-5h4v-5h5l1-5h3v13l-5 1a33 33 0 0 1 0 4h-4v5l6 1v-4h3v8h-4v6h4v4h6v-5h4v-5h-4v-9l4 1v4l6-1v-5h-5v-5h-5l1-13h2v5h5l1 5h4l1 4a21 21 0 0 0 4 0l1 6 10-1v-6h-3l-1-5h-5a40 40 0 0 1 0-4h-5v-5h-5v-3h9v4l5 1a21 21 0 0 0 0 4h5v-6h-4v-3h8a25 25 0 0 1 0 4h6v-4h5v-6Z" class="cls-5"/></g><path id="t" d="m439 92-1-4h-3v4h-7v-3h4v-4h-5v3h-3v4h-11a11 11 0 0 0 0-3h4v-4h4v-3h3v-3h3v-3h4l1-5h-9v3h-3v3a18 18 0 0 1-3 0l-1 3-4 1v3h-3a48 48 0 0 0 0-6h4v-3h4v-5h-5v4h-3v-7h3v-4h-3v-4h-4v4h-4a28 28 0 0 1 0 4h4v6h-3v-3h-4v4h3v4h4v6h-2l-1-3-3-1-1-3h-4v-4h-3v-4h-8v5h3v3h4v4h4v3l4 1v3h4v3h-11v-4h-4v-3h-4v4h4v3h-7v-4h-4v3h-3v5h3l1 4h4v-3h6v2h-2l-1 4h4v-3h4v-3h6v2h-3l-1 4h-3v3h-3v4h-3v4h7a25 25 0 0 0 0-3h4v-4h3v-3h4v-4h3v9l-4 1a26 26 0 0 1 0 3h-3v4l4 1v-3h3v6l-3-1v5h3v3h4v-4h3v-4h-3v-6l2 1 1 3 4-1v-4h-4v-3l-3-1v-9h2v4h4l1 3h3v3a15 15 0 0 0 3 0l1 4h7v-4h-3v-4h-4v-3h-3v-3h-4v-3h7v3l3 1a15 15 0 0 0 0 3h4v-4h-3v-3h6a19 19 0 0 1 0 3h4v-3h4v-4h-3Z" class="cls-5" style="opacity:.73"/></g></svg>