<svg xmlns="http://www.w3.org/2000/svg" id="Assets" viewBox="0 0 800 800"><defs><style>.cls-5{fill:#de9827}.cls-6{fill:#ffe29f}.cls-10{fill:#f12697}.cls-11{fill:#cb09a6}.cls-12{fill:#ff52a7}.cls-13{fill:#ff87c8}.cls-14{fill:#ffcfe8}.cls-15{fill:#00b45e}.cls-16{fill:#00bd76}.cls-17{fill:#00975a}.cls-18{fill:#b7efde}.cls-19{fill:#007c62}.cls-22{fill:#fff}</style></defs><path id="Forma_1663" d="M593 136c-49 11-90-86-90-86s23-15 7-35c-12-17-44-12-50 6s11 30 11 30-29 59-70 59-68-59-69-61c0 0 20-13 8-33-16-24-53-5-55 11s14 23 14 23c-42 98-71 91-71 91-15 3 1 21 1 21 93 61 360 11 365-3s-1-23-1-23Z" data-name="Forma 1663" style="fill:#a76700"/><path id="Forma_1663_copia_2" d="M285 27c-2 15 14 23 14 23-42 98-71 91-71 91-15 3-10 3 4 0 0 0 30 7 71-90 0 0-15-8-13-24 1-10 16-23 33-22-18-4-37 10-38 22ZM495 5c-14-3-31 3-35 16-7 19 11 30 11 30s-29 59-70 59h-3a41 41 0 0 0 8 1c41 0 70-60 70-60s-18-10-12-29c4-11 18-18 31-17Z" data-name="Forma 1663 copia 2" style="fill:#c48000"/><path id="Forma_1640_copia" d="M623 48c-20 0-22 25-22 25 0 18 8 24 8 24-20 47-33 59-83 60-74 1-97-65-97-65s19-9 16-29c0-16-20-29-38-29-15 0-33 9-38 29-2 20 16 29 16 29s-29 62-85 66c-43 4-69 0-95-61 0 0 8-6 8-24 0 0-2-25-22-25s-26 40-2 52c0 0 11 111 6 147 0 0 20 42 212 44 197-4 212-44 212-44-5-36 6-147 6-147 25-12 18-52-2-52Z" data-name="Forma 1640 copia" style="fill:#fdbd1b"/><path id="Rectángulo_1754_copia" d="M300 158a189 189 0 0 1-26 1l22 124 27 4-23-129Zm42-15a88 88 0 0 1-36 15l24 129 40 3Z" data-name="Rectángulo 1754 copia" style="fill:#ffcf58"/><path id="Forma_1640_copia_4" d="M527 157c-75 1-98-65-98-65s19-9 16-29c0-16-20-29-38-29a40 40 0 0 0-7 1h2c18 0 37 13 38 29 2 19-17 29-17 29s24 66 98 64h6ZM205 97s8-6 8-24c0 0-2-25-22-25a14 14 0 0 0-4 1c19 1 20 25 20 25 0 17-8 23-8 23 26 62 53 65 95 62l6-1c-43 4-69 0-95-61Zm418-49a21 21 0 0 0-5 1c19 0 26 40 1 51 0 0-11 111-5 148l5-1c-5-36 6-147 6-147 25-12 18-52-2-52Z" class="cls-5" data-name="Forma 1640 copia 4"/><path id="Elipse_1645_copia" d="M200 249c5-37-6-148-6-148-14-6-18-22-15-35 0 4 1 7 3 8s5-3 6-7-1-8-4-8a4 4 0 0 0-3 2c3-7 8-11 15-11a21 21 0 0 1 4 0 19 19 0 0 0-9-2c-20 0-26 40-2 52 0 0 11 111 6 147 0 0 6 11 38 23-28-11-33-21-33-21ZM369 63c-2 20 16 29 16 29s-29 62-85 66c-17 2-31 2-44-2 14 6 30 5 48 4 57-4 86-66 86-66s-19-10-16-29a38 38 0 0 1 8-16v7c2 3 8 2 12-3s6-9 4-12a5 5 0 0 0-4-1 41 41 0 0 1 18-4 43 43 0 0 1 12 2 44 44 0 0 0-17-4c-15 0-33 9-38 29Zm261-13a14 14 0 0 0-7-2c-20 0-22 25-22 25 0 18 8 24 8 24-20 47-33 59-83 60a106 106 0 0 1-35-5 104 104 0 0 0 40 6c49-1 62-12 83-60 0 0-8-6-8-23a40 40 0 0 1 4-14c-1 3-1 5 1 6s5-1 7-4 2-8 0-9a3 3 0 0 0-3 0 18 18 0 0 1 13-4 14 14 0 0 1 2 0Z" class="cls-6" data-name="Elipse 1645 copia"/><path id="Forma_1641_copia_2" d="M619 235c-5 51-202 51-211 51-10 0-206 0-211-51 0 0-8 1-9 13l2 17s21 48 218 48c196 0 218-48 218-48l2-17c-1-12-9-13-9-13Z" class="cls-5" data-name="Forma 1641 copia 2"/><path id="Forma_1754" d="M191 241a2 2 0 0 0-1 0 18 18 0 0 0-2 7l2 17s21 48 218 48l50-1 5-16s-252 10-272-55Z" data-name="Forma 1754" style="fill:#f2b30e"/><path id="Forma_1641_copia_4" d="M619 235c-5 51-202 51-211 51-10 0-206 0-211-51 0 0-5 1-8 7l1 4s21 47 218 47c196 0 218-47 218-47v-4c-2-6-7-7-7-7Z" data-name="Forma 1641 copia 4" style="fill:#fcd173"/><path id="Rectángulo_1759_copia" d="m332 283-9 6c12 2 24 2 38 3l10-7-39-2Zm-45 2 26 3 9-6-26-3Z" class="cls-6" data-name="Rectángulo 1759 copia"/><path id="Elipse_1689_copia_3_Trazado_de_recorte" d="M264 213c-13 2-21 11-19 22 1 11 12 21 27 21 15 1 26-10 23-24-3-13-18-21-31-19Zm-68-41c-10 1-15 18-11 38 3 19 14 35 23 34s15-16 12-36c-4-21-14-37-24-36Zm199 38c-20 5-32 22-28 40s23 30 45 27c22-2 38-21 33-41s-28-31-50-26Zm141 3c-12 2-19 12-17 23 3 10 15 19 30 18s24-13 20-26c-5-12-20-18-33-15Zm83 6c-2-14-9-24-16-23s-10 14-8 26c3 13 9 22 16 21s10-11 8-24Z" data-name="Elipse 1689 copia 3 Trazado de recorte" style="fill:none"/><path id="Elipse_1675" d="M266 211c-13 0-24 9-24 20s11 21 25 21 24-9 24-21-11-20-25-20Z" class="cls-10" data-name="Elipse 1675"/><path id="Forma_1678" d="M286 228c-8 20-40 1-40 1-4 4 8 27 27 20s13-21 13-21Z" class="cls-11" data-name="Forma 1678"/><path id="Elipse_1678" d="M267 214c-11 1-20 7-20 14s7 14 18 14 21-6 22-14-9-14-20-14Z" class="cls-12" data-name="Elipse 1678"/><path id="Forma_1677" d="M246 230s6-10 21-16c0 0-21 1-21 16Z" class="cls-13" data-name="Forma 1677"/><path id="Elipse_1679" d="M262 218c-1-2-4-2-6 0-3 1-4 4-3 5h5c2-1 5-3 4-5Z" class="cls-14" data-name="Elipse 1679"/><ellipse id="Elipse_1675-2" cx="539.4" cy="231" class="cls-10" data-name="Elipse 1675" rx="24.5" ry="20.6" transform="rotate(-11 540 231)"/><path id="Forma_1678-2" d="M558 223c-4 22-39 10-39 10-3 5 13 25 30 14s9-24 9-24Z" class="cls-11" data-name="Forma 1678"/><path id="Elipse_1678-2" d="M558 223c-1-8-11-12-22-9s-18 11-17 18 10 12 21 10 20-11 18-19Z" class="cls-12" data-name="Elipse 1678"/><path id="Forma_1677-2" d="M519 235s4-12 17-21c0 0-20 6-17 21Z" class="cls-13" data-name="Forma 1677"/><path id="Elipse_1679-2" d="M532 219c-1-1-4-1-6 1-3 2-3 5-2 6 2 1 4-1 5-2 2-1 4-3 3-5Z" class="cls-14" data-name="Elipse 1679"/><path id="Forma_1649" d="M213 207c0-10-3-36-17-37 0 0-24 4-20 37s22 31 29 29 9-19 8-29Z" class="cls-15" data-name="Forma 1649"/><path id="Elipse_1652" d="M206 191c-3-12-9-17-13-17s-10 5-11 18c-3 19 5 41 15 40 9-1 14-23 9-41Z" class="cls-16" data-name="Elipse 1652"/><path id="Elipse_1652_copia" d="M199 176c-5 0-10 12-12 28-1 16 3 29 8 28s11-14 11-29c1-15-2-26-7-27Z" class="cls-17" data-name="Elipse 1652 copia"/><path id="Forma_1650" d="M190 175s-14 7-11 30c0 0 4-18 13-28 7-6-2-2-2-2Z" class="cls-18" data-name="Forma 1650"/><path id="Forma_1652" d="M206 189s2 36-11 43c0 0 8 4 12-9 5-12-1-34-1-34Z" class="cls-19" data-name="Forma 1652"/><path id="Forma_1649-2" d="M611 170c-14 1-17 27-18 37s2 28 9 29 24 5 28-29-19-37-19-37Z" class="cls-15" data-name="Forma 1649"/><path id="Elipse_1652-2" d="M625 192c-2-14-7-19-11-18s-10 5-13 17c-5 18 0 40 9 41 10 1 18-21 15-40Z" class="cls-16" data-name="Elipse 1652"/><path id="Elipse_1652_copia-2" d="M619 204c-1-16-6-28-11-28s-8 12-8 27c1 15 6 29 11 29s10-12 8-28Z" class="cls-17" data-name="Elipse 1652 copia"/><path id="Forma_1652-2" d="M601 189s-6 22-2 34c5 13 13 9 13 9-13-7-11-43-11-43Z" class="cls-19" data-name="Forma 1652"/><path id="Forma_1650-2" d="M605 177s-12 13-4 37c0 0 0-21 7-35 5-9-3-2-3-2Z" class="cls-18" data-name="Forma 1650"/><ellipse id="Elipse_1665" cx="401.2" cy="238.4" class="cls-15" data-name="Elipse 1665" rx="40.2" ry="33.7"/><path id="Elipse_1665_copia_3" d="M423 212c7 5 11 13 11 22 0 18-17 33-39 33a43 43 0 0 1-22-7 42 42 0 0 0 27 10c21 0 38-15 38-32 0-11-6-21-15-26Z" class="cls-17" data-name="Elipse 1665 copia 3"/><path id="Elipse_1667" d="M421 215c-4-3-12-6-21-6-18 1-32 14-31 29 0 15 11 24 24 21 6-1 7-10 11-17 4-6 11-11 15-16 5-4 5-8 2-11Z" data-name="Elipse 1667" style="fill:#00cd81"/><path id="Elipse_1667_copia" d="M420 215c-2-3-11-6-20-6-18 1-32 14-31 29a27 27 0 0 0 6 17c3 4 6 3 9 0 2-4 1-13 5-19 3-7 11-11 20-14s14-4 11-7Z" data-name="Elipse 1667 copia" style="fill:#00df95"/><path id="Forma_1667" d="M402 209s-31 0-34 23c-2 19 11 26 11 26s-10-14-3-28 19-18 26-21Z" class="cls-18" data-name="Forma 1667"/><path id="Elipse_1669" d="M384 216c-3-1-6 1-7 4-1 2 1 4 2 3a12 12 0 0 0 5-3c2-1 3-3 0-4Z" class="cls-22" data-name="Elipse 1669"/><path id="Polígono_1755_copia" d="m206 187-19-3 3-5-5 3-3-16-2 16-5-3 2 5-18 3 18 2-2 5 5-2 2 17 3-17 5 2-3-5 19-2z" class="cls-22" data-name="Polígono 1755 copia"/><path id="Polígono_1755_copia_2" d="m401 49-12-1 1-4-3 2-2-10-2 10-3-2 2 4-13 1 13 2-2 3 3-1 2 11 2-11 3 1-1-3 12-2z" class="cls-22" data-name="Polígono 1755 copia 2"/><path id="Polígono_1755_copia_3" d="m399 222-13-2 2-3-4 1-1-10-2 10-3-1 1 3-12 2 12 1-1 3 3-1 2 12 2-12 3 1-2-3 13-1z" class="cls-22" data-name="Polígono 1755 copia 3"/><path id="Polígono_1755_copia_4" d="m203 51-13-2 2-3-3 1-2-10-2 10-3-1 1 3-12 2 12 1-1 4 3-2 2 12 2-12 3 2-2-4 13-1z" class="cls-22" data-name="Polígono 1755 copia 4"/></svg>