<svg xmlns="http://www.w3.org/2000/svg" id="Assets" viewBox="0 0 800 800"><defs><style>.cls-1{fill:#b2b2b2}.cls-2{fill:#535353}.cls-5{fill:#cfcfcf}.cls-6{fill:#666464}.cls-7{fill:#211207}.cls-8{fill:#35272b}.cls-9{fill:#23120e}.cls-10{fill:#7f7f7f}.cls-11{fill:#949494}</style></defs><path id="Forma_2250" d="M122 196c-57 73-44 145-44 145l24-8c6-161 199-197 199-197l-13-38s-110 25-166 98Zm557 0c-57-73-167-98-167-98l-12 38s193 36 199 197l23 8s14-72-43-145Z" class="cls-1" data-name="Forma 2250"/><path id="Forma_2250_copia" d="M130 220c-35 46-43 91-44 118l16-5c6-161 199-197 199-197l-5-14c-10 3-112 29-166 98Zm540 0c-53-69-155-95-165-98l-5 14s193 36 199 197l16 5c-1-27-9-72-45-118Z" class="cls-2" data-name="Forma 2250 copia"/><path id="Forma_2253" d="M595 114a500 500 0 0 0-195-39c-37 0-75-1-195 39 0 0-23 7-16 21s32 16 66 28c21 7 37-3 55-7 16-4 59-11 90-13 31 2 75 9 91 13 17 4 34 14 54 7 34-12 59-14 66-28s-16-21-16-21Z" data-name="Forma 2253" style="fill:#443337"/><path id="Forma_2253_copia" d="M400 113c-16 0-91 1-184 38 11 3 24 6 39 12 21 7 37-3 55-7 16-4 59-11 90-13 31 2 75 9 91 13 17 4 34 14 54 7 15-6 29-9 39-12-69-34-167-38-184-38Z" data-name="Forma 2253 copia" style="fill:#201213"/><path id="Forma_2249" d="m98 295-12 1c-7 20-5 48-5 48l21 13c-5-37-4-62-4-62Z" class="cls-5" data-name="Forma 2249"/><path id="Forma_2262" d="M98 295h-1c-1 11-4 34-3 57l8 5c-5-37-4-62-4-62Z" class="cls-6" data-name="Forma 2262"/><path id="Forma_2243" d="M187 377c-1-37-28-38-31-38s-1 262 0 267c17-3 27-22 27-22 8-31 5-170 4-207Z" class="cls-7" data-name="Forma 2243"/><path id="Forma_2242" d="M168 348c-1-22-25-27-41-27s-25 12-25 12c0 36-11 248-8 261s11 34 37 30 27-17 27-17c22-83 11-236 10-259Z" class="cls-8" data-name="Forma 2242"/><path id="Forma_2244" d="M126 321c-15 0-24 12-24 12 0 36-11 248-8 261 2 13 9 31 32 30 8-114 2-260 0-303Z" class="cls-9" data-name="Forma 2244"/><path id="Forma_2241" d="M107 332s-26-3-29 5c0 0-12 0-16 7 0 0-28 11-35 23 0 0-10 60-4 198 0 0 16 17 28 24 0 0 18 11 25 10a44 44 0 0 0 28 8c1-3 10-149 3-275Z" class="cls-10" data-name="Forma 2241"/><path id="Rectángulo_2248" d="M27 367s-8 48-6 159h41V344c-3 1-28 12-35 23Z" class="cls-1" data-name="Rectángulo 2248"/><path id="Forma_2245" d="M21 446c0 30 0 70 2 119 0 0 16 17 28 24 0 0 18 11 25 10a44 44 0 0 0 28 8c1-2 4-56 6-126-55-1-79-23-89-35Z" class="cls-2" data-name="Forma 2245"/><path id="Rectángulo_2248-2" d="M21 446c0 30 0 70 2 119a206 206 0 0 0 38 30V473c-22-7-34-19-40-27Z" class="cls-11" data-name="Rectángulo 2248"/><path id="Forma_2249-2" d="m714 296-12-1s1 25-4 62l21-13s2-28-5-48Z" class="cls-5" data-name="Forma 2249"/><path id="Forma_2262-2" d="M703 295h-1s1 25-4 62l8-5c1-23-1-46-3-57Z" class="cls-6" data-name="Forma 2262"/><path id="Forma_2243-2" d="M645 339c-3 0-31 1-32 38s-4 176 5 207c0 0 9 19 27 22 1-5 3-266 0-267Z" class="cls-7" data-name="Forma 2243"/><path id="Forma_2242-2" d="M698 333s-9-13-25-12-39 5-40 27-13 176 9 259c0 0 2 13 28 17s34-16 37-30-8-225-9-261Z" class="cls-8" data-name="Forma 2242"/><path id="Forma_2244-2" d="M698 333s-8-12-24-12c-2 43-8 189 1 303 22 1 29-17 32-30 2-13-8-225-9-261Z" class="cls-9" data-name="Forma 2244"/><path id="Forma_2273" d="M695 561s-31 59-72 95c-33 27-69 30-69 30l2 17s39-1 74-31 75-100 75-100Z" data-name="Forma 2273" style="fill:#343434"/><path id="Forma_2273_copia" d="M698 577s-33 58-76 91a135 135 0 0 1-67 28l1 7s39-1 74-31c27-24 59-73 70-93Z" class="cls-7" data-name="Forma 2273 copia"/><path id="Forma_2275" d="M560 693s1-19-15-21-88-15-93 24 75 28 86 26 24-2 22-29Z" data-name="Forma 2275" style="fill:#474747"/><path id="Forma_2275_copia_2" d="M560 693s1-18-14-21c4 6 4 13 4 13 2 24-10 25-20 26-9 2-73 11-78-17v2c-6 39 75 28 86 26s24-2 22-29Z" data-name="Forma 2275 copia 2" style="fill:#262626"/><path id="Forma_2278" d="M456 693c24-18 68-19 68-19-57-8-68 19-68 19Zm143-18c49-21 76-75 76-75-36 56-76 75-76 75Z" data-name="Forma 2278" style="fill:gray"/><path id="Forma_2241-2" d="M773 367c-7-12-35-23-35-23-3-7-15-7-15-7-4-8-30-5-30-5-7 126 2 272 3 275a44 44 0 0 0 28-8c8 1 26-10 26-10 11-7 28-24 28-24 6-138-5-198-5-198Z" class="cls-10" data-name="Forma 2241"/><path id="Rectángulo_2248-3" d="M773 367c-6-11-31-22-35-23v182h41c3-111-6-159-6-159Z" class="cls-1" data-name="Rectángulo 2248"/><path id="Forma_2245-2" d="M779 446c-9 12-34 34-88 35 1 70 4 124 5 126a44 44 0 0 0 28-8c8 1 26-10 26-10 11-7 28-24 28-24 2-49 2-89 1-119Z" class="cls-2" data-name="Forma 2245"/><path id="Rectángulo_2248-4" d="M779 446c-6 8-18 20-40 27v122a137 137 0 0 0 38-30c3-49 3-89 2-119Z" class="cls-11" data-name="Rectángulo 2248"/><path id="Forma_2247" d="M78 337s-12 0-16 7h-1c-9 99-9 212-8 246 5 3 17 10 23 9-6-85 2-234 4-265a6 6 0 0 0-2 3Zm661 7h-1c-3-7-15-7-15-7a6 6 0 0 0-3-3c2 31 10 180 4 265 6 1 18-6 23-9 1-34 1-147-8-246Z" data-name="Forma 2247" style="fill:#00ffef"/></svg>