<svg id="Assets" xmlns="http://www.w3.org/2000/svg" viewBox="0 0 800 800"><defs><style>.cls-1{fill:#35a13f;}.cls-2{fill:#2f9038;}.cls-3{fill:#3fcb4d;}.cls-4{opacity:0.65;}.cls-5{fill:#fff;}.cls-6{opacity:0.7;}.cls-7{fill:#ffea00;}.cls-8{fill:#70f37f;}.cls-9{fill:#7d3d26;}.cls-10{fill:#572215;}.cls-11{opacity:0.55;}.cls-12{opacity:0.73;}</style></defs><g id="b"><g id="c"><path class="cls-1" d="M647.35,255.57c-7.58-63.26-49.69-130.94-64-142.95s-9.55-17.66-5-21.33,26.19-14.94-2.85-34.85c-43.26-29.68-91.25-33.22-108.1-31.29S385.59,26.32,345.09,23,263,40.51,232,61.42s-12.12,24.18-5.69,28.45,5.86,12.18,0,20.62-26.52,28-44.57,64-25.78,65.93-18,95.3c29.8,112.69,491.2,49,483.62-14.23Z"/></g><g id="d"><path class="cls-2" d="M295.31,106.93c20.08-.68,5.69-5,5.69-5-32.42-8.26-54.35-30.59-66.41-42.26-.86.58-1.73,1.14-2.58,1.72-31,20.9-12.12,24.18-5.69,28.45s5.86,12.18,0,20.62c-1.92,2.79-5.48,6.8-10,12.21,4.28,1.9,10.49,1.93,17.84-5.1C248,104.39,275.23,107.62,295.31,106.93ZM370.7,38.66c2.09,6.53,12.81,7.78,27.38,2.84,41.74-14.13,106.94-10.06,130.32-8-26.78-8.6-50.22-9.6-61-8.37-14.7,1.67-66,1.32-105.78-1a32.7,32.7,0,0,1,9.06,14.51ZM647.35,255.57c-7.58-63.26-49.69-130.94-64-142.95s-9.55-17.66-5-21.33c3.39-2.73,16.12-9.6,10.69-21.09-38.89,40.07-101.95,40.91-85.37,43.14,13.73,1.83,33.07-5.66,37.81-8-.16-.19,0-.37.59-.56.88-.27.57,0-.59.56,1.07,1.19,14.73,2.75,8.42,8-47.34,39.26-72,28.44-60.45,33.42s48.91-11.39,52.62-13.51,9.9-9.93,19.92,3.55,20.56,67.32-10.67,88.9-235.29,37.08-290.88,40.54S249.14,282.48,247,285.45c-1.88,2.54,275.41,6.48,353.71,7.55,30.1-11.48,48.25-24.46,46.69-37.43Z"/></g><g id="e"><path class="cls-3" d="M270.42,51.46c19.58-15,64.88-23.07,88-27.5-4.65-.28-9.13-.61-13.34-.95C304.6,19.71,263,40.51,232,61.42c-9.51,6.43-14.33,11.18-16.24,14.81C227.72,90.5,288.2,97.69,288.2,97.69,237.35,76.74,235.67,78,270.42,51.46Zm-44.65,59.8c-6.5,8.83-26.49,28.32-44,63.24-11.72,23.35-19.08,44.17-20.68,63.95,7,2.2,20.68,0,20.68-.66,0-.8,7.63,8.36,14.68-12.8s25.43-79.27,39.12-101C243,112.27,235.78,109,225.77,111.26Z"/></g></g><g id="f" class="cls-4"><path class="cls-5" d="M379.23,200.81c.44.05,4.27-.71,4.27-.71l.71-13.51s-5.25-.28-5-.71-.71-5.69-.71-5.69-11.45-.73-11.38-1.42-.71-5.69-.71-5.69l-5.69-1.43v-5l-5.69-1.43-.71-5.69s-6.4-.46-5.69-1.42,0-12.09,0-12.09l5-.71,1.42-5.69h4.27l.71-6.4s6-.19,5.69-.71,0-7.11,0-7.11H354.34V119H343s-.13-4,0-6.4a112.86,112.86,0,0,1-12.09-1.42l-.71-11.38,5-.71,1.42-13.51h-6.4l-.71,5.69h-5s.53-5.44,0-5.69-5-.18-5-.71-1.48-5.75-.71-5.69,4-.25,4.27-.71a27,27,0,0,0,.71-4.27l5-1.42,1.42-5.69s4.62-.09,5-.71,1.66-8.14.71-7.83-5.69,0-5.69,0l-.71,5.69-5,.71-1.42,6.4h-5s.71-18.69,0-18.49a51,51,0,0,1-5.69,0L311,65.69,306,65s.43-5.74,0-5.69-5.69,0-5.69,0L299.58,65l-4.27-.71-1.42-12.09s-6.12.59-6.4.71-.72,5-.72,5-5-1-5,0,0,12.8,0,12.8l5.69,1.43V84.18l5.69,1.42s.05,5.53.71,5.69,5,1.42,5,1.42.11,11.47.71,11.38,5.69.71,5.69.71l.71,7.11h5.69v5.69l5.69.71.71,7.12s5.09,3,5.63,2.88c0-1.06,0-1.36.06,0,0,0,0,0-.06,0,0,2.63.06,9.92.06,9.92l6.4.71-.71,18.49s-4.77-2.16-5,.71-.71,6.4-.71,6.4-11.56-2.27-11.38-.71a28.38,28.38,0,0,1-.71,5.69s-37.36-.7-40.54-1.42a113.39,113.39,0,0,0-.71-12.09s-6.94-2.68-6.4-.71.71,12.8.71,12.8l5,2.13s1.94,17,0,17.07-5,0-5,0L264,199.39l-4.27.71-.71,5.69h-6.4v6.4l-16.36-.71s-.22,5.72-.71,5.69-6.86.43-6.4.71c.1.58,0,5,0,5s11.47.83,11.38,0-.89-6.1,0-5.69,12.09.71,12.09.71l.71-5h17.07l.71-17.78h5.69l-.71,23.47-16.36.71V225l22.05.71s1.2-5.57,1.42-5.69,3.88.35,4.27,0,.71-5,.71-5l5.69-.71v-5H311l1.42-5.69,34.14.71s.22-5,.71-5,5.69-.71,5.69-.71l.71-5.69H360l.71,5.69,10,.71.71,5.69,6.4,1.42-.71,5-10.67-.71v-5l-12.09-.71v7.11h11.38s.21,6.71.71,6.4,10.67,0,10.67,0l.71-5,5-.71.71-7.11-4.27-.71S378.79,200.77,379.23,200.81Zm-56.18-96.72c-1.29-1.11-16.36-.71-16.36-.71L306,92l-5-1.42-.71-6.4-5-.71s-.89-11.68,0-12.1a29.56,29.56,0,0,1,5-.71V66.4l5.69-.71.71,6.4,4.27.71.71,12.09,5.69.71.71,6.4,5,.71S324.33,105.2,323.05,104.09Zm5.69,12.8s-3.52-.37-4.27,0-.12-4.13,0-4.86c.26.46,5-.12,5-.12Zm48.36,81.79h-4.27L371.41,193l-5-1.42a51,51,0,0,0,.71-5.69c-.07-1.14,10,0,10,0v12.8Z"/></g><g id="g" class="cls-6"><path class="cls-5" d="M578,107.48v.06h0Zm-.27-15.67a49.13,49.13,0,0,0-8.06.26v9.52h4.61c-1.59-4.57.81-7.55,3.45-9.78Zm27.62,74c-.89-2.08,0-8.33,0-8.33l8.07-1.16c-4.43-8.23-8.86-15.66-13-22l-10.54.59v-7.14h-8.32v-5.94h-9.52v8.33h7.15l1.18,4.75-15.45,1.19v-5.94h-9.52v7.14h-8.32v9.51s8.56-1.24,8.32,0,0,7.14,0,7.14,9.61.08,9.52-1.18,0-7.14,0-7.14H579.2v4.75l-7.15,1.19v8.32h9.52v-7.14l7.14-1.18,1.18-8.33s8.82-.06,13.09,0l1.18,5.94-8.33,1.19s1.37,7.3,0,7.14-7.14,0-7.14,0v7.14l-8.32,1.19V173H572v9.51s18,.3,17.84-1.19,0-7.14,0-7.14l8.33-1.18v-7.14s8,2.07,7.14,0ZM630,191.55c-1.62.27-3.32.28-3.2-.75.07-.77.29-3.16.53-5.69-2.46-5.78-5-11.37-7.66-16.72v2.18H611.3v7.14L603,178.9v8.33s10,1.31,9.51,0,0-7.15,0-7.15h5.94V192l-9.51,1.19,1.18,8.32s5.8-.91,5.94,0,0,7.15,0,7.15l9.52-1.19v-7.14h7.14s0-.61.09-1.51c-.92-2.45-1.87-4.86-2.83-7.26Z"/></g><g id="h" class="cls-6"><path class="cls-5" d="M227.6,108.49c-.4.67-.82,1.33-1.28,2a1.33,1.33,0,0,1-.12.16h1l.36-2.14Zm2.31-4.8h6.61V97.9h8.12V88.62c-2.6-.64-16.24,0-16.24,0l-.51,2.52c3.26,3.1,3.78,7.54,2,12.55ZM204,165.13h-8.12V149.87A250.1,250.1,0,0,0,183,172.08h4.82s1,11,1.16,12.76-5.21.39-5.8,0,0,9.28,0,9.28h7v7l9.27,1.16s-.15-6.06,0-7,5.79,0,5.79,0l1.16-8.12L197.07,186V174.39h5.8s.44,5.68,0,7,9.27,0,9.27,0v-8.12L204,172.08v-7ZM179.53,179H182v-5c-.08.16-.17.31-.26.47-.77,1.53-1.51,3-2.23,4.55Zm79-46.34v-7h-9.27v5.8l-15.07-1.18,1.16-4.63h7v-8.12H233v5.79h-8.11v7l-14.24-.8c-3.63,4.55-7.63,9.81-11.77,15.85h2.82v5.8l8.12,1.15s.86,6.09,0,8.12,7,0,7,0v7l8.12,1.15s.19,5.5,0,7,17.39,1.17,17.39,1.17v-9.28h-8.11v-7l-8.12-1.16v-7s-5.62-.17-7,0,0-7,0-7L211,144.23l1.15-5.8c4.17-.05,12.76,0,12.76,0l1.16,8.12,6.94,1.16v7h9.28v-8.12l-6.95-1.15v-4.64h13.91s.09,5.73,0,7,9.28,1.16,9.28,1.16a66.14,66.14,0,0,0,0-7c-.24-1.22,8.12,0,8.12,0v-9.28h-8.12Z"/></g><g id="i" class="cls-4"><path class="cls-5" d="M573.39,217.17c-.49,0-.71-5.69-.71-5.69l-16.36.71v-6.4h-6.4l-.71-5.69-4.27-.71-.71-12.09s-3,.1-5,0,0-17.07,0-17.07l5-2.13s.18-10.83.71-12.8-6.4.71-6.4.71a110.48,110.48,0,0,0-.71,12.09c-3.19.72-40.54,1.42-40.54,1.42a28.38,28.38,0,0,1-.71-5.69c.18-1.56-11.38.71-11.38.71s-.5-3.52-.71-6.4-5-.71-5-.71l-.71-18.49,6.4-.71s.06-7.29.06-9.92c0,0-.06,0-.06,0,0-1.32,0-1,.06,0,.55.11,5.63-2.88,5.63-2.88l.71-7.12,5.69-.71v-5.69H503l.71-7.11s5.1-.8,5.69-.71.71-11.38.71-11.38,4.33-1.26,5-1.42.71-5.69.71-5.69l5.69-1.42V72.09l5.69-1.43s-.07-11.82,0-12.8-5,0-5,0-.43-4.86-.71-5-6.4-.71-6.4-.71l-1.42,12.09-4.27.71-.71-5.69s-5.26.06-5.69,0S503,65,503,65l-5,.72-1.42-12.81a51,51,0,0,1-5.69,0c-.71-.2,0,18.49,0,18.49h-5L484.49,65l-5-.71-.71-5.69s-4.74.31-5.69,0,.35,7.2.71,7.83,5,.71,5,.71l1.42,5.69,5,1.42a27,27,0,0,0,.71,4.27c.31.46,3.5.77,4.27.71s-.73,5.15-.71,5.69-4.45.46-5,.71,0,5.69,0,5.69h-5l-.71-5.69h-6.4l1.42,13.51,5,.71-.71,11.38A112.86,112.86,0,0,1,466,112.62c.13,2.42,0,6.4,0,6.4H454.62v6.41H443.24s.29,6.59,0,7.11,5.69.71,5.69.71l.71,6.4h4.27l1.42,5.69,5,.71s-.71,11.13,0,12.09-5.69,1.42-5.69,1.42l-.71,5.69-5.69,1.43v5l-5.69,1.43s-.79,5-.71,5.69-11.38,1.42-11.38,1.42-1,5.26-.71,5.69-5,.71-5,.71l.71,13.51s3.82.76,4.27.71,0,4.27,0,4.27l-4.27.71.71,7.11,5,.71.71,5s10.16-.31,10.67,0,.71-6.4.71-6.4h11.38v-7.11l-12.09.71v5l-10.67.71-.71-5,6.4-1.42.71-5.69,10-.71.71-5.69h6.4l.71,5.69s5.2.73,5.69.71.71,5,.71,5l34.14-.71,1.42,5.69h17.07v5l5.69.71s.32,4.63.71,5,4-.11,4.27,0,1.42,5.69,1.42,5.69l22.05-.71V219.3l-16.36-.71-.71-23.47h5.69l.71,17.78h17.07l.71,5s11.2-.29,12.09-.71.09,4.86,0,5.69,11.38,0,11.38,0-.11-4.4,0-5c.46-.28-5.91-.74-6.4-.71ZM485.91,92.71l5-.71.71-6.4,5.69-.71L498,72.8l4.27-.71.71-6.4,5.69.71v4.26a29.56,29.56,0,0,1,5,.71c.89.42,0,12.1,0,12.1l-5,.71-.71,6.4L503,92l-.71,11.38s-15.07-.4-16.36.71,0-11.38,0-11.38ZM484.5,112c.11.74.68,5.2,0,4.86s-4.27,0-4.27,0l-.71-5S484.25,112.48,484.5,112Zm-46.95,81-1.42,5.69h-4.27v-12.8s10-1.14,10,0a48.67,48.67,0,0,0,.71,5.69l-5,1.42Z"/></g><g id="j" class="cls-6"><path class="cls-7" d="M644.51,244.91H641l-.71-7.83h-7.82V230s-7.54.54-8.54.71-.71,8.54-.71,8.54-5.47,1.24-6.4,1.42-.71,8.53-.71,8.53-5,.32-7.11.72-.71-7.83-.71-7.83H599.7V235l-7.82.71v7.82l-7.82,2.14-.72,7.11-7.11,1.42v-7.82H567.7v-7.82s-7.29.69-7.83.71-.71,8.53-.71,8.53l-7.82.71-.71,7.83h-7.11v-7.12l-8.54-.71.71-7.11h-8.53l-1.42,7.82-7.11.72v7.82l-7.83.71V250.6H503v-7.83h-8.54s-.53,7.69-.71,8.54-7.11.71-7.11.71l-.71,7.11-7.82.71v-8.53h-7.83v-7.83a85.17,85.17,0,0,0-8.53,0c-1.5.29-.49,7.16-.71,7.83s-7.83.71-7.83.71v7.82h-7.82V252l-7.82-.71v-7.83l-9.25.72V252h-7.11l-.71,7.11h-7.82l.71-7.11-8.54-1.42v-7.12s-7.3-.65-8.53-.71-.58,7.53-.71,7.83-7.83,0-7.83,0v7.82l-7.11.71V250.6l-8.53-.71v-7.12l-8.54-.71s-.17,6.91,0,7.83-7.82,0-7.82,0v7.82l-7.82-.71v-7.83l-8.54-.71.71-8.53-9.24.71v7.11l-7.82-.71v7.82h-7.83V247l-8.53-.71v-7.82h-8.54v7.11s-6.13-.06-7.11,0-.21,6.86-.71,7.11-7.82,0-7.82,0V244.2h-7.83v-7.83s-7.76-.49-8.53,0-.31,5.94,0,7.11-8.53,0-8.53,0v7.83s-6.67-1-7.12-.71-.71-7.83-.71-7.83l-7.11-.71-.71-7.82h-8.54s-.07,4.47,0,6.4-7.18.67-7.82.71,0,5.25,0,7.11-7.82,0-7.82,0l-.71-8.53s-6.15-2.28-7.83-1.42-.71-7.12-.71-7.12h-7.82l-.71,7.12H192.9l-.71,7.11-7.12-.71v-7.12l-8.53-1.42-1.42-7.11h-5.69l-.71,7.11H161.6c-.91.37-.19,8.58-.71,9.25s7.11.71,7.11.71l1.43,6.4h7.82L178,247l6.4.71s.36,5.22,0,6.4,7.83,0,7.83,0l.71-5.69,6.4.71.71,6.4h9.24l1.43-5.68,6.4,1.42.71,5.69h7.11l1.42-5.69a47.33,47.33,0,0,1,6.4,0c1.5.28,0,7.11,0,7.11l8.54.71,1.42-7.11,7.11,1.42v6.4c0,1.87,5.48,0,7.83.71s1.42-6.4,1.42-6.4,5.73-.65,7.11,0,.71,7.11.71,7.11l8.54.72v-6.41h7.11s.6,4.69,0,7.12,8.53.71,8.53.71l.71-7.11h6.4l1.43,9.24h7.11s.58-7.21.71-8.53,7.11.71,7.11.71l.71,8.53h8.54l.71-7.82h7.11s.47,7.72,0,8.53,8.53-.71,8.53-.71l1.43-7.11,6.4.71s-.12,4.67,0,7.83,7.82,0,7.82,0l.71-7.83h7.11s-.08,6.52,0,7.83,8.54,0,8.54,0l.71-7.12,7.82,1.43a30.77,30.77,0,0,1,0,5.69c-.34,1.36,7.83,0,7.83,0l.71-6.41h7.11v6.41h8.53s.57-5.47.71-6.41,7.12.72,7.12.72a44.45,44.45,0,0,0,0,5.69c.23.84,8.53-.72,8.53-.72v-5H429l.72,5h8.53s-.27-4.37,0-5,7.11,0,7.11,0l.71,5,7.83-.71V262l7.11-.72v5l9.24-.71s.45-3.52,0-4.27,7.83.72,7.83.72a14.09,14.09,0,0,0,0,2.84c.17.92,9.24-.71,9.24-.71l.71-2.85,5.69-.71a12.26,12.26,0,0,1,0,3.56c-.32,1,9.25,0,9.25,0v-3.56h7.11l.71,2.85,8.54-.71.71-2.85,6.4-.71v3.56H535l.71-5h7.12V262h9.24v-4.27h7.11v2.84c0,.36,9.25,0,9.25,0v-4.26h7.11l.71,2.84,8.54-.71v-4.27l6.4-.71.71,3.56h9.24s.06-4.42,0-5,7.12,0,7.12,0v3.55l9.24-.71.71-5.69h5.69v5l9.25-.71s.58-4.61.71-6.4,5.69-.71,5.69-.71l1.42,5h4.27l-.71-6.4Zm-475.79,0c-1.1.46,0-6.4,0-6.4l7.11-.72.71,7.83S169.81,244.45,168.72,244.91Zm39.82,3.55-7.11-.71v-7.11h7.11Zm32,2.14h-5.69s.06-6,0-6.4,6.4-.72,6.4-.72Zm34.13,2.84s-8.28.64-7.82,0-.59-7.84,0-7.82h7.82Zm32,2.13h-7.11s-.14-7.17,0-7.82,7.11,0,7.11,0Zm25.6,2.14v-8.54l7.11.72.71,7.11Zm39.12.71-7.11.71.69-7.67c-.12,0-.13-.09,0-.15v.15c.82.25,7.11-.15,7.11-.15l-.71,7.11Zm32.71.71H397V252l7.11.71Zm32.72.71c-.22.54-7.11,0-7.11,0v-6.4h7.82S437.06,259.31,436.84,259.84Zm32.71,0h-7.82s-.8-7,0-7.11h8.53Zm32.72,0-7.11-.71v-6.4l7.11-.71Zm32-2.13-7.11.71V250.6H535Zm33.43-2.14-7.83.72.72-7.12,7.11-.71ZM592.59,252v-7.11l7.11-.71.71,7.11Zm39.83-5-7.12.71v-7.82l7.12-.71Z"/></g><g id="k"><g id="l"><path class="cls-3" d="M663,274.07c-3.47-17,4.65-26.18-21.34-22.76-28.88,3.79-81.31,14.22-232.56,14.22s-241.87-11-249.63-12.8-20.08-.77-21.34,17.07-10.55,40.05,3.56,81.79c8.89,26.3,18.6,5,49.78,14.22s296,32.48,448.06-1.42c27.37-6.11,20.62-12.26,22.05-21.34s8.35-34.91,1.42-69Z"/></g><g id="m"><path class="cls-1" d="M663,274.07c-.09-.42-.15-.82-.22-1.22-5.09-6-13.32-10.27-24.67-8-18.64,3.67-83.58,9-106,10S494.7,277.93,493,291.85s0,30.52-1.42,42.67,1.24,39.25-27,41.25c-107.67,7.6-261.72-13.52-261.72-13.52s-9.55-33.69-6.4-52.62c3.41-20.47-14.68-14.94-14.68-14.94s0,21.32-6.33,68.63a58,58,0,0,1,16,2.49c31.19,9.23,296,32.48,448.06-1.42,27.37-6.11,20.62-12.26,22.05-21.34s8.35-34.91,1.42-69Z"/></g><g id="n"><path class="cls-8" d="M409.1,265.53c-151.25,0-241.87-11-249.63-12.8s-20.08-.77-21.34,17.07c-.9,12.86-6,28-3.46,51.12,1.61-11.15,5.39-35.39,9.15-45.43,5-13.26,1.9-18.24,19.92-12.8,16.93,5.09,204,24.77,276.85,2.68q-15,.15-31.49.16Z"/></g><g id="o"><path class="cls-9" d="M192.9,296.82c-.27-1.45-1.69-5.66-6.4-5.69A126,126,0,0,1,166.58,289c-5.48-1.17-8,.67-8.53,7.11s-5,32.94-2.14,53.34,8.54,19.92,8.54,19.92,17.3,4.9,22.76,4.26a9.15,9.15,0,0,0,7.82-7.11c-8.59-28.8-1.87-68.24-2.13-69.7Z"/></g><g id="p"><path class="cls-10" d="M192.9,296.82c-.26-1.37-1.57-5.27-5.8-5.64a24.15,24.15,0,0,1,.11,7.78c-1.62,9.87-5.65,51.68,3.2,73.71a9.66,9.66,0,0,0,4.62-6.15c-8.59-28.8-1.87-68.24-2.13-69.7Z"/></g><g id="q" class="cls-11"><path class="cls-5" d="M217.08,343.05H217C217,343.27,217,343.32,217.08,343.05Zm60.45-23.47v-4.26h-5.69v3.55l-9.25-.71.72-2.84h4.26v-5h-5.69v3.55h-5v4.27l-12.8-.71V314.6h4.27l.71-4.26h4.27l.71-4.27h4.27l.71-4.27h5v-3.55h5v-5.69c-1.58-.39-9.95,0-9.95,0l-.71,3.55h-4.27l-.71,4.27c-.19.46-4.27,0-4.27,0l-.71,4.27c-.09.55-4.27,0-4.27,0l-.71,4.26h-3.55a58,58,0,0,1,.71-7.82h5v-4.27h4.26l.71-5h-5.69v3.55h-3.55a67.22,67.22,0,0,1,.71-7.82h4.27l.71-5-4.27-.71.71-3.56-5.69-.71v4.27a14.59,14.59,0,0,1-4.27,0c-1.73-.39-.71,5-.71,5l3.56.71-.71,7.11H232v-4.27h-4.26l-.72,5,3.56.71v4.27h4.27l-.71,7.82H231.3l-.71-4.26-3.56-.71V299h-3.55v-4.27l-4.27-.71.71-4.27s-8.62.08-9.24,0-.08,3.1,0,4.27,2.89.36,3.55,0,.18,4.28,0,5,3.56.71,3.56.71v4.27h4.27s-.14,3.57-.72,4.26,3.49.6,4.27.71.42,2.95,0,3.56,4.27.71,4.27.71v3.56l-12.09-1.42v-3.56l-3.56-.71v-4.27h-5v5l3.56.71v2.85l-7.11-.72v-3.55l-4.27-.71-.71,4.26h-2.85v5h2.85v4.27l5,.71v-4.27l6.4.72v2.13l-3.56.71v5.69h5v-4.27l3.56-.71.71-2.84h7.11a32.63,32.63,0,0,0,0,3.55c.12,1.25-4.27,0-4.27,0v3.56h-4.26v4.27h-3.56v4.26h-4.27v5.69H217c.08-.78.51-3.86.05-4.26s4.26,0,4.26,0v-4.27h4.27v-4.27h4.27v-3.56h3.55c-.37,4,0,12.1,0,12.1h-4.26v3.55h-3.56V348h5v-4.27h3.56s.59,6.73.71,7.83-3.19.23-3.56,0,0,5.69,0,5.69h4.27v4.26l5.69.71s-.09-3.71,0-4.26,3.55,0,3.55,0l.72-5-5.69-.71v-7.11h3.55a21.25,21.25,0,0,1,0,4.26c-.28.79,5.69,0,5.69,0v-5l-5-.71V339.5h-5V327.41h3.56V331l5,.71s.53,3.74,0,5,4.27,0,4.27,0v4.27l5,.71s.12,3.38,0,4.27,10.67.71,10.67.71v-5.69h-5v-4.27l-5-.71v-4.27s-3.46-.1-4.27,0,0-4.26,0-4.26l-5-.72.71-3.55c2.55,0,7.82,0,7.82,0l.72,5,4.26.71v4.27h5.69v-5l-4.26-.71v-2.85h8.53s.06,3.51,0,4.27,5.69.71,5.69.71a39.86,39.86,0,0,0,0-4.27c-.15-.74,5,0,5,0v-5.69Z"/></g><g id="r" class="cls-11"><path class="cls-5" d="M596.19,342.34h0C596.2,342.61,596.22,342.56,596.19,342.34Zm16.31-28.45-.71-4.26-4.27.71v3.55l-7.11.71v-2.84l3.56-.71v-5h-5v4.27l-3.56.71v3.55L583.34,316v-3.56s4.69-.1,4.27-.71-.78-3.44,0-3.56,4.85,0,4.27-.71-.71-4.26-.71-4.26h4.26V299s3.74,0,3.56-.71-.67-5.34,0-5,3.48,1.17,3.56,0,.62-4.34,0-4.27-9.25,0-9.25,0l.71,4.27-4.27.71v4.27h-3.55v4.26l-3.56.72-.71,4.26h-2.84l-.71-7.82h4.26V295.4l3.56-.71-.71-5h-4.27V294h-3.56l-.71-7.11,3.56-.71s1-5.37-.71-5a14.59,14.59,0,0,1-4.27,0v-4.27l-5.69.71.71,3.56-4.26.71.71,5h4.26a67.22,67.22,0,0,1,.71,7.82h-3.55v-3.56h-5.69l.71,5h4.27v4.27h5a61.91,61.91,0,0,1,.71,7.82h-3.56l-.71-4.26s-4.18.54-4.27,0l-.71-4.27s-4.07.46-4.27,0l-.71-4.27H554.9l-.72-3.55s-8.37-.39-9.95,0v5.69h5v3.55h5l.72,4.27h4.26l.71,4.27h4.27l.71,4.26h4.27v2.85l-12.8.71v-4.27h-5v-3.55h-5.69v5h4.27l.71,2.85-9.25.71V314.6h-5.69v4.27h-5v5.69s5.12-.74,5,0,0,4.27,0,4.27,5.75,0,5.69-.71,0-4.27,0-4.27h8.54v2.84l-4.27.72v5h5.69v-4.26l4.27-.71.71-5s5.27,0,7.82,0l.71,3.55-5,.71s.82,4.38,0,4.27-4.26,0-4.26,0v4.27l-5,.71v4.27h-5v5.69s10.79.17,10.67-.71,0-4.27,0-4.27l5-.71v-4.27s4.8,1.24,4.26,0,0-5,0-5l5-.71v-3.56h3.56v12.1h-5v4.26l-5,.71v5s6,.79,5.69,0a21.35,21.35,0,0,1,0-4.27h3.56v7.12l-5.69.71.71,5s3.47-.55,3.56,0,0,4.26,0,4.26l5.68-.71v-4.26h4.27s.37-5.93,0-5.69-3.67,1.09-3.55,0,.71-7.83.71-7.83h3.55v4.27h5v-5.69h-3.55v-3.56h-4.27s.37-8.1,0-12.09h3.55v3.56h4.27v4.27h4.27v4.26s4.84-.5,4.27,0,0,3.49,0,4.27h8.49v-5.69h-4.27v-4.27h-3.55v-4.26h-4.27v-3.56s-4.39,1.25-4.27,0a32.63,32.63,0,0,0,0-3.55h7.11l.72,2.84,3.55.71v4.27h5v-5.69l-3.56-.71v-2.14l6.4-.71v4.27l5-.71v-4.27h2.85v-5Z"/></g><g id="s" class="cls-6"><path class="cls-5" d="M451.77,321l-.71-5h-5v5h-9.24l.71-3.56,4.27-.71v-5.69h-5.69l-.71,5-4.27-.71v5H416.92a15.35,15.35,0,0,0,0-3.55c-.26-.61,5,0,5,0v-5l5-.71v-4.27l5,.71v-5h4.27v-4.26h5l.72-6.4s-10.64-.7-11.38-.72,0,5,0,5h-5v4.27a24.53,24.53,0,0,1-4.27,0c-1-.24-.71,4.27-.71,4.27l-5,.71s.06,3.53,0,4.27-4.27,0-4.27,0,.32-7.44,0-7.83,5-.71,5-.71v-4.27h5v-6.4s-5,.05-5.69,0-.71,5-.71,5h-3.56v-8.53h4.27v-6.4s-4.22-.67-5,0,0-5,0-5h-5.69v5h-5a41.16,41.16,0,0,1,0,5.69c-.27.74,5,0,5,0v8.53h-3.55l-.71-4.27h-5.69v5.69h5v5h5s.6,8.43.71,8.54a35.94,35.94,0,0,1-3.55.71l-.71-5-5-.71-.71-5h-5v-5h-5v-5H375v5.69h4.27v4.27c-.68.41,5.69,0,5.69,0v5.69l5,.71v4.27l5.69.71v4.27l5,.71v3.55H386.34c-.63,1,0-5,0-5l-5.69-.71v-4.26H375s.61,5.15,0,5.69,5,.71,5,.71v3.55h-8.53v-5H365v4.27h-4.27v6.4h5l.71,5h5.69V326h8.53v2.85l-3.55.71-.71,5.69h5.69V331l5-.71V326h8.54v3.56h-4.27l-.71,5h-4.27v5s-4.1.07-4.26,0,.1,4.06,0,5-5,0-5,0l.71,5.69h9.95a34.8,34.8,0,0,0,0-4.26c-.16-.86,5,0,5,0v-5H397v-5h5l.71-5h3.56v12.8l-5,.71a33.27,33.27,0,0,1,0,4.27c-.18.71-4.27.71-4.27.71v5l5.69.71v-4.26h3.56v8.53L402,358.7v6.4h4.27v4.27H412v-5h4.26V358.7H412v-8.54l3.55.72.71,4.26,5.69-.71v-5h-5v-5l-5-.71.71-12.8h2.84s.62,3.6,0,5,5,0,5,0l.71,5h4.27l.71,4.27a21.12,21.12,0,0,0,4.27,0c1-.29.62,4.75.71,5.69s10-.72,10-.72v-5.69h-3.55l-.71-5h-5a40.2,40.2,0,0,1,0-4.27c.15-.53-5,0-5,0v-5h-5v-3.56h9.25V331l5,.71a20.69,20.69,0,0,0,0,4.27c.28.71,5,0,5,0v-5.69h-4.26v-3.56h8.53a24.65,24.65,0,0,1,0,4.27c-.24,1,5.69,0,5.69,0v-4.27h5V321Z"/></g><g id="t" class="cls-12"><path class="cls-5" d="M438.72,92l-.52-3.58h-3.6V92h-6.7l.52-2.56L431.5,89V84.87h-4.12l-.51,3.59-3.09-.52v3.59H413.49a11.42,11.42,0,0,0,0-2.57c-.2-.44,3.6,0,3.6,0V85.38l3.6-.52V81.79l3.6.52V78.72h3.08V75.66H431l.52-4.61s-7.71-.51-8.24-.52,0,3.59,0,3.59h-3.6v3.06a18,18,0,0,1-3.08,0c-.76-.16-.52,3.07-.52,3.07l-3.6.52s0,2.53,0,3.07-3.08,0-3.08,0a48,48,0,0,0,0-5.63c-.22-.29,3.6-.52,3.6-.52V74.62h3.6V70s-3.62,0-4.12,0-.52,3.59-.52,3.59h-2.58V67.46h3.08v-4.6s-3.05-.48-3.6,0,0-3.59,0-3.59h-4.12v3.59h-3.6a27.52,27.52,0,0,1,0,4.08c-.19.54,3.6,0,3.6,0v6.14h-2.57L401.62,70H397.5V74.1h3.6v3.59h3.6s.43,6.07.52,6.13-2.58.52-2.58.52l-.52-3.59-3.6-.51L398,76.65h-3.6V73.06h-3.6V69.48h-7.72v4.09h3.08v3.06c-.48.3,4.12,0,4.12,0v4.09l3.6.52v3.07l4.12.52V87.9l3.6.51V91H391.31c-.46.69,0-3.59,0-3.59l-4.12-.52V83.81h-4.12s.44,3.7,0,4.09,3.6.51,3.6.51V91h-6.18V87.39h-4.64v3.07h-3.08v4.61h3.6l.52,3.58H381V95.59h6.18v2l-2.58.52-.52,4.09h4.12V99.17l3.6-.52V95.59H398v2.56h-3.08l-.52,3.58h-3.08v3.59s-3,0-3.09,0,.08,2.92,0,3.59-3.6,0-3.6,0l.52,4.08h7.2a25.43,25.43,0,0,0,0-3.06c-.12-.62,3.6,0,3.6,0v-3.59H399v-3.58h3.6l.51-3.59h2.58v9.22l-3.6.52a25.64,25.64,0,0,1,0,3.06c-.12.51-3.08.52-3.08.52v3.59l4.12.51v-3.06h2.58v6.13l-3.08-.52v4.61h3.08v3.07h4.12v-3.59h3.08v-4.09h-3.08V113l2.57.52.52,3.06,4.12-.51v-3.59h-3.6v-3.58l-3.6-.52.52-9.22h2.06s.44,2.59,0,3.59,3.6,0,3.6,0l.52,3.58h3.08l.52,3.07a14.66,14.66,0,0,0,3.08,0c.71-.21.46,3.42.52,4.09S431,113,431,113v-4.09h-2.58l-.52-3.59h-3.6s-.1-2.69,0-3.06-3.6,0-3.6,0V98.65h-3.6V96.09h6.7v3.07l3.6.51a14.78,14.78,0,0,0,0,3.07c.21.51,3.6,0,3.6,0V98.65h-3.08V96.09h6.18a19.09,19.09,0,0,1,0,3.07c-.17.69,4.12,0,4.12,0V96.09h3.6V92H438.7Z"/></g></g></svg>