<svg xmlns="http://www.w3.org/2000/svg" id="Assets" viewBox="0 0 800 800"><defs><style>.cls-3{fill:#fff}.cls-4{fill:#c11602}.cls-5{opacity:.57}.cls-6{fill:#ff5b04}.cls-8{fill:#b31101}</style></defs><path id="Forma_3264" d="M483 115s12-1 12-16-17-17-17-17 15-16-9-24c0 0 12-20-17-24 0 0 0-15-14-22s-24 3-24 3-10-24-26-9c0 0-18-16-29 4 0 0-24-19-31 13 0 0-23-8-20 14 0 0-25 5-12 24 0 0-12 5-12 18s10 15 10 15-19 21 9 29c0 0-8 28 20 28 0 0-7 8 1 15s17 2 17 2-4 16 11 22 19-1 19-1 4 15 18 18 14-7 14-7 14 22 27 2c0 0 29 26 38-18 0 0 12 4 18-12s-6-18-6-18 16-1 16-19-13-20-13-20Z" data-name="Forma 3264" style="fill:#e6e5e6"/><path id="Forma_3264_copia_2" d="M445 33a23 23 0 0 1 6 2c1-6-2-18-13-23a26 26 0 0 0-2-1c10 7 9 22 9 22Zm-142 90a26 26 0 0 1 1-3l-15-6c2 2 8 8 14 9Zm159-68a17 17 0 0 1 7 2c2-3 7-15-8-21 9 8 1 19 1 19Zm15 56a16 16 0 0 1 7 4c4-1 11-5 11-16 0-9-6-14-11-16a14 14 0 0 1 5 12c-1 15-12 16-12 16Zm-6-30a45 45 0 0 1 8 1c5-6 9-16-7-23 11 8-1 22-1 22Zm-150 81a18 18 0 0 0 3 4c6 6 14 4 17 4l1-7s-13 6-21-1Zm160-8c1 3 2 7-1 13-6 15-18 12-18 12-9 43-37 18-37 18-8 12-16 8-22 4 3 3 16 19 27 1 0 0 29 26 38-18 0 0 12 4 18-12 6-13-3-17-5-18Zm-156-7c-7 0-18-2-21-5 2 4 8 10 18 9a50 50 0 0 1 3-4Zm73 48s-1 10-14 7a21 21 0 0 1-9-5c3 4 7 9 14 10 12 3 14-5 14-7a32 32 0 0 1-5-5Zm88-79c2 3 5 8 4 14 0 18-16 19-16 19a11 11 0 0 1 7 5c2 0 15-3 15-19 1-12-6-17-10-19Zm-139 69a18 18 0 0 1-5-3 17 17 0 0 0 10 8c10 4 16 3 20 0a51 51 0 0 1 2-9s-12 9-27 4Z" data-name="Forma 3264 copia 2" style="fill:#cec3cc"/><path id="Forma_3264_copia_3" d="m377 40 1 1a3 3 0 0 0-1-1Zm-93 39a16 16 0 0 0 3 10 18 18 0 0 1-1-4c1-12 12-17 12-17a22 22 0 0 1-3-6c-3 1-11 6-11 17Zm71-45a10 10 0 0 0-6 6c-13-5-18 0-21 4-2 5-1 8-1 9-10 10-13 16-13 21 1 5 5 9 5 9-2-12 2-18 5-21 3-4 6-5 6-5 2-12 11-18 27-9 2-9 8-11 12-11a15 15 0 0 1 8 3c-10-9-18-8-22-6Zm70 23s-7-12-20-7a15 15 0 0 0-8 14s-11-2-14 10a98 98 0 0 1 17-3s-1-13 10-12 12 7 12 7 10-6 23 7c0 0-5-19-20-16Zm13-45c-14-7-24 3-24 3s-10-24-26-9c0 0-18-16-29 4 0 0-24-19-31 13 0 0-23-8-20 14 0 0-23 4-14 22 0-11 16-13 16-13-3-22 19-14 19-14 7-31 30-13 30-13 10-19 28-3 28-3 15-15 24 8 24 8s10-10 24-3 13 22 13 22c3-3 3-8 4-9 0 0 0-15-14-22Z" class="cls-3" data-name="Forma 3264 copia 3"/><path id="Rectángulo_4219_copia" d="M625 264c-20-99-79-132-79-132-11-14-28-15-28-15-21-21-28-17-28-17-12-9-42-9-42-9-11-8-27-4-27-4-10-6-20-5-27-4-7-1-18-2-28 4 0 0-15-4-27 4 0 0-30 0-41 9 0 0-8-4-29 17 0 0-17 1-28 15 0 0-59 33-79 132-16 83 130 16 232 5 101 11 248 78 231-5Z" class="cls-4" data-name="Rectángulo 4219 copia"/><g id="Rectángulo_4201_copia_30" class="cls-5" data-name="Rectángulo 4201 copia 30"><path d="M170 236a2 2 0 0 0-1 0l-2 7 6 4a3 3 0 0 0 5-1 3 3 0 0 0 0-4l-8-6Zm-1 10a3 3 0 0 0-2 0l-2 5 8 5a3 3 0 0 0 4 0 3 3 0 0 0 0-5l-8-5Zm10-14-7-5-2 7 4 3a3 3 0 0 0 5-1 3 3 0 0 0 0-4Zm-14 20-1 4a3 3 0 0 0 1-4Zm4 4a3 3 0 0 0-4 1 3 3 0 0 0 0 4l7 5a3 3 0 0 0 4-1 3 3 0 0 0 0-4l-7-5Zm12-34-5-3-3 6 3 2a4 4 0 0 0 4 0l1-1v-4Zm15-43v-1l-4 8a8 8 0 0 0 2-2l1-1 1-4Zm-6 10-5 8 4-2h1c1-2 2-4 1-5l-1-1Zm-11 20c0 3-2 5-3 7l2 1c1 1 3 1 5-1v-4l-3-3Zm5-9-4 7h1c1 1 3 1 5-1 1-2 2-4 1-5l-3-2Z" class="cls-6"/></g><g id="Rectángulo_4201_copia_31" class="cls-5" data-name="Rectángulo 4201 copia 31"><path d="m184 228 8-7a7 7 0 0 0 2-6c-1-2-2-3-3-2l-7 7-1 6c-1 2 0 3 1 2Zm-2 14 9-7a6 6 0 0 0 1-6c0-2-2-3-3-2l-7 7-2 6c0 3 1 3 2 2Zm5-28a74 74 0 0 1 7-8 8 8 0 0 0 3-6c-1-2-2-3-3-1a71 71 0 0 0-6 6 17 17 0 0 0-2 6c0 3 0 4 1 3Zm4 29c0-2-2-3-4-2l-8 8a7 7 0 0 0-2 5v1c1 2 2 2 4 1l9-7a6 6 0 0 0 1-6Zm0-44a53 53 0 0 1 7-7 9 9 0 0 0 3-6c0-2-2-3-3-1a44 44 0 0 0-5 6 28 28 0 0 0-3 5v1c0 2 0 3 1 2Zm22-41a3 3 0 0 0 0-1 5 5 0 0 0 0-1l-9 11a48 48 0 0 1 5-3 12 12 0 0 0 4-6Zm-18 90c-1-1-3 0-4 2v6a46 46 0 0 1 8 8c1 2 2 1 2-1a9 9 0 0 0 0-6 35 35 0 0 0-6-9Zm0-63a44 44 0 0 1 7-7 10 10 0 0 0 4-6c0-2-1-3-2-2a33 33 0 0 0-6 6 45 45 0 0 0-2 6h-1v3Zm29-35c1 2 2 3 4 1 2-1 3-4 3-7l1-6-8 7v5Zm-11 13c0-1-2-1-4 1s-3 5-2 6l4 10c0 2 3 2 4 1 2-1 3-4 2-6l-4-12Zm9-15a1 1 0 0 0-1 0l-7 7a4 4 0 0 0 0 1l3 9a3 3 0 0 0 4 2v-1l2-6-1-12Zm-26 86c-2-1-3-1-5 1-1 3-1 5 1 6a56 56 0 0 1 7 9h4a7 7 0 0 0 0-6 46 46 0 0 0-7-10Zm11-56c-1-2-3-2-4 1-2 2-3 5-2 6l5 9c1 2 3 3 5 2v-1c2-1 2-4 1-6l-5-12Zm28-42h2a18 18 0 0 0 3-3l-5 3Zm-38 84c-1-2-3-1-4 1-2 2-2 5 0 6a69 69 0 0 1 7 9c1 2 3 2 4 1v-7a57 57 0 0 0-7-10Zm2-14c-1-2-3-1-4 1s-2 5-1 6a98 98 0 0 1 7 9c1 1 3 2 5 1v-6a75 75 0 0 0-7-11Zm3-14c-1-2-2-1-4 1-1 2-2 5-1 6l6 9c1 2 3 3 5 2v-7a98 98 0 0 0-6-11Z" class="cls-6"/></g><g id="Rectángulo_4201_copia_29" class="cls-5" data-name="Rectángulo 4201 copia 29"><path d="M224 231a5 5 0 0 0 0 6 91 91 0 0 1 10 10c2 2 4 2 5 0s1-5-1-7a98 98 0 0 0-9-10 3 3 0 0 0-5 1Zm-18-7h5a93 93 0 0 1 12-8 5 5 0 0 0 2-6 3 3 0 0 0-5-2 72 72 0 0 0-11 9c-2 2-3 5-3 7Zm25-22c-1-2-4-2-5 0a2 2 0 0 0 0 1 4 4 0 0 0 0 5 89 89 0 0 1 9 9c1 2 3 2 4 0a7 7 0 0 0 0-6 77 77 0 0 0-8-9Zm-15-6a60 60 0 0 1 11-8 6 6 0 0 0 3-5v-1c-1-2-3-2-5-1a46 46 0 0 0-11 9l-2 7c0 1 2 1 4-1Zm-7 14c0 2 2 1 4 0a72 72 0 0 1 12-8 5 5 0 0 0 2-6c-1-2-3-3-5-2a55 55 0 0 0-11 10c-1 2-3 4-2 6Zm26-68a43 43 0 0 1 11-7 9 9 0 0 0 4-6c0-2-1-3-3-1a34 34 0 0 0-10 8 53 53 0 0 0-4 7l2-1Zm20-21-4 2 2-1a8 8 0 0 0 2-1Zm-36 62a53 53 0 0 1 11-8 6 6 0 0 0 3-6c0-2-2-3-4-2a40 40 0 0 0-11 10 15 15 0 0 0-2 6c-1 2 1 1 3 0Zm4-14a48 48 0 0 1 11-8 7 7 0 0 0 3-5c0-2-1-3-3-2a37 37 0 0 0-11 9 22 22 0 0 0-3 7c0 1 1 1 3-1Zm5-13a45 45 0 0 1 11-8 8 8 0 0 0 4-5v-1c0-2-1-2-3-1a35 35 0 0 0-11 9 33 33 0 0 0-3 6v1l2-1Zm6 76c2 2 4 2 5 0a7 7 0 0 0-1-6 87 87 0 0 0-8-10c-2-2-4-1-5 1h-1a4 4 0 0 0 1 6 91 91 0 0 1 9 9Zm17-98c-1-1-3 0-5 1-2 2-3 5-2 6l4 7c1 2 3 1 4-1l2-5-3-8Zm-6 13c-1-1-3 0-5 1v1c-2 1-3 4-2 5l5 8c1 1 3 1 4-1l2-6a57 57 0 0 0-4-8Zm13-25c0-2-2-1-4 0v1c-2 1-4 4-3 5l3 7c1 2 2 1 4-1l3-6-3-6Zm2-3 1 4c0 1 3 0 5-2a13 13 0 0 0 3-4 42 42 0 0 0-9 2Zm-20 42c-1-2-4-1-5 1-2 2-3 4-1 6a88 88 0 0 1 6 8c1 1 3 1 4-1l1-6a55 55 0 0 0-5-8Zm-7 27c-1-1-4-1-5 1-2 2-2 5 0 6a86 86 0 0 1 8 9c1 1 3 1 4-1a7 7 0 0 0 0-6 68 68 0 0 0-7-9Zm-4 57a4 4 0 0 0-5 0h-1a5 5 0 0 0 1 7 89 89 0 0 1 11 10c1 2 4 2 5 0 1-1 0-4-1-6a101 101 0 0 0-10-11Zm7-71c-1-1-4-1-5 1-2 2-2 5-1 6a85 85 0 0 1 7 8c1 2 3 2 4 0v-1l1-5a59 59 0 0 0-6-9Zm-12 65v-1a4 4 0 0 0-5-2l-14 8c-2 2-3 5-2 7s4 2 6 0l13-7a4 4 0 0 0 2-5Zm-20-2c1 2 4 2 6 1a130 130 0 0 1 13-8 5 5 0 0 0 2-6h-1a4 4 0 0 0-5-2 107 107 0 0 0-12 9c-2 2-4 4-3 6Z" class="cls-6"/></g><g id="Rectángulo_4201_copia_28" class="cls-5" data-name="Rectángulo 4201 copia 28"><path d="M241 209c1 2 2 3 3 2l9-7a6 6 0 0 0 2-6c-1-2-3-3-4-2l-9 7-1 6Zm13 19c-1-2-3-3-4-2l-8 6v6c1 2 2 3 3 2l8-6c2-1 2-3 1-6Zm-12-34c1 2 2 3 3 2l9-7a6 6 0 0 0 2-6c0-2-2-3-4-2l-8 7-2 6Zm2 32 9-7c1-1 2-3 1-6-1-2-3-3-4-2l-8 6c-1 1-2 4-1 6 1 3 2 4 3 3Zm3-44 9-8a7 7 0 0 0 3-6c-1-2-2-3-4-2l-8 8a9 9 0 0 0-2 6c0 2 1 3 2 2Zm18-58a125 125 0 0 1 10-9l5-7a117 117 0 0 0-11 9s0 0-2 0a23 23 0 0 0-3 6c-1 2 0 2 1 1Zm-6 15a127 127 0 0 1 9-9 12 12 0 0 0 4-7c1-2-1-2-3 0a116 116 0 0 0-8 8 17 17 0 0 0-3 6c-1 2 0 3 1 2Zm0 95c-2-1-4-1-5 1v1a6 6 0 0 0 1 6l9 9c2 1 4 1 5-2 1-2 0-5-1-6l-9-9Zm-5-81 9-8a10 10 0 0 0 4-7c0-2-2-2-4-1l-8 8a13 13 0 0 0-3 6v1c0 2 1 2 2 1Zm-4 14 9-7a8 8 0 0 0 3-7c0-2-2-3-3-1l-9 8a11 11 0 0 0-2 6c0 2 1 3 2 1Zm24-39c-1-1-3 0-5 2-2 3-2 5-2 7l6 7c1 1 4 0 6-2s2-5 1-6l-6-8Zm-5 15c-1-1-3 0-5 2-2 3-2 5-1 7l6 7c2 2 4 1 6-1s2-5 1-7l-7-8Zm12-30c-1-1-3 0-5 2l-3 6 5 7c1 1 4 1 6-1v-1c2-2 3-5 2-6l-5-7Zm12-9-2-3a40 40 0 0 0-10 6l4 6c1 1 4 0 6-2s3-5 3-7Zm-34 115c-2-2-4-1-5 1a6 6 0 0 0 1 7l9 8c1 2 3 1 4-1h1c1-2 0-5-1-7l-9-8Zm6-61c-1-1-3 0-5 2s-2 5-1 6l8 8c1 2 4 1 5-1 2-2 2-5 1-7l-8-8Zm-5 30c-1-1-3 0-5 2v6l9 9c2 1 4 0 5-2 2-2 2-5 0-6l-9-9Zm-1 16c-1-2-4-1-5 1s-1 5 1 7l9 8c1 1 3 1 5-1 1-2 1-5-1-7l-9-8Zm3-30c-1-2-3-1-5 1v7l8 8c1 1 4 1 5-1v-1c2-2 2-5 0-6l-8-8Z" class="cls-6"/></g><g id="Rectángulo_4201_copia_25" class="cls-5" data-name="Rectángulo 4201 copia 25"><path d="M351 160c0 2 3 3 5 1a68 68 0 0 1 14-9c3-1 4-4 3-7s-4-4-6-3a61 61 0 0 0-14 10c-2 2-3 5-2 8Zm2-18c0 2 3 2 5 1a66 66 0 0 1 14-9c2-1 3-4 2-7s-3-4-5-3a61 61 0 0 0-13 10c-3 2-4 5-3 8Zm3-18c0 2 2 2 5 1a70 70 0 0 1 12-8c3-1 4-4 3-7s-3-4-5-3a67 67 0 0 0-12 9c-2 2-4 6-3 8Zm-8 73c1 2 4 3 7 1a88 88 0 0 1 14-9 6 6 0 0 0 3-7l-1-1c-1-3-4-4-6-3a73 73 0 0 0-14 10c-3 2-4 6-3 9Zm0 19c1 2 4 3 6 1a112 112 0 0 1 15-9 6 6 0 0 0 2-8c-1-3-4-4-7-3a90 90 0 0 0-14 10c-2 2-3 6-2 9Zm1-38c1 3 4 3 6 1a75 75 0 0 1 14-8 6 6 0 0 0 3-8c-1-3-4-4-7-3a65 65 0 0 0-13 10c-3 2-4 6-3 8Zm44-95a49 49 0 0 0-5-1l1 2c1 2 3 1 4-1Zm-14 8 9 11c1 2 4 1 5-1a8 8 0 0 0 0-8 130 130 0 0 1-8-10l-1-1h-3a6 6 0 0 0-1 1v1c-2 2-2 5-1 7Zm-11 0 11-8a6 6 0 0 0 1 0 35 35 0 0 0-14 4h-1a8 8 0 0 0 0 2 2 2 0 0 0 0 1c0 2 1 2 3 1Zm-4 16a87 87 0 0 1 12-8c2-1 3-4 3-6v-1c-1-2-2-3-4-2a86 86 0 0 0-12 8c-2 2-3 6-3 8s2 2 4 1Zm7 130a5 5 0 0 0-7-2l-14 10a7 7 0 0 0-2 8c1 2 4 3 6 1l15-9a6 6 0 0 0 3-8Zm7-66c-2-2-5-2-7 1a6 6 0 0 0 1 8l13 12c3 2 6 3 7 0 2-2 2-5-1-8l-13-13Zm0 18a5 5 0 0 0-7 1 6 6 0 0 0 1 8l13 12c3 2 6 2 7 0v-1c2-2 1-5-1-7l-13-13Zm1-36c-2-2-6-2-7 0a6 6 0 0 0 0 8l13 13c3 2 6 2 7 0 2-2 1-5-1-8l-12-13Zm2-36a4 4 0 0 0-6 0v1a6 6 0 0 0 0 7l11 13c2 2 5 2 7 0 1-2 1-6-1-8l-11-13Zm-1 18c-2-2-5-2-7 0v1a6 6 0 0 0 0 7l13 13c2 2 5 3 6 0h1c1-2 1-5-1-8l-12-13Zm2-35c-1-2-3-2-5 0-2 3-2 6 0 8l10 12c2 2 4 2 6 0v-1a7 7 0 0 0-1-8l-10-11Zm-34 134c1 3 4 4 6 2a162 162 0 0 1 15-10 6 6 0 0 0 2-7v-1a5 5 0 0 0-7-2 122 122 0 0 0-14 10 7 7 0 0 0-2 8Zm30-26a5 5 0 0 0-7 1 6 6 0 0 0 1 8l13 11a5 5 0 0 0 7-1 6 6 0 0 0-1-8l-13-11Zm13 45-13-9a5 5 0 0 0-7 2c-2 3-2 6 1 7l13 9c2 1 5 0 7-2a5 5 0 0 0-1-7Zm0-17-13-10a5 5 0 0 0-7 1 6 6 0 0 0 1 8l13 10a5 5 0 0 0 7-1v-1a5 5 0 0 0-1-7Z" class="cls-6"/></g><g id="Rectángulo_4201_copia_27" class="cls-5" data-name="Rectángulo 4201 copia 27"><path d="M273 184c0 2 2 2 4 1a101 101 0 0 1 11-7 5 5 0 0 0 2-6 3 3 0 0 0-5-2 87 87 0 0 0-10 7 6 6 0 0 0-2 6Zm-1 14c1 2 3 3 4 2a112 112 0 0 1 11-7 5 5 0 0 0 2-6 3 3 0 0 0-5-2 95 95 0 0 0-10 7 6 6 0 0 0-2 6Zm2-28c1 2 3 2 4 1a85 85 0 0 1 12-7 5 5 0 0 0 2-6 3 3 0 0 0-4-2 77 77 0 0 0-12 7l-2 7Zm14 46v-1a4 4 0 0 0-5-1 91 91 0 0 0-10 6l-1 6c1 2 3 3 4 2a110 110 0 0 1 11-7 5 5 0 0 0 1-5Zm-12-2a122 122 0 0 1 11-7 5 5 0 0 0 1-6 4 4 0 0 0-5-2 98 98 0 0 0-10 7c-1 1-2 4-1 6s2 3 4 2Zm12-86a60 60 0 0 1 12-7 6 6 0 0 0 4-6c0-2-2-3-4-2a64 64 0 0 0-12 9c-3 2-4 5-4 6 0 2 2 2 4 0Zm-12 28c1 2 3 2 5 0a75 75 0 0 1 11-7 6 6 0 0 0 3-5 3 3 0 0 1 0-1 3 3 0 0 0-4-2 72 72 0 0 0-12 8c-2 2-3 5-3 7Zm18 65a4 4 0 0 0-6 1 4 4 0 0 0 1 6l11 8a4 4 0 0 0 5 0 5 5 0 0 0-1-6l-10-9Zm6-121a57 57 0 0 1 10-5l-12 5a3 3 0 0 0-1 0 3 3 0 0 0-1 1c0 2 2 1 4-1Zm-20 42c0 2 2 2 4 0a66 66 0 0 1 12-7 6 6 0 0 0 3-6c0-2-2-3-4-2a67 67 0 0 0-12 9c-2 1-4 4-4 6Zm14-28a56 56 0 0 1 12-8 7 7 0 0 0 5-5c0-2-2-3-4-2a61 61 0 0 0-13 9c-3 2-5 5-5 6 0 2 2 2 5 0Zm19-7h-6c-2 2-3 5-2 6l7 10c2 2 4 2 7 1a4 4 0 0 0 1-6l-7-11Zm-6 14c-1-2-4-1-6 0v1c-2 1-2 4-1 6l8 9a4 4 0 0 0 6 1 4 4 0 0 0 1-6l-8-11Zm-5 14c-1-1-3-1-5 1s-3 4-1 6l8 10a4 4 0 0 0 6 0h1a4 4 0 0 0 0-7l-9-10Zm18-41a2 2 0 0 0-1-1h-4v1h-1c-2 2-3 4-2 6l6 10c1 1 4 2 7 1v-1c2-1 3-4 2-6a120 120 0 0 1-7-10Zm15-3-12 1 2 4c1 2 4 3 7 1 3-1 4-4 3-6Zm-40 87a4 4 0 0 0-6 1 5 5 0 0 0 0 6l11 9a4 4 0 0 0 6-1 4 4 0 0 0-1-6l-10-9Zm-1 15a4 4 0 0 0-6 0v1a5 5 0 0 0 1 6l10 8a4 4 0 0 0 6 0v-1a5 5 0 0 0 0-6l-11-8Zm0 14a4 4 0 0 0-6 1 5 5 0 0 0 1 6l10 8a4 4 0 0 0 6 0 2 2 0 0 1 0-1 5 5 0 0 0-1-6l-10-8Zm5-58c-1-1-4-1-6 1-1 2-2 5 0 6l9 10a4 4 0 0 0 6-1 4 4 0 0 0 0-6l-9-10Zm-2 15a4 4 0 0 0-6 1c-2 2-2 5 0 6l9 9a4 4 0 0 0 6 0l1-1a4 4 0 0 0-1-6l-9-9Z" class="cls-6"/></g><g id="Rectángulo_4201_copia_26" class="cls-5" data-name="Rectángulo 4201 copia 26"><path d="M328 177a5 5 0 0 0 1 7l13 11a5 5 0 0 0 7-1c2-2 1-5-1-7l-13-11a5 5 0 0 0-7 1Zm21 1a2 2 0 0 0 0-1c2-2 2-5-1-7l-12-10c-2-2-5-1-6 1-2 2-2 5 0 7l12 10a5 5 0 0 0 7 0Zm0-23-11-10c-2-2-4-1-6 1s-2 5 0 7l11 9a5 5 0 0 0 7 0c2-2 1-5-1-7Zm-21 39a5 5 0 0 0 1 7l13 11a5 5 0 0 0 7-1h1c1-2 1-6-2-8l-13-10a5 5 0 0 0-7 1Zm-17-41c1 2 3 2 6 0l14-8c2-1 3-4 3-6-1-2-3-3-6-2l-14 9c-2 2-4 5-3 7Zm19-42 12-8c2-1 4-4 3-5v-1c0-2-1-2-3-1l-12 8c-2 2-4 4-4 6s2 2 4 1Zm6-14 11-7a8 8 0 0 0 3-3 30 30 0 0 0-11 4s-1 0-3 0l-3 5c-1 2 1 2 3 1Zm-21 41c0 2 3 2 5 1l14-8 3-6c-1-3-3-3-5-2l-13 9c-3 1-4 4-4 6Zm10-13 12-8c3-1 4-4 4-6-1-2-2-3-4-1l-13 8c-2 1-4 4-4 6s2 2 5 1Zm-19 59c1 2 4 3 7 1l14-8a5 5 0 0 0 2-7c-1-3-3-4-6-2l-14 9c-3 2-4 5-3 7Zm47-95c-1-1-3-1-5 1s-3 5-2 6l7 8a4 4 0 0 0 6 0 4 4 0 0 0 1-6l-7-9Zm-5 13c-1-1-3-1-5 1v1c-2 2-3 4-1 5l7 8a4 4 0 0 0 6 0 4 4 0 0 0 1-6Zm-4 14c-1-1-4-1-6 1s-2 5-1 6l9 9a5 5 0 0 0 7 0v-1a4 4 0 0 0 0-6l-9-9Zm21-29a45 45 0 0 0-11-1l3 5c1 2 4 1 6 0a4 4 0 0 0 2-4Zm-16 134-14-11a5 5 0 0 0-7 2 6 6 0 0 0 2 8l13 10a5 5 0 0 0 7-1v-1a6 6 0 0 0-1-7Zm-37-19 14-9a5 5 0 0 0 3-7 4 4 0 0 0-7-2l-14 9c-2 2-3 5-2 7v1c1 2 4 3 6 1Zm17 1a5 5 0 0 0-7-2l-14 9a6 6 0 0 0-1 8 4 4 0 0 0 7 1l13-8a6 6 0 0 0 2-8Zm-21-35c1 2 4 2 6 1l14-9a5 5 0 0 0 3-6c-1-3-3-3-6-2l-14 9c-2 2-4 5-3 7Zm33-38c-2-1-4-1-6 1s-2 5-1 6l10 9a5 5 0 0 0 7 0 5 5 0 0 0 0-6l-10-10Z" class="cls-6"/></g><g id="Rectángulo_4201_copia_32" class="cls-5" data-name="Rectángulo 4201 copia 32"><path d="m606 207-3-8-3 2 1 5c2 1 4 2 5 1Zm3 10 1-1-3-7-4 3 1 4c1 2 3 2 5 1Zm-19-38 2 4a8 8 0 0 0 3 3l-4-8Zm33 77-1-4a3 3 0 0 0 1 4Zm-22-59-4-8-1 1c-1 1 0 3 1 5l4 2Zm21 60a3 3 0 0 0-4-1l-7 5a3 3 0 0 0 0 4 3 3 0 0 0 4 1l7-5a3 3 0 0 0 0-4Zm-8-1 7-5h1l-2-5a3 3 0 0 0-2 0l-8 5a3 3 0 0 0 0 5 3 3 0 0 0 4 0Zm-3-29 3-2-3-6-5 3v5a4 4 0 0 0 5 0Zm1 10 5-3-3-7-6 5a3 3 0 0 0 0 4 3 3 0 0 0 4 1Zm1 10 6-4-2-7-8 6a3 3 0 0 0 0 4 3 3 0 0 0 4 1Z" class="cls-6"/></g><g id="Rectángulo_4201_copia_32-2" class="cls-5" data-name="Rectángulo 4201 copia 32"><path d="M589 185c-2-2-3-1-3 1a9 9 0 0 0 3 6 52 52 0 0 1 7 7v-3a27 27 0 0 0-2-5 43 43 0 0 0-5-6Zm-8-13a10 10 0 0 0 3 6 44 44 0 0 1 8 7l-1-3a45 45 0 0 0-2-6 33 33 0 0 0-6-6c-1-1-2 0-2 2Zm-7-14a12 12 0 0 0 4 6 49 49 0 0 1 5 3l-9-11a5 5 0 0 0 0 1 3 3 0 0 1 0 1Zm-19-14c1 3 2 6 4 7 1 2 3 1 3-1l1-5-8-7v6Zm-6-8a2 2 0 0 1 1 0h2l-5-3a18 18 0 0 0 2 3Zm46 93a6 6 0 0 0 1 6l9 7c1 2 2 1 2-2l-2-6-7-7c-1-1-3 0-3 2Zm-5-29a8 8 0 0 0 3 6 73 73 0 0 1 7 8c1 1 1 0 1-3a17 17 0 0 0-2-6 73 73 0 0 0-6-6c-1-1-3-1-3 1Zm3 15a7 7 0 0 0 2 6l8 7c1 1 1 0 1-2l-2-6-6-7c-1-1-3 0-3 2Zm-5 35a56 56 0 0 1 7-9c1-1 2-4 1-6a2 2 0 0 0-1 0c-1-2-3-2-4-1a45 45 0 0 0-7 10 7 7 0 0 0 0 6h4Zm-2-28a102 102 0 0 1 7-9c1-1 0-4-1-6s-3-3-4-1a74 74 0 0 0-7 11v6c2 1 3 0 5-1Zm10 28c-1-2-3-3-4-2a35 35 0 0 0-7 9 9 9 0 0 0 1 6c0 2 1 3 2 1a46 46 0 0 1 7-8c2-1 2-4 1-6Zm-9-14a70 70 0 0 1 7-9v-6c-1-2-3-3-4-1a58 58 0 0 0-7 10v7c1 1 3 0 4-1Zm21 13-9-8c-1-1-3 0-4 2a6 6 0 0 0 2 6l9 7c2 1 3 1 3-1v-1a7 7 0 0 0-1-5Zm-32-69 4-10c1-1 0-4-2-6s-4-2-4-1l-4 11c-1 3 0 6 2 7 1 1 3 1 4-1Zm-3-24a1 1 0 0 0 0-1l-7-7a1 1 0 0 0-1 0l-1 12c-1 2 0 5 2 6v1a3 3 0 0 0 4-2l3-9Zm11 52 6-9c1-1 0-4-1-6-2-2-4-3-5-1a98 98 0 0 0-6 11c-1 3 0 6 1 6v1c1 1 4 0 5-2Zm-3-14 5-9c0-2 0-4-2-6v-1c-2-2-4-2-4-1l-5 12c-1 2-1 5 1 6 1 1 4 1 5-1Z" class="cls-6"/></g><g id="Rectángulo_4201_copia_32-3" class="cls-5" data-name="Rectángulo 4201 copia 32"><path d="M562 181c-2-1-4-1-5 1v1a6 6 0 0 0 3 5 60 60 0 0 1 11 8c2 2 4 2 4 1 0-2-1-5-3-7a46 46 0 0 0-10-9Zm2 13c-2-1-4 0-4 2a5 5 0 0 0 2 6 71 71 0 0 1 12 8c2 1 4 2 4 0l-2-6a56 56 0 0 0-12-10Zm-6-27c-2-1-4 0-4 2a6 6 0 0 0 3 6 53 53 0 0 1 11 8c2 1 3 2 3 0a15 15 0 0 0-3-6 41 41 0 0 0-10-10Zm8 41a3 3 0 0 0-5 2 5 5 0 0 0 2 6 94 94 0 0 1 12 8h5c1-2 0-5-2-7a72 72 0 0 0-12-9Zm-13-54c-2-1-3 0-3 2a7 7 0 0 0 3 5 48 48 0 0 1 11 8c2 2 3 2 3 1a22 22 0 0 0-3-7 37 37 0 0 0-11-9Zm8 49v-1c-2-2-4-2-5 0a77 77 0 0 0-8 9 7 7 0 0 0 0 6c1 2 3 2 4 0a89 89 0 0 1 9-9 4 4 0 0 0 0-5Zm-14-62c-2-1-3-1-3 1a2 2 0 0 0 0 1 8 8 0 0 0 4 5 45 45 0 0 1 11 8l2 1v-1a33 33 0 0 0-4-6 35 35 0 0 0-10-9Zm30 97c2 1 5 1 5-1 1-2 0-4-2-6a107 107 0 0 0-12-9 4 4 0 0 0-6 2 5 5 0 0 0 2 6 131 131 0 0 1 13 8Zm-28-12a7 7 0 0 0-1 6c1 2 3 2 5 0a91 91 0 0 1 9-9 4 4 0 0 0 0-6c-1-2-4-3-5-1a88 88 0 0 0-8 10Zm-1 21c1 2 3 2 4 0a91 91 0 0 1 10-10 5 5 0 0 0 1-6 3 3 0 0 0-5-1 97 97 0 0 0-9 10c-2 2-2 5-1 7Zm-1-71a88 88 0 0 1 6-8c1-2 1-4-1-6s-4-3-5-1a55 55 0 0 0-5 8l1 6c1 2 3 2 4 1Zm-4-14 6-8c1-1 0-4-2-5v-1c-2-1-4-2-5-1a58 58 0 0 0-4 8l1 6h1c1 2 2 2 3 1Zm4 41c1 2 3 2 4 1a86 86 0 0 1 8-9c2-1 2-4 0-6s-4-2-5-1a68 68 0 0 0-7 9 7 7 0 0 0 0 6Zm2-14a82 82 0 0 1 8-8c1-1 1-4-1-6s-4-2-5-1a58 58 0 0 0-6 8v6l1 1c1 2 2 2 3 0Zm14 56a4 4 0 0 0-5 0 103 103 0 0 0-10 11c-2 2-2 5-1 6 1 2 3 2 5 0a91 91 0 0 1 10-10 5 5 0 0 0 1-7Zm18 0c-4-4-9-6-13-9a4 4 0 0 0-5 2v1a4 4 0 0 0 1 5l13 7c3 2 6 2 7 0s0-5-3-6Zm-42-97 4-7c1-1 0-4-2-6s-4-2-5-1l-3 7c-1 2 0 4 2 6 1 2 3 3 4 1Zm-3-25-4-2a8 8 0 0 0 2 1l2 1Zm-18-6a13 13 0 0 0 3 4l4 2 2-4a42 42 0 0 0-9-2Zm19 12a9 9 0 0 0 4 6 43 43 0 0 1 11 7l2 1v-1a53 53 0 0 0-4-6 34 34 0 0 0-10-8c-2-2-3-1-3 1Zm-4-6v-1c-2-1-4-2-4 0l-3 6 2 6h1c1 2 3 2 4 1l3-7c1-1-1-4-3-5Z" class="cls-6"/></g><g id="Rectángulo_4201_copia_32-4" class="cls-5" data-name="Rectángulo 4201 copia 32"><path d="M517 123c-1-2-3-2-3 0a11 11 0 0 0 4 7 124 124 0 0 1 10 9c1 1 2 0 1-2a17 17 0 0 0-3-6 116 116 0 0 0-9-8Zm3 15v1a10 10 0 0 0 4 6l9 8c1 1 2 1 2-1v-1a13 13 0 0 0-3-6l-9-8c-1-1-3-1-3 1Zm-13-30c0 2 3 5 5 7a122 122 0 0 1 10 9c1 1 2 1 1-1a23 23 0 0 0-3-6h-3a117 117 0 0 0-10-9Zm-1-1a40 40 0 0 0-11-6l-2 3c0 2 1 5 3 7s5 3 6 2l4-6Zm24 76a6 6 0 0 0 3 6l8 7c2 1 3 0 3-2 1-2 0-5-1-6l-9-7c-1-1-3 0-4 2Zm-22-55 5-7c1-1 0-3-2-6-2-2-4-3-5-2l-5 7c-1 1-1 4 1 7h1c2 2 4 2 5 1Zm28 68c-2-1-3 0-4 2a6 6 0 0 0 2 7l8 6c2 1 3 0 4-2 0-3 0-5-2-6l-8-7Zm-8-28a7 7 0 0 0 3 6l9 8c1 1 2 0 2-2a9 9 0 0 0-2-6l-8-8c-2-1-4 0-4 2Zm-3-15a8 8 0 0 0 3 7l9 7c1 2 2 1 2-1a11 11 0 0 0-3-6l-8-8c-2-2-3-1-3 1Zm-5 21 8-8c1-1 0-4-1-6-2-2-4-3-5-2l-8 8v7a2 2 0 0 1 1 0c1 2 4 3 5 1Zm17 52c-2-1-4 0-4 2h-1c0 3 0 5 2 7l8 6 3-3v-6l-8-6Zm-23-82 5-7c1-2 0-4-1-7-2-2-4-3-5-2l-6 8c-2 1-1 4 1 6s4 3 6 2Zm19 91c-1-2-4-2-5-1l-9 9c-2 1-2 4-1 6v1c1 2 3 2 5 1l9-9a6 6 0 0 0 1-6Zm12-18-8-6c-2-1-4 0-4 2-1 3-1 5 1 7l9 6c1 1 2 0 3-3l-1-6Zm-27 17c1 2 3 3 5 1l9-8a6 6 0 0 0 1-7c-1-2-3-3-5-1l-9 8c-2 2-2 5-1 7Zm-1-75 7-7c1-2 1-4-1-7-2-2-4-3-5-2l-7 8c-1 2-1 4 1 7 2 2 4 2 5 1Zm5 31 8-8v-7c-2-2-4-3-5-1l-8 8c-2 1-2 4-1 6l1 1c1 2 3 2 5 1Zm-4 13c1 2 3 3 5 2l8-9c2-1 2-4 1-6-2-2-4-3-5-2l-9 9c-2 1-2 4-1 6Zm0 16c1 2 4 2 5 1l9-8c2-2 2-5 1-7-2-2-4-3-5-1l-9 8c-2 2-2 5-1 7Z" class="cls-6"/></g><g id="Rectángulo_4201_copia_32-5" class="cls-5" data-name="Rectángulo 4201 copia 32"><path d="M420 142c-2-1-5 0-6 3a6 6 0 0 0 3 7 68 68 0 0 1 14 9c2 2 4 1 5-1s0-6-2-8a61 61 0 0 0-14-10Zm-7-15c-1 3 0 6 2 7a66 66 0 0 1 14 9c2 1 4 1 5-1s-1-6-3-8a61 61 0 0 0-13-10c-2-1-4 0-5 3Zm-2-17c-1 3 0 6 2 7a70 70 0 0 1 13 8c2 1 5 1 5-1 0-3-1-6-3-8a67 67 0 0 0-12-9c-3-1-5 0-5 3Zm-13-26 1-2a49 49 0 0 0-6 1c2 2 4 3 5 1Zm10 8v1c0 2 1 5 3 6a86 86 0 0 1 12 8c2 1 4 1 4-1l-4-8a86 86 0 0 0-11-8c-2-1-4 0-4 2Zm10-1c2 1 4 1 4-1a2 2 0 0 1 0-1 8 8 0 0 0-1-2 35 35 0 0 0-14-5 6 6 0 0 0 1 1l10 8Zm5 106c-3-1-6 0-7 3h-1a6 6 0 0 0 3 8 112 112 0 0 1 14 9c3 2 6 1 7-1 1-3 0-7-2-9a90 90 0 0 0-14-10Zm14 29a122 122 0 0 0-14-10 5 5 0 0 0-8 2v1a6 6 0 0 0 3 7 162 162 0 0 1 14 10c3 2 6 1 7-2a7 7 0 0 0-2-8Zm-16-66c-2-1-5 0-6 3a6 6 0 0 0 2 8 74 74 0 0 1 15 8c2 2 5 2 5-1h1c0-2-1-6-3-8a65 65 0 0 0-14-10Zm1 18c-2-1-5 0-7 3v1a6 6 0 0 0 3 7 88 88 0 0 1 14 9c3 2 5 1 6-1 1-3 0-6-2-9a74 74 0 0 0-14-10Zm-27 66a5 5 0 0 0 7 1l13-10a6 6 0 0 0 1-8 5 5 0 0 0-7-1l-13 10a5 5 0 0 0-1 7Zm0-17a5 5 0 0 0 7 1l13-11a6 6 0 0 0 1-8 5 5 0 0 0-7-1l-13 11a6 6 0 0 0-1 8Zm0-17c1 2 4 2 6 0l14-12a6 6 0 0 0 1-8 5 5 0 0 0-7-1l-14 13c-2 2-2 5-1 7Zm21 36a5 5 0 0 0-7-2l-13 9a5 5 0 0 0-1 7c1 2 5 3 7 2l13-9c2-1 3-5 1-7Zm21-1-15-10a5 5 0 0 0-7 2 6 6 0 0 0 3 8l14 9c3 2 6 1 7-1v-1a7 7 0 0 0-2-7Zm-42-53c1 2 4 2 6 0l14-12a6 6 0 0 0 1-8c-2-3-5-3-8-1l-13 13c-2 3-2 6-1 8Zm-1-54c2 2 5 2 7 0l11-13a6 6 0 0 0 0-7v-1a4 4 0 0 0-6 0l-11 13c-2 2-2 6-1 8Zm0-37c1 2 4 3 5 1l8-11c2-2 1-5 0-7v-1a6 6 0 0 0-1-1h-4a2 2 0 0 0 0 1l-8 10a7 7 0 0 0 0 8Zm1 73c1 2 4 2 6 0l13-13a6 6 0 0 0 1-8c-2-2-5-2-7 0l-13 13c-2 3-2 6-1 8h1Zm-1-54c1 2 4 2 6 0l10-12c2-2 1-5 0-8-2-2-4-2-6 0l-9 11a7 7 0 0 0-1 8Zm0 36c2 3 5 2 7 0l13-13a6 6 0 0 0 0-7v-1c-2-2-5-2-7 0l-12 13c-2 3-2 6-1 8Z" class="cls-6"/></g><g id="Rectángulo_4201_copia_32-6" class="cls-5" data-name="Rectángulo 4201 copia 32"><path d="M483 115a6 6 0 0 0 3 6 60 60 0 0 1 13 7c2 2 4 2 4 0 0-1-1-4-4-6a64 64 0 0 0-12-9c-3-1-4 0-4 2Zm-14-5 6-10c1-2 0-4-2-6h-1v-1h-4a2 2 0 0 0-1 1 120 120 0 0 1-7 10c-1 2 0 5 2 6v1c3 1 6 0 7-1Zm11-4a56 56 0 0 1 13 8c3 2 4 2 4 0l-4-6a62 62 0 0 0-13-9c-2-1-4 0-4 2a7 7 0 0 0 4 5Zm-18-10 2-4-12-1c-2 2 0 5 2 6h1c2 2 6 1 7-1Zm30 47a3 3 0 0 1 0 1 6 6 0 0 0 3 5 75 75 0 0 1 11 7c2 2 4 2 5 0 0-2-1-5-3-7a72 72 0 0 0-12-8 3 3 0 0 0-4 2Zm21 49a95 95 0 0 0-10-7 3 3 0 0 0-5 2 5 5 0 0 0 2 6 111 111 0 0 1 11 7c1 1 3 0 4-2a6 6 0 0 0-2-6Zm-1-15a87 87 0 0 0-11-7 3 3 0 0 0-4 2h-1a5 5 0 0 0 3 6 100 100 0 0 1 11 7c2 1 3 1 4-1v-1a6 6 0 0 0-2-6Zm-37-54 7-10c1-1 0-4-2-5v-1h-6l-7 11a4 4 0 0 0 1 6c2 1 5 1 7-1Zm24 33a3 3 0 0 0-5 2 5 5 0 0 0 3 6 85 85 0 0 1 11 7c2 1 4 1 5-1v-1l-3-6a77 77 0 0 0-11-7Zm-11-27a6 6 0 0 0 3 6 66 66 0 0 1 12 7c2 2 4 2 4 0 1-2-1-5-3-6a67 67 0 0 0-12-9c-2-1-4 0-4 2Zm3-28a3 3 0 0 0-1-1 3 3 0 0 0-1 0l-12-5a57 57 0 0 1 10 5c2 2 4 3 4 1Zm8 121a4 4 0 0 0-6-1l-11 9a5 5 0 0 0 0 6 4 4 0 0 0 5 0l11-8a4 4 0 0 0 1-6Zm-17 0a4 4 0 0 0 5 0l11-8a5 5 0 0 0 1-6 4 4 0 0 0-6-1l-10 8a5 5 0 0 0-1 6v1Zm-3-85 8-9c1-2 1-5-1-6l-1-1c-1-1-4-2-5 0l-8 11a4 4 0 0 0 1 6 4 4 0 0 0 6-1Zm3 71a4 4 0 0 0 6 0l10-8a5 5 0 0 0 1-6v-1a4 4 0 0 0-6 0l-11 8a5 5 0 0 0 0 6Zm22 6a4 4 0 0 0-5 1l-1 1a5 5 0 0 0 2 5 110 110 0 0 1 11 7c1 1 3 0 4-2l-1-6a92 92 0 0 0-10-6Zm10-8a96 96 0 0 0-10-7 4 4 0 0 0-6 2 5 5 0 0 0 2 6 122 122 0 0 1 11 7c1 1 3 0 4-2s0-5-1-6Zm-33-13a4 4 0 0 0 6 1l10-9a5 5 0 0 0 1-6 4 4 0 0 0-6-1l-10 9a4 4 0 0 0-1 6Zm2-41 8-10c1-1 1-4-1-6s-4-2-6-1l-8 11a4 4 0 0 0 0 6 4 4 0 0 0 7 0Zm2 14 9-10v-6h-1c-1-2-4-2-5-1l-9 10a4 4 0 0 0 0 6 4 4 0 0 0 6 1Zm-5 14a4 4 0 0 0 6 0l10-9a5 5 0 0 0 0-6 4 4 0 0 0-6-1l-9 9a4 4 0 0 0-1 6Z" class="cls-6"/></g><g id="Rectángulo_4201_copia_32-7" class="cls-5" data-name="Rectángulo 4201 copia 32"><path d="M461 152c-2-1-4-1-5 2a5 5 0 0 0 3 6l14 9c2 1 5 1 6-1s-1-5-3-7l-15-9Zm-11-27 3 6 14 8c2 1 4 1 5-1 0-2-2-5-4-6l-13-9c-2-1-4-1-5 2Zm3 14c0 2 1 5 3 6l14 8c3 2 5 2 6 0 0-2-1-5-4-7l-13-9c-3-1-5 0-6 2Zm-12-42a2 2 0 0 1 0 1l4 5 12 8c2 1 4 1 4-1s-2-4-4-6l-12-8c-2-1-4-1-4 1Zm14 49c-2-2-5-3-6-1q-6 4-11 10c-2 2-3 5-1 7a5 5 0 0 0 7 0l11-9c2-2 2-5 0-7Zm-18 65a5 5 0 0 0 8 1l13-11a5 5 0 0 0 1-7 5 5 0 0 0-7-1l-13 10c-3 2-3 6-2 8Zm1-41c-2 2-2 5-1 7l1 1c1 1 5 2 7 0l12-10c2-2 2-5 0-7s-5-3-7-1l-12 10Zm21 7h-1a5 5 0 0 0-7-1l-12 11c-3 2-3 5-1 7a5 5 0 0 0 7 1l13-11a5 5 0 0 0 1-7Zm15 8c3 2 5 1 6-1h1c1-2-1-5-3-7l-14-9c-3-2-6-1-7 2a5 5 0 0 0 3 7l14 8Zm-28-74c0 2 1 5 3 6l13 8c3 1 5 1 5-1s-2-5-4-6l-13-8c-2-2-4-1-4 1Zm32 99-13-9a5 5 0 0 0-7 2 6 6 0 0 0 2 8l13 8a4 4 0 0 0 7-1 6 6 0 0 0-2-8Zm-20 2a5 5 0 0 0-6-2l-14 11a6 6 0 0 0-1 7 5 5 0 0 0 7 2l13-11a6 6 0 0 0 2-7Zm-15-66 10-9c1-1 1-4-1-6s-4-3-6-1l-10 9a5 5 0 0 0 0 7 5 5 0 0 0 7 0Zm36 47-14-9a4 4 0 0 0-7 2 5 5 0 0 0 2 7l14 9c3 2 6 1 7-1v-1c1-2 0-5-2-7ZM439 90l12 7c2 1 3 1 3-1l-3-5h-3a30 30 0 0 0-11-4 8 8 0 0 0 2 3Zm-10 1 4-5a45 45 0 0 0-11 1 4 4 0 0 0 2 4h5Zm5 13 7-8c1-1 0-4-2-6s-4-2-5-1l-7 9a4 4 0 0 0 1 6h6Zm4 13 7-8c2-1 1-3-1-5v-1c-2-2-4-2-5-1l-8 9a4 4 0 0 0 0 6h1a4 4 0 0 0 6 0Zm3 15 8-9c2-1 1-4 0-6h-1c-1-2-4-2-5-1l-9 9a4 4 0 0 0 0 6v1a5 5 0 0 0 6 0Z" class="cls-6"/></g><path id="Forma_4245" d="M420 86c-9-5-19-4-26-3-7-1-18-2-28 4 0 0-15-4-27 4 0 0-30 0-41 9 0 0-8-4-29 17 0 0-17 1-28 15 0 0-55 31-77 123 5-12 18-46 23-47 0 0-6 19-8 34 0-2 24-73 43-75 0 0-12 31-15 52 0-1 29-78 50-82 0 0-10 25-14 50 0 0 25-64 42-63 0 0-8 27-11 49 0-1 27-75 51-63 0 0-12 22-15 45 1-2 28-61 51-55l-8 35c2-3 18-51 41-41v14s14-25 29-16l-3-6Z" class="cls-3" data-name="Forma 4245" style="opacity:.28"/><path id="Forma_4220_copia" d="M269 117a26 26 0 0 0-2 0c-30 43-30 115-30 115l3-2c3-66 20-100 33-117l-4 4Zm27-17c-25 32-29 119-29 119l3-1c7-79 21-109 31-120a22 22 0 0 0-3 2 4 4 0 0 0-2 0Zm40-9c-32 33-32 118-32 118l3-2c0-78 26-109 35-118a26 26 0 0 0-3 2s-1 0-3 0Zm30-4c-22 30-18 120-18 120h3c-1-87 12-114 20-122a34 34 0 0 0-5 2Zm-172 95c-15 37-18 75-18 75l3-3c2-32 15-66 22-83l-7 11Zm47-50-4 3c-28 42-36 109-36 109l4-3a236 236 0 0 1 36-109Zm305 0-2-3c12 16 30 49 39 112l4 3s-8-67-36-109l-5-3Zm-28-15-4-4c14 17 31 51 34 117l3 2s-1-72-30-115a27 27 0 0 0-3 0ZM394 83h-1l-1 118h3V83Zm200 99-8-11c8 17 21 51 22 83l4 3s-4-38-18-75Zm-104-82a23 23 0 0 0-3-2c10 11 24 41 30 120l4 1s-5-87-30-119a3 3 0 0 0-1 0Zm-42-9a27 27 0 0 0-3-2c10 9 35 40 35 118l3 2s1-85-32-118h-3Zm-27-4a34 34 0 0 0-4-2c8 8 21 35 19 122h3s4-90-17-120Z" class="cls-8" data-name="Forma 4220 copia"/><path id="Forma_4199" d="M641 239s-16-18-31-22c0 0-12-10-35-14 0 0-20-10-43-9 0 0-30-11-54-6 0 0-21-9-55-5 0 0-13-4-42 3 0 0-20-7-46 1 0 0-19-4-50 5 0 0-28 3-42 10 0 0-23 3-37 12 0 0-17 3-31 14 0 0-17 8-23 23 0 0-28 18-28 46s28 56 58 30c2 0 12 2 25-8 0 0 18-1 27-7 0 0 22 3 43-8 0 0 31 2 51-9 0 0 22 8 52 1 0 0 28 6 47 0 0 0 27 10 50 3 0 0 37 10 53 5 0 0 28 12 47 5 0 0 4 10 26 10 0 0 10 10 26 8 0 0 15 9 37-10s7-62-25-78Z" class="cls-4" data-name="Forma 4199"/><g id="Rectángulo_4201_copia_24" class="cls-5" data-name="Rectángulo 4201 copia 24"><path d="M668 283h3l3-5-2-5a47 47 0 0 1-4 6 4 4 0 0 0 0 4Zm-1-9a2 2 0 0 0 3 0l2-3-3-5-2 3a4 4 0 0 0 0 5Zm1 18h3l5-6-1-5a3 3 0 0 0-1 0 69 69 0 0 1-5 7l-1 4Zm6-2a74 74 0 0 1-5 7c-1 1-2 3-1 4h2l6-7a5 5 0 0 0 0-1v-4l-2 1Zm-8 22c-2 1-3 3-2 4h2l4-3a30 30 0 0 0 4-7 2 2 0 0 0-2 0 71 71 0 0 1-6 6Zm8-14a76 76 0 0 1-6 7l-2 4 3-1 6-6 1-4h-2Zm-9-35a2 2 0 0 0 3 1l-4-5a4 4 0 0 0 0 4h1Zm11 31v3-3Zm-15 27 2-2a9 9 0 0 0-2 2Z" class="cls-6"/></g><g id="Rectángulo_4201_copia_23" class="cls-5" data-name="Rectángulo 4201 copia 23"><path d="M663 257a71 71 0 0 0-5-6l3 5a4 4 0 0 0 2 1Zm-1 8c1 1 3 2 4 1l-1-4-7-9-2-1a6 6 0 0 0 1 5l5 8Zm-17-11a4 4 0 0 0 5 1l5-3v-3l-3-3-6 4a3 3 0 0 0-1 4Zm22 30c1 0 1-2-1-4a73 73 0 0 1-5-9h-2a5 5 0 0 0 0 4l5 8c1 1 2 2 3 1Zm-11-19-7 4c-2 1-3 2-2 4a4 4 0 0 0 5 0l6-3 1-3h-1c0-2-1-3-2-2Zm1-8-3-2-6 4c-2 1-3 3-1 4a4 4 0 0 0 4 1l6-3v-4Zm2 19c0-2-1-3-2-2l-8 4c-2 1-3 3-2 4a4 4 0 0 0 5 1l7-4v-3Zm-15-31a4 4 0 0 0 4 1l2-2a66 66 0 0 0-6-4 3 3 0 0 0-1 4Zm15 40c0-2-1-3-2-2l-8 4c-2 1-3 3-2 4h4l7-3 1-3Zm-12 11c-2 1-3 2-2 3v1h4l8-3 1-3v-1l-2-2-9 5Zm13-34h-2a5 5 0 0 0 1 4l4 8c1 1 3 2 4 1l-1-4a99 99 0 0 1-6-9Zm0 36h-3a4 4 0 0 0 0 4 79 79 0 0 0 4 7 3 3 0 0 0 4 1v-4a44 44 0 0 1-5-8Zm-8 17-1 4a47 47 0 0 0 4 5 56 56 0 0 0 6-3 34 34 0 0 1-5-6h-4Zm6-9a2 2 0 0 0-3 0 3 3 0 0 0-1 4 61 61 0 0 0 5 7 3 3 0 0 0 4 0v-3a39 39 0 0 1-5-8Zm3-17h-3a4 4 0 0 0 0 4l5 7a3 3 0 0 0 3 1c2 0 1-2 0-4a50 50 0 0 1-5-8Zm6 0a57 57 0 0 1-6-9h-2a5 5 0 0 0 0 4l4 8c1 1 3 2 4 1v-4Zm-25 19c1 1 3 2 4 1l9-3a3 3 0 0 0 2-4l-3-2-9 4-3 4Zm-4 9 5 1 9-4a3 3 0 0 0 2-3 2 2 0 0 0-2-2l-10 4-4 4h1Zm11 6-1 1c-1 1-2 2-1 3l1 1a39 39 0 0 0 6-3l-2-2h-3Zm-11 3 10-3a4 4 0 0 0 3-3 1 1 0 0 0 0-1c0-1-1-2-3-1l-11 4c-2 0-3 2-3 3s2 2 4 1Zm5 1-7 2a27 27 0 0 0 11-1c0-1-2-2-3-1Z" class="cls-6"/></g><g id="Rectángulo_4201_copia_22" class="cls-5" data-name="Rectángulo 4201 copia 22"><path d="M635 267a3 3 0 0 0-4-2 41 41 0 0 0-8 3 4 4 0 0 0-1 4 2 2 0 0 0 4 2 74 74 0 0 1 8-4 3 3 0 0 0 1-3Zm3-16h-4c-1 1-1 3 1 5l7 6a2 2 0 0 0 3 0v-1a4 4 0 0 0 0-4l-7-6Zm-21-22v1c1 2 3 3 4 2l8-2a2 2 0 0 0 1-2l-7-5-6 2v4Zm15 6 8 7c1 2 2 1 3 0a3 3 0 0 0 0-3h-2a103 103 0 0 0-9-9 2 2 0 0 0-2 0v1c-1 1 0 3 2 4Zm0 6c-1 1 0 3 1 4l8 7h3a4 4 0 0 0-1-4l-7-7h-4Zm-15 58c0 1 2 2 4 1l10-3a3 3 0 0 0 2-3 3 3 0 0 0-4-2 73 73 0 0 0-9 3l-3 4Zm6-41-1 4a3 3 0 0 0 4 2 76 76 0 0 1 8-3c1-1 2-3 1-4-1-2-3-3-4-2a45 45 0 0 0-8 3Zm12 18a3 3 0 0 0-4-2 43 43 0 0 0-8 4 4 4 0 0 0-2 4l4 1a81 81 0 0 1 8-3 3 3 0 0 0 2-4Zm-2-30-4-2a62 62 0 0 0-7 3c-1 1-2 3-1 5 1 1 3 2 4 1l8-3v-3Zm-1-10h-1c-1-2-2-3-4-2l-7 2c-1 1-2 3-1 5h1c1 2 2 3 4 2l7-3c1 0 2-2 1-4Zm2 49a3 3 0 0 0-4-2 53 53 0 0 0-8 4 4 4 0 0 0-2 3 1 1 0 0 1 0 1l3 1 9-3a3 3 0 0 0 2-4Zm12-14a4 4 0 0 0-1-4l-6-6h-4a3 3 0 0 0 0 5l8 6a2 2 0 0 0 3-1Zm-10 27a3 3 0 0 0-5 0 2 2 0 0 0 0 4l6 6a3 3 0 0 0 4 0v-1c1-1 2-2 1-3l-6-6Zm2-9a3 3 0 0 0-5 0v1a3 3 0 0 0 0 3l6 6a3 3 0 0 0 4 0 3 3 0 0 0 1-4l-6-6Zm-19-68a48 48 0 0 0-5-3c2 2 3 3 5 3Zm20 59a3 3 0 0 0-5 0 3 3 0 0 0 1 4l6 6a2 2 0 0 0 4 0 3 3 0 0 0 0-4l-6-6Zm0-9a3 3 0 0 0-4 0 3 3 0 0 0 0 4l7 6a2 2 0 0 0 4 0 3 3 0 0 0-1-4l-6-6Zm-6 36a3 3 0 0 0-4 0h-1v3l5 6h5c1-1 2-3 1-4l-6-5Zm-19 0a543 543 0 0 1 14-1c1 0 3-2 2-3a3 3 0 0 0-3-2l-11 3c-1 0-3 2-2 3Zm16 8h-5c-2 1-2 2-1 3l5 6h5c2-1 2-2 1-3l-5-6Zm-16 1 10-2c2 0 3-2 3-3l-3-2-11 2-4 3c0 2 2 2 5 2Zm9 3c0-1-1-2-3-2l-12 2a6 6 0 0 0-3 1 31 31 0 0 0 5 3l10-1c2 0 3-2 3-3Zm-2 4c-2 1-3 2-2 3v1a35 35 0 0 0 10 0l-4-4h-4Z" class="cls-6"/></g><g id="Rectángulo_4201_copia_21" class="cls-5" data-name="Rectángulo 4201 copia 21"><path d="M606 278a3 3 0 0 0-5-2l-10 4a3 3 0 0 0-2 5 4 4 0 0 0 4 2l11-4a3 3 0 0 0 2-5Zm-1 11a3 3 0 0 0-5-2l-11 4c-2 0-3 2-3 4 1 2 3 2 5 2l11-3a4 4 0 0 0 3-5Zm-23 16 5 2a113 113 0 0 0 12-3c2-1 4-2 3-4 0-2-2-3-4-2l-12 3c-2 0-4 2-4 4Zm27-58c-2-1-4-1-5 1a4 4 0 0 0 1 5l10 8a4 4 0 0 0 5-1c2-1 1-4-1-5l-10-8Zm12 25a3 3 0 0 0-1-5l-10-8a3 3 0 0 0-5 1 4 4 0 0 0 1 5l9 8a4 4 0 0 0 6-1Zm-15-5v-1a4 4 0 0 0-5-1l-9 4a3 3 0 0 0-2 5 4 4 0 0 0 5 2l10-5a3 3 0 0 0 1-4Zm-2-25h-1c-1-2-3-3-5-2l-8 6c-2 1-2 3-1 5s3 2 5 2l9-6c1-1 2-3 1-5Zm-4 11-9 5a3 3 0 0 0-1 4 2 2 0 0 0 0 1 4 4 0 0 0 5 1l9-4a3 3 0 0 0 1-5c-1-2-3-3-5-2Zm-2-36c-2-2-4-3-6-2l-8 6v5c2 2 4 3 5 2l9-6v-5Zm3 12c-1-2-4-2-5-1l-8 5c-2 1-2 3-1 5s4 3 5 2l9-5v-6Zm0 84-5 1c-2 1-3 3-2 4a56 56 0 0 0 9 1 19 19 0 0 0 2 1v-2a44 44 0 0 1-4-5Zm4-9h-5v1c-2 1-2 3-1 4l6 5 4-1h1c1-1 2-3 1-4l-6-5Zm-16 13h-1a34 34 0 0 0 5 1c0-1-2-2-4-1Zm19-23a4 4 0 0 0-5 0v5l6 6c1 1 4 0 5-1 2-2 2-4 1-5l-7-5Zm10-5-8-6a4 4 0 0 0-5 0v1a3 3 0 0 0 0 4l8 7c1 1 3 0 5-1v-5Zm2-11-9-7a3 3 0 0 0-5 1 4 4 0 0 0 0 5l9 7a4 4 0 0 0 5-1 3 3 0 0 0 0-5Zm-21-55c-1 1 0 4 2 5l11 8h5c1-2 0-4-2-6l-11-8c-2-1-4-1-5 1Zm3 12a5 5 0 0 0 1 6l11 7c2 2 4 2 5 0 1-1 1-4-1-5l-11-8c-2-2-4-1-5 0Zm-4-19 11 7c2 2 4 2 5 0 1-1 0-4-2-5l-1-1h-1l-14-8a2 2 0 0 0-1 1l3 6Zm0 94c0-2-2-3-4-2a118 118 0 0 1-13 2 7 7 0 0 0-3 1 17 17 0 0 0 6 4 101 101 0 0 0 11-2c2 0 3-2 3-3Zm-17-96c1 2 3 2 5 1l8-5a2 2 0 0 0 1-1 79 79 0 0 0-10-4l-5 4v5a2 2 0 0 1 1 0Z" class="cls-6"/></g><g id="Rectángulo_4201_copia_20" class="cls-5" data-name="Rectángulo 4201 copia 20"><path d="M589 261c1-1 1-4-2-7a63 63 0 0 0-14-11c-3-1-7-1-8 1-2 2-1 5 1 6a77 77 0 0 1 16 9c2 2 5 3 7 2Zm-29-44h-1c-1 2 0 4 3 6a127 127 0 0 1 16 9c3 1 6 2 7 1s0-4-2-6a107 107 0 0 0-16-11c-3-2-6-1-7 1Zm10 13c-3-2-6-2-7 0l-1 1c-1 1 0 4 3 5a99 99 0 0 1 15 9c3 2 6 3 8 2 1-1 0-4-2-7a82 82 0 0 0-16-10Zm-31 54c-3 1-4 4-3 6s4 3 7 2l20-7c3-2 5-4 3-6-1-2-5-3-8-2l-19 7Zm23-60a7 7 0 0 0-8-1l-13 7a4 4 0 0 0-2 6h1c1 2 4 3 6 1l15-7c2-1 3-4 1-6Zm14-18 1-1a2 2 0 0 0 0-2h-2a89 89 0 0 0-18-6l13 7 6 2Zm-34 38c-2 1-3 4-2 6s4 2 7 1l16-7c3-1 3-4 2-6h-1a7 7 0 0 0-7-2l-15 8Zm17-34h-1c-1-2-5-3-7-2l-12 8a4 4 0 0 0-1 5v1a5 5 0 0 0 7 1l13-7c2-1 2-4 1-6Zm8 55c-2-2-6-3-9-1l-17 7c-3 1-4 4-3 6s4 2 8 1l18-7c3-1 4-4 3-6Zm-1-13v-1c-2-2-5-2-8-1l-16 8c-3 1-4 3-3 5h1c1 3 4 3 7 2l17-8c3-1 4-3 2-5Zm7 32c-2-1-6-1-8 1-3 2-3 5 0 6l12 9c2 2 4 2 5 1h1a5 5 0 0 0 1-6c-2-4-6-8-11-11Zm-12 27h4a7 7 0 0 0-4 0Zm10-13c-2-1-6-1-9 1s-3 5 0 6a42 42 0 0 1 8 6 36 36 0 0 0 7-2 8 8 0 0 0 2 3 5 5 0 0 0 0-4c-1-3-4-7-8-10Zm3-27a7 7 0 0 0-8 1c-2 2-2 4 1 6 5 2 10 5 13 9 2 2 5 2 6 1 2-1 2-4 0-6-2-5-7-8-12-11Zm0-14c-3-2-6-1-8 1s-2 4 1 6a63 63 0 0 1 15 9c2 2 5 2 6 1 2-1 2-4 0-6a48 48 0 0 0-14-11Zm-10 36c-1-2-5-3-8-2l-19 7c-4 1-5 3-4 5s4 3 7 2l20-6c4-2 5-4 4-6Zm-26-97 2-2a77 77 0 0 0-8 0 5 5 0 0 0 6 1Zm-2 12a5 5 0 0 0 6 1 122 122 0 0 1 12-7c2-1 2-3 1-5h-1a7 7 0 0 0 0-1l-7-1a112 112 0 0 0-11 7c-2 1-2 4 0 6Zm20-5c-1 2 0 5 2 6a161 161 0 0 1 16 9c3 2 6 2 7 1s0-4-3-6a133 133 0 0 0-15-11c-3-1-6-1-7 1Zm5 103c-1-2-5-2-8-1l-11 3a95 95 0 0 0 17 3c2-1 3-3 2-4v-1Z" class="cls-6"/></g><g id="Rectángulo_4201_copia_19" class="cls-5" data-name="Rectángulo 4201 copia 19"><path d="M538 254a4 4 0 0 0-1-6 133 133 0 0 0-13-9 7 7 0 0 0-8 1v1c-2 1-1 4 1 6l15 8a5 5 0 0 0 6-1Zm-1-20a151 151 0 0 0-14-8c-3-2-6-1-8 0v1c-2 2-1 4 2 6l14 8c3 1 6 1 7-1a4 4 0 0 0-1-6Zm-20 14c-2-2-5-3-8-2l-19 6c-3 1-4 3-3 5v1c2 2 5 3 9 2l18-6c3-1 4-4 3-6Zm4-36c-3-2-6-1-8 1-1 2 0 4 2 6 6 2 11 5 15 8 3 1 6 1 7-1s1-4-2-6a155 155 0 0 0-14-8Zm-6 8c-2-2-5-3-8-2l-17 6c-3 1-4 3-3 6h1c1 2 5 3 8 2l17-6c3-1 4-4 2-6Zm-24 18c-3 1-5 3-3 5v1c2 2 5 3 9 2l17-6c3-1 4-4 3-6h-1c-1-2-5-3-8-2l-17 6Zm19-39c-1 2 0 4 3 6l15 8c3 1 6 1 7-1s0-4-2-6a142 142 0 0 0-15-8c-3-1-6-1-8 1Zm6 63c-1-2-5-3-8-2l-19 6c-3 1-5 3-4 6h1c1 2 4 3 8 2l19-6c3-1 5-4 3-6Zm-29 18c-4 1-6 4-5 6h1c1 3 4 3 8 2l20-6c4-1 5-3 4-5v-1c-1-2-5-3-8-2l-20 6Zm26-73v-1a8 8 0 0 0-9-1l-16 5c-3 1-4 4-2 6s6 3 9 2l16-6c3-1 4-3 2-5Zm9 75c-2-1-6-1-9 1-2 2-2 5 1 6a122 122 0 0 1 13 8 4 4 0 0 0 6-1c1-2 2-5 0-6l-11-8Zm2-14a8 8 0 0 0-9 0v1c-2 2-2 4 1 6a148 148 0 0 1 13 8 4 4 0 0 0 6-1h1v-6a80 80 0 0 0-12-8Zm-4 28c-2-1-7-1-9 1-3 2-3 5 0 6l4 3c6 0 11 0 15-2l1 1a2 2 0 0 0-1-1l-10-8Zm4-42a7 7 0 0 0-8 1c-2 2-2 4 1 6l14 8a5 5 0 0 0 6-1 4 4 0 0 0 0-6 107 107 0 0 0-13-8Zm-11 37c-1-3-5-4-9-3l-21 7c-3 1-5 2-5 4l12 3 19-5c3-1 5-4 4-6Zm-3 14c-1-2-5-3-9-2l-3 1 12 1Zm-31-115a11 11 0 0 0 9 1l11-4a76 76 0 0 0-21 1h-1a4 4 0 0 0 1 2Zm4 12a10 10 0 0 0 9 2l16-6c3-1 3-3 1-5v-1a9 9 0 0 0-9-1l-16 6c-3 1-4 3-1 5Zm26-11a166 166 0 0 1 17 8c2 2 5 1 6 0 1-2 1-3-1-5a136 136 0 0 0-25-6 6 6 0 0 0 3 3Z" class="cls-6"/></g><g id="Rectángulo_4201_copia_18" class="cls-5" data-name="Rectángulo 4201 copia 18"><path d="M465 196c-3-2-7-1-9 0v1c-2 2-1 4 2 6a137 137 0 0 1 16 9c2 1 5 2 7 0 1-2 1-4-2-6a117 117 0 0 0-14-10Zm-8-8a128 128 0 0 1 15 10h7c2-2 1-4-2-6a96 96 0 0 0-8-7 104 104 0 0 0-15-2c-1 2 0 4 3 5Zm-22 1 16-7a127 127 0 0 0-25 1c-2 1-2 3-1 4v1c2 2 6 2 10 1Zm1 13 18-6c3-1 4-4 2-6s-5-3-9-2l-18 7c-3 1-4 4-3 6h1c1 2 6 3 9 1Zm44 18a136 136 0 0 0-14-10c-3-2-7-1-8 1h-1c-1 2-1 5 2 6a147 147 0 0 1 15 9c3 2 6 2 8 0 1-1 1-4-2-6Zm-20 27c-2-2-5-3-8-2l-20 7c-4 1-5 3-3 5v1c2 2 7 2 10 1l18-6c3-1 4-4 3-6Zm-28 19c-4 1-5 3-3 6 2 2 6 3 10 1l18-6c3-1 4-3 3-6-2-2-5-3-8-2l-20 7Zm50-25v-1c2-1 1-4-1-6a161 161 0 0 0-14-10c-3-1-7-1-8 1h-1c-2 2-1 5 2 6a150 150 0 0 1 15 9c2 2 5 2 7 1Zm-22-8h-1c-1-3-5-3-8-2l-19 6c-4 2-6 4-4 6l1 1c2 2 6 2 10 1l18-6c3-1 4-4 3-6Zm-32-17c2 2 6 2 9 1l19-7c3-1 4-3 2-6-2-2-6-3-9-2l-19 7c-3 2-5 4-3 6Zm52 47-13-10a6 6 0 0 0-8 1c-2 2-1 5 1 6l13 9a6 6 0 0 0 8 0c2-2 2-5-1-6Zm-1 13-13-9a6 6 0 0 0-7 1c-2 2-2 5 1 6l12 9a6 6 0 0 0 8 0c2-2 1-5-1-7Zm2-28-14-9a7 7 0 0 0-8 0c-2 2-1 5 1 7a159 159 0 0 1 14 9h8v-1c2-1 1-4-1-6Zm-53-18c2 2 7 2 10 1l18-6c3-1 4-4 3-6-2-3-6-4-9-2l-19 7c-3 1-5 4-3 5Zm50 61-13-9a6 6 0 0 0-7 0v1a4 4 0 0 0 0 6l13 9a6 6 0 0 0 7-1 4 4 0 0 0 0-6Zm-50-5c2 2 7 3 10 2l18-6c3-1 4-4 3-6-1-3-5-3-8-2l-19 6c-4 1-6 4-4 6Zm29 11h-1a4 4 0 0 0-1 4 72 72 0 0 0 15 0l-6-5a6 6 0 0 0-7 1Zm1-7c-1-2-4-3-7-2l-20 6a8 8 0 0 0-3 2 105 105 0 0 0 16 4l11-4c3-1 4-3 3-6Z" class="cls-6"/></g><g id="Rectángulo_4201_copia_17" class="cls-5" data-name="Rectángulo 4201 copia 17"><path d="M130 305a3 3 0 0 0 1 3l6 4h3c1-1 0-3-1-4l-7-4a1 1 0 0 0-2 1Zm-1-8a3 3 0 0 0 1 4l5 4 3-1c1-1 0-2-1-3l-5-5-3 1Zm4 18 8 4h3l-2-3-8-5a2 2 0 0 0-2 1 3 3 0 0 0 1 3Zm12-52v-1l1-3-2-1-6 6 3 1c1 1 2-1 4-2Zm-7 63 3 3 11 3h3l-3-3-10-4c-2-1-3 0-4 1Zm3-55h1v-3a46 46 0 0 0-5-3l-4 5a28 28 0 0 1 5 3c1 0 2 0 3-2Zm-4 47-3 1a3 3 0 0 0 2 3l9 3h4l-3-3-9-4Zm2-38 1-4-5-3c-1 0-3 0-3 2h-1v3a34 34 0 0 1 5 3l3-1Zm-9 2v3a50 50 0 0 1 4 4 2 2 0 0 0 4-1 3 3 0 0 0 0-3l-5-4c-1-1-2 0-3 1Zm-1 8v3l5 4a2 2 0 0 0 3 0v-1a3 3 0 0 0 0-3l-5-4c-1-1-2 0-3 1Zm1 11a1 1 0 0 0-3 0l-3 4a41 41 0 0 0 1 5 48 48 0 0 1 4-5 3 3 0 0 0 1-4Zm7 22h-4l-1 1a42 42 0 0 0 4 4 24 24 0 0 1 1-2v-3Zm-4-7-3-1-1 3a42 42 0 0 0 2 4 26 26 0 0 1 3-3 2 2 0 0 0-1-3Zm8 14v-1h-4a34 34 0 0 0 5 4v-1c1 0 1-2-1-3Zm-8-59-3 4h1l2-4Zm26 64-12-4-4 1v1l4 2 12 2a29 29 0 0 0 4 0 10 10 0 0 0-4-2Zm-30-53a4 4 0 0 0 2-3v-1h-3a50 50 0 0 0-2 8 46 46 0 0 1 3-4Zm0 8a4 4 0 0 0 1-4h-3l-2 3a43 43 0 0 0-1 6 56 56 0 0 1 5-5Zm0 4h-2l-3 4a40 40 0 0 0 0 5 56 56 0 0 1 5-6 3 3 0 0 0 0-3Zm2 15a2 2 0 0 0-3-1l-2 4a44 44 0 0 0 2 4 34 34 0 0 1 3-4 3 3 0 0 0 0-3Z" class="cls-6"/></g><g id="Rectángulo_4201_copia_16" class="cls-5" data-name="Rectángulo 4201 copia 16"><path d="m153 313 10 2 4-2v-1l-3-3-9-2a3 3 0 0 0-4 3 3 3 0 0 0 2 3Zm-6-21 1 4 8 2a4 4 0 0 0 4-1v-1c1-1 1-2-1-3a46 46 0 0 0-8-4c-1 0-3 1-3 3a2 2 0 0 0-1 0Zm2 9c-1 2 0 4 1 4l9 2a4 4 0 0 0 4-2c1-1 0-3-2-4a76 76 0 0 0-9-2c-1-1-3 1-3 2Zm11-61-2 4 3 5h4a4 4 0 0 0 1-5l-3-6c0-1-2 0-3 2Zm9-2a5 5 0 0 0 1-5l-1-1a62 62 0 0 0-5 4l1 2h4Zm-21 44v4a54 54 0 0 1 7 3 4 4 0 0 0 4-1c1-1 1-3-1-4a36 36 0 0 0-7-5l-3 3Zm10 34a3 3 0 0 0-3 2 3 3 0 0 0 3 3l10 1 4-2c1-2-1-3-3-3l-11-1Zm-6-55h-1v4a33 33 0 0 1 5 4 3 3 0 0 0 4 0v-4a41 41 0 0 0-5-6c-1-1-2 0-3 2Zm-3 11v4a38 38 0 0 1 6 3 3 3 0 0 0 4 0v-5a34 34 0 0 0-7-5l-3 3Zm9-13a3 3 0 0 0 4 0 4 4 0 0 0 0-5l-4-6-3 2v1c-1 1-2 3-1 4a42 42 0 0 1 4 4Zm-11 0 8-9a12 12 0 0 0 3-4v-1c0-1-1-1-2 1l-3 3-1 3-2 1-2 2a11 11 0 0 0-3 5c0 1 1 1 2-1Zm14-20a49 49 0 0 0-4 4l3-3a13 13 0 0 0 1-1Zm-3 83h-4l-3 5 2 3h4a25 25 0 0 1 2-5c1-1 0-2-1-3Zm6 7h-4a11 11 0 0 0-2 4l3 3h3a8 8 0 0 1 2-4c0-1 0-2-2-3Zm-10-15h-1a3 3 0 0 0-3 1 57 57 0 0 1-4 5l1 3 3 1 4-6a3 3 0 0 0 0-4Zm21 10-12-1-3 2c0 2 2 3 3 3l11 1c3 0 5-1 5-3 0-1-1-2-4-2Zm-8 8 4 2a42 42 0 0 0 7-4h-8c-2 0-3 1-3 2Zm-27-52h2l6-8c2-2 2-4 2-5 0-2-1-1-2 0l-7 8a6 6 0 0 0-1 5Zm-2 9c1 2 2 2 3 1l6-8c1-1 2-4 1-5 0-1-1-1-3 1l-6 7a5 5 0 0 0-1 4Zm12 17a2 2 0 0 0-3 0 42 42 0 0 1-5 6l1 3c1 1 2 2 3 1l4-6a3 3 0 0 0 0-4Zm-6-36 7-9a9 9 0 0 0 2-5h-2l-7 9a9 9 0 0 0-2 5h2Zm4 31v-4h-3a50 50 0 0 1-5 6v4c1 1 2 2 3 1l5-7Zm-7-2 6-7 1-5c-1-1-2-1-3 1a74 74 0 0 1-6 6 4 4 0 0 0-1 4c1 2 2 2 3 1Z" class="cls-6"/></g><g id="Rectángulo_4201_copia_15" class="cls-5" data-name="Rectángulo 4201 copia 15"><path d="M171 281c-1 2-1 4 1 4h9a5 5 0 0 0 5-3c1-2 0-3-1-4h-10l-4 3Zm1 10c-1 1 0 3 1 3h11a5 5 0 0 0 4-3c1-1 0-3-2-3l-10-1a6 6 0 0 0-4 3 1 1 0 0 0 0 1Zm6-63 5-5a59 59 0 0 0-8 5v1l3-1Zm-4 71a2 2 0 0 0 2 4h11a5 5 0 0 0 5-3 3 3 0 0 0-3-3l-10-1a5 5 0 0 0-5 3Zm6 12 12 1c2 0 4-1 5-3 0-2-1-3-3-3l-12-1a5 5 0 0 0-4 3h-1c0 1 1 3 3 3Zm-10-39c-1 2 0 3 1 3l9 1c2 0 4-1 5-3s0-4-1-4l-9-1-4 3Zm8-32-1 1c-1 1-2 3-1 4l7 1c2 1 4-1 6-2v-1c1-1 2-3 0-3l-7-3-4 3Zm13-14c1 1 4 0 6-2s3-4 1-4a31 31 0 0 1-4-3l-7 4-1 2a23 23 0 0 0 5 3Zm-19 13 10-9 3-5c0-2-1-2-2 0l-10 9-3 5h2Zm0 22v1c-2 2-2 3 0 3l8 1c2 0 4-1 5-3v-4l-8-1c-2 0-4 1-5 3Zm2-10c-1 2-2 4 0 4l7 1c2 1 4-1 5-2v-1c2-1 2-3 0-3l-7-2c-1 0-4 1-5 3Zm13-15c1 1 3 0 5-2s3-4 1-4a47 47 0 0 1-6-3l-5 3-1 4a43 43 0 0 0 6 2Zm-2 83-5 1a19 19 0 0 0-3 5l2 2 1 1a6 6 0 0 0 1 0l1-1a7 7 0 0 1 1 0 20 20 0 0 1 3-4c1-1 1-3-1-4Zm-9-15a4 4 0 0 0-5 1l-5 6 1 3h4l5-6c2-2 2-3 0-4Zm-3-5c1-1 2-3 0-4-1-1-3 0-4 1l-6 6v4l3 1 7-8Zm7 13a4 4 0 0 0-5 0 46 46 0 0 0-4 6c0 1 0 2 2 3h3a46 46 0 0 1 5-5 2 2 0 0 0-1-4Zm8 11c-1 1 1 2 3 3h2a36 36 0 0 0 9-4l-10-1c-3 0-4 1-4 2Zm11-9-13-1-4 2v1a497 497 0 0 1 15 4l6-2c0-2-2-3-4-4Zm-28-23c1-2 2-4 1-5s-3-1-5 1l-6 7v4h3l7-7Zm-3-42 9-9c2-1 3-3 3-5a279 279 0 0 0-12 9 9 9 0 0 0-3 5v1c0 1 1 1 3-1Zm-3 11 8-9 3-5h-3l-9 9a8 8 0 0 0-2 5h2Zm-5 10c0 1 1 2 2 0l9-8 2-5c0-2-2-1-4 0l-8 9a6 6 0 0 0-1 4Zm-1 10h2l9-8c1-2 2-4 1-5 0-1-2-1-4 1l-7 8a5 5 0 0 0-1 4Zm3 9a604 604 0 0 1 9-12v-1c-1-1-3 0-4 1l-7 8a4 4 0 0 0-1 4c1 1 2 2 3 0Z" class="cls-6"/></g><g id="Rectángulo_4201_copia_14" class="cls-5" data-name="Rectángulo 4201 copia 14"><path d="m236 205-4-1a122 122 0 0 0-13 4l8 4c2 1 5 0 7-2 3-2 3-4 2-5Zm-33 62v1c-1 1 0 3 2 4l11 5c2 1 4 0 6-1 1-2 0-4-2-5l-11-5a5 5 0 0 0-6 1Zm3 21c-1 2 0 4 2 4l13 6c2 1 4 0 5-1 1-2 0-4-2-5l-12-5c-2-1-5-1-5 1Zm6 15 12 5c3 1 5 1 6-1 1-1 0-3-3-4l-12-6c-2-1-5 0-5 1-1 2 0 4 2 5Zm18-86-8-4c-2-1-5 0-7 2s-3 3-1 4l8 4c2 1 5 0 7-1v-1c2-1 3-3 1-4Zm-28 4 12-7c3-1 4-3 4-4s-1-2-2-1l-2 1a100 100 0 0 0-11 6 11 11 0 0 0-3 5c-1 1 0 2 2 0Zm5 15c-2 2-2 4 0 4l9 5a6 6 0 0 0 7-1v-1c2-1 2-3 0-4l-10-5c-2-1-4 0-6 2Zm-10-4 12-7c3-1 4-3 4-5h-4l-12 7-3 4c0 1 2 2 3 1Zm28 1 1-1c1-1 2-3 0-4l-9-5c-2-1-4 0-6 2h-1c-1 2-2 4 0 5l9 4c2 1 4 0 6-1Zm-20 14c-2 1-2 3 0 4l10 5a6 6 0 0 0 6-1v-1a3 3 0 0 0 0-4l-10-5c-2-1-5 0-6 1Zm-2 10c-1 2-1 4 1 5l11 4a5 5 0 0 0 6-1 3 3 0 0 0-1-4l-11-5a6 6 0 0 0-5 1h-1Zm2 21h-1c-1 2 0 4 2 4l12 6c2 1 4 0 5-1l1-1c1-1 0-3-2-4l-12-5a5 5 0 0 0-5 1Zm7 30c2-1 2-3 0-4-1-2-4-2-6-2l-8 5c-1 1-1 2 1 4 2 1 4 2 6 1l7-4Zm-22-67c0 2 2 2 4 1l12-7c2-1 4-3 3-4 0-2-3-2-5-1l-11 7-3 4Zm9 62 9-5c2-1 2-3 1-4h-1a5 5 0 0 0-5-1l-9 4c-2 1-2 3 0 4 2 2 4 2 5 2Zm20 4c-3-1-5 0-5 1-1 2 0 4 2 4l9 4a35 35 0 0 0 7-3l-13-6Zm0 11 3-1-3 1Zm-2-5c-2-1-4-2-6-1l-7 4c-1 1 0 2 2 4l1-1a90 90 0 0 0 9-1l1-1c2 0 1-2 0-3Zm-22-20 10-5a3 3 0 0 0 1-5 5 5 0 0 0-6-1l-10 5c-1 1-2 3 0 4v1a5 5 0 0 0 5 1Zm-8-41c1 1 3 2 5 1l11-7c3-1 4-3 3-4v-1h-5l-11 6c-2 1-3 3-3 5Zm-1 10c1 1 3 2 5 1l11-6c2-1 3-3 2-5h-5l-11 6c-2 1-3 2-2 4Zm5 11 11-6c2-1 3-3 2-4-1-2-4-2-6-1l-11 6a3 3 0 0 0-1 4 4 4 0 0 0 5 1Zm2 10 10-5c2-1 3-3 1-5-1-1-3-2-5-1l-11 6a3 3 0 0 0-1 4 4 4 0 0 0 6 1Z" class="cls-6"/></g><g id="Rectángulo_4201_copia_13" class="cls-5" data-name="Rectángulo 4201 copia 13"><path d="M245 253c-2 2-1 5 1 6l16 7c2 1 6 0 7-2a4 4 0 0 0-1-6l-14-7a8 8 0 0 0-9 2Zm0 14c-2 2-1 5 1 6l17 7c3 2 6 1 8-1a4 4 0 0 0-2-6l-15-7a8 8 0 0 0-9 1Zm29-52-11-7c-2-1-5-1-8 1v1c-2 2-3 4-1 6l12 7c2 1 5 0 7-2h1c2-2 2-5 0-6Zm-28 66c-2 2-1 5 2 6l17 7c3 2 7 1 8-1 2-2 1-5-2-6l-16-8c-3-1-7 0-9 2Zm-8-65 16-7c3-2 5-4 5-6a2 2 0 0 1 0-1c-1-2-3-2-6-1l-14 7a8 8 0 0 0-5 6c0 2 2 3 4 2Zm7-15 8-3a65 65 0 0 0-10 3l-1 1 3-1Zm26 35v-1c2-2 2-4 0-6l-12-7c-3-1-6 0-8 2h-1c-2 2-2 5 0 6l13 7a6 6 0 0 0 8-1Zm-38-5 16-7c3-2 5-4 4-6v-1c0-2-3-2-6-1l-15 7a7 7 0 0 0-3 5v1c0 2 2 3 4 2Zm14 8c-2 2-2 5 0 6l15 7a6 6 0 0 0 7-2c2-2 2-5 0-6l-13-7c-3-1-7 0-9 2Zm5 64-1-1c-2-2-5-3-8-2a91 91 0 0 0-10 6c-1 0-1 3 1 5a10 10 0 0 0 1 1h7l9-4c2-1 2-3 0-5Zm22-2-17-7c-3-2-7-1-8 1-2 2-1 5 2 6l16 7a64 64 0 0 0 10-4h1a6 6 0 0 0-4-3Zm5-100-9-7-9 2c-2 2-2 4-1 5a118 118 0 0 0 10 7c2 1 5 1 8-1 2-2 3-5 1-6Zm-26 108a3 3 0 0 0-1 3 78 78 0 0 0 12-3l-4-1c-3-2-6-1-7 1Zm22-116v1c2 1 6 1 8-1v-1h1l-9 1Zm-52 64a3 3 0 0 0 5 2l15-7c3-1 5-4 4-6-2-2-5-2-8-1l-14 6c-2 1-2 3-2 6Zm2-14c0 2 2 3 5 2l15-7c3-1 5-4 4-6s-4-3-7-1l-14 6a6 6 0 0 0-3 6Zm3 30 15-6c3-2 4-4 3-6v-1c-2-2-5-2-8-1l-14 6c-1 1-2 3-1 5v1a4 4 0 0 0 5 2Zm6 27 13-5c2-2 3-4 1-6a8 8 0 0 0-8-2 107 107 0 0 0-12 5v6h1c1 2 3 3 5 2Zm-4-13 14-7c3-1 4-3 2-5v-1c-2-2-5-2-8-1a134 134 0 0 0-13 6v5c1 2 3 3 5 2Z" class="cls-6"/></g><g id="Rectángulo_4201_copia_12" class="cls-5" data-name="Rectángulo 4201 copia 12"><path d="M295 254c-2 2-1 5 2 6l17 7c3 2 7 1 10 0 2-2 1-5-2-6l-18-9a8 8 0 0 0-8 2Zm28-15c3-1 2-4-1-6l-15-9a8 8 0 0 0-9 1v1c-3 2-2 4 0 5l16 8c3 2 7 2 9 0Zm1-19-15-10a8 8 0 0 0-9 1c-2 2-2 5 0 6l15 8c3 2 7 2 9 1h1c2-2 2-4-1-6Zm-29 48c-2 2-1 5 2 6l18 7c3 1 8 1 10-1s1-4-2-6l-19-8c-3-1-7-1-9 2Zm1-28c-2 2-2 4 1 5l16 8c4 2 8 2 10 0s2-5-1-6l-17-9a8 8 0 0 0-9 1Zm-7-49-4 1a8 8 0 0 0 4-1Zm-16 42c1 1 4 2 6 0a154 154 0 0 1 17-8c3-1 5-4 4-6h-1c-1-2-4-3-7-1a164 164 0 0 0-16 8c-3 2-4 5-3 6a2 2 0 0 1 0 1Zm59-46-6-1a13 13 0 0 0 6 1Zm-57 32c1 1 4 2 6 0a155 155 0 0 1 17-8c4-1 5-4 4-6s-4-3-7-1a173 173 0 0 0-17 8c-2 2-4 5-3 6Zm3-15c1 2 4 2 7 1a151 151 0 0 1 17-8c3-1 5-4 4-6s-4-3-7-1a188 188 0 0 0-17 8c-3 2-5 4-4 6Zm52-11-10-7a117 117 0 0 0-15 2 3 3 0 0 0 2 2l13 8a11 11 0 0 0 10 1c3-1 3-4 0-6Zm-33 103c-1 2-1 5 2 6l2 1a99 99 0 0 0 18-4l-13-4c-3-2-7-1-9 1Zm-6 6-4 2 12-1a7 7 0 0 0-8-1Zm34-14-20-8c-3-1-7 0-9 2s-1 5 2 6l18 7c4 2 9 1 11-1 3-2 1-5-2-6Zm2-82-15-9a8 8 0 0 0-9 0 3 3 0 0 0 0 1c-2 2-2 4 0 5l14 9a10 10 0 0 0 10 0c2-1 2-4 0-6Zm-55 40c1 2 4 3 6 1a152 152 0 0 1 16-8c4-1 5-4 4-6-2-2-5-3-8-1a151 151 0 0 0-16 8c-2 2-3 4-2 6Zm6 29a139 139 0 0 1 15-8c4-1 5-4 3-6-1-2-5-3-8-1a124 124 0 0 0-14 8 4 4 0 0 0-2 6c2 2 4 2 6 1Zm0-14a147 147 0 0 1 16-8c3-1 4-4 3-6h-1c-1-2-5-3-7-1a138 138 0 0 0-15 8 5 5 0 0 0-2 6c1 2 3 3 6 1Zm20 29h-1c-1-2-5-3-8-2a94 94 0 0 0-12 7c-2 2-2 4-1 6h1a4 4 0 0 0 5 2 117 117 0 0 1 13-7c3-1 4-4 3-6Zm-18-1a129 129 0 0 1 14-7c3-2 4-4 3-6l-1-1c-1-2-5-2-8-1a108 108 0 0 0-13 8 4 4 0 0 0-1 6 4 4 0 0 0 6 1Z" class="cls-6"/></g><g id="Rectángulo_4201_copia_11" class="cls-5" data-name="Rectángulo 4201 copia 11"><path d="M348 260c-2 2-1 5 1 6 6 2 11 5 17 9 3 2 8 2 10 1l1-1c2-1 1-4-3-6l-17-11c-3-1-7-1-9 2Zm28-49a111 111 0 0 0-15-10 7 7 0 0 0-8 1c-3 2-2 5 0 6a123 123 0 0 1 14 9c3 1 7 2 9 1h1c2-2 1-5-1-7Zm-49 14c1 1 3 2 6 0a122 122 0 0 1 16-9c3-1 4-4 3-6s-4-3-7-1a135 135 0 0 0-15 9c-3 2-4 5-3 6Zm21 20a4 4 0 0 0 1 6l17 9c3 2 7 2 9 1h1c2-1 1-4-2-7a187 187 0 0 0-17-10 7 7 0 0 0-8 1Zm-19-35c1 2 4 2 6 0a123 123 0 0 1 16-9c3-1 5-4 4-6h-1c-1-2-4-3-6-1a130 130 0 0 0-15 9c-3 2-4 5-4 7Zm46 22h1c2-1 1-4-1-6a119 119 0 0 0-16-11 7 7 0 0 0-8 1c-3 3-2 5 0 6a130 130 0 0 1 15 9c3 2 7 3 9 1Zm-42-36c0 2 3 2 5 0a118 118 0 0 1 16-9 7 7 0 0 0 3-3 85 85 0 0 0-16 2l-5 3c-2 2-3 5-3 7Zm16 35c-2 2-2 5 1 6a152 152 0 0 1 16 9c3 2 7 2 9 1 3-2 2-5-1-7a142 142 0 0 0-16-11 7 7 0 0 0-9 2Zm-24 8c1 2 4 2 7 0a118 118 0 0 1 15-9c3-1 5-4 4-6h-1c-1-2-4-3-7-1a133 133 0 0 0-15 9c-3 2-4 5-3 7Zm52-42a118 118 0 0 0-14-11c-2-1-5-1-8 2-2 2-2 4 0 6a131 131 0 0 1 14 8c3 2 7 3 9 1 2-1 2-4-1-6Zm-1 86-19-10c-3-2-7-1-8 1-2 2-1 5 1 6l17 9c4 2 9 2 11 1v-1c2-1 1-4-2-6Zm5-97a69 69 0 0 0-17-3l7 5c2 2 6 2 9 1a3 3 0 0 0 1-3Zm-31 103c-2 2-1 5 2 6l7 4a109 109 0 0 0 17-2l-18-9c-3-2-7-2-8 1Zm0-7a6 6 0 0 0-8-2 73 73 0 0 0-12 9 5 5 0 0 0-1 6 4 4 0 0 0 1 1l3 1a4 4 0 0 0 2-1 68 68 0 0 1 13-8c3-1 4-4 2-6Zm-18-15a97 97 0 0 1 14-8c3-1 4-4 3-6-2-3-5-3-8-2a110 110 0 0 0-14 9c-2 2-3 5-2 7h1c1 2 3 2 6 0Zm1 15a83 83 0 0 1 14-9c3-1 4-4 2-6-1-2-5-3-8-1a93 93 0 0 0-13 9 5 5 0 0 0-1 6c1 2 4 2 6 1Zm-8-29c1 2 4 2 6 0a109 109 0 0 1 16-8c3-2 4-4 3-7h-1c-1-2-4-2-7-1a124 124 0 0 0-15 10c-2 1-3 4-2 6Zm26 43a6 6 0 0 0-7-1l-5 3a96 96 0 0 0 13 1 4 4 0 0 0-1-2Z" class="cls-6"/></g><g id="Rectángulo_4201_copia_10" class="cls-5" data-name="Rectángulo 4201 copia 10"><path d="M380 207c1 1 3 2 6 1l17-7c3-1 4-4 2-6-1-2-4-2-7-1l-16 7c-2 1-3 4-2 6Zm45-20a4 4 0 0 0-1-4h-1s-5-2-16-1l12 6c2 1 5 1 6-1Zm1 20-14-7a8 8 0 0 0-7 1l-1 1c-2 2-1 4 2 5l15 7c2 1 5 0 6-2a4 4 0 0 0-1-5Zm-45-13c1 2 4 2 7 1l15-7c3-1 4-3 2-5a3 3 0 0 0 0-1l-10 1-11 6c-2 1-3 4-3 5Zm44 0-13-7a6 6 0 0 0-7 2h-1c-1 2-1 4 2 5l14 7c2 1 5 0 6-1v-1a4 4 0 0 0-1-5Zm2 26a150 150 0 0 0-14-7 8 8 0 0 0-8 2h-1c-2 2-1 4 2 5l15 7c3 1 6 0 7-2a4 4 0 0 0-1-5Zm1 39a141 141 0 0 0-14-6 10 10 0 0 0-10 1v1c-2 1-1 4 2 5l16 7c2 1 5 0 7-2 1-2 1-4-1-6Zm0 13a156 156 0 0 0-14-6c-3-1-7-1-10 1-2 2-1 5 2 6l16 7c2 1 5 0 7-2 1-2 1-5-1-6Zm0-26a141 141 0 0 0-14-6 10 10 0 0 0-10 1c-2 2-1 5 2 6l16 6c2 1 5 1 7-1 1-2 1-5-1-6Zm-1-13a144 144 0 0 0-14-6 9 9 0 0 0-9 1c-2 2-1 4 2 6l16 6c2 1 5 1 6-1a4 4 0 0 0-1-6Zm-49 0c1 2 4 2 6 1l18-6c4-2 5-4 3-6-1-2-5-3-8-2a171 171 0 0 0-17 7c-2 1-3 4-2 6Zm20 65 5 1a8 8 0 0 0-5-1Zm7-10v-1c-1-2-5-2-8-1a139 139 0 0 0-15 5c-1 1-2 3-1 5l9 1 13-4c2-1 4-4 2-6Zm-26-68c0 2 3 2 6 1l17-7c4-1 5-3 3-5-1-2-5-3-8-2a175 175 0 0 0-16 7c-2 1-3 4-3 6Zm49 66-15-7c-2-1-6 0-9 1v1c-2 1-1 4 2 5l15 7a6 6 0 0 0 7-2h1c1-2 1-4-1-5Zm-24 7c-2 2-1 4 1 6a72 72 0 0 0 18-2l-10-5c-3-1-7-1-9 1Zm-20-33 18-6c4-1 5-4 3-6s-6-3-9-1a171 171 0 0 0-17 6 4 4 0 0 0-2 5 2 2 0 0 1 1 0c1 2 3 3 6 2Zm-7-14c1 1 4 2 7 1l18-6c4-2 5-4 3-6s-6-3-9-2a173 173 0 0 0-17 7 4 4 0 0 0-2 5 3 3 0 0 0 0 1Zm9 40 16-6c4-1 5-4 3-5v-1c-2-2-6-2-9-1a156 156 0 0 0-15 6c-2 1-3 3-1 5a5 5 0 0 0 6 2Zm-1-13 17-6c4-1 5-4 3-6s-6-3-9-1a168 168 0 0 0-16 6 4 4 0 0 0-2 5c1 2 4 3 7 2Z" class="cls-6"/></g><path id="Forma_4244" d="M477 188c-5-2-25-9-54-5 0 0-13-4-42 3 0 0-20-7-46 1 0 0-19-4-50 5 0 0-28 3-42 9 0 1-23 4-37 13 0 0-17 3-31 14 0 0-17 8-23 23 0 0-28 18-28 46a41 41 0 0 0 1 13c1-12 4-32 16-39 0 0-12 29 7 54 0-1-7-64 19-81 0 0-17 45 0 71 0 0-6-73 25-82 0 0-12 15-3 59 0 0 4-73 44-77 0 0-16 24-11 62 0-2 15-72 56-72 0 0-9 21-7 46 0-2 17-59 59-52 0 0-6 20-6 29 0 0 20-37 56-32a151 151 0 0 0-1 15s12-26 45-22l1 13c5-2 16-22 53-11l-1-3Z" class="cls-3" data-name="Forma 4244" style="opacity:.36"/><path id="Forma_4201" d="M286 192h-4c-5 8-12 23-13 52-1 34 4 53 7 60h2c-5-22-7-27-5-59 1-35 9-49 13-53Zm52-5h-2c-6 8-14 24-13 52 0 36 3 48 4 57l1-1 2 1c-1-6-4-25-4-58 1-33 9-47 12-51Zm-188 65v1h-1v1h-1l-1 2c-9 16-25 58 16 81h1l1-1c-14-7-44-30-15-84Zm231-66c-11 62-5 97-1 110h2c-9-41-1-100 1-110h-2Zm-206 42-1 1h-1l-1 1c-30 68-2 92 8 99l1-1 1-1c-38-25-15-82-7-99Zm12 42c-2-33 15-53 19-57v1h-2c-10 11-19 21-20 55 0 31 15 46 22 51l1-1c-8-4-18-19-20-49Zm57-69-1 1h-3c-9 9-17 23-20 50-2 30 9 54 13 60h2c-5-11-14-37-12-58 3-30 15-47 21-53Zm398 38h-1v-1h-1v-1c3 14 14 59-11 90h2v1h1c4-8 24-34 11-89Zm-27-20-1-1h-1l-2-1c3 7 10 35 9 53-1 31-8 40-18 49h1a18 18 0 0 0 2 1c7-6 20-21 18-54-2-25-6-39-8-47Zm49 39-1-1-1-1-1-2-1-1c5 16 12 46 0 68h1l1-1 2-2c5-11 8-30 0-60Zm-186-70-4-1c5 8 19 38 3 112l3 1c5-19 17-75-2-112Zm-55-5h-1c2 12 6 73 4 113h3c1-12 3-44-4-113Zm155 21h-2l-1-1h-1c4 5 12 29 14 49 2 22 2 40-11 58v-1a10 10 0 0 0 2 3c6-7 16-25 11-61-4-26-8-40-12-47Zm-46-10h-2c3 10 16 51-1 111h3c5-14 16-62 1-111Z" class="cls-8" data-name="Forma 4201"/></svg>