<svg xmlns="http://www.w3.org/2000/svg" id="Assets" viewBox="0 0 800 800"><defs><style>.cls-1{fill:#e6e5e6}.cls-2{fill:#cec3cc}.cls-3{fill:#fff}.cls-5{fill:#00d6cb}.cls-16{opacity:.67}</style></defs><path id="Forma_3264" d="M496 112s11-1 12-16-17-17-17-17 15-15-9-23c0 0 12-19-16-23 0 0 0-15-14-22s-23 3-23 3-9-23-25-8c0 0-18-16-28 3 0 0-24-18-30 13 0 0-23-7-20 14 0 0-24 4-12 23 0 0-11 5-12 17s10 16 10 16-18 20 9 27c0 0-8 27 19 28 0 0-6 7 2 14s16 3 16 3-4 15 10 21 19-1 19-1 4 14 18 17 13-7 13-7 14 22 27 2c0 0 28 25 36-17 0 0 12 3 18-12s-6-17-6-17 15-2 16-19-13-19-13-19Z" class="cls-1" data-name="Forma 3264"/><path id="Forma_3264_copia_2" d="M476 53a16 16 0 0 1 6 3c2-3 7-15-7-21 8 7 1 18 1 18Zm-17-21a22 22 0 0 1 6 2c0-6-2-17-13-23a24 24 0 0 0-2-1c10 8 9 22 9 22Zm-138 87a26 26 0 0 1 1-2l-14-7c1 3 8 9 13 9Zm169-11a16 16 0 0 1 7 4c4-1 10-5 11-16 0-9-6-13-11-15a14 14 0 0 1 5 11c-1 15-12 16-12 16Zm-6-29a44 44 0 0 1 8 1c5-6 9-16-7-23 11 9-1 22-1 22Zm-145 78a17 17 0 0 0 3 4c5 6 13 4 16 4l1-7s-13 6-20-1Zm160-44c2 3 4 7 4 14-1 17-15 18-15 18a11 11 0 0 1 6 5c2-1 14-3 15-19 0-12-6-16-10-18Zm-5 37c1 2 2 6-1 13-6 14-17 11-17 11-9 42-37 17-37 17-7 12-15 8-20 4 2 3 15 19 26 1 0 0 28 25 36-17 0 0 12 3 18-12 6-13-3-17-5-17Zm-81 39s0 10-13 7a20 20 0 0 1-9-5c3 4 7 9 14 10 11 3 13-5 13-6a31 31 0 0 1-5-6Zm-49-9a18 18 0 0 1-5-3 16 16 0 0 0 9 8c10 3 16 2 20 0a49 49 0 0 1 2-9s-12 9-26 4Zm-21-37c-7 0-18-2-21-5 2 4 8 9 18 9l3-4Z" class="cls-2" data-name="Forma 3264 copia 2"/><path id="Forma_3264_copia_3" d="M302 76a15 15 0 0 0 3 10 17 17 0 0 1 0-3c1-12 11-17 11-17a21 21 0 0 1-3-6c-3 1-10 6-11 16Zm150-65c-13-6-24 3-24 3s-8-23-24-8c0 0-18-16-28 3 0 0-24-18-30 13 0 0-23-7-20 14 0 0-22 4-13 21 0-10 15-13 15-13-3-20 19-13 19-13 6-30 29-12 29-12 10-19 27-4 27-4 14-14 23 8 23 8s10-9 23-2 13 20 13 20c3-2 3-7 4-8 0 0 0-15-14-22Zm-81 22a10 10 0 0 0-5 6c-13-5-18 0-20 4l-2 8c-10 10-12 16-12 21 1 5 4 9 4 9-1-12 2-18 5-21s7-5 7-4c1-12 11-18 26-9 1-10 7-11 12-11a15 15 0 0 1 7 3c-9-9-17-8-22-6Zm69 23s-7-13-20-7a14 14 0 0 0-8 13s-10-2-13 10a94 94 0 0 1 16-3s0-12 10-12 12 7 12 7 9-6 22 7c0 0-4-19-19-15Zm-47-17 1 1a3 3 0 0 0-1-1Z" class="cls-3" data-name="Forma 3264 copia 3"/><path id="Forma_3256_copia" d="M680 207C560 58 263 58 143 207 42 332 97 383 98 390c0 0 88-138 314-138 255 7 306 151 306 151 1-7 63-71-38-196Z" data-name="Forma 3256 copia" style="fill:#00c5ba"/><path id="Forma_3256_copia_3" d="M143 207C42 332 97 383 98 390c0 0 5-8 17-21-10-26-15-77 55-163 54-67 145-104 238-111-103 1-205 38-265 112Z" class="cls-5" data-name="Forma 3256 copia 3"/><g style="opacity:.7"><path id="Forma_3261" d="M680 207c-29-36-68-63-112-82 35 18 66 42 90 72 53 65 60 120 55 154-37-37-200-180-400-97 0 0 275-30 388 133v1l1 1 5-7c8 13 11 21 11 21 1-7 63-71-38-196Z" data-name="Forma 3261" style="fill:#00958b"/></g><g style="opacity:.29"><path id="Forma_3261_copia_14" d="M242 131a17 17 0 0 0 5-2l-5 2Zm71 63 14 9s9 4 18 0 1-11 1-11l-14-8s-7-7-18 1c-8 7-1 9-1 9Zm14 37s10 2 18-2 0-9 0-9l-17-11s-12-4-18 1-3 9-1 11c1 2 18 10 18 10Zm-126-19 8 6s6 3 12-2 2-11 2-11l-8-5s-4-6-12 3c-7 8-2 9-2 9Zm20-37a19 19 0 0 0 12-4c6-5 3-8 3-8l-8-6s-6-3-12 3-4 8-3 10l8 5Zm3-29 5 6s5 2 11-4 4-10 4-10l-5-4a3 3 0 0 0-1-1l-11 6c-7 7-3 7-3 7Zm-10 51s7 1 13-4 2-10 2-10l-8-4s-7-3-11 2-7 8-4 10l8 6Zm127-86s8 2 15-2c6-5 0-10 0-10l-28 4 1 1 12 7Zm-16 13 11 8s8 4 16-1 1-10 1-10l-11-7s-6-7-15 1c-8 7-2 9-2 9Zm63-5c-6-4-14 1-14 1l-10 6c-6 4-12 7-6 12s17-1 17-1l17-8c3-2 2-6-4-10ZM134 330c-7-2-9 7-17 14-5 6-2 8 0 10a7 7 0 0 0 9-1 149 149 0 0 0 11-11c5-6 2-10-3-12Zm200-172s10 2 17-2 1-9 1-9l-15-9s-10-5-17 1-3 9-2 10c1 2 16 9 16 9Zm-19 15 15 8s10 3 18-2 0-11 0-11l-14-6s-11-5-16-1-7 9-3 12Zm-109 71s7 0 12-4 1-9 1-9l-10-7s-8-4-13 2-3 9-2 10l12 8ZM90 342a123 123 0 0 0 11 7s7 2 11-3a6 6 0 0 0 0-9l-9-6s-8-4-12 0-5 8-1 11Zm0 34 7 12 2 1 9-12-5-3s-9-4-13 2Zm12-48s7 1 11-3 1-8 1-8l-10-8s-7-3-12 2-2 8-1 10 11 7 11 7Zm1 24s-6-7-13 2c-5 6 1 8 1 8l11 7s6 3 11-1-1-11-1-10Zm258-235c6 4 12 1 12 1l17-10c7-5 4-9-4-12l-9 1c-4 2-8 7-16 10-7 6-3 8 0 10ZM127 356l-6 6a26 26 0 0 0-4 5l14-15a13 13 0 0 0-4 4Zm-32-58 8 7a10 10 0 0 0 11-2c5-4 1-10 1-10l-7-5s-4-6-11 2c-6 7-2 8-2 8Zm97-39a103 103 0 0 0 11 7 13 13 0 0 0 12-4c6-5 0-10 0-10l-9-5s-8-4-12 1-6 9-2 11Zm-52-48-10 13a14 14 0 0 0 7-5c5-5 3-8 3-8Zm-12 29c6-5 4-10 4-10l-4-3-10 14 1 2s4 2 9-3Zm-21 45s6 2 11-3 1-9 1-9l-7-5s-5-3-9 1a22 22 0 0 0-3 3l-2 4a4 4 0 0 0 1 3l8 6Zm16-24c4-4 2-7 2-7l-7-7a7 7 0 0 0-4 0l-8 13a65 65 0 0 0 7 5 13 13 0 0 0 10-4Zm229-51c7 6 19 0 19 0l19-9c4-2 3-7-4-11s-17 1-17 1l-11 6c-6 4-13 7-6 13Zm255 14-10 7s-4 4 1 9 12 4 12 4l12-8c1-2 3-4-2-10s-13-2-13-2Zm63-24c4 4 7 5 8 5l-11-13-1 1s-1 3 4 7Zm19 26-5 4s-1 5 4 10 9 2 9 2l4-5a1 1 0 0 0 1-1l-7-10c-5-3-6 0-6 0Zm-94-47-7 4s-4 4 2 10 12 4 12 4l9-6c3-3 0-6-4-10s-11-2-12-2Zm15 68-9 5s-5 5 0 10a13 13 0 0 0 13 4 104 104 0 0 0 11-7c3-2 2-7-2-11s-13-1-13-1Zm-9-47-8 5s-4 6 2 11 12 2 12 2l9-6s4-2-3-9c-8-9-12-3-12-3Zm78 19c6 6 10 5 10 5a31 31 0 0 0 2-3l-10-14-1 1-4 3s-2 3 3 8Zm35 112-10 6s-5 4 0 9 11 3 11 3a124 124 0 0 0 11-7c4-3 3-7-1-11s-11 0-11 0Zm-2-22-9 8s-4 4 0 8 11 3 11 3l11-7c1-1 4-4-1-10s-12-2-12-2Zm-4-21-7 5s-4 6 1 10a9 9 0 0 0 11 2l8-7s4-1-2-8c-7-8-11-2-11-2Zm-10-41-7 7s-2 3 2 7a13 13 0 0 0 10 4l8-6c0-1 2-4-3-9s-10-3-10-3Zm6 21-7 5s-3 3 2 9 10 3 10 3l8-6c2-3 1-6-4-10s-9-1-9-1ZM482 162l-14 6s-7 5 1 11 17 2 17 2l15-8c4-3 3-8-3-12s-16 1-16 1Zm-8-48-11 7s-6 6 1 10 16 1 16 1l12-8s6-2-2-9c-10-8-16-1-16-1Zm5 24-14 9s-6 5 1 9 16 2 16 2 15-7 16-9c1-1 4-5-2-10s-17-1-17-1Zm-18-29c6 4 14 2 14 2l12-7a5 5 0 0 0 2-2l-27-4-2 1s-6 5 0 10Zm-3 88-11-6s-9-5-17-1-8 10-4 11l19 8s12 6 19 1 1-9-6-13Zm-6-71-10-6s-8-5-14-1-7 9-4 10l17 8s11 6 17 1 0-8-6-12Zm-3-29-6-1a18 18 0 0 0 6 1Zm117 30c7 5 11 5 11 5l2-2-16-6a19 19 0 0 0 3 3Zm11 7-5 4s-3 5 4 10 11 4 11 4l6-6s3 0-4-8c-10-9-11-4-12-4Zm-151-26 17 10s7 3 12-1c3-2 7-4 0-10-8-4-12-9-17-11a405 405 0 0 0-8 0c-7 3-11 8-4 12Zm162 49-8 6s-3 3 3 8a19 19 0 0 0 12 4l9-5c1-1 1-4-4-10s-12-4-12-3Zm-86 28c-10-8-18-1-18-1l-13 8s-8 7 0 11 18 0 18 0l14-9s7-2-1-9Zm-14 24-17 11s-7 5 0 9 19 2 19 2 16-8 17-10c2-2 6-5-1-11s-18-1-18-1Zm200 97s7 7 10 3 0-8-4-12l-6-6s-6-6-9-4-4 8-2 10l11 9Zm-92-59c3-3-2-8-2-8l-15-14s-7-6-12-2 1 10 1 10l12 11c5 4 12 6 16 3Zm-25 11 15 12s6 4 10 1c3-2 6-4 0-10-10-8-14-18-22-16-6 3-9 7-3 13Zm43 34-5 5 17 9a8 8 0 0 0 2-1c1-2 4-5 0-11s-13-2-14-2Zm-20-12-8-7s-7-6-12-3-5 8-3 10l28 11c3-4-1-7-5-11Zm21 8 11-8s5-1-1-9c-7-9-13-2-13-2l-10 6s-5 6 1 11 12 2 12 2Zm-477 22c-5-4-10 2-10 2l-11 12s-5 5-2 8 9 1 13-3a114 114 0 0 0 10-11s4-5 0-8Zm453-89c4-4-1-8-6-12l-8-7s-7-6-12-4-4 8-1 10l14 11s9 7 13 2Zm-9-43c3-3-3-8-3-8l-15-14s-8-6-12-3 2 9 2 9l14 12c6 5 12 7 14 4Zm-75 56c-6-5-18 1-18 1l-15 7s-8 6-1 11 19 2 19 2l16-9c5-3 5-8-1-12Zm1 25c-10-9-19 0-19 0l23 4a12 12 0 0 0-4-4Zm65-106c3-4-2-7-7-12l-9-7s-7-6-10-4-3 7 0 9l14 11s10 7 12 3Zm-8-20c2-1 3-3-3-9l-4-3-22-7a17 17 0 0 0 5 5l16 13s6 4 8 1Zm116 132c5 4 10 6 12 3s-3-8-3-8l-12-12s-6-6-9-3 2 8 2 8l10 12Zm19 79c-8-7-11-16-17-14s-8 6-4 12a151 151 0 0 0 11 11 7 7 0 0 0 9 1c2-2 5-4 1-10Zm14 51a82 82 0 0 1 4 8l4-7c-2-2-5-2-8-1Zm-25-39a12 12 0 0 0-5-4 214 214 0 0 1 15 19c2-3-1-6-4-9l-6-6Zm24-4-9 5s-6 6-1 11 11 1 11 1l12-7s5-2 0-9c-7-8-13-1-13-1Zm-25-23c4 4 9 6 13 3s-2-8-2-8l-11-12s-5-6-9-2-1 8-1 8a115 115 0 0 0 10 11Zm-29-144a2 2 0 0 0 0-1 267 267 0 0 0-24-20 11 11 0 0 0 4 6l12 11s8 7 8 4Zm54 189-8 5 8 13 12-7c1-1 5-4 1-9s-13-2-13-2Zm-52-172c5 4 9 6 10 4s-4-7-4-7l-13-13s-6-6-8-4 3 8 3 8l12 12Zm18 24c1-1 2-3-3-9-9-7-14-16-19-15-3 1-3 4 2 10l13 13s5 3 7 1Zm7 19c2-4-2-7-6-12l-7-6s-6-6-9-4-1 6 1 9l11 10s8 7 10 3Zm2 43s4 4 8 1c2-2 4-3-1-9-9-8-13-17-18-15s-6 6-1 11l12 12Zm-222-36c-15-7-19-17-31-13-10 4-15 9-6 14l42 3-5-4Zm120-52c3-1 5-3-1-9-11-9-16-18-23-16-6 2-8 6-1 12l16 12s6 4 9 1Zm-382 69s-6-7-13 2c-6 8-1 9-1 9l11 8s6 3 12-2 1-11 1-11Zm-15 25c-5 6-2 9-1 11a19 19 0 0 0 4 2l17-9-7-6s-9-3-13 2Zm62-96c-5-2-12 4-12 4l-8 7c-5 4-10 8-6 12s13-2 13-2l14-11c3-2 3-7-1-10Zm-9 47c-8-2-12 8-22 16-6 6-3 8 0 10 5 3 10-1 10-1l15-12c7-6 3-10-3-13Zm-80-59-7 7-10 12a2 2 0 0 0 0 1c1 2 5 0 10-4l12-12s5-5 3-8-8 4-8 4Zm87 37c-5-4-12 2-12 2l-15 14s-5 5-2 8 10 2 16-3l13-11s5-6 0-10Zm-7 47c-5-3-12 3-12 3l-7 7c-5 4-9 8-5 12a6 6 0 0 0 1 1l22-10 4-3c3-2 2-7-3-10Zm-83-68c-4-1-10 8-19 15-5 6-4 8-3 9 2 2 7-1 7-1l13-13c6-6 5-9 2-10Zm-22 85c-3-2-9 4-9 4l-6 6c-4 4-8 8-4 12s10-3 10-3l11-9c2-2 2-7-2-10Zm2-22c-5-2-9 7-17 15-6 6-3 7-2 9 4 3 8-1 8-1l12-12c5-6 4-9-1-11Zm-1-17-12 12s-5 5-3 8 7 1 12-3l11-12s4-5 1-8-9 3-9 3Zm5-21-7 6c-4 5-8 8-6 12s10-3 10-3l11-10c2-2 3-7 1-9s-9 4-9 4Zm284-49 21 11s7 3 14-1c3-2 8-5 0-11-14-6-18-16-30-12-9 4-13 9-5 13Zm-36-34c-8-5-16 0-16 0l-19 11s-7 5-2 9 14 3 21-1a159 159 0 0 0 16-10s7-4 0-9Zm-137 31c-7-2-12 7-23 16-6 6-3 8-1 9 4 3 9-1 9-1l16-12c7-5 5-10-1-12Zm128 64c-13-4-17 6-32 13-3 1-4 3-4 4 13-2 27-3 41-3 9-5 4-10-5-14Zm7-22c-8-6-18 0-18 0l-20 11s-8 5-2 9 15 4 23 0a187 187 0 0 0 18-10s7-5-1-10Zm36-64a158 158 0 0 0 16 10c8 4 16 4 21 1s-2-9-2-9l-18-11s-9-5-16 0-1 9-1 9Zm2 74a187 187 0 0 0 17 10c8 4 18 4 23 0s-2-9-2-9l-20-11s-9-6-18 0-1 10 0 10Zm-43-62c-11-4-16 6-30 12-8 6-3 9 0 11 7 4 15 1 14 1l21-11c9-5 4-9-5-13Zm-114-35c-4-2-11 4-11 4l-9 7c-5 5-10 9-7 12s12-3 12-3l14-11c3-2 4-7 1-9Zm-6 23c-4-3-11 3-11 3l-16 14s-6 5-3 8 9 1 15-4l13-12s6-5 2-9Zm78 89-15-7s-12-6-18-1-7 9-1 12l16 9s11 3 19-2-1-11-1-11Zm-34 17a11 11 0 0 0-4 5l24-5h-1s-9-9-19 0Zm-57-126c3 3 8-1 8-1l16-13a28 28 0 0 0 3-2l-26 10c-4 4-2 5-1 6Z" data-name="Forma 3261 copia 14" style="fill:#00857a"/></g><path id="Forma_3255_copia" d="M716 386c-111-204-517-204-629 0 0 0-12 19-2 31s11 26 11 37-8 132 9 215c0 0 22 24 31 0s27-118 25-190 10-98 72-126a412 412 0 0 1 338 0c61 28 73 53 71 126s16 167 25 190 32 0 32 0c17-83 9-203 8-215s1-24 11-37-2-31-2-31Z" class="cls-5" data-name="Forma 3255 copia"/><g style="opacity:.55"><path id="Forma_3261_copia_6" d="M128 494s7 2 12-2 0-9 0-9l-12-10s-8-6-12 0-1 9 0 10l12 11Zm25-38-6 6c-4 4-8 7-4 13s12-1 12-1l6-5v-15c-4-2-8 2-8 2Zm-25 111s7 2 12-2 0-9 0-9l-12-10s-8-6-12 0-1 9 0 10l12 11Zm11-62-10-8s-8-5-12-1-4 8-1 12 12 9 12 9 7 3 11-2 0-10 0-10Zm0-72-10-8s-8-5-12-1-4 8-1 12 12 9 12 9 7 3 11-2 0-10 0-10Zm-10 88s-5-9-12 0c-5 6 0 9 0 9l10 10s7 4 12 0 0-12 0-12Zm0-72s-5-9-12 0c-5 6 0 9 0 9l10 10s7 4 12 0 0-12 0-12Zm-1-27s7 2 12-2 0-9 0-9l-12-11s-8-5-12 0-1 9 0 11l12 11Zm15 20c-4 6-1 8 1 11a7 7 0 0 0 9 1s4-4 9-8l1-15a19 19 0 0 0-2-1c-7-4-9 5-18 12Zm18-85c-7-4-9 5-18 12-4 5-1 8 1 11a7 7 0 0 0 9 0 143 143 0 0 0 12-10c4-6 2-10-4-13Zm-33 15s7 3 11-2 0-10 0-10l-10-8s-8-5-12-1-4 8-1 12 12 9 12 9Zm1 4s-5-9-12 0c-5 6 0 9 0 9l10 10s6 4 12 0 0-12 0-12Zm34 6c-4-4-10 1-10 1l-6 6c-4 4-8 7-4 13s12-1 12-1l11-9c2-2 1-7-3-10Zm-24 196-10-7s-8-6-12-2-4 8-1 12 12 9 12 9 7 4 11-1 0-11 0-11Zm4 42a6 6 0 0 0 5 2l3-19-4 4c-4 4-8 7-4 13Zm10-92-6 6c-4 4-8 7-4 13s12-1 12-1l4-3 1-18c-3 0-7 3-7 3Zm-10 59c-4 6-1 8 1 11a7 7 0 0 0 8 1l3-24c-3 2-6 8-12 12Zm0-22s-4 4-1 8 9 4 14 0l2-22a11 11 0 0 0-3 2Zm18-87c-3-1-6 2-6 2l-12 11s-4 5-1 9 9 3 14 0a66 66 0 0 0 5-6v-16Zm-18 36c-4 6-1 8 1 11a7 7 0 0 0 9 1s4-4 8-7v-17c-7-4-9 5-18 12Zm-14 80s-5-8-12 0c-5 6 0 9 0 9l10 10s7 4 12 0 0-12 0-12Zm26-266 11-9c2-2 1-7-3-11s-10 2-10 2l-6 6c-4 4-8 7-4 12s12 0 12 0Zm-27 312s7 2 12-2 0-8 0-8l-12-11s-8-6-12 0-1 9 0 11l12 10Zm14 6 1 1 2-11-2 2s-4 5-1 8Zm-25 21c-5 7 0 9 0 9l3 3c5 2 11 1 15-7l-6-5s-5-8-12 0Zm12-23s-8-6-12-2-4 8-1 12 12 9 12 9 6 3 11-1l2-7a10 10 0 0 0-2-4Zm11-297c4-4 0-9 0-9l-10-9-11 12 9 7s7 3 12-1Zm535-16-8-7a8 8 0 0 0 2 4 6 6 0 0 0 5 3Zm-20 45s-6-9-12 0c-5 6 0 9 0 9l10 9s6 5 12 0 0-11 0-11Zm-12-64 10 9s6 5 12 0a282 282 0 0 0-23-18c-4 6 1 9 1 9Zm25 43c4 4 9 3 14-1a77 77 0 0 0 7-7l-9-11-11 10s-4 5-1 9Zm-80-82 1-1-14-6c-1 2-1 4 2 7 4 6 11 0 11 0Zm66 75s7 3 12-1 0-9 0-9l-12-11s-8-5-12 0-1 9 0 11l12 10Zm33 82c-7-4-9 5-18 12-4 6-1 8 1 11a7 7 0 0 0 9 1 143 143 0 0 0 11-11c5-5 3-10-3-13ZM201 320s-6-8-12 0c-5 7 0 10 0 10l10 9s6 5 11 0 0-11 0-11Zm371-54a7 7 0 0 0 1-1l-23-8 11 9s6 4 11 0Zm119 142c-5-5-10 0-10 0l-12 11s-4 5-1 9 9 3 14 0a94 94 0 0 0 10-11s4-5-1-9Zm-22-39c-4 5-1 8 1 11a7 7 0 0 0 9 0 143 143 0 0 0 11-10c5-6 3-10-3-13-7-4-9 5-18 12Zm-5-9-9-8s-8-5-12-1-4 8-1 12 12 9 12 9 7 3 11-2 0-10 0-10Zm17 41 11-9c3-2 1-7-3-11s-10 2-10 2l-6 6c-4 4-8 7-4 13s12-1 12-1Zm8 54c-4-4-10 1-10 1l-6 6c-4 4-8 7-4 13s12-1 12-1l11-8c3-1 1-8-3-11ZM284 275s-9-6-12-2-5 9-1 12l11 9s7 4 12-1-1-11-1-11Zm-1-4s7 2 11-2 0-8 0-8l-11-11a18 18 0 0 0-3-2l-10 3c-3 5-1 8 1 10l12 10Zm-56 2 10-9a4 4 0 0 0 2-2l-25 10a14 14 0 0 0 1 1c5 6 12 0 12 0Zm83-22 10-9a4 4 0 0 0 2-3l-25 5c-1 2-1 4 1 7 5 6 12 0 12 0Zm-110 66s6 3 11-2-1-10-1-10l-9-8s-9-5-12-2-4 9-1 12l12 10Zm11-25c5-4 0-9 0-9l-6-6-15 8 10 8s7 3 11-1Zm160-58h-6a9 9 0 0 0 6 0Zm18 5 8-6h-21c-1 2 0 4 2 7 4 5 11-1 11-1Zm75 5a6 6 0 0 0 2-7l-23-2 10 9s6 4 11 0Zm17 7 10-9a3 3 0 0 0 1-1l-19-3-1 1c-3 4-7 7-3 12s12 0 12 0Zm-119 9s7 2 12-2 0-9 0-9l-12-10s-8-6-12 0-1 9 0 10l12 11Zm1 3s-8-5-12-1-4 8 0 12l11 9s7 3 11-2 0-10 0-10Zm303 302c4-4 0-9 0-9l-12-10s-5-4-9-2l1 17 8 6s7 2 12-2Zm-12-71s7 2 12-2 0-9 0-9l-12-10s-8-5-12-1v12l12 10Zm-11-36 10 10s6 4 11 0 1-12 1-12l-10-7s-6-9-12 0a15 15 0 0 0-1 1v7a5 5 0 0 0 1 1Zm11-13s7 3 11-2-1-10-1-10l-9-8s-8-5-12-1a11 11 0 0 0-3 5v4a8 8 0 0 0 2 3l12 9Zm0-23s7 2 12-2 0-9 0-9l-12-11s-8-5-12 0-1 9 0 11l12 11Zm11 93c5-5-1-10-1-10l-9-8s-9-5-12-1l-1 1v11l12 9s7 3 11-2Zm22-13c-7-4-9 5-18 12-5 6-2 8 1 11a7 7 0 0 0 9 1 144 144 0 0 0 11-11c5-5 3-10-3-13ZM577 324a7 7 0 0 0 9 1 142 142 0 0 0 12-11c5-5 2-9-3-13-8-3-10 6-18 13-5 5-2 8 0 10Zm-422 84-12 11s-4 5-1 9 9 3 14 0a94 94 0 0 0 10-11l1-4a7 7 0 0 0-2-5c-5-5-10 0-10 0Zm408-88s-6-8-13 0c-5 7 0 10 0 10l11 9s6 5 11 0 0-11 0-11Zm-13 24 18 7-6-6s-7-4-12-1Zm139 183c-4-4-10 1-10 1l-6 6c-4 4-8 7-4 13s12-1 12-1l11-8c3-1 1-8-3-11Zm-90-190c2-2 2-7-3-11s-10 2-10 2l-6 6c-4 4-8 7-3 12s11 0 11 0l11-9Zm-11 16-5 5 13 8 3-4s4-5-1-10-10 1-10 1Zm0-73-11 11s-5 5-1 9 9 3 13-1a95 95 0 0 0 10-10s4-5-1-10-10 1-10 1Zm76 260c6-5 0-12 0-12l-9-7s-6-8-12 0v10l10 9s6 4 12 0Zm25 133c-4-4-10 2-10 2l-4 4c5 2 11-1 16-4a12 12 0 0 0-2-2Zm-8-47-12 12s-4 5-1 8 9 4 14 0a94 94 0 0 0 10-10s4-5-1-10-10 0-10 0Zm0-73-12 12s-4 4-1 8 9 4 14 0a94 94 0 0 0 10-11s4-5-1-9-10 0-10 0Zm0-73-12 12s-4 4-1 8 9 4 14 0a94 94 0 0 0 10-11s4-5-1-9-10 0-10 0Zm-16 171-4-3a234 234 0 0 0 4 14c5-5 0-11 0-11Zm22-3c-7-4-9 6-18 13-4 5-1 8 1 10a7 7 0 0 0 9 1 143 143 0 0 0 11-11c5-5 3-10-3-13Zm-21-18-11-11 4 22a10 10 0 0 0 7-3c4-4 0-8 0-8Zm21-55c-7-4-9 6-18 12-4 6-1 9 1 11a7 7 0 0 0 9 1 144 144 0 0 0 11-11c5-5 3-10-3-13Zm-22 13c5-5-1-10-1-10l-9-7s-4-3-8-3l2 19 5 3s7 4 11-2Zm-1 25c6-4 0-12 0-12l-9-7s-2-3-5-4l4 23c1 1 6 3 11 0Zm25-13c-4-4-10 1-10 1l-6 6c-4 4-8 7-4 13s12-1 12-1l11-8c3-2 1-7-3-11ZM561 317s7 3 11-2 0-10 0-10l-10-8s-8-5-12-2-4 9 0 12l11 10Zm-251-59-12 11s-4 5-1 9 9 3 14-1a94 94 0 0 0 9-10s4-5 0-10-10 1-10 1Zm-26 40s-6-8-12 0c-6 7 0 9 0 9l10 10s6 4 11 0 0-11 0-11Zm-57-18-12 11s-4 5-1 9 9 3 14-1a94 94 0 0 0 9-10s5-5 0-10-10 1-10 1Zm89-1c-7-4-9 6-18 13-5 5-2 8 1 10a7 7 0 0 0 8 1 143 143 0 0 0 12-11c5-5 3-10-3-13Zm-83 22c-7-4-9 6-18 13-5 5-2 8 1 10a7 7 0 0 0 8 1 144 144 0 0 0 12-11c5-5 3-9-3-13Zm85 3c-5-4-10 2-10 2l-7 6c-3 4-7 7-3 12s12 0 12 0l10-9c2-2 2-7-2-11Zm-47 19c-5 5-2 9 0 11a21 21 0 0 0 3 3l18-6-9-8s-8-5-12 0Zm-82 46c-4 3-4 8-1 11a107 107 0 0 1 13-10c-1 0-9-5-12-1Zm373-76s7 3 11-1 0-9 0-9l-11-11s-9-5-13 0-1 9 0 11l13 10Zm-407 42-12 11s-4 5-1 9 9 3 14-1a94 94 0 0 0 10-10s4-5-1-10-10 1-10 1Zm45 10s-8-5-12 0-1 9 0 11l12 10a16 16 0 0 0 5 1l8-4c1-4-2-7-2-7Zm27 8-6 5 12-5 3-2c-5-3-9 2-9 2Zm8-27c-5-3-10 2-10 2l-6 6c-4 4-8 7-4 12s12 0 12 0l10-9c2-2 2-7-2-11Zm220-28s-6-8-12 0c-6 7 0 9 0 9l10 10s6 4 11 0 0-11 0-11Zm-1-4s6 4 11-1-1-11-1-11l-9-7s-9-6-12-2-4 9-1 12l12 9Zm35 10c-5-4-10 2-10 2l-7 6c-3 3-6 6-4 11l12 1h1l10-9c2-2 2-7-2-11Zm-2-25c-7-4-9 6-18 13-5 5-2 8 1 10a7 7 0 0 0 8 1 141 141 0 0 0 12-11c5-5 3-10-3-13Zm-6-21-12 11s-4 5-1 9 9 3 14-1a95 95 0 0 0 9-10s4-5 0-10-10 1-10 1Zm-27 13s7 2 11-2 0-8 0-8l-11-11s-8-5-12 0-2 9 0 11l12 10Zm-57 22c-4-4-10 1-10 1l-6 6c-4 4-8 7-3 13s11-1 11-1l11-8c2-1 1-8-3-11Zm-6 25 7-1a7 7 0 0 0-7 1Zm-27-31s-6-9-13 0c-5 6 0 9 0 9l10 10s7 4 12 0 0-12 0-12Zm31-19c-7-4-9 5-17 12-5 6-2 8 0 11a7 7 0 0 0 9 1 144 144 0 0 0 12-11c5-5 2-10-4-13Zm-6-22-11 11s-5 5-1 9 9 3 13 0a94 94 0 0 0 10-11s4-5-1-9-10 0-10 0Zm-39 66c-3 4-2 7-1 9l21-2-8-7s-8-6-12 0Z" data-name="Forma 3261 copia 6" style="fill:#00c2b7"/></g><g style="opacity:.82"><path id="Forma_3255_copia_4" d="M224 351c-62 28-74 53-72 126s-15 167-25 191c-2 6-6 9-10 10 7 3 14 3 19-9 10-23 27-118 25-190s10-98 72-126c57-27 113-35 169-36a502 502 0 0 1 79 8 412 412 0 0 0-258 26Zm492 35c-43-79-130-128-228-145 94 19 177 66 219 143 0 0 12 19 2 31s-11 26-11 38 9 131-8 214c0 0-9 9-17 11 10 7 26-9 26-9 17-83 9-203 8-215s1-24 11-37-2-31-2-31Z" data-name="Forma 3255 copia 4" style="fill:#00b0a4"/></g><g style="opacity:.62"><path id="Forma_3255_copia_3" d="M87 386s-12 19-2 31 11 26 11 37-8 132 9 215c0 0 12 13 22 10a45 45 0 0 1-12-9c-17-83-9-203-9-214s0-25-11-37 2-32 2-32c67-122 240-171 392-146-154-29-333 20-402 145Zm590 285c-9-23-27-118-25-191s-10-97-71-126a369 369 0 0 0-98-29 366 366 0 0 1 88 28c61 28 73 53 71 126s16 167 25 190c4 10 10 12 16 10a19 19 0 0 1-6-8Z" data-name="Forma 3255 copia 3" style="fill:#58f4eb"/></g><g id="Forma_3282_copia_3" class="cls-16" data-name="Forma 3282 copia 3"><path d="m477 200-1-7-12-9-2-3 10-1 1-6-7-7-20 4a207 207 0 0 0-22-13h-1l22-7a184 184 0 0 1 21 14c5-1 6-1 4-8l-13-9v-1l12-2-2-8-7-4-11 3-4-11-5-3-8 1 4 17-22 8-2-18c6-3 11-5 17-6l-1-7c-8-3-10-1-17 2l-2-11-6-3-4 1-1 13-13-4-4 2c-6 8 9 11 17 13l1 18-24-7 2-16-7-3-6 4-2 11-14-3-6 4-2 7a500 500 0 0 0 13 3l-14 10-2 6 7 1 22-14 25 6-24 13a214 214 0 0 0-25-2l-4 4c-7 9 1 9 9 8l1 2-17 12-1 7h7c6-2 14-9 19-12v11l7 2 10-4v-20a269 269 0 0 1 25-12l1 20-23 12v8l6 1c5 0 11-4 16-6 3 10-3 15 7 19l7-2 3-16 14 7 6-2c2-2 2-4 2-8l-22-12v-20a204 204 0 0 1 23 11c6 10-2 19 9 26l6-1c2-3 2-8 1-13l17 11 6-1Z" class="cls-3"/></g><g id="Forma_3282_copia" class="cls-16" data-name="Forma 3282 copia"><path d="m308 158 1-8-6-3-15 6 1-10-4-2-8 3a142 142 0 0 0-3 15 194 194 0 0 0-19 11 159 159 0 0 1 3-17l16-8a16 16 0 0 0 3-7c-7 0-9 2-17 6a56 56 0 0 1 4-8l-4-1-4 2-5 9-9 1-3 2c-6 7 4 6 8 7a163 163 0 0 0-3 16 85 85 0 0 0-13-3l3-13-4-1-4 4-2 8-8 1-4 3-1 5a61 61 0 0 1 7 0v1l-8 7v4l3 1 12-11a94 94 0 0 1 13 3v1l-14 13a103 103 0 0 0-12-4l-3 2c-3 6 1 9 4 9l1 2-8 8-1 7 2 1c2 1 7-6 9-8l-1 13 3 2 6-4 2-20 16-12-1 19-16 13-1 8 4 2c3 0 8-5 11-8 2 9-3 15 6 17l6-3 1-15 12 4 5-3 1-8-18-8 1-20 17 7c5 9-2 19 9 24l5-2v-13l17 6 6-2v-7l-13-6-2-2 11-3 2-7-7-4a161 161 0 0 0-21 7l-16-8h-2a184 184 0 0 1 20-11l20 9c5-1 7-2 7-8l-13-6v-1l15-4Z" class="cls-3"/></g><g id="Forma_3282_copia_2" class="cls-16" data-name="Forma 3282 copia 2"><path d="m640 223-8-8 1-2c3 0 6-2 3-8l-2-2a100 100 0 0 0-12 3l-15-13a95 95 0 0 1 14-4l12 11 3-1v-4l-8-7v-1a59 59 0 0 1 7 0l-1-4-4-4h-8l-2-9-5-4-3 1 3 13a86 86 0 0 0-14 3 161 161 0 0 0-3-16c5-1 15 0 9-7l-3-2h-9c-1-4-3-7-5-9l-4-2h-4a56 56 0 0 1 3 8c-7-4-10-6-16-5a16 16 0 0 0 3 6l16 8a156 156 0 0 1 3 18 192 192 0 0 0-19-12 140 140 0 0 0-3-15l-8-3-4 2 1 10-15-5-6 3 1 7 15 5-13 6c0 7 2 7 7 9l19-10a185 185 0 0 1 20 11h-1l-17 9a159 159 0 0 0-20-8l-7 4 1 7 12 3-2 2-13 6v7l6 3 16-7 1 13 5 2c10-4 4-14 8-23l18-8v21l-17 8c-1 3-1 5 1 7l4 3 13-4 1 15 6 4c8-3 3-8 6-17 3 2 8 7 11 7l3-1-1-8-15-13-1-20 15 12 3 20 6 5 3-3-2-13c3 3 7 9 10 9l2-2-1-7Z" class="cls-3"/></g><path id="Forma_3264-2" d="M197 696c-2-12-10-9-10-9s8-6 2-17-16-7-16-7 6-5 0-14-16-4-16-4 3-15-16-11c0 0 0-16-19-7 0 0-6-9-17-8s-14 11-14 11-15-10-18 5c0 0-17-2-16 14 0 0-22-2-13 20 0 0-17 5-7 17 0 0-13 12 2 19 0 0-4 7 0 15a11 11 0 0 0 12 6s-2 19 17 13c0 0 6 20 23 9 0 0-1 7 7 8a10 10 0 0 0 11-5s4 11 15 9 11-8 11-8 9 7 18 3 5-9 5-9 18 7 17-10c0 0 28 4 16-26 0 0 8-2 6-14Z" class="cls-1" data-name="Forma 3264"/><path id="Forma_3264_copia_2-2" d="M77 750c2 1 8 2 14-2a35 35 0 0 1 0-3l-14 5Zm106-81c7 11-2 18-2 18a8 8 0 0 1 6 0c1-1 8-7 2-17-5-8-11-8-14-7 3 0 6 2 8 6ZM56 739c2 1 9 2 12 0a20 20 0 0 1 0-2l-12 2Zm112-90c6 9-1 14-1 14a12 12 0 0 1 7-1c1-2 4-6-1-13-3-6-8-6-12-5a10 10 0 0 1 7 5Zm-16-2a32 32 0 0 1 5-2c1-5-1-13-13-11 10 1 8 13 8 13Zm-33 111a13 13 0 0 1-4 1 12 12 0 0 0 9 1c7-2 11-5 12-8a36 36 0 0 1-3-6s-3 10-14 13Zm78-62c-2-11-9-9-10-9 2 1 4 4 5 8 2 12-6 14-6 14 11 30-16 26-16 26 0 10-6 11-11 11 3 1 17 5 16-10 0 0 28 4 16-26 0 0 8-2 6-14Zm-44 48s4 7-5 10a15 15 0 0 1-8 1 17 17 0 0 0 13 0c8-3 6-8 6-9a23 23 0 0 1-6-2Zm-31-117c-2-3-8-9-17-8a19 19 0 0 0-2 0c9 1 14 10 14 10a16 16 0 0 1 5-2ZM95 755a13 13 0 0 0 3 1c6 2 10-3 11-4l-2-4s-5 8-12 7Zm34-130c8 0 8 10 8 10a12 12 0 0 1 4-1c0-2-1-12-12-9Z" class="cls-2" data-name="Forma 3264 copia 2"/><path id="Forma_3264_copia_3-2" d="M44 708a15 15 0 0 1-5-3c-1 3-4 9 0 15a11 11 0 0 0 6 5 14 14 0 0 1-2-2c-4-7 1-15 1-15Zm35 12c-1-8 4-10 4-10s-5-6 3-17c0 0-14 5-10 16 0 0-8 6-3 14a11 11 0 0 0 11 5s-1 8 8 9a70 70 0 0 1-4-11s-9 1-9-6Zm22-68c-21 1-12 15-12 15-13 14 1 20 1 20-7-14 3-18 3-18-2-9 3-14 15-14-4-15 11-18 11-18-22 2-18 15-18 15Zm21-25s-6-9-17-8-13 11-13 11-15-10-19 5c0 0-17-2-16 14 0 0-22-2-13 20 0 0-17 4-7 17 0 0-12 11 1 18-4-6 4-14 4-14-11-12 6-16 6-16-9-21 13-19 13-19-2-16 15-13 15-13 3-15 18-5 18-5s2-10 13-11 16 8 16 8c1-3-1-6-1-7Z" class="cls-3" data-name="Forma 3264 copia 3"/><path id="Forma_3264-3" d="M768 696c-2-12-11-9-11-9s9-6 2-17-16-7-16-7 7-5 1-14-17-4-17-4 3-15-15-11c0 0 0-16-20-7 0 0-6-9-17-8s-13 11-13 11-15-10-19 5c0 0-17-2-16 14 0 0-22-2-13 20 0 0-17 5-6 17 0 0-14 12 2 19 0 0-5 7-1 15a11 11 0 0 0 13 6s-3 19 17 13c0 0 5 20 22 9 0 0-1 7 7 8a10 10 0 0 0 11-5s4 11 15 9 11-8 11-8 9 7 18 3 6-9 6-9 17 7 17-10c0 0 27 4 15-26 0 0 9-2 7-14Z" class="cls-1" data-name="Forma 3264"/><path id="Forma_3264_copia_2-3" d="M722 647a32 32 0 0 1 6-2c0-5-1-13-14-11 10 1 8 13 8 13Zm-96 92c3 1 9 2 13 0a20 20 0 0 1-1-2l-12 2Zm112-90c6 9 0 14 0 14a12 12 0 0 1 6-1c1-2 4-6 0-13-4-6-9-6-13-5a10 10 0 0 1 7 5Zm16 20c6 11-2 18-2 18a8 8 0 0 1 5 0c1-1 8-7 2-17-5-8-10-8-14-7 3 0 6 2 9 6Zm-107 81c3 1 8 2 14-2a33 33 0 0 1 0-3c-4 2-11 5-14 5Zm121-54c-2-11-9-9-11-9 2 1 4 4 5 8 2 12-6 14-6 14 12 30-15 26-15 26 0 10-7 11-12 11 3 1 17 5 17-10 0 0 27 4 15-26 0 0 9-2 7-14Zm-44 48s3 7-6 10a15 15 0 0 1-7 1 17 17 0 0 0 12 0c9-3 6-8 6-9a23 23 0 0 1-5-2Zm-25-119c8 0 8 10 8 10a12 12 0 0 1 5-1c0-2-2-12-13-9Zm-34 130a13 13 0 0 0 3 1c6 2 10-3 12-4l-2-4s-6 8-13 7Zm27-128c-2-3-8-9-17-8a19 19 0 0 0-2 0c10 1 15 10 15 10a16 16 0 0 1 4-2Zm-2 132a13 13 0 0 1-4 0 12 12 0 0 0 8 1c8-2 11-5 12-8a36 36 0 0 1-2-6s-4 10-14 13Z" class="cls-2" data-name="Forma 3264 copia 2"/><path id="Forma_3264_copia_3-3" d="M651 660a2 2 0 0 0-1 0Zm-17 5a7 7 0 0 0 0 6c-11 2-12 7-11 11a11 11 0 0 0 2 6c-2 10-1 14 1 17s6 4 6 4c-5-7-6-11-5-15l2-5c-4-8-1-15 13-16-4-6-1-10 2-12a11 11 0 0 1 6-1c-9-1-14 2-16 5Zm-20 43a15 15 0 0 1-5-3c-1 3-3 9 0 15a11 11 0 0 0 6 5 14 14 0 0 1-1-2c-5-7 0-15 0-15Zm63-82c11-1 16 8 16 8 1-3-1-6-1-7 0 0-6-9-17-8s-13 11-13 11-15-10-19 5c0 0-17-2-16 14 0 0-22-2-13 20 0 0-17 5-6 17 0 0-13 11 0 18-4-6 4-14 4-14-10-12 6-16 6-16-8-21 13-19 13-19-1-16 15-13 15-13 4-15 18-5 18-5s2-10 13-11Zm8 25s-8-5-14 4a11 11 0 0 0 0 12s-7 2-4 11a70 70 0 0 1 9-8s-5-8 1-11 10-1 10-1 4-8 17-5c0 0-11-10-19-2Z" class="cls-3" data-name="Forma 3264 copia 3"/></svg>