<svg id="Assets" xmlns="http://www.w3.org/2000/svg" viewBox="0 0 800 800"><defs><style>.cls-1{fill:#450a83;}.cls-2{fill:#501092;}.cls-3{fill:#31016b;}.cls-4{fill:#33026b;}.cls-5{fill:#7234b0;}.cls-6{fill:#5e1aa2;}.cls-7{fill:none;}.cls-8{fill:#fff;}.cls-9{fill:#a273d2;}</style></defs><g id="Elipse_2374" data-name="Elipse 2374"><path class="cls-1" d="M659.58,291.67c-2.79-20.21-4-47.07-10.37-74-7.09-28.39-19.92-56.83-55.28-78.19-34.68-21.12-84.27-31.94-123.42-36-53.39-5.28-67.38-5-70.46-4.54-.35.45-1.54.21,0,0a.42.42,0,0,0,.06-.43c0-.07-27.5.52-66.22,5.82-38.23,5.41-87.69,15.53-120.18,36.8-32.94,21.52-46.78,48.71-55.69,76.11-8.32,26.64-12,53.48-15.86,74.87-5.13,4.39-7.85,9-7.85,13.72,0,31.34,119.46,56.75,266.82,56.75S668,337.17,668,305.83C668,300.94,665,296.2,659.58,291.67Z"/></g><g id="Elipse_2374-2" data-name="Elipse 2374"><path class="cls-2" d="M406.06,83.42c-15,0-27.14,5.92-27.14,13.22s12.15,13.22,27.14,13.22,27.14-5.92,27.14-13.22S421.05,83.42,406.06,83.42Z"/></g><g id="Elipse_2374_copia_2" data-name="Elipse 2374 copia 2"><path class="cls-3" d="M406.06,91.53c-15,0-27.14,4.1-27.14,9.16s12.15,9.17,27.14,9.17,27.14-4.11,27.14-9.17S421.05,91.53,406.06,91.53Z"/></g><g id="Forma_2237" data-name="Forma 2237"><path class="cls-4" d="M617.19,164.14c-5.84-6.11-17.4-14.72-24.72-19.09a58.69,58.69,0,0,0-18-7.19c13.8,6.27,31.59,23.45,46.59,50.86s27.22,60.94,29.88,100.9C650.84,287.19,663.75,231.5,617.19,164.14Z"/></g><g id="Forma_2235" data-name="Forma 2235"><path class="cls-5" d="M198.85,173.31C184.78,190.51,176,210,170.28,227.59a226.46,226.46,0,0,0-9.34,43.85,110.8,110.8,0,0,0-.82,17.27c-9.34,3-17.62,12.8-17.58,12.76,6-6.83,30.3-7.17,30.25-7.14-1.57-20.56,2.06-44.66,9.21-65.82a183.94,183.94,0,0,1,28.82-54.11A220.52,220.52,0,0,1,243,141.17c9.08-7.7,15.53-12.5,15.43-12.35C231.84,141.25,212.8,156.12,198.85,173.31Z"/></g><g id="Forma_2214_copia" data-name="Forma 2214 copia"><path class="cls-6" d="M598.67,302.46c-8.2-116.25-47.78-146.17-47.78-146.17-63.51-55.56-91.29-55.89-143.07-59.12C360,100,310.56,103.49,251.66,156.29c0,0-41.11,29.91-55.26,146.17,0,0-8.66,18.93,29.68,10.47,38-8.41,148.33-17.22,163.61-16.63a26.54,26.54,0,0,0,8-.61,26.15,26.15,0,0,0,8,.61c15.31-.59,125.15,8.22,162.77,16.63C606.36,321.39,598.67,302.46,598.67,302.46Z"/></g><g id="Elipse_2373_Trazado_de_recorte" data-name="Elipse 2373 Trazado de recorte"><ellipse class="cls-7" cx="400.95" cy="313.76" rx="257.48" ry="65.38"/></g><g id="Forma_2215" data-name="Forma 2215"><path class="cls-5" d="M461.53,138S479.71,252.86,474,268.83c0,0-76.75,1.8-95.79,4.46,0,0,156.24,2.45,196.64,11.07,0,0-31.69-9.31-45.88-11C528.93,273.33,516.85,176.47,461.53,138ZM589.64,283.64A42.33,42.33,0,0,0,577.29,285c5.16.52,18.12,2.8,18.12,2.8C592.59,214,558,167.68,535,144.85q-2.6-1.86-5.28-3.63C582.19,195.23,590.76,284.73,589.64,283.64Z"/></g><g id="Forma_2364_copia" data-name="Forma 2364 copia"><path class="cls-8" d="M413.83,142.85,370,176l2-39.54L345.42,142l-6.8,104.81,30.84-.2.8-40.64,16.45-13.08,19.79,52.94,27.61.32L406.68,177l30.37-27.8Zm73.74-8.49-45.27-5.27,41.82,97.78Zm3.94,100.92-17.81.37L469,250.37l16.88,10.22,15.6-8.63Z"/></g><g id="Forma_2215_copia_2" data-name="Forma 2215 copia 2"><path class="cls-9" d="M222.48,283.64c-1.12,1.09,7.45-88.41,60-142.42-1.79,1.18-3.56,2.39-5.29,3.63-23,22.83-57.61,69.12-60.43,143,0,0,12.95-2.28,18.11-2.8A42.27,42.27,0,0,0,222.48,283.64Z"/></g><g id="Forma_2216" data-name="Forma 2216"><path class="cls-2" d="M677.82,350.5c-10.72-37.36-12.32-43.36-12.32-43.36S548.18,287.4,402.36,287.4,142.5,307.5,142.5,307.5s-16.37,40.05-14.77,67,23.5,51.86,68.55,43.71,125.24-35.61,213.47-35.61c103.55,0,188.73,44.17,229.89,37C670.29,414.28,688.54,387.87,677.82,350.5Z"/></g><g id="Forma_2236_copia_2" data-name="Forma 2236 copia 2"><path class="cls-5" d="M197.44,358.76c21.77,6,47.47-3.16,64.68-6.32,33.61-6.16,81.05-16,148.38-18.3,47.45,0,82.56,5.26,119.56,13.89,17.08,4,63.78,16.35,77.62,13.75,30.88-5.81,35.24-32.56,26.58-54.42a42.27,42.27,0,0,0-2.42-5.06l-4.33-.55a39.39,39.39,0,0,1,5.7,14.41c4.79,26.41-16,42.62-35.87,41-23.8-2-45-8.47-66.39-13-59.49-12.47-72.65-13.79-120.45-13.93-98.83.22-193.47,32.56-211.88,25-28.42-11.71-20-38.29-11.61-54.14l-4.22.54C173.65,319.23,163.87,349.47,197.44,358.76Zm20.18-23.69c19,4.91,42.55-2.57,58.05-5.14,30.16-5,72.55-12.87,132.16-14.72a487.21,487.21,0,0,1,106.26,11.16c15.35,3.22,57.63,13.27,69.85,11.15,24.51-4.26,28.51-22.18,22.35-38.32l-3.37-.38c.25.68.49,1.38.7,2.11,6,21-11.39,34.15-29.19,32.8-21.32-1.62-40.46-6.86-59.69-10.49-53-10-64.67-11-106.91-11.15-87.19.17-173.09,26.2-188.9,20.08-18.88-7.33-17.48-21.64-11.93-33.53l-3.79.44C196.62,312.58,194.39,329.07,217.62,335.07Zm438-17.35a54.47,54.47,0,0,0-7.83-13.25l-5-.7c5.54,7,10.1,14.52,12.46,24.88,7.58,33.24-14.25,54-36.53,51.82C592,377.91,568.06,369.63,544,363.9c-66.38-15.8-81-17.46-133.83-17.63C301,346.55,193.49,387.68,173.7,378c-34.25-16.76-15.18-56.72-4.29-74.61l-4.73.67c-11.82,20-33.11,65.34,7.38,78.52,23.84,7.76,53.26-4.06,72.66-8.1,37.76-7.88,90.82-20.34,165.44-23.27,52.54,0,91.58,6.66,133,17.63,19.22,5.08,72.15,21,87.44,17.62C664.62,379,667.08,345,655.65,317.72Z"/></g><g id="Forma_2216_copia_3" data-name="Forma 2216 copia 3"><path class="cls-9" d="M680.55,359c-2.55,22.68-18.38,38-40.91,41.9-41.16,7.15-126.34-37-229.89-37-88.23,0-168.41,27.46-213.47,35.61-43.67,7.9-65.6-15.3-68.35-41.25a76,76,0,0,0-.2,10.93c1.59,26.92,23.5,51.86,68.55,43.71s125.24-35.6,213.47-35.6c103.55,0,188.73,44.16,229.89,37C666.36,409.67,683.65,389,680.55,359Z"/></g><g id="Forma_2216_copia_2" data-name="Forma 2216 copia 2"><path class="cls-4" d="M680.55,364.31c-2.55,22.68-18.38,38-40.91,41.89-41.16,7.15-126.34-37-229.89-37-88.23,0-168.41,27.46-213.47,35.6-43.67,7.9-65.6-15.29-68.35-41.25a76.21,76.21,0,0,0-.2,10.94c1.59,26.92,23.5,51.86,68.55,43.71s125.24-35.61,213.47-35.61c103.55,0,188.73,44.17,229.89,37C666.36,415,683.65,394.29,680.55,364.31Z"/></g></svg>