<svg xmlns="http://www.w3.org/2000/svg" id="Assets" viewBox="0 0 800 800"><defs><style>.cls-2{fill:#501092}.cls-4{fill:#33026b}.cls-5{fill:#7234b0}.cls-9{fill:#a273d2}</style></defs><path id="Elipse_2374" d="M660 292c-3-21-4-47-11-74-7-29-20-57-55-79a475 475 0 0 0-194-41v1c0-1-27 0-66 5-38 6-88 16-120 37-33 22-47 49-56 76-8 27-12 54-16 75-5 5-8 9-8 14 0 31 120 57 267 57s267-26 267-57c0-5-3-10-8-14Z" data-name="Elipse 2374" style="fill:#450a83"/><path id="Elipse_2374-2" d="M406 83c-15 0-27 6-27 14s12 13 27 13 27-6 27-13-12-14-27-14Z" class="cls-2" data-name="Elipse 2374"/><path id="Elipse_2374_copia_2" d="M406 92c-15 0-27 4-27 9s12 9 27 9 27-4 27-9-12-9-27-9Z" data-name="Elipse 2374 copia 2" style="fill:#31016b"/><path id="Forma_2237" d="M617 164c-6-6-17-15-25-19a59 59 0 0 0-18-7c14 6 32 23 47 51s27 61 30 101c0-3 13-58-34-126Z" class="cls-4" data-name="Forma 2237"/><path id="Forma_2235" d="M199 173c-14 18-23 37-29 55a226 226 0 0 0-9 43 111 111 0 0 0-1 18c-9 3-17 13-17 12 6-6 30-7 30-7-2-20 2-44 9-65a184 184 0 0 1 29-55 221 221 0 0 1 32-33l15-12c-26 12-45 27-59 44Z" class="cls-5" data-name="Forma 2235"/><path id="Forma_2214_copia" d="M599 302c-9-116-48-146-48-146-64-55-91-56-143-59-48 3-97 6-156 59 0 0-41 30-56 146 0 0-8 19 30 11s148-17 164-17a27 27 0 0 0 8 0 26 26 0 0 0 8 0c15 0 125 9 162 17 38 8 31-11 31-11Z" data-name="Forma 2214 copia" style="fill:#5e1aa2"/><ellipse id="Elipse_2373_Trazado_de_recorte" cx="400.9" cy="313.8" data-name="Elipse 2373 Trazado de recorte" rx="257.5" ry="65.4" style="fill:none"/><path id="Forma_2215" d="M462 138s18 115 12 131c0 0-77 2-96 4 0 0 156 3 197 11 0 0-32-9-46-11 0 0-12-97-67-135Zm128 146a42 42 0 0 0-13 1l18 3c-2-74-37-120-60-143l-5-4c52 54 61 144 60 143Z" class="cls-5" data-name="Forma 2215"/><path id="Forma_2364_copia" d="m414 143-44 33 2-40-27 6-6 105h30l1-41 17-13 19 53h28l-27-69 30-28Zm74-9-46-5 42 98Zm4 101-18 1-5 14 17 11 15-9Z" data-name="Forma 2364 copia" style="fill:#fff"/><path id="Forma_2215_copia_2" d="M222 284c-1 1 8-89 60-143l-5 4c-23 23-57 69-60 143l18-3a42 42 0 0 0-13-1Z" class="cls-9" data-name="Forma 2215 copia 2"/><path id="Forma_2216" d="m678 351-12-44s-118-20-264-20-259 21-259 21-17 40-15 67 23 51 68 43 126-35 214-35c103 0 188 44 230 37 30-6 49-32 38-69Z" class="cls-2" data-name="Forma 2216"/><path id="Forma_2236_copia_2" d="M197 359c22 6 48-3 65-7 34-6 81-16 149-18 47 0 82 5 119 14 17 4 64 16 78 14 31-6 35-33 26-55a42 42 0 0 0-2-5h-4a39 39 0 0 1 5 14c5 27-16 43-36 41-23-2-45-8-66-13-60-12-73-14-120-14-99 0-194 33-212 25-29-11-20-38-12-54l-4 1c-9 17-19 47 14 57Zm21-24c19 5 42-3 58-5 30-5 72-13 132-15a487 487 0 0 1 106 11c15 4 58 14 70 12 24-5 28-23 22-39h-3l1 2c6 21-12 34-30 33-21-2-40-7-59-11-53-10-65-11-107-11-87 0-173 26-189 20-19-7-18-21-12-33h-4c-6 14-9 30 15 36Zm438-17a54 54 0 0 0-8-14h-5c5 7 10 14 12 25 8 33-14 54-36 51-27-2-51-10-75-16-66-16-81-18-134-18-109 1-217 42-236 32-35-17-15-57-5-75l-4 1c-12 20-33 65 7 79 24 7 53-4 73-9 37-7 91-20 165-23 53 0 92 7 133 18 19 5 72 21 88 17 34-7 36-41 25-68Z" class="cls-5" data-name="Forma 2236 copia 2"/><path id="Forma_2216_copia_3" d="M681 359c-3 23-19 38-41 42-42 7-127-37-230-37-88 0-169 27-214 36-43 7-65-16-68-42a76 76 0 0 0 0 11c1 27 23 52 68 44s126-36 214-36c103 0 188 44 230 37 26-4 44-25 41-55Z" class="cls-9" data-name="Forma 2216 copia 3"/><path id="Forma_2216_copia_2" d="M681 364c-3 23-19 38-41 42-42 7-127-37-230-37-88 0-169 28-214 36-43 8-65-15-68-41a76 76 0 0 0 0 10c1 27 23 52 68 44s126-35 214-35c103 0 188 44 230 37 26-5 44-26 41-56Z" class="cls-4" data-name="Forma 2216 copia 2"/></svg>