<svg id="Assets" xmlns="http://www.w3.org/2000/svg" viewBox="0 0 800 800"><defs><style>.cls-1{fill:#6f574b;}.cls-2{fill:#7b665b;}.cls-3{fill:#634b3e;}.cls-4{fill:#dfdbb2;}.cls-5{fill:#beb988;}.cls-6{fill:#fff;}.cls-7{fill:#d07f34;}.cls-8{fill:#b44e11;}.cls-9{fill:#f9a964;}.cls-10{fill:#7f9794;}.cls-11{fill:#a8b7be;}.cls-12{fill:#384a4f;}.cls-13{fill:none;}.cls-14{fill:#738e8b;}.cls-15{fill:#5c7273;}.cls-16{fill:#8da29f;}.cls-17{fill:#9baba8;}.cls-18{fill:#a5b0af;}.cls-19{fill:#b5bab9;}</style></defs><g id="Forma_1779_copia" data-name="Forma 1779 copia"><path class="cls-1" d="M720.05,404.4c-47.8-46.93,6.08-164.47-124.31-299.95C532.45,38.69,423.78,43.13,402,44.74c-21.77-1.61-130.44-6.05-193.73,59.71C77.89,239.93,134.71,364.81,84,404.4c-21.48,16.76,16.7,15.46,16.7,15.46s68.66,7,99-100.5c14-49.57,170.35-55.49,202.39-56.19,32,.7,188.42,6.62,202.39,56.19,30.29,107.51,99,100.5,99,100.5S739.49,423.49,720.05,404.4Z"/></g><g id="Forma_1779_copia_3" data-name="Forma 1779 copia 3"><path class="cls-2" d="M595.74,104.45C532.45,38.69,423.78,43.13,402,44.74c-21.77-1.61-130.44-6.05-193.73,59.71C77.89,239.93,134.71,364.81,84,404.4c-21.48,16.76,16.7,15.46,16.7,15.46s6.87.7,17.23-1.75c26.2-51.64-4.71-163,110.48-282.74,63.29-65.76,172-61.32,193.73-59.7,21.77-1.62,130.44-6.06,193.73,59.7a393.08,393.08,0,0,1,34.4,40.78C637,153.05,619.41,129.05,595.74,104.45Z"/></g><g id="Forma_1938" data-name="Forma 1938"><path class="cls-3" d="M245.7,115.27c-16.34,17.45-31,27.7-48.55,35.25-34.65,14.92-28.45,17.94-28.45,17.94s-25.35,97.36-26.9,101.43c44.66-1.42,110.09-105.56,115-129.26S272.38,86.78,245.7,115.27ZM677.19,237.86,625.73,209s-8.17,61.35,67.83,111.47C690.45,296,686.66,268.16,677.19,237.86Z"/></g><g id="Forma_1917" data-name="Forma 1917"><path class="cls-4" d="M147.89,168.49C106.06,150.67,112.6,51.5,118.12,16c5.49-35.23-15.22-1.32-15.22-1.32S39.05,104.11,50.39,162.43c11.21,57.66,46.31,79.26,55,81.87s17.41,5.5,37.95-22C164.23,194.29,147.89,168.49,147.89,168.49Z"/></g><g id="Forma_1925" data-name="Forma 1925"><path class="cls-5" d="M86.76,91.15c-7.78,71,46.69,121.22,46.69,121.22l.93-5.26C85.86,149.43,86.76,91.15,86.76,91.15ZM125.1,230l5.26-2.48c-38.84-39.41-47.54-90.07-48.24-91.84C80.15,186,125.1,230,125.1,230ZM150,172.74a33.2,33.2,0,0,0-2.14-4.25C106.06,150.67,112.6,51.5,118.12,16c.43-2.75.7-5.07.83-7-2.92,1.88-6.22,8-6.22,8-48.06,107.1,26,177.19,26,177.19s5.71,12.21,9.58-.31C150.28,187.4,150.39,179.21,150,172.74Z"/></g><g id="Forma_1924" data-name="Forma 1924"><path class="cls-6" d="M67,124.24C81.52,69.18,109.64,10.76,109.64,10.76s-51.9,74-55,134.82C52,196,89.85,226,89.85,226S52.41,179.3,67,124.24Z"/></g><g id="Forma_1918" data-name="Forma 1918"><path class="cls-7" d="M172.41,167.22c-5.81-11.92-12.06-1.54-12.06-1.54s-5.15-6.53-8.35.62c0,0-6.28-9.1-10.82-2.48,0,0,4.37,45.27-44.53,77,0,0-1,12.06,12.06,13.91,0,0,3,15.32,17.32,11.13,0,0,4.67,17.79,34.32-8.65S180.46,183.74,172.41,167.22Z"/></g><g id="Forma_1920" data-name="Forma 1920"><path class="cls-8" d="M172.41,167.22c-5.81-11.92-12.06-1.54-12.06-1.54s-5.15-6.53-8.35.62c0,0-6.28-9.1-10.82-2.48,0,0,1.62,16.75-8.12,37,6.63.14,14.46,2.16,10.9,12.77-4.31,12.85-9.54,24.74-16.69,32.46s24.31-7,31.23-33.7c0,0-8.5,37.68-19.18,46.38,0,0,21.06-13.43,28.45-45.14,3.11,3.52,9.48,24.88-30.61,57.82l0,0c5.15-1,12.57-4.75,23.22-14.24C190,230.77,180.46,183.74,172.41,167.22Z"/></g><g id="Forma_1920-2" data-name="Forma 1920"><path class="cls-9" d="M154.48,232.78c-10.94,15.25-29.38,16.7-29.38,16.7a61.47,61.47,0,0,0,19.17-26.29c-9.21,15.25-29.06,23.5-29.06,23.5,19.58-22.32,22.15-45.45,22-50.4a76.46,76.46,0,0,1-11.82,17.59,104.16,104.16,0,0,1-28.69,26.94s-1,12.06,12.06,13.91c0,0,3,15.32,17.32,11.13a7.47,7.47,0,0,0,.68,1.57C157.44,246.57,154.48,232.78,154.48,232.78Z"/></g><g id="Forma_1917-2" data-name="Forma 1917"><path class="cls-4" d="M697.1,14.69S676.39-19.22,681.88,16c5.52,35.49,12.06,134.66-29.77,152.48,0,0-16.34,25.8,4.52,53.77,20.53,27.54,29.18,24.65,37.94,22s43.83-24.21,55-81.87C761,104.11,697.1,14.69,697.1,14.69Z"/></g><g id="Forma_1925-2" data-name="Forma 1925"><path class="cls-6" d="M687.27,16.94s-3.3-6.08-6.22-8c.13,2,.4,4.28.83,7,5.52,35.49,12.06,134.66-29.77,152.48a33.2,33.2,0,0,0-2.14,4.25c-.36,6.47-.24,14.66,1.74,21.08,3.87,12.52,9.58.31,9.58.31S735.34,124,687.27,16.94Zm30.61,118.74c-.7,1.77-9.4,52.43-48.24,91.84L674.9,230S719.85,186,717.88,135.68Zm-4.64-44.53s.9,58.28-47.62,116l.93,5.26S721,162.12,713.24,91.15Z"/></g><g id="Forma_1924-2" data-name="Forma 1924"><path class="cls-5" d="M745.4,145.58c-3.14-60.86-55-134.82-55-134.82S718.48,69.18,733,124.24,710.15,226,710.15,226,748,196,745.4,145.58Z"/></g><g id="Forma_1918-2" data-name="Forma 1918"><path class="cls-7" d="M703.35,240.82c-48.9-31.73-44.53-77-44.53-77C654.28,157.2,648,166.3,648,166.3c-3.2-7.15-8.35-.62-8.35-.62s-6.25-10.38-12.06,1.54c-8,16.52-17.6,63.55,12.06,90S674,265.86,674,265.86c14.28,4.19,17.32-11.13,17.32-11.13C704.33,252.88,703.35,240.82,703.35,240.82Z"/></g><g id="Forma_1920-3" data-name="Forma 1920"><path class="cls-8" d="M703.35,240.82a104.16,104.16,0,0,1-28.69-26.94,76.46,76.46,0,0,1-11.82-17.59c-.2,5,6.43,26.42,26,46.69,0,0-27.25-8.84-43-19.17,0,0,11.59,17.26,29.07,25.67,0,0-25.86,4.12-36.8-11.14,0,0,14.45,25.67,35.19,29.09a7.47,7.47,0,0,0,.68-1.57c14.28,4.19,17.32-11.13,17.32-11.13C704.33,252.88,703.35,240.82,703.35,240.82Z"/></g><g id="Forma_1920-4" data-name="Forma 1920"><path class="cls-9" d="M663.77,228.76c-5.34-9.08-17-28.58-16.7-37.42.72-19.28,5.12.15,11.75,0-6.74-21.39,0-27.52,0-27.52C654.28,157.2,648,166.3,648,166.3c-3.2-7.15-8.35-.62-8.35-.62s-7.68-11-12.06,1.54c-2.74,7.83-2.29,16.22-1.24,25.36,6.15,33,16.08,37.11,16.08,37.11-10.67-8.71-6.8-43-6.8-43C643,212,668,236,663.77,228.76Z"/></g><g id="Forma_1787" data-name="Forma 1787"><path class="cls-3" d="M436.26,44.26C418.69,100.11,420.05,210,420.1,211.75c.06,2.27,35.87,2.17,35.87,2.17,6.59-117.4,27.92-152.36,38-162.44A326.27,326.27,0,0,0,436.26,44.26Z"/></g><g id="Forma_1781" data-name="Forma 1781"><path class="cls-10" d="M736.43,410.89c-1.52-22-14.84-31.4-14.84-31.4-43.48-4.42-66-18.7-80.71-66.93-12.78-41.88-3.35-61.74-84.1-86.89-40.51-12.62-80.9-17.7-111.56-19.6C447.33,29.45,476.07,48.8,476.07,48.8,471,35.89,464.14,26.57,459.36,26.92c-36.5-10.94-79.84-4.05-87.81.84-27.41,48.4-30.49,133-29.84,179.82-27.45,2.66-60,7.93-92.61,18.09-80.76,25.15-71.33,45-84.11,86.89-14.73,48.23-37.23,60-80.71,64.41,0,0-13.32,11.95-14.84,33.92s-10.19,43,8.35,43.29S184,469.24,207.35,402.23s20.8-77.34,70.2-92.46c52.42-16,104.59-18.17,125.39-18.32,20.8.15,73,2.29,125.39,18.32,49.39,15.12,46.86,25.46,70.19,92.46s111,52.27,129.57,51.95S738,432.86,736.43,410.89Z"/></g><g id="Forma_1781_copia_2" data-name="Forma 1781 copia 2"><path class="cls-11" d="M610.27,398.21l-.15-.19ZM593.32,239.39c-9.52-4.51-21.46-9-36.54-13.72-36.27-11.3-72.44-16.55-101.62-18.89,0,1.2,0,2.41-.05,3.62,30.66,1.9,71.06,7,111.56,19.6C576.94,233.19,585.74,236.3,593.32,239.39Zm-135.8-211-.09,0c2.62.52,5.23,1.11,7.81,1.79-2.11-2.17-4.13-3.34-5.88-3.21-36.5-10.94-79.84-4.05-87.81.84-27.41,48.4-30.49,133-29.84,179.82-27.45,2.66-60,7.93-92.61,18.09-80.76,25.15-71.33,45-84.11,86.89-14.73,48.23-37.23,60-80.71,64.41,0,0-13.32,11.95-14.84,33.92s-10.19,43,8.35,43.29H78c-2.91-4.52-2.14-12.19-.86-21.2,16.93,1,57,2.46,85.7-11.59,30.18-14.76,34-45.76,34-45.76C169.45,440.37,89.57,429.22,78,427.23c.55-3.89,1.08-7.93,1.37-12,1.52-22,14.84-33.92,14.84-33.92,43.48-4.42,66-16.18,80.71-64.41C187.67,275,178.24,255.15,259,230c32.62-10.17,65.17-15.43,92.62-18.09C351,165.09,354,80.49,381.45,32.09c6.89-4.24,40.3-10,72.82-4.33-2.91,4.1-18.86,29.38-22.42,96.48C431.85,124.24,438.64,68.64,457.52,28.38ZM609.83,397.61c-.26-.38-.64-.94-1.13-1.73C609.07,396.52,609.45,397.08,609.83,397.61Zm111.76-18.12c-12.06-1.23-22.5-3.21-31.62-6.47,9.86,5.22,21.51,8.28,35.46,10.1A25.82,25.82,0,0,0,721.59,379.49ZM610.12,398l-.29-.41ZM519.05,295.55c13.33,7.63,56.56,10.42,69,49.79,9.83,31.22,17.52,45.45,20.69,50.54-8.71-14.77-16.44-58.38-30.9-75.59C562.48,302,519.05,295.55,519.05,295.55Z"/></g><g id="Forma_1782_copia_2" data-name="Forma 1782 copia 2"><path class="cls-12" d="M738.41,427.06c-1.61,2.9-4.77,4.63-10.43,4.71-18.79.28-100.25,13.15-123.89-45.36S583,313.11,533,299.91c-53.12-14-92.9-20.55-133.88-21.06-41.14,0-79.93,7.22-134.5,23.68-49.56,15-47.49,25.37-71.13,83.88S87.72,432.05,68.93,431.77q-1.11,0-2.1-.12c-1.67,12.83-1.45,22.32,11,22.53,18.54.32,106.24,15.06,129.56-51.95s20.8-77.34,70.2-92.46c52.42-16,104.59-18.17,125.39-18.32,20.8.15,73,2.29,125.39,18.32,49.39,15.12,46.86,25.46,70.19,92.46s111,52.27,129.57,51.95C741.93,453.94,740.6,442.16,738.41,427.06Z"/></g><g id="Forma_1782_copia_3" data-name="Forma 1782 copia 3"><path class="cls-12" d="M459.36,26.92l-.9-.26c-26,48.65-29.43,131.88-29.06,178.67,4.91.16,10.2.4,15.82.74C447.33,29.44,476.07,48.8,476.07,48.8,471,35.89,464.14,26.57,459.36,26.92Z"/></g><g id="Elipse_1689_copia_3_Trazado_de_recorte" data-name="Elipse 1689 copia 3 Trazado de recorte"><path class="cls-13" d="M429.16,232.53c-4.46-20-24.9-31-43.45-26.12a33.91,33.91,0,0,0-24.78,39.64,35.21,35.21,0,0,0,39.14,27.54C419.57,271,433.63,252.59,429.16,232.53Z"/></g><g id="Elipse_1665" data-name="Elipse 1665"><ellipse class="cls-14" cx="387.49" cy="235.97" rx="36.35" ry="34.73"/></g><g id="Forma_1814" data-name="Forma 1814"><path class="cls-11" d="M354.08,236s2.84-22.49,25.66-31.79C379.74,204.18,354.12,208.41,354.08,236Z"/></g><g id="Elipse_1665_copia_4" data-name="Elipse 1665 copia 4"><ellipse class="cls-15" cx="389.23" cy="235.83" rx="29" ry="27.65"/></g><g id="Elipse_1665_copia_2" data-name="Elipse 1665 copia 2"><path class="cls-16" d="M386.43,206.85c-15.8,0-28.6,12.14-28.6,27.11s12.8,27.12,28.6,27.12S415,248.94,415,234,402.22,206.85,386.43,206.85Z"/></g><g id="Elipse_1665_copia_3" data-name="Elipse 1665 copia 3"><path class="cls-14" d="M401.64,212.32a25.24,25.24,0,0,1,8.06,18.38c0,14.31-12.24,25.92-27.34,25.92a28.2,28.2,0,0,1-16.1-5,28,28,0,0,0,19.28,7.55c15.09,0,27.33-11.61,27.33-25.92A25.49,25.49,0,0,0,401.64,212.32Z"/></g><g id="Elipse_1667" data-name="Elipse 1667"><path class="cls-17" d="M400.34,215c-2.5-2.52-8.06-4.61-14.68-4.47a23.11,23.11,0,0,0-22.38,23.08c.4,12.09,7.73,19.48,17.3,17.29,4.6-1.39,5-8.67,8.16-13.63,2.77-5.45,7.85-9,10.71-12.86C402.47,220.62,403,217.61,400.34,215Z"/></g><g id="Elipse_1667_copia" data-name="Elipse 1667 copia"><path class="cls-18" d="M399.85,215.05c-1.49-2.18-8.08-5-14.21-4.52a23.08,23.08,0,0,0-17.68,37c2.3,2.7,4.27,2.61,5.94-.51,2-2.93,1.15-9.95,3.63-15.1,2.15-5.49,7.73-9.1,14.24-10.91S401.64,217.45,399.85,215.05Z"/></g><g id="Forma_1667" data-name="Forma 1667"><path class="cls-19" d="M386.78,210.61s-21.59-.6-23.73,18c-1.78,15.4,7.83,21.21,7.83,21.21s-7.36-11.17-2.37-22.28C373.72,215.89,382.34,213,386.78,210.61Z"/></g><g id="Elipse_1669" data-name="Elipse 1669"><path class="cls-6" d="M374.23,215.75c-2-.78-4.34,1-5,3.06-.54,1.75.32,3.35,1.52,2.85a8.18,8.18,0,0,0,3.71-2.29C375.64,218.26,376.32,216.72,374.23,215.75Z"/></g><g id="Elipse_1689_copia_3_Trazado_de_recorte-2" data-name="Elipse 1689 copia 3 Trazado de recorte"><path class="cls-13" d="M323.29,251.66c-3.42-15.25-19-23.64-33.23-19.89A25.83,25.83,0,0,0,271.11,262a26.93,26.93,0,0,0,29.93,21C316,281,326.71,266.94,323.29,251.66Z"/></g><g id="Elipse_1665-2" data-name="Elipse 1665"><path class="cls-14" d="M291.43,227.83c-15.35,0-27.8,11.84-27.8,26.45s12.45,26.45,27.8,26.45,27.79-11.84,27.79-26.45S306.78,227.83,291.43,227.83Z"/></g><g id="Forma_1814-2" data-name="Forma 1814"><path class="cls-11" d="M265.88,254.28a32.28,32.28,0,0,1,19.62-24.21S265.91,233.3,265.88,254.28Z"/></g><g id="Elipse_1665_copia_4-2" data-name="Elipse 1665 copia 4"><path class="cls-15" d="M292.76,233.12c-12.25,0-22.18,9.43-22.18,21.06s9.93,21.06,22.18,21.06,22.17-9.43,22.17-21.06S305,233.12,292.76,233.12Z"/></g><g id="Elipse_1665_copia_2-2" data-name="Elipse 1665 copia 2"><path class="cls-16" d="M290.61,232.1c-12.08,0-21.87,9.25-21.87,20.66s9.79,20.65,21.87,20.65,21.87-9.25,21.87-20.65S302.69,232.1,290.61,232.1Z"/></g><g id="Elipse_1665_copia_3-2" data-name="Elipse 1665 copia 3"><path class="cls-14" d="M302.24,236.27a19.15,19.15,0,0,1,6.16,14c0,10.9-9.35,19.74-20.9,19.74a21.64,21.64,0,0,1-12.31-3.79A21.47,21.47,0,0,0,289.93,272c11.54,0,20.9-8.83,20.9-19.74A19.38,19.38,0,0,0,302.24,236.27Z"/></g><g id="Elipse_1667-2" data-name="Elipse 1667"><path class="cls-17" d="M301.25,238.31c-1.91-1.92-6.16-3.51-11.22-3.4a17.61,17.61,0,0,0-17.11,17.57c.3,9.21,5.9,14.84,13.22,13.17,3.52-1,3.83-6.6,6.24-10.37,2.12-4.15,6-6.87,8.19-9.8S303.25,240.3,301.25,238.31Z"/></g><g id="Elipse_1667_copia-2" data-name="Elipse 1667 copia"><path class="cls-18" d="M300.87,238.35c-1.14-1.66-6.17-3.84-10.86-3.44a17.58,17.58,0,0,0-13.52,28.2c1.76,2.05,3.27,2,4.54-.4,1.52-2.23.88-7.58,2.78-11.5,1.64-4.18,5.91-6.93,10.89-8.3S302.25,240.18,300.87,238.35Z"/></g><g id="Forma_1667-2" data-name="Forma 1667"><path class="cls-19" d="M290.88,235s-16.51-.46-18.15,13.7c-1.35,11.72,6,16.15,6,16.15s-5.62-8.51-1.81-17C280.9,239,287.49,236.77,290.88,235Z"/></g><g id="Elipse_1669-2" data-name="Elipse 1669"><path class="cls-6" d="M281.29,238.88c-1.57-.59-3.32.78-3.79,2.33-.41,1.34.25,2.55,1.16,2.17a6.28,6.28,0,0,0,2.84-1.74C282.36,240.8,282.89,239.62,281.29,238.88Z"/></g><g id="Elipse_1689_copia_3_Trazado_de_recorte-3" data-name="Elipse 1689 copia 3 Trazado de recorte"><path class="cls-13" d="M514.7,246.4c-3.42-15.24-19-23.64-33.23-19.89a25.83,25.83,0,0,0-19,30.19,26.93,26.93,0,0,0,29.93,21C507.36,275.72,518.11,261.68,514.7,246.4Z"/></g><g id="Elipse_1665-3" data-name="Elipse 1665"><path class="cls-14" d="M482.84,222.57c-15.35,0-27.8,11.85-27.8,26.45s12.45,26.46,27.8,26.46,27.79-11.85,27.79-26.46S498.19,222.57,482.84,222.57Z"/></g><g id="Forma_1814-3" data-name="Forma 1814"><path class="cls-11" d="M457.29,249a32.29,32.29,0,0,1,19.62-24.21S457.32,228,457.29,249Z"/></g><g id="Elipse_1665_copia_4-3" data-name="Elipse 1665 copia 4"><ellipse class="cls-15" cx="484.17" cy="248.92" rx="22.17" ry="21.06"/></g><g id="Elipse_1665_copia_2-3" data-name="Elipse 1665 copia 2"><path class="cls-16" d="M482,226.85c-12.08,0-21.87,9.24-21.87,20.65s9.79,20.65,21.87,20.65,21.87-9.25,21.87-20.65S494.1,226.85,482,226.85Z"/></g><g id="Elipse_1665_copia_3-3" data-name="Elipse 1665 copia 3"><path class="cls-14" d="M493.65,231a19.11,19.11,0,0,1,6.16,14c0,10.9-9.36,19.74-20.9,19.74A21.64,21.64,0,0,1,466.6,261a21.48,21.48,0,0,0,14.74,5.75c11.54,0,20.9-8.84,20.9-19.74A19.37,19.37,0,0,0,493.65,231Z"/></g><g id="Elipse_1667-3" data-name="Elipse 1667"><path class="cls-17" d="M492.66,233.05c-1.91-1.91-6.16-3.5-11.22-3.4a17.64,17.64,0,0,0-17.12,17.58c.3,9.21,5.91,14.83,13.23,13.17,3.52-1.06,3.83-6.6,6.24-10.38,2.11-4.15,6-6.87,8.19-9.8S494.66,235.05,492.66,233.05Z"/></g><g id="Elipse_1667_copia-3" data-name="Elipse 1667 copia"><path class="cls-18" d="M492.28,233.1c-1.14-1.67-6.17-3.84-10.86-3.45a17.58,17.58,0,0,0-13.52,28.2c1.76,2,3.27,2,4.54-.39,1.52-2.23.88-7.58,2.78-11.51,1.64-4.18,5.91-6.92,10.89-8.3S493.66,234.92,492.28,233.1Z"/></g><g id="Forma_1667-3" data-name="Forma 1667"><path class="cls-19" d="M482.29,229.71s-16.51-.46-18.15,13.7c-1.35,11.72,6,16.15,6,16.15s-5.62-8.51-1.81-17C472.31,233.74,478.9,231.52,482.29,229.71Z"/></g><g id="Elipse_1669-3" data-name="Elipse 1669"><path class="cls-6" d="M472.69,233.63c-1.56-.6-3.31.78-3.78,2.33-.41,1.33.25,2.55,1.16,2.17a6.46,6.46,0,0,0,2.84-1.74C473.77,235.54,474.3,234.36,472.69,233.63Z"/></g><g id="Elipse_1689_copia_3_Trazado_de_recorte-4" data-name="Elipse 1689 copia 3 Trazado de recorte"><path class="cls-13" d="M249.5,274.57c-2.84-12.69-15.82-19.68-27.61-16.56a21.49,21.49,0,0,0-15.74,25.13A22.37,22.37,0,0,0,231,300.6,21.56,21.56,0,0,0,249.5,274.57Z"/></g><g id="Elipse_1665-4" data-name="Elipse 1665"><path class="cls-14" d="M223,254.73c-12.76,0-23.1,9.86-23.1,22s10.34,22,23.1,22,23.09-9.86,23.09-22S235.78,254.73,223,254.73Z"/></g><g id="Forma_1814-4" data-name="Forma 1814"><path class="cls-11" d="M201.8,276.75a26.85,26.85,0,0,1,16.3-20.15S201.83,259.28,201.8,276.75Z"/></g><g id="Elipse_1665_copia_4-4" data-name="Elipse 1665 copia 4"><ellipse class="cls-15" cx="224.13" cy="276.67" rx="18.43" ry="17.53"/></g><g id="Elipse_1665_copia_2-4" data-name="Elipse 1665 copia 2"><ellipse class="cls-16" cx="222.35" cy="275.48" rx="18.17" ry="17.19"/></g><g id="Elipse_1665_copia_3-4" data-name="Elipse 1665 copia 3"><path class="cls-14" d="M232,261.76a16,16,0,0,1,5.12,11.65c0,9.08-7.77,16.43-17.37,16.43a18,18,0,0,1-10.22-3.15,17.83,17.83,0,0,0,12.24,4.78c9.6,0,17.37-7.36,17.37-16.43A16.14,16.14,0,0,0,232,261.76Z"/></g><g id="Elipse_1667-4" data-name="Elipse 1667"><path class="cls-17" d="M231.19,263.46c-1.59-1.6-5.12-2.92-9.33-2.83a14.64,14.64,0,0,0-14.21,14.62c.25,7.67,4.9,12.35,11,11,2.93-.88,3.19-5.5,5.19-8.64,1.76-3.46,5-5.72,6.8-8.15S232.85,265.11,231.19,263.46Z"/></g><g id="Elipse_1667_copia-4" data-name="Elipse 1667 copia"><path class="cls-18" d="M230.88,263.49c-.95-1.38-5.13-3.19-9-2.86a14.73,14.73,0,0,0-14.21,14.66,14.55,14.55,0,0,0,3,8.81c1.46,1.7,2.71,1.65,3.77-.33,1.26-1.86.73-6.31,2.31-9.57,1.36-3.48,4.91-5.77,9.05-6.92S232,265,230.88,263.49Z"/></g><g id="Forma_1667-4" data-name="Forma 1667"><path class="cls-19" d="M222.57,260.67s-13.71-.38-15.07,11.41c-1.13,9.75,5,13.44,5,13.44s-4.67-7.08-1.51-14.12C214.28,264,219.75,262.18,222.57,260.67Z"/></g><g id="Elipse_1669-4" data-name="Elipse 1669"><path class="cls-6" d="M214.6,263.93c-1.3-.49-2.76.65-3.14,1.94-.35,1.11.2,2.13,1,1.81a5.31,5.31,0,0,0,2.36-1.45C215.5,265.53,215.93,264.55,214.6,263.93Z"/></g><g id="Elipse_1689_copia_3_Trazado_de_recorte-5" data-name="Elipse 1689 copia 3 Trazado de recorte"><path class="cls-13" d="M592.43,271.79c-2.84-12.69-15.82-19.68-27.61-16.56a21.49,21.49,0,0,0-15.74,25.13A22.36,22.36,0,0,0,574,297.82,21.57,21.57,0,0,0,592.43,271.79Z"/></g><g id="Elipse_1665-5" data-name="Elipse 1665"><path class="cls-14" d="M566,252c-12.76,0-23.1,9.86-23.1,22s10.34,22,23.1,22,23.09-9.86,23.09-22S578.71,252,566,252Z"/></g><g id="Forma_1814-5" data-name="Forma 1814"><path class="cls-11" d="M544.73,274A26.87,26.87,0,0,1,561,253.81S544.75,256.5,544.73,274Z"/></g><g id="Elipse_1665_copia_4-5" data-name="Elipse 1665 copia 4"><path class="cls-15" d="M567.06,256.35c-10.18,0-18.43,7.85-18.43,17.53s8.25,17.53,18.43,17.53,18.43-7.85,18.43-17.53S577.24,256.35,567.06,256.35Z"/></g><g id="Elipse_1665_copia_2-5" data-name="Elipse 1665 copia 2"><path class="cls-16" d="M565.28,255.51c-10,0-18.17,7.69-18.17,17.19s8.13,17.19,18.17,17.19,18.17-7.7,18.17-17.19S575.31,255.51,565.28,255.51Z"/></g><g id="Elipse_1665_copia_3-5" data-name="Elipse 1665 copia 3"><path class="cls-14" d="M574.94,259a15.94,15.94,0,0,1,5.12,11.65c0,9.07-7.77,16.43-17.37,16.43a17.92,17.92,0,0,1-10.23-3.16,17.81,17.81,0,0,0,12.25,4.79c9.59,0,17.37-7.36,17.37-16.44A16.14,16.14,0,0,0,574.94,259Z"/></g><g id="Elipse_1667-5" data-name="Elipse 1667"><path class="cls-17" d="M574.12,260.67c-1.59-1.59-5.12-2.91-9.33-2.83a14.67,14.67,0,0,0-14.22,14.63c.25,7.67,4.91,12.35,11,11,2.92-.88,3.19-5.49,5.19-8.63,1.76-3.46,5-5.72,6.8-8.16S575.78,262.33,574.12,260.67Z"/></g><g id="Elipse_1667_copia-5" data-name="Elipse 1667 copia"><path class="cls-18" d="M573.8,260.71c-.94-1.39-5.13-3.2-9-2.87a14.73,14.73,0,0,0-14.21,14.67,14.54,14.54,0,0,0,3,8.8c1.46,1.71,2.71,1.65,3.77-.32,1.26-1.86.73-6.31,2.3-9.58,1.37-3.48,4.92-5.76,9-6.91S575,262.23,573.8,260.71Z"/></g><g id="Forma_1667-5" data-name="Forma 1667"><path class="cls-19" d="M565.5,257.89s-13.71-.38-15.08,11.4c-1.12,9.76,5,13.45,5,13.45s-4.67-7.08-1.51-14.13C557.21,261.24,562.68,259.39,565.5,257.89Z"/></g><g id="Elipse_1669-5" data-name="Elipse 1669"><path class="cls-6" d="M557.53,261.15c-1.3-.5-2.76.65-3.15,1.94-.34,1.11.21,2.12,1,1.81a5.31,5.31,0,0,0,2.36-1.45C558.42,262.74,558.86,261.76,557.53,261.15Z"/></g><g id="Elipse_1689_copia_3_Trazado_de_recorte-6" data-name="Elipse 1689 copia 3 Trazado de recorte"><path class="cls-13" d="M416.17,143.15c-2.84-12.69-15.82-19.68-27.6-16.56a21.5,21.5,0,0,0-15.75,25.13,22.37,22.37,0,0,0,24.87,17.46A21.56,21.56,0,0,0,416.17,143.15Z"/></g><g id="Elipse_1665-6" data-name="Elipse 1665"><path class="cls-14" d="M389.7,123.31c-12.76,0-23.1,9.86-23.1,22s10.34,22,23.1,22,23.09-9.86,23.09-22S402.45,123.31,389.7,123.31Z"/></g><g id="Forma_1814-6" data-name="Forma 1814"><path class="cls-11" d="M368.47,145.33a26.88,26.88,0,0,1,16.3-20.15S368.5,127.86,368.47,145.33Z"/></g><g id="Elipse_1665_copia_4-6" data-name="Elipse 1665 copia 4"><path class="cls-15" d="M390.8,127.72c-10.17,0-18.42,7.85-18.42,17.53s8.25,17.53,18.42,17.53,18.43-7.85,18.43-17.53S401,127.72,390.8,127.72Z"/></g><g id="Elipse_1665_copia_2-6" data-name="Elipse 1665 copia 2"><ellipse class="cls-16" cx="389.02" cy="144.06" rx="18.17" ry="17.19"/></g><g id="Elipse_1665_copia_3-6" data-name="Elipse 1665 copia 3"><path class="cls-14" d="M398.68,130.34A15.94,15.94,0,0,1,403.8,142c0,9.08-7.77,16.43-17.36,16.43a18,18,0,0,1-10.23-3.15,17.83,17.83,0,0,0,12.24,4.78c9.6,0,17.37-7.36,17.37-16.43A16.14,16.14,0,0,0,398.68,130.34Z"/></g><g id="Elipse_1667-6" data-name="Elipse 1667"><path class="cls-17" d="M397.86,132c-1.59-1.6-5.12-2.92-9.33-2.83a14.65,14.65,0,0,0-14.21,14.62c.25,7.67,4.91,12.35,11,11,2.93-.88,3.19-5.5,5.19-8.64,1.76-3.46,5-5.72,6.81-8.15S399.52,133.69,397.86,132Z"/></g><g id="Elipse_1667_copia-6" data-name="Elipse 1667 copia"><path class="cls-18" d="M397.55,132.07c-.95-1.38-5.13-3.19-9-2.86a14.63,14.63,0,0,0-11.23,23.47c1.46,1.7,2.71,1.65,3.77-.33,1.26-1.86.73-6.31,2.31-9.57,1.36-3.48,4.91-5.77,9.05-6.92S398.69,133.59,397.55,132.07Z"/></g><g id="Forma_1667-6" data-name="Forma 1667"><path class="cls-19" d="M389.25,129.25s-13.72-.38-15.08,11.41c-1.13,9.75,5,13.44,5,13.44S374.47,147,377.63,140C381,132.6,386.42,130.76,389.25,129.25Z"/></g><g id="Elipse_1669-6" data-name="Elipse 1669"><path class="cls-6" d="M381.27,132.51c-1.3-.49-2.76.65-3.14,1.94-.35,1.11.2,2.13,1,1.81a5.26,5.26,0,0,0,2.36-1.45C382.17,134.11,382.6,133.13,381.27,132.51Z"/></g><g id="Elipse_1689_copia_3_Trazado_de_recorte-7" data-name="Elipse 1689 copia 3 Trazado de recorte"><path class="cls-13" d="M422.35,70.17c-2.83-12.69-15.81-19.68-27.6-16.56A21.52,21.52,0,0,0,379,78.75a22.38,22.38,0,0,0,24.87,17.46A21.57,21.57,0,0,0,422.35,70.17Z"/></g><g id="Elipse_1665-7" data-name="Elipse 1665"><path class="cls-14" d="M395.88,50.34c-12.75,0-23.09,9.85-23.09,22s10.34,22,23.09,22,23.1-9.86,23.1-22S408.64,50.34,395.88,50.34Z"/></g><g id="Forma_1814-7" data-name="Forma 1814"><path class="cls-11" d="M374.66,72.35A26.86,26.86,0,0,1,391,52.2S374.68,54.89,374.66,72.35Z"/></g><g id="Elipse_1665_copia_4-7" data-name="Elipse 1665 copia 4"><path class="cls-15" d="M397,54.74c-10.18,0-18.43,7.85-18.43,17.53S386.81,89.8,397,89.8,415.41,82,415.41,72.27,407.16,54.74,397,54.74Z"/></g><g id="Elipse_1665_copia_2-7" data-name="Elipse 1665 copia 2"><ellipse class="cls-16" cx="395.2" cy="71.08" rx="18.17" ry="17.19"/></g><g id="Elipse_1665_copia_3-7" data-name="Elipse 1665 copia 3"><path class="cls-14" d="M404.87,57.36A16,16,0,0,1,410,69c0,9.08-7.78,16.44-17.37,16.44a18,18,0,0,1-10.23-3.16,17.8,17.8,0,0,0,12.25,4.78c9.59,0,17.37-7.35,17.37-16.43A16.18,16.18,0,0,0,404.87,57.36Z"/></g><g id="Elipse_1667-7" data-name="Elipse 1667"><path class="cls-17" d="M404.05,59.06c-1.6-1.6-5.12-2.92-9.33-2.83A14.65,14.65,0,0,0,380.5,70.86c.25,7.66,4.91,12.35,11,11,2.92-.88,3.18-5.49,5.19-8.64,1.75-3.45,5-5.71,6.8-8.15S405.71,60.72,404.05,59.06Z"/></g><g id="Elipse_1667_copia-7" data-name="Elipse 1667 copia"><path class="cls-18" d="M403.73,59.1c-1-1.39-5.13-3.2-9-2.87A14.63,14.63,0,0,0,383.47,79.7c1.47,1.71,2.72,1.65,3.77-.33,1.27-1.85.74-6.31,2.31-9.57,1.37-3.48,4.92-5.77,9.05-6.91S404.87,60.61,403.73,59.1Z"/></g><g id="Forma_1667-7" data-name="Forma 1667"><path class="cls-19" d="M395.43,56.28s-13.72-.38-15.08,11.4c-1.13,9.76,5,13.45,5,13.45S380.65,74,383.82,67C387.13,59.63,392.61,57.78,395.43,56.28Z"/></g><g id="Elipse_1669-7" data-name="Elipse 1669"><path class="cls-6" d="M387.46,59.54c-1.3-.5-2.76.65-3.15,1.94-.34,1.11.21,2.12,1,1.8a5.11,5.11,0,0,0,2.35-1.45C388.35,61.13,388.79,60.15,387.46,59.54Z"/></g></svg>