<svg xmlns="http://www.w3.org/2000/svg" id="Assets" viewBox="0 0 800 800"><defs><style>.cls-3{fill:#634b3e}.cls-4{fill:#dfdbb2}.cls-5{fill:#beb988}.cls-6{fill:#fff}.cls-7{fill:#d07f34}.cls-8{fill:#b44e11}.cls-9{fill:#f9a964}.cls-11{fill:#a8b7be}.cls-12{fill:#384a4f}.cls-13{fill:none}.cls-14{fill:#738e8b}.cls-15{fill:#5c7273}.cls-16{fill:#8da29f}.cls-17{fill:#9baba8}.cls-18{fill:#a5b0af}.cls-19{fill:#b5bab9}</style></defs><path id="Forma_1779_copia" d="M720 404c-48-47 6-164-124-300-64-65-172-61-194-59-22-2-130-6-194 59C78 240 135 365 84 404c-21 17 17 16 17 16s68 7 99-101c14-49 170-55 202-56 32 1 189 7 202 56 31 108 99 101 99 101s36 3 17-16Z" data-name="Forma 1779 copia" style="fill:#6f574b"/><path id="Forma_1779_copia_3" d="M596 104c-64-65-172-61-194-59-22-2-130-6-194 59C78 240 135 365 84 404c-21 17 17 16 17 16s7 1 17-2c26-52-5-163 110-283 64-65 172-61 194-59 22-2 131-6 194 59a393 393 0 0 1 34 41c-13-23-31-47-54-72Z" data-name="Forma 1779 copia 3" style="fill:#7b665b"/><path id="Forma_1938" d="M246 115c-17 18-31 28-49 36-35 14-28 17-28 17l-27 102c44-2 110-106 115-129s15-54-11-26Zm431 123-51-29s-8 61 68 111c-4-24-7-52-17-82Z" class="cls-3" data-name="Forma 1938"/><path id="Forma_1917" d="M148 168c-42-17-35-116-30-152 6-35-15-1-15-1s-64 89-53 147c12 58 47 80 55 82s18 6 38-22c21-28 5-54 5-54Z" class="cls-4" data-name="Forma 1917"/><path id="Forma_1925" d="M87 91c-8 71 46 121 46 121l1-5C86 149 87 91 87 91Zm38 139 5-2c-38-40-47-91-48-92-2 50 43 94 43 94Zm25-57a33 33 0 0 0-2-5c-42-17-35-116-30-152l1-7c-3 2-6 8-6 8-48 107 26 177 26 177s5 12 9 0c2-7 2-15 2-21Z" class="cls-5" data-name="Forma 1925"/><path id="Forma_1924" d="M67 124c15-55 43-113 43-113S58 85 55 146c-3 50 35 80 35 80s-38-47-23-102Z" class="cls-6" data-name="Forma 1924"/><path id="Forma_1918" d="M172 167c-5-12-12-1-12-1s-5-7-8 0c0 0-6-9-11-2 0 0 5 45-44 77 0 0-1 12 12 14 0 0 3 15 17 11 0 0 5 18 34-9s20-73 12-90Z" class="cls-7" data-name="Forma 1918"/><path id="Forma_1920" d="M172 167c-5-12-12-1-12-1s-5-7-8 0c0 0-6-9-11-2 0 0 2 17-8 37 7 0 15 2 11 13-4 12-10 24-17 32s25-7 32-34c0 0-9 38-20 47 0 0 21-14 29-45 3 3 9 24-31 57 5-1 13-4 23-14 30-26 20-73 12-90Z" class="cls-8" data-name="Forma 1920"/><path id="Forma_1920-2" d="M154 233c-10 15-29 16-29 16a61 61 0 0 0 19-26c-9 15-29 24-29 24 20-23 22-46 22-51a76 76 0 0 1-12 18 104 104 0 0 1-28 27s-1 12 12 14c0 0 3 15 17 11a7 7 0 0 0 1 1c30-20 27-34 27-34Z" class="cls-9" data-name="Forma 1920"/><path id="Forma_1917-2" d="M697 15s-21-34-15 1c5 35 12 135-30 152 0 0-16 26 5 54 20 28 29 25 38 22s43-24 55-82c11-58-53-147-53-147Z" class="cls-4" data-name="Forma 1917"/><path id="Forma_1925-2" d="M687 17s-3-6-6-8l1 7c5 35 12 135-30 152a33 33 0 0 0-2 5c0 6 0 14 2 21 4 12 9 0 9 0s74-70 26-177Zm31 119c-1 1-10 52-48 92l5 2s45-44 43-94Zm-5-45s1 58-47 116l1 5s54-50 46-121Z" class="cls-6" data-name="Forma 1925"/><path id="Forma_1924-2" d="M745 146c-3-61-55-135-55-135s28 58 43 113-23 102-23 102 38-30 35-80Z" class="cls-5" data-name="Forma 1924"/><path id="Forma_1918-2" d="M703 241c-49-32-44-77-44-77-5-7-11 2-11 2-3-7-8 0-8 0s-7-11-12 1c-8 17-18 64 12 90s34 9 34 9c14 4 17-11 17-11 13-2 12-14 12-14Z" class="cls-7" data-name="Forma 1918"/><path id="Forma_1920-3" d="M703 241a104 104 0 0 1-28-27 76 76 0 0 1-12-18c0 5 6 27 26 47 0 0-27-9-43-19 0 0 11 17 29 25 0 0-26 5-37-11 0 0 15 26 35 29a7 7 0 0 0 1-1c14 4 17-11 17-11 13-2 12-14 12-14Z" class="cls-8" data-name="Forma 1920"/><path id="Forma_1920-4" d="M664 229c-6-9-17-29-17-38 1-19 5 0 12 0-7-21 0-27 0-27-5-7-11 2-11 2-3-7-8 0-8 0s-8-11-12 1c-3 8-3 16-2 26 7 33 16 37 16 37-10-9-6-43-6-43 7 25 32 49 28 42Z" class="cls-9" data-name="Forma 1920"/><path id="Forma_1787" d="M436 44c-17 56-16 166-16 168s36 2 36 2c7-117 28-152 38-163a326 326 0 0 0-58-7Z" class="cls-3" data-name="Forma 1787"/><path id="Forma_1781" d="M736 411c-1-22-14-32-14-32-44-4-66-18-81-66-13-42-3-62-84-87-41-13-81-18-112-20 2-177 31-157 31-157-5-13-12-22-17-22-36-11-79-4-87 1-28 48-31 133-30 180-28 2-60 8-93 18-81 25-71 45-84 87-15 48-37 60-81 64 0 0-13 12-15 34s-10 43 9 43 106 15 129-52 21-77 71-92a465 465 0 0 1 250 0c50 15 47 25 71 92s111 53 129 52 10-21 8-43Z" data-name="Forma 1781" style="fill:#7f9794"/><path id="Forma_1781_copia_2" d="M610 398Zm-17-159a474 474 0 0 0-138-33v4a483 483 0 0 1 138 29ZM458 28h-1l8 2-6-3c-36-11-79-4-87 1-28 48-31 133-30 180-28 2-60 8-93 18-81 25-71 45-84 87-15 48-37 60-81 64 0 0-13 12-15 34s-10 43 9 43c-3-4-2-12-1-21 17 1 57 2 86-12 30-14 34-45 34-45-28 64-107 53-119 51l1-12c2-22 15-34 15-34 44-4 66-16 81-64 13-42 3-62 84-87 33-10 65-15 93-18-1-47 2-132 29-180 7-4 41-10 73-4-3 4-19 29-22 96 0 0 7-55 26-96Zm152 370Zm112-19c-12-1-23-3-32-6 10 5 21 8 35 10a26 26 0 0 0-3-4Zm-112 19Zm-91-102c13 7 57 10 69 49 10 32 18 46 21 51-9-15-17-58-31-76-16-18-59-24-59-24Z" class="cls-11" data-name="Forma 1781 copia 2"/><path id="Forma_1782_copia_2" d="M738 427c-1 3-4 5-10 5-19 0-100 13-124-46s-21-73-71-86c-53-14-93-21-134-21s-80 7-134 24c-50 15-48 25-72 83S88 432 69 432h-2c-2 12-2 22 11 22 18 0 106 15 129-52s21-77 71-92a465 465 0 0 1 250 0c50 15 47 25 71 92s111 52 129 52c14 0 13-12 10-27Z" class="cls-12" data-name="Forma 1782 copia 2"/><path id="Forma_1782_copia_3" d="M459 27h-1c-26 48-29 132-29 178l16 1c2-177 31-157 31-157-5-13-12-22-17-22Z" class="cls-12" data-name="Forma 1782 copia 3"/><path id="Elipse_1689_copia_3_Trazado_de_recorte" d="M429 233c-4-20-25-31-43-27a34 34 0 0 0-25 40 35 35 0 0 0 39 28c20-3 34-21 29-41Z" class="cls-13" data-name="Elipse 1689 copia 3 Trazado de recorte"/><ellipse id="Elipse_1665" cx="387.5" cy="236" class="cls-14" data-name="Elipse 1665" rx="36.4" ry="34.7"/><path id="Forma_1814" d="M354 236s3-22 26-32c0 0-26 4-26 32Z" class="cls-11" data-name="Forma 1814"/><ellipse id="Elipse_1665_copia_4" cx="389.2" cy="235.8" class="cls-15" data-name="Elipse 1665 copia 4" rx="29" ry="27.6"/><path id="Elipse_1665_copia_2" d="M386 207c-15 0-28 12-28 27s13 27 28 27 29-12 29-27-13-27-29-27Z" class="cls-16" data-name="Elipse 1665 copia 2"/><path id="Elipse_1665_copia_3" d="M402 212a25 25 0 0 1 8 19c0 14-13 26-28 26a28 28 0 0 1-16-5 28 28 0 0 0 20 7c15 0 27-11 27-26a25 25 0 0 0-11-21Z" class="cls-14" data-name="Elipse 1665 copia 3"/><path id="Elipse_1667" d="M400 215c-2-3-8-5-14-4a23 23 0 0 0-23 23c1 12 8 19 18 17 4-1 5-9 8-14l10-13c3-3 4-6 1-9Z" class="cls-17" data-name="Elipse 1667"/><path id="Elipse_1667_copia" d="M400 215c-2-2-8-5-14-4a23 23 0 0 0-18 37c2 2 4 2 6-1s1-10 4-15c2-6 7-9 14-11s10-4 8-6Z" class="cls-18" data-name="Elipse 1667 copia"/><path id="Forma_1667" d="M387 211s-22-1-24 18c-2 15 8 21 8 21s-7-11-2-22c5-12 13-15 18-17Z" class="cls-19" data-name="Forma 1667"/><path id="Elipse_1669" d="M374 216c-2-1-4 1-5 3 0 2 1 3 2 3a8 8 0 0 0 3-3c2-1 2-2 0-3Z" class="cls-6" data-name="Elipse 1669"/><path id="Elipse_1689_copia_3_Trazado_de_recorte-2" d="M323 252c-3-16-19-24-33-20a26 26 0 0 0-19 30 27 27 0 0 0 30 21c15-2 26-16 22-31Z" class="cls-13" data-name="Elipse 1689 copia 3 Trazado de recorte"/><path id="Elipse_1665-2" d="M291 228c-15 0-27 12-27 26s12 27 27 27 28-12 28-27-12-26-28-26Z" class="cls-14" data-name="Elipse 1665"/><path id="Forma_1814-2" d="M266 254a32 32 0 0 1 19-24s-19 3-19 24Z" class="cls-11" data-name="Forma 1814"/><path id="Elipse_1665_copia_4-2" d="M293 233c-12 0-22 10-22 21s10 21 22 21 22-9 22-21-10-21-22-21Z" class="cls-15" data-name="Elipse 1665 copia 4"/><path id="Elipse_1665_copia_2-2" d="M291 232c-12 0-22 9-22 21s10 20 22 20 21-9 21-20-9-21-21-21Z" class="cls-16" data-name="Elipse 1665 copia 2"/><path id="Elipse_1665_copia_3-2" d="M302 236a19 19 0 0 1 6 14c0 11-9 20-20 20a22 22 0 0 1-13-4 21 21 0 0 0 15 6c11 0 21-9 21-20a19 19 0 0 0-9-16Z" class="cls-14" data-name="Elipse 1665 copia 3"/><path id="Elipse_1667-2" d="M301 238c-2-2-6-3-11-3a18 18 0 0 0-17 17c0 10 6 15 13 14 4-1 4-7 6-11s6-7 9-10 2-5 0-7Z" class="cls-17" data-name="Elipse 1667"/><path id="Elipse_1667_copia-2" d="M301 238c-1-1-6-3-11-3a18 18 0 0 0-14 28c2 2 4 2 5 0 2-3 1-8 3-12 1-4 6-7 11-8s7-3 6-5Z" class="cls-18" data-name="Elipse 1667 copia"/><path id="Forma_1667-2" d="M291 235s-17 0-18 14c-2 11 6 16 6 16s-6-9-2-17c4-9 10-11 14-13Z" class="cls-19" data-name="Forma 1667"/><path id="Elipse_1669-2" d="M281 239c-1-1-3 1-3 2-1 2 0 3 1 2a6 6 0 0 0 3-1c0-1 1-2-1-3Z" class="cls-6" data-name="Elipse 1669"/><path id="Elipse_1689_copia_3_Trazado_de_recorte-3" d="M515 246c-4-15-19-23-34-19a26 26 0 0 0-19 30 27 27 0 0 0 30 21c15-2 26-16 23-32Z" class="cls-13" data-name="Elipse 1689 copia 3 Trazado de recorte"/><path id="Elipse_1665-3" d="M483 223c-16 0-28 11-28 26s12 26 28 26 28-11 28-26-13-26-28-26Z" class="cls-14" data-name="Elipse 1665"/><path id="Forma_1814-3" d="M457 249a32 32 0 0 1 20-24s-20 3-20 24Z" class="cls-11" data-name="Forma 1814"/><ellipse id="Elipse_1665_copia_4-3" cx="484.2" cy="248.9" class="cls-15" data-name="Elipse 1665 copia 4" rx="22.2" ry="21.1"/><path id="Elipse_1665_copia_2-3" d="M482 227c-12 0-22 9-22 20s10 21 22 21 22-9 22-21-10-20-22-20Z" class="cls-16" data-name="Elipse 1665 copia 2"/><path id="Elipse_1665_copia_3-3" d="M494 231a19 19 0 0 1 6 14c0 11-10 20-21 20a22 22 0 0 1-12-4 21 21 0 0 0 14 6c12 0 21-9 21-20a19 19 0 0 0-8-16Z" class="cls-14" data-name="Elipse 1665 copia 3"/><path id="Elipse_1667-3" d="M493 233c-2-2-6-3-12-3a18 18 0 0 0-17 17c1 9 6 15 14 13 3-1 3-6 6-10l8-10c2-3 3-5 1-7Z" class="cls-17" data-name="Elipse 1667"/><path id="Elipse_1667_copia-3" d="M492 233c-1-2-6-4-11-3a18 18 0 0 0-13 28c2 2 3 2 4-1 2-2 1-7 3-11s6-7 11-8 8-3 6-5Z" class="cls-18" data-name="Elipse 1667 copia"/><path id="Forma_1667-3" d="M482 230s-16-1-18 13c-1 12 6 17 6 17s-5-9-2-17c4-9 11-11 14-13Z" class="cls-19" data-name="Forma 1667"/><path id="Elipse_1669-3" d="M473 234c-2-1-4 0-4 2 0 1 0 3 1 2a6 6 0 0 0 3-2v-2Z" class="cls-6" data-name="Elipse 1669"/><path id="Elipse_1689_copia_3_Trazado_de_recorte-4" d="M250 275c-3-13-16-20-28-17a21 21 0 0 0-16 25 22 22 0 0 0 25 18 22 22 0 0 0 19-26Z" class="cls-13" data-name="Elipse 1689 copia 3 Trazado de recorte"/><path id="Elipse_1665-4" d="M223 255c-13 0-23 10-23 22s10 22 23 22 23-10 23-22-10-22-23-22Z" class="cls-14" data-name="Elipse 1665"/><path id="Forma_1814-4" d="M202 277a27 27 0 0 1 16-20s-16 2-16 20Z" class="cls-11" data-name="Forma 1814"/><ellipse id="Elipse_1665_copia_4-4" cx="224.1" cy="276.7" class="cls-15" data-name="Elipse 1665 copia 4" rx="18.4" ry="17.5"/><ellipse id="Elipse_1665_copia_2-4" cx="222.3" cy="275.5" class="cls-16" data-name="Elipse 1665 copia 2" rx="18.2" ry="17.2"/><path id="Elipse_1665_copia_3-4" d="M232 262a16 16 0 0 1 5 11c0 9-8 17-17 17a18 18 0 0 1-10-3 18 18 0 0 0 12 4c9 0 17-7 17-16a16 16 0 0 0-7-13Z" class="cls-14" data-name="Elipse 1665 copia 3"/><path id="Elipse_1667-4" d="m231 263-9-2a15 15 0 0 0-14 14c0 8 5 13 11 11 3-1 3-5 5-8l7-9c2-3 2-4 0-6Z" class="cls-17" data-name="Elipse 1667"/><path id="Elipse_1667_copia-4" d="M231 263c-1-1-5-3-9-2a15 15 0 0 0-14 14 15 15 0 0 0 3 9c1 2 2 2 3 0 2-2 1-7 3-10 1-3 5-6 9-7s6-2 5-4Z" class="cls-18" data-name="Elipse 1667 copia"/><path id="Forma_1667-4" d="M223 261s-14-1-16 11c-1 10 6 14 6 14s-5-8-2-15 9-9 12-10Z" class="cls-19" data-name="Forma 1667"/><path id="Elipse_1669-4" d="M215 264c-2-1-3 1-4 2l1 2a5 5 0 0 0 3-2v-2Z" class="cls-6" data-name="Elipse 1669"/><path id="Elipse_1689_copia_3_Trazado_de_recorte-5" d="M592 272c-2-13-15-20-27-17a21 21 0 0 0-16 25 22 22 0 0 0 25 18 22 22 0 0 0 18-26Z" class="cls-13" data-name="Elipse 1689 copia 3 Trazado de recorte"/><path id="Elipse_1665-5" d="M566 252c-13 0-23 10-23 22s10 22 23 22 23-10 23-22-10-22-23-22Z" class="cls-14" data-name="Elipse 1665"/><path id="Forma_1814-5" d="M545 274a27 27 0 0 1 16-20s-16 3-16 20Z" class="cls-11" data-name="Forma 1814"/><path id="Elipse_1665_copia_4-5" d="M567 256c-10 0-18 8-18 18s8 17 18 17 18-7 18-17-8-18-18-18Z" class="cls-15" data-name="Elipse 1665 copia 4"/><path id="Elipse_1665_copia_2-5" d="M565 256c-10 0-18 7-18 17s8 17 18 17 18-8 18-17-8-17-18-17Z" class="cls-16" data-name="Elipse 1665 copia 2"/><path id="Elipse_1665_copia_3-5" d="M575 259a16 16 0 0 1 5 12c0 9-8 16-17 16a18 18 0 0 1-11-3 18 18 0 0 0 13 5c9 0 17-8 17-17a16 16 0 0 0-7-13Z" class="cls-14" data-name="Elipse 1665 copia 3"/><path id="Elipse_1667-5" d="M574 261c-1-2-5-3-9-3a15 15 0 0 0-14 14c0 8 4 13 11 11 2 0 3-5 5-8 2-4 5-6 7-8s2-5 0-6Z" class="cls-17" data-name="Elipse 1667"/><path id="Elipse_1667_copia-5" d="M574 261c-1-2-5-3-9-3a15 15 0 0 0-14 15 15 15 0 0 0 3 8c1 2 2 2 3 0 2-2 1-6 3-10 1-3 5-5 9-6s6-3 5-4Z" class="cls-18" data-name="Elipse 1667 copia"/><path id="Forma_1667-5" d="M566 258s-14 0-16 11c-1 10 5 14 5 14s-4-7-1-14c3-8 9-10 12-11Z" class="cls-19" data-name="Forma 1667"/><path id="Elipse_1669-5" d="m558 261-4 2 1 2a5 5 0 0 0 3-2v-2Z" class="cls-6" data-name="Elipse 1669"/><path id="Elipse_1689_copia_3_Trazado_de_recorte-6" d="M416 143c-3-13-16-20-27-16a22 22 0 0 0-16 25 22 22 0 0 0 25 17 22 22 0 0 0 18-26Z" class="cls-13" data-name="Elipse 1689 copia 3 Trazado de recorte"/><path id="Elipse_1665-6" d="M390 123c-13 0-23 10-23 22s10 22 23 22 23-10 23-22-11-22-23-22Z" class="cls-14" data-name="Elipse 1665"/><path id="Forma_1814-6" d="M368 145a27 27 0 0 1 17-20s-16 3-17 20Z" class="cls-11" data-name="Forma 1814"/><path id="Elipse_1665_copia_4-6" d="M391 128c-10 0-19 8-19 17s9 18 19 18 18-8 18-18-8-17-18-17Z" class="cls-15" data-name="Elipse 1665 copia 4"/><ellipse id="Elipse_1665_copia_2-6" cx="389" cy="144.1" class="cls-16" data-name="Elipse 1665 copia 2" rx="18.2" ry="17.2"/><path id="Elipse_1665_copia_3-6" d="M399 130a16 16 0 0 1 5 12c0 9-8 16-18 16a18 18 0 0 1-10-3 18 18 0 0 0 12 5c10 0 18-7 18-16a16 16 0 0 0-7-14Z" class="cls-14" data-name="Elipse 1665 copia 3"/><path id="Elipse_1667-6" d="M398 132c-2-2-5-3-9-3a15 15 0 0 0-15 15c1 7 5 12 11 11 3-1 4-6 6-9l6-8c1-2 3-4 1-6Z" class="cls-17" data-name="Elipse 1667"/><path id="Elipse_1667_copia-6" d="m398 132-9-3a15 15 0 0 0-12 24c2 1 3 1 4-1l2-9c2-4 5-6 9-7s7-2 6-4Z" class="cls-18" data-name="Elipse 1667 copia"/><path id="Forma_1667-6" d="M389 129s-13 0-15 12c-1 9 5 13 5 13s-5-7-1-14c3-7 8-9 11-11Z" class="cls-19" data-name="Forma 1667"/><path id="Elipse_1669-6" d="M381 133c-1-1-2 0-3 1 0 2 0 3 1 2a5 5 0 0 0 2-1c1-1 2-2 0-2Z" class="cls-6" data-name="Elipse 1669"/><path id="Elipse_1689_copia_3_Trazado_de_recorte-7" d="M422 70c-2-13-15-20-27-16a22 22 0 0 0-16 25 22 22 0 0 0 25 17 22 22 0 0 0 18-26Z" class="cls-13" data-name="Elipse 1689 copia 3 Trazado de recorte"/><path id="Elipse_1665-7" d="M396 50c-13 0-23 10-23 22s10 22 23 22 23-10 23-22-10-22-23-22Z" class="cls-14" data-name="Elipse 1665"/><path id="Forma_1814-7" d="M375 72a27 27 0 0 1 16-20s-16 3-16 20Z" class="cls-11" data-name="Forma 1814"/><path id="Elipse_1665_copia_4-7" d="M397 55c-10 0-18 8-18 17s8 18 18 18 18-8 18-18-8-17-18-17Z" class="cls-15" data-name="Elipse 1665 copia 4"/><ellipse id="Elipse_1665_copia_2-7" cx="395.2" cy="71.1" class="cls-16" data-name="Elipse 1665 copia 2" rx="18.2" ry="17.2"/><path id="Elipse_1665_copia_3-7" d="M405 57a16 16 0 0 1 5 12c0 9-8 16-17 16a18 18 0 0 1-11-3 18 18 0 0 0 13 5c9 0 17-7 17-16a16 16 0 0 0-7-14Z" class="cls-14" data-name="Elipse 1665 copia 3"/><path id="Elipse_1667-7" d="M404 59c-2-2-5-3-9-3a15 15 0 0 0-14 15c0 8 4 12 11 11 2-1 3-6 5-9l6-8c1-3 3-4 1-6Z" class="cls-17" data-name="Elipse 1667"/><path id="Elipse_1667_copia-7" d="M404 59c-1-1-5-3-9-3a15 15 0 0 0-12 24c2 1 3 1 4-1 2-1 1-6 3-9 1-4 4-6 9-7s6-2 5-4Z" class="cls-18" data-name="Elipse 1667 copia"/><path id="Forma_1667-7" d="M395 56s-13 0-15 12c-1 9 5 13 5 13s-4-7-1-14 9-9 11-11Z" class="cls-19" data-name="Forma 1667"/><path id="Elipse_1669-7" d="M387 60c-1-1-2 0-3 1l1 2a5 5 0 0 0 3-1c0-1 1-2-1-2Z" class="cls-6" data-name="Elipse 1669"/></svg>