<svg xmlns="http://www.w3.org/2000/svg" id="Assets" viewBox="0 0 800 800"><defs><style>.cls-1{fill:#4a1775}.cls-5{fill:#f09927}.cls-6{fill:#d67000}.cls-7{fill:#ffcd35}</style></defs><path id="Forma_36" d="m652 199-490 5s1 53 12 67 78 67 234 67 211-46 225-57 25-60 19-82Z" class="cls-1" data-name="Forma 36"/><path id="Forma_36_copia_2" d="M190 204h-28s1 53 12 67c4 5 12 13 27 22-7-36-10-73-11-89Z" data-name="Forma 36 copia 2" style="fill:#6d309e"/><path id="Forma_36_copia" d="m652 199-117 1-137 42 59 52s103-20 195-59c2-14 2-27 0-36Z" data-name="Forma 36 copia" style="fill:#351959"/><path id="Forma_39_copia_2" d="M733 170 408 69 66 169v9l342 101 326-101-1-8z" class="cls-1" data-name="Forma 39 copia 2"/><path id="Forma_39_copia" d="M733 170 408 271 66 169v10l342 100 326-100-1-9z" data-name="Forma 39 copia" style="fill:#2b064c"/><path id="Forma_40" d="M574 237c-3-17-11-18-23-26s-111-53-143-60c0 0-15-4-17 2-4 10 17 15 17 15s99 37 141 61c0 0 10 6 10 18s5 45 3 68 18 16 19 0-3-62-7-78Z" class="cls-5" data-name="Forma 40"/><path id="Forma_40_copia_3" d="M543 221c-16-11-123-54-152-65 0 8 17 12 17 12s99 37 141 61a23 23 0 0 1 9 10c-1-4-3-10-15-18Z" class="cls-6" data-name="Forma 40 copia 3"/><path id="Forma_40_copia_2" d="M574 237c-1-7-3-12-6-15 3 13 9 45 10 103a17 17 0 0 0 3-10c1-15-3-62-7-78Z" class="cls-6" data-name="Forma 40 copia 2"/><path id="Forma_40_copia" d="M554 233a21 21 0 0 1 5 14c0 11 5 45 3 68a27 27 0 0 0 1 7h4c4-63-5-83-13-89Z" class="cls-7" data-name="Forma 40 copia"/><path id="Forma_505" d="M599 407s-8-26-6-55l-43 1s1 39-6 58c0 0-1 5 7 4l4-18v19s9 2 12 0l1-15 3 16s16-2 21-5l-1-14s4 9 3 12a20 20 0 0 0 5-3Z" data-name="Forma 505" style="fill:#f09926"/><path id="Forma_505_copia_2" d="M599 407s-7-24-6-52l-9 6-1 30-1-29-3 1-3 49-4-46-3 1-1 23-2-25h-4c1 8 0 39-1 52l6-1 1-15 3 16s16-2 21-5l-1-14s4 9 3 12a20 20 0 0 0 5-3Zm-51 8a14 14 0 0 0 3 0l4-18v19a39 39 0 0 0 6 1c0-27-7-57-7-57 0 14-5 46-6 55Z" data-name="Forma 505 copia 2" style="fill:#eb8403"/><path id="Forma_505_copia" d="m554 400 1-3v19l10 1-9-42Zm15 3 2 14 4-1-6-27Zm23 7-5-31-1 35a18 18 0 0 0 6-2Zm-10 5 3-1-2-22Z" data-name="Forma 505 copia" style="fill:#d06a00"/><ellipse id="Elipse_508" cx="570.6" cy="341.5" class="cls-5" data-name="Elipse 508" rx="27.9" ry="28.7"/><path id="Elipse_508_copia_2" d="M576 315a27 27 0 0 1 8 1 27 27 0 0 0-13-3c-16 0-28 13-28 28a29 29 0 0 0 16 27 29 29 0 0 1-11-24c0-16 12-29 28-29Z" class="cls-7" data-name="Elipse 508 copia 2"/><path id="Elipse_1709_copia_2" d="M589 330c3 8 1 18-5 25-7 7-17 9-25 6a21 21 0 0 0 14 5c11 0 21-10 21-22a22 22 0 0 0-5-14Z" data-name="Elipse 1709 copia 2" style="fill:#d36c00"/><path id="Elipse_1709_copia" d="M586 326a18 18 0 0 0-12-5 17 17 0 0 1 9 4c8 7 8 19 0 27s-20 9-27 2a17 17 0 0 1-5-11 20 20 0 0 0 5 16c8 7 21 6 29-3s9-22 1-30Z" data-name="Elipse 1709 copia" style="fill:#ee8c15"/></svg>