<svg id="Assets" xmlns="http://www.w3.org/2000/svg" viewBox="0 0 800 800"><defs><style>.cls-1{fill:#c9a262;}.cls-2{fill:#dbd090;}.cls-3{fill:#b98343;}.cls-4{fill:#a16e31;}.cls-5{fill:#45300e;}.cls-6{fill:#5d4626;}.cls-7{fill:#cda462;}.cls-8{fill:#dfd096;}.cls-9{fill:#b78345;}.cls-10{fill:#71552b;}</style></defs><g id="Forma_2201_copia" data-name="Forma 2201 copia"><path class="cls-1" d="M529.79,53.94c-44.42-64.11-68.31-47.38-79.41-38.41-10.11,8.18-38.3,22.62-43.21,25.11-4.91-2.49-33.1-16.93-43.21-25.11-11.1-9-35-25.7-79.41,38.41s-55.16,122.4-94.92,162.51c0,0,86.57,203.56,217.54,180.2,131,23.36,217.53-180.2,217.53-180.2C590.31,196.31,586.23,129.38,529.79,53.94Z"/></g><g id="Forma_2209" data-name="Forma 2209"><path class="cls-2" d="M326.28,21.81c-23.21,15.46-46.16,61.68-46.16,61.68s32.67-44.38,53.18-51.71,35.46,3,35.46,3S345,9.34,326.28,21.81Z"/></g><g id="Forma_2207_copia" data-name="Forma 2207 copia"><path class="cls-3" d="M356.57,67.24c20.26,45.18-60.94,65.37-60.94,65.37C408.93,109.85,356.57,67.24,356.57,67.24ZM466.26,48.77s-24.75-2.51-42.55-16.84c-7.44,4.06-14,7.4-16.33,8.61C419.16,46.72,437.56,50.79,466.26,48.77ZM448.08,67.24s-51.64,37.18,67.65,74.58C515.73,141.82,429.13,112.37,448.08,67.24Z"/></g><g id="Forma_2203_copia" data-name="Forma 2203 copia"><path class="cls-3" d="M592.57,171.39c-19.74,17.1-49.67,58.34-189,60.62-116.31.65-143.54-85.73-149.91-125.54-21.85,43-35.44,81.17-64,110,0,0,39.68,157.33,205.72,178.77,32.7-.11,137.27,11.45,225.29-182.83C620.64,212.39,595.18,200.18,592.57,171.39Z"/></g><g id="Forma_2213" data-name="Forma 2213"><path class="cls-4" d="M254.63,297.33c-20.5-37.64-32.13-63.15-32.13-63.15l-29.91-23.27S176.42,206,249.83,318.39,450,381.54,450,381.54C341.35,404.8,275.14,335,254.63,297.33Zm139.61,62.05s-66.59-18.84-93.44-59.09-24.74-41.37-24.74-41.37l-27.34-9.23s20.6,27.88,42.11,58.35S365.26,356.36,394.24,359.38Z"/></g><g id="Forma_2205" data-name="Forma 2205"><path class="cls-5" d="M598.85,182.1c-1.72-9.79-5.54-8.86-5.54-8.86-43.16,51.84-92.12,67.09-190.94,73.13S215.12,182.1,215.12,182.1c-10.25,2.6-6.66,11-14,16.25s-8.12,8.5-8.12,8.5,48.6,86,208.67,86c164.68,0,211.26-92,211.26-95.29S600.57,191.89,598.85,182.1Z"/></g><g id="Forma_2207" data-name="Forma 2207"><path class="cls-6" d="M220.66,198.72c64.92,40.26,111,45.53,133.24,44.93C276.37,230.8,215.12,182.1,215.12,182.1c-10.25,2.6-6.66,11-14,16.25s-8.12,8.5-8.12,8.5a69.82,69.82,0,0,0,5.15,7.43,6.92,6.92,0,0,1,7.4-3.74c84.82,61.81,117.08,48.38,117.08,48.38-42.73,1.14-108.95-54.29-108.95-54.29C217.62,196.69,220.66,198.72,220.66,198.72Z"/></g><g id="Forma_2197_copia_2" data-name="Forma 2197 copia 2"><path class="cls-7" d="M701.16,131.13c-99.58,12.33-113.43,150.86-175.07,202-57.31,47.58-111.74,51.34-124.46,51.34-12.09,0-67.53-3.76-124.84-51.34-61.63-51.17-75.49-189.7-175.06-202S-18.79,190.07,30.82,233.44c40.48,35.39,128.48,57.31,156.23,65.37,30.34,7.05,66.11,46.91,66.11,46.91s59.71,60.2,148.84,60.2c99.36,0,150.68-62.79,150.68-62.79s23.27-14.3,51.71-27.7c26.7-16.79,128.9-37.17,167.68-82C815.18,183.6,800.73,118.81,701.16,131.13Z"/></g><g id="Forma_2200_copia" data-name="Forma 2200 copia"><path class="cls-8" d="M402.74,389.74v-.07c-90.42-1.65-144.41-66.11-144.41-66.11,35.73,60.22,104.39,74.53,142.4,74.53,46.9,0,94.77-12.06,143.83-74.53C544.56,323.56,488.76,384.69,402.74,389.74Zm-338.31-252c81.58,14.95,119.29,69.44,119.29,69.44C146.36,137.69,64.43,137.78,64.43,137.78Zm554.73,69.44s37.72-54.49,119.3-69.44C738.46,137.78,656.52,137.69,619.16,207.22Z"/></g><g id="Forma_2197_copia_2-2" data-name="Forma 2197 copia 2"><path class="cls-9" d="M48.94,147.16c-18.77.46-37.2,13.59-38.06,47.13-.29,11.92,5.42,27.91,19.94,39.15,45,34.82,105.74,52.87,155.86,65.37,23.57,9.36,43,25.32,51,32.5-6.13-6.66-19.43-24.42-40.34-69.06C166.47,196.24,111.47,145.62,48.94,147.16ZM241.71,335s-1.42-1.41-4-3.7A22.91,22.91,0,0,0,241.71,335ZM753.94,147.16c-62.53-1.54-122.48,51.39-148.44,115.09-24.26,47.92-37.8,65.08-51.71,80.88,21.2-14,49.18-28.54,81.25-39.89,52.42-18,106.44-36.23,137-69.8,12.36-13.57,17.15-24.18,19.94-39.15C791.14,160.75,772.72,147.62,753.94,147.16Z"/></g><g id="Forma_2197_copia_5" data-name="Forma 2197 copia 5"><path class="cls-10" d="M693.9,171.86C714.55,158,737.46,149.28,761,148a36.14,36.14,0,0,0-7-.86c-62.53-1.54-122.48,51.39-148.44,115.09q-2.37,5.79-5,11.36C575.41,322.16,552,344.24,552,344.24s37.4-21.57,49.86-27.33c12.67-10.28,15.74-19.41,46.53-73.5,42.11-74,129.27-55.4,129.27-55.4C765.23,160.6,712.37,168.26,693.9,171.86ZM197.39,262.25c-26-63.7-85.92-116.63-148.45-115.09a36,36,0,0,0-7,.86c23.48,1.26,46.39,10,67.05,23.84C90.52,168.26,37.65,160.6,25.28,188c0,0,83.76-16.54,129.27,55.4,22.6,35.74,24.47,43.66,32.87,55.77,6.43,4.82,16.49.72,57.61,39.15-6.59-6.77-27-34.32-42.63-64.72C200.64,269.9,199,266.11,197.39,262.25Z"/></g></svg>