<svg xmlns="http://www.w3.org/2000/svg" id="Assets" viewBox="0 0 800 800"><defs><style>.cls-3{fill:#b98343}</style></defs><path id="Forma_2201_copia" d="M530 54c-45-64-69-47-80-38-10 8-38 22-43 25-5-3-33-17-43-25-11-9-35-26-79 38s-56 122-95 162c0 0 86 204 217 181 131 23 218-181 218-181-35-20-39-87-95-162Z" data-name="Forma 2201 copia" style="fill:#c9a262"/><path id="Forma_2209" d="M326 22c-23 15-46 61-46 61s33-44 53-51 36 3 36 3-24-26-43-13Z" data-name="Forma 2209" style="fill:#dbd090"/><path id="Forma_2207_copia" d="M357 67c20 45-61 66-61 66 113-23 61-66 61-66Zm109-18s-24-3-42-17l-17 9c12 6 31 10 59 8Zm-18 18s-52 37 68 75c0 0-87-30-68-75Z" class="cls-3" data-name="Forma 2207 copia"/><path id="Forma_2203_copia" d="M593 171c-20 17-50 59-189 61-117 1-144-86-150-126-22 43-36 82-64 110 0 0 39 158 205 179 33 0 138 12 226-183 0 0-26-12-28-41Z" class="cls-3" data-name="Forma 2203 copia"/><path id="Forma_2213" d="M255 297c-21-37-33-63-33-63l-29-23s-17-5 57 107 200 64 200 64a178 178 0 0 1-195-85Zm139 62s-66-18-93-59-25-41-25-41l-27-9 42 58c22 30 74 48 103 51Z" data-name="Forma 2213" style="fill:#a16e31"/><path id="Forma_2205" d="M599 182c-2-10-6-9-6-9-43 52-92 67-191 73s-187-64-187-64c-10 3-7 11-14 16s-8 9-8 9 49 86 209 86c164 0 211-92 211-95s-12-6-14-16Z" data-name="Forma 2205" style="fill:#45300e"/><path id="Forma_2207" d="M221 199c65 40 111 45 133 45-78-13-139-62-139-62-10 3-7 11-14 16s-8 9-8 9a70 70 0 0 0 5 7 7 7 0 0 1 8-3c84 61 117 48 117 48-43 1-109-54-109-54 4-8 7-6 7-6Z" data-name="Forma 2207" style="fill:#5d4626"/><path id="Forma_2197_copia_2" d="M701 131c-99 12-113 151-175 202-57 48-112 51-124 51s-68-3-125-51c-62-51-76-190-175-202s-121 59-71 102c40 36 128 58 156 66 30 7 66 47 66 47s60 60 149 60c99 0 151-63 151-63s23-14 51-28c27-16 129-37 168-82 43-49 29-114-71-102Z" data-name="Forma 2197 copia 2" style="fill:#cda462"/><path id="Forma_2200_copia" d="M403 390c-91-2-145-66-145-66 36 60 105 74 143 74 47 0 95-12 144-74 0 0-56 61-142 66ZM64 138c82 15 120 69 120 69-38-69-120-69-120-69Zm555 69s38-54 119-69c0 0-81 0-119 69Z" data-name="Forma 2200 copia" style="fill:#dfd096"/><path id="Forma_2197_copia_2-2" d="M49 147c-19 1-37 14-38 47 0 12 5 28 20 39 45 35 106 53 156 66 23 9 43 25 51 32-6-6-20-24-41-69-31-66-86-116-148-115Zm193 188-4-4a23 23 0 0 0 4 4Zm512-188c-63-1-123 52-148 115-25 48-38 65-52 81 21-14 49-28 81-40 52-18 106-36 137-70 12-13 17-24 20-39-1-33-19-46-38-47Z" data-name="Forma 2197 copia 2" style="fill:#b78345"/><path id="Forma_2197_copia_5" d="M694 172c21-14 43-23 67-24a36 36 0 0 0-7-1c-63-1-122 52-148 115l-5 12c-26 48-49 70-49 70l50-27c13-10 16-19 46-74 42-74 130-55 130-55-13-27-66-20-84-16Zm-497 90c-26-63-86-116-148-115a36 36 0 0 0-7 1c23 1 46 10 67 24-18-4-71-11-84 16 0 0 84-17 130 55 22 36 24 44 32 56 7 5 17 1 58 39a348 348 0 0 1-48-76Z" data-name="Forma 2197 copia 5" style="fill:#71552b"/></svg>