<svg id="Assets" xmlns="http://www.w3.org/2000/svg" viewBox="0 0 800 800"><defs><style>.cls-1{opacity:0.18;}.cls-2{fill:#391474;}.cls-3{fill:#ff2437;}.cls-4{fill:#d6051e;}.cls-5{opacity:0.61;}.cls-6{fill:#ff6977;}.cls-7{opacity:0.22;}.cls-8{fill:#fff7f7;}.cls-9{opacity:0.66;}.cls-10{fill:#ff7a85;}</style></defs><g id="Forma_5377_copia" data-name="Forma 5377 copia" class="cls-1"><path class="cls-2" d="M264.84,198.71c-27.7-30.63-55.07-3.38-55.07-3.38S196.53,159,158.46,175s-16.15,80,31.22,110.65C245.58,278,292.55,229.34,264.84,198.71Z"/></g><g id="Forma_5377_copia_2" data-name="Forma 5377 copia 2"><path class="cls-3" d="M233.3,164.7c-32.45-35.83-64.5-4-64.5-4S153.29,118.29,108.71,137,89.82,230.54,145.3,266.4C210.75,257.43,265.75,200.53,233.3,164.7Z"/></g><g id="Forma_5379" data-name="Forma 5379"><path class="cls-4" d="M231.34,167.05c-13-14.15-25.84-17.41-36.54-16.32,19,8,50.22,28,12.06,69-41,44-90.3,9.7-103,3.49A140.48,140.48,0,0,0,145.68,265C209.57,256.48,263.13,201.71,231.34,167.05Z"/></g><g id="Forma_5381" data-name="Forma 5381" class="cls-5"><path class="cls-6" d="M162.17,159s-13.84-25.63-48.81-7.82c-37.5,19.1,0,69.8,35.65,47.26C176,181.4,162.17,159,162.17,159Z"/></g><g id="Forma_5381_copia" data-name="Forma 5381 copia" class="cls-7"><path class="cls-6" d="M173.18,253.67c62.1-25.63,63-59.31,63-59.31C215.68,227,208.65,231.61,173.18,253.67Z"/></g><g id="Forma_5378" data-name="Forma 5378"><path class="cls-8" d="M142.41,144.79s-20.4-9.17-34.57,3c-10.19,8.74-10.72,24.8-10.72,24.8s.65,3.47,2.75,0,12.71-25.18,39.92-25.64C143.63,147,142.41,144.79,142.41,144.79Z"/></g><g id="Forma_5377_copia-2" data-name="Forma 5377 copia" class="cls-1"><path class="cls-2" d="M293.32,87.45c-19.13-21.12-38-2.31-38-2.31s-9.15-25-35.4-14-11.12,55.18,21.57,76.32C280.05,142.16,312.44,108.57,293.32,87.45Z"/></g><g id="Forma_5377_copia_2-2" data-name="Forma 5377 copia 2"><path class="cls-3" d="M271.54,64c-22.39-24.71-44.49-2.71-44.49-2.71S216.33,32,185.59,44.92s-13,64.54,25.28,89.27C256,128,293.94,88.7,271.54,64Z"/></g><g id="Forma_5379-2" data-name="Forma 5379"><path class="cls-4" d="M270.2,65.62c-9-9.76-17.84-12-25.22-11.25,16.61,4.35,25.59,23.83-1.65,44.4-19,14.33-52.3,9.92-61.05,5.63a96.79,96.79,0,0,0,28.85,28.79C255.21,127.32,292.13,89.52,270.2,65.62Z"/></g><g id="Forma_5381-2" data-name="Forma 5381" class="cls-5"><path class="cls-6" d="M213.34,56.61S207,44.87,190.94,53c-17.19,8.75,0,32,16.37,21.63C219.69,66.86,213.34,56.61,213.34,56.61Z"/></g><g id="Forma_5381_copia-2" data-name="Forma 5381 copia" class="cls-9"><path class="cls-6" d="M230.1,125.39c42.83-17.7,43.43-40.93,43.43-40.93C262.05,101.83,251.18,109.75,230.1,125.39Z"/></g><g id="Forma_5378-2" data-name="Forma 5378"><path class="cls-8" d="M208.84,50.29S194.76,44,185,52.37c-7,6-7.39,17.12-7.39,17.12s.45,2.39,1.9,0S188.26,52.11,207,51.78C209.68,51.82,208.84,50.29,208.84,50.29Z"/></g><g id="Forma_5377_copia-3" data-name="Forma 5377 copia" class="cls-1"><path class="cls-2" d="M603.4,90.81c-21.49-18.71-38,2.21-38,2.21s-12-23.77-36.81-9.7-4.5,56.12,30.47,73.23C596.72,146.7,624.89,109.51,603.4,90.81Z"/></g><g id="Forma_5377_copia_2-3" data-name="Forma 5377 copia 2"><path class="cls-3" d="M593.65,55.45C568.48,33.57,549.15,58,549.15,58S535,30.23,506,46.7s-5.26,65.63,35.69,85.64C585.82,120.82,618.82,77.33,593.65,55.45Z"/></g><g id="Forma_5379-3" data-name="Forma 5379"><path class="cls-4" d="M592.5,57.22c-10-8.62-19.13-9.8-26.37-8.18,13.65,4,23.26,23.39,6.51,47.27s-53.63,13.06-62.83,9.85a96.88,96.88,0,0,0,32.06,25.16C584.94,120.27,617.12,78.35,592.5,57.22Z"/></g><g id="Forma_5381-3" data-name="Forma 5381" class="cls-5"><path class="cls-6" d="M540.38,57.85S527.7,40,508.2,55.21c-19.94,15.53,6.21,51.49,27.36,35.72C554.46,76.85,540.38,57.85,540.38,57.85Z"/></g><g id="Forma_5381_copia-3" data-name="Forma 5381 copia" class="cls-7"><path class="cls-6" d="M598.05,75.53c-9.34,18.61-19.2,27.76-38.27,45.79C600.21,98.67,598.05,75.53,598.05,75.53Z"/></g><g id="Forma_5378-3" data-name="Forma 5378"><path class="cls-8" d="M505.48,90.05s-4.47-28.3,5.3-36.79C510.78,53.26,491.3,62.06,505.48,90.05ZM518.88,48s-4.17,1.54-2.18,4.05,4.94.5,5.61-.94S522.54,47.52,518.88,48Z"/></g><g id="Forma_5377_copia-4" data-name="Forma 5377 copia" class="cls-1"><path class="cls-2" d="M458,182.62c-29.88-27.06-53.82,2-53.82,2s-16.37-34-51.8-14.75-7.94,79.24,41,104.44C447,261.49,487.91,209.69,458,182.62Z"/></g><g id="Forma_5377_copia_2-4" data-name="Forma 5377 copia 2"><path class="cls-3" d="M454.06,120.85C416.81,87.14,387,123.4,387,123.4S366.53,81.1,322.35,105s-9.9,98.71,51.17,130.09C440.3,219.1,491.32,154.57,454.06,120.85Z"/></g><g id="Forma_5379-4" data-name="Forma 5379"><path class="cls-4" d="M452.28,123.49c-14.87-13.3-28.52-15.35-39.47-13.12,20.44,6.36,34.33,35.94,8.37,71.4-26.08,35.64-81.19,18.06-94.94,12.94a145.84,145.84,0,0,0,47.53,38.87C439,218.23,488.73,156.07,452.28,123.49Z"/></g><g id="Forma_5381-4" data-name="Forma 5381"><path class="cls-6" d="M370.43,122.15s-18.55-28.36-47.09-3.32c-30.59,26.85,15.47,81.74,43.63,51.07C388.27,146.71,370.43,122.15,370.43,122.15Z"/></g><g id="Forma_5381_copia-4" data-name="Forma 5381 copia" class="cls-7"><path class="cls-6" d="M460.09,151.24c-14.63,27.75-29.76,41.24-59,67.83C462.64,186.16,460.09,151.24,460.09,151.24Z"/></g><g id="Forma_5378-4" data-name="Forma 5378"><path class="cls-8" d="M334.5,110.92s-17.9,4.52-21.52,26.27a34.71,34.71,0,0,0,6.91,27.21s2.3,1.16,1.91-2.74c-.09-.82-4.75-29.33,12.17-47.55C336,112.12,334.5,110.92,334.5,110.92Z"/></g><g id="Forma_5377_copia-5" data-name="Forma 5377 copia" class="cls-1"><path class="cls-2" d="M660.4,219.73c-33.39-15.07-45.93,16.85-45.93,16.85s-23.66-24.83-48.9,1.74,15.33,70.86,64.71,79C673,291.13,693.8,234.8,660.4,219.73Z"/></g><g id="Forma_5377_copia_2-5" data-name="Forma 5377 copia 2"><path class="cls-3" d="M694.46,164.37C650.71,140,629.9,182,629.9,182s-29.35-36.55-66.84-3.32,12.62,98.24,79,115C703.22,263,738.21,188.77,694.46,164.37Z"/></g><g id="Forma_5379-5" data-name="Forma 5379"><path class="cls-4" d="M693.32,167.33c-17.42-9.58-31.13-8.5-41.26-3.86,21.27,1.58,41.41,27.22,24.2,67.56C659,271.58,601.53,266.89,587,265a145.39,145.39,0,0,0,54.89,27.1C701.75,262.48,736,190.81,693.32,167.33Z"/></g><g id="Forma_5381-5" data-name="Forma 5381" class="cls-5"><path class="cls-6" d="M613.58,184.47s-24.39-23.4-46.44,7.39c-23.65,33,33.41,76,53.83,39.84C636.43,204.34,613.58,184.47,613.58,184.47Z"/></g><g id="Forma_5381_copia-5" data-name="Forma 5381 copia" class="cls-7"><path class="cls-6" d="M707.15,192.56c-7.95,30.3-19.6,46.83-42,79.28C717.49,226,707.15,192.56,707.15,192.56Z"/></g><g id="Elipse_5417" data-name="Elipse 5417"><path class="cls-10" d="M590.23,182.44c-8.56-1.62-18.75,6.74-20.4,15.4-1.43,7.53,3.72,11.27,9.35,11,5.45-.26,11.83-4,15.44-10C598.74,192,597.8,183.88,590.23,182.44Z"/></g><g id="Forma_5378-5" data-name="Forma 5378"><path class="cls-8" d="M576.18,181.65s-16.35,8.43-15,30.4A34.69,34.69,0,0,0,574.05,237s2.49.61,1.23-3.09c-.27-.78-11.21-27.47,1.1-49C577.86,182.5,576.18,181.65,576.18,181.65Z"/></g></svg>