<svg id="Assets" xmlns="http://www.w3.org/2000/svg" viewBox="0 0 800 800"><defs><style>.cls-1{fill:#ff052c;}.cls-2{fill:#006a34;}.cls-3{opacity:0.74;}.cls-4{fill:#980113;}.cls-5{opacity:0.42;}.cls-6{fill:#553261;}.cls-7{fill:#9d0113;}</style></defs><g id="Forma_3902" data-name="Forma 3902"><path class="cls-1" d="M622.55,567.39c-61.67,23.83-215,108.92-215,108.92l277.57,24.6s53.48-13,59.73-69.57C754,548.27,684.22,543.57,622.55,567.39Z"/></g><g id="Forma_3905" data-name="Forma 3905"><path class="cls-2" d="M736.6,580.05c-15.1,1-33.58,4.6-48.7,15.1,0,0-3-34.25-83.23-20.3-20.93,9.21-47.25,22.14-73.79,35.7,7.46,1.75,21.66,4.6,35.45,4.63,19.95.05,61.93-2.69,100.84,48.49,0,0,44.58-29.36,74.76-17.68a85.79,85.79,0,0,0,2.89-14.65C747.31,608.81,744,592,736.6,580.05Z"/></g><g id="Forma_3906" data-name="Forma 3906" class="cls-3"><path class="cls-4" d="M555.79,663.67a783.58,783.58,0,0,1-117-4.45c-19,10.3-31.22,17.09-31.22,17.09l277.57,24.6a84.94,84.94,0,0,0,22.74-10.34C677.89,670.85,620.92,661,555.79,663.67Z"/></g><g id="Forma_3904" data-name="Forma 3904" class="cls-5"><path class="cls-6" d="M571.25,598.31c-35.81,31.39-127.35,77.06-134.48,80.6l50,4.42C515.68,656.19,571.25,598.31,571.25,598.31Zm146.63-35.69c18.14,47.21-36.3,71.53-36.3,71.53,20-54.88-8.44-66.76-8.44-66.76,23.67,22.53-29.79,97.57-33,100.49-35.72-4.41-132.82,9.84-132.82,9.84l-.76,7.37,178.55,15.82s53.48-13,59.73-69.57C748.91,594.4,737.37,573,717.88,562.62Z"/></g><g id="Forma_3900" data-name="Forma 3900"><path class="cls-1" d="M668.58,691.07c-50.73-12.37-197.26-21-303.58-24.59s-125.7-22.67-219.24-78.71c0,0-39-31.54-72-2.81s-16.53,33.52-3.87,40.76c0,0-49.58,116.92,179.9,151.79,234,35.54,404.8,18.58,405.47,17.56,0,0,45.38.65,21.43-41.46,0,0-2.23-3.77,16.51-16.16S719.31,703.45,668.58,691.07Z"/></g><g id="Forma_3902-2" data-name="Forma 3902"><path class="cls-2" d="M308.81,662.07c-35.7-5.05-59.95-14.34-88.63-30-16.6,5-38.19,15.94-33,37.91-15.05,4.76-83.49-6.22-88.28,50.77,17.45,15.39,43.49,30.06,82,41.69,15.82-28.56,43.07-71.82,110.65-60.84C291.57,701.61,287.39,668.9,308.81,662.07ZM98,634.15c-12.15-35.95,23.14-44.25,48.92-45.7l-1.13-.68s-39-31.54-72-2.81-16.53,33.52-3.87,40.76a69.88,69.88,0,0,0-4.26,20c17.48-9.62,38-3.48,38-3.48Zm298.66,79.41c-17.34,18.85-49.19,23.19-49.19,23.19,3,4.15-14.63,25-59.79,46.14,44.79,5.93,86.89,10,125.47,12.59,18.56-15.26,36.27-34,39.72-48.89,0,0,65.23-7.91,101-69.86-33.51-2.67-70.25-4.94-106.31-6.76C443.24,671.17,430.21,677,396.63,713.56Zm272-22.49-.91-.21c1.24,7.52.14,19.55-13.5,32.19-22.5,20.83-9.68,17.73-16.51,30.56-6,11.26-13.09,25.66-41.3,45.46,37.47-1.33,58.63-3.64,58.87-4,0,0,45.38.65,21.43-41.46,0,0-2.23-3.77,16.51-16.16S719.31,703.45,668.58,691.07Z"/></g><g id="Forma_3907" data-name="Forma 3907" class="cls-3"><path class="cls-7" d="M69.76,626a75.87,75.87,0,0,0-4.4,27.49c119.6,58.45,436.86,82.16,483.31,85.36-45.59-3.42-157.11-19.77-250.07-34.76C207.09,689.32,83.69,632.49,69.76,626ZM554.39,739.21l-5.72-.38Q551.73,739.06,554.39,739.21Zm134,1.51C671.2,746.56,636.5,753.45,573,749.4c0,0,59.88,13.3,104.5,5.76-.27-.51-.56-1-.85-1.55C676.66,753.61,674.83,750.52,688.43,740.72Z"/></g><g id="Forma_3901" data-name="Forma 3901" class="cls-5"><path class="cls-6" d="M668.63,691.09c56.85,43.45-17.27,41.79-17.27,41.79C437,764.22,88.13,633.45,88.13,633.45A13.94,13.94,0,0,1,78.3,620.8c-1.92-30.87,49.3-32,81.91-24.32q-6.93-4.2-14.45-8.71s-39-31.54-72-2.81-16.53,33.52-3.87,40.76c0,0-49.58,116.92,179.9,151.79q28.29,4.29,55.31,7.61c-89.65-34.24-175.48-77.18-175.48-77.18,34.82,11.88,150,20.73,150,20.73s265.2,29.78,314.12,41.81c22.92,5.64,24.67,17.18,20,27.86,26.54-1.32,41.24-3,41.44-3.27,0,0,45.38.65,21.43-41.46,0,0-2.23-3.77,16.51-16.16S719.3,703.46,668.63,691.09Z"/></g></svg>