<svg xmlns="http://www.w3.org/2000/svg" width="1000" height="1000"><path fill="#C256A8" d="M411 755a1382 1382 0 0 0 75 25 373 373 0 0 0 59 12c34 5 63-1 94-13 27-11 27-11 40-8 8 3 11 10 15 17l2 8c0 3 0 3 3 6l2 1 2-1c4-3 9-3 13-3l3-1c6 2 11 5 14 10l3 5 2 2a697 697 0 0 1 15 27l1 2c2 5 2 8 1 14l-3 5-1 3-6 6h-3v-4h-2l-10-10-1-4c-21 3-21 3-40 10l3 8a291 291 0 0 1 21 86c2 14 2 28 2 42H560v-26a573 573 0 0 0 0-72c-71-28-139-23-213-12l-16 2-6 1c-19 3-38 5-56-6l-10-10-7-6c-5-3-7-6-9-11 0-14 12-31 21-41l5-1-1-3c-1-11-1-22 6-31 8-6 15-9 24-12 13-5 25-11 37-18 5-4 10-6 16-8l2-1c20-5 40 3 58 10Z"/><path fill="#020102" d="M411 755a1382 1382 0 0 0 75 25 373 373 0 0 0 59 12c34 5 63-1 94-13 27-11 27-11 40-8 8 3 11 10 15 17l2 8c0 3 0 3 3 6l2 1 2-1c4-3 9-3 13-3l3-1c6 2 11 5 14 10l3 5 2 2a697 697 0 0 1 15 27l1 2c2 5 2 8 1 14l-3 5-1 3-6 6h-3v-4h-2l-10-10-1-4c-21 3-21 3-40 10l3 8a291 291 0 0 1 21 86c2 14 2 28 2 42H560v-26a573 573 0 0 0 0-72c-71-28-139-23-213-12l-16 2-6 1c-32 5-32 5-45-1h7c19 2 37-2 56-5l28-5h3a521 521 0 0 1 69-7c43-1 84 7 123 23 13 5 26 9 40 4 10-4 18-10 27-16a282 282 0 0 1 71-35c9-3 9-3 17-10l1-4c-6-7-14-8-22-9-18-1-30 1-43 12-5 4-5 4-8 4l-1 3c-3 2-6 4-9 4v2c-21 11-49 6-71 0-5-2-9-3-13-7l-1-4c2-4 4-7 8-9l10-1h4a196213844 196213844 0 0 1 31 2c-3 3-6 4-11 5l-9 3v2l4 1 2 1c15 5 35 3 49-3l8-5 2-2c7-4 12-10 15-17v-5l-2-1-3-2-3-1-5-5v-5l-3-8c-8-4-17-2-25 0a10609 10609 0 0 1-31 6c-30 6-63 2-93-5l-3-1a678 678 0 0 1-113-39l-2-1c-14-5-28-4-42 2l-14 9c-10 7-21 12-33 17-7 2-14 6-18 13a45 45 0 0 0-2 18c0 7 1 12 5 18 3 2 5 2 9 1l11-2c25-8 62-11 87 1 3 2 4 3 5 6l-1 7c-6 5-11 5-19 4-13-1-26-6-38-10h10c8 2 17 1 26 0-2-4-4-6-9-8-22-5-50-3-71 5-3 1-6 2-10 1-5-2-8-6-10-11-3-10-4-23 0-32 6-11 17-16 28-19 13-5 25-11 37-18 5-4 10-6 16-8l2-1c20-5 40 3 58 10Z"/><path fill="#C255A8" d="M652 893c9 5 12 15 16 24v2a235 235 0 0 1 13 58l2 23H566v-44c0-18 0-35-3-53a7667 7667 0 0 1 14 4c13 4 26 4 40 2 3 0 5 1 7 3 6 11 11 26 9 39l-4 9c-3-1-4-2-6-5l-2-4-1-2-5-19h-1a113 113 0 0 0 3 30c3 18 3 18 10 35l5 1c7-13 9-26 8-40v-3c0-14-1-28-6-42-2-4-2-6-1-10 5-6 11-11 19-8Z"/><path d="M411 755a1382 1382 0 0 0 75 25 373 373 0 0 0 59 12c34 5 63-1 94-13 27-11 27-11 40-8 8 3 11 10 15 17l1 7c1 5 4 8 8 12 3 3 4 5 4 9v3c-7 3-13 5-20 6-6 1-10 3-15 6l-4 1-10 7c-6 5-6 5-9 5l-1 3c-3 2-6 4-9 4v2c-21 11-49 6-71 0-5-2-9-3-13-7l-1-4c2-4 4-7 8-9l10-1h4a196213844 196213844 0 0 1 31 2c-3 3-6 4-11 5l-9 3v2l4 1 2 1c15 5 35 3 49-3l8-5 2-2c7-4 12-10 15-17v-5l-2-1-3-2-3-1-5-5v-5l-3-8c-8-4-17-2-25 0a10609 10609 0 0 1-31 6c-30 6-63 2-93-5l-3-1a678 678 0 0 1-113-39l-2-1c-14-5-28-4-42 2l-14 9c-10 7-21 12-33 17-7 2-14 6-18 13a45 45 0 0 0-2 18c0 7 1 12 5 18 3 2 5 2 9 1l11-2c25-8 62-11 87 1 3 2 4 3 5 6l-1 7c-6 5-11 5-19 4-13-1-26-6-38-10h10c8 2 17 1 26 0-2-4-4-6-9-8-22-5-50-3-71 5-3 1-6 2-10 1-5-2-8-6-10-11-3-10-4-23 0-32 6-11 17-16 28-19 13-5 25-11 37-18 5-4 10-6 16-8l2-1c20-5 40 3 58 10Z"/><path fill="#532247" d="m678 778 2 3 1 2 6 12c3 7 7 12 12 17 3 2 3 3 4 6l-4 1-25 8 2 2h-2c-7 3-12 7-17 11s-5 4-8 4l-1 3c-3 2-6 4-9 4v2c-21 11-49 6-71 0-5-2-9-3-13-7l-1-4c2-4 4-7 8-9l10-1h12c8 0 15 0 23 2-3 3-6 4-11 5l-9 3v2l4 1 2 1c15 5 35 3 49-3l8-5 2-2c7-4 12-10 15-17v-5l-2-1-3-2-3-1-5-5v-5l-3-8c-8-4-16-2-24 0l-14 2 10-5h2a2459 2459 0 0 1 29-11c7-3 17-4 24 0ZM681 865c4 3 6 7 7 12l1 3c10 28 14 57 17 87v2l1 31h-17l-3-17c-5-56-5-56-32-102l-1-1 12-8 2-1 13-6Z"/><path fill="#FCF1B0" d="m269 818 1 2c2 5 4 9 8 12l8 2v1l-3 1c-7 1-12 6-16 12-1 5-2 10-1 15l5 6 2 4c23 8 44 10 69 8 16-2 33-2 50-2v1l-10 2h-3l-17 3-30 5c-45 7-45 7-62-3l-12-11-6-5c-5-3-7-6-9-11 0-14 12-31 21-41l5-1Z"/><path fill="#532247" d="m716 799 3-1c6 2 11 5 14 10l3 5 2 2a697 697 0 0 1 15 27l1 2c2 5 2 8 1 14l-3 5-1 3-6 6h-3v-4h-2l-10-10-1-4 9-1c-13-6-31 0-45 3l7-4c12-3 12-3 21-11l1-4c-6-7-14-8-22-9l-21-1c3-2 4-3 8-3l3-1a2058878482 2058878482 0 0 1 17-4c-1-6-3-9-6-14v-2c5-3 9-4 15-4Z"/><path fill="#512145" d="M651 881c7 3 9 10 12 17a313 313 0 0 1 7 20l-1 6-1-3c-5-15-5-15-16-27h-10c-4 2-6 4-9 8 0 6 2 11 4 17a112 112 0 0 1 4 41c0 12 0 26-8 36l-4 1c-11-8-12-29-14-42v-2c-2-9-2-17-2-26l4 4v3c1 9 5 17 10 25h2c6-13 2-25-2-39-2-5-2-5-6-9l-12-1-3 1h-6l9-4c14-6 26-15 38-24l4-2Z"/><path fill="#C255A8" d="M670 879c4 1 6 3 8 6 9 14 12 31 15 48v2c3 21 5 42 4 64l-4 1h-3l-3-17c-6-44-6-44-20-86-3-6-4-9-2-15l5-3Z"/><path fill="#FEF2B1" d="m390 753 2 2a619803381 619803381 0 0 0-18 0 67 67 0 0 0-39 9 514 514 0 0 0-30 17c-11 5-17 12-21 23-1 4-2 7 0 11 3 4 5 6 9 8h28v1l-4 1c-9 1-18 3-26 6l-8 1c-5-3-7-7-9-12v-13c0-9 2-15 8-21 6-5 14-8 21-11 11-4 21-10 31-16 18-13 36-14 56-6Z"/><path fill="#542348" d="M576 835h12l16 1-11 4-3 1-3 1v2l4 1 2 1a73 73 0 0 0 55-7l5-2c-3 8-13 12-20 16-8 3-15 3-23 3h-3a131 131 0 0 1-30-3c-7-2-13-4-19-8l-1-3c5-6 11-7 19-7ZM628 898c7 26 12 54 8 82l-1 2c0 4-2 7-4 10l-4-3a114 114 0 0 1-7-28l-3-21a59 59 0 0 1 5 9l1 2 1 2 3 6h2c6-13 2-25-2-39-2-5-2-5-6-9l-12-1-3 1h-6l10-4 14-8 4-1Z"/><path fill="#010001" d="M389 830c2 4 3 6 3 10-1 3-4 4-7 6-17 3-36-4-51-10h10c8 2 17 1 26 0-2-4-4-6-9-8-17-4-36-2-53 0l1-3c23-4 59-9 80 5Z"/><path fill="#FEF3B1" d="m563 903 5 1 3 1 4 2-2 11-1 15v2l3 45 2 20h-11v-3a5970 5970 0 0 0 0-36c0-19 0-38-3-58Z"/><path fill="#040204" d="M671 828v2l-4 3-13 10-5 1-1 3c-3 2-6 4-9 4v2c-21 11-49 6-71 0-5-2-9-3-13-7l-1-4c2-4 4-7 8-9l10-1h12c8 0 15 0 23 2l-1 2h-3a1856 1856 0 0 0-25 0h-2c-6 0-12 0-17 5l-1 1c1 3 2 4 4 5a145 145 0 0 0 51 8c16 0 29-7 41-18 12-9 12-9 17-9Z"/><path fill="#020102" d="m632 913 3 9 1 3v3l1 3 1 9 1 4v22c0 19 0 19-3 26l-2 2-3 3-5-2c-8-10-9-27-11-40v-2c-2-9-2-17-2-26 3 2 3 2 4 5v6a615 615 0 0 1 3 15v3l4 19v2l5 14h2c9-20 5-43 2-64l-1-14Z"/><path fill="#020201" d="M268 819c-1 9-5 16-9 23a1004 1004 0 0 0-10 21l3 4 2 2 2 2a886 886 0 0 1 6 9l-10-9c-5-3-7-6-9-11 0-12 9-23 15-33l2-2 1-3 1-2 6-1Z"/><path fill="#0C050A" d="m716 799 3-1c6 2 11 5 14 10l3 5 2 2a697 697 0 0 1 15 27l1 2c2 5 2 8 1 14l-3 5-1 3-6 6h-3c1-4 2-7 5-10 4-5 6-7 5-14l-4-9-2-2c-8-15-8-15-19-29l-1-3c-7-4-15-2-22-1 4-4 7-5 12-5Z"/><path fill="#532247" d="M363 828c7 0 15 2 21 6l1 2-1 4c-6 2-10 2-16 1h-3l-14-3v-1l19-1c-3-5-3-5-7-8Z"/><path fill="#2B291C" d="M337 889v2c-43 7-43 7-57 1h7c13 1 26 0 40-2l10-1Z"/><path fill="#1E0C1A" d="M671 828v2l-5 3-11 9-2-1c4-6 10-13 18-13Z"/><path fill="#171610" d="M337 889v2l-19 2 1-2 6-1 3-1h9Z"/><path fill="#0A0409" d="M671 828v2l-9 5c2-4 4-7 9-7Z"/></svg>