<svg xmlns="http://www.w3.org/2000/svg" id="Assets" viewBox="0 0 800 800"><defs><style>.cls-1{fill:#ff052c}.cls-2{fill:#006a34}.cls-3{opacity:.74}.cls-5{opacity:.42}.cls-6{fill:#553261}</style></defs><path id="Forma_3902" d="M623 567c-62 24-215 109-215 109l277 25s54-13 60-70c9-83-61-87-122-64Z" class="cls-1" data-name="Forma 3902"/><path id="Forma_3905" d="M737 580c-15 1-34 5-49 15 0 0-3-34-83-20-21 9-48 22-74 36 7 1 22 4 35 4 20 0 62-3 101 49 0 0 45-30 75-18a86 86 0 0 0 3-15c2-22-1-39-8-51Z" class="cls-2" data-name="Forma 3905"/><path id="Forma_3906" d="M556 664a784 784 0 0 1-117-5l-31 17 277 25a85 85 0 0 0 23-10c-30-20-87-30-152-27Z" class="cls-3" data-name="Forma 3906" style="fill:#980113"/><g id="Forma_3904" class="cls-5" data-name="Forma 3904"><path d="M571 598c-36 32-127 77-134 81l50 4c29-27 84-85 84-85Zm147-35c18 47-36 71-36 71 20-55-9-67-9-67 24 23-30 98-33 101-36-5-133 10-133 10v7l178 16s54-13 60-70c4-37-8-58-27-68Z" class="cls-6"/></g><path id="Forma_3900" d="M669 691c-51-12-198-21-304-25s-126-22-219-78c0 0-39-32-72-3s-17 33-4 41c0 0-50 117 180 152 234 35 405 18 405 17 0 0 46 1 22-41 0 0-3-4 16-17s26-34-24-46Z" class="cls-1" data-name="Forma 3900"/><path id="Forma_3902-2" d="M309 662c-36-5-60-14-89-30-16 5-38 16-33 38-15 5-83-6-88 51 17 15 43 30 82 41 16-28 43-71 111-60 0 0-5-33 17-40ZM98 634c-12-36 23-44 49-46h-1s-39-32-72-3-17 33-4 41a70 70 0 0 0-4 20c17-10 38-4 38-4Zm299 80c-18 18-50 23-50 23 3 4-14 25-59 46 44 6 87 10 125 12 19-15 36-34 40-48 0 0 65-8 101-70l-106-7c-5 1-18 7-51 44Zm272-23h-1c1 7 0 19-14 32-22 21-9 18-16 31-6 11-13 25-42 45 38-1 59-4 59-4s46 1 22-41c0 0-2-4 16-17s26-34-24-46Z" class="cls-2" data-name="Forma 3902"/><path id="Forma_3907" d="M70 626a76 76 0 0 0-5 27c120 59 437 83 484 86-46-4-157-20-250-35-92-15-215-72-229-78Zm484 113h-5 5Zm134 2c-17 6-51 12-115 8 0 0 60 14 105 6l-1-1s-2-3 11-13Z" class="cls-3" data-name="Forma 3907" style="fill:#9d0113"/><g id="Forma_3901" class="cls-5" data-name="Forma 3901"><path d="M669 691c56 44-18 42-18 42C437 764 88 633 88 633a14 14 0 0 1-10-12c-2-31 50-32 82-25l-14-8s-39-32-72-3-17 33-4 41c0 0-50 117 180 152l55 7c-90-34-175-77-175-77 34 12 150 21 150 21s265 29 314 41c23 6 24 18 20 28l41-3s46 1 22-41c0 0-3-4 16-17s26-34-24-46Z" class="cls-6"/></g></svg>