<svg xmlns="http://www.w3.org/2000/svg" width="1000" height="1000"><path fill="#FE0000" d="M354 807c18 5 36 8 54 10 11 0 11 0 13 2h14a4840 4840 0 0 0 33 1v2l3-1c4 0 5 1 8 4 9 6 19 6 29 5 7-2 14-3 19-9l2-2 1-1 2 1h8c12-4 24-3 36-3 17 0 33-1 49-5l3-1 20-5c16-4 30-1 43 7a230 230 0 0 1 33 26l17 16 1 1c8 8 15 15 21 24l1 2c6 7 10 15 14 23l7 12c2 3 3 6 2 10-2 3-3 4-6 5s-5 2-7 5a182 182 0 0 1-83 39l-20 1 1 3 1 21H326l-1-18-7 2c-28 2-54-14-75-32-30-27-30-27-31-43 1-15 18-32 28-43l4-4 19-19 2-2c26-23 53-42 89-34Z"/><path fill="#010000" d="M354 807c18 5 36 8 54 10 11 0 11 0 13 2h14a4840 4840 0 0 0 33 1v2l3-1c4 0 5 1 8 4 9 6 19 6 29 5 7-2 14-3 19-9l2-2 1-1 2 1h8c12-4 24-3 36-3 17 0 33-1 49-5l3-1 20-5c16-4 30-1 43 7a230 230 0 0 1 33 26l17 16 1 1c8 8 15 15 21 24l1 2c6 7 10 15 14 23l7 12c2 3 3 6 2 10-2 3-3 4-6 5s-5 2-7 5a182 182 0 0 1-83 39l-20 1 1 3a102 102 0 0 1 0 8l1 3v10h-7v-3a571 571 0 0 0-12-95l1-6v2l1 2 3 1 4 7 1 2a231 231 0 0 1 11 29c4 10 8 19 19 24 17 5 42-11 57-19l3-2 16-10 4-1 1-2 1-3 4-1c-1-10-5-16-10-24l-3-7-14-17-2-3-7-7-3-3c-25-28-58-45-96-47h-2c-11-1-22 1-32 4l-19 1h-6l-12 1h-3c-19 0-19 0-37 3l-2 4c-11 9-25 10-39 9-6-1-11-4-16-8-7-5-12-7-21-5h-3a235 235 0 0 1-104-12l-2-1c-15-3-31-1-43 7a276 276 0 0 0-48 38l-2 2c-13 12-24 26-33 42l-1 2c-2 4-1 7 0 11 5 10 12 19 19 28l2 2c11 15 35 31 53 33 5 1 9 0 13-3 14-12 18-31 23-48a317 317 0 0 1 12-35h1c-1 7-1 13-3 19-5 30-6 59-6 89h-8l-1-18-7 2c-28 2-54-14-75-32-30-27-30-27-31-43 1-15 18-32 28-43l4-4 19-19 2-2c26-23 53-42 89-34Z"/><path fill="#010000" d="M342 892h1c-1 7-1 13-3 19-5 30-6 59-6 89h-8l-1-18-7 2h-10c-10 0-19-3-28-8l1-2 2 1c6 2 12 5 19 3 18-10 23-33 28-51a317 317 0 0 1 12-35Z"/><path fill="#FEE778" d="m315 816-2 2a249 249 0 0 0-43 33c-16 14-34 36-37 59-1 16 9 31 19 44l-1 2c-13-10-30-29-33-46-1-17 23-38 34-49a227 227 0 0 1 27-24l24-17 2-2 2-1 2-1h6Z"/><path fill="#750000" d="M657 900c4 3 5 6 7 11l1 2 3 6a4948 4948 0 0 0 10 25c3 7 5 13 12 17l11 4v1l-9 1-2 1-20 2v-3l-12-63-1-4ZM682 814l2 1a93 93 0 0 1 20 13c11 9 11 9 12 12a154 154 0 0 0-83-24l15-6 3-1c11-3 20 0 31 5ZM335 913v10l-1 4v2c-4 15-6 30-7 45-8 3-16 5-25 5l6-5c11-9 15-25 19-37l5-15 2-5 1-4Z"/><path fill="#FFFBFB" d="M549 900h2a1415 1415 0 0 1 1 14l-1 1-1 10c0 4 0 6-2 9l-4 1-1-7-2 1-2 2-2 2c-4 3-9 3-14 2l-5-4c-1-5 0-9 3-13 3-3 4-5 9-6l5 1 1 2c-1 5-1 5-4 6l-9 1v7c3 2 6 1 9 1l7-4 3-2c2-2 3-4 3-7h-7l1-3 8-1v-4l2-9Z"/><path fill="#FFFCFC" d="m572 894 2-1 5 3 1 3 4 5c8 11 11 22 11 36-2-2-4-4-4-7l-1-2-1-3c-4-15-4-15-14-27v2a135 135 0 0 1-3 21l-4 8-2 1-1-4 2-12 1-3a862 862 0 0 1 5-16l-7-1h-4c2-4 6-3 10-3ZM475 884c8 8 11 20 14 31v3l1 3 3 3 1-2c1-3 3-5 6-7l1-1a831 831 0 0 1 30-28l2 1-2 2a6390 6390 0 0 0-42 42c-4-6-5-13-6-20l-6-21-2-6ZM638 921l3 4 1 2 1-1c2-2 2-2 5-2l4 1c2 3 1 5 1 9l-5 10h-1v-14l-6 7c-2 3-2 3-6 4l1-15-6 8-3 4h-4c1-5 2-10 5-15l2 4 1-1 2-2 1-2 4-1Z"/><path fill="#FFFDFD" d="m395 895-1 2-5 1c-5 0-9 1-12 4l-4 10a1996 1996 0 0 1-8 24h13l1 2a268 268 0 0 1-29 5v-2h2l9-6a124 124 0 0 0 6-16l1-3 8-15-15 2 3-3h2l3-1 2-1h3l21-3Z"/><path fill="#FFFCFC" d="m453 915 2 1 1 5-5 3-4 5h2l3-1h3l5 1-4 5c-5 2-9 2-15 1l-2-6c2-5 3-8 7-11l3-2 4-1Z"/><path fill="#FFECEC" d="m416 921 3 5c-1 5-3 8-7 11-4 2-7 2-11 1l-1-1c0-6 2-8 5-13 4-3 6-4 11-3Z"/><path fill="#FFFCFC" d="m619 921 4 2-1 3 1 2-2 8h-2l-1-5-2 2c-4 3-6 3-11 3-1-4-1-6 1-10 4-5 7-6 13-5ZM409 893l1 2-2 6-1 2a1168 1168 0 0 1-11 30h2l1 4c-4 1-6 1-9-1 0-7 2-11 5-17l1-2a848 848 0 0 1 6-12l7-12ZM426 918h2v10l2-2 3-2 3-2 3-2c1 4 0 7-3 10l-6 6-7-2c-1-6 0-11 3-16Z"/><path fill="snow" d="M606 891c2 3 0 6 0 10l-1 2a1277 1277 0 0 1-3 17l-1 3-4 14c-2-4 0-9 1-13v-3c5-27 5-27 8-30Z"/><path fill="#FFFDFD" d="M518 912v5c-2 4-4 7-8 10l-1-4c2-4 5-8 9-11Z"/><path fill="red" d="m620 924-1 4-8 1c2-5 4-5 9-5Z"/><path fill="#5D0000" d="M270 970c4 0 7 1 10 4l-1 2-9-5v-1Z"/></svg>