<svg xmlns="http://www.w3.org/2000/svg" width="1000" height="1000"><path fill="#205939" d="m332 805 7 1h2l7 1a5641 5641 0 0 1 84 11l3 1a1397 1397 0 0 0 33 0h3a383 383 0 0 1 10 0c4 1 5 2 7 5l2 5 1 2 5 16 1 3 1-2a76 76 0 0 1 9-20l7-8h6a711 711 0 0 0 7 0l21-1a1678 1678 0 0 1 39-3l13-1 8-1 3-1h3l3-1a1878 1878 0 0 0 23-5l17-1v-2h2l4-1c13-1 28 12 38 19a1205 1205 0 0 0 32 24 226 226 0 0 1 36 35c26 28 26 28 27 42-2 6-7 10-12 14l-2 2 3 12 1 2a2318 2318 0 0 0 16 42l1 2 1 3H192l5-13 1-3 1-2a285517528 285517528 0 0 0 24-54c11-24 11-24 15-28l-1-2c-3-4-5-7-6-11 6-27 39-53 61-66a288 288 0 0 1 13-8c20-11 20-11 27-8Zm-93 98v3l3-1-1-2h-2Z"/><path d="M663 803c13-1 27 12 38 19a1205 1205 0 0 0 32 24 226 226 0 0 1 36 35c26 28 26 28 27 42-2 6-7 10-12 14l-2 2 3 12 1 2a2318 2318 0 0 0 15 39l1 3 1 2 1 3H669l-5-44-9-48-1-13h2c6 14 11 27 15 42 2 6 4 13 10 17 18 5 45-15 60-24 17-8 17-8 31-19-5-9-10-18-17-26l-2-3a268 268 0 0 0-75-66l-4-4-3-1-2-2-7-3 1-3Z"/><path fill="#010201" d="m389 814 12 13 2-1 2-2 2-2 5-2c-2 4-5 6-8 9a108 108 0 0 0 17 19l2-2 3-1 3 1-5 4 7 9 1 2a1400 1400 0 0 0 16 15l9-6c-1 4-3 6-5 9l22 22 8-7 1 2-6 8 2 2 2 2 2 2 2 4 2 1 5 3c3 2 5 2 9 2l7-5 2-2a324 324 0 0 0 39-44l-1-2-2 2c-7 5-7 5-11 5h-3l-5-9-6 8-2 3-1 2-2 2-1 4 4 5c2 4 3 6 3 10-5-3-7-6-9-11v-2l-2 1c-8 8-8 8-12 9-5-2-9-5-12-9l-2-2-6-8-1 2-3 3h-2l-15-16c-4-6-9-11-15-15a303 303 0 0 1-15-15c-5-4-8-9-10-15v-2a10191 10191 0 0 1 27 0h36c4 1 5 2 7 5l2 5 1 2 5 16 1 3 1-2a76 76 0 0 1 9-20l7-8h6a711 711 0 0 0 7 0l21-1h9c11 0 22-1 32-3l8-1 1 3-2 2a864 864 0 0 0-11 9c-8 7-14 15-20 24a183 183 0 0 1-22 28l-1 1-8 11c-21 25-21 25-35 31-5 0-7-1-11-4l-4-4-2-2a488 488 0 0 1-34-32l-17-16a2753 2753 0 0 0-26-28c-16-19-16-19-16-24Z"/><path fill="#FEFEFE" d="m243 905 5 6a244 244 0 0 0 76 65v24H199l6-18 1-3a2649 2649 0 0 1 22-51c10-23 10-23 15-23Z"/><path fill="#000100" d="M331 804v2l-3 1a228 228 0 0 0-63 45c-9 8-9 8-15 18a58 58 0 0 0 7 10 155 155 0 0 0 18 22c8 9 18 17 27 24l3 2 16 10 3 1 5 3 1-3a4761 4761 0 0 1 5-26v-2l5-15h3c-1 14-4 27-6 41-6 26-6 26-7 53v10h-6v-2c1-7 2-15-1-22-5-6-12-9-19-12a79 79 0 0 1-14-10 194 194 0 0 1-21-18c-10-9-18-19-26-30l-4-3v2l-5 11-1 3a2891 2891 0 0 1-8 20l-2 3-15 37-2 3-7 18h-7a167 167 0 0 1 12-29 48383 48383 0 0 0 19-43c11-24 11-24 15-28l-1-2c-3-4-5-7-6-11 6-27 39-53 61-66a288 288 0 0 1 13-8c19-11 19-11 26-9Z"/><path fill="#FEFEFE" d="M776 943h2l1 3a9363 9363 0 0 0 16 47l2 7H676l-1-14 5-1c32-5 64-17 90-37l3-2 3-3ZM591 821l-2 2a424 424 0 0 0-35 33l-4 3-2 2-11 7-1-2c-5-13-11-25-18-37l-1-3h4a6222 6222 0 0 0 64-5h6ZM512 827l8 15 1 4 2 3 1 3 1 8-3 5-10 13c-3 6-7 10-11 15-7-4-11-8-16-14l-4-4-2-4v-6l1-4v-2a831 831 0 0 1 5-30c6 6 6 17 7 25v3l1 8h4l4-13c3-9 6-17 11-25ZM424 822h3c18 3 35 3 53 3a1043 1043 0 0 1-7 49l-10-11a252 252 0 0 0-35-35l-2-2-2-4Z"/><path fill="#1F5839" d="m280 914 10 7c8 8 17 14 26 21l2 1 10 5a1327 1327 0 0 1-1 11c-1 7-1 7-3 10l-7-4-3-2-5-3c0-4 1-5 3-8l2-2 1-2-1-1-7 10c-4-1-7-3-10-6l-6-4 7-14-7 9-2 3-19-16 7-9 3-6ZM740 935l9 11 2 3v5c-1 3-3 3-6 5l-2 1-3 1-3 2-13 4a1806 1806 0 0 1-5-10v-2l-1-2-1-5 23-13Z"/><path fill="#03361A" d="M708 836c25 12 50 36 67 58l2 2 2 2 1 2 1 4-7 7h-2l-1-3-16-23-2-3c-13-15-26-30-42-42l-3-4Z"/><path fill="#1F5839" d="M773 914c2 4 3 6 3 10-2 6-6 12-9 17l-1 2-9 9h-2l-3-5-10-13 1-1 30-19Z"/><path fill="#20593A" d="M246 872h2l4 7c4 6 7 12 12 17l-2 2-10 11-6-4-1-2-2-2-1-2c-6-7-6-7-6-11s2-7 5-10l1-2 4-4Z"/><path fill="#1F5839" d="m715 950 4 20a3255 3255 0 0 1-13 5h-2l-3 1-5 1-2-7-1-2-2-9 3-1 5-2 2-1 9-4 5-1Z"/><path fill="#FEE779" d="M243 905c3 3 3 3 3 6l-2 1c-11 5-17 27-21 37l-12 37-3 9-2 5h-7l11-28a11288 11288 0 0 0 18-44c10-23 10-23 15-23Z"/><path fill="#1F5839" d="m264 898 9 7 2 2 4 7-2 2-8 11c-6-4-11-9-16-15 1-4 3-7 7-10l2-2 2-2Z"/><path fill="#B6B6B6" d="m705 980 2 1-2 1c-6 6-8 10-10 18h-19l-1-14 6-1 7-1 4-1 4-1h3l6-2Z"/><path fill="#FDE778" d="M339 919h1l-2 21-3 60h-5c-10-20 5-60 9-81Z"/><path fill="#FDE678" d="m331 805 1 2-3 2c-22 11-41 25-59 42l-2 2c-7 6-13 13-15 22l-4-4c0-6 7-10 10-14l4-4c18-19 43-39 68-48Z"/><path fill="#B6B6B6" d="M305 965a60 60 0 0 1 14 7l5 4v24h-7v-3c-1-13-5-22-12-32Z"/><path fill="#03361A" d="m659 904 5 10 1 2 6 21c1 6 4 13 9 17l2 1 4 1c-3 2-6 3-10 3l-3 1h-2l-1-3a5330 5330 0 0 0-11-53Z"/><path fill="#02361A" d="m782 905 11 15c-2 4-4 6-8 9l-1-2c-2-5-5-10-9-14l3-3 2-2 2-3Z"/><path fill="#B5B5B5" d="M485 829c3 3 3 5 4 9l-1 1c-3 15-5 28 0 42l-3-3-2-1-4-4c0-9 2-19 4-29a8296 8296 0 0 0 2-15Z"/><path fill="#FEE778" d="M246 872h2l5 10-3 1c-4 1-4 1-6 4l-1 12c-7-6-7-6-7-11 0-4 2-7 5-10l1-2 4-4Z"/><path fill="#1F5839" d="M687 960c2 3 3 6 3 10l1 2v7h-6c-4-3-6-6-7-11 2-4 3-6 7-7l2-1Z"/><path fill="#B6B6B6" d="m512 827 5 9 1 2 1 6h-4c-3 0-4 0-7 2l-2 2-4 4c2-9 6-17 10-25Z"/><path fill="#03371B" d="m776 921 4 7 1 3 1 2c-6 6-12 10-19 14 1-4 3-7 6-11l7-15Z"/><path fill="#03361A" d="m682 963-2 2v6c1 4 3 6 6 9h-12l-2-16c7-2 7-2 10-1Z"/><path fill="#1D5236" d="M559 854c0 4-1 4-3 7l-1 2-2 2h-3l6-8 2-2 1-1Z"/></svg>