<svg xmlns="http://www.w3.org/2000/svg" width="1000" height="1000"><path fill="#FE7000" d="M331 804a1296071530 1296071530 0 0 0 39 9c15 4 29 4 44 4l26 1a352 352 0 0 0 47 3h2l9-1h13a7464 7464 0 0 0 28-1 496 496 0 0 0 110-12l11-3c20-3 44 14 59 25a269 269 0 0 1 50 45l3 3c32 36 32 36 31 51l-4 5-9 8c-32 28-73 41-115 40l1 6v13H325l-2-11-3 1c-25 5-51 1-75-5l-9-2c-11-2-20-7-28-14l-3-2-5-6-2-2c-2-5-2-9-1-13 7-21 20-39 34-56l2-3a335 335 0 0 1 34-38 111 111 0 0 1 16-15 201 201 0 0 1 41-30h7Zm-27 20-2 2-3 3-2 2-11 10-4 4 10-8a2962 2962 0 0 1 14-12l-2-1Z"/><path fill="#010100" d="M417 861c0 4-2 7-4 10l-2 2a1124 1124 0 0 1-4 10c4-2 8-2 12-2h2a775 775 0 0 1 24 0l2 4a129 129 0 0 1-21 18l-2 1-8 7c8 7 21 8 31 10v-2c1-3 1-6 4-9l7-4 7-4 1-1 14-8 1-1c4-3 7-6 9-10l-8 8-5 3-12-2c1-7 3-12 8-18l2-2c3-4 5-6 10-7l-2 2-7 10-2 3-3 6c3 0 5 1 8-1l3-4 9-3c2 2 3 3 3 5 0 6-5 9-9 13l-31 19v14l6-1a301 301 0 0 1 38-3l7-1 2-6 1-3 1-2-2 1-11 2-3 1-4 1h-3l-8 1 1-6 9-6a1044 1044 0 0 0 8-5c7-5 16-12 17-21 1-4 0-6-2-9-3-4-7-6-12-7h-13c5-4 13-4 19-3 7 2 10 5 14 11 2 6 2 10-1 16-5 9-12 16-21 21l14-1c3 5 3 6 2 12l-1 4c-1 4-3 5-6 7l-12 1h-2a2123 2123 0 0 1-44 2l-1-6-2 1a1818 1818 0 0 1-30 10h-2c-6 2-9 2-14 0l-4-3-2-2-2-2-3-3-3-2v2c-1 4-3 5-5 8l-9 1a199938415 199938415 0 0 0-24 0l2-10 2-7 8-28 1-4 1-3 2-10 37-11 3-1 14-3Z"/><path d="m330 804-13 12-23 18-3 2-21 21-1 1a296 296 0 0 0-20 21c-15 18-32 38-42 60 2 6 11 10 17 13 13 6 26 9 40 12l3 1c13 2 27 2 41 3h2a1036 1036 0 0 0 15 2v-3c0-7 1-13 3-19v-2c3-17 7-35 14-50h1l-4 23-3 15-2 9c-2 9-2 18-2 27v30h-7l-2-11-3 1c-25 5-51 1-75-5l-9-2c-11-2-20-7-28-14l-3-2-5-6-2-2c-2-5-2-9-1-13 7-21 20-39 34-56l2-3a335 335 0 0 1 34-38 111 111 0 0 1 16-15c36-34 36-34 47-30Z"/><path fill="#010000" d="M665 804c29 1 60 27 80 47l5 4a212 212 0 0 1 22 22c32 36 32 36 31 51l-4 5-9 8c-32 28-73 41-115 40v3l1 10v6h-7v-2c-2-30-8-60-14-89v-3l-1-3v-7a8722187595 8722187595 0 0 1 8 21l1 3 9 42c45-1 84-17 119-45-12-28-40-55-64-74l-3-2c-9-8-19-14-29-20l-2-1c-9-6-18-10-28-14v-2Z"/><path fill="#FEFEFE" d="M413 865c0 4-3 7-6 10l-3 3-2 2-8 11-2 2-2 6c7-1 11-4 16-9s5-5 9-5h14l9 1-17 14c-5 3-9 6-12 11v4l2 1 9 2 2 1 17 6c-5 3-10 4-16 6l-3 1-4 1-3 1-8 1-3-3c-5-5-9-9-15-11l-4 3-1 3c-2 2-3 4-7 5h-9l-3-1h-8l1-3c3-15 7-31 8-46l4-6 4-1 3-1 3-1a5692893156 5692893156 0 0 0 35-8Z"/><path fill="#010000" d="M424 817h2a17995 17995 0 0 0 63 4l9-1h10l4-1h49c-2 8-10 15-17 20l-3 1-1 2-5 5c-4 1-6 2-10 1a57 57 0 0 1-11-9c-5-4-9-10-13-16-3 4-5 6-6 11l-5 2c-4-1-5-3-7-7l-2-3-2-2-5 9-2 3a2169 2169 0 0 0-4 10l-1 2c-1 3-2 5-5 7-4 1-6 1-10-1l-5-5-1-2-6-5a1899 1899 0 0 0-7-8l-2-1c-7-8-7-8-7-13v-3Z"/><path fill="#FEFEFE" d="M587 867a1334 1334 0 0 0 19 1c-1 4-3 6-6 9l-19 28a374 374 0 0 1-7 12h2c18 0 18 0 22 2l-3 10-1 3-1 2-19-1c-13-2-27-3-41-3l3-8 1-3 1-2v-2l2-3 10-1c7-1 10-5 14-10 4-6 7-11 8-18l-11 7c-3 2-4 2-7 2l-9-2v-3a109 109 0 0 1 10-9l2-1 4-4c6-9 16-7 26-6Z"/><path fill="#FDFDFD" d="M508 866c4 3 6 7 6 12 0 7-6 13-11 18l-12 9-2 2-10 5-1 6a296392496 296392496 0 0 0 22-5h3l6-1-1 5-1 3c-1 3-1 3-4 5l-7 1h-2a1121 1121 0 0 1-41 3v-7l-1-2 1-6 8-5 4-2 2-2c15-8 15-8 26-20v-5l-4-2-4 2-2 1-5 3c-3 3-5 2-9 2 11-20 11-20 17-22 8-2 15-2 22 2Z"/><path fill="#020100" d="M583 864h2a1544 1544 0 0 1 17 0h3c5 0 5 0 7 2 0 5-3 8-6 12-7 8-12 17-18 26l-3 3-1 3-4 4h12l10 1c1 2 2 4 1 7-1 5-2 12-5 17-6 4-15 2-22 1h-3a2980 2980 0 0 1-18-2l-15-2h-5c-5-1-5-1-7-3l1-7 1-3 1-3 1-3 5-10h17l1-2 5-8 2-3 2-2-2 2-12 1h-3l-6-1h-3l-7-1c0-3 1-5 3-7l2-1 2-2 2-1 7-4 6-4 2-2 3-1 2-2 4-1 1-3 18-1Zm-27 13-7 7-3 2-2 2 4 3h13l4-4 7-4c-2 10-8 20-16 27l-10 2h-6l-2 5-1 2-4 11h2c14 0 29 1 43 3h4l3 1h8l3-6 1-3 1-6c-7-3-17-2-24-2 2-7 6-12 11-18l2-3 18-24 1-4a536 536 0 0 0-21-1c-14-2-20 0-29 10Z"/><path fill="#010000" d="M489 937c3 3 4 4 4 9l-2 6v-4l-3-6c-7-2-13-1-20 2-11 6-19 13-24 26v7c2 3 5 3 8 4 9 1 15-3 22-9l6-1 1-2c1-3 3-4 6-5 4 0 6 2 9 4l1-2c3 1 3 3 4 5l2-2c3-4 4-5 9-5l5 1 1 5h2l1 4c-3 5-5 8-10 10h-8l-5-5-2 2c-4 4-8 4-13 4-4-1-5-2-6-6l-1-2-3 3c-7 6-15 8-24 7-4 0-7-1-10-4-3-5-3-9-2-15 4-12 13-21 23-27 9-5 19-9 29-4Z"/><path fill="#FD7000" d="m204 944 2 2c24 24 66 29 98 29l20-1v10c-32 6-80 1-109-17l-7-6-3-2-5-7 4-8ZM792 919l7 10c-22 17-45 32-73 39l-2 1c-16 4-33 5-50 5l-1-5h3c41-1 86-18 114-48l2-2Z"/><path fill="#FE7000" d="M426 818h3l49 3-1 2-9 12-2 3-2 2-3-2-19-14 7 9 11 12v2c-5-1-7-4-10-7-6-5-11-10-18-14l-6-8Z"/><path fill="#020100" d="m557 942 5 1c2 4 2 5 1 9-4 6-8 7-14 9-6 1-8 4-11 9l-3 9c7 0 11 0 17-3l6-1c0 3-1 4-3 6-7 4-14 6-22 4-4-1-4-1-5-4 0-6 2-11 5-16l2-5h3l1-2c3-5 7-9 12-13h3c-1 5-3 7-6 11 5-2 5-2 9-6v-8Z"/><path fill="#FE7000" d="m548 819-9 6-3 2-3 2-3 1-9 6-7-5-2-1-8-6c-2-2-3-3-6-3v-1l50-1Z"/><path fill="#010000" d="M400 948c3 3 3 5 3 9l-6-3c-7-1-14 0-20 3l-4 4h3l4 1h3l9 4 1 8c-3 5-6 9-12 11-5 1-9 2-14 0-4-3-4-3-5-6v-7h2l1 3c2 4 3 5 6 7 7 1 12-1 17-5 3-3 2-5 2-9-6-3-11-3-18-4h-3l-2-3c4-7 7-10 15-13 6-1 12-2 18 0ZM415 964l3 2 1-2h2c2 4 2 7 1 11l-6 7c-4 1-7 2-11 0-3-3-3-5-2-9 0-4 2-5 5-8l7-1Z"/><path d="m626 964 1 3c-5 5-10 8-16 11l-3 1c-5 3-9 5-15 4 3-8 14-12 21-15l2-2 3-1 2-1h5Z"/><path fill="#020100" d="M479 821h20c0 4 0 5-3 8v3l-4 4-5-1-5-6-1-2-3-4 1-2Z"/><path fill="#010000" d="m613 951 5 1c0 3-1 5-3 7-8 6-17 13-27 16 1-4 4-6 6-8l3-3 12-9 4-4Z"/><path fill="#FC6F00" d="M549 819h10l-12 11-7 6c-4 3-7 4-12 4v-2l7-5 14-11v-3Z"/><path fill="#010000" d="M637 978v2l-20 8h-2c-4 2-8 2-12 2v-2l22-8h3l9-2Z"/><path fill="#FE7000" d="M481 821h16l-5 8-8-5-2-1-1-1v-1Z"/><path fill="#F86E00" d="m492 968 2 1c0 3-1 5-3 7l-4 1-2-1c2-8 2-8 7-8Z"/><path fill="#F96E00" d="m514 969 2 1c-1 3-1 5-4 7h-5c3-8 3-8 7-8ZM412 967l5 1-2 6-5 1c0-4 0-5 2-8Z"/><path fill="#080300" d="m594 989 4 3-2 3h-5l1-5 2-1Z"/><path fill="#FFFEFE" d="M445 997v3h-8c2-3 4-3 8-3Z"/><path fill="#010000" d="M583 976h2l1 4-5 1 2-5Z"/></svg>