<svg xmlns="http://www.w3.org/2000/svg" width="1000" height="1000"><path d="M184 549c17 14 33 32 42 53l1 2c5 14 3 28-3 41l-1 3c-5 11-11 23-18 34l-2 2c-2 5-5 8-9 12-1-4 0-6 2-10 8-18 6-35 0-53-5-12-11-23-20-33l-2-2a70 70 0 0 0-34-21h-14c-2 4-2 9-2 13v3c0 34 21 61 42 87 13 17 26 35 24 58-3 25-18 44-37 60-13 10-27 17-40 24a1053 1053 0 0 0-17 9c-5 15 1 32 8 46v-3c3-16 8-29 21-39 25-17 56-19 85-14 23 4 44 12 65 22l4 1 3-3c11-14 27-27 43-35l4-3 27 3a783 783 0 0 0 89 14h14l41-1v-2l7 2a118 118 0 0 0 9 0 2427 2427 0 0 0 39 1c4-4 6-7 8-12l8-10 1-2a344 344 0 0 1 29-32l2-2a257 257 0 0 1 17-16c53-46 122-80 194-77 24 2 47 11 63 30 10 13 12 29 10 45l-4 14-1 2a200 200 0 0 1-63 86c-9 7-17 13-26 18l-2 1c-11 7-23 11-35 15l1 2 11 21 2 3 6 12 1-4c3-15 6-26 19-35 18-12 33-12 54-8l8 2h4c17 4 31 1 46-8 12-10 20-28 22-43 3-27-6-48-18-71a88 88 0 0 1-7-66c2-7 6-13 11-19 9-13 10-24 7-39s-10-27-23-35l-15-8 1-3c60 10 60 10 77 33 9 15 13 31 10 48-3 13-9 22-17 32l-2 3-2 2h-2l-1 2-3 10c-3 11 8 26 13 36 8 15 13 29 17 45v3c7 33 5 68-14 97l-8 10-2 3a60 60 0 0 1-41 19c-11 0-21 0-32-2l-26-2h-3c-4 0-8 0-12 2-5 7-6 17-6 25a74 74 0 0 0 25 53H647a325834 325834 0 0 1-99 1h-3a74645 74645 0 0 0-229 0h-3a16399 16399 0 0 0-156 0c-16 0-28 0-41-11a3090 3090 0 0 0-7-6l-2-2-5-4-2-2c-22-21-36-50-44-78l-1-2c-6-25-4-54 8-77 9-15 22-30 36-41 9-8 19-18 25-29l2-3c6-11 4-21 1-32-4-14-10-26-17-39-17-29-26-62-17-95 5-16 14-29 28-38 22-10 43-7 63 7Zm-15 36 2 2 13 13c0-4-2-5-4-8-5-5-5-5-11-7Zm16 15 1 3v-3h-1Zm3 4 1 2Zm20 56 1 4Zm-1 6 1 3Zm476 121-3 2-15 15v1l4 1c4 1 8 2 12 5l2 1c11 5 22 12 31 21 2 2 3 3 7 3a91 91 0 0 0 15-7 289 289 0 0 0 67-50c22-20 22-20 31-47l-1-5c-51-14-114 28-150 60Zm41 64 1 3v-3h-1Zm5 6 2 4v-3l-2-1Zm4 5 1 3v-3h-1Zm3 4 2 4v-3l-2-1Zm3 4 1 3v-3h-1Zm3 4 1 3v-3h-1Zm2 3 1 3v-3h-1Zm-639 1 1 2Zm643 5 1 3v-3h-1Zm-618 37 1 2Zm2 3 1 3v-3h-1Zm64 8 10 12 1 2 4 4 2 2 3 1 1-3a62473 62473 0 0 1 3-7l3-8-10-1-3-1-14-1Z"/><path fill="#BB27A0" d="M801 676h2a107 107 0 0 1 34 4 62 62 0 0 1 39 30l1 2c6 13 4 29 0 42l-3 5v-3c-2-10-4-17-12-24-18-14-41-15-62-12-59 9-120 50-156 97l-1 2-19 28-2 2a115 115 0 0 0-10 23c-17 42-25 83-27 128h-33c-2-8-3-17-3-25l-1-2c-4-49-8-100 11-146l1-2c4-11 10-20 18-28l2-2 18-19 2-2a288 288 0 0 1 44-38l2-1c45-34 98-59 155-59Z"/><path fill="#FEEF60" d="m335 890 3 2a518 518 0 0 1 63 54c9 8 18 18 26 28l-2 1a102 102 0 0 1-14-6c-46-21-99-39-151-37-11 0-21-1-31-4-24-5-58-9-80 3-3 2-4 3-5 6l-1 3-7-9-2-3-2-4-4-6c-9-16-13-33-11-51 3-11 10-19 19-25 62-37 148 11 199 48Z"/><path fill="#DA99FE" d="M345 809a5126 5126 0 0 0 47 9h2l21 3h8c5 0 9 1 12 5l9 15 2 4 19 43c13 28 26 56 41 83l8 17 2 3 2 3 1 3 1 3a1393 1393 0 0 1-65 0l-9-12-3-4-2-1-3-4-7-7a279 279 0 0 0-17-20l-15-15a1401 1401 0 0 1-14-14l-2-3a250 250 0 0 0-18-16l-31-24-2-1c-15-11-31-21-47-30 0-3 0-3 2-5l3-3 2-2a215 215 0 0 1 14-13c23-21 23-21 39-17Z"/><path fill="#D998FE" d="M657 819c10 2 18 9 25 16l2 2c35 33 52 87 62 132l1 4 4 27H612l-3-41v-2c-2-46 17-103 48-138Z"/><path fill="#FE88E8" d="M743 703h2c6 0 9 1 14 3l-1 6c-6 5-14 8-21 11-14 7-27 13-40 22l-3 2a208 208 0 0 0-36 30l-9 9-6 6c-29 33-60 81-67 124l-5 20-1 3c-2 7-5 13-10 18l-4 1c-5-2-7-5-9-10l-2-13v-15c-1-32 2-63 14-93l1-2c4-11 10-20 18-28l2-2 18-19 2-2a288 288 0 0 1 47-40l3-3 3-2 10-5 8-3c22-11 47-18 72-18Z"/><path fill="#FEF8BA" d="m332 888 6 4c0 6 0 6-2 9-8 3-16 2-24 0l-3-1a1696 1696 0 0 1-26-5l-4-1c-13-3-26-5-40-6h-3c-20-2-40-3-59-1h-2c-5 0-8 2-13 4l-14 4-3 1c-14 3-14 3-19 1-6-5-9-10-9-17-1-12 3-22 10-31 53-53 158 5 205 39Z"/><path fill="#28BB34" d="M96 614h2l1 3c5 24 18 42 36 58a332 332 0 0 1 23 19c10 9 22 19 26 32 1 20-6 39-20 54-15 17-32 28-52 38-15 7-29 15-39 28l-1 2h-2l-1 3-4 9-6 15h-1c-1-29 9-53 28-75l14-14c14-14 32-32 33-53-1-22-9-42-19-61s-17-37-18-58Z"/><path fill="#5A1083" d="m664 807 12 5 2 2c11 5 20 12 29 20l2 1 6 8 3 1a51 51 0 0 1 6 8l2 1 4 6a222 222 0 0 1 21 28l6 9 1 2c17 31 31 64 26 100l-1 2h-32l-3-16c-7-37-19-72-36-106l-1-2c-8-14-17-28-28-39l-2-2c-6-7-15-14-24-15-29 32-47 85-47 128v2l1 30v2l1 5v13h-18a304 304 0 0 1 38-151c5-11 12-20 20-30l7-9c2-3 2-3 5-3Z"/><path fill="#771365" d="M837 728c13 3 23 8 30 19 3 6 3 12 3 18l2 1a238 238 0 0 1-44 61c-18 19-40 35-66 45l-2 1c-6 2-6 2-10 1l-4-6a211 211 0 0 0-22-27l2-1c21-10 39-22 57-36l3-2 22-21 2-1c12-12 26-27 27-45v-7Z"/><path fill="#005907" d="M89 836v3c-1 18 4 34 15 49l2 2c3 3 4 6 5 10 7 24 22 44 39 62l2 2c12 13 29 24 44 34l2 1v1a1953 1953 0 0 1-29 0c-27 1-27 1-38-6l-2-1-6-4-1-1c-7-4-12-10-18-15l-2-2c-21-20-34-46-41-74l-1-2c-3-13 3-28 10-39 13-20 13-20 19-20Z"/><path fill="#5B180E" d="M967 789c11 20 6 54 0 74-6 19-20 37-38 46-16 6-31 6-47 4-28-4-57-3-81 14-6 5-11 9-15 16h-2c-6-14-4-31 1-45 6-12 16-18 28-23 12-4 24-1 35 2 25 7 25 7 50 2l7-1 14-4h2l22-11 3-2c12-8 16-26 19-39 2-11 2-22 2-33Z"/><path fill="#D998FE" d="M229 935c30 5 59 15 88 26l3 2 3 1 3 1 3 4v11l1 20H216c2-23 6-44 13-65Z"/><path fill="#28BB34" d="M181 554c8 6 16 13 22 21l2 2c12 15 21 30 19 50-2 14-9 27-15 40l-2-8c-2-24-12-54-31-70-14-10-32-20-50-18-11 2-19 7-26 16l-2 3-3 4c1-16 9-28 20-39 20-17 45-15 66-1Z"/><path fill="#9E6200" d="m418 971 4 2c6 2 10 5 14 10l1 2 11 15c-24 2-43 2-64-12l-22-12-5-2a616 616 0 0 0-106-42c55-7 118 15 167 39Z"/><path fill="#BB3A27" d="m942 723 4 10 10 22c7 14 12 26 12 42v2c1 20-4 43-16 58a35 35 0 0 1-8 6c-29 18-29 18-41 16l-2-1 2-1c19-11 28-27 33-48 4-15 2-30-1-45-4-20-4-43 7-61Z"/><path fill="#D998FE" d="M542 860v12l-1 3c-3 15-3 30-3 46v3c0 25 2 51 5 76h-3l-4-5-2-3-2-1-6-8c-11-13-20-27-30-41l14-27 1-3 2-2 1-2 3-4 2-5 5-9 1-2 3-5a8222 8222 0 0 0 14-23Z"/><path fill="#9CF2FE" d="M554 830c-3 11-8 20-14 29a5671 5671 0 0 0-26 38 1099 1099 0 0 1-27-33l-2-2a793 793 0 0 0-23-28h6c10 2 20 2 30 2h2c18 0 37-6 54-6Z"/><path fill="#5B180E" d="m831 923-1 2-1 3-1 3c-6 17-2 37 6 53 3 6 6 11 11 16h-55v-17c0-7 0-14-2-21-1-6 0-12 4-17 7-9 26-26 39-22Z"/><path fill="#005908" d="M121 577v7c-5 24 6 52 19 72l19 25c19 24 19 24 23 37l-1 3-2-3c-7-10-15-18-25-26a221 221 0 0 1-22-20c-15-14-32-32-34-54v-4l-2-1c2-12 6-23 16-31l9-5Z"/><path fill="#9CF2FE" d="M437 820h11l3 6c1 3 4 5 6 7l4 5a523 523 0 0 0 41 52l2 2 8 9-5 11-2 3a20098 20098 0 0 1-11 21h-2l-26-54-2-3a53653 53653 0 0 1-24-49l-1-2-1-2-1-6Z"/><path fill="#9E6100" d="M181 931h9l1 2c5 10 13 19 23 24v2l-2 10-1 4-4 22a30 30 0 0 1-10-6l-2-1-14-11a168 168 0 0 1-25-21c-10-10-10-10-13-15l1-5h4l14-3c7-2 13-2 19-2Z"/><path fill="#FEA496" d="M908 590a93 93 0 0 1 36 14c4 2 5 4 7 8 5 21-2 41-13 59l-9 13c-8 12-15 23-20 37-3-3-2-5-2-9 0-17 7-30 16-44 8-13 10-28 7-43-3-14-9-26-22-34v-1Z"/><path fill="#BB3B28" d="M949 609c10 7 15 18 18 29 2 16-2 30-11 43-8 12-19 21-30 30-6 5-10 11-13 19l-2 4-2-5v-2c-2-10 5-22 10-31l10-13c9-13 17-25 21-41l1-2v-15l-2-16Z"/><path fill="#93FD9D" d="M181 554c8 6 16 13 22 21l2 2c10 12 19 25 19 42l-8-11a205 205 0 0 0-20-23 96 96 0 0 0-58-29c-8-1-17 1-25 2 16-22 48-17 68-4Z"/><path fill="#5A1083" d="m654 898 4 7 5 12c28 62 28 62 28 83h-23l-1-8-9-69-1-3a1879 1879 0 0 0-3-22Z"/><path fill="#771365" d="m616 859 1 2-3 7c-19 42-27 87-29 132h-15c1-33 11-67 23-97l1-2c6-15 13-29 22-42Z"/><path fill="#93FE9D" d="m122 686 7 11 1 2c8 17 15 39 9 58-6 14-18 24-29 33a1329 1329 0 0 0-22 17c-6 5-11 12-16 19l-7 8c3-19 22-35 35-48 14-14 32-32 33-53a131 131 0 0 0-11-47Z"/><path fill="#4B848C" d="M554 830c-3 11-8 20-14 29a5671 5671 0 0 0-26 38 1099 1099 0 0 1-27-33l-2-2a793 793 0 0 0-23-28h6c9 2 18 2 28 3h12v1h-2a10239 10239 0 0 0-12 2h-3l-2 1-8 1v9c4 5 8 11 13 15l2 2c5 3 9 4 15 3 7-1 13-4 18-10l1-1a66 66 0 0 0 10-15l4-9-4-2 6-2 3-1 5-1Z"/><path fill="#FEF6A8" d="m229 935 16 3-4 19-8 38-1 5h-16c1-22 6-44 13-65Z"/><path fill="#D998FE" d="M334 969c57 24 57 24 62 31h-60l-2-31Z"/><path fill="#4B848C" d="M437 820c5 1 7 5 9 9l1 3 28 49 9 15 1 3c5 10 5 10 13 18h5a126 126 0 0 1-9 19h-2l-26-54-2-3a53653 53653 0 0 1-24-49l-1-2-1-2-1-6Z"/><path fill="#5B180E" d="M941 709c2 15 2 15-1 21-8 14-6 33-6 48l-4-7-2-3-1-3-3-6-2-3-3-7c-2-4-2-7-2-11l1-2c2-12 11-19 20-26l3-1Z"/><path fill="#010001" d="M654 898c4 4 6 12 7 17l1 5v2l2 9 8 37 1 2 3 26v4h-8v-3l-10-74-1-3a1879 1879 0 0 0-3-22Z"/><path fill="#4B848C" d="M450 820a1081 1081 0 0 1 52 0l7 11a1320 1320 0 0 1-19 0c-28 1-28 1-37-7l-3-4Z"/><path fill="#FEF6A8" d="M337 807v2l-6 4c-14 11-26 25-38 39-4 0-6-2-9-5l18-17 4-4c21-19 21-19 31-19Z"/><path fill="#591083" d="m499 947 11 13a363 363 0 0 0 30 40h-14l-2-5a1203 1203 0 0 0-25-48Z"/><path fill="#4B848C" d="m508 820 46 1c-1 3-2 4-5 6l-12 2h-2l-20 2-3-4-2-3-2-4Z"/><path fill="#781466" d="m748 737-2 1-34 19-3 2c-6 3-11 8-17 12l-2-1c43-38 43-38 58-33Z"/><path fill="#E25EC9" d="m610 764 2 1-3 3a5680 5680 0 0 0-36 38l-5 4c2-5 5-8 9-12l2-2 31-32Z"/><path fill="#9E6102" d="M438 980c8 3 13 13 17 20-2 0-4-1-5-3l-2-1-1-3-2-2-1-2-4-6-2-3Z"/><path fill="#BB29A0" d="M586 788c0 4-3 6-6 9l-3 4-1 1-7 8-1-2 18-20Z"/><path fill="#5B190F" d="M948 701v4l-1 3-1 3-1 2h-1l-1-7 5-5Z"/></svg>